<?xml version="1.0" encoding="utf-8"?>
<!-- Generator: Adobe Illustrator 17.1.0, SVG Export Plug-In . SVG Version: 6.00 Build 0)  -->
<!DOCTYPE svg PUBLIC "-//W3C//DTD SVG 1.1//EN" "http://www.w3.org/Graphics/SVG/1.1/DTD/svg11.dtd">
<svg version="1.1" id="Layer_1" xmlns="http://www.w3.org/2000/svg" xmlns:xlink="http://www.w3.org/1999/xlink" x="0px" y="0px"
	 viewBox="0 0 408.5 471.7" enable-background="new 0 0 408.5 471.7" xml:space="preserve">
<polygon fill="#FCF4DA" points="408.5,353.8 204.3,471.7 0,353.8 0,117.9 204.3,0 408.5,117.9 "/>
<polygon fill="#EF3D30" points="386.4,332.1 386.4,345 204,450.3 22.1,346.8 22.1,332.1 203.8,436.2 "/>
<g>
	<path fill="#EF3D30" d="M368,322.7l16.3,9.4l-180.1,104l-180.1-104l16.3-9.4l163,94.1l0.5,0.3l0.5-0.3L368,322.7 M40.5,321.5
		l-18.3,10.6l182.1,105.1l182.1-105.1L368,321.5l-164,94.4L40.5,321.5L40.5,321.5z"/>
</g>
<g>
	<path fill="#EF3D30" d="M318,280.7l48,28.5l-161.8,93.4L42.4,309.2l48-28.5l22.3,12.9l0.2,0.1l0.3,0l181.6-0.4l0.3,0l0.2-0.1
		L318,280.7 M318.1,279.5l-23.3,12.8l-181.6,0.4l-22.8-13.2l-50,29.7l163.8,94.6L368,309.2L318.1,279.5L318.1,279.5z"/>
</g>
<polygon fill="#EF3D30" points="368,309.2 368,321.5 204.2,416.1 40.5,321.5 40.5,309.2 204.2,403.2 "/>
<polygon fill="#F26C66" points="76,96.8 203.8,22.8 332.5,96.8 306.2,110 102.5,110 "/>
<polygon fill="#EF3D30" points="76,288.6 76,96.8 102.5,110 306,110 332.5,96.8 332.5,288.8 306,301.9 102.5,301.9 "/>
<rect x="162.1" y="201.2" fill="#FCF4DA" width="81" height="104.3"/>
<text transform="matrix(1 0 0 1 110.6138 164.8599)" fill="#FCF4DA" font-family="'Oswald-Bold'" font-size="25.974" letter-spacing="1">NODESCHOOL.IO</text>
<rect x="124.9" y="191.5" fill="#FCF4DA" width="12.6" height="110.3"/>
<rect x="267.1" y="191.5" fill="#FCF4DA" width="12.6" height="110.3"/>
<rect x="118.5" y="186.1" fill="#FCF4DA" width="27.1" height="5.4"/>
<rect x="259.9" y="186.1" fill="#FCF4DA" width="27.1" height="5.4"/>
<line fill="none" stroke="#EF3D30" stroke-miterlimit="10" x1="270.8" y1="191.6" x2="270.8" y2="301.8"/>
<line fill="none" stroke="#EF3D30" stroke-miterlimit="10" x1="276.1" y1="191.6" x2="276.1" y2="301.8"/>
<line fill="none" stroke="#EF3D30" stroke-miterlimit="10" x1="128.5" y1="191.4" x2="128.5" y2="301.8"/>
<line fill="none" stroke="#EF3D30" stroke-miterlimit="10" x1="133.9" y1="191.4" x2="133.9" y2="301.8"/>
<g>
	<rect x="201.6" y="200.5" fill="#D52827" width="2" height="101.5"/>
</g>
<polyline fill="none" stroke="#D52827" stroke-width="2" stroke-miterlimit="10" points="287,186.1 287,192.5 280.7,192.5 
	280.7,301.8 "/>
<polyline fill="none" stroke="#D52827" stroke-width="2" stroke-miterlimit="10" points="145.2,186.1 145.2,192.5 138,192.5 
	138,301.8 "/>
<polyline fill="none" stroke="#D52827" stroke-width="2" stroke-miterlimit="10" points="243.1,301.9 243.1,201.3 162.1,201.3 
	162.1,301.9 "/>
<polyline fill="none" stroke="#D52827" stroke-width="2" stroke-miterlimit="10" points="266.2,301.8 266.2,192.6 259.9,192.6 
	259.9,184.8 "/>
<polyline fill="none" stroke="#D52827" stroke-width="2" stroke-miterlimit="10" points="124.3,301.8 124.3,192.6 117.9,192.6 
	117.9,184.8 "/>
<polygon fill="#FCF4DA" points="76,170.7 76,159.2 102.5,172.5 306,172.5 332.5,159.2 332.5,171 306,184 102.5,184 "/>
<polygon fill="#D52827" points="75.9,173.3 75.9,169.8 102.4,183 305.9,183 332.4,169.8 332.4,173.6 305.9,186.6 102.4,186.6 "/>
<polygon fill="#FCF4DA" points="76,119.2 76,107.7 102.5,121 306,121 332.5,107.7 332.5,119.5 306,132.5 102.5,132.5 "/>
<polygon fill="#D52827" points="75.9,121.8 75.9,118.3 102.4,131.5 305.9,131.5 332.4,118.3 332.4,122.1 305.9,135.1 102.4,135.1 
	"/>
<polygon fill="#D52827" points="75.9,100.3 75.9,96.8 102.4,110 305.9,110 332.4,96.8 332.4,100.5 305.9,113.6 102.4,113.6 "/>
</svg>
