<?xml version="1.0" encoding="utf-8"?>
<!-- Generator: Adobe Illustrator 18.1.1, SVG Export Plug-In . SVG Version: 6.00 Build 0)  -->
<svg version="1.1" id="Layer_1" xmlns="http://www.w3.org/2000/svg" xmlns:xlink="http://www.w3.org/1999/xlink" x="0px" y="0px"
	 viewBox="0 0 381.2 440.1" enable-background="new 0 0 381.2 440.1" xml:space="preserve">
<g>
	<polygon fill="#CADEFF" stroke="#BF0A30" stroke-width="10" stroke-miterlimit="10" points="376.2,327.2 190.6,434.4 5,327.2 
		5,112.9 190.6,5.8 376.2,112.9 	"/>
	<circle fill="none" cx="192.2" cy="222.8" r="0.5"/>
	<path fill="#6A96CC" d="M267.6,78.6l-75.9-43.8c0,0,0,0,0,0c-0.1-0.1-0.2-0.1-0.3-0.1c0,0,0,0,0,0c0,0,0,0,0,0c0,0-0.1,0-0.1,0
		c0,0-0.1,0-0.1,0c-0.1,0-0.2,0-0.3,0c0,0,0,0-0.1,0c0,0-0.1,0-0.1,0c-0.1,0-0.3,0-0.4,0c0,0,0,0,0,0c0,0,0,0,0,0c0,0,0,0,0,0
		c-0.1,0-0.2,0.1-0.3,0.1c0,0,0,0,0,0l-74.7,43.1c-0.9,0.5-1.2,1.6-0.7,2.5c0.5,0.9,1.7,1.2,2.5,0.7l66.4-38.3l-28.2,36
		c-0.6,0.8-0.5,2,0.3,2.6c0.8,0.6,2,0.5,2.6-0.3l30.8-39.3v38.4c0,1,0.8,1.9,1.9,1.9c1,0,1.9-0.8,1.9-1.9V41.8l30.8,39.3
		c0.4,0.5,0.9,0.7,1.5,0.7c0.4,0,0.8-0.1,1.1-0.4c0.8-0.6,0.9-1.8,0.3-2.6l-28.2-36l67.6,39c0.3,0.2,0.6,0.2,0.9,0.2
		c0.6,0,1.3-0.3,1.6-0.9C268.8,80.3,268.4,79.1,267.6,78.6z"/>
	<path fill="#6A96CC" d="M267,361.6c-0.5-0.9-1.7-1.2-2.5-0.7l-66.3,38.3l28.2-36c0.6-0.8,0.5-2-0.3-2.6c-0.8-0.6-2-0.5-2.6,0.3
		l-30.8,39.3v-38.4c0-1-0.8-1.9-1.9-1.9c-1,0-1.9,0.8-1.9,1.9v38.4l-30.8-39.3c-0.6-0.8-1.8-0.9-2.6-0.3c-0.8,0.6-0.9,1.8-0.3,2.6
		l28.2,36l-67.6-39c-0.9-0.5-2-0.2-2.5,0.7c-0.5,0.9-0.2,2,0.7,2.5l75.9,43.8c0,0,0,0,0.1,0c0.1,0,0.1,0.1,0.2,0.1c0,0,0,0,0.1,0
		c0,0,0,0,0.1,0c0,0,0.1,0,0.1,0c0.1,0,0.3,0.1,0.4,0.1l0,0l0,0l0,0c0,0,0,0,0,0c0.2,0,0.3,0,0.4-0.1c0,0,0.1,0,0.1,0
		c0,0,0.1,0,0.1,0c0.1,0,0.1-0.1,0.2-0.1c0,0,0,0,0.1,0l74.7-43.1C267.2,363.6,267.5,362.4,267,361.6z"/>
	<circle fill="#1B1464" cx="272" cy="358.1" r="2.3"/>
	<circle fill="#1B1464" cx="108.5" cy="358.1" r="2.3"/>
	<path fill="#224099" stroke="#224099" stroke-miterlimit="10" d="M123.8,125.9c0.8,0,1.4-0.6,1.4-1.4v-7.1l5.8,7.6
		c0.4,0.5,0.8,0.9,1.5,0.9h0.1c0.8,0,1.5-0.6,1.5-1.5v-10.5c0-0.8-0.6-1.4-1.4-1.4c-0.8,0-1.4,0.6-1.4,1.4v6.8l-5.6-7.4
		c-0.4-0.5-0.8-0.9-1.5-0.9h-0.3c-0.8,0-1.5,0.6-1.5,1.5v10.5C122.4,125.3,123,125.9,123.8,125.9z"/>
	<path fill="#224099" stroke="#224099" stroke-miterlimit="10" d="M143.8,126.1c4.1,0,7.1-3.1,7.1-6.8v0c0-3.8-2.9-6.8-7-6.8
		c-4.1,0-7.1,3.1-7.1,6.8v0C136.7,123,139.7,126.1,143.8,126.1z M139.8,119.2c0-2.3,1.6-4.1,4-4.1c2.3,0,4,1.9,4,4.2v0
		c0,2.3-1.6,4.1-4,4.1C141.5,123.4,139.8,121.5,139.8,119.2L139.8,119.2z"/>
	<path fill="#224099" stroke="#224099" stroke-miterlimit="10" d="M154.9,125.8h3.7c4.2,0,7-2.9,7-6.6v0c0-3.7-2.9-6.6-7-6.6h-3.7
		c-0.8,0-1.5,0.6-1.5,1.5v10.3C153.4,125.2,154,125.8,154.9,125.8z M156.3,115.2h2.2c2.4,0,4,1.6,4,4v0c0,2.3-1.6,4-4,4h-2.2V115.2z
		"/>
	<path fill="#224099" stroke="#224099" stroke-miterlimit="10" d="M169.7,125.8h7.4c0.7,0,1.3-0.6,1.3-1.3c0-0.7-0.6-1.3-1.3-1.3h-6
		v-2.8h5c0.7,0,1.3-0.6,1.3-1.3c0-0.7-0.6-1.3-1.3-1.3h-5v-2.7h5.9c0.7,0,1.3-0.6,1.3-1.3c0-0.7-0.6-1.3-1.3-1.3h-7.3
		c-0.8,0-1.5,0.6-1.5,1.5v10.3C168.2,125.2,168.8,125.8,169.7,125.8z"/>
	<path fill="#224099" stroke="#224099" stroke-miterlimit="10" d="M180.6,124.4c1.5,1.1,3.2,1.6,5,1.6c2.9,0,4.9-1.5,4.9-4.1v0
		c0-2.3-1.5-3.3-4.2-4c-2.3-0.6-2.9-0.9-2.9-1.7v0c0-0.6,0.6-1.2,1.7-1.2c0.9,0,1.8,0.3,2.8,0.9c0.2,0.1,0.5,0.2,0.7,0.2
		c0.8,0,1.4-0.6,1.4-1.3c0-0.6-0.3-1-0.6-1.2c-1.2-0.8-2.6-1.2-4.2-1.2c-2.7,0-4.6,1.6-4.6,4v0c0,2.6,1.7,3.4,4.4,4
		c2.2,0.6,2.7,0.9,2.7,1.7v0c0,0.8-0.7,1.2-1.9,1.2c-1.3,0-2.4-0.5-3.4-1.2c-0.2-0.1-0.5-0.3-0.8-0.3c-0.8,0-1.4,0.6-1.4,1.3
		C180.1,123.8,180.3,124.2,180.6,124.4z"/>
	<path fill="#224099" stroke="#224099" stroke-miterlimit="10" d="M199.2,126.1c2.1,0,3.5-0.6,4.7-1.7c0.3-0.2,0.5-0.6,0.5-1
		c0-0.7-0.6-1.3-1.4-1.3c-0.3,0-0.6,0.1-0.9,0.3c-0.8,0.7-1.6,1-2.9,1c-2.3,0-3.8-1.9-3.8-4.2v0c0-2.3,1.6-4.1,3.8-4.1
		c1,0,1.9,0.3,2.7,0.9c0.2,0.1,0.5,0.3,0.9,0.3c0.8,0,1.4-0.6,1.4-1.4c0-0.5-0.3-0.9-0.6-1.2c-1.1-0.8-2.4-1.3-4.4-1.3
		c-4.1,0-6.9,3.1-6.9,6.8v0C192.4,123.1,195.3,126.1,199.2,126.1z"/>
	<path fill="#224099" stroke="#224099" stroke-miterlimit="10" d="M208.4,125.9c0.8,0,1.5-0.6,1.5-1.5v-4h5.4v4
		c0,0.8,0.6,1.5,1.5,1.5c0.8,0,1.5-0.6,1.5-1.5v-10.5c0-0.8-0.6-1.5-1.5-1.5c-0.8,0-1.5,0.6-1.5,1.5v3.9h-5.4v-3.9
		c0-0.8-0.6-1.5-1.5-1.5c-0.8,0-1.5,0.6-1.5,1.5v10.5C206.9,125.3,207.6,125.9,208.4,125.9z"/>
	<path fill="#224099" stroke="#224099" stroke-miterlimit="10" d="M227.7,126.1c4.1,0,7-3.1,7-6.8v0c0-3.8-2.9-6.8-7-6.8
		c-4.1,0-7.1,3.1-7.1,6.8v0C220.7,123,223.6,126.1,227.7,126.1z M223.8,119.2c0-2.3,1.6-4.1,4-4.1c2.3,0,4,1.9,4,4.2v0
		c0,2.3-1.6,4.1-4,4.1C225.4,123.4,223.8,121.5,223.8,119.2L223.8,119.2z"/>
	<path fill="#224099" stroke="#224099" stroke-miterlimit="10" d="M243.8,126.1c4.1,0,7.1-3.1,7.1-6.8v0c0-3.8-2.9-6.8-7-6.8
		c-4.1,0-7.1,3.1-7.1,6.8v0C236.8,123,239.7,126.1,243.8,126.1z M239.8,119.2c0-2.3,1.6-4.1,4-4.1c2.3,0,4,1.9,4,4.2v0
		c0,2.3-1.6,4.1-4,4.1C241.5,123.4,239.8,121.5,239.8,119.2L239.8,119.2z"/>
	<path fill="#224099" stroke="#224099" stroke-miterlimit="10" d="M254.9,125.8h6.8c0.7,0,1.3-0.6,1.3-1.3c0-0.7-0.6-1.3-1.3-1.3
		h-5.4v-9.2c0-0.8-0.6-1.5-1.5-1.5c-0.8,0-1.5,0.6-1.5,1.5v10.4C253.4,125.2,254.1,125.8,254.9,125.8z"/>
	<path fill="#224099" stroke="#224099" stroke-miterlimit="10" d="M141.7,350.1c-0.3-0.6-0.1-1.3,0.5-1.7l2.7-1.6
		c3-1.8,6.4-0.9,7.9,1.8l0,0c1.6,2.7,0.7,6.1-2.4,7.8l-2.7,1.6c-0.6,0.3-1.3,0.1-1.7-0.5L141.7,350.1z M149.4,354.6
		c1.7-1,2.2-2.9,1.3-4.6l0,0c-1-1.7-2.9-2.2-4.6-1.2l-1.6,1l3.4,5.8L149.4,354.6z"/>
	<path fill="#224099" stroke="#224099" stroke-miterlimit="10" d="M229.5,349.4L229.5,349.4c1.6-2.8,5-3.8,8-2.1
		c1.5,0.8,2.2,1.8,2.7,2.9c0.1,0.3,0.1,0.7-0.1,1.1c-0.3,0.6-1.1,0.8-1.7,0.4c-0.3-0.2-0.4-0.4-0.5-0.6c-0.3-0.8-0.8-1.4-1.6-1.8
		c-1.6-0.9-3.6-0.3-4.6,1.4l0,0c-1,1.7-0.6,3.7,1.1,4.7c0.9,0.5,1.7,0.6,2.5,0.5c0.2,0,0.5,0,0.8,0.1c0.5,0.3,0.7,1,0.4,1.6
		c-0.2,0.3-0.5,0.5-0.8,0.6c-1.3,0.3-2.6,0.1-4.2-0.8C228.8,355.6,227.9,352.1,229.5,349.4z"/>
	<circle fill="#1B1464" cx="191" cy="345.1" r="2.3"/>
	<polygon fill="#2B388F" points="201.1,167.5 191.1,148.8 181,167.6 172.5,324.7 209.6,324.7 	"/>
	<g>
		<circle fill="#FFB7C5" cx="26.9" cy="177.7" r="4.3"/>
		<circle fill="#FFB7C5" cx="31.6" cy="190.7" r="4.3"/>
		<circle fill="#FFB7C5" cx="24.4" cy="186" r="4.3"/>
		<circle fill="#FFB7C5" cx="30" cy="183.1" r="4.3"/>
		<circle fill="#FFB7C5" cx="31.1" cy="184.6" r="4.3"/>
		<circle fill="#FFB7C5" cx="32.6" cy="181.3" r="4.3"/>
		<circle fill="#FFB7C5" cx="35.4" cy="176.2" r="4.3"/>
		<circle fill="#FFB7C5" cx="37.7" cy="184.6" r="4.3"/>
		<circle fill="#FFFFFF" cx="31.8" cy="182.1" r="3.1"/>
		<path fill="#FFFFFF" d="M32.7,174.8l0.6,5c0,0,0,0,0,0c0,0,0,0,0,0c0,0,0,0,0,0c0,0,0,0,0,0c0,0,0,0,0,0c0,0,0,0,0,0c0,0,0,0,0,0
			c0,0,0,0,0,0c0,0,0,0,0,0c0,0,0,0,0,0c0,0,0,0,0,0c0,0,0,0,0,0c0,0,0,0,0,0c0,0,0,0,0,0c0,0,0,0,0,0l4.6-1.8
			c0.1,0,0.1-0.1,0.1-0.2c0-0.1,0-0.1-0.1-0.1l-4.1,1.6l2.6-2.2c0.1,0,0.1-0.1,0.1-0.2c0-0.1,0-0.1-0.1,0l-2.9,2.4l1.8-3
			c0-0.1,0.1-0.2,0-0.2s-0.1,0-0.1,0.1l-1.8,3l0.8-3.7c0,0,0-0.1,0-0.1c0,0,0,0-0.1,0c-0.1,0-0.1,0.1-0.1,0.2l-0.7,3.4l-0.5-4.4
			c0,0,0,0,0,0c0,0-0.1,0-0.1,0C32.7,174.7,32.7,174.8,32.7,174.8z"/>
		<path fill="#FFFFFF" d="M39.1,182l-4.8,1.2c0,0,0,0,0,0c0,0,0,0,0,0c0,0,0,0,0,0c0,0,0,0,0,0c0,0,0,0,0,0c0,0,0,0,0,0c0,0,0,0,0,0
			c0,0,0,0,0,0c0,0,0,0,0,0c0,0,0,0,0,0c0,0,0,0,0,0l0,0c0,0,0,0,0,0c0,0,0,0,0,0c0,0,0,0,0,0l2.3,4.3c0,0.1,0.1,0.1,0.2,0.1
			c0.1,0,0.1,0,0.1-0.1l-2.1-3.8l2.5,2.4c0.1,0.1,0.2,0.1,0.2,0.1c0.1,0,0.1-0.1,0-0.1l-2.7-2.6l3.2,1.4c0.1,0,0.2,0,0.2,0
			s0-0.1-0.1-0.1l-3.2-1.4l3.7,0.3c0,0,0.1,0,0.1,0c0,0,0,0,0-0.1c0-0.1-0.1-0.1-0.2-0.1l-3.4-0.3l4.3-1c0,0,0,0,0,0
			c0,0,0-0.1-0.1-0.1C39.3,182,39.2,182,39.1,182z"/>
		<path fill="#FFFFFF" d="M34.8,188.6l-3.4-3.7l0,0c0,0,0,0,0,0c0,0,0,0,0,0c0,0,0,0,0,0c0,0,0,0,0,0c0,0,0,0,0,0c0,0,0,0,0,0
			c0,0,0,0,0,0c0,0,0,0,0,0c0,0,0,0,0,0c0,0,0,0,0,0l0,0c0,0,0,0,0,0c0,0,0,0,0,0l0,0l-2.6,4.2c0,0,0,0.2,0,0.2
			c0,0.1,0.1,0.1,0.1,0.1l2.3-3.7l-0.8,3.3c0,0.1,0,0.2,0,0.2c0,0.1,0.1,0,0.1,0l0.9-3.6l0.3,3.5c0,0.1,0,0.2,0.1,0.2
			c0,0,0.1-0.1,0.1-0.2l-0.3-3.5L33,189c0,0,0,0.1,0.1,0.1c0,0,0,0,0,0c0-0.1,0-0.2,0-0.2l-1.4-3.1l3,3.3c0,0,0,0,0,0
			c0,0,0,0,0.1-0.1C34.8,188.7,34.8,188.6,34.8,188.6z"/>
		<path fill="#FFFFFF" d="M27.3,188l2.2-4.5l0,0c0,0,0,0,0,0c0,0,0,0,0,0c0,0,0,0,0,0c0,0,0,0,0,0c0,0,0,0,0,0c0,0,0,0,0,0
			c0,0,0,0,0,0c0,0,0,0,0,0c0,0,0,0,0,0c0,0,0,0,0,0l0,0c0,0,0,0,0,0c0,0,0,0,0,0c0,0,0,0,0,0l-4.8-1c-0.1,0-0.2,0-0.2,0.1
			c-0.1,0.1-0.1,0.1,0,0.1l4.3,0.9l-3.4,0.4c-0.1,0-0.2,0.1-0.2,0.1c0,0.1,0,0.1,0.1,0.1l3.7-0.4l-3.1,1.5c-0.1,0-0.1,0.1-0.1,0.1
			c0,0,0.1,0,0.2,0l3.1-1.5l-2.7,2.7c0,0,0,0.1,0,0.1c0,0,0,0,0.1,0c0.1,0,0.2,0,0.2-0.1l2.4-2.4l-2,4c0,0,0,0,0,0c0,0,0,0,0.1,0
			C27.2,188.1,27.3,188.1,27.3,188z"/>
		<path fill="#FFFFFF" d="M24.8,180.3l5,0.1l0,0c0,0,0,0,0,0c0,0,0,0,0,0l0,0c0,0,0,0,0,0c0,0,0,0,0,0c0,0,0,0,0,0c0,0,0,0,0,0
			c0,0,0,0,0,0c0,0,0,0,0,0c0,0,0,0,0,0c0,0,0,0,0,0c0,0,0,0,0,0c0,0,0,0,0,0c0,0,0,0,0,0l-1.2-4.8c0-0.1-0.1-0.1-0.2-0.2
			c-0.1,0-0.1,0-0.1,0l1.1,4.2l-1.9-2.9c0-0.1-0.1-0.1-0.2-0.1c-0.1,0-0.1,0,0,0.1l2,3.2l-2.7-2.1c-0.1-0.1-0.2-0.1-0.2,0
			c0,0,0,0.1,0.1,0.2l2.7,2.1l-3.6-1.2c0,0-0.1,0-0.1,0c0,0,0,0,0,0.1c0,0.1,0.1,0.1,0.2,0.2l3.3,1.1l-4.4-0.1c0,0,0,0,0,0
			c0,0,0,0.1,0,0.1C24.6,180.2,24.7,180.3,24.8,180.3z"/>
	</g>
	<g>
		<circle fill="#FFB7C5" cx="242.9" cy="142.7" r="4.3"/>
		<circle fill="#FFB7C5" cx="247.6" cy="155.7" r="4.3"/>
		<circle fill="#FFB7C5" cx="240.4" cy="151" r="4.3"/>
		<circle fill="#FFB7C5" cx="246" cy="148.1" r="4.3"/>
		<circle fill="#FFB7C5" cx="247.1" cy="149.6" r="4.3"/>
		<circle fill="#FFB7C5" cx="248.6" cy="146.3" r="4.3"/>
		<circle fill="#FFB7C5" cx="251.4" cy="141.2" r="4.3"/>
		<circle fill="#FFB7C5" cx="253.7" cy="149.6" r="4.3"/>
		<circle fill="#FFFFFF" cx="247.8" cy="147.1" r="3.1"/>
		<path fill="#FFFFFF" d="M248.7,139.8l0.6,5c0,0,0,0,0,0c0,0,0,0,0,0c0,0,0,0,0,0c0,0,0,0,0,0c0,0,0,0,0,0c0,0,0,0,0,0c0,0,0,0,0,0
			c0,0,0,0,0,0c0,0,0,0,0,0c0,0,0,0,0,0c0,0,0,0,0,0c0,0,0,0,0,0c0,0,0,0,0,0c0,0,0,0,0,0c0,0,0,0,0,0l4.6-1.8
			c0.1,0,0.1-0.1,0.1-0.2c0-0.1,0-0.1-0.1-0.1l-4.1,1.6l2.6-2.2c0.1,0,0.1-0.1,0.1-0.2c0-0.1,0-0.1-0.1,0l-2.9,2.4l1.8-3
			c0-0.1,0.1-0.2,0-0.2c0,0-0.1,0-0.1,0.1l-1.8,3l0.8-3.7c0,0,0-0.1,0-0.1c0,0,0,0-0.1,0c-0.1,0-0.1,0.1-0.1,0.2l-0.7,3.4l-0.5-4.4
			c0,0,0,0,0,0c0,0-0.1,0-0.1,0C248.7,139.7,248.7,139.8,248.7,139.8z"/>
		<path fill="#FFFFFF" d="M255.1,147l-4.8,1.2c0,0,0,0,0,0c0,0,0,0,0,0c0,0,0,0,0,0c0,0,0,0,0,0c0,0,0,0,0,0c0,0,0,0,0,0
			c0,0,0,0,0,0c0,0,0,0,0,0c0,0,0,0,0,0c0,0,0,0,0,0c0,0,0,0,0,0l0,0c0,0,0,0,0,0c0,0,0,0,0,0c0,0,0,0,0,0l2.3,4.3
			c0,0.1,0.1,0.1,0.2,0.1c0.1,0,0.1,0,0.1-0.1l-2.1-3.8l2.5,2.4c0.1,0.1,0.2,0.1,0.2,0.1c0.1,0,0.1-0.1,0-0.1l-2.7-2.6l3.2,1.4
			c0.1,0,0.2,0,0.2,0s0-0.1-0.1-0.1l-3.2-1.4l3.7,0.3c0,0,0.1,0,0.1,0c0,0,0,0,0-0.1c0-0.1-0.1-0.1-0.2-0.1l-3.4-0.3l4.3-1
			c0,0,0,0,0,0c0,0,0-0.1-0.1-0.1C255.3,147,255.2,147,255.1,147z"/>
		<path fill="#FFFFFF" d="M250.8,153.6l-3.4-3.7l0,0c0,0,0,0,0,0c0,0,0,0,0,0c0,0,0,0,0,0c0,0,0,0,0,0c0,0,0,0,0,0c0,0,0,0,0,0
			c0,0,0,0,0,0c0,0,0,0,0,0c0,0,0,0,0,0c0,0,0,0,0,0l0,0c0,0,0,0,0,0c0,0,0,0,0,0l0,0l-2.6,4.2c0,0,0,0.2,0,0.2
			c0,0.1,0.1,0.1,0.1,0.1l2.3-3.7l-0.8,3.3c0,0.1,0,0.2,0,0.2c0,0.1,0.1,0,0.1,0l0.9-3.6l0.3,3.5c0,0.1,0,0.2,0.1,0.2
			c0,0,0.1-0.1,0.1-0.2l-0.3-3.5l1.6,3.4c0,0,0,0.1,0.1,0.1c0,0,0,0,0,0c0-0.1,0-0.2,0-0.2l-1.4-3.1l3,3.3c0,0,0,0,0,0
			c0,0,0,0,0.1-0.1C250.8,153.7,250.8,153.6,250.8,153.6z"/>
		<path fill="#FFFFFF" d="M243.3,153l2.2-4.5l0,0c0,0,0,0,0,0c0,0,0,0,0,0c0,0,0,0,0,0c0,0,0,0,0,0c0,0,0,0,0,0c0,0,0,0,0,0
			c0,0,0,0,0,0c0,0,0,0,0,0c0,0,0,0,0,0c0,0,0,0,0,0l0,0c0,0,0,0,0,0c0,0,0,0,0,0c0,0,0,0,0,0l-4.8-1c-0.1,0-0.2,0-0.2,0.1
			c-0.1,0.1-0.1,0.1,0,0.1l4.3,0.9l-3.4,0.4c-0.1,0-0.2,0.1-0.2,0.1c0,0.1,0,0.1,0.1,0.1l3.7-0.4l-3.1,1.5c-0.1,0-0.1,0.1-0.1,0.1
			c0,0,0.1,0,0.2,0l3.1-1.5l-2.7,2.7c0,0,0,0.1,0,0.1c0,0,0,0,0.1,0c0.1,0,0.2,0,0.2-0.1l2.4-2.4l-2,4c0,0,0,0,0,0c0,0,0,0,0.1,0
			C243.2,153.1,243.3,153.1,243.3,153z"/>
		<path fill="#FFFFFF" d="M240.8,145.3l5,0.1l0,0c0,0,0,0,0,0c0,0,0,0,0,0l0,0c0,0,0,0,0,0c0,0,0,0,0,0c0,0,0,0,0,0c0,0,0,0,0,0
			c0,0,0,0,0,0c0,0,0,0,0,0c0,0,0,0,0,0c0,0,0,0,0,0c0,0,0,0,0,0c0,0,0,0,0,0c0,0,0,0,0,0l-1.2-4.8c0-0.1-0.1-0.1-0.2-0.2
			c-0.1,0-0.1,0-0.1,0l1.1,4.2l-1.9-2.9c0-0.1-0.1-0.1-0.2-0.1c-0.1,0-0.1,0,0,0.1l2,3.2l-2.7-2.1c-0.1-0.1-0.2-0.1-0.2,0
			c0,0,0,0.1,0.1,0.2l2.7,2.1l-3.6-1.2c0,0-0.1,0-0.1,0c0,0,0,0,0,0.1c0,0.1,0.1,0.1,0.2,0.2l3.3,1.1l-4.4-0.1c0,0,0,0,0,0
			c0,0,0,0.1,0,0.1C240.6,145.2,240.7,145.3,240.8,145.3z"/>
	</g>
	<g>
		<circle fill="#FFB7C5" cx="325" cy="139.4" r="5.3"/>
		<circle fill="#FFB7C5" cx="341.8" cy="141.6" r="5.3"/>
		<circle fill="#FFB7C5" cx="332.5" cy="146.8" r="5.3"/>
		<circle fill="#FFB7C5" cx="332.6" cy="139" r="5.3"/>
		<circle fill="#FFB7C5" cx="334.9" cy="138.7" r="5.3"/>
		<circle fill="#FFB7C5" cx="332.1" cy="135.2" r="5.3"/>
		<circle fill="#FFB7C5" cx="328.2" cy="129.2" r="5.3"/>
		<circle fill="#FFB7C5" cx="338.6" cy="131.4" r="5.3"/>
		<circle fill="#FFFFFF" cx="332.5" cy="136.5" r="3.8"/>
		<path fill="#FFFFFF" d="M325.1,131.4l5.7,2.2l0,0c0,0,0,0,0,0c0,0,0,0,0,0c0,0,0,0,0,0c0,0,0,0,0,0c0,0,0,0,0,0c0,0,0,0,0,0
			c0,0,0,0,0,0c0,0,0,0,0,0c0,0,0,0,0,0c0,0,0,0,0,0c0,0,0,0,0,0c0,0,0,0,0,0c0,0,0,0,0,0c0,0,0,0,0,0l0.6-6c0-0.1,0-0.2-0.1-0.3
			c-0.1-0.1-0.1-0.1-0.1,0l-0.5,5.3l-0.9-4.1c0-0.1-0.1-0.2-0.2-0.2c-0.1,0-0.1,0-0.1,0.1l1,4.5l-2.2-3.6c-0.1-0.1-0.1-0.2-0.2-0.1
			c0,0,0,0.1,0,0.2l2.2,3.6l-3.6-2.9c0,0-0.1,0-0.1,0c0,0,0,0,0,0.1c0,0.1,0.1,0.2,0.1,0.3l3.3,2.7l-5.1-1.9c0,0,0,0-0.1,0
			c0,0,0,0.1,0,0.1C325,131.3,325,131.4,325.1,131.4z"/>
		<path fill="#FFFFFF" d="M336.5,128.5l-1.5,6l0,0c0,0,0,0,0,0c0,0,0,0,0,0c0,0,0,0,0,0c0,0,0,0,0,0c0,0,0,0,0,0c0,0,0,0,0,0
			c0,0,0,0,0,0c0,0,0,0,0,0c0,0,0,0,0,0c0,0,0,0,0,0c0,0,0,0,0,0c0,0,0,0,0,0c0,0,0,0,0,0c0,0,0,0,0,0l6-0.1c0.1,0,0.2-0.1,0.2-0.1
			c0.1-0.1,0.1-0.1,0-0.1l-5.4,0.1l4-1.4c0.1,0,0.2-0.1,0.2-0.2c0-0.1,0-0.1-0.1-0.1l-4.4,1.5l3.3-2.7c0.1-0.1,0.1-0.2,0.1-0.2
			c0,0-0.1,0-0.2,0.1l-3.3,2.7l2.5-3.9c0,0,0-0.1,0-0.1c0,0,0,0-0.1,0c-0.1,0-0.2,0.1-0.2,0.2l-2.3,3.6l1.3-5.3c0,0,0,0,0-0.1
			c0,0-0.1,0-0.1,0C336.7,128.3,336.6,128.4,336.5,128.5z"/>
		<path fill="#FFFFFF" d="M341.3,136.9l-5.9,1.6c0,0,0,0,0,0c0,0,0,0,0,0c0,0,0,0,0,0c0,0,0,0,0,0c0,0,0,0,0,0c0,0,0,0,0,0
			c0,0,0,0,0,0c0,0,0,0,0,0c0,0,0,0,0,0c0,0,0,0,0,0c0,0,0,0,0,0c0,0,0,0,0,0c0,0,0,0,0,0c0,0,0,0,0,0c0,0,0,0,0,0l3,5.2
			c0,0.1,0.1,0.1,0.2,0.1c0.1,0,0.2,0,0.1-0.1l-2.7-4.6l3.2,2.8c0.1,0.1,0.2,0.1,0.3,0.1c0.1,0,0.1-0.1,0-0.1l-3.5-3l4,1.6
			c0.1,0,0.2,0,0.2,0c0,0-0.1-0.1-0.2-0.2l-4-1.6l4.6,0.2c0.1,0,0.1,0,0.1,0c0,0,0,0,0-0.1c-0.1-0.1-0.2-0.1-0.3-0.1l-4.2-0.2
			l5.3-1.5c0,0,0,0,0,0c0,0,0-0.1-0.1-0.1C341.5,136.9,341.3,136.9,341.3,136.9z"/>
		<path fill="#FFFFFF" d="M336.4,144.8l-3.6-5l0,0c0,0,0,0,0,0c0,0,0,0,0,0l0,0c0,0,0,0,0,0c0,0,0,0,0,0c0,0,0,0,0,0c0,0,0,0,0,0
			c0,0,0,0,0,0c0,0,0,0,0,0c0,0,0,0,0,0c0,0,0,0,0,0c0,0,0,0,0,0c0,0,0,0,0,0c0,0,0,0,0,0l-3.8,4.7c0,0.1-0.1,0.2,0,0.3
			c0,0.1,0.1,0.1,0.1,0.1l3.4-4.2l-1.5,4c0,0.1,0,0.2,0,0.3c0,0.1,0.1,0.1,0.1,0l1.6-4.3l-0.1,4.3c0,0.1,0,0.2,0.1,0.2
			c0.1,0,0.1-0.1,0.1-0.2l0.1-4.3l1.4,4.4c0,0.1,0,0.1,0.1,0.1c0,0,0,0,0.1,0c0-0.1,0.1-0.2,0-0.3l-1.3-4l3.2,4.4c0,0,0,0,0,0
			c0,0,0.1,0,0.1-0.1C336.5,145,336.4,144.8,336.4,144.8z"/>
		<path fill="#FFFFFF" d="M326.6,143.1l2.9-5.4c0,0,0,0,0,0c0,0,0,0,0,0c0,0,0,0,0,0l0,0c0,0,0,0,0,0c0,0,0,0,0,0c0,0,0,0,0,0
			c0,0,0,0,0,0c0,0,0,0,0,0c0,0,0,0,0,0c0,0,0,0,0,0c0,0,0,0,0,0c0,0,0,0,0,0c0,0,0,0,0,0c0,0,0,0,0,0l-5.9-1.4
			c-0.1,0-0.2,0-0.3,0.1c-0.1,0.1-0.1,0.1,0,0.1l5.2,1.2l-4.2,0.4c-0.1,0-0.2,0.1-0.3,0.1c0,0.1,0,0.1,0.1,0.1l4.6-0.4l-3.9,1.8
			c-0.1,0-0.2,0.1-0.2,0.2c0,0,0.1,0,0.2,0l3.9-1.8l-3.4,3.2c0,0-0.1,0.1,0,0.1c0,0,0,0,0.1,0c0.1,0,0.2,0,0.3-0.1l3.1-2.9l-2.6,4.8
			c0,0,0,0,0,0.1c0,0,0.1,0,0.1,0C326.4,143.3,326.5,143.2,326.6,143.1z"/>
	</g>
	<g>
		<circle fill="#FFB7C5" cx="269.1" cy="196.6" r="6.5"/>
		<circle fill="#FFB7C5" cx="289.7" cy="199.3" r="6.5"/>
		<circle fill="#FFB7C5" cx="278.4" cy="205.6" r="6.5"/>
		<circle fill="#FFB7C5" cx="278.4" cy="196.1" r="6.5"/>
		<circle fill="#FFB7C5" cx="281.3" cy="195.8" r="6.5"/>
		<circle fill="#FFB7C5" cx="277.8" cy="191.5" r="6.5"/>
		<circle fill="#FFB7C5" cx="273.1" cy="184.2" r="6.5"/>
		<circle fill="#FFB7C5" cx="285.8" cy="186.9" r="6.5"/>
		<circle fill="#FFFFFF" cx="278.4" cy="193" r="4.6"/>
		<path fill="#FFFFFF" d="M269.3,186.8l7,2.6c0,0,0,0,0,0c0,0,0,0,0,0c0,0,0,0,0,0l0,0c0,0,0,0,0,0c0,0,0,0,0,0c0,0,0,0,0,0
			c0,0,0,0,0,0c0,0,0,0,0,0c0,0,0,0,0,0c0,0,0,0,0,0c0,0,0,0,0,0c0,0,0,0,0,0c0,0,0,0,0,0c0,0,0,0,0,0l0.8-7.3
			c0-0.1-0.1-0.2-0.1-0.3c-0.1-0.1-0.2-0.1-0.2,0l-0.7,6.5l-1.1-5c0-0.1-0.1-0.2-0.2-0.3c-0.1,0-0.1,0-0.1,0.1l1.2,5.5l-2.7-4.4
			c-0.1-0.1-0.2-0.2-0.2-0.2c-0.1,0,0,0.2,0,0.3l2.7,4.4l-4.4-3.6c-0.1,0-0.1-0.1-0.1,0c0,0,0,0,0,0.1c0,0.1,0.1,0.2,0.2,0.3l4,3.3
			l-6.2-2.4c0,0,0,0-0.1,0c0,0,0,0.1,0,0.2C269.1,186.7,269.2,186.8,269.3,186.8z"/>
		<path fill="#FFFFFF" d="M283.3,183.2l-1.8,7.3c0,0,0,0,0,0c0,0,0,0,0,0c0,0,0,0,0,0l0,0c0,0,0,0,0,0c0,0,0,0,0,0c0,0,0,0,0,0
			c0,0,0,0,0,0c0,0,0,0,0,0c0,0,0,0,0,0c0,0,0,0,0,0c0,0,0,0,0,0c0,0,0,0,0,0c0,0,0,0,0,0c0,0,0,0,0,0l7.4-0.1
			c0.1,0,0.2-0.1,0.3-0.2c0.1-0.1,0.1-0.2,0-0.2l-6.5,0.1l4.9-1.7c0.1,0,0.2-0.1,0.3-0.2c0-0.1,0-0.1-0.1-0.1l-5.3,1.9l4.1-3.2
			c0.1-0.1,0.2-0.2,0.1-0.2s-0.2,0-0.3,0.1l-4.1,3.2l3-4.8c0-0.1,0-0.1,0-0.1c0,0,0,0-0.1,0c-0.1,0-0.2,0.1-0.3,0.2l-2.8,4.4
			l1.6-6.5c0,0,0,0,0-0.1c0,0-0.1,0-0.2,0C283.4,183,283.3,183.1,283.3,183.2z"/>
		<path fill="#FFFFFF" d="M289,193.6l-7.2,2c0,0,0,0,0,0c0,0,0,0,0,0c0,0,0,0,0,0l0,0c0,0,0,0,0,0c0,0,0,0,0,0c0,0,0,0,0,0
			c0,0,0,0,0,0c0,0,0,0,0,0c0,0,0,0,0,0c0,0,0,0,0,0c0,0,0,0,0,0c0,0,0,0,0,0c0,0,0,0,0,0c0,0,0,0,0,0l3.7,6.4
			c0,0.1,0.2,0.2,0.3,0.2c0.1,0,0.2,0,0.1-0.1l-3.3-5.6l3.9,3.4c0.1,0.1,0.2,0.1,0.3,0.1c0.1,0,0.1-0.1,0-0.2l-4.2-3.7l4.8,2
			c0.1,0.1,0.3,0,0.3,0s-0.1-0.1-0.2-0.2l-4.8-2l5.6,0.3c0.1,0,0.1,0,0.1,0c0,0,0-0.1,0-0.1c-0.1-0.1-0.2-0.1-0.3-0.2l-5.2-0.3
			l6.4-1.8c0,0,0,0,0.1,0c0,0,0-0.1-0.1-0.1C289.3,193.6,289.1,193.5,289,193.6z"/>
		<path fill="#FFFFFF" d="M283.1,203.1l-4.4-6.1c0,0,0,0,0,0c0,0,0,0,0,0c0,0,0,0,0,0l0,0c0,0,0,0,0,0c0,0,0,0,0,0c0,0,0,0,0,0
			c0,0,0,0,0,0c0,0,0,0,0,0c0,0,0,0,0,0c0,0,0,0,0,0c0,0,0,0,0,0c0,0,0,0,0,0c0,0,0,0,0,0c0,0,0,0,0,0l-4.7,5.7
			c-0.1,0.1-0.1,0.2-0.1,0.3c0,0.1,0.1,0.2,0.1,0.1l4.1-5.1l-1.8,4.8c0,0.1,0,0.3,0,0.4c0,0.1,0.1,0.1,0.2,0l2-5.3l-0.1,5.2
			c0,0.1,0,0.3,0.1,0.3s0.1-0.1,0.1-0.2l0.1-5.2l1.7,5.4c0,0.1,0.1,0.1,0.1,0.1c0,0,0,0,0.1-0.1c0.1-0.1,0.1-0.2,0-0.4l-1.6-4.9
			l3.9,5.4c0,0,0,0,0.1,0c0,0,0.1,0,0.1-0.1C283.2,203.4,283.2,203.2,283.1,203.1z"/>
		<path fill="#FFFFFF" d="M271.1,201.1l3.5-6.6c0,0,0,0,0,0c0,0,0,0,0,0c0,0,0,0,0,0c0,0,0,0,0,0c0,0,0,0,0,0c0,0,0,0,0,0
			c0,0,0,0,0,0c0,0,0,0,0,0c0,0,0,0,0,0c0,0,0,0,0,0c0,0,0,0,0,0c0,0,0,0,0,0c0,0,0,0,0,0c0,0,0,0,0,0c0,0,0,0,0,0l-7.2-1.7
			c-0.1,0-0.2,0-0.3,0.1c-0.1,0.1-0.1,0.2,0,0.2l6.4,1.5l-5.1,0.5c-0.1,0-0.3,0.1-0.3,0.2c-0.1,0.1,0,0.1,0.1,0.1l5.6-0.5l-4.7,2.1
			c-0.1,0.1-0.2,0.1-0.2,0.2c0,0.1,0.1,0.1,0.3,0l4.7-2.1l-4.1,3.9c0,0-0.1,0.1-0.1,0.1c0,0,0,0,0.1,0c0.1,0,0.2,0,0.3-0.1l3.7-3.6
			l-3.1,5.9c0,0,0,0,0,0.1c0,0,0.1,0.1,0.2,0C270.9,201.3,271.1,201.2,271.1,201.1z"/>
	</g>
	<g>
		<circle fill="#FFB7C5" cx="308" cy="176.4" r="5.3"/>
		<circle fill="#FFB7C5" cx="324.8" cy="178.6" r="5.3"/>
		<circle fill="#FFB7C5" cx="315.5" cy="183.8" r="5.3"/>
		<circle fill="#FFB7C5" cx="315.6" cy="176" r="5.3"/>
		<circle fill="#FFB7C5" cx="317.9" cy="175.7" r="5.3"/>
		<circle fill="#FFB7C5" cx="315.1" cy="172.2" r="5.3"/>
		<circle fill="#FFB7C5" cx="311.2" cy="166.2" r="5.3"/>
		<circle fill="#FFB7C5" cx="321.6" cy="168.4" r="5.3"/>
		<circle fill="#FFFFFF" cx="315.5" cy="173.5" r="3.8"/>
		<path fill="#FFFFFF" d="M308.1,168.4l5.7,2.2l0,0c0,0,0,0,0,0c0,0,0,0,0,0c0,0,0,0,0,0c0,0,0,0,0,0c0,0,0,0,0,0c0,0,0,0,0,0
			c0,0,0,0,0,0c0,0,0,0,0,0c0,0,0,0,0,0c0,0,0,0,0,0c0,0,0,0,0,0c0,0,0,0,0,0c0,0,0,0,0,0c0,0,0,0,0,0l0.6-6c0-0.1,0-0.2-0.1-0.3
			c-0.1-0.1-0.1-0.1-0.1,0l-0.5,5.3l-0.9-4.1c0-0.1-0.1-0.2-0.2-0.2c-0.1,0-0.1,0-0.1,0.1l1,4.5l-2.2-3.6c-0.1-0.1-0.1-0.2-0.2-0.1
			c0,0,0,0.1,0,0.2l2.2,3.6l-3.6-2.9c0,0-0.1,0-0.1,0c0,0,0,0,0,0.1c0,0.1,0.1,0.2,0.1,0.3l3.3,2.7l-5.1-1.9c0,0,0,0-0.1,0
			c0,0,0,0.1,0,0.1C308,168.3,308,168.4,308.1,168.4z"/>
		<path fill="#FFFFFF" d="M319.5,165.5l-1.5,6l0,0c0,0,0,0,0,0c0,0,0,0,0,0c0,0,0,0,0,0c0,0,0,0,0,0c0,0,0,0,0,0c0,0,0,0,0,0
			c0,0,0,0,0,0c0,0,0,0,0,0c0,0,0,0,0,0c0,0,0,0,0,0c0,0,0,0,0,0c0,0,0,0,0,0c0,0,0,0,0,0c0,0,0,0,0,0l6-0.1c0.1,0,0.2-0.1,0.2-0.1
			c0.1-0.1,0.1-0.1,0-0.1l-5.4,0.1l4-1.4c0.1,0,0.2-0.1,0.2-0.2c0-0.1,0-0.1-0.1-0.1l-4.4,1.5l3.3-2.7c0.1-0.1,0.1-0.2,0.1-0.2
			c0,0-0.1,0-0.2,0.1l-3.3,2.7l2.5-3.9c0,0,0-0.1,0-0.1c0,0,0,0-0.1,0c-0.1,0-0.2,0.1-0.2,0.2l-2.3,3.6l1.3-5.3c0,0,0,0,0-0.1
			c0,0-0.1,0-0.1,0C319.7,165.3,319.6,165.4,319.5,165.5z"/>
		<path fill="#FFFFFF" d="M324.3,173.9l-5.9,1.6c0,0,0,0,0,0c0,0,0,0,0,0c0,0,0,0,0,0c0,0,0,0,0,0c0,0,0,0,0,0c0,0,0,0,0,0
			c0,0,0,0,0,0c0,0,0,0,0,0c0,0,0,0,0,0c0,0,0,0,0,0c0,0,0,0,0,0c0,0,0,0,0,0c0,0,0,0,0,0c0,0,0,0,0,0c0,0,0,0,0,0l3,5.2
			c0,0.1,0.1,0.1,0.2,0.1c0.1,0,0.2,0,0.1-0.1l-2.7-4.6l3.2,2.8c0.1,0.1,0.2,0.1,0.3,0.1c0.1,0,0.1-0.1,0-0.1l-3.5-3l4,1.6
			c0.1,0,0.2,0,0.2,0c0,0-0.1-0.1-0.2-0.2l-4-1.6l4.6,0.2c0.1,0,0.1,0,0.1,0c0,0,0,0,0-0.1c-0.1-0.1-0.2-0.1-0.3-0.1l-4.2-0.2
			l5.3-1.5c0,0,0,0,0,0c0,0,0-0.1-0.1-0.1C324.5,173.9,324.3,173.9,324.3,173.9z"/>
		<path fill="#FFFFFF" d="M319.4,181.8l-3.6-5l0,0c0,0,0,0,0,0c0,0,0,0,0,0l0,0c0,0,0,0,0,0c0,0,0,0,0,0c0,0,0,0,0,0c0,0,0,0,0,0
			c0,0,0,0,0,0c0,0,0,0,0,0c0,0,0,0,0,0c0,0,0,0,0,0c0,0,0,0,0,0c0,0,0,0,0,0c0,0,0,0,0,0l-3.8,4.7c0,0.1-0.1,0.2,0,0.3
			c0,0.1,0.1,0.1,0.1,0.1l3.4-4.2l-1.5,4c0,0.1,0,0.2,0,0.3c0,0.1,0.1,0.1,0.1,0l1.6-4.3l-0.1,4.3c0,0.1,0,0.2,0.1,0.2
			c0.1,0,0.1-0.1,0.1-0.2l0.1-4.3l1.4,4.4c0,0.1,0,0.1,0.1,0.1c0,0,0,0,0.1,0c0-0.1,0.1-0.2,0-0.3l-1.3-4l3.2,4.4c0,0,0,0,0,0
			c0,0,0.1,0,0.1-0.1C319.5,182,319.4,181.8,319.4,181.8z"/>
		<path fill="#FFFFFF" d="M309.6,180.1l2.9-5.4c0,0,0,0,0,0c0,0,0,0,0,0c0,0,0,0,0,0l0,0c0,0,0,0,0,0c0,0,0,0,0,0c0,0,0,0,0,0
			c0,0,0,0,0,0c0,0,0,0,0,0c0,0,0,0,0,0c0,0,0,0,0,0c0,0,0,0,0,0c0,0,0,0,0,0c0,0,0,0,0,0c0,0,0,0,0,0l-5.9-1.4
			c-0.1,0-0.2,0-0.3,0.1c-0.1,0.1-0.1,0.1,0,0.1l5.2,1.2l-4.2,0.4c-0.1,0-0.2,0.1-0.3,0.1c0,0.1,0,0.1,0.1,0.1l4.6-0.4l-3.9,1.8
			c-0.1,0-0.2,0.1-0.2,0.2c0,0,0.1,0,0.2,0l3.9-1.8l-3.4,3.2c0,0-0.1,0.1,0,0.1c0,0,0,0,0.1,0c0.1,0,0.2,0,0.3-0.1l3.1-2.9l-2.6,4.8
			c0,0,0,0,0,0.1c0,0,0.1,0,0.1,0C309.4,180.3,309.5,180.2,309.6,180.1z"/>
	</g>
	<g>
		<circle fill="#FFB7C5" cx="132.9" cy="192.7" r="4.3"/>
		<circle fill="#FFB7C5" cx="137.6" cy="205.7" r="4.3"/>
		<circle fill="#FFB7C5" cx="130.4" cy="201" r="4.3"/>
		<circle fill="#FFB7C5" cx="136" cy="198.1" r="4.3"/>
		<circle fill="#FFB7C5" cx="137.1" cy="199.6" r="4.3"/>
		<circle fill="#FFB7C5" cx="138.6" cy="196.3" r="4.3"/>
		<circle fill="#FFB7C5" cx="141.4" cy="191.2" r="4.3"/>
		<circle fill="#FFB7C5" cx="143.7" cy="199.6" r="4.3"/>
		<circle fill="#FFFFFF" cx="137.8" cy="197.1" r="3.1"/>
		<path fill="#FFFFFF" d="M138.7,189.8l0.6,5c0,0,0,0,0,0c0,0,0,0,0,0c0,0,0,0,0,0c0,0,0,0,0,0c0,0,0,0,0,0c0,0,0,0,0,0c0,0,0,0,0,0
			c0,0,0,0,0,0c0,0,0,0,0,0c0,0,0,0,0,0c0,0,0,0,0,0c0,0,0,0,0,0c0,0,0,0,0,0c0,0,0,0,0,0c0,0,0,0,0,0l4.6-1.8
			c0.1,0,0.1-0.1,0.1-0.2c0-0.1,0-0.1-0.1-0.1l-4.1,1.6l2.6-2.2c0.1,0,0.1-0.1,0.1-0.2c0-0.1,0-0.1-0.1,0l-2.9,2.4l1.8-3
			c0-0.1,0.1-0.2,0-0.2c0,0-0.1,0-0.1,0.1l-1.8,3l0.8-3.7c0,0,0-0.1,0-0.1c0,0,0,0-0.1,0c-0.1,0-0.1,0.1-0.1,0.2l-0.7,3.4l-0.5-4.4
			c0,0,0,0,0,0c0,0-0.1,0-0.1,0C138.7,189.7,138.7,189.8,138.7,189.8z"/>
		<path fill="#FFFFFF" d="M145.1,197l-4.8,1.2c0,0,0,0,0,0c0,0,0,0,0,0c0,0,0,0,0,0c0,0,0,0,0,0c0,0,0,0,0,0c0,0,0,0,0,0
			c0,0,0,0,0,0c0,0,0,0,0,0c0,0,0,0,0,0c0,0,0,0,0,0c0,0,0,0,0,0l0,0c0,0,0,0,0,0c0,0,0,0,0,0c0,0,0,0,0,0l2.3,4.3
			c0,0.1,0.1,0.1,0.2,0.1c0.1,0,0.1,0,0.1-0.1l-2.1-3.8l2.5,2.4c0.1,0.1,0.2,0.1,0.2,0.1c0.1,0,0.1-0.1,0-0.1l-2.7-2.6l3.2,1.4
			c0.1,0,0.2,0,0.2,0s0-0.1-0.1-0.1l-3.2-1.4l3.7,0.3c0,0,0.1,0,0.1,0c0,0,0,0,0-0.1c0-0.1-0.1-0.1-0.2-0.1l-3.4-0.3l4.3-1
			c0,0,0,0,0,0c0,0,0-0.1-0.1-0.1C145.3,197,145.2,197,145.1,197z"/>
		<path fill="#FFFFFF" d="M140.8,203.6l-3.4-3.7l0,0c0,0,0,0,0,0c0,0,0,0,0,0c0,0,0,0,0,0c0,0,0,0,0,0c0,0,0,0,0,0c0,0,0,0,0,0
			c0,0,0,0,0,0c0,0,0,0,0,0c0,0,0,0,0,0c0,0,0,0,0,0l0,0c0,0,0,0,0,0c0,0,0,0,0,0l0,0l-2.6,4.2c0,0,0,0.2,0,0.2
			c0,0.1,0.1,0.1,0.1,0.1l2.3-3.7l-0.8,3.3c0,0.1,0,0.2,0,0.2c0,0.1,0.1,0,0.1,0l0.9-3.6l0.3,3.5c0,0.1,0,0.2,0.1,0.2
			c0,0,0.1-0.1,0.1-0.2l-0.3-3.5l1.6,3.4c0,0,0,0.1,0.1,0.1c0,0,0,0,0,0c0-0.1,0-0.2,0-0.2l-1.4-3.1l3,3.3c0,0,0,0,0,0
			c0,0,0,0,0.1-0.1C140.8,203.7,140.8,203.6,140.8,203.6z"/>
		<path fill="#FFFFFF" d="M133.3,203l2.2-4.5l0,0c0,0,0,0,0,0c0,0,0,0,0,0c0,0,0,0,0,0c0,0,0,0,0,0c0,0,0,0,0,0c0,0,0,0,0,0
			c0,0,0,0,0,0c0,0,0,0,0,0c0,0,0,0,0,0c0,0,0,0,0,0l0,0c0,0,0,0,0,0c0,0,0,0,0,0c0,0,0,0,0,0l-4.8-1c-0.1,0-0.2,0-0.2,0.1
			c-0.1,0.1-0.1,0.1,0,0.1l4.3,0.9l-3.4,0.4c-0.1,0-0.2,0.1-0.2,0.1c0,0.1,0,0.1,0.1,0.1l3.7-0.4l-3.1,1.5c-0.1,0-0.1,0.1-0.1,0.1
			c0,0,0.1,0,0.2,0l3.1-1.5l-2.7,2.7c0,0,0,0.1,0,0.1c0,0,0,0,0.1,0c0.1,0,0.2,0,0.2-0.1l2.4-2.4l-2,4c0,0,0,0,0,0c0,0,0,0,0.1,0
			C133.2,203.1,133.3,203.1,133.3,203z"/>
		<path fill="#FFFFFF" d="M130.8,195.3l5,0.1l0,0c0,0,0,0,0,0c0,0,0,0,0,0l0,0c0,0,0,0,0,0c0,0,0,0,0,0c0,0,0,0,0,0c0,0,0,0,0,0
			c0,0,0,0,0,0c0,0,0,0,0,0c0,0,0,0,0,0c0,0,0,0,0,0c0,0,0,0,0,0c0,0,0,0,0,0c0,0,0,0,0,0l-1.2-4.8c0-0.1-0.1-0.1-0.2-0.2
			c-0.1,0-0.1,0-0.1,0l1.1,4.2l-1.9-2.9c0-0.1-0.1-0.1-0.2-0.1c-0.1,0-0.1,0,0,0.1l2,3.2l-2.7-2.1c-0.1-0.1-0.2-0.1-0.2,0
			c0,0,0,0.1,0.1,0.2l2.7,2.1l-3.6-1.2c0,0-0.1,0-0.1,0c0,0,0,0,0,0.1c0,0.1,0.1,0.1,0.2,0.2l3.3,1.1l-4.4-0.1c0,0,0,0,0,0
			c0,0,0,0.1,0,0.1C130.6,195.2,130.7,195.3,130.8,195.3z"/>
	</g>
	<g>
		<circle fill="#FFB7C5" cx="86.1" cy="150.6" r="6.5"/>
		<circle fill="#FFB7C5" cx="106.7" cy="153.3" r="6.5"/>
		<circle fill="#FFB7C5" cx="95.4" cy="159.6" r="6.5"/>
		<circle fill="#FFB7C5" cx="95.4" cy="150.1" r="6.5"/>
		<circle fill="#FFB7C5" cx="98.3" cy="149.8" r="6.5"/>
		<circle fill="#FFB7C5" cx="94.8" cy="145.5" r="6.5"/>
		<circle fill="#FFB7C5" cx="90.1" cy="138.2" r="6.5"/>
		<circle fill="#FFB7C5" cx="102.8" cy="140.9" r="6.5"/>
		<circle fill="#FFFFFF" cx="95.4" cy="147" r="4.6"/>
		<path fill="#FFFFFF" d="M86.3,140.8l7,2.6c0,0,0,0,0,0c0,0,0,0,0,0c0,0,0,0,0,0l0,0c0,0,0,0,0,0c0,0,0,0,0,0c0,0,0,0,0,0
			c0,0,0,0,0,0c0,0,0,0,0,0c0,0,0,0,0,0c0,0,0,0,0,0c0,0,0,0,0,0c0,0,0,0,0,0c0,0,0,0,0,0c0,0,0,0,0,0l0.8-7.3
			c0-0.1-0.1-0.2-0.1-0.3c-0.1-0.1-0.2-0.1-0.2,0l-0.7,6.5l-1.1-5c0-0.1-0.1-0.2-0.2-0.3c-0.1,0-0.1,0-0.1,0.1l1.2,5.5l-2.7-4.4
			c-0.1-0.1-0.2-0.2-0.2-0.2c-0.1,0,0,0.2,0,0.3l2.7,4.4l-4.4-3.6c-0.1,0-0.1-0.1-0.1,0c0,0,0,0,0,0.1c0,0.1,0.1,0.2,0.2,0.3l4,3.3
			l-6.2-2.4c0,0,0,0-0.1,0c0,0,0,0.1,0,0.2C86.1,140.7,86.2,140.8,86.3,140.8z"/>
		<path fill="#FFFFFF" d="M100.3,137.2l-1.8,7.3c0,0,0,0,0,0c0,0,0,0,0,0c0,0,0,0,0,0l0,0c0,0,0,0,0,0c0,0,0,0,0,0c0,0,0,0,0,0
			c0,0,0,0,0,0c0,0,0,0,0,0c0,0,0,0,0,0c0,0,0,0,0,0c0,0,0,0,0,0c0,0,0,0,0,0c0,0,0,0,0,0c0,0,0,0,0,0l7.4-0.1
			c0.1,0,0.2-0.1,0.3-0.2c0.1-0.1,0.1-0.2,0-0.2l-6.5,0.1l4.9-1.7c0.1,0,0.2-0.1,0.3-0.2c0-0.1,0-0.1-0.1-0.1l-5.3,1.9l4.1-3.2
			c0.1-0.1,0.2-0.2,0.1-0.2s-0.2,0-0.3,0.1l-4.1,3.2l3-4.8c0-0.1,0-0.1,0-0.1c0,0,0,0-0.1,0c-0.1,0-0.2,0.1-0.3,0.2l-2.8,4.4
			l1.6-6.5c0,0,0,0,0-0.1c0,0-0.1,0-0.2,0C100.4,137,100.3,137.1,100.3,137.2z"/>
		<path fill="#FFFFFF" d="M106,147.6l-7.2,2c0,0,0,0,0,0c0,0,0,0,0,0c0,0,0,0,0,0l0,0c0,0,0,0,0,0c0,0,0,0,0,0c0,0,0,0,0,0
			c0,0,0,0,0,0c0,0,0,0,0,0c0,0,0,0,0,0c0,0,0,0,0,0c0,0,0,0,0,0c0,0,0,0,0,0c0,0,0,0,0,0c0,0,0,0,0,0l3.7,6.4
			c0,0.1,0.2,0.2,0.3,0.2c0.1,0,0.2,0,0.1-0.1l-3.3-5.6l3.9,3.4c0.1,0.1,0.2,0.1,0.3,0.1c0.1,0,0.1-0.1,0-0.2l-4.2-3.7l4.8,2
			c0.1,0.1,0.3,0,0.3,0s-0.1-0.1-0.2-0.2l-4.8-2l5.6,0.3c0.1,0,0.1,0,0.1,0c0,0,0-0.1,0-0.1c-0.1-0.1-0.2-0.1-0.3-0.2l-5.2-0.3
			l6.4-1.8c0,0,0,0,0.1,0c0,0,0-0.1-0.1-0.1C106.3,147.6,106.1,147.5,106,147.6z"/>
		<path fill="#FFFFFF" d="M100.1,157.1l-4.4-6.1c0,0,0,0,0,0c0,0,0,0,0,0c0,0,0,0,0,0l0,0c0,0,0,0,0,0c0,0,0,0,0,0c0,0,0,0,0,0
			c0,0,0,0,0,0c0,0,0,0,0,0c0,0,0,0,0,0c0,0,0,0,0,0c0,0,0,0,0,0c0,0,0,0,0,0c0,0,0,0,0,0c0,0,0,0,0,0l-4.7,5.7
			c-0.1,0.1-0.1,0.2-0.1,0.3c0,0.1,0.1,0.2,0.1,0.1l4.1-5.1l-1.8,4.8c0,0.1,0,0.3,0,0.4c0,0.1,0.1,0.1,0.2,0l2-5.3l-0.1,5.2
			c0,0.1,0,0.3,0.1,0.3c0.1,0,0.1-0.1,0.1-0.2l0.1-5.2l1.7,5.4c0,0.1,0.1,0.1,0.1,0.1c0,0,0,0,0.1-0.1c0.1-0.1,0.1-0.2,0-0.4
			l-1.6-4.9l3.9,5.4c0,0,0,0,0.1,0c0,0,0.1,0,0.1-0.1C100.2,157.4,100.2,157.2,100.1,157.1z"/>
		<path fill="#FFFFFF" d="M88.1,155.1l3.5-6.6c0,0,0,0,0,0c0,0,0,0,0,0c0,0,0,0,0,0c0,0,0,0,0,0c0,0,0,0,0,0c0,0,0,0,0,0
			c0,0,0,0,0,0c0,0,0,0,0,0c0,0,0,0,0,0c0,0,0,0,0,0c0,0,0,0,0,0c0,0,0,0,0,0c0,0,0,0,0,0c0,0,0,0,0,0c0,0,0,0,0,0l-7.2-1.7
			c-0.1,0-0.2,0-0.3,0.1c-0.1,0.1-0.1,0.2,0,0.2l6.4,1.5l-5.1,0.5c-0.1,0-0.3,0.1-0.3,0.2c-0.1,0.1,0,0.1,0.1,0.1l5.6-0.5l-4.7,2.1
			c-0.1,0.1-0.2,0.1-0.2,0.2c0,0.1,0.1,0.1,0.3,0l4.7-2.1l-4.1,3.9c0,0-0.1,0.1-0.1,0.1c0,0,0,0,0.1,0c0.1,0,0.2,0,0.3-0.1l3.7-3.6
			l-3.1,5.9c0,0,0,0,0,0.1c0,0,0.1,0.1,0.2,0C87.9,155.3,88.1,155.2,88.1,155.1z"/>
	</g>
	<g>
		<circle fill="#DE3163" cx="37.7" cy="134" r="9"/>
		<circle fill="#DE3163" cx="49.4" cy="160.1" r="9"/>
		<circle fill="#DE3163" cx="33.7" cy="151.4" r="9"/>
		<circle fill="#DE3163" cx="45" cy="144.6" r="9"/>
		<circle fill="#DE3163" cx="47.5" cy="147.6" r="9"/>
		<circle fill="#DE3163" cx="50" cy="140.5" r="9"/>
		<circle fill="#DE3163" cx="55.2" cy="129.5" r="9"/>
		<circle fill="#DE3163" cx="61.3" cy="146.5" r="9"/>
		<circle fill="#FFFFFF" cx="48.6" cy="142.2" r="6.4"/>
		<path fill="#FFFFFF" d="M49.3,127.1l2,10.2c0,0,0,0,0,0c0,0,0,0,0,0c0,0,0,0,0,0c0,0,0,0,0,0c0,0,0,0,0,0c0,0,0,0,0,0c0,0,0,0,0,0
			c0,0,0,0,0,0c0,0,0,0,0,0c0,0,0,0,0,0c0,0,0,0,0,0c0,0,0,0,0,0c0,0,0,0,0,0c0,0,0,0,0,0c0,0,0,0,0,0l9.2-4.4
			c0.1-0.1,0.2-0.2,0.3-0.4c0-0.2,0-0.3-0.1-0.2l-8.2,3.9l5.1-5c0.1-0.1,0.2-0.3,0.2-0.4c0-0.1-0.1-0.2-0.2,0l-5.6,5.4l3.2-6.4
			c0.1-0.2,0.1-0.3,0-0.4c-0.1,0-0.2,0.1-0.3,0.2l-3.2,6.4l1-7.7c0-0.1,0-0.2,0-0.2c0,0-0.1,0-0.1,0c-0.1,0.1-0.2,0.3-0.2,0.4
			l-0.9,7.1l-1.7-9.1c0,0,0-0.1,0-0.1c0,0-0.1,0-0.2,0.1C49.4,126.8,49.3,127,49.3,127.1z"/>
		<path fill="#FFFFFF" d="M63.7,140.9l-9.9,3.2c0,0,0,0,0,0c0,0,0,0,0,0c0,0,0,0,0,0c0,0,0,0,0,0c0,0,0,0,0,0c0,0,0,0,0,0
			c0,0,0,0,0,0c0,0,0,0,0,0c0,0,0,0,0,0c0,0,0,0,0,0c0,0,0,0,0,0c0,0,0,0,0,0c0,0,0,0,0,0c0,0,0,0,0,0c0,0,0,0,0,0l5.5,8.6
			c0.1,0.1,0.3,0.2,0.4,0.2c0.2,0,0.3-0.1,0.2-0.2l-4.9-7.6l5.6,4.5c0.1,0.1,0.3,0.2,0.5,0.1c0.1,0,0.1-0.1,0-0.2l-6.1-4.9l6.8,2.4
			c0.2,0.1,0.4,0.1,0.4,0s-0.1-0.2-0.3-0.3l-6.8-2.4l7.8,0.1c0.1,0,0.2,0,0.2-0.1c0,0,0-0.1,0-0.1c-0.1-0.1-0.3-0.2-0.5-0.2
			l-7.1-0.1l8.8-2.8c0,0,0.1,0,0.1-0.1c0-0.1,0-0.1-0.1-0.2C64.1,140.9,63.9,140.9,63.7,140.9z"/>
		<path fill="#FFFFFF" d="M55.7,155.2l-7.6-7c0,0,0,0,0,0c0,0,0,0,0,0c0,0,0,0,0,0c0,0,0,0,0,0c0,0,0,0,0,0c0,0,0,0,0,0c0,0,0,0,0,0
			c0,0,0,0,0,0c0,0,0,0,0,0c0,0,0,0,0,0c0,0,0,0,0,0c0,0,0,0,0,0c0,0,0,0,0,0c0,0,0,0,0,0c0,0,0,0,0,0l-4.8,9c-0.1,0.1,0,0.3,0,0.5
			c0.1,0.2,0.2,0.2,0.2,0.1l4.2-8l-1.2,7c0,0.2,0,0.4,0.1,0.5c0.1,0.1,0.2,0.1,0.2-0.1l1.3-7.7l1.2,7.1c0,0.2,0.1,0.3,0.2,0.3
			c0.1,0,0.1-0.2,0.1-0.4l-1.2-7.1l3.8,6.8c0,0.1,0.1,0.1,0.1,0.1c0,0,0.1,0,0.1-0.1c0-0.1,0-0.3-0.1-0.5l-3.4-6.3l6.8,6.3
			c0,0,0.1,0,0.1,0c0.1,0,0.1-0.1,0.1-0.2C55.9,155.5,55.8,155.3,55.7,155.2z"/>
		<path fill="#FFFFFF" d="M40.1,155.2l3.9-9.6c0,0,0,0,0,0c0,0,0,0,0,0c0,0,0,0,0,0c0,0,0,0,0,0c0,0,0,0,0,0c0,0,0,0,0,0
			c0,0,0,0,0,0c0,0,0,0,0,0c0,0,0,0,0,0c0,0,0,0,0,0c0,0,0,0,0,0c0,0,0,0,0,0c0,0,0,0,0,0c0,0,0,0,0,0c0,0,0,0,0,0l-10.1-1.3
			c-0.1,0-0.3,0.1-0.4,0.2c-0.1,0.1-0.1,0.2,0,0.2l9,1.2l-7,1.3c-0.2,0-0.3,0.2-0.4,0.3c-0.1,0.1,0,0.2,0.2,0.2l7.7-1.5l-6.2,3.6
			c-0.2,0.1-0.3,0.2-0.2,0.3c0,0.1,0.2,0.1,0.4,0l6.2-3.6l-5.1,5.9c-0.1,0.1-0.1,0.1-0.1,0.2c0,0,0.1,0,0.1,0c0.1,0,0.3-0.1,0.4-0.2
			l4.7-5.4l-3.5,8.5c0,0,0,0.1,0,0.1c0,0,0.1,0.1,0.2,0C39.9,155.4,40.1,155.3,40.1,155.2z"/>
		<path fill="#FFFFFF" d="M33.8,139.6l10.3-0.6l0,0c0,0,0,0,0,0c0,0,0,0,0,0c0,0,0,0,0,0c0,0,0,0,0,0c0,0,0,0,0,0c0,0,0,0,0,0
			c0,0,0,0,0,0c0,0,0,0,0,0c0,0,0,0,0,0c0,0,0,0,0,0c0,0,0,0,0,0c0,0,0,0,0,0c0,0,0,0,0,0c0,0,0,0,0,0l-3.2-9.7
			c0-0.1-0.2-0.3-0.4-0.3c-0.2-0.1-0.3,0-0.2,0.1l2.9,8.6l-4.3-5.7c-0.1-0.1-0.3-0.2-0.4-0.3c-0.1,0-0.2,0.1-0.1,0.2l4.7,6.3l-6-4
			c-0.2-0.1-0.3-0.1-0.4-0.1c0,0.1,0,0.2,0.2,0.3l6,4l-7.5-2c-0.1,0-0.2,0-0.2,0c0,0,0,0.1,0,0.1c0.1,0.1,0.2,0.3,0.4,0.3l6.9,1.8
			l-9.2,0.6c0,0-0.1,0-0.1,0c0,0,0,0.1,0.1,0.2C33.5,139.5,33.7,139.6,33.8,139.6z"/>
	</g>
	<g>
		<circle fill="#DE3163" cx="287.7" cy="148.6" r="2.7"/>
		<circle fill="#DE3163" cx="291.2" cy="156.5" r="2.7"/>
		<circle fill="#DE3163" cx="286.5" cy="153.9" r="2.7"/>
		<circle fill="#DE3163" cx="289.9" cy="151.8" r="2.7"/>
		<circle fill="#DE3163" cx="290.6" cy="152.8" r="2.7"/>
		<circle fill="#DE3163" cx="291.4" cy="150.6" r="2.7"/>
		<circle fill="#DE3163" cx="293" cy="147.3" r="2.7"/>
		<circle fill="#DE3163" cx="294.8" cy="152.4" r="2.7"/>
		<circle fill="#FFFFFF" cx="291" cy="151.1" r="1.9"/>
		<path fill="#FFFFFF" d="M291.2,146.5l0.6,3.1l0,0c0,0,0,0,0,0c0,0,0,0,0,0l0,0c0,0,0,0,0,0c0,0,0,0,0,0c0,0,0,0,0,0l0,0
			c0,0,0,0,0,0c0,0,0,0,0,0l0,0c0,0,0,0,0,0c0,0,0,0,0,0c0,0,0,0,0,0l0,0l2.8-1.3c0,0,0.1-0.1,0.1-0.1c0-0.1,0-0.1,0-0.1l-2.5,1.2
			l1.6-1.5c0,0,0.1-0.1,0.1-0.1c0,0,0,0-0.1,0l-1.7,1.7l1-2c0-0.1,0-0.1,0-0.1s-0.1,0-0.1,0.1l-1,2l0.3-2.4c0,0,0,0,0-0.1
			c0,0,0,0,0,0c0,0-0.1,0.1-0.1,0.1l-0.3,2.2l-0.5-2.8c0,0,0,0,0,0c0,0,0,0-0.1,0C291.2,146.4,291.2,146.5,291.2,146.5z"/>
		<path fill="#FFFFFF" d="M295.6,150.7l-3,1c0,0,0,0,0,0c0,0,0,0,0,0l0,0l0,0c0,0,0,0,0,0c0,0,0,0,0,0c0,0,0,0,0,0l0,0c0,0,0,0,0,0
			c0,0,0,0,0,0c0,0,0,0,0,0c0,0,0,0,0,0c0,0,0,0,0,0c0,0,0,0,0,0c0,0,0,0,0,0l1.7,2.6c0,0,0.1,0.1,0.1,0.1c0.1,0,0.1,0,0.1,0
			l-1.5-2.3l1.7,1.4c0,0,0.1,0,0.1,0c0,0,0,0,0-0.1l-1.8-1.5l2.1,0.7c0.1,0,0.1,0,0.1,0s0-0.1-0.1-0.1l-2.1-0.7l2.4,0c0,0,0,0,0.1,0
			c0,0,0,0,0,0c0,0-0.1-0.1-0.1-0.1l-2.2,0l2.7-0.9c0,0,0,0,0,0c0,0,0,0,0-0.1C295.7,150.7,295.6,150.7,295.6,150.7z"/>
		<path fill="#FFFFFF" d="M293.1,155.1l-2.3-2.1l0,0c0,0,0,0,0,0c0,0,0,0,0,0l0,0c0,0,0,0,0,0c0,0,0,0,0,0c0,0,0,0,0,0l0,0
			c0,0,0,0,0,0c0,0,0,0,0,0c0,0,0,0,0,0c0,0,0,0,0,0l0,0c0,0,0,0,0,0c0,0,0,0,0,0l-1.5,2.7c0,0,0,0.1,0,0.1c0,0,0.1,0.1,0.1,0
			l1.3-2.4l-0.4,2.1c0,0,0,0.1,0,0.1c0,0,0.1,0,0.1,0l0.4-2.3l0.4,2.2c0,0.1,0,0.1,0.1,0.1s0-0.1,0-0.1l-0.4-2.2l1.1,2.1
			c0,0,0,0,0,0c0,0,0,0,0,0c0,0,0-0.1,0-0.1l-1-1.9l2.1,1.9c0,0,0,0,0,0c0,0,0,0,0-0.1C293.2,155.2,293.2,155.1,293.1,155.1z"/>
		<path fill="#FFFFFF" d="M288.4,155.1l1.2-2.9l0,0c0,0,0,0,0,0c0,0,0,0,0,0l0,0c0,0,0,0,0,0c0,0,0,0,0,0c0,0,0,0,0,0c0,0,0,0,0,0
			c0,0,0,0,0,0c0,0,0,0,0,0c0,0,0,0,0,0l0,0c0,0,0,0,0,0c0,0,0,0,0,0c0,0,0,0,0,0l-3.1-0.4c0,0-0.1,0-0.1,0.1c0,0,0,0.1,0,0.1
			l2.7,0.4l-2.1,0.4c0,0-0.1,0-0.1,0.1c0,0,0,0.1,0,0l2.3-0.4l-1.9,1.1c-0.1,0-0.1,0.1-0.1,0.1c0,0,0.1,0,0.1,0l1.9-1.1l-1.5,1.8
			c0,0,0,0,0,0.1c0,0,0,0,0,0c0,0,0.1,0,0.1-0.1l1.4-1.6l-1.1,2.6c0,0,0,0,0,0c0,0,0,0,0.1,0C288.3,155.1,288.4,155.1,288.4,155.1z"
			/>
		<path fill="#FFFFFF" d="M286.5,150.3l3.1-0.2l0,0c0,0,0,0,0,0l0,0l0,0c0,0,0,0,0,0c0,0,0,0,0,0c0,0,0,0,0,0l0,0c0,0,0,0,0,0
			c0,0,0,0,0,0c0,0,0,0,0,0c0,0,0,0,0,0l0,0c0,0,0,0,0,0c0,0,0,0,0,0l-1-2.9c0,0-0.1-0.1-0.1-0.1c0,0-0.1,0-0.1,0l0.9,2.6l-1.3-1.7
			c0,0-0.1-0.1-0.1-0.1c0,0-0.1,0,0,0.1l1.4,1.9l-1.8-1.2c0,0-0.1,0-0.1,0c0,0,0,0.1,0.1,0.1l1.8,1.2l-2.3-0.6c0,0,0,0-0.1,0
			c0,0,0,0,0,0c0,0,0.1,0.1,0.1,0.1l2.1,0.6l-2.8,0.2c0,0,0,0,0,0c0,0,0,0,0,0.1C286.4,150.3,286.4,150.3,286.5,150.3z"/>
	</g>
	<g>
		<circle fill="#DE3163" cx="344.9" cy="170.7" r="3.5"/>
		<circle fill="#DE3163" cx="349.5" cy="180.9" r="3.5"/>
		<circle fill="#DE3163" cx="343.4" cy="177.5" r="3.5"/>
		<circle fill="#DE3163" cx="347.7" cy="174.9" r="3.5"/>
		<circle fill="#DE3163" cx="348.7" cy="176.1" r="3.5"/>
		<circle fill="#DE3163" cx="349.7" cy="173.3" r="3.5"/>
		<circle fill="#DE3163" cx="351.7" cy="169" r="3.5"/>
		<circle fill="#DE3163" cx="354.1" cy="175.6" r="3.5"/>
		<circle fill="#FFFFFF" cx="349.2" cy="174" r="2.5"/>
		<path fill="#FFFFFF" d="M349.4,168.1l0.8,4l0,0c0,0,0,0,0,0c0,0,0,0,0,0c0,0,0,0,0,0c0,0,0,0,0,0c0,0,0,0,0,0c0,0,0,0,0,0
			c0,0,0,0,0,0c0,0,0,0,0,0c0,0,0,0,0,0c0,0,0,0,0,0l0,0c0,0,0,0,0,0c0,0,0,0,0,0c0,0,0,0,0,0l3.6-1.7c0,0,0.1-0.1,0.1-0.2
			c0-0.1,0-0.1-0.1-0.1l-3.2,1.5l2-1.9c0,0,0.1-0.1,0.1-0.2c0-0.1,0-0.1-0.1,0l-2.2,2.1l1.3-2.5c0-0.1,0-0.1,0-0.1
			c0,0-0.1,0-0.1,0.1l-1.3,2.5l0.4-3c0,0,0-0.1,0-0.1c0,0,0,0,0,0c0,0-0.1,0.1-0.1,0.2l-0.4,2.8l-0.7-3.5c0,0,0,0,0,0c0,0,0,0-0.1,0
			C349.4,167.9,349.4,168,349.4,168.1z"/>
		<path fill="#FFFFFF" d="M355,173.4l-3.8,1.2l0,0c0,0,0,0,0,0c0,0,0,0,0,0c0,0,0,0,0,0c0,0,0,0,0,0c0,0,0,0,0,0c0,0,0,0,0,0
			c0,0,0,0,0,0c0,0,0,0,0,0c0,0,0,0,0,0c0,0,0,0,0,0c0,0,0,0,0,0c0,0,0,0,0,0c0,0,0,0,0,0c0,0,0,0,0,0l2.1,3.3c0,0,0.1,0.1,0.2,0.1
			c0.1,0,0.1,0,0.1-0.1l-1.9-3l2.2,1.7c0,0,0.1,0.1,0.2,0.1c0.1,0,0.1,0,0-0.1l-2.4-1.9l2.6,0.9c0.1,0,0.1,0,0.1,0
			c0,0,0-0.1-0.1-0.1l-2.6-0.9l3,0c0,0,0.1,0,0.1,0c0,0,0,0,0,0c0,0-0.1-0.1-0.2-0.1l-2.8,0l3.4-1.1c0,0,0,0,0,0c0,0,0,0,0-0.1
			C355.1,173.5,355.1,173.4,355,173.4z"/>
		<path fill="#FFFFFF" d="M351.9,179l-3-2.7l0,0c0,0,0,0,0,0c0,0,0,0,0,0l0,0c0,0,0,0,0,0c0,0,0,0,0,0c0,0,0,0,0,0c0,0,0,0,0,0
			c0,0,0,0,0,0c0,0,0,0,0,0c0,0,0,0,0,0c0,0,0,0,0,0l0,0c0,0,0,0,0,0l0,0l-1.9,3.5c0,0,0,0.1,0,0.2c0,0.1,0.1,0.1,0.1,0l1.7-3.1
			l-0.5,2.7c0,0.1,0,0.1,0,0.2c0,0,0.1,0,0.1,0l0.5-3l0.5,2.8c0,0.1,0,0.1,0.1,0.1c0,0,0-0.1,0-0.1l-0.5-2.8l1.5,2.7c0,0,0,0,0.1,0
			c0,0,0,0,0,0c0,0,0-0.1,0-0.2l-1.3-2.4l2.6,2.4c0,0,0,0,0,0c0,0,0,0,0-0.1C352,179.1,351.9,179,351.9,179z"/>
		<path fill="#FFFFFF" d="M345.8,179l1.5-3.7l0,0c0,0,0,0,0,0c0,0,0,0,0,0s0,0,0,0c0,0,0,0,0,0c0,0,0,0,0,0c0,0,0,0,0,0c0,0,0,0,0,0
			c0,0,0,0,0,0c0,0,0,0,0,0c0,0,0,0,0,0c0,0,0,0,0,0c0,0,0,0,0,0c0,0,0,0,0,0l0,0l-3.9-0.5c0,0-0.1,0-0.2,0.1c0,0,0,0.1,0,0.1
			l3.5,0.5l-2.7,0.5c-0.1,0-0.1,0.1-0.2,0.1c0,0,0,0.1,0.1,0.1l3-0.6l-2.4,1.4c-0.1,0-0.1,0.1-0.1,0.1c0,0,0.1,0,0.1,0l2.4-1.4
			l-2,2.3c0,0,0,0.1,0,0.1c0,0,0,0,0,0c0.1,0,0.1,0,0.2-0.1l1.8-2.1l-1.4,3.3c0,0,0,0,0,0c0,0,0,0,0.1,0
			C345.8,179.1,345.8,179,345.8,179z"/>
		<path fill="#FFFFFF" d="M343.4,172.9l4-0.2c0,0,0,0,0,0c0,0,0,0,0,0c0,0,0,0,0,0c0,0,0,0,0,0c0,0,0,0,0,0c0,0,0,0,0,0c0,0,0,0,0,0
			c0,0,0,0,0,0c0,0,0,0,0,0c0,0,0,0,0,0l0,0c0,0,0,0,0,0c0,0,0,0,0,0c0,0,0,0,0,0c0,0,0,0,0,0l-1.2-3.8c0,0-0.1-0.1-0.1-0.1
			c-0.1,0-0.1,0-0.1,0l1.1,3.3l-1.7-2.2c0,0-0.1-0.1-0.2-0.1c-0.1,0-0.1,0,0,0.1l1.8,2.4l-2.3-1.6c-0.1,0-0.1-0.1-0.1,0
			s0,0.1,0.1,0.1l2.3,1.6l-2.9-0.8c0,0-0.1,0-0.1,0c0,0,0,0,0,0c0,0,0.1,0.1,0.2,0.1l2.7,0.7l-3.6,0.2c0,0,0,0,0,0c0,0,0,0,0,0.1
			C343.3,172.9,343.3,172.9,343.4,172.9z"/>
	</g>
	<g>
		<circle fill="#DE3163" cx="78.7" cy="195.9" r="5.4"/>
		<circle fill="#DE3163" cx="94.3" cy="203.5" r="5.4"/>
		<circle fill="#DE3163" cx="83.6" cy="205.6" r="5.4"/>
		<circle fill="#DE3163" cx="86.2" cy="198.1" r="5.4"/>
		<circle fill="#DE3163" cx="88.6" cy="198.5" r="5.4"/>
		<circle fill="#DE3163" cx="87" cy="194.2" r="5.4"/>
		<circle fill="#DE3163" cx="85.1" cy="187.1" r="5.4"/>
		<circle fill="#DE3163" cx="94.5" cy="192.7" r="5.4"/>
		<circle fill="#FFFFFF" cx="87" cy="195.6" r="3.9"/>
		<path fill="#FFFFFF" d="M81.5,188.3l4.8,4c0,0,0,0,0,0c0,0,0,0,0,0c0,0,0,0,0,0c0,0,0,0,0,0c0,0,0,0,0,0c0,0,0,0,0,0c0,0,0,0,0,0
			c0,0,0,0,0,0c0,0,0,0,0,0c0,0,0,0,0,0c0,0,0,0,0,0c0,0,0,0,0,0c0,0,0,0,0,0c0,0,0,0,0,0c0,0,0,0,0,0l2.5-5.6c0-0.1,0-0.2,0-0.3
			c0-0.1-0.1-0.1-0.1,0l-2.3,5l0.5-4.3c0-0.1,0-0.2-0.1-0.3c-0.1-0.1-0.1,0-0.1,0.1l-0.5,4.7l-1-4.2c0-0.1-0.1-0.2-0.1-0.2
			c-0.1,0-0.1,0.1,0,0.2l1,4.2l-2.5-4c0,0-0.1-0.1-0.1-0.1c0,0,0,0,0,0.1c0,0.1,0,0.2,0.1,0.3l2.3,3.6l-4.3-3.5c0,0,0,0-0.1,0
			c0,0-0.1,0.1-0.1,0.1C81.4,188.1,81.4,188.2,81.5,188.3z"/>
		<path fill="#FFFFFF" d="M93.5,189.1l-3.4,5.3c0,0,0,0,0,0c0,0,0,0,0,0c0,0,0,0,0,0c0,0,0,0,0,0c0,0,0,0,0,0c0,0,0,0,0,0
			c0,0,0,0,0,0c0,0,0,0,0,0c0,0,0,0,0,0c0,0,0,0,0,0c0,0,0,0,0,0c0,0,0,0,0,0c0,0,0,0,0,0c0,0,0,0,0,0c0,0,0,0,0,0l5.9,1.9
			c0.1,0,0.2,0,0.3-0.1c0.1-0.1,0.1-0.1,0-0.1l-5.2-1.6l4.3-0.1c0.1,0,0.2-0.1,0.3-0.1c0.1-0.1,0-0.1-0.1-0.1l-4.7,0.1l4.1-1.5
			c0.1,0,0.2-0.1,0.2-0.2c0,0-0.1-0.1-0.2,0l-4.1,1.5l3.7-3c0,0,0.1-0.1,0.1-0.1c0,0,0,0-0.1,0c-0.1,0-0.2,0-0.3,0.1l-3.3,2.7l3-4.7
			c0,0,0,0,0-0.1c0,0-0.1,0-0.1,0C93.7,189,93.5,189,93.5,189.1z"/>
		<path fill="#FFFFFF" d="M95.3,198.8l-6.2-0.3c0,0,0,0,0,0c0,0,0,0,0,0c0,0,0,0,0,0l0,0c0,0,0,0,0,0c0,0,0,0,0,0c0,0,0,0,0,0
			c0,0,0,0,0,0c0,0,0,0,0,0c0,0,0,0,0,0c0,0,0,0,0,0c0,0,0,0,0,0c0,0,0,0,0,0c0,0,0,0,0,0c0,0,0,0,0,0l1.3,6c0,0.1,0.1,0.2,0.2,0.2
			c0.1,0,0.2,0,0.1,0l-1.1-5.4l2.2,3.7c0,0.1,0.2,0.2,0.2,0.2c0.1,0,0.1,0,0.1-0.1l-2.4-4.1l3.3,2.8c0.1,0.1,0.2,0.1,0.2,0.1
			c0,0,0-0.1-0.1-0.2l-3.3-2.8l4.4,1.7c0.1,0,0.1,0,0.1,0c0,0,0,0,0-0.1c0-0.1-0.1-0.2-0.2-0.2l-4-1.6l5.6,0.3c0,0,0,0,0.1,0
			c0,0,0-0.1,0-0.1C95.5,198.9,95.4,198.8,95.3,198.8z"/>
		<path fill="#FFFFFF" d="M88.1,204.9l-1.9-6c0,0,0,0,0,0c0,0,0,0,0,0c0,0,0,0,0,0l0,0c0,0,0,0,0,0c0,0,0,0,0,0c0,0,0,0,0,0
			c0,0,0,0,0,0c0,0,0,0,0,0c0,0,0,0,0,0c0,0,0,0,0,0c0,0,0,0,0,0c0,0,0,0,0,0c0,0,0,0,0,0c0,0,0,0,0,0l-5.2,3.3
			c-0.1,0-0.1,0.2-0.1,0.3c0,0.1,0,0.2,0.1,0.1l4.6-2.9l-2.7,3.3c-0.1,0.1-0.1,0.2-0.1,0.3c0,0.1,0.1,0.1,0.1,0l3-3.6l-1.5,4.1
			c0,0.1,0,0.2,0,0.2c0,0,0.1-0.1,0.2-0.2l1.5-4.1l-0.1,4.7c0,0.1,0,0.1,0,0.1c0,0,0,0,0.1,0c0.1-0.1,0.1-0.2,0.1-0.3l0.1-4.3
			l1.7,5.3c0,0,0,0,0,0c0,0,0.1,0,0.1-0.1C88.1,205,88.1,204.9,88.1,204.9z"/>
		<path fill="#FFFFFF" d="M79.1,200.1l4.6-4.3c0,0,0,0,0,0c0,0,0,0,0,0c0,0,0,0,0,0c0,0,0,0,0,0c0,0,0,0,0,0c0,0,0,0,0,0
			c0,0,0,0,0,0c0,0,0,0,0,0c0,0,0,0,0,0c0,0,0,0,0,0c0,0,0,0,0,0c0,0,0,0,0,0c0,0,0,0,0,0c0,0,0,0,0,0c0,0,0,0,0,0l-5.2-3.2
			c-0.1,0-0.2,0-0.3,0c-0.1,0-0.1,0.1-0.1,0.1l4.6,2.9l-4.2-1c-0.1,0-0.2,0-0.3,0c-0.1,0,0,0.1,0,0.1l4.6,1.1l-4.3,0.4
			c-0.1,0-0.2,0.1-0.2,0.1c0,0.1,0.1,0.1,0.2,0.1l4.3-0.4l-4.3,2c-0.1,0-0.1,0.1-0.1,0.1c0,0,0,0,0.1,0.1c0.1,0,0.2,0,0.3,0l3.9-1.8
			l-4.1,3.8c0,0,0,0,0,0c0,0,0,0.1,0.1,0.1C78.9,200.1,79,200.1,79.1,200.1z"/>
	</g>
	<g>
		<circle fill="#DE3163" cx="232.7" cy="173.6" r="2.7"/>
		<circle fill="#DE3163" cx="236.2" cy="181.5" r="2.7"/>
		<circle fill="#DE3163" cx="231.5" cy="178.9" r="2.7"/>
		<circle fill="#DE3163" cx="234.9" cy="176.8" r="2.7"/>
		<circle fill="#DE3163" cx="235.6" cy="177.8" r="2.7"/>
		<circle fill="#DE3163" cx="236.4" cy="175.6" r="2.7"/>
		<circle fill="#DE3163" cx="238" cy="172.3" r="2.7"/>
		<circle fill="#DE3163" cx="239.8" cy="177.4" r="2.7"/>
		<circle fill="#FFFFFF" cx="236" cy="176.1" r="1.9"/>
		<path fill="#FFFFFF" d="M236.2,171.5l0.6,3.1l0,0c0,0,0,0,0,0c0,0,0,0,0,0l0,0c0,0,0,0,0,0c0,0,0,0,0,0c0,0,0,0,0,0l0,0
			c0,0,0,0,0,0c0,0,0,0,0,0l0,0c0,0,0,0,0,0c0,0,0,0,0,0c0,0,0,0,0,0l0,0l2.8-1.3c0,0,0.1-0.1,0.1-0.1c0-0.1,0-0.1,0-0.1l-2.5,1.2
			l1.6-1.5c0,0,0.1-0.1,0.1-0.1c0,0,0,0-0.1,0l-1.7,1.7l1-2c0-0.1,0-0.1,0-0.1s-0.1,0-0.1,0.1l-1,2l0.3-2.4c0,0,0,0,0-0.1
			c0,0,0,0,0,0c0,0-0.1,0.1-0.1,0.1l-0.3,2.2l-0.5-2.8c0,0,0,0,0,0c0,0,0,0-0.1,0C236.2,171.4,236.2,171.5,236.2,171.5z"/>
		<path fill="#FFFFFF" d="M240.6,175.7l-3,1c0,0,0,0,0,0c0,0,0,0,0,0l0,0l0,0c0,0,0,0,0,0c0,0,0,0,0,0c0,0,0,0,0,0l0,0c0,0,0,0,0,0
			c0,0,0,0,0,0c0,0,0,0,0,0c0,0,0,0,0,0c0,0,0,0,0,0c0,0,0,0,0,0c0,0,0,0,0,0l1.7,2.6c0,0,0.1,0.1,0.1,0.1c0.1,0,0.1,0,0.1,0
			l-1.5-2.3l1.7,1.4c0,0,0.1,0,0.1,0c0,0,0,0,0-0.1l-1.8-1.5l2.1,0.7c0.1,0,0.1,0,0.1,0s0-0.1-0.1-0.1l-2.1-0.7l2.4,0c0,0,0,0,0.1,0
			c0,0,0,0,0,0c0,0-0.1-0.1-0.1-0.1l-2.2,0l2.7-0.9c0,0,0,0,0,0c0,0,0,0,0-0.1C240.7,175.7,240.6,175.7,240.6,175.7z"/>
		<path fill="#FFFFFF" d="M238.1,180.1l-2.3-2.1l0,0c0,0,0,0,0,0c0,0,0,0,0,0l0,0c0,0,0,0,0,0c0,0,0,0,0,0c0,0,0,0,0,0l0,0
			c0,0,0,0,0,0c0,0,0,0,0,0c0,0,0,0,0,0c0,0,0,0,0,0l0,0c0,0,0,0,0,0c0,0,0,0,0,0l-1.5,2.7c0,0,0,0.1,0,0.1c0,0,0.1,0.1,0.1,0
			l1.3-2.4l-0.4,2.1c0,0,0,0.1,0,0.1c0,0,0.1,0,0.1,0l0.4-2.3l0.4,2.2c0,0.1,0,0.1,0.1,0.1c0,0,0-0.1,0-0.1l-0.4-2.2l1.1,2.1
			c0,0,0,0,0,0c0,0,0,0,0,0c0,0,0-0.1,0-0.1l-1-1.9l2.1,1.9c0,0,0,0,0,0c0,0,0,0,0-0.1C238.2,180.2,238.2,180.1,238.1,180.1z"/>
		<path fill="#FFFFFF" d="M233.4,180.1l1.2-2.9l0,0c0,0,0,0,0,0c0,0,0,0,0,0l0,0c0,0,0,0,0,0c0,0,0,0,0,0c0,0,0,0,0,0c0,0,0,0,0,0
			c0,0,0,0,0,0c0,0,0,0,0,0c0,0,0,0,0,0l0,0c0,0,0,0,0,0c0,0,0,0,0,0c0,0,0,0,0,0l-3.1-0.4c0,0-0.1,0-0.1,0.1c0,0,0,0.1,0,0.1
			l2.7,0.4l-2.1,0.4c0,0-0.1,0-0.1,0.1c0,0,0,0.1,0,0l2.3-0.4l-1.9,1.1c-0.1,0-0.1,0.1-0.1,0.1c0,0,0.1,0,0.1,0l1.9-1.1l-1.5,1.8
			c0,0,0,0,0,0.1c0,0,0,0,0,0c0,0,0.1,0,0.1-0.1l1.4-1.6l-1.1,2.6c0,0,0,0,0,0c0,0,0,0,0.1,0C233.3,180.1,233.4,180.1,233.4,180.1z"
			/>
		<path fill="#FFFFFF" d="M231.5,175.3l3.1-0.2l0,0c0,0,0,0,0,0l0,0l0,0c0,0,0,0,0,0c0,0,0,0,0,0c0,0,0,0,0,0l0,0c0,0,0,0,0,0
			c0,0,0,0,0,0c0,0,0,0,0,0c0,0,0,0,0,0l0,0c0,0,0,0,0,0c0,0,0,0,0,0l-1-2.9c0,0-0.1-0.1-0.1-0.1c0,0-0.1,0-0.1,0l0.9,2.6l-1.3-1.7
			c0,0-0.1-0.1-0.1-0.1c0,0-0.1,0,0,0.1l1.4,1.9l-1.8-1.2c0,0-0.1,0-0.1,0c0,0,0,0.1,0.1,0.1l1.8,1.2l-2.3-0.6c0,0,0,0-0.1,0
			c0,0,0,0,0,0c0,0,0.1,0.1,0.1,0.1l2.1,0.6l-2.8,0.2c0,0,0,0,0,0c0,0,0,0,0,0.1C231.4,175.3,231.4,175.3,231.5,175.3z"/>
	</g>
	<g>
		<circle fill="#FFB7C5" cx="50.6" cy="195.8" r="2.9"/>
		<circle fill="#FFB7C5" cx="53.7" cy="204.4" r="2.9"/>
		<circle fill="#FFB7C5" cx="48.9" cy="201.2" r="2.9"/>
		<circle fill="#FFB7C5" cx="52.6" cy="199.3" r="2.9"/>
		<circle fill="#FFB7C5" cx="53.4" cy="200.4" r="2.9"/>
		<circle fill="#FFB7C5" cx="54.3" cy="198.1" r="2.9"/>
		<circle fill="#FFB7C5" cx="56.3" cy="194.8" r="2.9"/>
		<circle fill="#FFB7C5" cx="57.8" cy="200.3" r="2.9"/>
		<circle fill="#FFFFFF" cx="53.9" cy="198.7" r="2"/>
		<path fill="#FFFFFF" d="M54.4,193.8l0.4,3.3c0,0,0,0,0,0c0,0,0,0,0,0l0,0c0,0,0,0,0,0c0,0,0,0,0,0c0,0,0,0,0,0c0,0,0,0,0,0
			c0,0,0,0,0,0c0,0,0,0,0,0c0,0,0,0,0,0c0,0,0,0,0,0l0,0c0,0,0,0,0,0c0,0,0,0,0,0c0,0,0,0,0,0l3-1.2c0,0,0.1-0.1,0.1-0.1
			c0-0.1,0-0.1,0-0.1l-2.7,1.1l1.8-1.5c0,0,0.1-0.1,0.1-0.1c0,0,0-0.1-0.1,0l-1.9,1.6l1.2-2c0-0.1,0-0.1,0-0.1s-0.1,0-0.1,0.1
			l-1.2,2l0.5-2.4c0,0,0,0,0-0.1c0,0,0,0,0,0c0,0-0.1,0.1-0.1,0.1l-0.5,2.2l-0.3-2.9c0,0,0,0,0,0c0,0,0,0-0.1,0
			C54.5,193.7,54.4,193.8,54.4,193.8z"/>
		<path fill="#FFFFFF" d="M58.7,198.6l-3.2,0.8l0,0c0,0,0,0,0,0c0,0,0,0,0,0l0,0c0,0,0,0,0,0c0,0,0,0,0,0c0,0,0,0,0,0c0,0,0,0,0,0
			c0,0,0,0,0,0c0,0,0,0,0,0c0,0,0,0,0,0c0,0,0,0,0,0l0,0c0,0,0,0,0,0c0,0,0,0,0,0l1.6,2.9c0,0,0.1,0.1,0.1,0.1c0.1,0,0.1,0,0.1,0
			l-1.4-2.5l1.7,1.6c0,0,0.1,0.1,0.1,0.1c0,0,0,0,0-0.1l-1.8-1.7l2.1,0.9c0.1,0,0.1,0,0.1,0c0,0,0-0.1-0.1-0.1l-2.1-0.9l2.5,0.2
			c0,0,0,0,0.1,0c0,0,0,0,0,0c0,0-0.1-0.1-0.1-0.1l-2.3-0.2l2.9-0.7c0,0,0,0,0,0c0,0,0,0,0-0.1C58.8,198.6,58.8,198.6,58.7,198.6z"
			/>
		<path fill="#FFFFFF" d="M55.8,203l-2.3-2.4c0,0,0,0,0,0c0,0,0,0,0,0c0,0,0,0,0,0l0,0c0,0,0,0,0,0c0,0,0,0,0,0c0,0,0,0,0,0
			c0,0,0,0,0,0c0,0,0,0,0,0c0,0,0,0,0,0l0,0l0,0l0,0c0,0,0,0,0,0c0,0,0,0,0,0l-1.7,2.8c0,0,0,0.1,0,0.2c0,0.1,0.1,0.1,0.1,0l1.5-2.5
			l-0.5,2.2c0,0,0,0.1,0,0.2c0,0,0.1,0,0.1,0l0.6-2.4l0.2,2.3c0,0.1,0,0.1,0.1,0.1s0-0.1,0-0.1l-0.2-2.3l1,2.3c0,0,0,0,0,0
			c0,0,0,0,0,0c0,0,0-0.1,0-0.2l-1-2.1l2,2.2c0,0,0,0,0,0c0,0,0,0,0-0.1C55.9,203.1,55.8,203,55.8,203z"/>
		<path fill="#FFFFFF" d="M50.8,202.6l1.5-3c0,0,0,0,0,0c0,0,0,0,0,0c0,0,0,0,0,0l0,0c0,0,0,0,0,0c0,0,0,0,0,0c0,0,0,0,0,0
			c0,0,0,0,0,0c0,0,0,0,0,0c0,0,0,0,0,0c0,0,0,0,0,0l0,0c0,0,0,0,0,0c0,0,0,0,0,0l0,0l-3.2-0.7c0,0-0.1,0-0.1,0.1c0,0,0,0.1,0,0.1
			l2.8,0.6l-2.3,0.3c-0.1,0-0.1,0-0.1,0.1c0,0,0,0.1,0,0.1l2.5-0.3l-2.1,1c-0.1,0-0.1,0.1-0.1,0.1c0,0,0.1,0,0.1,0l2.1-1l-1.8,1.8
			c0,0,0,0,0,0.1c0,0,0,0,0,0c0,0,0.1,0,0.1-0.1L52,200l-1.3,2.6c0,0,0,0,0,0c0,0,0,0,0.1,0C50.8,202.7,50.8,202.6,50.8,202.6z"/>
		<path fill="#FFFFFF" d="M49.2,197.5l3.3,0l0,0c0,0,0,0,0,0c0,0,0,0,0,0l0,0c0,0,0,0,0,0c0,0,0,0,0,0c0,0,0,0,0,0c0,0,0,0,0,0
			c0,0,0,0,0,0c0,0,0,0,0,0c0,0,0,0,0,0c0,0,0,0,0,0l0,0c0,0,0,0,0,0c0,0,0,0,0,0l-0.8-3.2c0,0-0.1-0.1-0.1-0.1c-0.1,0-0.1,0-0.1,0
			l0.7,2.8l-1.2-1.9c0,0-0.1-0.1-0.1-0.1c0,0-0.1,0,0,0.1l1.3,2.1l-1.8-1.4c0,0-0.1-0.1-0.1,0c0,0,0,0.1,0.1,0.1l1.8,1.4l-2.4-0.8
			c0,0,0,0-0.1,0c0,0,0,0,0,0c0,0,0.1,0.1,0.1,0.1l2.2,0.7l-3,0c0,0,0,0,0,0c0,0,0,0,0,0.1C49.1,197.4,49.1,197.5,49.2,197.5z"/>
	</g>
	<rect x="42.7" y="256.6" fill="#2E3192" width="13.7" height="68.3"/>
	<polygon fill="#2E3192" points="21.8,256.7 32.2,242.8 42.7,256.7 	"/>
	<rect x="56.4" y="266.8" fill="#100F42" width="62.3" height="17.2"/>
	<rect x="83.9" y="308.8" fill="#100F42" width="7.6" height="16.3"/>
	<rect x="84.9" y="309.7" fill="#FFFFFF" stroke="#1B1464" stroke-miterlimit="10" width="5.4" height="1.8"/>
	<rect x="85" y="313.5" fill="#FFFFFF" stroke="#1B1464" stroke-miterlimit="10" width="1.8" height="5.4"/>
	<rect x="88.4" y="313.5" fill="#FFFFFF" stroke="#1B1464" stroke-miterlimit="10" width="1.8" height="5.4"/>
	<rect x="83.9" y="291.3" fill="#FFFFFF" stroke="#1B1464" stroke-miterlimit="10" width="7.6" height="11.1"/>
	<rect x="82.6" y="289" fill="#100F42" width="10.2" height="2.3"/>
	<polygon fill="#FFFFFF" stroke="#1B1464" stroke-miterlimit="10" points="56.3,271.2 68.3,257.3 80.3,271.2 	"/>
	<rect x="56.4" y="273.5" fill="#FFFFFF" stroke="#1B1464" stroke-miterlimit="10" width="23.8" height="10.5"/>
	<rect x="55.5" y="270.3" fill="#FFFFFF" stroke="#1B1464" stroke-miterlimit="10" width="25.4" height="3"/>
	<rect x="64.4" y="311.1" fill="#FFFFFF" stroke="#1B1464" stroke-miterlimit="10" width="7.6" height="11.1"/>
	<rect x="63.1" y="308.8" fill="#100F42" stroke="#1B1464" stroke-miterlimit="10" width="10.2" height="2.3"/>
	<rect x="68.1" y="252.3" fill="#1B1464" width="0.5" height="5.8"/>
	<rect x="45.8" y="291.3" fill="#FFFFFF" width="7.6" height="11.1"/>
	<rect x="44.5" y="289" fill="#0071BC" width="10.2" height="2.3"/>
	<rect x="45.8" y="296" fill="#2E3192" width="7.6" height="0.9"/>
	<rect x="46" y="268.7" fill="#FFFFFF" width="7.6" height="11.1"/>
	<rect x="44.7" y="266.4" fill="#0071BC" width="10.2" height="2.3"/>
	<rect x="46" y="273.3" fill="#2E3192" width="7.6" height="0.9"/>
	<rect x="45.8" y="308.5" fill="#0071BC" width="7.6" height="16.3"/>
	<rect x="48.7" y="313.4" fill="#FFFFFF" width="1.8" height="5.4"/>
	<path fill="#0071BC" d="M42.7,324.9H21.8v-68.3c0,0,10.4-5.5,20.9,0"/>
	<path fill="#2E3192" d="M42.7,324.9H21.8V259c0,0,10.4-5.3,20.9,0"/>
	<rect x="28.5" y="291.3" fill="#FFFFFF" width="7.6" height="11.1"/>
	<rect x="27.2" y="289" fill="#0071BC" width="10.2" height="2.3"/>
	<rect x="28.5" y="296" fill="#2E3192" width="7.6" height="0.9"/>
	<rect x="28.5" y="311.3" fill="#FFFFFF" width="7.6" height="11.1"/>
	<rect x="27.2" y="309" fill="#0071BC" width="10.2" height="2.3"/>
	<rect x="28.5" y="315.9" fill="#2E3192" width="7.6" height="0.9"/>
	<rect x="28.5" y="268.7" fill="#FFFFFF" width="7.6" height="11.1"/>
	<rect x="27.2" y="266.4" fill="#0071BC" width="10.2" height="2.3"/>
	<rect x="28.5" y="273.3" fill="#2E3192" width="7.6" height="0.9"/>
	<rect x="32" y="238.4" fill="#2E3192" width="0.4" height="4.7"/>
	<rect x="89.1" y="264" fill="#FFFFFF" stroke="#1B1464" stroke-miterlimit="10" width="2.3" height="19.5"/>
	<rect x="94.9" y="283.9" fill="#002868" width="23.8" height="41.1"/>
	<rect x="94.9" y="273.3" fill="#0071BC" width="23.8" height="10.5"/>
	<rect x="103" y="291.1" fill="#FFFFFF" width="7.6" height="11.1"/>
	<rect x="101.7" y="288.8" fill="#0071BC" width="10.2" height="2.3"/>
	<rect x="103" y="295.7" fill="#1B1464" width="7.6" height="0.9"/>
	<rect x="103" y="311.1" fill="#FFFFFF" width="7.6" height="11.1"/>
	<rect x="101.7" y="308.8" fill="#0071BC" width="10.2" height="2.3"/>
	<rect x="103" y="315.7" fill="#1B1464" width="7.6" height="0.9"/>
	<line fill="none" stroke="#1B1464" stroke-miterlimit="10" x1="80.2" y1="283.7" x2="80.2" y2="324.7"/>
	<line fill="none" stroke="#1B1464" stroke-miterlimit="10" x1="43.2" y1="256.7" x2="43.2" y2="324.7"/>
	<rect x="144.7" y="252.2" fill="#7A0924" width="0.6" height="5.8"/>
	<rect x="94.9" y="274" fill="#002868" width="24.5" height="3"/>
	<rect x="63" y="288.9" fill="#100F42" width="10.2" height="2.3"/>
	<rect x="118.7" y="266.8" fill="#002868" stroke="#1B1464" stroke-miterlimit="10" width="26.9" height="58.2"/>
	<polygon fill="#002868" stroke="#1B1464" stroke-miterlimit="10" points="115.2,256.2 115.2,260.2 113.2,260.2 113.2,256.2 
		107.2,256.2 107.2,260.2 105.2,260.2 105.2,256.2 101.2,256.2 101.2,260.2 99.2,260.2 99.2,256.2 93.2,256.2 93.2,259.5 
		93.2,259.5 93.2,274.2 119.2,274.2 119.2,259.5 119.2,259.5 119.2,256.2 	"/>
	<rect x="130.7" y="264.3" fill="#FFFFFF" stroke="#1B1464" stroke-miterlimit="10" width="2.3" height="19.5"/>
	<rect x="133.1" y="270.5" fill="#BF0A30" width="23.8" height="3"/>
	<polygon fill="#7A0924" points="132,270.7 145,256.8 158,270.7 	"/>
	<rect x="133.1" y="273.5" fill="#7A0924" width="23.8" height="10.5"/>
	<rect x="133.1" y="284" fill="#BF0A30" width="23.8" height="41.1"/>
	<rect x="141" y="291.1" fill="#FFFFFF" width="7.6" height="11.1"/>
	<rect x="63" y="302.3" fill="#100F42" width="10.2" height="1.2"/>
	<rect x="63" y="291.2" fill="#FFFFFF" stroke="#1B1464" stroke-miterlimit="10" width="5.1" height="11.1"/>
	<rect x="68.1" y="291.2" fill="#FFFFFF" stroke="#1B1464" stroke-miterlimit="10" width="5.1" height="11.1"/>
	<rect x="140.9" y="312.1" fill="#7A0924" width="7.6" height="12.6"/>
	<path fill="#FFFFFF" d="M143.9,319.2v-3.7c0-0.5,0.4-0.8,0.8-0.8h0.1c0.5,0,0.8,0.4,0.8,0.8v3.7c0,0.5-0.4,0.8-0.8,0.8h-0.1
		C144.2,320.1,143.9,319.7,143.9,319.2z"/>
	<path fill="#7A0924" d="M141,311c0-2.1,1.7-3.7,3.7-3.7s3.7,1.7,3.7,3.7"/>
	<rect x="42.7" y="256.6" fill="#0071BC" width="13.7" height="2.3"/>
	<rect x="118.7" y="283.9" fill="#002868" stroke="#1B1464" stroke-miterlimit="10" width="14.2" height="41.1"/>
	<g>
		<rect x="120.5" y="288.8" fill="#0071BC" stroke="#1B1464" stroke-miterlimit="10" width="10.2" height="2.3"/>
		<rect x="120.5" y="302.3" fill="#0071BC" stroke="#1B1464" stroke-miterlimit="10" width="10.2" height="1.2"/>
		<rect x="125.6" y="291.1" fill="#FFFFFF" stroke="#1B1464" stroke-miterlimit="10" width="5.1" height="11.1"/>
	</g>
	<rect x="120.5" y="291.1" fill="#FFFFFF" stroke="#1B1464" stroke-miterlimit="10" width="5.1" height="11.1"/>
	<path fill="#FFFFFF" stroke="#1B1464" stroke-miterlimit="10" d="M73.5,282.2c0-4-2.3-5.2-5.2-5.2s-5.2,1.2-5.2,5.2H73.5z"/>
	<rect x="141" y="276.2" fill="#FFFFFF" width="7.6" height="4.9"/>
	<rect x="139.7" y="288.8" fill="#7A0924" width="10.2" height="2.3"/>
	<rect x="141" y="295.7" fill="#BF0A30" width="7.6" height="0.9"/>
	<path fill="#FFFFFF" stroke="#1B1464" stroke-miterlimit="10" d="M99.1,274.1c0-4.2,3.4-7.6,7.6-7.6c4.2,0,7.6,3.4,7.6,7.6"/>
	<line fill="#2E3192" stroke="#1B1464" stroke-miterlimit="10" x1="21.8" y1="324.9" x2="156.9" y2="325.1"/>
	<g>
		<path fill="#002868" d="M355.7,321.7v-1h-2v-4h-0.9l-1.4-48h2.3v-6h2v-4h-14v-10h-102v10h-13v4h2v6h2.6l-1.4,48h-1.1v4h-2v1h-4v3
			h135v-3H355.7z M246,268.7h6.4l-1.4,48h-3.5L246,268.7z M335.3,316.7h-3.5l-1.4-48h6.4L335.3,316.7z M324.7,316.7h-3.5l-1.4-48
			h6.4L324.7,316.7z M314.2,316.7h-3.5l-1.4-48h6.4L314.2,316.7z M303.6,316.7h-3.5l-1.4-48h6.4L303.6,316.7z M293.1,316.7h-3.5
			l-1.4-48h6.4L293.1,316.7z M282.6,316.7h-3.5l-1.4-48h6.4L282.6,316.7z M272,316.7h-3.5l-1.4-48h6.4L272,316.7z M261.5,316.7H258
			l-1.4-48h6.4L261.5,316.7z M345.8,316.7h-3.5l-1.4-48h6.4L345.8,316.7z M235.5,268.7h6.4l-1.4,48h-3.5L235.5,268.7z"/>
		<rect x="355.7" y="321.7" fill="#002868" width="4.2" height="3"/>
	</g>
	<rect x="121.8" y="308.3" fill="#0071BC" width="7.6" height="16.3"/>
	<rect x="124.7" y="313.4" fill="#FFFFFF" width="1.8" height="5.4"/>
	<path fill="#FFFFFF" d="M123,311.8c0-1.4,1.1-2.5,2.5-2.5s2.5,1.1,2.5,2.5"/>
	<g>
		<circle fill="#DE3163" cx="143" cy="150.3" r="4.6"/>
		<circle fill="#DE3163" cx="149" cy="163.6" r="4.6"/>
		<circle fill="#DE3163" cx="141" cy="159.2" r="4.6"/>
		<circle fill="#DE3163" cx="146.7" cy="155.7" r="4.6"/>
		<circle fill="#DE3163" cx="148" cy="157.3" r="4.6"/>
		<circle fill="#DE3163" cx="149.3" cy="153.6" r="4.6"/>
		<circle fill="#DE3163" cx="151.9" cy="148.1" r="4.6"/>
		<circle fill="#DE3163" cx="155" cy="156.7" r="4.6"/>
		<circle fill="#FFFFFF" cx="148.6" cy="154.5" r="3.2"/>
		<path fill="#FFFFFF" d="M148.9,146.8l1,5.2l0,0c0,0,0,0,0,0c0,0,0,0,0,0c0,0,0,0,0,0c0,0,0,0,0,0c0,0,0,0,0,0c0,0,0,0,0,0
			c0,0,0,0,0,0c0,0,0,0,0,0c0,0,0,0,0,0c0,0,0,0,0,0l0,0c0,0,0,0,0,0c0,0,0,0,0,0c0,0,0,0,0,0l4.7-2.3c0.1,0,0.1-0.1,0.1-0.2
			c0-0.1,0-0.1-0.1-0.1l-4.1,2l2.6-2.5c0.1-0.1,0.1-0.2,0.1-0.2c0-0.1-0.1-0.1-0.1,0l-2.8,2.8l1.6-3.3c0-0.1,0-0.2,0-0.2
			c0,0-0.1,0-0.1,0.1l-1.6,3.3l0.5-3.9c0,0,0-0.1,0-0.1c0,0,0,0-0.1,0c-0.1,0-0.1,0.1-0.1,0.2l-0.5,3.6l-0.9-4.6c0,0,0,0,0,0
			c0,0-0.1,0-0.1,0C149,146.7,148.9,146.8,148.9,146.8z"/>
		<path fill="#FFFFFF" d="M156.2,153.9l-5,1.6l0,0c0,0,0,0,0,0c0,0,0,0,0,0c0,0,0,0,0,0c0,0,0,0,0,0c0,0,0,0,0,0c0,0,0,0,0,0
			c0,0,0,0,0,0c0,0,0,0,0,0c0,0,0,0,0,0c0,0,0,0,0,0c0,0,0,0,0,0c0,0,0,0,0,0c0,0,0,0,0,0c0,0,0,0,0,0l2.8,4.4
			c0,0.1,0.1,0.1,0.2,0.1c0.1,0,0.1,0,0.1-0.1l-2.5-3.9l2.8,2.3c0.1,0.1,0.2,0.1,0.2,0.1c0.1,0,0.1-0.1,0-0.1l-3.1-2.5l3.4,1.2
			c0.1,0,0.2,0,0.2,0c0,0,0-0.1-0.1-0.1l-3.4-1.2l4,0c0,0,0.1,0,0.1,0c0,0,0,0,0-0.1c0-0.1-0.1-0.1-0.2-0.1l-3.6,0l4.5-1.4
			c0,0,0,0,0,0c0,0,0-0.1-0.1-0.1C156.4,153.9,156.3,153.8,156.2,153.9z"/>
		<path fill="#FFFFFF" d="M152.2,161.1l-3.9-3.6l0,0c0,0,0,0,0,0c0,0,0,0,0,0l0,0c0,0,0,0,0,0c0,0,0,0,0,0c0,0,0,0,0,0c0,0,0,0,0,0
			c0,0,0,0,0,0c0,0,0,0,0,0c0,0,0,0,0,0c0,0,0,0,0,0l0,0c0,0,0,0,0,0l0,0l-2.4,4.6c0,0.1,0,0.2,0,0.2c0,0.1,0.1,0.1,0.1,0l2.2-4.1
			l-0.6,3.6c0,0.1,0,0.2,0.1,0.2c0,0.1,0.1,0,0.1,0l0.7-3.9l0.6,3.6c0,0.1,0.1,0.2,0.1,0.2c0,0,0.1-0.1,0-0.2l-0.6-3.6l1.9,3.5
			c0,0,0,0.1,0.1,0.1c0,0,0,0,0,0c0-0.1,0-0.2,0-0.2l-1.7-3.2l3.4,3.2c0,0,0,0,0,0c0,0,0,0,0.1-0.1
			C152.3,161.3,152.2,161.2,152.2,161.1z"/>
		<path fill="#FFFFFF" d="M144.3,161.1l2-4.9l0,0c0,0,0,0,0,0c0,0,0,0,0,0s0,0,0,0c0,0,0,0,0,0c0,0,0,0,0,0c0,0,0,0,0,0c0,0,0,0,0,0
			c0,0,0,0,0,0c0,0,0,0,0,0c0,0,0,0,0,0c0,0,0,0,0,0c0,0,0,0,0,0c0,0,0,0,0,0l0,0l-5.1-0.7c-0.1,0-0.2,0-0.2,0.1
			c-0.1,0.1-0.1,0.1,0,0.1l4.6,0.6l-3.6,0.7c-0.1,0-0.2,0.1-0.2,0.1c0,0.1,0,0.1,0.1,0.1l3.9-0.7l-3.2,1.8c-0.1,0-0.1,0.1-0.1,0.2
			c0,0,0.1,0,0.2,0l3.2-1.8l-2.6,3c0,0,0,0.1,0,0.1c0,0,0,0,0.1,0c0.1,0,0.2-0.1,0.2-0.1l2.4-2.7l-1.8,4.3c0,0,0,0,0,0
			c0,0,0.1,0,0.1,0C144.2,161.2,144.2,161.2,144.3,161.1z"/>
		<path fill="#FFFFFF" d="M141,153.2l5.2-0.3c0,0,0,0,0,0c0,0,0,0,0,0c0,0,0,0,0,0c0,0,0,0,0,0c0,0,0,0,0,0c0,0,0,0,0,0c0,0,0,0,0,0
			c0,0,0,0,0,0c0,0,0,0,0,0c0,0,0,0,0,0l0,0c0,0,0,0,0,0c0,0,0,0,0,0c0,0,0,0,0,0c0,0,0,0,0,0l-1.6-4.9c0-0.1-0.1-0.1-0.2-0.2
			c-0.1,0-0.1,0-0.1,0.1l1.4,4.4l-2.2-2.9c0-0.1-0.1-0.1-0.2-0.1c-0.1,0-0.1,0,0,0.1l2.4,3.2l-3-2c-0.1-0.1-0.2-0.1-0.2,0
			c0,0,0,0.1,0.1,0.2l3,2l-3.8-1c0,0-0.1,0-0.1,0c0,0,0,0,0,0.1c0,0.1,0.1,0.1,0.2,0.1l3.5,0.9l-4.7,0.3c0,0,0,0,0,0
			c0,0,0,0.1,0,0.1C140.9,153.1,141,153.2,141,153.2z"/>
	</g>
</g>
</svg>
