<svg xmlns="http://www.w3.org/2000/svg" width="744.094" height="1052.362"><path d="M507.477 76.439c3.25-2.837 3.294-8.455 6.264-10.165 3.414-1.967 10.188 1.477 14.231 0 5.005-1.829 29.031-2.317 35.267-.407 3.727 1.142 15.978 0 20.33 0h3.659c.271 0 .742-.271.813 0 .855 3.24-.551 10.939-1.424 14.638-.441 1.867-.318 3.99-.424 6.099-.274 5.466-.538 10.024-.741 12.605-.244 3.103-.968 9.264-1.661 12.198-.173.733.037 8.786-.633 13.011-.021 3.876-.226 10.098-1.21 15.451-.626 2.651-1.026 9.509-1.661 12.198-.694 2.938.37 6.125-1.107 8.132-.898 1.22-8.093-.407-9.459-.407-7.425 0-29.433 2.984-36.188 0-1.295-.572-2.827.188-4.173-.407-1.736-.767-9.739 1.624-11.791 0-4.256-3.367-4.199.958-6.415-.796" fill="#f03c37"/><g fill="#f96d69"><path d="M564.861 83.72c-.007.153-.053.278-.096.366-.86 1.76-1.09 5.661-1.202 8.686-1.419.006-3.064.03-4.332.03-1.411 0-2.812-.016-4.219-.03.026-2.871.035-5.733-.156-8.625 2.307-.009 4.553.038 6.222.122.91-.179 2.245-.389 3.782-.549zm-24.314.152c.276 1.147.734 2.366.698 3.383-.056 1.592-.094 3.636-.34 5.395-.328.01-.654.011-.983.03-.803-.045-1.58-.061-2.35-.061h-.111c-1.329-.069-3.258.056-5.042.183h-.028l-.619-.091.002-.061.015-.03 3.12-3.779c1.162-1.062 2.722-1.924 3.708-3.17.366-.462.985-1.178 1.584-1.768l.347-.03zm12.746.305c-.03.222-.057.449-.066.701-.068 1.954.2 4.183.139 5.943-.021.602.001 1.246.058 1.92-2.875-.035-5.743-.065-8.616-.091-.032-.715-.003-1.385.362-1.646.639-.457.526-4.08.445-6.797 1.243.112 2.476.176 3.663.091 1.261-.071 2.628-.1 4.017-.122zm15.019.183c1.611 1.847 3.426 4.02 4.804 5.059.703.53 1.225 1.513 1.899 2.286-.012.347-.006.693.004 1.067-2.33-.006-4.717-.012-7.139 0 .392-1.628.678-3.562.732-5.12.038-1.096-.176-2.223-.3-3.292zm-36.347 8.747c.159.003.303.037.426.091.492.22 5.038.345 8.331.335-.14.709-.303 1.356-.549 1.859-.342.699.014 5.107.064 6.888-.968.015-1.924.03-2.92.03-1.545 0-3.143-.073-4.74-.152-.891-3.2-.639-6.065-.805-9.052h.194zm28.644.274c.985.025 1.725.079 2.026.213.142.063.457.098.894.152l-.036 1.036c-.033.935-.161 2.198-.547 2.987-.182.371.333 1.47.187 1.768l-.083 2.377-.151.366c-2.625-.025-5.228-.085-7.827-.122-.14-2.908-.099-5.795-.071-8.686 1.902-.069 4.01-.132 5.607-.091zm-7.103.152c.179 1.719.472 3.529.42 5.029-.042 1.199-.15 2.386-.208 3.596-1.055-.012-2.109-.03-3.167-.03-2.018 0-4.004.047-5.994.091-.114-3.179-.183-6.249-.094-6.431.171-.35.396-1.043.415-1.585.006-.18-.005-.417-.019-.64 2.56.073 5.154.03 6.432.03.356 0 1.417-.031 2.216-.061zm23.808.488c1.532 1.556 3.004 3.14 4.387 4.724.713.817 1.368 1.699 2.046 2.438l-.092.64c-2.027.123-4.669.251-7.497.335.022-2.719.203-5.414.393-8.107l.762-.03zm-9.768 0c2.444.095 5.278.13 7.537.091.087 1.513.209 3.06.083 4.358-.119 1.228-.272 2.479-.406 3.718-2.644.069-5.386.106-7.946.122.064-.526.132-.999.145-1.371.034-.964-.137-1.927.187-2.591.385-.788-.295-2.679.034-3.353.133-.272.247-.613.366-.975zm-37.015.549c.039.794.095 1.598.179 2.408.039 1.705.024 3.396.03 5.09-2.383-.133-4.756-.273-7.045-.305.884-.987 1.674-2.055 2.582-3.017.624-.662 1.572-1.054 2.137-1.768.667-.842 1.403-1.61 2.118-2.408zm-.468 11.429l.8.061c.1 1.324.274 2.662.564 4.054.426 1.78.507 3.289.347 4.724-.371.014-.73.024-1.094.03-2.356-2.801-4.92-6.065-7.12-8.077l.281-.122c.947-.678 3.786.142 4.793-.579.155-.111.699-.127 1.428-.091zm3.157.335c1.565.212 2.977.45 3.108.549.433.326 2.439.091 4.261 0-.164 1.099-.354 2.225-.387 3.17-.058 1.663-.044 3.617-.168 5.212-.814-.065-1.619-.149-2.452-.305-1.314-.245-2.809-.206-4.325-.152-.084-1.191-.261-2.482-.224-3.901.248-1.414.291-2.966.187-4.572zm18.244.152c.745 0 1.518.022 2.295.061l.03.335c.043.369-.298.623-.311.975-.095 2.712-.972 4.713-1.211 7.345l-1.839-.03c-1.939-.035-3.867.088-5.83.152.329-1.886.566-3.851.308-6.065-.032-.278-.074-1.169-.121-2.072 2.06-.081 5.63-.701 6.679-.701zm24.502.03c1.354.045 4.155.19 6.905.366l-.006.183c-.45.43-.92 1.055-1.107 1.189-1.245.891-1.666 1.576-2.795 2.773-.504.534-1.585 1.876-2.075 2.377-.986 1.007-1.386 1.578-1.843 2.072h-.775c.057-.817.145-1.613.385-2.316.701-2.057 1.104-4.298 1.311-6.644zm-1.398.03l-.015.03c.022.362-.318.603-.351.945-.281 2.895-1.494 4.874-1.781 7.833l-.032.122c-2.122-.001-4.242.007-6.349-.03h-.415c.178-1.899.183-4.049.236-5.577.028-.808-.318-2.35-.007-2.987l.136-.335c1.123.105 2.148.231 2.382.335 1.517.679 4.565-.151 6.196-.335zm-12.399.061c.291 1.384.844 3.199.62 3.657-.372.762.172 2.195-.304 3.17-.305.624-.452 1.29-.594 1.951l-7.812-.152c.025-.562.077-1.114.209-1.615.571-2.182.836-4.523.894-6.979 1.816.113 3.661.244 5.47.244.366 0 1.072-.113 1.518-.274zm-17.224 9.082c1.595.153 3.553.969 4.813.457.333-.135 1.278-.239 2.473-.305l-.019.152c-.017.481-.357.898-.298 1.402.232 1.996-.077 4.204-.144 6.126-.015.431.023.904.049 1.371l-.264.03c-.596-.076-1.204-.175-1.803-.274-1.781.598-3.914.096-6.049-.305-.055-.959-.087-1.873-.062-2.591.072-2.078.52-4.031.889-6.065h.415zm11.952.061c1.876.04 3.68.17 4.802.366-.137.65-.275 1.299-.549 1.859-.457.935.447 4.576-.027 5.547-.081.166.424 1.001.332 1.189l-.03.061c-1.139-.002-2.261.022-3.352.122h-.055c-1.315-.106-2.969-.115-4.591-.061-.023-1.908-.033-3.81.398-5.456.283-1.082.216-2.367.236-3.596l.956-.03c.617-.004 1.256-.013 1.882 0zm-23.599.274c2.304.128 4.696.187 6.622.152l-.043.427c-.234 1.344-.363 3.506-.283 4.937.073 1.305.239 2.069.392 2.652l-1.007-.091c-1.504-1.492-3.156-3.542-4.251-5.059-.422-.585-1.028-1.124-1.631-1.646.112-.445.188-.902.2-1.371zm38.735.518l-.019.152c.044.715-.009 1.451-.077 2.194-.092.026-.176.061-.279.061-1.328 0-4.227 3.284-5.174 3.962-.194.139-.781.602-1.296 1.067-.121-1.596-.611-4.524-.275-5.212.264-.539.431-1.308.56-2.164 2.419.033 5.545-.077 6.56-.061zM576.461 128.369c.972.015 1.963.067 2.957.122.643 2.706.463 5.897-.27 7.741-2.185-.082-4.875-.078-7.635-.061-.119-2.561.333-5.088.242-7.741 1.547-.053 3.107-.085 4.706-.061zm-6.341.122c.1.746.209 1.44.094 1.676-.484.99.456 3.71-.055 4.755-.159.324-.246.77-.306 1.25-2.109.019-4.248.048-6.145.061.062-2.023.178-4.025.506-5.791.043-.231.153-.892.251-1.646 1.87-.103 3.747-.218 5.656-.305zm-9.023.457c.124.885.214 1.656.16 1.768-.662 1.355-.564 3.435-.47 5.547h-8.357l.017-.488c.074-2.132.303-4.37.149-6.644 1.443-.059 2.914-.091 4.417-.091 1.36 0 2.725-.037 4.085-.091zm-10.566.274c.242 2.327.402 4.952.171 5.425-.135.277.096.951.345 1.615h-3.736c-.999 0-1.983-.014-2.974-.03.122-2.007.13-4.034-.107-6.065-.013-.111.001-.394.008-.64 2.131-.068 4.196-.2 6.292-.305zm-26.249.091c.005-.01 3.782.046 6.375.091l-.064 1.036c-.043 1.237.948 2.561.901 3.932-.019.543-.021 1.056 0 1.585h-.36c-2.097 0-4.296-.055-6.458-.091-.199-2.337-1.007-5.299-.394-6.553zm8.297.122c2.917.052 4.791.097 6.581.122-.067 1.459.756 3.719.698 5.364-.014.39.005.794 0 1.189-2.28-.064-4.576-.131-6.871-.152.016-.341.028-.693.008-1.036-.101-1.811-.203-3.644-.417-5.486zm-1.047 7.406c.113 1.578.362 3.185.583 5.09.136 1.169-.158 2.66.375 3.932.088.21.145.576.187.975-1.076.293-2.517.427-3.418.427h-3.57c-.255 0-.657.28-.775 0-.111-.264.204-.362.296-.549.508-1.039-.241-3.186.257-4.206.216-.442-1.154-3.865-.988-4.206.157-.321.212-.756.236-1.219 2.429-.114 4.964-.244 5.515-.244h1.301zm1.396.03c1.875.016 3.856.029 6.916.061-.003 2.985.146 6.041.115 8.991-2.482.072-5.459.225-6.09.457-.284-1.462-.571-2.816-.668-3.048-.967-2.307-.484-4.386-.273-6.461zm11.341.122c2.934.047 5.415.082 5.681.152.382.1.9.176 1.486.244.03.129.033.243.03.335-.097 2.774.53 5.963.56 8.93-.362-.054-.698-.114-.988-.244-2.271-1.016-5.196-.597-7.452-.549l-.004-.274c.096-2.745.472-5.644.687-8.595zm13.025.244c.835-.016 2.207.108 3.548.213.024.672.009 1.315-.013 1.951-.065 1.874-1.185 3.529-.943 5.608.026.223-.012.777-.049 1.402h-2.186c-1.147 0-3.132.392-4.813.335-.097-1.157-.2-2.188-.187-2.56.076-2.167-.155-4.478-.209-6.705 1.615.114 3.392.094 4.212-.183.136-.046.36-.056.639-.061zm14.221.061c2.592-.006 5.419.002 7.678.03.113.27.209.535.143.671-.864 1.767-.276 5.263-1.13 7.01-.166.34.357 1.42.217 1.707-.107.219-.572-.268-.653-.305-1.329-.595-3.857 0-5.091 0h-1.328l-.06-.274c-.147-1.261.548-2.227.279-3.627-.38-1.976-.09-3.497-.053-5.212zm-1.743 0c-.035 2.611.583 6.282.494 8.839l.004.274h-7.582c.818-2.34.904-5.585.987-8.869h.028c.272-.016.496-.038.653-.091.254-.086 2.53-.134 5.415-.152z"/></g><path d="M586.005 57.469c-.243.004-.419.06-.49.156-.07.095.105 4.951-.483 5.75l.264 1c-.119.162-.594-.25-.816-.25-2.356 0-6.259-.948-8.382-.5.182.974-1.002 3.559-.129 4.25.397.314 4.927.25 6.316.25h2.25c.167 0 .456-.167.5 0 .051.193-.527 1.701-.656 2.25-.378 1.602.549 4.028.201 5.5l-.093.594c.793.167 2.105-.094 2.725-.094.426 0 1.376-.055 2.225-.094.211-2.66.25-6.742.348-8.156.16-2.295 1.544-4.571.903-7-.288-1.091.768-2.642-.607-3.25-.477-.211-1.595.32-2 0-.108-.086-1.348-.417-2.076-.406z" fill="#fcf4db"/><path d="M430.887 65.948c6.573-2.337 29.129.575 44.377.575 3.613 0 10.87-.687 15.425-.575 1.279.031 13.897-.117 14.038-.288.487-.59 9.556-.288 13.362-.863-.538 3.074-.195 8.218-.288 11.5-.213 4.637.492 17.601-.777 21.851-.455 1.523.79 6.012-.115 9.2-.438 1.544.948 8.827.762 10.925-.434 4.872-.429 15.473-.216 20.126.116 2.531.83 20.866-.59 21.276-2.264.654-29.226.575-29.901 0-.912-.776-24.46 0-28.751 0-.916 0-5.269-.583-5.75 0-.223.271-3.423.476-4.033-.043-1.226-1.043-13.499-2.782-13.74-4.158-3.312-18.926.982-49.838 2.321-67.677.043-.576-3.343-16.028-3.392-16.101-1.772-2.626-2.825-1.985-2.731-5.75z" fill="#f96d69"/><path d="M505.111 94.406c-.332 2.526-.585 5.099-.028 8.102-1.634.828-4.754.355-7.07.529-2.411-.174.523-3.485-.956-5.701-1.169-3.58 2.364-2.896 4.899-2.858 1.056-.017 2.106-.043 3.156-.071zm6.531-.125c1.7.112 5.364-.725 4.053 1.79-2.131 1.376-.154 6.441-3.031 6.683-1.926-.253-4.981.62-6.14-.337-.187-2.853.487-5.213.315-8.042 1.584-.061 3.191-.082 4.804-.094zm-35.519-.188c2.046.205 5.288-.137 6.626.73-.236 2.615-.332 5.306.291 8.364-3.177.015-6.414-.073-9.557 0-.045-2.893 1.386-4.961.246-8.414-.611-1.272 1.789-.409 2.393-.68zm17.089-.156c-.415 2.709-.267 5.766-.586 8.524-1.163 1.106-4.499.358-6.53.699-3.101.557-1.261-4.104-1.584-5.846-1.259-3.947 2.968-2.42 5.409-2.967.975-.316 2.072-.459 3.292-.41zm-31.346-.625c2.519.201 5.672.113 7.938.719.376 3.031-.889 5.025-1.056 7.719 1.405 2.488-3.469-.284-4.26.905-1.367.254-3.812.678-3.083-1.655.249-2.354-1.528-6.8.461-7.687zm-9.935-.188c2.471.137 5.077.58 7.306.281-.725 2.501 1.611 7.045.516 9.021-2.533.177-4.631 1.09-7.888-.083-1.415-1.919-.054-4.273-.229-6.346.656-.61-.669-2.795.295-2.873zm55.737-8.594c3.415.806 6.083.167 9.04.125-.432 2.918-1.843 5.35-.904 9.031-2.54-.076-5.397-.774-7.748-.531-2.445-.182-.49-3.26-.851-4.675.14-1.326.308-2.634.464-3.95zm-33.354-.25c3.168.326 5.993.059 8.958.031-.536 2.384-.744 4.959-.441 7.824.443 1.899-2.399.603-3.472 1.07-1.736-.059-4.927.469-6.105-.903-.027-2.916-.007-5.781 1.06-8.023zm-5.756-.156c.088 2.716.265 5.858.804 8.454-2.8-.087-5.515-.02-8.404-.267.224-2.628-1.785-7.653.949-8.078 2.225-.023 4.449-.048 6.651-.109zm25.349-.125c.063 2.518-.968 4.37-.857 6.968.854 2.097-.218 2.457-1.955 2.188h-6.69c-.013-3.051.284-5.926.504-8.844 3.042-.035 6.072-.088 8.998-.313zm-43.275.197c2.55.319 6.224-.268 8.12.422.169 2.502.585 5.135.485 7.506-3.006-.606-5.271.117-8.128-.219-1.412-3.298-.956-5.33-.476-7.709zm50.591-.447c1.552.09 5.994.076 4.411 2.261-1.261 2.29 1.599 8.07-3.123 6.901-1.506-.221-4.001.906-5.127-.11-.417-2.213-.218-4.163.055-6.006.257-1.009.577-1.983.795-3.015.984-.03 1.975-.05 2.988-.031z" fill="#f03c37"/><path d="M483.743 139.529c1.806.066 4.984.137 7.59-.07.029.499.065.995.165 1.531.303 1.621.252 4.056-.052 5.33-.045.187.188.595.347.993l-7.761.232c-.369-2.45-.559-4.798-.167-6.86-.048-.233-.1-.66-.122-1.156zm-3.621-.08c.543-.014 1.112-.01 1.698.012.032 2.128.353 4.451.694 6.656.18.523.253 1.003.287 1.465-2.388.047-4.908-.05-7.411-.123.179-1.513-.217-3.315.131-4.768.216-.903.115-1.998.044-3.073 1.363.017 2.865-.124 4.557-.168zm16.695-.813c1.159-.018 2.353.059 2.941.257.326.109 1.346.115 2.585.079l.052.782c-.481.452-.869.969-1.02 1.598l-.878.559c-.396 1.656-3.55 2.178-3.987 4.006-.049.204-.639.226-.679.396-.072.303-.303.543-.537.8l-.406-.082c.208-1.019.229-2.401.445-3.305.101-.422-.373-1.328-.303-1.621.177-.741.584-1.664.723-2.247.088-.37.127-.75.119-1.163.313-.021.608-.054.944-.06zm-31.237.622c.614-.025 2.754.011 4.765.077.084.857.249 1.76.386 2.496.22 1.178-.297 1.907-.474 2.647-.182.763.058 1.998-.033 2.916l-.187.006-.15-.152-3.049-2.918-1.025-1.38c-.675-.629-1.625-1.695-2.663-2.867l.018-.408-.028-.219c1.014-.082 2.155-.187 2.439-.198zm10.252-9.648c1.297.026 2.663.048 4.195.125.709.036 1.478-.019 2.256-.099-.122 2.058-.116 4.144-.141 6.367-.172.782-.284 1.617-.31 2.517-.785.061-1.583.096-2.527.013-1.371-.121-2.589-.206-3.79-.263.009-.373.044-.74.123-1.069.101-.421-.325-1.531-.25-1.842.414-1.733.536-3.672.445-5.75zm13.48-.592c1.062-.021 2.17-.039 3.231-.065.207 1.016.328 1.96.169 2.628-.485 2.028-1.257 4.059-1.387 6.467l-6.84.267-.757.054c-.019-2.727.215-6.812.751-8.141l-.029-.877c.652-.089 1.313-.159 1.938-.215.845-.075 1.862-.098 2.925-.119zm-25.628.611c2.549-.017 4.801.038 7.529-.037l.178.81c.536 2.862-.532 5.113-1.018 7.146-.049.206-.075.447-.086.692-2.053.078-4.926.12-7.319-.063-.211-2.335-.301-6.441-.007-8.526l.723-.022zm-5.391.099c1.233-.041 2.252-.037 2.696-.049.043 1.697.122 3.405.211 5.228-.127.883-.125 1.87-.079 2.886-1.761-1.995-3.491-3.9-4.423-4.507-.742-.484-1.619-1.598-2.398-2.53.019-.234.029-.478-.006-.752 1.304-.148 2.753-.235 3.999-.276zm47.103-1.41c2.827-.092 5.815-.173 7.326-.188l-.026.22c-.048.199-.118.369-.209.539-1.312.49-2.876 2.616-3.298 3.014-.35.33-2.464 2.082-2.532 2.364-.226.945-.734 2.148-1.386 3.019l-.979.092c.007-2.554.415-7.431 1.085-8.872l-.008-.188.027-.001zm-8.503.223c.667-.037 1.622.014 2.072.001.607-.018 2.52-.1 4.156-.156-.166 1.842-.249 3.694-.349 5.684-.279 1.036-.403 2.219-.429 3.461-.303.024-.598.077-.898.09l-5.635.231c-.07-.909-.17-1.844.034-2.697.077-.321-.292-1-.241-1.215.25-1.047.371-2.217.723-3.689.025-.103-.371-.67-.339-.805.053-.223.101-.473.101-.755l.283-.071c.13-.035.301-.066.524-.078zm-3.751-12.426c.286 1.65-.869 4.3-1.153 5.489-.22.921.025 2.102-.037 2.822-.913.039-1.875.087-2.737.113-1.583.047-3.071.126-4.661.046.078-.948.183-1.91.427-2.897-.67-1.969-.719-3.592-.582-5.123 3.167.043 6.775-.246 7.845-.36.305-.032.592-.07.898-.09zm12.594-.44c1.289 1.213 3.244 3.344 4.131 4.171 1.456 1.356 2.057 2.473 2.821 3.426l-.026.22c-2.133.024-4.541.12-7.046.242.108-1.17.251-2.349.612-3.56-.532-1.706-.612-3.162-.492-4.499zm-1.446-.176c-.076.178-.136.369-.235.54.232 2.661.602 5.534-.026 7.775-2.544.132-5.162.284-7.726.419.186-.989.366-1.977.603-2.965.361-1.511-.1-3.247.249-4.709.034-.142.037-.322.041-.503 1.31.007 2.496.027 3.361-.163.38-.084 2.02-.256 3.735-.394zm-43.536 1.272c.522 2.891 1.098 5.904.404 8.201-.181.072-.357.141-.454.233-.508.479-4.759.32-7.054.274l-.104-.342.4-.451c.261-.247 1.167.119 1.25-.226.086-.359.976-1.785 1.493-1.8.626-.019 1.479-1.742 1.584-2.179.055-.229 1.638-1.182 1.75-1.651.148-.618.427-1.231.564-1.804.023-.097.076-.182.167-.256zm1.486-.327c1.136.001 4.879.116 8.072.134l.035.187c.224 1.199.08 4.667-.117 5.489-.044.185.214.785.259 1.027.115.613.051 1.175.005 1.755-1.735.189-3.774.4-5.082.027-.811-.231-1.728-.29-2.559-.3-.063-1.555-.047-3.102.23-4.74-.501-1.3-.739-2.48-.845-3.579zm15.094-.452c1.149-.034 2.379.029 3.01.192.697.18 1.647.273 2.712.326-.093.354-.186.714-.356 1.045.282 2.329.649 4.795.419 6.915-.565-.069-1.151-.158-1.764-.292-1.229-.268-3.858.113-6.075.401-.077-.473-.152-.956-.241-1.435-.09-.484.527-4.427.642-4.909.071-.298-.398-1.351-.595-1.957.478-.149 1.318-.259 2.247-.287zm20.214-9.194l.613.546c1.71 1.593 3.412 4.028 5.505 5.979.223.208.518.732.791 1.136-.74.018-1.461.028-2.08.031-1.995.009-3.65.103-5.303.284-.279-1.757-.925-4.021-.662-5.121.154-.643.98-1.772 1.134-2.855zm-26.925.367c.007.225-.021.424-.063.597-.485 2.029-.771 4.527-.444 7.411-2.618-.115-5.579-.428-7.8-.049.631-.768 1.7-1.108 1.936-2.095.063-.263 1.037-.002 1.089-.221.116-.487.693-1.045 1.116-1.444 1.27-1.198 2.756-2.574 3.536-4.118l.631-.082zm20.575-1.368c1.069-.036 1.87-.017 2.111.062.027.363.068.724.126 1.031.17.906-.378 1.58-.491 2.052l.214 1.216c-.3 1.256-.357 3.258-.126 5.082-1.316.049-2.639-.072-4.076-.066l-4.393.037c.125-.764.271-1.512.41-2.269.031-2.21-.246-4.68-.029-6.77 2.178-.158 4.326-.31 6.254-.375zm-15.794.379c1.181-.043 5.4.277 5.862.263.232-.007 1.471-.112 2.11-.157-.203 1.478-.367 3.06.08 4.888-.167 1.37-.035 2.758-.144 4.048l-8.431.033c-.19-1.236-.297-2.38-.547-3.714-.235-1.258.507-2.47.24-3.894-.071-.378-.15-.768-.202-1.154.341-.097.632-.18.729-.273.025-.023.133-.034.302-.04z" fill="#f03c37"/><path d="M455.492 56.281c-.691 0-1.143.114-2.095.719-.888 5.986-.665 10.905-1.834 16.781 5.184 5.868 2.936-6.217 4.247-6.188.329.007 1.097.062 1.983.094.101.053.197.126.248.188.031.038 1.024-.103 1.783-.188.284-.032.661-.063.761-.063h2c.257 0 .237.436.456.25.388-.33.482-2.732.573-3.25.053-.299.721-.946.47-1.25-.275-.333-1.222.188-1.294.25-.115.097-.847 0-1 0h-1.031c-1.081-1.128-4.668-.003-4.563-.531.047-.24.583-1.011.752-1.25.678-.962.348-3.02.593-4.25.038-.196.351-1.122.252-1.25-.12-.154-1.258-.026-1.494-.031l-.807-.031z" fill="#fcf4db"/><path d="M520.751 54.944c-1.089.011-2.366.287-2.838.497-.712.348.194 3.684.064 6.186l-1.625-.001c-.776-.001-2.392.603-2.96.154-.159-.126-.765.37-1.265.655l.235.063c-.213.373-.336 3.667-.272 3.718.357.283 1.8-.46 2.42-.185.96.425 2.554.572 4.313.597.226 1.05.354 2.066.147 2.937-.114.479.203 2.078.305 2.468.063.238.128.764.138 1 .435-.231 4.584.441 4.491.441-.172 0-.609-3.925-.586-4.25.028-.397-.051-1.442-.184-2.718 1.351-.063 2.621-.123 3.499-.122.31 0 1.793.199 1.938.002.221-.299.417-.177.538-.687.091-.383-.182-3.632-.29-3.718-.271-.214-3.211-.312-6.248-.349-.247-2.112-.465-3.99-.389-4.093.041-.056.467-2.005.119-2.281-.289-.229-.898-.321-1.551-.314zm-1.338 18.088l-.046.062.039.031.007-.094zm-7.287-10.598c-.32-.066-.733-.175-.671.062.064.243.353.119.671-.062z" fill="#fcf4db"/><path d="M226.042 147.188c-5.046 1.299-12.836 10.515-14.1 10.978-1.318.483-4.257 2.033-5.548 2.033-1.665 0-8.71-.472-13.122-.407-5.086.075-9.973.199-12.198 0-4.904-.438-9.404.764-14.231 0-4.057-.642-8.746-.272-14.307 1.22-2.856-.739-6.765-1.315-12.419-.813-2.73-.228-8.785.126-9.462-.407-1.047-.823-.632-5.995-.614-9.758.025-5.135-1.108-13.079-1.31-13.824-.704-2.595-.965-9.715-1.42-14.231-.809-3.728-.29-9.359-.979-12.605-1.054-3.887-3.453-6.234-2.089-12.198.514-2.248.966-6.931.53-8.539-.814-3.001-1.067-6.888-.317-10.165-.325-3.85-2.349-6.405-1.351-10.978.253-1.107.575-1.347 1.075-2.033.481-.66.206-.407 4.362-.407h23.583c2.373 0 7.88-.198 9.166.813.966.76 8.935.984 14.638 0 2.665-.46 7.126.813 9.572.813 7.542 0 12.708-.407 20.22-.407 1.361 0 12.48-.46 12.715.407.317 1.17 4.454-.309 5.506.813 7.239 7.718 18.042 12.913 26.437 19.517" fill="#f03c37"/><path d="M144.462 93.906c.491 2.526.892 5.099.369 8.102 1.937.828 5.549.355 8.252.529 2.799-.174-.753-3.485.876-5.701 1.213-3.58-2.872-2.896-5.821-2.858-1.23-.017-2.454-.043-3.676-.071zm-7.607-.125c-1.974.112-6.275-.725-4.644 1.79 2.538 1.376.446 6.441 3.806 6.683 2.231-.253 5.823.62 7.134-.337.099-2.853-.783-5.213-.7-8.042-1.846-.061-3.718-.082-5.596-.094zm41.339-.188c-2.373.205-6.162-.137-7.683.73.383 2.615.607 5.306.008 8.364 3.698.015 7.464-.073 11.125 0-.068-2.893-1.82-4.961-.636-8.414.658-1.272-2.1-.409-2.814-.68zm-19.9-.156c.595 2.709.55 5.766 1.036 8.524 1.399 1.106 5.252.358 7.631.699 3.633.557 1.298-4.104 1.602-5.846 1.302-3.947-3.556-2.42-6.42-2.967-1.148-.316-2.43-.459-3.849-.41zm36.463-.625c-2.925.201-6.598.113-9.211.719-.312 3.031 1.244 5.025 1.55 7.719-1.533 2.488 4.027-.284 4.997.905 1.601.254 4.466.678 3.52-1.655-.388-2.354 1.497-6.8-.856-7.687zm11.558-.188c-2.87.137-5.886.58-8.493.281.948 2.501-1.582 7.045-.226 9.021 2.955.177 5.436 1.09 9.178-.083 1.567-1.919-.114-4.273.003-6.346-.789-.61.663-2.795-.463-2.873zm-65.239-8.594c-3.942.806-7.074.167-10.518.125.624 2.918 2.367 5.35 1.427 9.031 2.954-.076 6.251-.774 8.997-.531 2.839-.182.435-3.26.797-4.675-.218-1.326-.468-2.634-.704-3.95zm38.817-.25c-3.674.326-6.974.059-10.426.031.723 2.384 1.071 4.959.838 7.824-.437 1.899 2.818.603 4.086 1.07 2.019-.059 5.755.469 7.069-.903-.09-2.916-.232-5.781-1.567-8.023zm6.694-.156c.01 2.716-.065 5.858-.585 8.454 3.256-.087 6.419-.02 9.772-.267-.369-2.628 1.761-7.653-1.44-8.078-2.591-.023-5.181-.048-7.747-.109zm-29.514-.125c.032 2.518 1.309 4.37 1.286 6.968-.907 2.097.356 2.457 2.367 2.188h7.788c-.112-3.051-.577-5.926-.954-8.844-3.542-.035-7.072-.088-10.487-.313zm50.383.197c-2.955.319-7.257-.268-9.434.422-.093 2.502-.468 5.135-.253 7.506 3.474-.606 6.14.117 9.453-.219 1.507-3.298.892-5.33.235-7.709zm-58.91-.447c-1.803.09-6.974.076-5.041 2.261 1.563 2.29-1.527 8.07 3.921 6.901 1.743-.221 4.695.906 5.963-.11.393-2.213.081-4.163-.314-6.006-.341-1.009-.754-1.983-1.05-3.015-1.147-.03-2.301-.05-3.48-.031z" fill="#f96d69"/><path d="M171.341 140c-2.099.12-5.797.285-8.85.156.004.498 0 .994-.076 1.531-.23 1.625.016 4.051.468 5.313.067.185-.174.599-.329 1h9.063c.243-2.453.285-4.8-.33-6.844.038-.234.066-.661.054-1.156zm4.214-.188c-.634.002-1.296.023-1.978.063.126 2.122-.071 4.448-.3 6.656-.17.527-.219 1.007-.223 1.469 2.786-.024 5.716-.197 8.627-.344-.324-1.503 0-3.311-.516-4.75-.32-.893-.287-1.988-.286-3.063-1.587.058-3.348-.038-5.324-.031zm-19.518-.313c-1.352.017-2.737.129-3.408.344-.372.119-1.559.155-3.006.156l-.001.781c.595.436 1.087.94 1.31 1.563l1.066.531c.588 1.639 4.304 2.066 4.953 3.875.072.202.761.206.822.375.108.3.394.532.686.781.162-.044.31-.068.466-.094-.321-1.01-.45-2.387-.771-3.281-.15-.418.334-1.335.23-1.625-.263-.734-.807-1.641-1.015-2.219-.131-.366-.205-.744-.227-1.156-.367-.011-.712-.036-1.105-.031zm36.45-.313c-.718-.007-3.209.093-5.547.219-.033.857-.155 1.762-.259 2.5-.167 1.181.491 1.892.754 2.625.271.755.085 1.994.261 2.906h.219l.163-.156 3.33-3 1.089-1.406c.739-.647 1.765-1.738 2.884-2.938l-.052-.406.015-.219c-1.188-.051-2.525-.122-2.857-.125zm-12.684-9.313c-1.51.065-3.099.127-4.879.25-.824.057-1.724.025-2.636-.031.299 2.048.451 4.128.651 6.344.26.774.454 1.603.553 2.5.92.038 1.852.049 2.946-.063 1.588-.161 3.002-.282 4.397-.375-.039-.372-.108-.737-.225-1.063-.149-.417.262-1.536.151-1.844-.615-1.715-.905-3.645-.958-5.719zm-15.755-.188c-1.24.011-2.532.025-3.77.031-.164 1.019-.233 1.964.004 2.625.72 2.007 1.774 4.009 2.111 6.406l7.991.063c.311.003.593.02.886.031-.187-2.719-.771-6.785-1.497-8.094l-.033-.875c-.766-.069-1.542-.12-2.275-.156-.991-.049-2.178-.042-3.417-.031zm29.913-.156c-2.972.059-5.592.181-8.776.188l-.146.813c-.405 2.87 1.01 5.081 1.732 7.094.073.204.121.444.153.688 2.398.017 5.75-.027 8.524-.281.068-2.335-.141-6.431-.643-8.5h-.844zm6.29-.063c-1.44-.004-2.627.031-3.145.031.08 1.693.118 3.399.153 5.219.216.876.289 1.861.313 2.875 1.9-2.041 3.771-3.992 4.81-4.625.828-.504 1.765-1.641 2.601-2.594-.04-.232-.07-.476-.05-.75-1.531-.108-3.227-.152-4.681-.156zm-55 0c-3.302-.007-6.79.001-8.551.031l.047.219c.071.197.166.365.284.531 1.566.45 3.551 2.522 4.074 2.906.433.319 3.031 2.002 3.131 2.281.335.935 1.019 2.12 1.846 2.969l1.147.063c-.203-2.546-1.051-7.396-1.942-8.813l-.005-.188h-.031zm9.926-.031c-.78-.017-1.889.063-2.415.063-.709 0-2.945-.025-4.855-.031.334 1.831.572 3.675.842 5.656.404 1.024.639 2.2.764 3.438.355.015.703.059 1.054.063l6.585.063c.012-.908.058-1.843-.245-2.688-.114-.318.264-1.005.188-1.219-.372-1.036-.602-2.2-1.124-3.656-.036-.102.381-.679.334-.813-.079-.221-.154-.469-.175-.75l-.335-.063c-.154-.031-.356-.057-.616-.063zm3.422-12.5c-.207 1.653 1.341 4.261 1.763 5.438.327.912.131 2.096.259 2.813 1.067.011 2.191.031 3.199.031 1.849 0 3.589.034 5.435-.094-.164-.943-.36-1.899-.719-2.875.63-1.983.563-3.603.287-5.125-3.687.138-7.914-.043-9.17-.125-.358-.023-.695-.052-1.054-.063zm-14.71-.063c-1.409 1.248-3.525 3.431-4.495 4.281-1.593 1.395-2.208 2.527-3.026 3.5l.047.219c2.488-.04 5.301-.015 8.23.031-.215-1.163-.472-2.334-.985-3.531.49-1.717.472-3.17.23-4.5zm1.672-.219c.102.175.186.364.316.531-.067 2.659-.279 5.535.624 7.75 2.974.056 6.037.129 9.036.188-.292-.981-.578-1.96-.929-2.938-.537-1.496-.131-3.24-.65-4.688-.05-.14-.067-.32-.086-.5-1.526.046-2.907.101-3.929-.063-.449-.072-2.374-.195-4.382-.281zm50.833-.031c-.388 2.898-.828 5.919.156 8.188.216.066.426.13.547.219.629.463 5.571.177 8.241.063l.096-.344-.501-.438c-.323-.238-1.351.154-1.474-.188-.127-.355-1.274-1.75-1.878-1.75-.731 0-1.857-1.692-2.012-2.125-.081-.227-1.999-1.129-2.165-1.594-.22-.612-.592-1.214-.795-1.781-.034-.096-.103-.179-.215-.25zm-1.757-.281c-1.324.035-5.677.261-9.397.375l-.026.188c-.17 1.202.264 4.655.555 5.469.066.184-.19.789-.224 1.031-.087.615.031 1.173.128 1.75 2.036.136 4.429.286 5.924-.125.927-.255 1.992-.34 2.959-.375-.045-1.552-.182-3.094-.63-4.719.485-1.311.671-2.494.711-3.594zm-17.625 0c-1.342.001-2.77.1-3.493.281-.799.2-1.899.321-3.136.406.135.35.271.706.495 1.031-.152 2.33-.39 4.8.04 6.906.654-.086 1.329-.192 2.033-.344 1.411-.304 4.504-.003 7.11.219.054-.474.104-.958.172-1.438.069-.485-.953-4.398-1.124-4.875-.106-.295.361-1.358.544-1.969-.568-.134-1.555-.219-2.641-.219zm-24.259-8.563l-.673.563c-1.871 1.64-3.668 4.118-5.959 6.125-.244.214-.547.746-.835 1.156.863-.004 1.704-.015 2.426-.031 2.325-.051 4.262-.006 6.201.125.191-1.76.771-4.037.38-5.125-.228-.636-1.278-1.738-1.54-2.813zm31.406-.438c.009.225.058.422.119.594.72 2.009 1.244 4.49 1.083 7.375 3.043-.193 6.469-.593 9.087-.281-.795-.747-2.065-1.054-2.416-2.031-.093-.261-1.208.029-1.286-.188-.173-.482-.887-1.021-1.411-1.406-1.571-1.156-3.408-2.484-4.435-4l-.741-.063zm-24.082-.75c-1.248-.004-2.181.039-2.455.125-.003.363-.024.724-.068 1.031-.128.908.561 1.564.729 2.031l-.157 1.219c.446 1.243.665 3.238.535 5.063 1.538.009 3.069-.151 4.745-.188l5.123-.094c-.204-.758-.431-1.499-.651-2.25-.205-2.202-.071-4.673-.484-6.75-2.55-.092-5.065-.18-7.317-.188zm18.435-.094c-1.38-.007-6.272.438-6.812.438-.271 0-1.723-.068-2.471-.094.35 1.467.662 3.039.28 4.875.299 1.361.251 2.749.477 4.031l9.828-.219c.128-1.238.165-2.382.354-3.719.178-1.261-.779-2.447-.578-3.875.054-.379.116-.77.148-1.156-.405-.086-.75-.161-.871-.25-.03-.022-.158-.03-.355-.031z" fill="#f96d69"/><path d="M207.284 159.386c-.037-3.768.708-8.971.868-11.791 1.652-5.904.238-9.925 1.874-17.077 1.022-4.467 2.258-12.663 2.019-15.044-.231-2.303 1.331-10.082 1.13-13.824-.468-8.681 2.316-16.947 2.253-23.176.533-5.529-.648-8.798-.352-11.791.262-2.646 13.239 0 16.671 0 3.968 0 9.756.718 14.638 0 10.87-1.6 20.847-1.626 27.208-1.626 5.31 0 12.574 3.438 19.737.813 7.779-2.851 36.106-1.802 37.035 1.626.595 2.193-1.787 6.958-2.012 10.572-.881 14.193-6.421 29.846-9.453 43.1-.748 3.269-14.422 21.783-14.154 22.77.73 2.693-10.165 13.406-13.7 15.451-.65.376-1.77-.245-2.44 0-3.256 1.193-17.562-.061-23.879.407-2.887.214-19.622.651-22.363 0-4.934-1.172-32.941 1.872-35.078-.407z" fill="#f96d69"/><path d="M240.152 83.594c-.006.157.034.285.074.375.805 1.805.696 5.804.537 8.906 1.602.007 3.457.031 4.889.031 1.593 0 3.178-.017 4.767-.031.242-2.944.503-5.879.991-8.844-2.604-.01-5.146.039-7.038.125-1.011-.184-2.498-.399-4.22-.563zm27.445.156c-.421 1.176-1.052 2.425-1.108 3.469-.088 1.633-.238 3.728-.126 5.531.369.01.738.011 1.108.031.911-.046 1.79-.063 2.66-.063h.125c1.507-.071 3.674.057 5.677.188h.031l.708-.094.003-.063-.014-.031-3.167-3.875c-1.212-1.089-2.892-1.973-3.888-3.25-.37-.474-1.001-1.208-1.621-1.813l-.389-.031zm-14.423.313c.013.228.022.461.008.719-.108 2.003-.621 4.289-.718 6.094-.033.617-.119 1.277-.247 1.969 3.25-.036 6.492-.066 9.739-.094.104-.734.134-1.42-.253-1.688-.678-.469-.208-4.184.141-6.969-1.415.115-2.813.18-4.146.094-1.417-.073-2.959-.103-4.525-.125zm-16.979.188c-1.994 1.894-4.249 4.122-5.904 5.188-.844.543-1.526 1.551-2.36 2.344-.019.356-.059.711-.106 1.094 2.632-.006 5.328-.012 8.063 0-.289-1.669-.429-3.652-.343-5.25.06-1.124.408-2.28.65-3.375zm40.221 8.969c-.18.003-.346.037-.489.094-.576.226-5.723.354-9.44.344.092.727.214 1.39.444 1.906.32.717-.498 5.236-.724 7.063 1.092.015 2.17.031 3.295.031 1.745 0 3.556-.075 5.368-.156 1.309-3.282 1.295-6.219 1.765-9.281h-.219zm-32.375.281c-1.114.026-1.956.081-2.309.219-.166.065-.525.1-1.024.156l-.057 1.063c-.052.958-.025 2.254.335 3.063.17.381-.515 1.507-.379 1.813l-.131 2.438.136.375c2.967-.026 5.912-.088 8.85-.125.433-2.982.66-5.942.901-8.906-2.142-.071-4.516-.136-6.323-.094zm8.007.156c-.365 1.762-.866 3.618-.949 5.156-.066 1.23-.056 2.446-.105 3.688 1.192-.012 2.385-.031 3.58-.031 2.279 0 4.518.048 6.761.094.429-3.26.797-6.408.714-6.594-.16-.358-.349-1.069-.319-1.625.01-.184.045-.427.082-.656-2.898.074-5.824.031-7.267.031-.402 0-1.597-.032-2.497-.063zm-26.933.5c-1.878 1.596-3.69 3.219-5.401 4.844-.883.838-1.705 1.742-2.541 2.5l.043.656c2.278.126 5.249.258 8.435.344.232-2.788.283-5.551.322-8.313l-.858-.031zm11.031 0c-2.769.098-5.972.133-8.521.094-.241 1.552-.526 3.137-.506 4.469.019 1.259.073 2.542.107 3.813 2.979.071 6.073.108 8.962.125-.022-.539-.054-1.025-.034-1.406.053-.988.337-1.976.034-2.656-.361-.808.587-2.747.279-3.438-.124-.279-.22-.629-.321-1zm41.751.563c-.119.814-.258 1.639-.43 2.469-.206 1.748-.348 3.482-.515 5.219 2.704-.136 5.397-.28 7.986-.313-.905-1.012-1.697-2.107-2.63-3.094-.643-.679-1.676-1.081-2.246-1.813-.673-.864-1.432-1.651-2.164-2.469zm-.552 11.719c-.267.012-.605.04-.91.063-.238 1.357-.561 2.729-1.02 4.156-.649 1.826-.884 3.372-.839 4.844.418.014.822.025 1.233.031 2.926-2.872 6.13-6.218 8.805-8.281l-.306-.125c-1.006-.695-4.289.146-5.359-.594-.165-.114-.778-.131-1.604-.094zm-3.597.344c-1.788.217-3.404.461-3.562.563-.519.334-2.763.093-4.813 0 .082 1.126.19 2.281.138 3.25-.092 1.705-.293 3.708-.303 5.344.925-.067 1.842-.153 2.798-.313 1.507-.251 3.192-.211 4.899-.156.207-1.221.53-2.545.621-4-.146-1.449-.049-3.042.221-4.688zm-20.618.156c-.841 0-1.716.023-2.597.063l-.065.344c-.083.378.278.639.259 1-.15 2.781.652 4.833.673 7.531l2.08-.031c2.193-.035 4.359.09 6.57.156-.193-1.933-.275-3.948.225-6.219.063-.285.194-1.199.333-2.125-2.318-.083-6.292-.719-7.477-.719zm-27.674.031c-1.534.046-4.711.195-7.833.375l-.01.188c.468.441.939 1.082 1.138 1.219 1.322.914 1.732 1.616 2.894 2.844.519.548 1.612 1.924 2.119 2.438 1.018 1.033 1.416 1.618 1.886 2.125h.875c.013-.838-.012-1.653-.216-2.375-.597-2.109-.84-4.407-.852-6.813zm1.576.031l.014.031c-.059.371.302.618.307.969.044 2.969 1.226 4.997 1.271 8.031l.025.125c2.397-.001 4.79.007 7.174-.031h.469c-.021-1.947.176-4.152.261-5.719.045-.828.581-2.41.29-3.063l-.122-.344c-1.279.108-2.448.237-2.722.344-1.777.696-5.141-.155-6.966-.344zm13.997.063c-.46 1.419-1.255 3.28-1.045 3.75.349.781-.402 2.251.044 3.25.286.64.388 1.323.486 2l8.837-.156c.025-.576.018-1.142-.083-1.656-.439-2.238-.516-4.637-.349-7.156-2.062.116-4.157.25-6.201.25-.413 0-1.2-.116-1.688-.281zm18.593 9.313c-1.815.156-4.104.994-5.478.469-.363-.139-1.421-.246-2.764-.313l.007.156c-.027.493.318.921.204 1.438-.451 2.046-.31 4.311-.416 6.281-.024.442-.112.927-.185 1.406l.295.031c.68-.078 1.376-.179 2.062-.281 1.955.613 4.412.098 6.861-.313.152-.983.275-1.92.315-2.656.115-2.131-.206-4.133-.431-6.219h-.469zm-13.503.063c-2.123.041-4.172.175-5.458.375.093.666.188 1.332.444 1.906.428.958-.937 4.692-.493 5.688.076.17-.574 1.027-.487 1.219l.028.063c1.286-.002 2.552.022 3.775.125h.063c1.495-.108 3.364-.118 5.191-.063.206-1.956.398-3.906.067-5.594-.218-1.109-.021-2.427.073-3.688l-1.076-.031c-.697-.004-1.417-.014-2.125 0zm26.625.281c-2.614.131-5.321.192-7.493.156l.008.438c.137 1.378.078 3.595-.147 5.063-.205 1.338-.466 2.122-.693 2.719l1.146-.094c1.839-1.529 3.899-3.632 5.279-5.188.532-.6 1.268-1.152 1.997-1.688-.085-.456-.127-.924-.096-1.406zm-43.794.531l.007.156c-.117.733-.127 1.488-.121 2.25.102.026.193.063.309.063 1.5 0 4.463 3.367 5.469 4.063.206.142.825.617 1.363 1.094.288-1.636 1.118-4.638.803-5.344-.247-.553-.363-1.341-.428-2.219-2.735.033-6.255-.079-7.403-.063z" fill="#f03c37"/><path d="M222.83 129.375c-1.099.015-2.223.069-3.35.125-.982 2.775-1.08 6.047-.427 7.938 2.475-.084 5.513-.08 8.628-.063.377-2.626.105-5.216.458-7.938-1.742-.055-3.501-.087-5.309-.063zm7.15.125c-.183.765-.372 1.476-.264 1.719.453 1.015-.865 3.804-.387 4.875.148.333.205.789.228 1.281 2.38.019 4.793.049 6.934.063.121-2.075.18-4.127-.024-5.938-.027-.237-.088-.914-.128-1.688-2.102-.106-4.212-.224-6.358-.313zm10.147.469c-.224.907-.399 1.698-.347 1.813.62 1.389.312 3.522.007 5.688h9.438l.027-.5c.118-2.186.071-4.48.46-6.813-1.624-.06-3.283-.094-4.979-.094-1.536 0-3.074-.038-4.604-.094zm11.907.281c-.493 2.386-.922 5.078-.705 5.563.127.284-.198.975-.542 1.656h4.219c1.128 0 2.241-.014 3.361-.031.052-2.058.235-4.136.694-6.219.025-.114.036-.404.051-.656-2.4-.07-4.719-.205-7.077-.313zm29.636.094c-.004-.01-4.275.047-7.208.094l-.026 1.063c-.068 1.268-1.313 2.626-1.389 4.031-.03.557-.077 1.083-.15 1.625h.406c2.368 0 4.857-.057 7.302-.094.446-2.396 1.638-5.433 1.065-6.719zm-9.382.125c-3.299.053-5.42.1-7.444.125-.063 1.496-1.205 3.813-1.296 5.5-.021.4-.081.815-.112 1.219 2.581-.066 5.18-.134 7.774-.156.014-.35.034-.71.088-1.063.286-1.857.574-3.736.99-5.625zm.482 7.594c-.277 1.618-.709 3.265-1.14 5.219-.264 1.199-.073 2.728-.795 4.031-.119.215-.218.591-.304 1 1.187.301 2.803.438 3.82.438h4.031c.288 0 .716.288.875 0 .15-.271-.197-.371-.282-.563-.475-1.065.574-3.267.107-4.313-.202-.453 1.669-3.963 1.513-4.313-.147-.329-.168-.775-.152-1.25-2.732-.117-5.583-.25-6.205-.25h-1.469zm-1.58.031c-2.119.017-4.357.03-7.816.063-.279 3.061-.736 6.194-.98 9.219 2.796.074 6.143.231 6.834.469.459-1.499.911-2.887 1.043-3.125 1.31-2.366.961-4.497.919-6.625zm-12.819.125c-3.318.048-6.123.084-6.43.156-.441.103-1.033.181-1.701.25-.046.132-.06.249-.065.344-.153 2.844-1.163 6.115-1.477 9.156.414-.055.799-.117 1.138-.25 2.66-1.042 5.924-.612 8.468-.563l.031-.281c.151-2.815.001-5.787.037-8.813zm-14.732.25c-.941-.016-2.503.111-4.027.219-.091.689-.135 1.349-.17 2-.103 1.921 1.004 3.618.534 5.75-.05.228-.06.796-.077 1.438h2.469c1.295 0 3.5.402 5.403.344.219-1.187.433-2.243.454-2.625.12-2.222.598-4.591.87-6.875-1.834.117-3.84.096-4.74-.188-.149-.047-.402-.057-.715-.063zm-16.066.063c-2.926-.006-6.12.002-8.674.031-.153.277-.286.549-.224.688.808 1.811-.186 5.396.613 7.188.156.349-.538 1.456-.407 1.75.1.225.671-.275.767-.313 1.557-.61 4.356 0 5.75 0h1.5l.093-.281c.285-1.293-.408-2.284.028-3.719.616-2.026.433-3.586.553-5.344zm1.969 0c-.207 2.677-1.253 6.441-1.394 9.063l-.031.281h8.563c-.702-2.4-.492-5.727-.276-9.094h-.031c-.305-.017-.556-.039-.729-.094-.279-.088-2.845-.138-6.101-.156z" fill="#f03c37"/><path d="M213.173 55.141c2.456-.004 4.323.359 6.725.417.328.008 1.206-.309.984.024-.897 1.349-1.443 4.769-1.117 5.814.11.351 2.562-.192 3.119-.178.785.019 4.76-.4 4.922.119.049.156-.679 5.532-.871 5.82-.283.425-.564-.461-1.064-.28-1.086.393-5.356-.621-6.565.095-.721.427-.1 5.79-.631 6.588-.499.75-1.477-.036-2.215-.054-1.343-.033-2.87.692-4.19.66-2.091-.051.962-5.527.471-7.1-.103-.329-1.733.212-2.135.202-4.682-.114-7.136 2.299-5.222-3.428.179-.535.341-2.016.346-2.023.101-.152 4.003.351 4.264.357.417.01 2.376-.188 2.547-.446.272-.409-.288-.924-.319-1.024-.104-.333.784-4.944.95-5.564z" fill="#fcf4db"/><path d="M271.93 56.862c3.575.244-3.105-.424 1.433.25.357.053 3.23-.37 3.317-.25 1.284 1.759 1.499 5.819 1.813 6.25.064.088 3.119-.442 3.202-.75.279-1.033 5.168.915 4.865.5-.328-.449.498.933.413 1.25-.194.718.667 2.161.508 2.75-.062.23-7.062-.698-7.115-.5-.083.309 2.828 6.197 2.678 6.75-.088.325-1.427-.25-1.683-.25-.555 0-1.938-.253-2.365-.5h-2.75c-.372-.215-.978-1.534-1.143-2.25-.174-.756-1.925-3.984-1.853-4.25.245-.908-1.17-3.075-.988-3.75.408-1.514-.821-3.444-.333-5.25z" fill="#fcf4db"/><path d="M120.904 56.634c1.297-.051 4.816 1.001 6.476.045.041-.024.569-.549.656-.227.239.879-3.309 8.096-1.236 6.902.25-.144 1.225.057 1.455.068 1.646.077 5.858-.491 6.789.318.419.365-.457 3.605-.32 4.109.029.108-1.835.43-2.04.42l-5.092-.238c-.258-.012-2.184-.109-2.111.159.457 1.68-.136 4.784.319 6.459.043.159.634.899.526 1.056-.115.166-.323-.015-.485-.023l-2.425-.114c-.632-.03-4.178.091-4.122-.193.502-2.552 1.853-8.156 1.284-10.251-.415-1.525-2.302-5.535.326-8.491z" fill="#fcf4db"/><path d="M299.408 159.793c-1.918-2.925-6.04-19.849-7.395-27.242-2.089-12.448-3.732-26.893-4.979-31.715-1.72-5.313-3.279-12.643-4.977-17.891-2.717-8.395-2.154-11.68-4.954-20.33l-2.895-8.945c-.763-2.356-6.177-22.143-4.173-22.451 3.683-.567 24.73-.718 26.965-.53 9.946.834 45.425-.442 51.159.212 9.55 1.09 25.376.347 37.407 0 2.318-.067 37.4.813 42.956.813 2.996 0 27.969-1.586 29.275 0 1.557 1.89-2.78 15.764-3.298 18.704-.725 4.112-1.899 25.119-3.822 30.902-2.399 11.027-7.718 30.171-6.692 33.341.608 1.877-8.26 44.913-8.277 44.938-.732 1.082-16.87.707-23.814.707-2.941 0-15.628.245-22.063 0-5.53-.21-22.002-.212-31.962.601-16.894 1.379-25.512-.321-37.389-.707-4.263.011-15.981-.422-21.072-.407z" fill="#f03c37"/><path d="M312.44 136.617c-.566.136-1.658.949-1.698.407-.04-.542 2.257-.407 1.698-.407-9.007 0-2.466 3.134-4.52 4.879-.336.285-3.231-.71-4.066 0-.943.802 1.871 3.248.431 4.473-.783.666-6.476-.168-6.792 1.626-.056.319 2.3 2.884.909 4.066l-6.984.407c-.58.493.606 3.633-.382 4.473-.476.405-6.312-.753-5.692 0l3.349 4.066c.167.203 1.715 0 2.033 0 2.24 0 6.455 1.331 8.467.407.761-.35 3.161-.629 4.138-.407 5.472 1.246 20.371-1.19 25.474.407 1.815.568 8.956.407 10.977.407h21.55c2.912 0 6.411.568 9.352 0 5.906-1.141 13.088-.813 18.847-.813 1.968 0 4.979.609 6.912 0 6.082.214 30.347-.033 49.029-.033.913 0 9.134-1.071 8.945 0-.034.192-.279-.235-.335-.407-.528-1.632-.294-4.799-1.029-5.692-.371-.45-5.638 1.999-5.358.407.151-.856 2.115-2.863 1.124-4.066-.417-.506-5.492 1.23-6.171.407-.604-.734 1.537-5.286.119-5.286-.464 0-6.709 1.153-6.506 0 .004-.022 3.511-3.636 2.152-5.286-.604-.734-7.944.722-8.204.407-.395-.479 1.432-.614 1.841-1.22.61-.902 1.206-2.978.645-3.659-.308-.374-7.922.407-10.237.407-1.424 0 2.094-3.659.645-3.659-3.86.19-9.241-.424-11.622.033-3.995.154-12.546 1.22-17.699 1.22-8.278 0-21.864-.687-26.764-.407-3.574.205-14.703.398-18.369.407-8.887.021-16.136.315-20.665-.407-3.003-.478-13.103-1.996-14.494-.813-.775.658-.805 2.4-1.052 3.659z" fill="#fcf4db"/><path d="M313.588 137.023c-1.248-2.173-.725-14.173-2.586-19.924-.337-1.04.299-4.08-.359-4.879-1.752-2.126-3.317-11.504-4.594-15.451-.544-1.681-.819-9.387-1.126-9.758-1.306-1.585-1.269-5.49-2.441-6.912-1.059-1.285-4.661-.722-5.741-2.033-.276-.335.259-2.341.095-2.846-.503-1.553-1.684-2.846.095-2.846 2.402 0 26.104-.889 27.171.407.322.39-.596 1.926-.43 2.44.094.29 1.206 2.777.646 3.253-.628.534-6.719 2.209-5.524 3.659 1.289 1.565-.67 6.096.121 8.539 1.331 4.112.859 11.904 3.111 14.638.801.972-.442 5.544.001 6.912.942 2.911 1.537 11.245 2.992 13.011.541.657 2.4 7.145 2.297 7.725-.135.764 1.289 3.743.431 4.473-3.924 3.335-10.448-.407-14.159-.407z" fill="#fcf4db"/><path d="M408.819 71.967c1.851-.812 3.149-.813 5.023-.813 6.744 0 13.93-.407 20.402-.407.517 0 2.982-.329 3.253 0 .25.303-.476.395-.55.813l-.358 2.033c-.077.44.604 2.943-.239 3.659-1.541 1.31-4.538 1.438-6.194 2.846h-1.22c-.472.401-.607 3.002-1.052 3.659-2.636 3.898-3.324 30.381-4.348 36.188-.194 1.102-1.796 6.211-1.219 6.912 1.117 1.356-.477 7.316-.907 9.758-.08.455.268 1.155.192 1.22-.449.382-.967-.307-1.148-.407-.166-.091-5.3.941-5.908 1.22-1.078.495-8.566 2.463-8.347 1.22.086-.489 1.068-.376 1.363-.813.485-.718.062-.744.622-1.22 1.632-1.387.802-7.798 2.127-9.758.807-1.194 1.457-15.181 2.006-18.297 1.075-6.099 1.398-12.542 2.341-17.891.371-2.103 1.834-8.14.836-9.352-1.636-1.987-5.998-4.473-8.157-4.473-.02 0 .39-3.198 1.482-6.099z" fill="#fcf4db"/><path d="M286.143 59.769c1.126-.384-.754 8.464 1.317 10.978l-.095 2.846c.06.073 17.1-1.453 17.627-.813.638.774 17.897 0 21.55 0 5.121-1.109 9.589.427 14.159.407 2.613 0 11.774.942 13.824 0 1.609-.739 16.572-1.043 18.369-.407 1.855.657 21.099 1.328 23.105.407 1.192-.548 17.95-1.626 20.21-1.626 7.335 0 14.802.407 21.885.407.517 0 5.234.736 5.621.407 1.159-.985 2.132-19.009 2.437-20.737-2.979 0-7.466.174-10.787 1.22-2.295.722-5.866 0-8.132 0-5.812 0-20.344-.636-24.946.813-2.378.749-4.952-.361-7.391.407-1.701.535-2.71-.811-4.401-.407-2.067.495-4.56-.228-6.577.407-7.81 2.459-22.565.813-31.045.813h-46.759c-3.342 0-18.726-1.018-19.924 0-.763.649 1.95 3.68-.047 4.879z" fill="#f96d69"/><path d="M356.647 125.588c2.07-.042 3.936-.172 4.84-.594.449-.21 2.196-.003 3.955.063.104-1.409.242-2.746.322-3.219.302-1.798.378-3.578.364-5.375-3.134-.015-6.274-.013-9.403-.031.001 1.326-.009 2.66-.06 4-.066 1.763.007 3.43-.018 5.156zm20.854-.219c.349-.021.761-.08 1.165-.156.011-.665-.015-1.228.003-1.938.04-1.555.081-3.15.061-4.531-.012-.879-.068-1.649-.151-2.281-3.816.019-7.63.017-11.438 0 .04 2.867.182 5.731.15 8.563.624-.047 1.183-.122 1.592-.313 1.854-.865 6.298.054 7.797.594.186.067.471.084.819.063zm.827-10.094c-.35-1.203-.519-2.493-.675-3.844-.153-1.325-.295-2.727-.497-4.156-2.817.103-7.196.288-9.55.281-.371 2.502-.471 5.018-.467 7.531 1.551-.036 2.86-.102 3.471-.156 3.419-.305 5.78.27 7.718.344zm-20.337-.094c2.94-.019 5.785-.019 8.097-.063-.054-2.5-.161-5.034.145-7.625l-.24-.031c-1.389-.775-5.337-.774-9.164-.688-.009.491.023.977-.116 1.531-.207.825-.448 1.641-.346 2.313.224 1.474.33 3.015.364 4.563h1.261zm24.93 9.094c.119-.131.217-.24.337-.344 1.882-1.622 3.989-4.336 5.581-6.719.232-.348.591-.614.954-.875-2.429.057-4.853.1-7.278.125l.104 2.375c.072 1.976.156 3.882.302 5.438zm-.46-9.25c3.273-.108 6.367.125 8.286-.438-.122-2.431-.199-4.951-.144-7.031-2.822.442-5.847.004-8.601-.219-.079.561-.256 1.234-.153 1.563.259.821.405 2.29.514 4.063.038.623.067 1.38.098 2.063zm9.51-.75c2.021-2.551 5.635-5.092 8.259-7.781l-.09-.188c-.464-.575-2.53.664-2.983.875-1.381.644-3.395-.458-4.827 0-.21.067-.429.102-.642.156-.048.424-.089.854-.115 1-.375 2.126.084 4 .367 5.938h.031zm-40.33 11.281c.092-.939.191-1.893.18-2.938-.016-1.466-.12-2.938-.209-4.219-.045-.646-.005-1.326.045-2-2.069-.009-4.138-.031-6.205-.031-.657 0-1.378.072-2.118.156l-.105.594c.738.799 1.427 1.576 1.87 2.125 1.158 1.434 2.035 3.18 3.394 4.469.625.593 1.321 1.194 1.992 1.781l1.157.063zm-10.128-10.219l.559-.031c.102-2.698.601-5.678 1.033-8.125l.046-.438c-2.191-.065-4.357-.125-6.435-.125-.468 0-2.75-.103-3.43-.25.071.172.124.466.195.813l.025.031c1.671 2.217 2.513 3.818 5.295 5.719.71.485 1.71 1.41 2.712 2.406zm-8.227-8.969c-.085-.206-.166-.281-.204-.063l.204.063zm10.267 8.906l.682-.031c1.272 0 4.78-.025 7.538-.031l.112-1.156c.172-1.473.312-2.941.109-4.281-.094-.619-.238-1.343-.338-2.094-.036-.275.006-.538-.011-.813l-.836.031c-2.333 0-4.638-.088-6.921-.156-.08 3.038-.186 6.24-.176 6.75.012.58-.067 1.177-.16 1.781zm33.78-32.37c-2.103.042-4 .172-4.917.594-.456.21-2.232.003-4.02-.063-.101 1.409-.238 2.746-.318 3.219-.302 1.798-.374 3.578-.354 5.375 3.185.015 6.377.013 9.557.031-.005-1.326.002-2.66.049-4 .062-1.763-.017-3.43.003-5.156zm-21.195.219c-.354.021-.773.08-1.184.156-.009.665.019 1.227.002 1.938-.037 1.555-.073 3.15-.049 4.531.015.879.074 1.649.16 2.281 3.879-.019 7.755-.017 11.625 0-.049-2.867-.201-5.731-.178-8.563-.634.047-1.202.122-1.618.313-1.881.865-6.402-.054-7.927-.594-.189-.067-.478-.084-.833-.063zm-.811 10.094c.359 1.203.535 2.493.697 3.844.159 1.325.308 2.727.517 4.156 2.862-.103 7.313-.288 9.706-.281.37-2.502.464-5.018.453-7.531-1.577.036-2.906.102-3.528.156-3.475.305-5.876-.27-7.846-.344zm20.671.094c-2.988.019-5.88.019-8.23.063.062 2.5.178 5.034-.126 7.625l.244.031c1.414.775 5.427.774 9.316.688.008-.491-.026-.977.114-1.531.208-.825.451-1.641.345-2.313-.231-1.474-.344-3.015-.383-4.563h-1.281zm-25.365-9.094c-.121.131-.22.24-.342.344-1.908 1.622-4.042 4.336-5.653 6.719-.235.348-.598.614-.967.875 2.468-.057 4.933-.1 7.397-.125-.035-.812-.08-1.557-.112-2.375-.079-1.976-.17-3.882-.322-5.438zm.494 9.25c-3.326.108-6.472-.125-8.421.438.131 2.431.217 4.951.166 7.031 2.867-.442 5.943-.004 8.743.219.078-.561.257-1.234.151-1.563-.266-.821-.418-2.29-.534-4.063-.041-.623-.072-1.38-.105-2.063zm-9.664.75c-2.047 2.551-5.713 5.092-8.372 7.781l.092.188c.474.575 2.569-.664 3.029-.875 1.402-.644 3.452.458 4.906 0 .213-.067.436-.102.653-.156.047-.424.088-.854.114-1 .375-2.126-.097-4-.391-5.938h-.031zm40.958-11.281c-.091.939-.189 1.893-.174 2.938.021 1.466.131 2.938.225 4.219.048.646.009 1.326-.04 2 2.103.009 4.206.031 6.307.031.667 0 1.401-.072 2.153-.156l.105-.594c-.752-.799-1.455-1.576-1.907-2.125-1.181-1.434-2.078-3.18-3.462-4.469-.637-.593-1.346-1.194-2.03-1.781l-1.176-.063zm10.323 10.219l-.568.031c-.096 2.698-.595 5.678-1.026 8.125l-.046.438c2.227.065 4.429.125 6.54.125.475 0 2.795.103 3.487.25-.073-.172-.128-.466-.2-.813l-.026-.031c-1.705-2.217-2.566-3.818-5.398-5.719-.723-.485-1.742-1.41-2.763-2.406zm8.387 8.969c.087.206.169.281.208.063.006-.032-.08-.035-.208-.063zm-10.461-8.906l-.693.031c-1.293 0-4.858.025-7.662.031l-.11 1.156c-.171 1.473-.309 2.941-.099 4.281.097.619.246 1.343.35 2.094.038.275-.005.538.013.813l.849-.031c2.372 0 4.715.088 7.035.156.072-3.038.171-6.24.159-6.75-.014-.58.064-1.177.158-1.781z" fill="#f96d69"/><path d="M306.549 53.073c-.606.141-.828-8.732-1.208-9.192-.067-.082.128-.424.093-.53-.057-.177-.376-.732-.198-.884 2.194-1.865 4.12-6.207 5.968-7.778.255-.217 10.926 1.315 12.634.53.794-.365 5.402-.53 6.457-.53.108 0 .65-.069.707 0 .535.65-.005 3.533.281 4.419.255.787-.184 1.89.063 2.652.689 2.129.374 4.98 1.051 7.071.184.567.086 2.895.323 3.182.015.018.371.136.114.354-.033.028-4.67-.177-5.272-.177-.311 0-1.07.177-1.092.177-.08 0-.096-2.464-.032-2.828.112-.637-.737-6.689-.906-6.894l.176-3.005c-.073-.088-.745 0-.884 0-1.848 0-3.702-.177-5.449-.177-.743 0-4.736.119-5.012.354-.527.448-4.491 5.064-4.439 5.127.969 1.177.329 4.021.801 5.48.199.616.795 2.508.739 2.828-.013.072-1.679-.107-1.737-.177-.454-.551-2.432 0-3.182 0z" fill="#fcf4db"/><path d="M355.378 34.625c-.584.017-1.634.25-1.95.25-1.218 0-9.516-.423-10.438 0-1.287.592-2.289 2.238-3.185 3-1.26 1.071-2.297 1.794-3.716 3-.095.081.256 6.719.409 6.719 1.093 2.001 2.848 3.647 4.065 5.125.511.62 10.108.188 11.623.188.986 0 2.475.099 4.063 0 .12.066 1.362-.866 1.594-1.063.67-.569 1.11-.832 1.752-1.781.573-.847 1.552-1.028 2.219-1.594.208-.177.169-4.955.029-5.125-.445-.541-.15-2.299-.377-3-.321-.992-1.334-1.179-1.96-1.938-.642-.779-1.224-1.927-1.824-2.655-.63-.548-1.631-.836-2.302-1.125zm-10.692 4.281c1.848-.07 5.189.188 6.061.188.269 0 3.138-.212 3.184-.156.775.941 2.406 1.821 3.377 3 .291.353.894.25 1.125.531.073.088-.13.737-.154.875-.114.647.483 3.202-.124 3.719-.707.601-1.863 1.159-2.595 1.781-.186.158-.49 1.063-.906 1.063-.315 0-2.894-.289-3.094-.531-.045-.055-7.673.156-8.309.156l-.281-.531c-.395-.48-2.109-1.081-2.531-1.594-.175-.212.139-3.794.021-4.906-.153.245-.267.494-.34.688l.316-.906.024.219c.409-.655 1.069-1.414 1.722-1.969.554-.471.887-1.072 1.316-1.438.146-.124.573-.164 1.189-.188z" fill="#fcf4db"/><path d="M393.199 32.268c-.86-.068-3.932.237-4.767.2-.019 1.563-.132 4.697-.19 5.697-.784-.483-2.593-3.018-3.096-3.699-.166-.224-2.333.055-2.668.04-1.243-.055-4.253-.298-5.081-.224-1.879.169-3.997-.034-4.857.322-1.41.584-2.757 3.557-4.442 4.974-.11 2.208-1.255 5.879-.465 6.946.388.524-.78 2.389-.439 2.849.743 1.005 2.779 1.997 4.132 2.83.357.22 1.63 1.81 2.62 1.03.579-.456 3.542.096 3.924-.205.933-.736 10.307-.829 10.47-.957l1.091-.835c.225-.177.426-.774.76-1.038.706-.557 1.733-.926 2.543-2.032.291-.397.007-1.594.126-2.138.163-.74.214-3.842.026-4.097-.162-.219 1.325-8.498.515-9.592-.02-.027-.08-.062-.203-.072zm-18.805 5.287c.077-.061 3.056.892 3.952.521 1.121-.464 2.178.096 3.315.146.256.011 1.605-.342 1.656-.274.539.729 2.078 2.078 2.958 2.621 1.012.624 2.048 1.837 2.762 2.801.38.514-.48 2.105-.057 2.677.879 1.189-2.718 3.305-3.11 3.614-.129.102-.887-.039-1.053-.046-1.26-.056-10.948.515-11.18.201-.465-.628-2.203-1.752-2.431-2.597-.085-.313.401-1.524.206-1.788-.613-.828.909-3.493.297-4.621.495-.788 2.062-2.762 2.687-3.255z" fill="#fcf4db"/><path d="M405.599 34.438l-.136.063c-.746.634-2.061 1.731-2.814 2.844-1.11 1.642-3.258 3.833-4.558 4.938-.162.137.386 1.152.467 1.25.286.347-.448 2.142-.281 2.656.212.655-.642 1.99-.248 2.469.415.504 1.347.8 1.846 1.406.375.455.738 1.086 1.002 1.406.148.18 1.013-.156 1.278-.156h6.719c1.466 0 3.921.453 5.314-.188.893-.41 3.173.624 3.906 0 1.195-1.016 2.993-2.385 4.341-3.531.554-.471 1.185-1.279 1.494-1.563l-.182-.031h-1.938c-1.413 0-3.717-.134-4.72.719-.561.477-.885 1.066-1.375 1.594-1.287-.148-3.199-.188-3.811-.188-1.267 0-5.711.758-6.752.188-.814-.446-1.335-1.126-2.188-1.594-.822-.451-.016-3.863-.374-4.969h1.063l3.061-.344.004.156c2.118-.028 4.208.188 6.311.188l8.904-.344c.292 0 2.451.1 2.502-.188.219-1.241-2.335-2.6-3.35-3.156-1.659-.91-2.049-2.597-3.467-3.375-.908-.498-8.579 0-10.25 0-.368 0-1.34-.333-1.768-.25zm18.331 11.594c.093.024.18.042.193-.031.022-.125-.066-.085-.193.031zm-13.314-8.5c1.386-.001 2.816.156 3.816.156 1.639 0 2.507 1.25 2.436 1.25-1.252 0-3.411-.048-4.654.344-.684.215-1.412.188-2.158.188-1.123 0-2.514.156-3.371.156-1.806 0 .072-.905.371-1.219.828-.704 2.174-.874 3.561-.875z" fill="#fcf4db"/><path d="M330.812 138.63c-.194.212-8.066.49-8.526.881-.963.819-1.981 2.808-3.083 3.745-.385.327-1.945 2.72-1.827 2.864.83 1.008 2.576 2.593 3.525 3.745.342.415 5.146-.451 5.144-.441-.149.844 2.194 1.862 2.838 2.643.091.11.464.296.583.441.016.02-1.672 2.358-1.749 2.423-.208.177-9.047-1.158-9.135-.661-.041.233.273.599.324.661l.208 1.322.091 1.982c.276.335 2.778 0 3.304 0 1.016 0 4.309-.385 4.444-.22.111.135 1.892.826 2.086.661 1.57-1.335 3.242-3.318 4.522-4.406.138-.117-.424-1.584-.57-1.762-.617-.749-1.695-1.256-2.294-1.982l-3.447-4.185c-.434-.526-5.1.762-5.183.661l-.687-1.101c-.181-.22-.599-.349-.544-.661.055-.312.518-.441.777-.661.543-.461.728-1.448 1.412-1.762 1.089-.5 7.228.409 7.451.22.891-.757-.616-2.998.336-4.406z" fill="#c83737"/><path d="M347.44 138.757c-1.318 1.024-8.722.09-9.136.442-.351.298-4.163 9.161-3.884 9.5 1.106 1.343 1.794 4.324 2.964 5.744.345.418.169 1.814.494 2.209.171.207 6.491-.221 7.329-.221.649 0 1.92-.401 2.248-.221.417.229.728.221 1.287.221.227 0 .209.386.403.221.297-.252-.109-2.279-.234-2.43l.312-1.767c-.11-.133-1.116 0-1.326 0-.967 0-4.66-1.297-5.666-.442-.186.158-2.13.364-2.248.221-.625-.758-1.03-2.592-1.807-3.535-.639-.775-.262-1.409.429-2.43.528-.78.607-2.958 1.286-3.535.825-.701 6.661.911 7.992-.221.15-.128-.359-.468-.325-.663.206-1.17-.034-1.958-.117-3.093z" fill="#c83737"/><path d="M352.07 136.862c.619 2.293.115 18.351.65 19l.118.75c.12.146 3.329.146 3.5 0 1.045-.888-1.239-10.636-1.104-10.75.282-.24 1.157.158 1.5 0 .382-.176 2.507-.902 2.838-.5l3.501 4.25c.37.45-1.361 7.25-.278 7.25.606 0 2.844.77 3.456.25.648-.551-.063-3.054-.133-3.5-.197-1.253-.312-7.056-.883-7.75-.363-.441-1.253-.852-1.78-1.25-.911-.688-1.332-1.964-2.309-2.5-.465-.255-.782-2-1.397-2-.777 0-3.396 2.251-4.309 1.75-.969-.531.638-4.993.014-5.75-.452-.549-3.059.629-3.382.75z" fill="#c83737"/><path d="M374.165 139.688c-.431.005-.964.19-1.715.688-.322.311-4.587 7.482-4.572 7.5.868 1.054 1.509 2.345 2.045 4 .373 1.153.167 3.519 1.045 4 1.221-.962 7.649.298 8 0 .611-.519.883-1.861 1.485-2.75.91-1.346 1.969-3.162 2.955-4 .91-.774-2.504-6.986-2.722-7.25-.25-.303-.025-1.244-.236-1.5-.489-.594-3.121-.25-4.206-.25-.903 0-1.361-.446-2.079-.438zm2.756 3.688c.282-.021.487-.016.5 0 .198.24.015.929.28 1.25.953 1.157 2.525 2.762 3.339 3.75.417.506-2.87 3.43-3.001 3.906-.309-.074-1.067-.156-1.41-.156-.736 0-3.155.722-3.75 0-.345-.419.034-1.44-.147-2-.219-.678-1.21-1.643-1.103-2.25.148-.841 2.237-2.717 2.749-4.25.054 0 1.697-.189 2.544-.25zm1.112 8.938c.144.035.214.063.051.063l-.051-.063z" fill="#c83737"/><path d="M394.844 138.5c-.639-.036-1.786.125-2.085.125-1.545 0-2.336-.089-3.882.75-.843 2.744-3.738 7.603-2.587 9 .84 1.019.71 3.29 1.501 4.25.498.605-.464 2.472-.029 3 .317.385 1.88.315 2.25 0 .828-.704 4.66.25 5.206.25.125 0 .284.117.279.188l.559-.688c.415-.613.674-1.367 1.103-2l2.705-4c.431-.637-1.237-3.019-1.633-3.5-1.222-1.484-1.8-5.827-2.972-7.25-.052-.063-.202-.113-.415-.125zm-1.702 3.625c1.446 1.756 2.56 5.233 3.81 6.75.326.395-.676 1-1.014 1.5-.313.463-.511 1.922-.897 2.25-.219.186-.199-.25-.456-.25h-1.25c-.518 0-2.979.33-3.25 0-.444-.538-.169-1.295-.397-2-.287-.885-.805-2.191-1.265-2.75-.154-.187 2.225-4.381 1.926-5.25h2c.28 0 .761-.29.794-.25z" fill="#c83737"/><path d="M408.001 135.125c-.457.175-2.025 1.212-2.095 1.25-1.219 2.968-.831 6.132-1.337 9-.33 1.874-1.166 8.14-.828 10.188-.137.549-.199.994-.073 1.125.124.129.333-.193.382-.219.279-.147.928-.044 1.23-.063 3.167-.196 5.857-.186 8.91-.375.387-.024 2.039.432 2.463.031.156-.147-.034-1.295 0-1.594.065-.569.018-2.149-.258-2.438-.164-.171-.608.156-.726.219-.147.078-4.403-.087-5.307-.031-.874.054-1.581.229-2.285.375-.068-.469-.115-.945-.022-1.469.275-1.558.014-3.433-.412-4.75-.267-.826.078-7.532.293-8.75.062-.349.393-2.255.191-2.5h-.125z" fill="#c83737"/></svg>