<?xml version="1.0" encoding="utf-8"?>
<!-- Generator: Adobe Illustrator 19.0.0, SVG Export Plug-In . SVG Version: 6.00 Build 0)  -->
<!DOCTYPE svg PUBLIC "-//W3C//DTD SVG 1.1//EN" "http://www.w3.org/Graphics/SVG/1.1/DTD/svg11.dtd">
<svg version="1.1" id="Layer_1" xmlns="http://www.w3.org/2000/svg" xmlns:xlink="http://www.w3.org/1999/xlink" x="0px" y="0px"
	 viewBox="0 0 609.3 700" style="enable-background:new 0 0 609.3 700;" xml:space="preserve">
<style type="text/css">
	.st0{fill:#CEEFD4;}
	.st1{fill:#20B24B;}
	.st2{fill:#2ED85A;}
	.st3{font-family:'GothamRounded-Bold';}
	.st4{font-size:23.7503px;}
	.st5{fill:#FFFFFF;}
</style>
<polygon id="XMLID_20_" class="st0" points="21.2,186.5 304.6,23.1 587.7,186.5 587.9,513.5 304.6,676.9 21.7,513.5 "/>
<path id="XMLID_173_" class="st1" d="M603.9,171L310,1.4c-3.3-1.9-7.4-1.9-10.8,0L5.4,171c-3.3,1.9-5.4,5.5-5.4,9.3v339.3
	c0,3.8,2.1,7.4,5.4,9.3l293.9,169.6c1.7,1,3.5,1.4,5.4,1.4s3.8-0.5,5.4-1.4L603.9,529c3.3-1.9,5.4-5.5,5.4-9.3V180.3
	C609.3,176.5,607.2,172.9,603.9,171z M587.9,272v13.3v167.6v48.7v8.4v2v1.5L304.6,676.9L21.7,513.5V509v-7.4V494v-36.6v-59.9v-44.8
	v-22.6V323v-7.3h-0.2v-8.4h0.2V286v-14.1v-7.4v-22.5v-7.4h-0.5v-48L304.6,23.1l283.1,163.4v29.3h0.2V272z"/>
<g id="XMLID_171_">
	<path id="XMLID_16_" class="st2" d="M212.7,369.1c1.1,0,1.9-0.8,1.9-1.9v-9.7l7.9,10.4c0.5,0.7,1.1,1.2,2.1,1.2h0.1
		c1.1,0,2.1-0.8,2.1-2.1v-14.4c0-1.1-0.8-1.9-1.9-1.9c-1.1,0-1.9,0.8-1.9,1.9v9.3l-7.7-10.1c-0.5-0.7-1.1-1.2-2.1-1.2h-0.4
		c-1.1,0-2.1,0.8-2.1,2.1V367C210.8,368.3,211.7,369.1,212.7,369.1z"/>
	<path id="XMLID_81_" class="st2" d="M240,369.2c5.6,0,9.7-4.2,9.7-9.3l0,0c0-5.2-4-9.3-9.6-9.3c-5.6,0-9.7,4.2-9.7,9.3l0,0
		C230.4,365.1,234.4,369.2,240,369.2z M234.6,359.9c0-3.1,2.2-5.6,5.5-5.6c3.1,0,5.5,2.6,5.5,5.7l0,0c0,3.1-2.2,5.6-5.5,5.6
		C236.8,365.5,234.6,363.1,234.6,359.9L234.6,359.9z"/>
	<path id="XMLID_78_" class="st2" d="M255.1,369h5.1c5.7,0,9.6-4,9.6-9l0,0c0-5.1-4-9-9.6-9h-5.1c-1.1,0-2.1,0.8-2.1,2.1v13.9
		C253.2,368.1,254,369,255.1,369z M257.2,354.5h3c3.3,0,5.5,2.2,5.5,5.5l0,0c0,3.1-2.2,5.5-5.5,5.5h-3V354.5z"/>
	<path id="XMLID_11_" class="st2" d="M275.4,369h10.1c1,0,1.8-0.8,1.8-1.8c0-1-0.8-1.8-1.8-1.8h-8.2v-3.8h6.8c1,0,1.8-0.8,1.8-1.8
		c0-1-0.8-1.8-1.8-1.8h-6.8v-3.7h8.1c1,0,1.8-0.8,1.8-1.8c0-1-0.8-1.8-1.8-1.8h-10c-1.1,0-2.1,0.8-2.1,2.1v14.1
		C273.5,368.1,274.3,369,275.4,369z"/>
	<path id="XMLID_10_" class="st2" d="M290.4,367c2.1,1.5,4.4,2.2,6.8,2.2c4,0,6.7-2.1,6.7-5.6l0,0c0-3.1-2.1-4.5-5.7-5.5
		c-3.1-0.8-4-1.2-4-2.3l0,0c0-0.8,0.8-1.6,2.3-1.6c1.2,0,2.5,0.4,3.8,1.2c0.3,0.1,0.7,0.3,1,0.3c1.1,0,1.9-0.8,1.9-1.8
		c0-0.8-0.4-1.4-0.8-1.6c-1.6-1.1-3.6-1.6-5.7-1.6c-3.7,0-6.3,2.2-6.3,5.5l0,0c0,3.6,2.3,4.6,6,5.5c3,0.8,3.7,1.2,3.7,2.3l0,0
		c0,1.1-1,1.6-2.6,1.6c-1.8,0-3.3-0.7-4.6-1.6c-0.3-0.1-0.7-0.4-1.1-0.4c-1.1,0-1.9,0.8-1.9,1.8C289.6,366.2,290,366.8,290.4,367z"
		/>
	<path id="XMLID_9_" class="st2" d="M315.7,369.2c2.9,0,4.8-0.8,6.4-2.3c0.4-0.3,0.7-0.8,0.7-1.4c0-1-0.8-1.8-1.9-1.8
		c-0.4,0-0.8,0.1-1.2,0.4c-1.1,1-2.2,1.4-4,1.4c-3.1,0-5.2-2.6-5.2-5.7l0,0c0-3.1,2.2-5.6,5.2-5.6c1.4,0,2.6,0.4,3.7,1.2
		c0.3,0.1,0.7,0.4,1.2,0.4c1.1,0,1.9-0.8,1.9-1.9c0-0.7-0.4-1.2-0.8-1.6c-1.5-1.1-3.3-1.8-6-1.8c-5.6,0-9.4,4.2-9.4,9.3l0,0
		C306.6,365.1,310.5,369.2,315.7,369.2z"/>
	<path id="XMLID_8_" class="st2" d="M328.4,369.1c1.1,0,2.1-0.8,2.1-2.1v-5.5h7.4v5.5c0,1.1,0.8,2.1,2.1,2.1c1.1,0,2.1-0.8,2.1-2.1
		v-14.4c0-1.1-0.8-2.1-2.1-2.1c-1.1,0-2.1,0.8-2.1,2.1v5.3h-7.4v-5.3c0-1.1-0.8-2.1-2.1-2.1c-1.1,0-2.1,0.8-2.1,2.1V367
		C326.4,368.3,327.2,369.1,328.4,369.1z"/>
	<path id="XMLID_71_" class="st2" d="M354.8,369.2c5.6,0,9.6-4.2,9.6-9.3l0,0c0-5.2-4-9.3-9.6-9.3s-9.7,4.2-9.7,9.3l0,0
		C345.3,365.1,349.2,369.2,354.8,369.2z M349.4,359.9c0-3.1,2.2-5.6,5.5-5.6c3.1,0,5.5,2.6,5.5,5.7l0,0c0,3.1-2.2,5.6-5.5,5.6
		C351.7,365.5,349.4,363.1,349.4,359.9L349.4,359.9z"/>
	<path id="XMLID_68_" class="st2" d="M376.9,369.2c5.6,0,9.7-4.2,9.7-9.3l0,0c0-5.2-4-9.3-9.6-9.3c-5.6,0-9.7,4.2-9.7,9.3l0,0
		C367.3,365.1,371.2,369.2,376.9,369.2z M371.4,359.9c0-3.1,2.2-5.6,5.5-5.6c3.1,0,5.5,2.6,5.5,5.7l0,0c0,3.1-2.2,5.6-5.5,5.6
		C373.7,365.5,371.4,363.1,371.4,359.9L371.4,359.9z"/>
	<path id="XMLID_3_" class="st2" d="M392,369h9.3c1,0,1.8-0.8,1.8-1.8c0-1-0.8-1.8-1.8-1.8H394v-12.6c0-1.1-0.8-2.1-2.1-2.1
		c-1.1,0-2.1,0.8-2.1,2.1v14.1C390,368.1,390.9,369,392,369z"/>
</g>
<g id="XMLID_19_">
	<text id="XMLID_61_" transform="matrix(0.7701 0.6379 -0.6379 0.7701 357.0779 557.8954)" class="st2 st3 st4">M</text>
	<path id="XMLID_56_" class="st2" d="M422.4,573.1c-0.8-1.4-2.7-1.9-4-1.1l-105,60.6l44.7-57c1-1.3,0.8-3.2-0.5-4.1
		c-1.3-0.9-3.2-0.8-4.1,0.5l-48.8,62.2v-60.8c0-1.6-1.3-3-3-3c-1.7,0-3,1.3-3,3v60.8L250,572c-0.9-1.3-2.9-1.4-4.1-0.5
		c-1.3,1-1.4,2.9-0.5,4.1l44.7,57l-107-61.8c-1.4-0.8-3.2-0.3-4,1.1c-0.8,1.4-0.3,3.2,1.1,4l120.2,69.4c0,0,0,0,0.2,0
		c0.2,0,0.2,0.2,0.3,0.2c0,0,0,0,0.2,0c0,0,0,0,0.2,0h0.2c0.2,0,0.5,0.2,0.6,0.2l0,0l0,0l0,0l0,0c0.3,0,0.5,0,0.6-0.2h0.2h0.2
		c0.2,0,0.2-0.2,0.3-0.2c0,0,0,0,0.2,0l118.3-68.2C422.8,576.4,423.2,574.5,422.4,573.1z"/>
	<text id="XMLID_2_" transform="matrix(1 0 0 1 292.3462 557.0166)" class="st2 st3 st4">C</text>
	<text id="XMLID_62_" transform="matrix(0.7907 -0.6122 0.6122 0.7907 234.9163 570.2217)" class="st2 st3 st4">H</text>
</g>
<path id="XMLID_57_" class="st2" d="M425.2,123.5L305.1,54.2l0,0c-0.2-0.2-0.3-0.2-0.5-0.2l0,0l0,0h-0.2h-0.2c-0.2,0-0.3,0-0.5,0
	c0,0,0,0-0.2,0h-0.2c-0.2,0-0.5,0-0.6,0l0,0l0,0l0,0c-0.2,0-0.3,0.2-0.5,0.2l0,0l-118.3,68.2c-1.4,0.8-1.9,2.5-1.1,4
	c0.8,1.4,2.7,1.9,4,1.1l105.1-60.6l-44.7,57c-1,1.3-0.8,3.2,0.5,4.1c1.3,0.9,3.2,0.8,4.1-0.5l48.8-62.2V126c0,1.6,1.3,3,3,3
	c1.7,0,3-1.3,3-3V65.2l48.8,62.2c0.6,0.8,1.4,1.1,2.4,1.1c0.6,0,1.3-0.2,1.7-0.6c1.3-0.9,1.4-2.9,0.5-4.1l-44.7-57l107,61.8
	c0.5,0.3,1,0.3,1.4,0.3c0.9,0,2.1-0.5,2.5-1.4C427.1,126.2,426.7,124.3,425.2,123.5z"/>
<g id="XMLID_1_">
	<path id="XMLID_49_" class="st1" d="M362.9,520.1c0.1-13.8-3.6-26.8-10.5-38.4c-5.4-9-13.7-15-23.3-19.5c-22-10.1-49.1-5.9-66.5,11
		c-13.3,13-18.6,29.4-19,47.4c0,0.1,0,0.2,0,0.3h119.4C362.8,520.6,362.9,520.3,362.9,520.1z"/>
	<path id="XMLID_168_" class="st1" d="M307.4,380.2C307.4,380.2,307.4,380.2,307.4,380.2C307.4,380.2,307.4,380.2,307.4,380.2
		C307.4,380.2,307.4,380.2,307.4,380.2z"/>
	<path id="XMLID_64_" class="st1" d="M227.3,378.4c-8.2,0-15.9-0.1-23.5,0.1c-3.6,0.1-5.9-0.8-6.8-4.7c-0.8-3.4-2.9-4.8-6.6-3.2
		c-0.2,3.1-0.4,6.3-0.6,9.1c1.8-0.1,3.7-0.8,4.7-0.1c0.9,0.6,0.7,2.8,0.9,4.3c0.3,2.1,0.1,4.4,0.7,6.4c0.3,1,2.1,2.1,3.2,2
		c5-0.3,10-1.4,15-1.6c7.9-0.3,8.1,0,8,8.2c-0.2,22.8-0.6,45.7-0.8,68.5c-0.1,10.5-0.1,21,0.3,31.5c0.3,7.4,1.2,14.7,1.7,22.1h1.8
		C225.9,473.5,226.6,426,227.3,378.4z"/>
	<path id="XMLID_175_" class="st1" d="M367,349.7c0.1-7.2,0.3-14.4,0.2-21.6c0-3,1.1-4.1,4-4.1c2.8,0.1,5.5-0.2,8.3-0.3
		c0-0.6,0-1.1,0-1.7c-1.8,0-3.6,0-5.5,0c-2.1,0-4.2,0-6.2,0c-0.7-11.6-0.7-11.6,7.5-11.1c0.3,2.6,0.6,5.2,0.9,7.9
		c0.3,0,0.5-0.1,0.8-0.1c0.1-2.5,0.3-5.1,0.4-7.6c4.7,0.7,4.1-2.5,4.1-5.7c-3.2,0-6.3,0.1-9.4,0c-6.4-0.1-6.9,1.4-6.9-6.6
		c0-0.8-0.3-1.6-0.5-2.4c-0.6,5.7-5.6,11.5,0.4,16.8c0.8,0.7,0.6,2.8,0.5,4.2c-0.1,2.8-0.8,5.6-0.7,8.4c0.1,8.1,0.3,16.2,0.5,24.2
		h1.7C367.1,349.9,367,349.8,367,349.7z"/>
	<path id="XMLID_70_" class="st1" d="M374.6,455.6c0.4-25.8,0-51.6,1-77.6h-43.4c-0.3,1.6-1.9,1.6-5.8,1.5
		c-4.1-0.1-8.2-0.3-12.3-0.2c-2.2,0-4.5,0.6-6.7,0.9c0,0,0.1,0.1,0.1,0.1c0,0,0,0,0.1,0c0,0,0,0,0,0c1.3,2.3,3.3,2.8,5.9,2.8
		c16.9,0,33.7,0.2,50.6,0.4c1.9,0,3.7,0.3,5.6,1.4c-23,0-46,3.1-69.3-2.2c2-3.2,4.6-2.7,7.2-2.4c0,0,0,0,0,0c-2.5-0.4-5.1-1.1-7.6-1
		c-2.3,0.2-4.5,1.9-6.8,2c-10.5,0.1-21-0.1-31.5-0.2c-3,0-5.9-0.1-8.9-0.3c-4.8-0.3-9.6-0.7-14.5-0.8c-1.2,0-2.4,0.9-3.6,1.3
		c0.1,0.6,0.1,1.1,0.2,1.7c5,0,10,0,15,0c0,0.6-0.1,1.1-0.1,1.7c-4.9,0-9.8,0-14.6,0c-1.1,4.4,1.1,4.9,4.1,4.9
		c15.6,0,31.2-0.1,46.8,0.3c4.3,0.1,8.7,1.8,12.9,3c0.7,0.2,1,1.9,1.3,3c0.5,1.5,0.6,4.3,1.2,4.5c1.9,0.4,4.1-0.2,6.1-0.5
		c0-0.5-0.1-1.1-0.1-1.6c-1.8-0.4-3.5-0.7-6-1.2c1.2-2.9,2.2-5.5,3.1-7.8c0.9,0.3,2,1,3,1c17.6,0.1,35.2,0.2,52.8,0.3
		c6.3,0,7,0.6,6.9,7.3c-0.2,8.9-0.9,17.8-0.7,26.7c0.2,14.3,1,28.6,1.6,42.9c0.4,9.9,1.1,19.7,1.4,29.6c0.3,8,0.5,15.9,0.6,23.9h3.6
		C374,499.1,374.3,477.4,374.6,455.6z"/>
	<path id="XMLID_164_" class="st1" d="M439.8,411.4c0.1-0.9,0.2-1.8,0.3-2.7C439.8,409.8,439.7,410.6,439.8,411.4z"/>
	<path id="XMLID_100_" class="st1" d="M587.1,481.5c0,2.7-1.6,3.7-3.7,3.7c-2.1,0-3.7-1.1-3.6-3.8c0.2-9,0.2-18.1,0.3-27.1
		c0-3.3,0-6.7,0-10c-0.3,0-0.6,0-0.9,0c0,11.5,0,23,0,34.5c-0.5,0.1-1,0.2-1.5,0.3c-1.2-4.6-3.3-9.1-3.5-13.7
		c-0.5-12.2-0.1-24.4,0-36.6c0-7.3,0-7.3-7.4-6.7c-0.7,0.1-1.5-0.3-2.3-0.5c0.3,0.4,0.6,0.7,0.9,1.1c-2.6,2.5-4.8,5.8-7.8,7.1
		c-2.7,1.2-6.4,0.3-9.7,0.5c-2.8,0.1-4.2-0.7-3.9-3.9c0.1-1.3-0.4-3.4-1.3-4.1c-3.1-2-9.2,0.9-9.2,4.6c0.1,4.1-2,4.3-5.1,4.3
		c-18-0.1-36,0-54.1-0.1c-1.2,0-2.5-0.3-3.6-0.9c-8.1-3.8-16-8-24.2-11.6c-3.8-1.6-6.7-3.4-6.8-7.1c-0.1,1.1-0.2,2.2-0.3,3.4
		c-6.8-3-12.9-5.8-19.9-9c0,10.5,0.2,20.3-0.1,30.2c-0.1,3.6,1,4.5,4.3,4.5c21.3,0.5,42.7,1.2,64,1.8c4.1,0.1,8.2-0.2,12.2,0.4
		c5.2,0.7,10.2,2.2,15.3,3.2c6.3,1.3,12.2,8.4,12.2,15c0,16.2-0.2,32.5,0,48.7c0.1,3.8,0.9,7.5,1.6,11.3h58.9c0-17.6,0-35.1,0-52.7
		C587.6,472.6,587.2,477.1,587.1,481.5z"/>
	<path id="XMLID_131_" class="st1" d="M187.3,519.4c0.7-37.5,1.3-75.3,2-113.9c-13.3,6.1-25.6,11.9-38,17.5c-5.3,2.4-10.5,5-16,6.5
		c-3.7,1-7.9,0.4-11.9,0.1c-4.3-0.4-9.1,1.8-12.9-2.2c-0.4-0.4-1.8,0.3-2.7,0.5c-2.4,0.5-4.8,1.5-7.2,1.6c-6,0.2-11.9,0-17.9,0
		c-3,0-5.3,0.2-5.7-4.2c-0.2-1.6-4.3-3.4-6.9-4.1c-3-0.8-2.6,2.1-2.6,4.1c0,4.9-3.8,3.2-6.3,3.5c-2.6,0.3-5.2,0.1-5.1-3.8
		c0.1-7.6,0-15.2,0-22.7c-0.2,0-0.5,0-0.7,0c0,8.7,0,17.4,0,26.9c-2.2-0.5-4.4-0.3-5.1-1.3c-1.4-1.8-1.9-4.4-2.7-6.2
		c-0.5,3.5-2.5,1.4-4.3,0.5c-3.8-1.8-7.2-1.3-7.3,1.4c-0.2,5.3-0.1,10.6-0.1,16.4c4-2.1,4.2,0.2,4.2,2.8c0,6.9,0,13.7,0.1,20.6
		c0,1.3,0.3,2.6,0.4,3.9c0.6,0,1.2,0,1.8,0c0-6.5,0-13,0-19.4c7.9,0.6,10.8,6.3,14.7,10.6c0.9,1,1.2,2.9,1.2,4.3
		c0.1,4-0.5,8.1,0.1,12c1.3,8.4,2.2,16.8,0.2,25.2c-0.1,0.5,0,1.1,0.1,1.7c0.9,6.5,1.9,12.9,2.8,19.4h128.7
		C189.3,520.4,188.3,519.9,187.3,519.4z"/>
	<path id="XMLID_137_" class="st1" d="M35,503c0.1-3.2,1.3-6.4,2.4-9.4c1.2-3.2,0.7-4.4-2.8-4.7c-2.2-0.2-4.4-0.3-6.6-0.5
		c-0.2-0.5-0.4-1-0.6-1.4c1.4-1,2.7-2.7,4.3-2.9c2.4-0.4,3.2-1.4,3.3-3.5c0.1-1.4,0.3-2.9,0.4-4.3c0.1-1.4,0-2.8,0-4.1
		c-0.9,6.6-2.2,7.4-8.1,4.8c-2.1-0.9-4.2-1.8-6.3-2.7c0,8.1,0,16.1,0,24.2c0.6,0.3,1.2,0.7,1.8,0.7c1.1,0.1,2.2-0.3,3.2-0.1
		c0.3,0,0.8,1.6,0.6,1.7c-0.9,0.8-1.9,1.4-3,1.8c-0.8,0.3-1.7,0.1-2.5,0.2c0,6.1,0,12.1,0,18.2h13.3C34.6,514.9,34.8,508.9,35,503z"
		/>
	<path id="XMLID_151_" class="st1" d="M183.7,520.7c-0.8-5.2-2.1-9.5-2.1-13.8c-0.2-20.7,0-41.3-0.1-62c0-5.3-0.6-6-6-5.9
		c-9.6,0.2-19.3,0.5-28.9,0.8c-7.1,0.3-14.2,0.4-21.2,1.1c-9.4,0.9-18.8,2.9-28.2,3c-7.9,0.1-15.8-0.7-23.6,1.3
		c-0.2,0-0.5-0.3-1-0.6c-0.3-3-0.5-6.2-0.8-9.5c-1.7,0.7-3,1.2-4.3,1.7c-0.3,7.3-0.9,14.8-1,22.2c-0.4,20.7-0.6,41.4-0.9,62.1h117.8
		C183.5,520.8,183.6,520.7,183.7,520.7z"/>
	<path id="XMLID_165_" class="st1" d="M366.3,379.8c-0.4,0-0.7,0-1.1,0c-0.1-0.5-0.4-0.9-0.3-1.4c0-0.1,0-0.2,0-0.3h-31.2
		c-0.3,2.1-1.3,1.9-6.9,2.2c-3.4,0.2-6.8,0-10.2,0c-2.2,0-4.4,0-6.6,0c0.4,1,0.8,1.3,1.1,1.3c18.7,0,37.4,0.1,56.1-0.1
		c3.5,0,5.3-1.1,6-3.5h-6.9C366.5,378.6,366.4,379.2,366.3,379.8z"/>
	<path id="XMLID_186_" class="st1" d="M373.8,373.4c-2.2,0-4.4,0-6.8,0c-0.2,1.7-0.4,3.2-0.5,4.6h6.9
		C373.8,376.8,373.9,375.3,373.8,373.4z"/>
	<path id="XMLID_155_" class="st1" d="M77.8,433.1c0,0.3,0.1,0.5,0.1,0.8c34.7,0,69.5,0,104.2,0c0-0.3,0-0.5,0-0.8
		C147.3,433.1,112.6,433.1,77.8,433.1z"/>
	<path id="XMLID_154_" class="st1" d="M252.3,383.6c14.7,2.2,29.5,1.8,44.3,0.7C281.9,382.5,267.1,382.6,252.3,383.6z"/>
	<path id="XMLID_153_" class="st1" d="M507.2,435.6c0-0.2,0.1-0.3,0.1-0.5c-28.3,0-56.6,0-84.9,0c0,0.2,0,0.3,0,0.5
		C450.7,435.6,478.9,435.6,507.2,435.6z"/>
	<path id="XMLID_152_" class="st1" d="M200.2,381.5c0,0.3,0,0.6,0,0.8c8.2,0,16.4,0,24.7,0c0-0.3,0-0.6,0-0.8
		C216.6,381.5,208.4,381.5,200.2,381.5z"/>
	<path id="XMLID_148_" class="st1" d="M429.9,431.4c0,0.2,0,0.4,0,0.5c6,0,12,0,17.9,0c0-0.2,0-0.4,0-0.5
		C441.9,431.4,435.9,431.4,429.9,431.4z"/>
	<path id="XMLID_145_" class="st0" d="M21.2,498.4c0.6,0.3,1.2,0.7,1.8,0.7c1.1,0.1,2.2-0.3,3.2-0.1c0.3,0,0.8,1.6,0.6,1.7
		c-0.9,0.8-1.9,1.4-3,1.8c-0.8,0.3-1.7,0.1-2.5,0.2C21.2,501.3,21.2,499.9,21.2,498.4z"/>
	<path id="XMLID_193_" class="st1" d="M397.8,170.7c-15.7,0.4-31.4,0.5-47.2,0.6c-12.3,0.1-24.7,0.1-37,0c-1,0-2.8-1.3-2.8-1.8
		c0.1-2,0.3-4.6,1.6-5.7c4.9-4.3,1.3-6.2-1.5-8.1c0-4.9,0.2-9.3,0-13.8c-0.2-4.9-1.2-9.8-1.3-14.7c-0.2-12-0.1-24-0.1-36
		c-0.3,3.2-0.2,6.3-0.3,9.5c-0.7,15.7-1.1,31.4-2.3,47.1c-0.2,3.3,1.6,8-3.3,10.2c-0.5,0.2-0.2,2.8,0.1,4.2c0.7,2.9,1.7,5.7,2.9,9.2
		c-39.9-0.3-78.9,1.3-119.2-1.5c5.3,23.8,12.8,45.6,18.7,67.8c0.4-0.1,0.8-0.1,1.2-0.2c0-15,0-30,0-45c0.4,0,0.7,0,1.1,0
		c0,11.4,0,22.8,0,34.2c3.1,0.1,5.7,0.3,8.3,0.4c0,0.4-0.1,0.9-0.1,1.3c-1.9-0.1-3.9-0.4-5.8-0.3c-1,0.1-2.8,1-2.8,1.6
		c-0.2,5-0.8,10.1,0.1,15c1.3,6.7,3.7,13.2,5.6,19.8c0.4,1.2,0.9,2.4,1.5,3.5c1.6,2.8,3.7,5.3,4.7,8.3c1.9,5.3,3.2,10.7,4.5,16.2
		c0.4,1.5-0.2,3.3-0.5,4.8c-1.2,5.6-4.4,10.8-2.2,17c1.1,3.3,0.8,7,1,10.6c0,0.7-0.3,1.3-0.3,2c0,7.7,0,15.4,0,23.1h3.3
		c-0.4-5-0.7-10-0.7-14.9c0-8.2,1.1-16.4,1.3-24.6c0.2-7-0.4-14-0.5-21c0-10.5,0.1-21,0.3-31.5c0.1-3,1.1-5.2,4.8-5.2
		c3.6,0,4.3,2,4.2,4.9c-0.1,1.4,0,2.8,0,4.2c0.6-2,0.7-4,0.5-6c-0.3-3.9,1.4-5.7,5.3-5.1c3.2,0.5,6.4,1.9,9.7,1.9
		c36-0.1,72.1-0.3,108.1-0.6c8.1-0.1,8.1-0.2,8.5,8.1c0,0.6,0.2,1.3,0.4,2.6c0.4-4.4,0.7-8.1,1.1-11.8c0.4,0,0.8,0.1,1.2,0.1
		c0.3,3.4,0.7,6.7,1.1,11.1c0.3-4.1,0.6-7.2,0.8-10.4c0.4,0,0.7,0,1.1,0c0.3,3.1,0.7,6.2,1,9.2c0.1,0,0.3,0,0.4-0.1
		c0.3-3.2,0.6-6.4,0.9-9.6c0.3,0,0.7,0.1,1,0.1c0.3,3.3,0.5,6.5,0.8,9.8c0.1,0,0.3,0,0.4,0c0.3-3.3,0.6-6.5,0.9-9.7
		c1.9,0.4,3.6,1,5.3,1c3.1,0,4.8,1.6,5.6,4.3c0.7,2.6,1.2,5.2,1.6,7.8c0.3,2.2,0.4,4.4,0.7,6.9c-4.1,2.8-5.1,22.8-0.7,26.3
		c0.7-2.4,1.4-4.7,1.9-7.1c2-10.1,5-19.8,12.1-27.4c-0.2,2.4-0.7,5.3-0.7,8.1c-0.3,24-0.5,48-0.8,72c0,3.7-0.6,7.3-0.6,11
		c-0.1,5.5,0,11,0,16.5c0.9-9.8,0.7-19.6,0.9-29.3c0.4-21,1.2-41.9,1.6-62.9c0.2-13.2,0-26.4,0-39.4c-5.3,0-9.6,0-14,0
		c-46.8,0.1-93.7,0.2-140.5,0.3c-11.4,0-22.9,0-34.3-0.3c-1.7-0.1-3.3-2.3-5-3.5c1.6-0.7,3.1-2,4.7-2c19.5-0.1,39-0.1,58.5-0.1
		c-4-0.4-8-0.4-11.9-0.4c-4.1,0-8.2-0.1-12.4-0.1c-4,0-8,0-11.9,0c-3.8-0.1-7.6-0.2-11.4-0.4c0-0.4,0.1-0.8,0.1-1.3
		c4.3-0.5,8.6-1.4,12.9-1.4c23.1,0,46.2,0.1,69.4,0.3c30.2,0.2,60.5,0.5,90.7,0.8c0.7,0,1.5,0.2,2.1,0c0.9-0.4,1.6-1.1,2.4-1.7
		c-0.8-0.5-1.5-1.1-2.3-1.3c-1.1-0.2-2.3-0.1-3.4-0.1c1.9-1.4,4.9-1.4,5.6-2.7c1-2,0.4-4.7,0.4-7.2c0-6.2,0-12.3,0-18.5
		c0.3,0,0.7,0,1,0c0,17.9,0,35.7,0,53.9c0.4-0.7,0.6-1.1,0.7-1.4c7-25.6,14.1-51.2,21-76.8c0.5-2,0.3-4.1,0.5-6.2
		C417.4,169.8,407.6,170.4,397.8,170.7z M388.7,228.3c-56.8,0-113.6,0-170.4-0.9c0.5-0.2,0.9-0.5,1.4-0.6c6-0.7,6-0.7,6.2-7
		c0.1-1.9,0.3-3.7,0.3-5.6c0-3.6,1.6-5.2,5.2-5.2c4.1,0,2.8,3.1,3.2,5.2c0.1,0.5,0,1.1,0.1,1.7c0.4-4.2-1.3-9.4,5.3-10.4
		c0.2,0.2,0.7,0.9,1.3,1.7c0.7-1.2,1.2-2.2,1.9-3.6c1.7,3.2,2.5,1.2,3.1,0.8c1.8,0.6,3.6,1.6,5.4,1.6c6.3,0.2,6.1,0.1,7.8,6.2
		c0.4,1.3,2.6,2.6,4.2,2.9c3.9,0.7,8.1,2.1,10.9-0.5c4.6,0.4,8.7,1,12.9,1.1c6.2,0.1,12.3-0.3,18.5-0.3c13.2,0,26.4,0.1,39.7,0.2
		c3.8,0,7.6,0,11.6,0c0.5-4.2,1.3-7.4,6.3-7.1c6.1,0.4,2.8,5.5,5.3,8.1c0-2.5-0.6-5.1,0.2-7.4c0.6-1.8,2.7-3.2,4.6-5.2
		c0.9,2,1.4,3,2,4.3c0.5-1.7,0.9-2.9,1.4-4.4c0.8,1,1.4,1.7,2.3,3c0.5-1.5,0.9-2.5,1-2.8c3.2,1,6.4,2,9.8,3
		c0.7,6.1,1.4,12.2,2.1,18.6c1,0.2,2.3,0.4,3.5,0.7c0,0.3,0,0.6,0,0.9C393.3,227.8,391,228.3,388.7,228.3z M234.6,185.7
		c3.4,0,6.8,0,10.2,0c0,0.3,0,0.7,0,1c-3.4,0-6.7,0-10.1,0C234.6,186.4,234.6,186,234.6,185.7z M215.9,175.8c0-0.4,0-0.7,0-1.1
		c67.8,0,135.6,0,203.4,0c0,0.4,0,0.7,0.1,1.1C351.5,175.8,283.7,175.8,215.9,175.8z"/>
	<path id="XMLID_140_" class="st1" d="M255.6,349.7c0,0.1-0.1,0.2-0.1,0.2h0.3C255.7,349.9,255.7,349.8,255.6,349.7z"/>
	<path id="XMLID_141_" class="st1" d="M235.1,326.3c0.1-2.5,1.2-3.7,3.7-3.6c2.5,0.1,5,0,7.5,0c0-0.5,0-0.9,0-1.4
		c-2.5-0.2-4.9-0.4-7.4-0.4c-2.7,0-3.9-1.3-3.8-3.9c0.1-1.4,0.2-2.9,0.2-4.3c0.1-3,1.5-3.7,4.3-2.7c0.3,2.3,0.6,4.6,0.8,6.8
		c0.5-0.5,0.7-0.9,0.7-1.3c0-3.6-1-7.9,5.3-6c0.5,0.2,2.1-1.5,2.2-2.5c0.1-0.8-1.1-2.3-1.9-2.5c-1.8-0.4-3.7-0.1-5.5-0.2
		c-8.3-0.1-8.3-0.1-8.4-8.3c0-0.3-0.4-0.6-1.2-1.8c0,6.8-4.4,12.8,1.4,18.3c0.6,0.6,0.5,2.2,0.5,3.3c0,9.4,0,18.8,0,28.3
		c0,3,0,4.6-0.5,5.8h1.4C234.5,342.1,234.9,334.2,235.1,326.3z"/>
	<path id="XMLID_142_" class="st1" d="M302.9,347.9c0.5,0.9,1,1.6,1.6,2.1h2.6c0.5-0.4,1.1-0.9,1.7-1.8c0.5,0.6,1,1.2,1.5,1.8h1.9
		c0.4-0.5,0.9-1.1,1.5-1.8c-1.8-0.6-3.3-1.1-4.8-1.6c0.1-1.9,0.3-3.7,0.5-6.5c2.3,0.2,4.8-0.2,6.5,0.7c0.9,0.5,0.4,3.5,0.5,6.1
		c2.4,1.3,8.7-2.5,10.6-7.7c-3.2,3.9-5.7,3.2-7.9-2.5c2.6-0.6,2.8-6.1,7.2-3.5c1.9,1.1,2.9,2.4,1.1,4.4c5.8-1.3,7.5-6.1,8.7-11
		c0.7-2.8,0.2-5.9,0.7-8.8c1.3-6.9-0.2-13.3-3.4-19.3c-0.5-0.9-1.9-2.3-2.4-2.1c-2.9,1.1-4-1.1-4.9-2.9c-3.3-6.5-9.2-9.5-15.7-10.2
		c-12.4-1.3-22.6,3.8-29.5,14.1c-7,10.5-8.2,22-2.4,33.7c0,0,0,0,0,0c1.3-3,2-5.9-1.5-8.2c-0.5-0.3-0.3-1.7-0.5-2.7
		c0.9,0,1.8-0.1,2.6,0c1.6,0.2,3.3,0.5,5.2,0.8c1.2,3,3.4,6.2-1.2,8.9c-0.5,0.3-0.5,1.4-0.7,2.1c0.9,0.2,1.8,0.8,2.6,0.6
		c1.1-0.2,2-0.9,3-1.3c7,5.4,7.2,6.1,2.7,10.3c-4-3.5-8.1-7.1-12.1-10.6c0,0,0,0,0,0c0,0,0,0,0-0.1c0,0,0,0-0.1-0.1
		c3.8,5,7.6,10,11.9,15.6c-0.9,0.3-3,0.5-4.1,1.6c-0.5,0.5-1.1,1.1-1.6,1.6h6.9C294.7,348.1,299,348.9,302.9,347.9z"/>
	<path id="XMLID_143_" class="st1" d="M278.5,331.2C278.5,331.2,278.5,331.2,278.5,331.2C278.5,331.2,278.5,331.2,278.5,331.2
		C278.5,331.2,278.5,331.2,278.5,331.2z"/>
	<path id="XMLID_144_" class="st1" d="M311.2,351.1c0.3-0.4,0.6-0.7,1-1.1h-1.9C310.6,350.4,310.9,350.7,311.2,351.1z"/>
	<path id="XMLID_147_" class="st1" d="M307.1,350h-2.6C305.2,350.6,306.1,350.6,307.1,350z"/>
	<path id="XMLID_138_" d="M309.3,335.3c6.4,0.3,12.8-5,15.1-12.4c2.7-8.9-1-18.8-9-23.5c-6.6-3.9-16-2.3-21.5,3.5
		c-6.1,6.5-7.2,17.3-2.5,24.8c3.7,5.9,9.9,9,15.1,7.2c-0.6-4.1-1.3-8.2-1.9-12.3c-0.5-0.5-1.1-0.9-1.6-1.4c-1.7,2.8-3.5,5.6-5.2,8.4
		c-0.5-0.5-1.1-1-1.6-1.4c2.1-2.9,4.7-5.5,6.3-8.6c1.6-3.1,2.4-6.7,3.6-10.5c3.5,4.2,3.5,4.2,2.2,9.2c-0.1,0.5-0.2,1.1-0.1,1.7
		C308.6,325.1,309,330.2,309.3,335.3z"/>
	<path id="XMLID_136_" d="M290.7,291.8c-2.7,3-4.7,5.1-6.6,7.3c1.4,1.3,3.5,3.8,4,3.5c2.1-1.2,4.1-3,5.2-5.1
		C293.7,296.5,292,294.4,290.7,291.8z"/>
	<path id="XMLID_135_" d="M293.7,342.5c0.2,0.6,0.3,1.2,0.5,1.8c2.6,0.9,5.2,1.9,7.8,2.8c-0.7-3.3,1-7.8-3.7-7.6
		C296.7,339.5,295.2,341.4,293.7,342.5z"/>
	<path id="XMLID_134_" d="M330.4,301.4c-2.7-2.9-4.2-4.7-6-6.3c-0.6-0.5-1.9-0.7-2.5-0.4c-0.7,0.4-1.7,2-1.4,2.3
		c1.2,2,2.6,4.1,4.4,5.5C325.6,303.2,327.6,302.1,330.4,301.4z"/>
	<path id="XMLID_133_" d="M333.8,323c-0.6-0.5-1.1-1-1.7-1.4c-1.7,1.5-4.1,2.6-4.7,4.5c-0.4,1.2,1.6,3.3,2.5,5
		c0.5-0.1,0.9-0.3,1.4-0.4C332.2,328.2,333,325.6,333.8,323z"/>
	<path id="XMLID_132_" d="M277.6,312.6c2.1-0.7,4.3-1.2,6.4-2c0.8-0.3,1.6-1.1,1.9-1.9c0.2-0.5-0.3-1.6-0.8-2.1
		c-1.1-0.9-2.5-1.6-4.1-2.6C279.7,307.2,278.6,310,277.6,312.6z"/>
	<path id="XMLID_130_" d="M300.7,288.5c-2.1,0.8-5.5-0.2-4.9,3.7c0.2,1,2.3,2.6,3.3,2.4C303.3,293.9,301.5,291.1,300.7,288.5z"/>
	<path id="XMLID_129_" d="M334.7,311.5c-1.8-2.2-3.2-3.9-4.5-5.6c-0.8,1.1-2.4,2.2-2.3,3.2C328,312.7,330.6,312.6,334.7,311.5z"/>
	<path id="XMLID_128_" d="M312,293c5.2,3.1,5.6,3,6.9-1.6C314.4,288.1,313.9,288.3,312,293z"/>
	<path id="XMLID_127_" class="st1" d="M412.9,454.6c0.4-23,0.8-46,1.1-69c0-4.2,0.8-6.5,5.7-4.5c-0.2-3.4-0.4-6.1-0.5-8.8
		c-6.7-2.4-7,3.6-8.8,6.3c-3.3,0-5.9-0.2-8.5,0c-5.2,0.4-10.3,1-15.5,1.5c-1.3,0.1-2.6,0.4-3.9,0.7c0.1,0.5,0.1,1,0.2,1.6
		c8.2,0,16.3,0,24.5,0c0,0.4,0,0.8,0,1.2c-1.6,0.2-3.2,0.5-4.9,0.5c-5.5,0.1-11.1,0.2-16.6,0.2c-2.6,0-4,0.9-4,3.7
		c0,2.9,1.8,3.1,4,3.3c5.5,0.4,11,1.1,16.5,1.3c2.6,0.1,3.4,1.2,3.4,3.6c0.1,14.8,0.4,29.5,0.3,44.3c-0.1,26.7-2.4,53.5-0.1,80.2
		h5.8C412.1,498.8,412.5,476.7,412.9,454.6z"/>
	<path id="XMLID_288_" class="st2" d="M291.8,437.7c1.4,0.1,2.3,0.2,3.3,0.3c0-0.5,0-1-0.1-1c-2.9-0.4-3.5-2.1-3.4-4.8
		c0.2-8.2,0.3-16.3,0.3-24.5c0-3.1,0.9-4.2,4.3-3.9c5.6,0.5,11.3,0.3,16.9,0.2c2.7,0,3.7,1.3,3.7,4c-0.4,11.8-0.7,23.5-0.9,35.3
		c0,2.7-0.8,3.4-3.5,3.2c-5.1-0.2-10.2,0.1-15.2,0.1c-5.7,0-5.7,0-5.6-6C291.6,439.7,291.7,438.8,291.8,437.7z M299.9,410.7
		c7.4,5.2,9.2,10.3,5.4,14.4c1.4,1.1,2.7,2.2,4.4,3.6c-0.2-4.2-0.7-7.7-0.4-11.2c0.6-6.2-0.3-7.5-6.3-7.3
		C302.2,410.3,301.3,410.5,299.9,410.7z M297.2,433.8c-0.2,4.3,1.4,7,5.7,7.6c4.7,0.6,6.2-2.6,8.3-7.2c-3,0.9-5.3,1.1-7.1,2.1
		C300.7,438.3,298.4,438.6,297.2,433.8z M294,441.1c-0.1,0.6-0.3,1.3-0.4,1.9c2.2,0.3,4.4,0.7,6.7,1c0.1-0.6,0.2-1.1,0.3-1.7
		C298.4,441.9,296.2,441.5,294,441.1z"/>
	<path id="XMLID_121_" class="st2" d="M470.9,493.1c0-6.8-0.1-13,0.1-19.3c0-1,1.7-2.6,2.7-2.7c4.1-0.4,8.2-0.4,12.3-0.2
		c1,0.1,2.7,1.7,2.7,2.7c0.1,5.6,0,11.2-0.4,16.7c-0.1,1-1.5,2.5-2.4,2.6C481.2,493.2,476.6,493.1,470.9,493.1z"/>
	<path id="XMLID_217_" class="st1" d="M386.6,353.7c0,0,0,0.1,0,0.1c0,0,0.1,0,0.1,0C386.7,353.8,386.6,353.7,386.6,353.7z"/>
	<path id="XMLID_118_" class="st1" d="M206.8,358.7c0-36.9,0-73.8,0-110.7c0.3,0,0.6,0,0.9,0c0,36.9,0,73.8,0,110.7
		C207.5,358.7,207.2,358.7,206.8,358.7z"/>
	<path id="XMLID_119_" class="st1" d="M388.3,349.9c0.2-5.6,0-11.2,0.3-16.7c0.1-1.5-1.4-4.6,2.4-3.9c0-0.9,0.2-2-0.1-2.7
		c-0.5-0.9-2.1-1.6-2.1-2.3c0-4.5,0.4-9,0.6-13.5l-0.1,0.1c0-3.9,0-7.8,0-11.7c-0.8,0-1.5,0-2.3,0c0,12.4,0,24.8,0,37.1
		c0,4.6-0.1,9.2-0.2,13.7h1.5C388.2,350,388.2,349.9,388.3,349.9z"/>
	<path id="XMLID_120_" class="st1" d="M386.7,353.8c0-0.1,0-0.2,0-0.3c0,0.1-0.1,0.2-0.1,0.2C386.6,353.7,386.7,353.8,386.7,353.8z"
		/>
	<path id="XMLID_126_" class="st1" d="M388.2,350h-1.5c0,1.2,0,2.3-0.1,3.5C387.3,352.3,388.1,351.2,388.2,350z"/>
	<path id="XMLID_115_" class="st0" d="M327,339.2c-3.2,3.9-5.7,3.2-7.9-2.5c2.6-0.6,2.8-6.1,7.2-3.5c1.9,1.1,2.9,2.4,1.1,4.4
		C327.2,338.2,327.1,338.7,327,339.2z"/>
	<path id="XMLID_109_" d="M402.8,233.7c-18.3,0-36.5,0-54.8,0c0-0.1,0-0.3,0-0.4c18.3,0,36.6,0,54.8,0
		C402.8,233.4,402.8,233.5,402.8,233.7z"/>
	<path id="XMLID_101_" class="st1" d="M389.2,310.8c4.1-1.2,1.8-4.7,2.5-7.2c1.2,4.2,3.4,8.4-0.2,14c-0.9-2.9-1.5-4.9-2.1-6.9
		C389.4,310.7,389.2,310.8,389.2,310.8z"/>
	<path id="XMLID_102_" class="st0" d="M183.7,520.7c-0.8-5.2-2.1-9.5-2.1-13.8c-0.2-20.7,0-41.3-0.1-62c0-5.3-0.6-6-6-5.9
		c-9.6,0.2-19.3,0.5-28.9,0.8c-7.1,0.3-14.2,0.4-21.2,1.1c-9.4,0.9-18.8,2.9-28.2,3c-7.9,0.1-15.8-0.7-23.6,1.3
		c-0.2,0-0.5-0.3-1-0.6c-0.3-3-0.5-6.2-0.8-9.5c-1.7,0.7-3,1.2-4.3,1.7c-0.3,7.3-0.9,14.8-1,22.2c-0.4,20.7-0.6,41.4-0.9,62.1h117.8
		C183.5,520.8,183.6,520.7,183.7,520.7z"/>
	<path id="XMLID_98_" class="st5" d="M118.3,480.4c0,2.6,0.1,5.2,0,7.7c-0.1,2.6,1,3.6,3.5,3.5c3.7-0.1,7.4-0.1,11.1,0
		c2.5,0.1,3.6-0.9,3.5-3.5c-0.1-4.2,0-8.3,0.1-12.5c0.1-6.5,0.1-6.5-6.3-6.7C118.5,468.9,118.5,468.9,118.3,480.4z"/>
	<path id="XMLID_85_" class="st0" d="M116.5,493.6c0,0.3,0,0.6,0,0.9c7,0,14.1,0,21.1,0c0-0.3,0-0.6,0-0.9
		C130.6,493.6,123.6,493.6,116.5,493.6z"/>
	<path id="XMLID_170_" class="st0" d="M556.3,520.8c0.2-4.3,0.1-8.6,0.7-12.8c0.3-2.4,3.8-3,4.8-0.8c0.9,2,1.1,4.9,0.4,7
		c-0.9,2.5-3.1,4.6-4.7,6.8h12.5c2.3-2.6,3.5-6,3-10.6c-0.8-7.7,0-15.5-0.2-23.2c-0.1-2.5-1.1-4.9-1.7-7.3
		c-1.1-4.1-2.5-8.2-3.6-12.3c-1.4-5.6-2.4-11.4-4-16.9c-0.5-1.7-2.4-3.6-4-4.1c-3.6-1.1-3.5-3.4-3.4-6.3c0-2.1-0.7-4.3-1.1-6.5
		c-0.6,0-1.2,0-1.9,0c-0.5,1.8-1.5,3.5-1.5,5.3c-0.6,22.8-1.1,45.6-1.5,68.4c-0.1,4.5-0.2,9-0.3,13.5h7.7
		C557,520.9,556.6,520.8,556.3,520.8z"/>
	<path id="XMLID_77_" class="st0" d="M307.3,380.1c1.3,2.4,3.4,2.9,6,2.9c16.9,0,33.7,0.2,50.6,0.4c1.9,0,3.7,0.3,5.6,1.4
		c-23,0-46,3.1-69.3-2.2c2-3.2,4.7-2.7,7.3-2.4C307.4,380.2,307.3,380.1,307.3,380.1z"/>
	<path id="XMLID_75_" class="st0" d="M77.8,433.1c34.8,0,69.5,0,104.3,0c0,0.3,0,0.5,0,0.8c-34.7,0-69.5,0-104.2,0
		C77.9,433.6,77.8,433.3,77.8,433.1z"/>
	<path id="XMLID_74_" class="st0" d="M252.3,383.6c14.8-0.9,29.6-1.1,44.3,0.7C281.8,385.3,267.1,385.8,252.3,383.6z"/>
	<path id="XMLID_73_" class="st0" d="M507.2,435.6c-28.3,0-56.6,0-84.8,0c0-0.2,0-0.3,0-0.5c28.3,0,56.6,0,84.9,0
		C507.3,435.3,507.3,435.4,507.2,435.6z"/>
	<path id="XMLID_72_" class="st0" d="M200.2,381.5c8.2,0,16.4,0,24.6,0c0,0.3,0,0.6,0,0.8c-8.2,0-16.4,0-24.7,0
		C200.1,382,200.1,381.7,200.2,381.5z"/>
	<path id="XMLID_67_" class="st0" d="M573.5,488.1c4.7-0.2,4.9-0.1,6.5,3.4c-4.8,1.7-6.6,0.7-6.3-3.5
		C573.6,488,573.5,488.1,573.5,488.1z"/>
	<path id="XMLID_65_" class="st0" d="M429.9,431.4c6,0,12,0,17.9,0c0,0.2,0,0.4,0,0.5c-6,0-12,0-17.9,0
		C429.9,431.8,429.9,431.6,429.9,431.4z"/>
	<path id="XMLID_63_" class="st0" d="M274.5,214.7c4.6,0.4,8.7,1,12.9,1.1c6.2,0.1,12.3-0.3,18.5-0.3c13.2,0,26.4,0.1,39.7,0.2
		c3.8,0,7.6,0,11.6,0c0.5-4.2,1.3-7.4,6.3-7.1c6.1,0.4,2.8,5.5,5.3,8.1c0-2.5-0.6-5.1,0.2-7.4c0.6-1.8,2.7-3.2,4.6-5.2
		c0.9,2,1.4,3,2,4.3c0.5-1.7,0.9-2.9,1.4-4.4c0.8,1,1.4,1.7,2.3,3c0.5-1.5,0.9-2.5,1-2.8c3.2,1,6.4,2,9.8,3
		c0.7,6.1,1.4,12.2,2.1,18.6c1,0.2,2.3,0.4,3.5,0.7c0,0.3,0,0.6,0,0.9c-2.3,0.2-4.6,0.7-6.9,0.7c-56.8,0-113.6,0-170.4-0.9
		c0.5-0.2,0.9-0.5,1.4-0.6c6-0.7,6-0.7,6.2-7c0.1-1.9,0.3-3.7,0.3-5.6c0-3.6,1.6-5.2,5.2-5.2c4.1,0,2.8,3.1,3.2,5.2
		c0.1,0.5,0,1.1,0.1,1.7c0.4-4.2-1.3-9.4,5.3-10.4c0.2,0.2,0.7,0.9,1.3,1.7c0.7-1.2,1.2-2.2,1.9-3.6c1.7,3.2,2.5,1.2,3.1,0.8
		c1.8,0.6,3.6,1.6,5.4,1.6c6.3,0.2,6.1,0.1,7.8,6.2c0.4,1.3,2.6,2.6,4.2,2.9C267.5,215.9,271.7,217.4,274.5,214.7z"/>
	<path id="XMLID_60_" class="st0" d="M419.3,175.8c-67.8,0-135.6,0-203.4,0c0-0.4,0-0.7,0-1.1c67.8,0,135.6,0,203.4,0
		C419.3,175,419.3,175.4,419.3,175.8z"/>
	<path id="XMLID_58_" class="st0" d="M234.6,185.7c3.4,0,6.8,0,10.2,0c0,0.3,0,0.7,0,1c-3.4,0-6.7,0-10.1,0
		C234.6,186.4,234.6,186,234.6,185.7z"/>
	<path id="XMLID_225_" class="st0" d="M309.3,335.3c-0.4-5.1-0.7-10.2-1.1-15.3c0-0.6,0-1.2,0.1-1.7c1.3-5,1.3-5-2.2-9.2
		c-1.2,3.7-2,7.3-3.6,10.5c-1.6,3.1-4.2,5.8-6.3,8.6c0.5,0.5,1.1,1,1.6,1.4c1.7-2.8,3.5-5.6,5.2-8.4c0.5,0.5,1.1,0.9,1.6,1.4
		c0.6,4.1,1.3,8.3,1.9,12.3c-5.2,1.7-11.4-1.4-15.1-7.2c-4.7-7.4-3.6-18.2,2.5-24.8c5.5-5.8,14.9-7.4,21.5-3.5
		c7.9,4.6,11.7,14.5,9,23.5C322.1,330.3,315.7,335.6,309.3,335.3z M307.6,308c0,0.1,0,0.2,0,0.3c2.4,0,4.8,0.2,7.2-0.1
		c0.9-0.1,1.8-1.3,2.6-2.1c-0.7-0.7-1.5-2-2.3-2c-5.1-0.3-10.2-0.3-15.3-0.2c-0.8,0-1.6,1.2-2.4,1.9c0.8,0.8,1.6,2.1,2.5,2.2
		C302.5,308.2,305.1,308,307.6,308z"/>
	<path id="XMLID_51_" class="st0" d="M278.5,331.2c1.3-3.1,2.1-5.9-1.5-8.2c-0.5-0.3-0.3-1.7-0.5-2.7c0.9,0,1.8-0.1,2.6,0
		c1.6,0.2,3.3,0.5,5.2,0.8c1.2,3,3.4,6.2-1.2,8.9c-0.5,0.3-0.5,1.4-0.7,2.1c0.9,0.2,1.8,0.8,2.6,0.6c1.1-0.2,2-0.9,3-1.3
		c7,5.4,7.2,6.1,2.7,10.3c-4.1-3.6-8.2-7.1-12.3-10.7C278.4,331.1,278.5,331.2,278.5,331.2z"/>
	<path id="XMLID_46_" class="st0" d="M290.7,291.8c1.3,2.7,3,4.8,2.5,5.7c-1.1,2.1-3.1,3.9-5.2,5.1c-0.5,0.3-2.6-2.3-4-3.5
		C286.1,296.9,288,294.8,290.7,291.8z"/>
	<path id="XMLID_45_" class="st0" d="M293.7,342.5c1.5-1.1,3-3,4.6-3.1c4.7-0.1,3,4.3,3.7,7.6c-2.6-0.9-5.2-1.9-7.8-2.8
		C294,343.6,293.9,343.1,293.7,342.5z"/>
	<path id="XMLID_44_" class="st0" d="M330.4,301.4c-2.7,0.6-4.7,1.7-5.5,1.1c-1.8-1.4-3.2-3.5-4.4-5.5c-0.2-0.4,0.7-1.9,1.4-2.3
		c0.6-0.3,2-0.1,2.5,0.4C326.1,296.7,327.7,298.6,330.4,301.4z"/>
	<path id="XMLID_43_" class="st0" d="M333.8,323c-0.8,2.6-1.6,5.1-2.4,7.7c-0.5,0.1-0.9,0.3-1.4,0.4c-0.9-1.7-3-3.9-2.5-5
		c0.7-1.8,3.1-3,4.7-4.5C332.7,322.1,333.3,322.6,333.8,323z"/>
	<path id="XMLID_42_" class="st0" d="M277.6,312.6c1-2.5,2.1-5.3,3.4-8.6c1.5,0.9,2.9,1.6,4.1,2.6c0.5,0.4,1,1.5,0.8,2.1
		c-0.3,0.8-1.1,1.6-1.9,1.9C281.9,311.3,279.7,311.9,277.6,312.6z"/>
	<path id="XMLID_40_" class="st0" d="M300.7,288.5c0.7,2.6,2.6,5.4-1.5,6.2c-1,0.2-3.2-1.4-3.3-2.4
		C295.2,288.3,298.6,289.3,300.7,288.5z"/>
	<path id="XMLID_39_" class="st0" d="M334.7,311.5c-4.1,1.1-6.7,1.2-6.9-2.4c-0.1-1,1.5-2.1,2.3-3.2
		C331.5,307.6,332.9,309.3,334.7,311.5z"/>
	<path id="XMLID_38_" class="st0" d="M312,293c1.8-4.8,2.3-4.9,6.9-1.6C317.6,296,317.2,296.1,312,293z"/>
	<path id="XMLID_36_" class="st0" d="M299.9,410.7c1.5-0.2,2.3-0.4,3.1-0.5c6-0.2,6.8,1.1,6.3,7.3c-0.3,3.5,0.2,7,0.4,11.2
		c-1.7-1.4-3.1-2.5-4.4-3.6C309.1,421.1,307.2,415.9,299.9,410.7z"/>
	<path id="XMLID_35_" class="st0" d="M297.2,433.8c1.2,4.8,3.5,4.5,6.9,2.5c1.8-1.1,4-1.3,7.1-2.1c-2.1,4.6-3.6,7.9-8.3,7.2
		C298.6,440.8,297,438.1,297.2,433.8z"/>
	<path id="XMLID_34_" class="st0" d="M294,441.1c2.2,0.4,4.4,0.8,6.5,1.3c-0.1,0.6-0.2,1.1-0.3,1.7c-2.2-0.3-4.4-0.7-6.7-1
		C293.7,442.4,293.9,441.7,294,441.1z"/>
	<path id="XMLID_32_" class="st2" d="M118.3,480.4c0.3-11.5,0.3-11.5,11.8-11.3c6.4,0.1,6.4,0.1,6.3,6.7c-0.1,4.2-0.2,8.3-0.1,12.5
		c0.1,2.6-1,3.6-3.5,3.5c-3.7-0.1-7.4-0.1-11.1,0c-2.5,0.1-3.7-0.9-3.5-3.5C118.4,485.6,118.3,483,118.3,480.4z"/>
	<path id="XMLID_18_" class="st1" d="M307.6,308c-2.5,0-5.1,0.2-7.6-0.1c-0.9-0.1-1.7-1.4-2.5-2.2c0.8-0.7,1.6-1.8,2.4-1.9
		c5.1-0.1,10.2,0,15.3,0.2c0.8,0,1.5,1.3,2.3,2c-0.9,0.7-1.7,1.9-2.6,2.1c-2.4,0.3-4.8,0.1-7.2,0.1
		C307.6,308.2,307.6,308.1,307.6,308z"/>
	<polyline id="XMLID_17_" points="293.7,347.1 290.3,346.7 297.2,348.6 	"/>
	<polygon id="XMLID_47_" class="st0" points="298.1,348.1 287.4,346.8 283.1,350 293.8,350 	"/>
	<polygon id="XMLID_222_" class="st0" points="286.7,353.2 293.8,350 283.1,350 280.6,351.9 	"/>
</g>
</svg>
