<svg xmlns="http://www.w3.org/2000/svg" viewBox="0 0 384.8 442.1">
  <path fill="#6e86b3" d="M6.7 113.1L192.3 5.9l185.5 107.2v214.3L192.3 434.5 6.7 327.4"/>
  <circle cx="706.5" cy="231.4" r=".5" fill="none" transform="translate(-512.6 -9.5)"/>
  <path fill="#e0ebea" d="M123.5 115.1c.8 0 1.4-.6 1.4-1.4v-7.1l5.8 7.6c.4.5.8.9 1.5.9h.1c.8 0 1.5-.6 1.5-1.5v-10.5c0-.8-.6-1.4-1.4-1.4-.8 0-1.4.6-1.4 1.4v6.8l-5.6-7.4c-.4-.5-.8-.9-1.5-.9h-.3c-.8 0-1.5.6-1.5 1.5v10.5c0 .9.6 1.5 1.4 1.5zm19.9.1c4.1 0 7.1-3.1 7.1-6.8 0-3.8-2.9-6.8-7-6.8s-7.1 3.1-7.1 6.8c0 3.8 2.9 6.8 7 6.8zm-3.9-6.8c0-2.3 1.6-4.1 4-4.1 2.3 0 4 1.9 4 4.2 0 2.3-1.6 4.1-4 4.1-2.4-.1-4-1.9-4-4.2zm15 6.6h3.7c4.2 0 7-2.9 7-6.6 0-3.7-2.9-6.6-7-6.6h-3.7c-.8 0-1.5.6-1.5 1.5v10.2c.1.9.7 1.5 1.5 1.5zm1.5-10.6h2.2c2.4 0 4 1.6 4 4 0 2.3-1.6 4-4 4H156v-8zm13.3 10.6h7.4c.7 0 1.3-.6 1.3-1.3 0-.7-.6-1.3-1.3-1.3h-6v-2.8h5c.7 0 1.3-.6 1.3-1.3 0-.7-.6-1.3-1.3-1.3h-5v-2.7h5.9c.7 0 1.3-.6 1.3-1.3 0-.7-.6-1.3-1.3-1.3h-7.3c-.8 0-1.5.6-1.5 1.5v10.3c.1.9.7 1.5 1.5 1.5zm11-1.4c1.5 1.1 3.2 1.6 5 1.6 2.9 0 4.9-1.5 4.9-4.1 0-2.3-1.5-3.3-4.2-4-2.3-.6-2.9-.9-2.9-1.7 0-.6.6-1.2 1.7-1.2.9 0 1.8.3 2.8.9.2.1.5.2.7.2.8 0 1.4-.6 1.4-1.3 0-.6-.3-1-.6-1.2-1.2-.8-2.6-1.2-4.2-1.2-2.7 0-4.6 1.6-4.6 4 0 2.6 1.7 3.4 4.4 4 2.2.6 2.7.9 2.7 1.7 0 .8-.7 1.2-1.9 1.2-1.3 0-2.4-.5-3.4-1.2-.2-.1-.5-.3-.8-.3-.8 0-1.4.6-1.4 1.3-.2.7.1 1.1.4 1.3zm18.5 1.6c2.1 0 3.5-.6 4.7-1.7.3-.2.5-.6.5-1 0-.7-.6-1.3-1.4-1.3-.3 0-.6.1-.9.3-.8.7-1.6 1-2.9 1-2.3 0-3.8-1.9-3.8-4.2 0-2.3 1.6-4.1 3.8-4.1 1 0 1.9.3 2.7.9.2.1.5.3.9.3.8 0 1.4-.6 1.4-1.4 0-.5-.3-.9-.6-1.2-1.1-.8-2.4-1.3-4.4-1.3-4.1 0-6.9 3.1-6.9 6.8.2 3.9 3.1 6.9 6.9 6.9zm9.3-.1c.8 0 1.5-.6 1.5-1.5v-4h5.4v4c0 .8.6 1.5 1.5 1.5.8 0 1.5-.6 1.5-1.5v-10.5c0-.8-.6-1.5-1.5-1.5-.8 0-1.5.6-1.5 1.5v3.9h-5.4v-3.9c0-.8-.6-1.5-1.5-1.5-.8 0-1.5.6-1.5 1.5v10.5c0 .9.6 1.5 1.5 1.5zm19.3.1c4.1 0 7-3.1 7-6.8 0-3.8-2.9-6.8-7-6.8s-7.1 3.1-7.1 6.8c.1 3.8 3 6.8 7.1 6.8zm-4-6.8c0-2.3 1.6-4.1 4-4.1 2.3 0 4 1.9 4 4.2 0 2.3-1.6 4.1-4 4.1-2.3-.1-4-1.9-4-4.2zm20.1 6.8c4.1 0 7.1-3.1 7.1-6.8 0-3.8-2.9-6.8-7-6.8s-7.1 3.1-7.1 6.8c0 3.8 2.9 6.8 7 6.8zm-4-6.8c0-2.3 1.6-4.1 4-4.1 2.3 0 4 1.9 4 4.2 0 2.3-1.6 4.1-4 4.1-2.3-.1-4-1.9-4-4.2zm15.1 6.6h6.8c.7 0 1.3-.6 1.3-1.3 0-.7-.6-1.3-1.3-1.3H256v-9.2c0-.8-.6-1.5-1.5-1.5-.8 0-1.5.6-1.5 1.5v10.3c.1.9.8 1.5 1.6 1.5z"/>
  <path fill="#0073d2" d="M123.8028 200.0057h12.1976v25.6326h-12.1976zm20.5945-.2652h12.1976v25.6326h-12.198z"/>
  <path fill="#745948" d="M138.4285 177.3376h.375v19.25h-13.625V215.4h7.5312v9.2188h14.9375V215.4h7.5313v-18.8124h-13.625v-19.25h.4062c9.746 0 18.8485 5.976 22.0625 11.4062l.0625.0937V324.4h-47.7812V188.8375l.0625-.0937c3.214-5.4302 12.3166-11.4062 22.0625-11.4062z"/>
  <path fill="#0043ab" d="M135.8347 218.3376h8.6875v2.75h2.2188v2.5h1.625v1.7188h-16.3438v-1.7186h1.5938v-2.5h2.2187v-2.75zm2.1875-35.0313h4.3438v12.5h13.625v4.4687h-31.5938v-4.4687h13.625v-12.5z"/>
  <path fill="#0073d2" d="M113.4472 198.45v125.2h2.95v-125.2h-2.95zm50.5678.0532v125.2h2.95v-125.2h-2.95z"/>
  <path d="M138.4285 177.338c-9.746 0-18.8485 5.976-22.0625 11.4063l-.0625.0936v8.937h-3.5625V324.4h54.875V197.775h-3.5313v-8.9375l-.0625-.0938c-3.214-5.4303-12.3166-11.4063-22.0625-11.4063h-.4062v5.9687h-2.75v-5.968zm-.4063.8438v17.625h-13.625v10.5h-7.3125V189.119c2.9787-4.993 11.695-10.7692 20.9375-10.9375zm4.3438 0c9.222.1678 17.9088 5.9204 20.9062 10.9062v17.2188h-7.2812v-10.5h-13.625v-12.5zm-3.5625 5.9374h2.75v12.4688h13.625v2.9063h-30v-2.9063h13.625v-.375zm-25.25 14.4688h2.75v125h-2.75zm50.5312 0h2.75v125h-2.75zm-38.9062 1.6875h10.6562v20.75h-2.25v2.5625h-.875v-8.1875h-7.5312zm11.25 0h7.5v18.0625h-7.5zm8.0937 0h10.6563v15.125h-7.5313v8.1875h-.8437v-2.5625h-2.2813zm-27.4375 6.8438h7.3125v9.0625h7.5v9.25h7v98.1562h-21.8125zm38.9063 0h7.2812V323.588h-21.8125v-98.1563h7v-9.25h7.5313v-.4062zm-19.5625 11.8124h7.5v2.0938h-7.5zm-2.25 2.6875h12.0312v1.9688h-12.0312zm-1.4688 2.5625h14.9375v.4375h-14.9375zm6.6875 1.25h1.5625v98.1563h-1.5625z" style="text-indent:0;text-align:start;line-height:normal;text-transform:none;block-progression:tb;-inkscape-font-specification:Sans" color="#000" overflow="visible" font-family="Sans"/>
  <path fill="#2a4464" d="M68.4446 323.7795h49.6308L68.4446 236.371"/>
  <path fill="#395d8a" d="M117.909 323.2505V236.209l-24.441-46.7255-24.8894 46.982 49.3303 86.7847"/>
  <path fill="#36434c" d="M93.581 188.3522c-.3516.011-.69.2225-.854.5338l-24.8994 47.0234c-.1604.293-.1604.6677 0 .9607l49.7478 87.625h1.5927l.006-88.131c.001-.156-.036-.313-.106-.453l-24.579-47.024c-.172-.327-.538-.542-.907-.533zm0 3.176l23.5918 45.1017v83.104L69.829 236.363z" style="text-indent:0;text-align:start;line-height:normal;text-transform:none;block-progression:tb;-inkscape-font-specification:Sans" color="#000" overflow="visible" font-family="Sans"/>
  <path fill="#28363c" d="M68.422 235.3063c-.4696.0743-.8496.5246-.8438 1-.0574 29.3644.081 58.7294-.003 88.0937h51.4498v-1.2348l-49.572-87.359c-.1983-.355-.6295-.5642-1.0312-.5zm1.1562 4.8125L116.297 322.4H69.578z" style="text-indent:0;text-align:start;line-height:normal;text-transform:none;block-progression:tb;-inkscape-font-specification:Sans" color="#000" overflow="visible" font-family="Sans"/>
  <path fill="#e0ebea" d="M192.3848 43.1875a1.7502 1.7502 0 0 0-.125.0313 1.7502 1.7502 0 0 0-.125.0312 1.7502 1.7502 0 0 0-.0937 0 1.7502 1.7502 0 0 0-.125.0313 1.7502 1.7502 0 0 0-.281.125 1.7502 1.7502 0 0 0-.062.0312 1.7502 1.7502 0 0 0-.125.0625 1.7502 1.7502 0 0 0-.062.0313 1.7502 1.7502 0 0 0-.125.0937l-71.5 41.2188a1.7502 1.7502 0 1 0 1.75 3.0312l63.781-36.75-27.156 34.125a1.7502 1.7502 0 1 0 2.719 2.1875L190.666 50v36.3438a1.7502 1.7502 0 1 0 3.5 0V50l29.7813 37.4375a1.757 1.757 0 1 0 2.75-2.1875L199.541 51.125l63.75 36.75a1.7502 1.7502 0 1 0 1.75-3.0313l-71.5312-41.25a1.7502 1.7502 0 0 0-.0625-.0312 1.7502 1.7502 0 0 0-.0312-.0313l-.093-.0624a1.7502 1.7502 0 0 0-.093-.0626 1.7502 1.7502 0 0 0-.094-.0312 1.7502 1.7502 0 0 0-.062-.0313 1.7502 1.7502 0 0 0-.062-.0312 1.7502 1.7502 0 0 0-.031 0 1.7502 1.7502 0 0 0-.062-.0313 1.7502 1.7502 0 0 0-.343-.0624 1.7502 1.7502 0 0 0-.093 0 1.7502 1.7502 0 0 0-.094-.0313z" style="text-indent:0;text-align:start;line-height:normal;text-transform:none;block-progression:tb;-inkscape-font-specification:Sans" color="#000" overflow="visible" font-family="Sans"/>
  <path fill="#2c576d" d="M261.1258 165.9626a.25.25 0 0 1 .0312 0h4.25a.25.25 0 0 1 .0937.0312l1.875.625a.25.25 0 0 1 .0312 0 .25.25 0 0 1 .062.0625.25.25 0 0 1 .031.0312.25.25 0 0 1 .031.125v1.9375l3.937.9687a.25.25 0 0 1 .062 0 .25.25 0 0 1 .062.0625.25.25 0 0 1 .031.0312.25.25 0 0 1 .031.125v1.625h7.375a.25.25 0 0 1 .062 0 .25.25 0 0 1 .094.0312.25.25 0 0 1 .031.0625.25.25 0 0 1 .031.032.25.25 0 0 1 .031.125v5.75a.25.25 0 0 1 0 .031.25.25 0 0 1-.032.063.25.25 0 0 1-.063.094.25.25 0 0 1-.062.032.25.25 0 0 1-.094 0h-31.5a.25.25 0 0 1-.157-.062.25.25 0 0 1-.031 0 .25.25 0 0 1-.031-.062.25.25 0 0 1-.031-.094v-5.75a.25.25 0 0 1 .031-.093.25.25 0 0 1 .031-.063.25.25 0 0 1 .031-.031.25.25 0 0 1 .031-.031.25.25 0 0 1 .094-.031.25.25 0 0 1 .031 0h7.375v-1.625a.25.25 0 0 1 .031-.094.25.25 0 0 1 .031-.062.25.25 0 0 1 .031-.031.25.25 0 0 1 .094-.031l3.937-.968v-1.938a.25.25 0 0 1 .031-.093.25.25 0 0 1 .031-.063.25.25 0 0 1 .031-.031.25.25 0 0 1 .094-.031l1.875-.625a.25.25 0 0 1 .031-.031z"/>
  <path fill="#fff" d="M263.2812 148.2125l-.1875.2188-2.125 2.5312-.0312.0625h-.0312v15.4375h4.75V151.025h-.0312l-.031-.0625-2.125-2.5312-.187-.2188zm-1.875 3h1.6875l-.8437 1.0313-.8438-1v-.0312zm2.0938 0h1.6562v.0625l-.7812.9688-.875-1.0313zm-.1875.0625l.9062 1.125-.9062 1.125-.9375-1.125.9375-1.125zm-1.9063.2813l.6875.8437-.6875.8438v-1.6875zm3.75.0312v1.625L264.5 152.4l.6562-.8125zm-2.9062.9687l.9062 1.125-.9062 1.125-.8438-1v-.25l.8438-1zm2.125 0l.7812.9688v.3125l-.7812.9687-.9375-1.125.9375-1.125zm-1.0625 1.2813l.9062 1.125-.9062 1.1562-.9375-1.1562.9375-1.125zm-1.9063.2812l.6875.8438-.6875.875v-1.7188zm3.75.0312v1.625l-.6562-.813.6562-.813zm-2.9062 1l.8437 1.031h-1.6875v-.031l.8438-1zm2.125 0l.7812.968v.062H263.5l.875-1.032zm-2.8438 1.25h3.5313l-1.75 1.062-1.7813-1.063zm-.125.125l1.7188 1.031-1.7188 1.031v-2.063zm3.75.031v2l-1.6875-1 1.6875-1zm-1.8437 1.094l1.75 1.062h-3.5313l1.7813-1.063zm-1.875 1.281h3.6875l-1.8438 1.469-1.8437-1.469zm-.0312.187l1.7187 1.406-1.7187 1.406v-2.813zm3.75 0v2.812l-1.7188-1.406 1.7188-1.407zm-1.875 1.531l1.8437 1.468h-3.6875l1.8438-1.469zm-1.875 1.687h3.75l-1.875 1.75-1.875-1.75zm0 .25l1.7187 1.625-1.7187 1.625v-3.25zm3.75 0v3.25l-1.7188-1.625 1.7188-1.625zm-1.875 1.781l1.6875 1.593h-3.375l1.6875-1.594z"/>
  <path d="M263.0366 156.0346h.5v.5h-.5zm2.125 0h.5v.5h-.5zm-2.125-2.5936h.5v.5h-.5zm-2.125 0h.5v.5h-.5zm4.25 0h.5v.5h-.5zm-4.25 2.5936h.5v.5h-.5zm2.125-5.1673h.5v.5h-.5zm-2.125 7.6987h.5v.5h-.5zm4.25 0h.5v.5h-.5zm-4.25 3.406h.5v.5h-.5zm4.25 0h.5v.5h-.5z"/>
  <path d="M261.125 165.9625a.25.25 0 0 0-.0312.0312l-1.875.625a.25.25 0 0 0-.125.0625.25.25 0 0 0-.0625.1563v1.9375l-3.9375.9687a.25.25 0 0 0-.0937.0312.25.25 0 0 0-.093.187v1.625h-7.375a.25.25 0 0 0-.031 0 .25.25 0 0 0-.156.093.25.25 0 0 0-.031.062.25.25 0 0 0-.031.093v5.75a.25.25 0 0 0 .063.156.25.25 0 0 0 .032.031.25.25 0 0 0 .157.062h31.5a.25.25 0 0 0 .219-.125.25.25 0 0 0 .031-.094.25.25 0 0 0 0-.032v-5.75a.25.25 0 0 0-.031-.125.25.25 0 0 0-.031-.031.25.25 0 0 0-.187-.094h-7.375v-1.625a.25.25 0 0 0-.031-.125.25.25 0 0 0-.031-.032.25.25 0 0 0-.125-.062l-3.937-.969v-1.938a.25.25 0 0 0-.032-.125.25.25 0 0 0-.031-.031.25.25 0 0 0-.094-.063l-1.875-.625a.25.25 0 0 0-.093-.031h-4.25a.25.25 0 0 0-.031 0zm.125.5h4.1563l1.625.5625v1.9375a.25.25 0 0 0 .0312.0937.25.25 0 0 0 .0312.0625.25.25 0 0 0 .125.0937l3.9375.9688v1.6562a.25.25 0 0 0 .0312.0937.25.25 0 0 0 .0312.063.25.25 0 0 0 .1875.094h7.375v5.25h-31v-5.25h7.375a.25.25 0 0 0 .094 0 .25.25 0 0 0 .156-.187.25.25 0 0 0 0-.062v-1.656l3.938-.968a.25.25 0 0 0 .125-.062.25.25 0 0 0 .031-.062.25.25 0 0 0 .031-.093.25.25 0 0 0 0-.031v-1.938l1.719-.563z" style="text-indent:0;text-align:start;line-height:normal;text-transform:none;block-progression:tb;-inkscape-font-specification:Sans" color="#000" overflow="visible" font-family="Sans"/>
  <path fill="#fff" d="M245.6562 167.775l-.1562.125-1.875 1.5-.0937.0625v8.375h4.25v-8.375l-.0937-.0625-1.875-1.5-.1563-.125zm-1.5937 1.9375h1.375l-.6875.8438-.6875-.8125v-.0312zm1.8437 0h1.3438l.0312.0312-.6563.8125-.719-.8437zm-.2187.0312l.7812.9688-.7812.9687-.8125-.9687.8125-.9688zm-1.6563.2813l.5625.6875-.5625.6875v-1.375zm3.25.0312v1.3125l-.5312-.6563.5312-.6562zm-2.5312.8125l.7812.9687-.7812 1.125-.7188-1v-.25l.7188-.8437zm1.875 0l.6562.8125v.3437l-.6562.937-.8125-1.125.8125-.969zm-.9375 1.1562l.8125 1.125-.8125 1.125-.8438-1.125.8438-1.125zm-1.6563.312l.5938.812-.5938.812v-1.625zm3.25.031v1.562l-.5625-.781.5625-.782zm-2.5312.969l.7812 1.125-.8125 1.375-.6875-1.125v-.375l.7188-1zm1.875 0l.6562.937v.406l-.6875 1.156-.8125-1.344.8438-1.157zm-.9688 1.343l.8125 1.343-.7812 1.312h-.0625l-.7813-1.313.8125-1.344zm-1.625.406l.5625.937-.5625.937v-1.875zm3.25 0v1.875l-.5625-.938.5625-.938zm-2.5625 1.156l.6563 1.093h-1.3125l.6562-1.094zm1.875 0l.6563 1.093h-1.3125l.6562-1.094z" style="text-indent:0;text-align:start;line-height:normal;text-transform:none;block-progression:tb;-inkscape-font-specification:Sans" color="#000" overflow="visible" font-family="Sans"/>
  <path d="M245.4252 171.6162h.5v.5h-.5zm-1.8886-.0192h.5v.5h-.5zm3.75 0h.5v.5h-.5zm-1.875-2.25h.5v.5h-.5zm-1.875 4.875h.5v.5h-.5zm1.875 0h.5v.5h-.5zm1.875 0h.5v.5h-.5z"/>
  <path fill="#fff" d="M263.2812 167.775l-.1562.125-1.875 1.5-.0937.0625v8.375h4.25v-8.375l-.0937-.0625-1.875-1.5-.1563-.125zm-1.5937 1.9375h1.375l-.6875.8438-.7188-.8125.0312-.0312zm1.8437 0h1.3438l.0312.0312-.6563.8125-.719-.8437zm-.2187.0312l.7812.9688-.7812.9687-.8125-.9687.8125-.9687zm-1.6563.2813l.5625.6875-.5625.6875v-1.375zm3.25.0312v1.3125l-.5312-.6563.5312-.6562zm-2.5312.8125l.7812.9687-.7812 1.125-.7188-1v-.25l.7188-.8437zm1.875 0l.6562.8125v.3437l-.6562.937-.8125-1.125.8125-.969zm-.9375 1.1562l.8125 1.125-.8125 1.125-.8438-1.125.8438-1.125zm-1.6563.312l.5938.812-.5938.812v-1.625zm3.25.031v1.562l-.5625-.781.5625-.782zm-2.5312.969l.7812 1.125-.8125 1.375-.6875-1.125v-.375l.7188-1zm1.875 0l.6562.937v.406l-.6875 1.156-.8125-1.344.8438-1.157zm-.9688 1.343l.8125 1.343-.7812 1.312h-.0625l-.7813-1.313.8125-1.344zm-1.625.406l.5625.937-.5625.937v-1.875zm3.25 0v1.875l-.5625-.938.5625-.938zm-2.5625 1.156l.6563 1.094h-1.3125l.6562-1.094zm1.875 0l.6563 1.093h-1.3125l.6562-1.094z" style="text-indent:0;text-align:start;line-height:normal;text-transform:none;block-progression:tb;-inkscape-font-specification:Sans" color="#000" overflow="visible" font-family="Sans"/>
  <path d="M263.0502 171.6162h.5v.5h-.5zm-1.8886-.0192h.5v.5h-.5zm3.75 0h.5v.5h-.5zm-1.875-2.25h.5v.5h-.5zm-1.875 4.875h.5v.5h-.5zm1.875 0h.5v.5h-.5zm1.875 0h.5v.5h-.5z"/>
  <path fill="#fff" d="M280.9062 167.775l-.1562.125-1.875 1.5-.0937.0625v8.375h4.25v-8.375l-.0937-.0625-1.875-1.5-.1563-.125zm-1.5937 1.9375h1.375l-.6875.8438-.7188-.8125.0312-.0312zm1.8437 0H282.5l.0312.0312-.6563.8125-.719-.8437zm-.2187.0312l.7812.9688-.7812.9687-.8125-.9687.8125-.9688zm-1.6563.2813l.5625.6875-.5625.6875v-1.375zm3.25.0312v1.3125l-.5312-.6563.5312-.6562zm-2.5312.8125l.7812.9687-.7812 1.125-.7188-1v-.25l.7188-.8437zm1.875 0l.6562.8125v.3437l-.6562.937-.8125-1.125.8125-.969zm-.9375 1.1562l.8125 1.125-.8125 1.125-.8438-1.125.8438-1.125zm-1.6563.312l.5938.812-.5938.812v-1.625zm3.25.031v1.562l-.5625-.781.5625-.782zm-2.5312.969l.7812 1.125-.8125 1.375-.6875-1.125v-.375l.7188-1zm1.875 0l.6562.937v.406l-.6875 1.156-.8125-1.344.8438-1.157zm-.9688 1.343l.8125 1.343-.7812 1.312h-.0625l-.7813-1.313.8125-1.344zm-1.625.406l.5625.937-.5625.937v-1.875zm3.25 0v1.875l-.5625-.938.5625-.938zm-2.5625 1.156l.6563 1.093h-1.3125l.6562-1.094zm1.875 0l.6563 1.093h-1.3125l.6562-1.094z" style="text-indent:0;text-align:start;line-height:normal;text-transform:none;block-progression:tb;-inkscape-font-specification:Sans" color="#000" overflow="visible" font-family="Sans"/>
  <path d="M280.6752 171.6162h.5v.5h-.5zm-1.8886-.0192h.5v.5h-.5zm3.75 0h.5v.5h-.5zm-1.875-2.25h.5v.5h-.5zm-1.875 4.875h.5v.5h-.5zm1.875 0h.5v.5h-.5zm1.875 0h.5v.5h-.5z"/>
  <path fill="#202f3e" d="M237.807 177.5895h50.8597V324.259H237.807z"/>
  <path d="M237.6255 177.3375V324.4h51.25V177.3375h-51.25zm.5.5h24.875V323.9h-24.875V177.8375zm25.375 0h24.875V323.9h-24.875V177.8375z" style="text-indent:0;text-align:start;line-height:normal;text-transform:none;block-progression:tb;-inkscape-font-specification:Sans" color="#000" overflow="visible" font-family="Sans"/>
  <path fill="#fff" d="M239.4207 180.5212c0 .3315-.2686.6002-.6.6002-.3313 0-.6-.2687-.6-.6002 0-.3314.2687-.6.6-.6.3314 0 .6.2686.6.6zm1.803 5.215c0 .3315-.2686.6002-.6.6002-.3313 0-.6-.2687-.6-.6002 0-.3314.2687-.6.6-.6.3314 0 .6.2686.6.6zm1.803 5.215c0 .3315-.2686.6002-.6.6002-.3313 0-.6-.2687-.6-.6002 0-.3314.2687-.6.6-.6.3314 0 .6.2686.6.6zm1.78 5.15c0 .3315-.2686.6002-.6.6002-.3313 0-.6-.2687-.6-.6002 0-.3314.2687-.6.6-.6.3314 0 .6.2686.6.6zm1.815 5.25c0 .3315-.2686.6002-.6.6002-.3313 0-.6-.2687-.6-.6002 0-.3314.2687-.6.6-.6.3314 0 .6.2686.6.6zm1.793 5.187c0 .3315-.2686.6002-.6.6002-.3313 0-.6-.2687-.6-.6002 0-.3314.2687-.6.6-.6.3314 0 .6.2686.6.6zm1.793 5.188c0 .3315-.2686.6002-.6.6002-.3313 0-.6-.2687-.6-.6002 0-.3314.2687-.6.6-.6.3314 0 .6.2686.6.6zm11.5066-31.205c0 .3315.2686.6002.6.6002.3313 0 .6-.2687.6-.6002 0-.3314-.2687-.6-.6-.6-.3314 0-.6.2686-.6.6zm-1.803 5.215c0 .3315.2686.6002.6.6002.3313 0 .6-.2687.6-.6002 0-.3314-.2687-.6-.6-.6-.3314 0-.6.2686-.6.6zm-1.803 5.215c0 .3315.2686.6002.6.6002.3313 0 .6-.2687.6-.6002 0-.3314-.2687-.6-.6-.6-.3314 0-.6.2686-.6.6zm-1.78 5.15c0 .3315.2686.6002.6.6002.3313 0 .6-.2687.6-.6002 0-.3314-.2687-.6-.6-.6-.3314 0-.6.2686-.6.6zm-1.815 5.25c0 .3315.2686.6002.6.6002.3313 0 .6-.2687.6-.6002 0-.3314-.2687-.6-.6-.6-.3314 0-.6.2686-.6.6zm-1.793 5.187c0 .3315.2686.6002.6.6002.3313 0 .6-.2687.6-.6002 0-.3314-.2687-.6-.6-.6-.3314 0-.6.2686-.6.6zm-1.793 5.188c0 .3315.2686.6002.6.6002.3313 0 .6-.2687.6-.6002 0-.3314-.2687-.6-.6-.6-.3314 0-.6.2686-.6.6zm-11.5156 36.2376c0-.3315-.2686-.6002-.6-.6002-.3313 0-.6.2687-.6.6002 0 .3314.2687.6.6.6.3314 0 .6-.2686.6-.6zm1.803-5.215c0-.3315-.2686-.6002-.6-.6002-.3313 0-.6.2687-.6.6002 0 .3314.2687.6.6.6.3314 0 .6-.2686.6-.6zm1.803-5.215c0-.3315-.2686-.6002-.6-.6002-.3313 0-.6.2687-.6.6002 0 .3314.2687.6.6.6.3314 0 .6-.2686.6-.6zm1.78-5.15c0-.3315-.2686-.6002-.6-.6002-.3313 0-.6.2687-.6.6002 0 .3314.2687.6.6.6.3314 0 .6-.2686.6-.6zm1.815-5.25c0-.3315-.2686-.6002-.6-.6002-.3313 0-.6.2687-.6.6002 0 .3314.2687.6.6.6.3314 0 .6-.2686.6-.6zm1.793-5.187c0-.3315-.2686-.6002-.6-.6002-.3313 0-.6.2687-.6.6002 0 .3314.2687.6.6.6.3314 0 .6-.2686.6-.6zm1.793-5.188c0-.3315-.2686-.6002-.6-.6002-.3313 0-.6.2687-.6.6002 0 .3314.2687.6.6.6.3314 0 .6-.2686.6-.6zm11.5066 31.205c0-.3315.2686-.6002.6-.6002.3313 0 .6.2687.6.6002 0 .3314-.2687.6-.6.6-.3314 0-.6-.2686-.6-.6zm-1.803-5.215c0-.3315.2686-.6002.6-.6002.3313 0 .6.2687.6.6002 0 .3314-.2687.6-.6.6-.3314 0-.6-.2686-.6-.6zm-1.803-5.215c0-.3315.2686-.6002.6-.6002.3313 0 .6.2687.6.6002 0 .3314-.2687.6-.6.6-.3314 0-.6-.2686-.6-.6zm-1.78-5.15c0-.3315.2686-.6002.6-.6002.3313 0 .6.2687.6.6002 0 .3314-.2687.6-.6.6-.3314 0-.6-.2686-.6-.6zm-1.815-5.25c0-.3315.2686-.6002.6-.6002.3313 0 .6.2687.6.6002 0 .3314-.2687.6-.6.6-.3314 0-.6-.2686-.6-.6zm-1.793-5.187c0-.3315.2686-.6002.6-.6002.3313 0 .6.2687.6.6002 0 .3314-.2687.6-.6.6-.3314 0-.6-.2686-.6-.6zm-1.793-5.188c0-.3315.2686-.6002.6-.6002.3313 0 .6.2687.6.6002 0 .3314-.2687.6-.6.6-.3314 0-.6-.2686-.6-.6zm-11.4976 37.0134c0 .3315-.2686.6002-.6.6002-.3313 0-.6-.2687-.6-.6002 0-.3314.2687-.6.6-.6.3314 0 .6.2686.6.6zm1.803 5.215c0 .3315-.2686.6002-.6.6002-.3313 0-.6-.2687-.6-.6002 0-.3314.2687-.6.6-.6.3314 0 .6.2686.6.6zm1.803 5.215c0 .3315-.2686.6002-.6.6002-.3313 0-.6-.2687-.6-.6002 0-.3314.2687-.6.6-.6.3314 0 .6.2686.6.6zm1.78 5.15c0 .3315-.2686.6002-.6.6002-.3313 0-.6-.2687-.6-.6002 0-.3314.2687-.6.6-.6.3314 0 .6.2686.6.6zm1.815 5.25c0 .3315-.2686.6002-.6.6002-.3313 0-.6-.2687-.6-.6002 0-.3314.2687-.6.6-.6.3314 0 .6.2686.6.6zm1.793 5.187c0 .3315-.2686.6002-.6.6002-.3313 0-.6-.2687-.6-.6002 0-.3314.2687-.6.6-.6.3314 0 .6.2686.6.6zm1.793 5.188c0 .3315-.2686.6002-.6.6002-.3313 0-.6-.2687-.6-.6002 0-.3314.2687-.6.6-.6.3314 0 .6.2686.6.6zm11.5066-31.205c0 .3315.2686.6002.6.6002.3313 0 .6-.2687.6-.6002 0-.3314-.2687-.6-.6-.6-.3314 0-.6.2686-.6.6zm-1.803 5.215c0 .3315.2686.6002.6.6002.3313 0 .6-.2687.6-.6002 0-.3314-.2687-.6-.6-.6-.3314 0-.6.2686-.6.6zm-1.803 5.215c0 .3315.2686.6002.6.6002.3313 0 .6-.2687.6-.6002 0-.3314-.2687-.6-.6-.6-.3314 0-.6.2686-.6.6zm-1.78 5.15c0 .3315.2686.6002.6.6002.3313 0 .6-.2687.6-.6002 0-.3314-.2687-.6-.6-.6-.3314 0-.6.2686-.6.6zm-1.815 5.25c0 .3315.2686.6002.6.6002.3313 0 .6-.2687.6-.6002 0-.3314-.2687-.6-.6-.6-.3314 0-.6.2686-.6.6zm-1.793 5.187c0 .3315.2686.6002.6.6002.3313 0 .6-.2687.6-.6002 0-.3314-.2687-.6-.6-.6-.3314 0-.6.2686-.6.6zm-1.793 5.188c0 .3315.2686.6002.6.6002.3313 0 .6-.2687.6-.6002 0-.3314-.2687-.6-.6-.6-.3314 0-.6.2686-.6.6zm-11.5156 36.2376c0-.3315-.2686-.6002-.6-.6002-.3313 0-.6.2687-.6.6002 0 .3314.2687.6.6.6.3314 0 .6-.2686.6-.6zm1.803-5.215c0-.3315-.2686-.6002-.6-.6002-.3313 0-.6.2687-.6.6002 0 .3314.2687.6.6.6.3314 0 .6-.2686.6-.6zm1.803-5.215c0-.3315-.2686-.6002-.6-.6002-.3313 0-.6.2687-.6.6002 0 .3314.2687.6.6.6.3314 0 .6-.2686.6-.6zm1.78-5.15c0-.3315-.2686-.6002-.6-.6002-.3313 0-.6.2687-.6.6002 0 .3314.2687.6.6.6.3314 0 .6-.2686.6-.6zm1.815-5.25c0-.3315-.2686-.6002-.6-.6002-.3313 0-.6.2687-.6.6002 0 .3314.2687.6.6.6.3314 0 .6-.2686.6-.6zm1.793-5.187c0-.3315-.2686-.6002-.6-.6002-.3313 0-.6.2687-.6.6002 0 .3314.2687.6.6.6.3314 0 .6-.2686.6-.6zm1.793-5.188c0-.3315-.2686-.6002-.6-.6002-.3313 0-.6.2687-.6.6002 0 .3314.2687.6.6.6.3314 0 .6-.2686.6-.6zm11.5066 31.205c0-.3315.2686-.6002.6-.6002.3313 0 .6.2687.6.6002 0 .3314-.2687.6-.6.6-.3314 0-.6-.2686-.6-.6zm-1.803-5.215c0-.3315.2686-.6002.6-.6002.3313 0 .6.2687.6.6002 0 .3314-.2687.6-.6.6-.3314 0-.6-.2686-.6-.6zm-1.803-5.215c0-.3315.2686-.6002.6-.6002.3313 0 .6.2687.6.6002 0 .3314-.2687.6-.6.6-.3314 0-.6-.2686-.6-.6zm-1.78-5.15c0-.3315.2686-.6002.6-.6002.3313 0 .6.2687.6.6002 0 .3314-.2687.6-.6.6-.3314 0-.6-.2686-.6-.6zm-1.815-5.25c0-.3315.2686-.6002.6-.6002.3313 0 .6.2687.6.6002 0 .3314-.2687.6-.6.6-.3314 0-.6-.2686-.6-.6zm-1.793-5.187c0-.3315.2686-.6002.6-.6002.3313 0 .6.2687.6.6002 0 .3314-.2687.6-.6.6-.3314 0-.6-.2686-.6-.6zm-1.793-5.188c0-.3315.2686-.6002.6-.6002.3313 0 .6.2687.6.6002 0 .3314-.2687.6-.6.6-.3314 0-.6-.2686-.6-.6zm13.8764-109.4886c0 .3315-.2686.6002-.6.6002-.3313 0-.6-.2687-.6-.6002 0-.3314.2687-.6.6-.6.3314 0 .6.2686.6.6zm1.803 5.215c0 .3315-.2686.6002-.6.6002-.3313 0-.6-.2687-.6-.6002 0-.3314.2687-.6.6-.6.3314 0 .6.2686.6.6zm1.803 5.215c0 .3315-.2686.6002-.6.6002-.3313 0-.6-.2687-.6-.6002 0-.3314.2687-.6.6-.6.3314 0 .6.2686.6.6zm1.78 5.15c0 .3315-.2686.6002-.6.6002-.3313 0-.6-.2687-.6-.6002 0-.3314.2687-.6.6-.6.3314 0 .6.2686.6.6zm1.815 5.25c0 .3315-.2686.6002-.6.6002-.3313 0-.6-.2687-.6-.6002 0-.3314.2687-.6.6-.6.3314 0 .6.2686.6.6zm1.793 5.187c0 .3315-.2686.6002-.6.6002-.3313 0-.6-.2687-.6-.6002 0-.3314.2687-.6.6-.6.3314 0 .6.2686.6.6zm1.793 5.188c0 .3315-.2686.6002-.6.6002-.3313 0-.6-.2687-.6-.6002 0-.3314.2687-.6.6-.6.3314 0 .6.2686.6.6zm11.5066-31.205c0 .3315.2686.6002.6.6002.3313 0 .6-.2687.6-.6002 0-.3314-.2687-.6-.6-.6-.3314 0-.6.2686-.6.6zm-1.803 5.215c0 .3315.2686.6002.6.6002.3313 0 .6-.2687.6-.6002 0-.3314-.2687-.6-.6-.6-.3314 0-.6.2686-.6.6zm-1.803 5.215c0 .3315.2686.6002.6.6002.3313 0 .6-.2687.6-.6002 0-.3314-.2687-.6-.6-.6-.3314 0-.6.2686-.6.6zm-1.78 5.15c0 .3315.2686.6002.6.6002.3313 0 .6-.2687.6-.6002 0-.3314-.2687-.6-.6-.6-.3314 0-.6.2686-.6.6zm-1.815 5.25c0 .3315.2686.6002.6.6002.3313 0 .6-.2687.6-.6002 0-.3314-.2687-.6-.6-.6-.3314 0-.6.2686-.6.6zm-1.793 5.187c0 .3315.2686.6002.6.6002.3313 0 .6-.2687.6-.6002 0-.3314-.2687-.6-.6-.6-.3314 0-.6.2686-.6.6zm-1.793 5.188c0 .3315.2686.6002.6.6002.3313 0 .6-.2687.6-.6002 0-.3314-.2687-.6-.6-.6-.3314 0-.6.2686-.6.6zm-11.5156 36.2376c0-.3315-.2686-.6002-.6-.6002-.3313 0-.6.2687-.6.6002 0 .3314.2687.6.6.6.3314 0 .6-.2686.6-.6zm1.803-5.215c0-.3315-.2686-.6002-.6-.6002-.3313 0-.6.2687-.6.6002 0 .3314.2687.6.6.6.3314 0 .6-.2686.6-.6zm1.803-5.215c0-.3315-.2686-.6002-.6-.6002-.3313 0-.6.2687-.6.6002 0 .3314.2687.6.6.6.3314 0 .6-.2686.6-.6zm1.78-5.15c0-.3315-.2686-.6002-.6-.6002-.3313 0-.6.2687-.6.6002 0 .3314.2687.6.6.6.3314 0 .6-.2686.6-.6zm1.815-5.25c0-.3315-.2686-.6002-.6-.6002-.3313 0-.6.2687-.6.6002 0 .3314.2687.6.6.6.3314 0 .6-.2686.6-.6zm1.793-5.187c0-.3315-.2686-.6002-.6-.6002-.3313 0-.6.2687-.6.6002 0 .3314.2687.6.6.6.3314 0 .6-.2686.6-.6zm1.793-5.188c0-.3315-.2686-.6002-.6-.6002-.3313 0-.6.2687-.6.6002 0 .3314.2687.6.6.6.3314 0 .6-.2686.6-.6zm11.5066 31.205c0-.3315.2686-.6002.6-.6002.3313 0 .6.2687.6.6002 0 .3314-.2687.6-.6.6-.3314 0-.6-.2686-.6-.6zm-1.803-5.215c0-.3315.2686-.6002.6-.6002.3313 0 .6.2687.6.6002 0 .3314-.2687.6-.6.6-.3314 0-.6-.2686-.6-.6zm-1.803-5.215c0-.3315.2686-.6002.6-.6002.3313 0 .6.2687.6.6002 0 .3314-.2687.6-.6.6-.3314 0-.6-.2686-.6-.6zm-1.78-5.15c0-.3315.2686-.6002.6-.6002.3313 0 .6.2687.6.6002 0 .3314-.2687.6-.6.6-.3314 0-.6-.2686-.6-.6zm-1.815-5.25c0-.3315.2686-.6002.6-.6002.3313 0 .6.2687.6.6002 0 .3314-.2687.6-.6.6-.3314 0-.6-.2686-.6-.6zm-1.793-5.187c0-.3315.2686-.6002.6-.6002.3313 0 .6.2687.6.6002 0 .3314-.2687.6-.6.6-.3314 0-.6-.2686-.6-.6zm-1.793-5.188c0-.3315.2686-.6002.6-.6002.3313 0 .6.2687.6.6002 0 .3314-.2687.6-.6.6-.3314 0-.6-.2686-.6-.6zm-11.4976 37.0134c0 .3315-.2686.6002-.6.6002-.3313 0-.6-.2687-.6-.6002 0-.3314.2687-.6.6-.6.3314 0 .6.2686.6.6zm1.803 5.215c0 .3315-.2686.6002-.6.6002-.3313 0-.6-.2687-.6-.6002 0-.3314.2687-.6.6-.6.3314 0 .6.2686.6.6zm1.803 5.215c0 .3315-.2686.6002-.6.6002-.3313 0-.6-.2687-.6-.6002 0-.3314.2687-.6.6-.6.3314 0 .6.2686.6.6zm1.78 5.15c0 .3315-.2686.6002-.6.6002-.3313 0-.6-.2687-.6-.6002 0-.3314.2687-.6.6-.6.3314 0 .6.2686.6.6zm1.815 5.25c0 .3315-.2686.6002-.6.6002-.3313 0-.6-.2687-.6-.6002 0-.3314.2687-.6.6-.6.3314 0 .6.2686.6.6zm1.793 5.187c0 .3315-.2686.6002-.6.6002-.3313 0-.6-.2687-.6-.6002 0-.3314.2687-.6.6-.6.3314 0 .6.2686.6.6zm1.793 5.188c0 .3315-.2686.6002-.6.6002-.3313 0-.6-.2687-.6-.6002 0-.3314.2687-.6.6-.6.3314 0 .6.2686.6.6zm11.5066-31.205c0 .3315.2686.6002.6.6002.3313 0 .6-.2687.6-.6002 0-.3314-.2687-.6-.6-.6-.3314 0-.6.2686-.6.6zm-1.803 5.215c0 .3315.2686.6002.6.6002.3313 0 .6-.2687.6-.6002 0-.3314-.2687-.6-.6-.6-.3314 0-.6.2686-.6.6zm-1.803 5.215c0 .3315.2686.6002.6.6002.3313 0 .6-.2687.6-.6002 0-.3314-.2687-.6-.6-.6-.3314 0-.6.2686-.6.6zm-1.78 5.15c0 .3315.2686.6002.6.6002.3313 0 .6-.2687.6-.6002 0-.3314-.2687-.6-.6-.6-.3314 0-.6.2686-.6.6zm-1.815 5.25c0 .3315.2686.6002.6.6002.3313 0 .6-.2687.6-.6002 0-.3314-.2687-.6-.6-.6-.3314 0-.6.2686-.6.6zm-1.793 5.187c0 .3315.2686.6002.6.6002.3313 0 .6-.2687.6-.6002 0-.3314-.2687-.6-.6-.6-.3314 0-.6.2686-.6.6zm-1.793 5.188c0 .3315.2686.6002.6.6002.3313 0 .6-.2687.6-.6002 0-.3314-.2687-.6-.6-.6-.3314 0-.6.2686-.6.6zm-11.5156 36.2376c0-.3315-.2686-.6002-.6-.6002-.3313 0-.6.2687-.6.6002 0 .3314.2687.6.6.6.3314 0 .6-.2686.6-.6zm1.803-5.215c0-.3315-.2686-.6002-.6-.6002-.3313 0-.6.2687-.6.6002 0 .3314.2687.6.6.6.3314 0 .6-.2686.6-.6zm1.803-5.215c0-.3315-.2686-.6002-.6-.6002-.3313 0-.6.2687-.6.6002 0 .3314.2687.6.6.6.3314 0 .6-.2686.6-.6zm1.78-5.15c0-.3315-.2686-.6002-.6-.6002-.3313 0-.6.2687-.6.6002 0 .3314.2687.6.6.6.3314 0 .6-.2686.6-.6zm1.815-5.25c0-.3315-.2686-.6002-.6-.6002-.3313 0-.6.2687-.6.6002 0 .3314.2687.6.6.6.3314 0 .6-.2686.6-.6zm1.793-5.187c0-.3315-.2686-.6002-.6-.6002-.3313 0-.6.2687-.6.6002 0 .3314.2687.6.6.6.3314 0 .6-.2686.6-.6zm1.793-5.188c0-.3315-.2686-.6002-.6-.6002-.3313 0-.6.2687-.6.6002 0 .3314.2687.6.6.6.3314 0 .6-.2686.6-.6zm11.5066 31.205c0-.3315.2686-.6002.6-.6002.3313 0 .6.2687.6.6002 0 .3314-.2687.6-.6.6-.3314 0-.6-.2686-.6-.6zm-1.803-5.215c0-.3315.2686-.6002.6-.6002.3313 0 .6.2687.6.6002 0 .3314-.2687.6-.6.6-.3314 0-.6-.2686-.6-.6zm-1.803-5.215c0-.3315.2686-.6002.6-.6002.3313 0 .6.2687.6.6002 0 .3314-.2687.6-.6.6-.3314 0-.6-.2686-.6-.6zm-1.78-5.15c0-.3315.2686-.6002.6-.6002.3313 0 .6.2687.6.6002 0 .3314-.2687.6-.6.6-.3314 0-.6-.2686-.6-.6zm-1.815-5.25c0-.3315.2686-.6002.6-.6002.3313 0 .6.2687.6.6002 0 .3314-.2687.6-.6.6-.3314 0-.6-.2686-.6-.6zm-1.793-5.187c0-.3315.2686-.6002.6-.6002.3313 0 .6.2687.6.6002 0 .3314-.2687.6-.6.6-.3314 0-.6-.2686-.6-.6zm-1.793-5.188c0-.3315.2686-.6002.6-.6002.3313 0 .6.2687.6.6002 0 .3314-.2687.6-.6.6-.3314 0-.6-.2686-.6-.6z"/>
  <path fill="#1f62a6" d="M297.3465 247.4625h16.9688v30.5312h14.375v10.8438h13.9375v10.8437h14.1562V324.4h-139.25v-32.9063h8.1563v-7.9687h17.6875v-7.5313h15.5v-11.0625h19V254.775h19.4687v-7.3125z"/>
  <path fill="#172b4d" d="M297.3465 247.4625v7.3125h-19.4688v10.1562h-19v11.0625h-15.5v7.5313h-17.6875v7.9687h-8.1562V324.4h139.25v-24.7188h-14.1562v-10.8437h-13.9375v-10.8438h-14.375v-30.5312h-16.9688zm.4063.4062h16.1875v76.125h-16.1875v-76.125zm-19.4688 7.3125h19.0625v68.8125H278.284v-68.8125zm-19 10.1563h18.5938v58.6562H243.784V276.4h15.5v-11.0625zM314.3153 278.4h13.9687v45.5937h-13.9688V278.4zm-88.2188 5.5312h17.2813v40.0625H217.909v-32.125h8.1875v-7.9375zm102.5938 5.3125h13.5312v34.75h-13.5312v-34.75zm13.9375 10.8125h13.75v23.9375h-13.75v-23.9375z" style="text-indent:0;text-align:start;line-height:normal;text-transform:none;block-progression:tb;-inkscape-font-specification:Sans" color="#000" overflow="visible" font-family="Sans"/>
  <path fill="#223a4a" d="M217.0707 323.9052v-182.801H214.73v-4.3472h-2.8426v-5.016h-4.18v-4.013h-30.431v4.013h-4.18v5.016h-2.8426v4.3473h-2.3408v182.801z"/>
  <path fill="#5fbd56" d="M183.445 323.4137v.9844h18.0704v-.984zm-6.1874-196.172v.9845h14.7305v30.2695h1.02v-30.2695h14.696v-.9844zm-4.1484 4.008v.9843h14.871v16.3828h.9845v-17.3672h-15.8555zm22.8867 0v17.367h1.019V132.234h14.871v-.9844h-15.89zm-25.735 4.992v1.0196h12.199v3.34h.984v-4.3595h-13.183zm31.254 0v4.3595h1.019v-3.34h12.199v-1.0194h-13.218zm-34.102 4.3595v183.797h16.031V140.601h-16.031zm.984 1.0195h14.063v181.793h-14.062zm33.117-1.0195v183.797h16.066V140.601h-16.066zm1.019 1.0195h14.027v181.793h-14.027z" style="text-indent:0;text-align:start;line-height:normal;text-transform:none;block-progression:tb;-inkscape-font-specification:Sans" color="#000" overflow="visible" font-family="Sans"/>
  <path fill="#3e3e3e" d="M319.9044 215.5898l3.7998 1.314 1.068.1455 7.105.002 1.0662-.0957 3.7998-1.421 2.4808-1.6793 1.8257-2.4802 1.55-2.962.758-2.962.2755-3.272-.31-3.169-1.2056-3.134-1.688-3.031-2.239-2.445-2.928-1.86-2.687-1.068-3.548-.551-3.238.275-2.928.655-2.997 1.826-2.5834 2.17-1.8257 2.308-1.688 3.032-.7922 3.238-.241 3.031.62 3.411 1.309 3.238 1.8256 2.618 2.411 2.308z"/>
  <path fill="#ebdbb4" d="M329.0338 186.8063l-3.2188.2812h-.0312a.1.1 0 0 0-.0312 0l-2.9062.6563.0312.0937-.0625-.0625-2.968 1.8125h-.031a.1.1 0 0 0-.031.0312l-.031.0312-2.531 2.125h-.031l-1.781 2.281-.031.031v.031h-.031a.1.1 0 0 0 0 .031v.031h-.031l-1.625 2.937a.1.1 0 0 0 0 .031h-.031a.1.1 0 0 0 0 .031v.031l-.781 3.125v.031a.1.1 0 0 0 0 .031.1.1 0 0 0 0 .031v.031l-.25 2.968a.1.1 0 0 0 0 .031l.625 3.406a.1.1 0 0 0 0 .031.1.1 0 0 0 .032.031l1.281 3.187v.031a.1.1 0 0 0 .032 0l.063.062 1.719 2.5v.031l.031.031a.1.1 0 0 0 0 .031l2.438 2.281v.031l1 .562.094-.188-.906-.5.938-1.844a.1.1 0 0 0 0-.031l.031-.031a.1.1 0 0 0 0-.031l.219-1.969 1.719 1.937.063.093.062.063 1.282-.969.219 2.312a.1.1 0 0 0 0 .031.1.1 0 0 0 .032.031.1.1 0 0 0 .031.031.1.1 0 0 0 .031 0l1.313.125 1.094 1.343.063-.031 2.813-.938 2 1.218a.1.1 0 0 0 0 .031.1.1 0 0 0 .032 0 .1.1 0 0 0 .031 0 .1.1 0 0 0 .031 0 .1.1 0 0 0 0-.031.1.1 0 0 0 .032 0l1.375-1.344.437.469.125-.125-.437-.469 2.25-2.282a.1.1 0 0 0 .031 0l1.813.969a.1.1 0 0 0 .031.031.1.1 0 0 0 .031 0 .1.1 0 0 0 .031 0 .1.1 0 0 0 .032 0l1.407-.406-1.5 2.313-.031.031a.1.1 0 0 0 0 .031.1.1 0 0 0 0 .031.1.1 0 0 0 0 .031.1.1 0 0 0 0 .031.1.1 0 0 0 .031.031.1.1 0 0 0 .031 0 .1.1 0 0 0 .031 0 .1.1 0 0 0 .0317 0 .1.1 0 0 0 .031 0l2.407-1.719.063-.031a.1.1 0 0 0 .031-.032l1.7815-2.437a.1.1 0 0 0 .031 0v-.031l.0317-.031a.1.1 0 0 0 0-.032v-.032l1.5-2.843.031-.031a.1.1 0 0 0 0-.031v-.062l.719-2.8434.031-.031a.1.1 0 0 0 0-.031.1.1 0 0 0 .031 0l.25-3.219v-.032a.1.1 0 0 0 0-.031v-.062l-.312-3.0317v-.094a.1.1 0 0 0 0-.031l-.031-.031-1.157-3.062a.1.1 0 0 0 0-.031.1.1 0 0 0-.031 0v-.031h-.031v-.0314l-1.625-2.875v-.063a.1.1 0 0 0 0-.031.1.1 0 0 0-.031 0 .1.1 0 0 0 0-.031l-.032-.0318-2.1875-2.344v-.032a.1.1 0 0 0 0-.0312.1.1 0 0 0-.031 0 .1.1 0 0 0 0-.031.1.1 0 0 0-.031 0l-2.8434-1.782-.031-.031-.031-.0318a.1.1 0 0 0 0-.031h-.031l-2.656-1.0624a.1.1 0 0 0-.031 0h-.063l-3.5-.563zm-.0625.2187l.4062.5313-2.5625-.3438 2.1563-.1875zm.2812.0312l2.4688.375-2.0625.1563-.4063-.5312zm-3.5312.2813h.0312l.5312.9375-2.5937.2812 2.0312-1.2187zm.25 0l3.0625.375-2.5313.5312-.5312-.9062zm-.7813.0937l-1.9062 1.0937-.2813-.625 2.1875-.469zm7.3125.1562l.25.9375-1.3437-.625 1.0937-.313zm-.875.0312l-.4375.1563h-.0625l-.5312-.063 1.0312-.094zm1.0938 0l2.125.8438-1.8438.1562h-.0312l-.25-1zm-3.1875.1875l.2187 1.063-2.8125-.5 2.5938-.562zm.2187 0l1.1563.157-.9688.844-.1875-1zm-6.9375.188l.3125.625-2.6562.782 2.3437-1.406zm8.3438 0h.0312l1.375.657-2.4063.219 1-.875zm-5.1563.5l-2.2812 1.344-.3438-1.062 2.625-.281zm.5625 0l2.9688.532-2.5 1.031-.4688-1.562zm-.1875.031l.4688 1.594-2.875-.219 2.4062-1.375zm8.8125.125l.1563.407-1.6563-.312 1.5-.093zm.2813.125l1.4062.907-1.25-.562-.0312-.031-.125-.312zm-12.2813.031l.3438 1.125-2.4688.407 2.125-1.531zm9.625 0l-.1562 1.438-2.4063-1.187 2.5625-.25zm.1875.094l2.3125 1.438-2.4687-.031.1562-1.406zm.4063 0l2.0312.344.0937.969-2.125-1.312zm-10.7188.063l-2.0625 1.438-.5937-.687 2.6562-.75zm7.0938.188l.1562 2.219-2.7187-1.156 2.5625-1.062zm.2187.031l2.5 1.219-2.375.969-.125-2.187zm5.6563.157l2.0937.969-1.9687.032-.125-1zm-15.7813.5l.5938.688-2.4063 1.438 1.8125-2.125zm3.875.25l2.875.219-2.6875 1.656-.1875-1.875zm-.5.063l-1.8125 1.406-.6875-.969 2.5-.437zm.3125 0l.1875 1.875-2.125-.375 1.9375-1.5zm3.5.219l2.7188 1.157-2.8438 1.438c.0123-.104.0206-.26.0312-.406.0213-.291.0163-.622.0312-.969.0264-.615.0592-1.094.0625-1.218zm-.2187.031c-.004.147-.006.561-.0312 1.157-.014.346-.041.713-.062 1-.01.144-.019.276-.031.375-.006.048.006.06 0 .094l-2.625-.906 2.75-1.718zm6.2187.094l2.5.031.1563 1.938-2.6563-1.968zm5.0625 0l.1875.5-1.9375-.469 1.75-.031zm-19.125.031l-1.4062 1.656-.1875-.312 1.5937-1.343zm13.6875 0l.3438 2.656-2.8125-1.625 2.4687-1.031zm.1875.063l2.75 2.032-2.375.625-.375-2.656zm3.1563.032l2.2812.594-.5.938-1.7812-1.531zm-15.4375.063l.6875 1-2.3125 1.187 1.625-2.187zm15.2187 0l1.7813 1.562-1.6563.313-.125-1.875zm2.625.125l.8438.906-.7188-.593-.0312-.031a.1.1 0 0 0 0-.031l-.0937-.25zm-18.2187.062l-1.625 2.157-.8438-.656v-.031l2.4688-1.469zm18.2812.47l1.5625 1.344-2.0625-.438.5-.906zm-8.5625.344l.0312 2.812-2.9375-1.344 2.9063-1.468zm.1875.031l2.8125 1.625-2.7812 1.156-.0312-2.781zm-8.6562.094l2.125.406-2.6875 1.719.5625-2.125zm-.2188.125l-.5625 2.093-1.8437-.844 2.4062-1.25zm-4 .093l.2188.313-1.3438 1.125 1.125-1.437zm6.7188.281l2.5937.875-2.8125 1.938.2188-2.812zm-.2188.063l-.2187 2.813-2.5625-1 2.7812-1.813zm14.0313.094l.6562 2.282-2.3437-2 1.6875-.281zm-20.1563.063l.8438.688-1.9375 1.625 1.0937-2.313zm20.5938 0l2.0937.406-.2187 1.125-1.875-1.531zm-.1875.094l1.9375 1.594-1.2188.719-.7187-2.312zm-20.7188.125l-1.0937 2.25-.625-.844 1.7187-1.406zm18.4688.063l.4375 2.813-2.8125-2.219 2.375-.594zm.1875.094l2.5 2.157-2.0313.687-.4687-2.843zm4.5.25l1.2812 2.313-1.5-1.281.2188-1.031zm-21.7813.157l1.875.907-2.5625 1.938.6875-2.844zm8.1875 0l2.9688 1.313-3.0938 1.688.125-3zm-.1875.063l-.125 3-2.75-1.062 2.875-1.937zm-8.25.094l-.6875 2.75-1.3437-1.031 2.0312-1.718zm14.6563.032l.375 3.062-3.1875-1.906 2.8125-1.156zm.1875.094l2.875 2.25-2.4375.813-.4375-3.062zm-12.4375.719l2.5937 1.031-2.9062 1.844.3125-2.875zm-5.3438.062l.625.813-1.5312 2.125.9062-2.938zm24.5938 0l.9062 2.656-2.125-1.937 1.2188-.719zm-19.4688.031l-.3125 2.844-2.3125-.875 2.625-1.968zm19.75.125l1.625 1.375-.75 1.219-.875-2.593zm-10.4062.25l-.0625 3.281-3.0313-1.562 3.0938-1.718zm.1875.031l3.2187 1.938-3.2812 1.313.0625-3.25zm-15.0938.25l-.7812 2.563-.4063-.437 1.1875-2.125zm23.5313.156l.4062 2.657-2.4375-1.969 2.0313-.687zm-22.2813.157l1.375 1-1.8437 1.938.4687-2.937zm22.5 0l2.2188 1.969-1.8125.657-.4063-2.625zm-15.2812.125l.0312 2.906-2.9375-1.062 2.9062-1.844zm.1875 0l2.7187 1.031-2.6875 1.813-.0312-2.844zm-7.625.063l-.4688 2.875-1.1562-.625 1.625-2.25zm20.1562.469l-.0312 2.875-2.4062-2.094 2.438-.781zm.2188.062l2.4687 2-2.5.906.0312-2.906zm5.5937.063l.4063 3.125-1.125-1.906.7187-1.219zm-24.125.406l2.2813.844-2.3125 2.125.0312-2.969zm-.2187.094l-.0312 2.969-1.812-1.062 1.844-1.906zm8.8437.031l.0937 3.031-2.7812-1.187 2.6875-1.844zm.1875 0l3 1.531-2.9062 1.5-.0937-3.031zm15.5625 0l.875 2.313-.5.563-.375-2.875zm-8.8125.25l-.1562 3.094-3.125-1.781 3.2812-1.312zm.2188.063l2.4062 2.125-2.5937.938.1875-3.062zm-19.9063.406l.375.438-.9062 1.781.5312-2.219zm27.3125.094l-.0937 2.844-1.75-2.156 1.8438-.687zm-20.625.031l2.9688 1.032-2.8125 2.375-.1563-3.406zm-.1875.032l.125 3.406-2.4687-1.188 2.3437-2.219zm21 .156l1.1875 2.031-1.2812.656.0937-2.687zm-26.9062.281l1.1562.656-1.4062 2.156.25-2.812zm24.625.281l-.3125 3.313-2.2188-2.406 2.5313-.906zm-24.8438.032l-.2187 2.656-.875-.562v-.031l1.0937-2.062zm15.7188.063l-.0937 3-2.812-1.5 2.906-1.5zm.1875.031l3.0937 1.812-3.1562 1.187.0625-3zm9.0937 0l1.75 2.156-2.0312 1.0628.2812-3.219zm-15.4375.281l2.8125 1.219-2.6875 2.3438-.125-3.562zm-.1875.031l.125 3.594-2.9375-1.188 2.8125-2.406zm-7.7812.031l1.8437 1.094-1.6875 1.875-.1562-2.969zm-.1875.188l.125 2.875-1.5313-.719 1.4063-2.156zm27.6562.344l.2188 2.25-.7188-1.719.5-.531zm-7.0312.031l-.2813 3.469-2.3437-2.531 2.625-.9375zm.1875.094l2.25 2.375-2.5313 1.125.2813-3.5zm6.125.563l-.0937 2.687-1.187-2 1.281-.688zm-24.625.031l2.4687 1.187-2.1875 2.1875-.2812-3.375zm8.9375.031l2.875 1.531-2.7188 1.906-.1562-3.438zm-9.125.031l.25 3.312-2-1.4064 1.75-1.906zm8.9375 0l.125 3.406-2.8125-1.031 2.6875-2.375zm16.0625.156l.7812 1.937-.875.625.0937-2.5625zm-9.4063.156l-.4062 3.281-2.7813-2.0624 3.1875-1.2183zm.1875.0624l2.3125 2.56-2.6875.7188.375-3.2803zm-20.4062.187l.8437.531v.031l-.5312 2.094-.3125-2.656zm27.9062.125l-.4062 3.4685-1.6563-2.375 2.0625-1.0934zm.1875.156l1.2188 2.0625-1.5938 1.25.375-3.312zm-27.0312.407l1.5312.7184-1.1562 2.156-.375-2.875zm6.5312 0l2.9063 1.187-2.375 2.313-.5313-3.5zm-.2187.062l.5312 3.469-2.7187-1.281 2.1875-2.188zm-7.4688.094l.2188 2.219-.375-.25v-.03l.1562-1.937zm1 .219l.3125 2.6568-.8437-.5.5312-2.156zm15.8125.063v3l-2.7187-1.156 2.7187-1.844zm.2188.031l2.7812 2.031-2.7812.938v-2.969zm8.6562.187l-.6875 3.5-1.8437-2.375 2.5312-1.125zm.1563.0937l1.6875 2.406-2.3438 1.094.6563-3.5zm-22.875.125l2 1.437-1.4688 1.75-.5312-3.187zm-.1875.094l.5 3.156-1.7188-.969 1.2188-2.187zm27.7187.094l-.2187 2.593-.625-1.937.8437-.6563zm-19.5937.25l2.8125 1.031-2.4063 2.531-.4062-3.562zm-.1875.031l.375 3.594-2.75-1.25 2.375-2.344zm12.1562.531l-.7812 3.375-1.9375-2.656 2.7187-.719zm6.5.063l-.7187 3.093-.875-1.844 1.5937-1.25zm-6.3125.031l1.8125 2.406-2.625.968.8125-3.375zm6.5.062l.6563 2.094-1.3438.937.6875-3.031zm-29.6875.3126l.375.25v1.8756l-.375-2.125zm5.375.125l2.7188 1.281-1.6875 2.031-1.0313-3.3123zm-.1875.031l1.0313 3.281-2.5313-1.5 1.5-1.781zm9 0l2.6875 1.125-1.9375 2.2187-.75-3.344zm-.25.031l.8125 3.375-3.1875-.844 2.375-2.531zm6.0313.156l-1.2813 3.313-1.5-2.344 2.7813-.969zm.1875.063l1.9062 2.656-3.1875.687 1.2813-3.344zm-19.5.031l.8125.469v.031l-.1875 2.156-.625-2.656zm26.9687.594l-1 3.218-1.3125-2.125 2.3125-1.094zm.1875.031l.9063 1.844v.031l-1.875 1.281.9687-3.156zm-27.2187.062l.5625 2.375-.5938-.344v-.031l.0312-2zm1.1875 0l1.625.875-.6563 1.625-.9687-2.5zm-.125.156l.9375 2.5-1.1875-.156.25-2.344zm15.375.125l1.5312 2.375-3.5-.187 1.9688-2.188zm-8.625.125l2.7812 1.25-1.9375 1.875-.8437-3.125zm-.1875.063l.875 3.093-2.5625-1.063 1.6875-2.031zm22.0937.437l-.625 2.437-.75-1.469 1.375-.969zm-26.625.156l2.5 1.5-1.5 1.656-1-3.156zm21.3438.031l-1.125 3.031-1.5-2.063 2.625-.9685zm-21.5.031l.9062 3-1.5625-1.375.6563-1.625zm21.6875.062l1.2812 2.125-2.4062.906 1.125-3.031zm-13.875.625l1.25 2.969-3.1875-1.0936 1.9375-1.875zm.2187 0l3.1563.8127-1.9063 2.156-1.25-2.969zm17.25.25l.7813 1.531v.031l-1.9688 1.282c.0404-.102.0674-.2376.125-.375.1355-.324.3282-.7.5-1.094.3013-.691.4944-1.2223.5625-1.375zm-.1875.063c-.097.2174-.2873.588-.5625 1.219-.172.394-.3638.799-.5 1.125-.068.162-.112.293-.1562.406l-.625-1.469 1.8437-1.281zm-6.5937.062l-1.8125 2.9066-1.3438-2.281 3.1563-.625zm.2187 0l1.5 2.094-3.3125.844 1.8125-2.9374zm-21.5937.125l.5625.3128v.031l.3125 1.781-.875-2.125zm14.375.344l3.5312.188-1.9062 2.625-1.625-2.813zm-13.5313.031l1.1563.156v.032l.5 2.2185-1.6563-2.406zm5.0313 0l2.5312 1.063-1.75 2.0937-.7812-3.156zm-.2188.031l.7813 3.125-2.2813-1.437 1.5-1.6872zm8.5313 0l1.625 2.782-3.5-.594 1.875-2.1876zm3.9062.188L332.9088 210l-3.1563.281 1.875-2.593zm-17.2812.094l1.6562 2.406-1.25-.1874h-.0312l-.375-2.219zm1.4375.031l1.5937 1.375-1.0937.969-.5-2.344zm23.5625.531l-1.25 3.0317-1.125-2.157 2.375-.875zm.1875.063l.625 1.5-1.8125 1.375 1.1875-2.875zm-17.25.25l3.2187 1.125-2.0625 2.094-1.1562-3.219zm-.2188.063l1.1875 3.1564-2.9375-1.094 1.75-2.062zm20.25 0l-1.25 2.469-.625-1.219 1.875-1.25zm-5.7187.594l-1.7813 2.969-1.5625-2.156 3.3438-.813zm.2187.031l1.125 2.219-2.9062.75 1.7812-2.9684zm-19.3125.0315l1.0313 2.687-2.1875-1.75 1.1562-.9372zm.2188.062l2.25 1.406-1.1875 1.313-1.0625-2.7185zm8.125.469l3.5.5627-2 2.157-1.5-2.719zm-.2188.031l1.5313 2.75-3.5625-.7182 2.0312-2.031zm14.6563.219l.625 1.188-2.1875 1.344 1.5625-2.531zm-7.4063.031l-1.9062 2.531-1.25-2.187 3.1562-.344zm.1875.031l1.5625 2.188-3.4687.375 1.9062-2.5625zm-18.1875.032l1.25.156.2188 1.906-1.4688-2.062zm25.0938.031l-1.5 2.4376-.2813-1.063 1.7813-1.375zm-23.625.281l2.1562 1.719-1.9062.3128-.25-2.031zm13.1875 0l1.2812 2.25-3.25-.0934 1.9688-2.157zm-9.0313.5318l2.7188.969-1.125.844-1.5938-1.812zm-.5.063l-.1562 1.719-.9063-.562 1.0625-1.1563zm20.6563.594l-1.4375 1.969-.625-.687 2.0625-1.282zm-2.8125.063l-1.125 1.562-1.625-.844 2.75-.719zm.1875.031l.2812 1.094-1.3437.406 1.0625-1.5zm-14.4063.344l3.4688.7187-2.0313 1.594-1.4375-2.313zm-4.9687.281l.1562 2.344-2.125-2.031 1.9688-.313zm4.875 0l1.2812 2.063-1.0625-.125-.2187-1.938zm-4.6563.063l.9063.593-.8125 1.531-.0937-2.125zm15.6563.093l-2.0938 2.094-1.3125-1.75 3.4063-.344zm-7 .3128l3.1562.063-1.7187 1.8432-1.4375-1.906zm-.2188.0314l1.4375 1.906-3.4687-.281 2.0312-1.625zm3.625.094l1.2813 1.687-3.0313.156 1.75-1.844zm7.5.094l.625.687-1.9687 1.375 1.3437-2.062zm-13.1875 1.625l3.25.281-2.375.781-.875-1.063zm6.9063.187l-1.1875 1.156-1.6875-1.031 2.875-.125zm-8.4375 1.875l-.0312.188 1.063.156.031-.219-1.062-.125zm9.2187.031l-1.0625.094v.1874l1.0625-.0936v-.188z" style="text-indent:0;text-align:start;line-height:normal;text-transform:none;block-progression:tb;-inkscape-font-specification:Sans" color="#000" overflow="visible" font-family="Sans"/>
  <g fill="#fffa21">
    <path d="M330.2728 198.2797c0 .2793-.226.5056-.505.5056-.2787 0-.5048-.2263-.5048-.5056 0-.2792.226-.5055.505-.5055.2788 0 .5048.2263.5048.5055zm3.617-1.437c0 .2793-.226.5056-.505.5056-.2787 0-.5048-.2263-.5048-.5056 0-.2792.226-.5055.505-.5055.2788 0 .5048.2263.5048.5055zm2.757-.896c0 .2793-.226.5056-.505.5056-.2787 0-.5048-.2263-.5048-.5056 0-.2792.226-.5055.505-.5055.2788 0 .5048.2263.5048.5055zm2.309-.793c0 .2793-.226.5056-.505.5056-.2787 0-.5048-.2263-.5048-.5056 0-.2792.226-.5055.505-.5055.2788 0 .5048.2263.5048.5055zm1.482-.861c0 .2793-.226.5056-.505.5056-.2787 0-.5048-.2263-.5048-.5056 0-.2792.226-.5055.505-.5055.2788 0 .5048.2263.5048.5055zm.276-1.379c0 .2793-.226.5056-.505.5056-.2787 0-.5048-.2263-.5048-.5056 0-.2792.226-.5055.505-.5055.2788 0 .5048.2263.5048.5055zm-2.585-.517c0 .2793-.226.5056-.505.5056-.2787 0-.5048-.2263-.5048-.5056 0-.2792.226-.5055.505-.5055.2788 0 .5048.2263.5048.5055zm.62-1.171c0 .2793-.226.5056-.505.5056-.2787 0-.5048-.2263-.5048-.5056 0-.2792.226-.5055.505-.5055.2788 0 .5048.2263.5048.5055z"/>
    <path d="M338.4738 190.4667c0 .2793-.226.5056-.505.5056-.2787 0-.5048-.2263-.5048-.5056 0-.2792.226-.5055.505-.5055.2788 0 .5048.2263.5048.5055zm-2.516.035c0 .2793-.226.5056-.505.5056-.2787 0-.5048-.2263-.5048-.5056 0-.2792.226-.5055.505-.5055.2788 0 .5048.2263.5048.5055zm-.138-1.241c0 .2793-.226.5056-.505.5056-.2787 0-.5048-.2263-.5048-.5056 0-.2792.226-.5055.505-.5055.2788 0 .5048.2263.5048.5055z"/>
    <path d="M335.5438 188.6057c0 .2793-.226.5056-.505.5056-.2787 0-.5048-.2263-.5048-.5056 0-.2792.226-.5055.505-.5055.2788 0 .5048.2263.5048.5055zm-2.343.173c0 .2793-.226.5056-.505.5056-.2787 0-.5048-.2263-.5048-.5056 0-.2792.226-.5055.505-.5055.2788 0 .5048.2263.5048.5055zm-1.758-.827c0 .2793-.226.5056-.505.5056-.2787 0-.5048-.2263-.5048-.5056 0-.2792.226-.5055.505-.5055.2788 0 .5048.2263.5048.5055zm1.413-.414c0 .2793-.226.5056-.505.5056-.2787 0-.5048-.2263-.5048-.5056 0-.2792.226-.5055.505-.5055.2788 0 .5048.2263.5048.5055zm-2.688 1.516c0 .2793-.226.5056-.505.5056-.2787 0-.5048-.2263-.5048-.5056 0-.2792.226-.5055.505-.5055.2788 0 .5048.2263.5048.5055zm-.276-1.309c0 .2793-.226.5056-.505.5056-.2787 0-.5048-.2263-.5048-.5056 0-.2792.226-.5055.505-.5055.2788 0 .5048.2263.5048.5055z"/>
    <path d="M329.3058 186.9867c0 .2793-.226.5056-.505.5056-.2787 0-.5048-.2263-.5048-.5056 0-.2792.226-.5055.505-.5055.2788 0 .5048.2263.5048.5055zm-3.239.275c0 .2793-.226.5056-.505.5056-.2787 0-.5048-.2263-.5048-.5056 0-.2792.226-.5055.505-.5055.2788 0 .5048.2263.5048.5055zm-2.929.655c0 .2793-.226.5056-.505.5056-.2787 0-.5048-.2263-.5048-.5056 0-.2792.226-.5055.505-.5055.2788 0 .5048.2263.5048.5055z"/>
    <path d="M323.5168 188.7437c0 .2793-.226.5056-.505.5056-.2787 0-.5048-.2263-.5048-.5056 0-.2792.226-.5055.505-.5055.2788 0 .5048.2263.5048.5055zm3.205-.31c0 .2793-.226.5056-.505.5056-.2787 0-.5048-.2263-.5048-.5056 0-.2792.226-.5055.505-.5055.2788 0 .5048.2263.5048.5055zm.517 1.861c0 .2793-.226.5056-.505.5056-.2787 0-.5048-.2263-.5048-.5056 0-.2792.226-.5055.505-.5055.2788 0 .5048.2263.5048.5055zm-3.309-.241c0 .2793-.226.5056-.505.5056-.2787 0-.5048-.2263-.5048-.5056 0-.2792.226-.5055.505-.5055.2788 0 .5048.2263.5048.5055zm-2.24 1.723c0 .2793-.226.5056-.505.5056-.2787 0-.5048-.2263-.5048-.5056 0-.2792.226-.5055.505-.5055.2788 0 .5048.2263.5048.5055zm-.793-1.172c0 .2793-.226.5056-.505.5056-.2787 0-.5048-.2263-.5048-.5056 0-.2792.226-.5055.505-.5055.2788 0 .5048.2263.5048.5055zm-.758-.861c0 .2793-.226.5056-.505.5056-.2787 0-.5048-.2263-.5048-.5056 0-.2792.226-.5055.505-.5055.2788 0 .5048.2263.5048.5055zm-2.584 2.171c0 .2793-.226.5056-.505.5056-.2787 0-.5048-.2263-.5048-.5056 0-.2792.226-.5055.505-.5055.2788 0 .5048.2263.5048.5055z"/>
    <path d="M317.8648 192.4317c0 .2793-.226.5056-.505.5056-.2787 0-.5048-.2263-.5048-.5056 0-.2792.226-.5055.505-.5055.2788 0 .5048.2263.5048.5055zm1.034.827c0 .2793-.226.5056-.505.5056-.2787 0-.5048-.2263-.5048-.5056 0-.2792.226-.5055.505-.5055.2788 0 .5048.2263.5048.5055zm-2.378 1.999c0 .2793-.226.5056-.505.5056-.2787 0-.5048-.2263-.5048-.5056 0-.2792.226-.5055.505-.5055.2788 0 .5048.2263.5048.5055zm-.793-1.034c0 .2793-.226.5056-.505.5056-.2787 0-.5048-.2263-.5048-.5056 0-.2792.226-.5055.505-.5055.2788 0 .5048.2263.5048.5055zm5.307.034c0 .2793-.226.5056-.505.5056-.2787 0-.5048-.2263-.5048-.5056 0-.2792.226-.5055.505-.5055.2788 0 .5048.2263.5048.5055zm3.102-2.033c0 .2793-.226.5056-.505.5056-.2787 0-.5048-.2263-.5048-.5056 0-.2792.226-.5055.505-.5055.2788 0 .5048.2263.5048.5055zm2.929.999c0 .2793-.226.5056-.505.5056-.2787 0-.5048-.2263-.5048-.5056 0-.2792.226-.5055.505-.5055.2788 0 .5048.2263.5048.5055zm3.24-1.619c0 .2793-.226.5056-.505.5056-.2787 0-.5048-.2263-.5048-.5056 0-.2792.226-.5055.505-.5055.2788 0 .5048.2263.5048.5055zm2.722-1.138c0 .2793-.226.5056-.505.5056-.2787 0-.5048-.2263-.5048-.5056 0-.2792.226-.5055.505-.5055.2788 0 .5048.2263.5048.5055zm3.102 2.275c0 .2793-.226.5056-.505.5056-.2787 0-.5048-.2263-.5048-.5056 0-.2792.226-.5055.505-.5055.2788 0 .5048.2263.5048.5055zm-2.688.689c0 .2793-.226.5056-.505.5056-.2787 0-.5048-.2263-.5048-.5056 0-.2792.226-.5055.505-.5055.2788 0 .5048.2263.5048.5055zm-3.102 1.275c0 .2793-.226.5056-.505.5056-.2787 0-.5048-.2263-.5048-.5056 0-.2792.226-.5055.505-.5055.2788 0 .5048.2263.5048.5055zm-3.411 1.861c0 .2793-.226.5056-.505.5056-.2787 0-.5048-.2263-.5048-.5056 0-.2792.226-.5055.505-.5055.2788 0 .5048.2263.5048.5055zm-3.033-1.171c0 .2793-.226.5056-.505.5056-.2787 0-.5048-.2263-.5048-.5056 0-.2792.226-.5055.505-.5055.2788 0 .5048.2263.5048.5055zm-3.205 2.033c0 .2793-.226.5056-.505.5056-.2787 0-.5048-.2263-.5048-.5056 0-.2792.226-.5055.505-.5055.2788 0 .5048.2263.5048.5055zm-2.585-.965c0 .2793-.226.5056-.505.5056-.2787 0-.5048-.2263-.5048-.5056 0-.2792.226-.5055.505-.5055.2788 0 .5048.2263.5048.5055zm-4.067.793c0 .2793-.226.5056-.505.5056-.2787 0-.5048-.2263-.5048-.5056 0-.2792.226-.5055.505-.5055.2788 0 .5048.2263.5048.5055z"/>
    <path d="M314.5908 197.9107c0 .2793-.226.5056-.505.5056-.2787 0-.5048-.2263-.5048-.5056 0-.2792.226-.5055.505-.5055.2788 0 .5048.2263.5048.5055zm-1.344 2.585c0 .2793-.226.5056-.505.5056-.2787 0-.5048-.2263-.5048-.5056 0-.2792.226-.5055.505-.5055.2788 0 .5048.2263.5048.5055zm1.068.724c0 .2793-.226.5056-.505.5056-.2787 0-.5048-.2263-.5048-.5056 0-.2792.226-.5055.505-.5055.2788 0 .5048.2263.5048.5055zm-1.31 2.309c0 .2793-.226.5056-.505.5056-.2787 0-.5048-.2263-.5048-.5056 0-.2792.226-.5055.505-.5055.2788 0 .5048.2263.5048.5055zm1.724 1.068c0 .2793-.226.5056-.505.5056-.2787 0-.5048-.2263-.5048-.5056 0-.2792.226-.5055.505-.5055.2788 0 .5048.2263.5048.5055zm-1.103 2.344c0 .2793-.226.5056-.505.5056-.2787 0-.5048-.2263-.5048-.5056 0-.2792.226-.5055.505-.5055.2788 0 .5048.2263.5048.5055zm2.481-4.894c0 .2793-.226.5056-.505.5056-.2787 0-.5048-.2263-.5048-.5056 0-.2792.226-.5055.505-.5055.2788 0 .5048.2263.5048.5055zm-.138-3.377c0 .2793-.226.5056-.505.5056-.2787 0-.5048-.2263-.5048-.5056 0-.2792.226-.5055.505-.5055.2788 0 .5048.2263.5048.5055zm2.103 1.206c0 .2793-.226.5056-.505.5056-.2787 0-.5048-.2263-.5048-.5056 0-.2792.226-.5055.505-.5055.2788 0 .5048.2263.5048.5055zm2.757 1.344c0 .2793-.226.5056-.505.5056-.2787 0-.5048-.2263-.5048-.5056 0-.2792.226-.5055.505-.5055.2788 0 .5048.2263.5048.5055zm3.101-2.619c0 .2793-.226.5056-.505.5056-.2787 0-.5048-.2263-.5048-.5056 0-.2792.226-.5055.505-.5055.2788 0 .5048.2263.5048.5055zm3.102 1.344c0 .2793-.226.5056-.505.5056-.2787 0-.5048-.2263-.5048-.5056 0-.2792.226-.5055.505-.5055.2788 0 .5048.2263.5048.5055zm-2.964 2.584c0 .2793-.226.5056-.505.5056-.2787 0-.5048-.2263-.5048-.5056 0-.2792.226-.5055.505-.5055.2788 0 .5048.2263.5048.5055zm3.102 1.172c0 .2793-.226.5056-.505.5056-.2787 0-.5048-.2263-.5048-.5056 0-.2792.226-.5055.505-.5055.2788 0 .5048.2263.5048.5055zm-2.654 2.792c0 .2793-.226.5056-.505.5056-.2787 0-.5048-.2263-.5048-.5056 0-.2792.226-.5055.505-.5055.2788 0 .5048.2263.5048.5055zm-3.102-1.379c0 .2793-.226.5056-.505.5056-.2787 0-.5048-.2263-.5048-.5056 0-.2792.226-.5055.505-.5055.2788 0 .5048.2263.5048.5055zm-3.032-1.447c0 .2793-.226.5056-.505.5056-.2787 0-.5048-.2263-.5048-.5056 0-.2792.226-.5055.505-.5055.2788 0 .5048.2263.5048.5055zm-1.689 2.033c0 .2793-.226.5056-.505.5056-.2787 0-.5048-.2263-.5048-.5056 0-.2792.226-.5055.505-.5055.2788 0 .5048.2263.5048.5055zm-.793 1.93c0 .2793-.226.5056-.505.5056-.2787 0-.5048-.2263-.5048-.5056 0-.2792.226-.5055.505-.5055.2788 0 .5048.2263.5048.5055zm3.619-.241c0 .2793-.226.5056-.505.5056-.2787 0-.5048-.2263-.5048-.5056 0-.2792.226-.5055.505-.5055.2788 0 .5048.2263.5048.5055zm-1.723 1.895c0 .2793-.226.5056-.505.5056-.2787 0-.5048-.2263-.5048-.5056 0-.2792.226-.5055.505-.5055.2788 0 .5048.2263.5048.5055zm-1.31 1.103c0 .2793-.226.5056-.505.5056-.2787 0-.5048-.2263-.5048-.5056 0-.2792.226-.5055.505-.5055.2788 0 .5048.2263.5048.5055zm-1.551-.207c0 .2793-.226.5056-.505.5056-.2787 0-.5048-.2263-.5048-.5056 0-.2792.226-.5055.505-.5055.2788 0 .5048.2263.5048.5055zm1.827 2.619c0 .2793-.226.5056-.505.5056-.2787 0-.5048-.2263-.5048-.5056 0-.2792.226-.5055.505-.5055.2788 0 .5048.2263.5048.5055zm2.274-.379c0 .2793-.226.5056-.505.5056-.2787 0-.5048-.2263-.5048-.5056 0-.2792.226-.5055.505-.5055.2788 0 .5048.2263.5048.5055zm1.379-1.516c0 .2793-.226.5056-.505.5056-.2787 0-.5048-.2263-.5048-.5056 0-.2792.226-.5055.505-.5055.2788 0 .5048.2263.5048.5055zm1.964-2.344c0 .2793-.226.5056-.505.5056-.2787 0-.5048-.2263-.5048-.5056 0-.2792.226-.5055.505-.5055.2788 0 .5048.2263.5048.5055zm3.55 1.276c0 .2793-.226.5056-.505.5056-.2787 0-.5048-.2263-.5048-.5056 0-.2792.226-.5055.505-.5055.2788 0 .5048.2263.5048.5055zm-2.24 2.274c0 .2793-.226.5056-.505.5056-.2787 0-.5048-.2263-.5048-.5056 0-.2792.226-.5055.505-.5055.2788 0 .5048.2263.5048.5055zm3.929.793c0 .2793-.226.5056-.505.5056-.2787 0-.5048-.2263-.5048-.5056 0-.2792.226-.5055.505-.5055.2788 0 .5048.2263.5048.5055zm2.205-2.413c0 .2793-.226.5056-.505.5056-.2787 0-.5048-.2263-.5048-.5056 0-.2792.226-.5055.505-.5055.2788 0 .5048.2263.5048.5055zm-.585 4.584c0 .2793-.226.5056-.505.5056-.2787 0-.5048-.2263-.5048-.5056 0-.2792.226-.5055.505-.5055.2788 0 .5048.2263.5048.5055zm3.48-.138c0 .2793-.226.5056-.505.5056-.2787 0-.5048-.2263-.5048-.5056 0-.2792.226-.5055.505-.5055.2788 0 .5048.2263.5048.5055zm-13.544.172c0 .2793-.226.5056-.505.5056-.2787 0-.5048-.2263-.5048-.5056 0-.2792.226-.5055.505-.5055.2788 0 .5048.2263.5048.5055zm12.062-2.136c0 .2793-.226.5056-.505.5056-.2787 0-.5048-.2263-.5048-.5056 0-.2792.226-.5055.505-.5055.2788 0 .5048.2263.5048.5055zm3.86-.414c0 .2793-.226.5056-.505.5056-.2787 0-.5048-.2263-.5048-.5056 0-.2792.226-.5055.505-.5055.2788 0 .5048.2263.5048.5055zm-1.723-2.412c0 .2793-.226.5056-.505.5056-.2787 0-.5048-.2263-.5048-.5056 0-.2792.226-.5055.505-.5055.2788 0 .5048.2263.5048.5055zm2.033-3.274c0 .2793-.226.5056-.505.5056-.2787 0-.5048-.2263-.5048-.5056 0-.2792.226-.5055.505-.5055.2788 0 .5048.2263.5048.5055zm-3.515.723c0 .2793-.226.5056-.505.5056-.2787 0-.5048-.2263-.5048-.5056 0-.2792.226-.5055.505-.5055.2788 0 .5048.2263.5048.5055zm-3.86-.172c0 .2793-.226.5056-.505.5056-.2787 0-.5048-.2263-.5048-.5056 0-.2792.226-.5055.505-.5055.2788 0 .5048.2263.5048.5055zm2.171-2.447c0 .2793-.226.5056-.505.5056-.2787 0-.5048-.2263-.5048-.5056 0-.2792.226-.5055.505-.5055.2788 0 .5048.2263.5048.5055zm3.068-1.068c0 .2793-.226.5056-.505.5056-.2787 0-.5048-.2263-.5048-.5056 0-.2792.226-.5055.505-.5055.2788 0 .5048.2263.5048.5055zm-3.068-2.275c0 .2793-.226.5056-.505.5056-.2787 0-.5048-.2263-.5048-.5056 0-.2792.226-.5055.505-.5055.2788 0 .5048.2263.5048.5055zm3.516-1.344c0 .2793-.226.5056-.505.5056-.2787 0-.5048-.2263-.5048-.5056 0-.2792.226-.5055.505-.5055.2788 0 .5048.2263.5048.5055zm2.584 2.826c0 .2793-.226.5056-.505.5056-.2787 0-.5048-.2263-.5048-.5056 0-.2792.226-.5055.505-.5055.2788 0 .5048.2263.5048.5055zm.311-3.894c0 .2793-.226.5056-.505.5056-.2787 0-.5048-.2263-.5048-.5056 0-.2792.226-.5055.505-.5055.2788 0 .5048.2263.5048.5055zm2.791-1.034c0 .2793-.226.5056-.505.5056-.2787 0-.5048-.2263-.5048-.5056 0-.2792.226-.5055.505-.5055.2788 0 .5048.2263.5048.5055zm2.102-.758c0 .2793-.226.5056-.505.5056-.2787 0-.5048-.2263-.5048-.5056 0-.2792.226-.5055.505-.5055.2788 0 .5048.2263.5048.5055zm-.103 3.239c0 .2793-.226.5056-.505.5056-.2787 0-.5048-.2263-.5048-.5056 0-.2792.226-.5055.505-.5055.2788 0 .5048.2263.5048.5055zm-2.309 1.207c0 .2793-.226.5056-.505.5056-.2787 0-.5048-.2263-.5048-.5056 0-.2792.226-.5055.505-.5055.2788 0 .5048.2263.5048.5055zm1.861 2.688c0 .2793-.226.5056-.505.5056-.2787 0-.5048-.2263-.5048-.5056 0-.2792.226-.5055.505-.5055.2788 0 .5048.2263.5048.5055zm-2.619 1.24c0 .2793-.226.5056-.505.5056-.2787 0-.5048-.2263-.5048-.5056 0-.2792.226-.5055.505-.5055.2788 0 .5048.2263.5048.5055zm1.482 2.413c0 .2793-.226.5056-.505.5056-.2787 0-.5048-.2263-.5048-.5056 0-.2792.226-.5055.505-.5055.2788 0 .5048.2263.5048.5055zm-2.723.999c0 .2793-.226.5056-.505.5056-.2787 0-.5048-.2263-.5048-.5056 0-.2792.226-.5055.505-.5055.2788 0 .5048.2263.5048.5055zm1.275 2.482c0 .2793-.226.5056-.505.5056-.2787 0-.5048-.2263-.5048-.5056 0-.2792.226-.5055.505-.5055.2788 0 .5048.2263.5048.5055zm2.206-1.689c0 .2793-.226.5056-.505.5056-.2787 0-.5048-.2263-.5048-.5056 0-.2792.226-.5055.505-.5055.2788 0 .5048.2263.5048.5055zm-1.861 3.067c0 .2793-.226.5056-.505.5056-.2787 0-.5048-.2263-.5048-.5056 0-.2792.226-.5055.505-.5055.2788 0 .5048.2263.5048.5055zm.792.862c0 .2793-.226.5056-.505.5056-.2787 0-.5048-.2263-.5048-.5056 0-.2792.226-.5055.505-.5055.2788 0 .5048.2263.5048.5055zm1.827-2.482c0 .2793-.226.5056-.505.5056-.2787 0-.5048-.2263-.5048-.5056 0-.2792.226-.5055.505-.5055.2788 0 .5048.2263.5048.5055zm1.551-2.963c0 .2793-.226.5056-.505.5056-.2787 0-.5048-.2263-.5048-.5056 0-.2792.226-.5055.505-.5055.2788 0 .5048.2263.5048.5055zm-.896-1.793c0 .2793-.226.5056-.505.5056-.2787 0-.5048-.2263-.5048-.5056 0-.2792.226-.5055.505-.5055.2788 0 .5048.2263.5048.5055zm1.654-1.171c0 .2793-.226.5056-.505.5056-.2787 0-.5048-.2263-.5048-.5056 0-.2792.226-.5055.505-.5055.2788 0 .5048.2263.5048.5055zm-.827-2.482c0 .2793-.226.5056-.505.5056-.2787 0-.5048-.2263-.5048-.5056 0-.2792.226-.5055.505-.5055.2788 0 .5048.2263.5048.5055zm1.103-.792c0 .2793-.226.5056-.505.5056-.2787 0-.5048-.2263-.5048-.5056 0-.2792.226-.5055.505-.5055.2788 0 .5048.2263.5048.5055zm-1-2.413c0 .2793-.226.5056-.505.5056-.2787 0-.5048-.2263-.5048-.5056 0-.2792.226-.5055.505-.5055.2788 0 .5048.2263.5048.5055z"/>
    <path d="M343.6088 199.0827c0 .2793-.226.5056-.505.5056-.2787 0-.5048-.2263-.5048-.5056 0-.2792.226-.5055.505-.5055.2788 0 .5048.2263.5048.5055zm-1.207-3.136c0 .2793-.226.5056-.505.5056-.2787 0-.5048-.2263-.5048-.5056 0-.2792.226-.5055.505-.5055.2788 0 .5048.2263.5048.5055zm-17.093 18.782c0 .2793-.226.5056-.505.5056-.2787 0-.5048-.2263-.5048-.5056 0-.2792.226-.5055.505-.5055.2788 0 .5048.2263.5048.5055zm-10.856-7.305c0 .2793-.226.5056-.505.5056-.2787 0-.5048-.2263-.5048-.5056 0-.2792.226-.5055.505-.5055.2788 0 .5048.2263.5048.5055zm-.817-3.456c0 .2793-.226.5056-.505.5056-.2787 0-.5048-.2263-.5048-.5056 0-.2792.226-.5055.505-.5055.2788 0 .5048.2263.5048.5055z"/>
  </g>
  <path fill="#907548" d="M320.6275 213.0563c-.1696.0136-.343.046-.5312.0937v110.8437h5.3437v-17.5h-1.9375V293.025h1.9375v-22.5625h-1.9375v-13h1.9375V236.025h-1.9375V214.65c-.4864-.5318-.9888-1.0215-1.5312-1.3125-.3983-.2137-.835-.3223-1.3438-.2813zm14.9688.4375c-.3278.0546-.6215.1947-.9063.375-.5465.346-1.0396.8955-1.5312 1.4375v20.7187H331.19l.0312 21.4375h1.9375v13h-1.9375l-.0312 22.5625h1.9688v13.4688H331.19v17.5h5.3438V213.5875c-.3396-.081-.6562-.1406-.9375-.0937zm-7.4063 2.4374c-.46-.007-1.158.0343-1.7813.2188-.6096.1804-1.1227.4855-1.4375 1v18.4375h.875v22.2812h-.875v12.1875h.875v23.375h-.875v12.6563h.875v17.9062h4.9375v-17.9062h.9063v-12.6563h-.9063v-23.375h.9063v-12.1875h-.9063v-22.2812h.9063v-18.4063c-.305-.5254-.8992-.8453-1.5938-1.0312-.6945-.186-1.4467-.2258-1.9062-.2188z"/>
  <path d="M320.503 212.6498c-.207.0192-.4275.0565-.6563.125l-.1562.0312v.1562c.0278 37.1458-.0406 74.2918.004 111.4375h17.246v-111.156l-.125-.0313c-.4613-.1382-.893-.158-1.2812-.0937-.3883.0642-.7427.204-1.0625.4063-.6394.4046-1.1783 1.002-1.6875 1.5624l-.0312.0625v20.437h-.687v-18.594c-.387-.667-1.127-1.05-1.875-1.25-.737-.198-1.509-.225-1.999-.225-.489 0-1.205.026-1.876.225-.681.201-1.337.593-1.718 1.25h-.031v18.593h-.656v-21.093l-.062-.063c-.513-.566-1.044-1.124-1.687-1.469-.321-.173-.677-.272-1.062-.313-.193-.021-.387-.019-.594 0zm.125.4062c.5087-.041.9455.0676 1.3438.2813.5424.291 1.0448.7807 1.5312 1.3125v21.375h1.9375v21.4374h-1.9375v13h1.9375v22.5625h-1.9375v13.4688h1.9375v17.5h-5.3438v-110.844c.1882-.0477.3617-.08.5313-.0936zm14.9688.4375c.2813-.047.598.0128.9375.0937v110.4063h-5.3438v-17.5h1.9688v-13.4687h-1.9688l.0312-22.5625h1.9375v-13h-1.9375l-.0312-21.4375h1.9688V215.306c.4916-.5418.9847-1.0914 1.5312-1.4374.2848-.1803.5784-.3204.9063-.375zm-7.4063 2.4375c.4596-.007 1.2117.0328 1.9063.2188.6945.186 1.2888.5058 1.5937 1.0312v18.4063h-.9063v22.2812h.9062v12.1875h-.9062v23.375h.9063v12.6562h-.9063v17.9063h-4.9375v-17.9063h-.875V293.431h.875v-23.375h-.875v-12.1875h.875v-22.2812h-.875v-18.4375c.3148-.5144.828-.8196 1.4375-1 .6233-.1845 1.3215-.2262 1.7813-.2188 0-.2424 0-.2424 0 0zm-4.2813 41.9375h.6563v12.1875h-.6563zm8.1563 0h.6875v12.1875h-.6875zm-8.1563 35.5625h.6563v12.6563h-.6563zm8.1563 0h.6875v12.6563h-.6875z" style="text-indent:0;text-align:start;line-height:normal;text-transform:none;block-progression:tb;-inkscape-font-specification:Sans" color="#000" overflow="visible" font-family="Sans"/>
  <path fill="#dadada" d="M48.0313 226.3038a.05.05 0 0 0 0 .0312.05.05 0 0 0 0 .0312L48 319.2412 45.7813 226.71a.05.05 0 0 0-.0313-.0313.05.05 0 0 0 0-.0312.05.05 0 0 0-.0312 0 .05.05 0 0 0-.0313 0 .05.05 0 0 0 0 .0312.05.05 0 0 0-.0312.0312l2.2187 91.968-4.1562-90.188a.05.05 0 0 0 0-.031.05.05 0 0 0-.0313 0 .05.05 0 0 0-.0312 0 .05.05 0 0 0-.0313.031.05.05 0 0 0 0 .031l3.9375 86.375-4.9687-84.532a.05.05 0 0 0 0-.031.05.05 0 0 0-.0313-.032.05.05 0 0 0-.0312 0 .05.05 0 0 0 0 .031.05.05 0 0 0-.0313 0 .05.05 0 0 0 0 .031l5.125 87.469-6.5-83.594a.05.05 0 0 0 0-.031.05.05 0 0 0-.0312 0 .05.05 0 0 0-.0313 0 .05.05 0 0 0-.0312 0 .05.05 0 0 0 0 .031l6.0937 78.969-6.75-76.375a.05.05 0 0 0 0-.032.05.05 0 0 0-.0312-.032.05.05 0 0 0-.0313 0 .05.05 0 0 0-.0312.031.05.05 0 0 0 0 .031L47 312.96l-7.3125-73.6875a.05.05 0 0 0 0-.0312.05.05 0 0 0-.0312 0 .05.05 0 0 0 0-.0312.05.05 0 0 0-.0313.032.05.05 0 0 0-.0312 0 .05.05 0 0 0 0 .031l7.2187 73.157-7.7187-70.719a.05.05 0 0 0 0-.031.05.05 0 0 0-.0313-.031.05.05 0 0 0-.0312 0 .05.05 0 0 0-.0313.031.05.05 0 0 0 0 .031l7.8125 71.719L38.5 244.366a.05.05 0 0 0 0-.0312.05.05 0 0 0-.0312-.031.05.05 0 0 0-.0313 0 .05.05 0 0 0 0 .031.05.05 0 0 0-.0312 0 .05.05 0 0 0 0 .0314l8.0937 67.375-8.4687-65.125a.05.05 0 0 0 0-.0312.05.05 0 0 0-.0313 0 .05.05 0 0 0-.0312 0 .05.05 0 0 0-.0313 0 .05.05 0 0 0 0 .0313.05.05 0 0 0 0 .0312l8.3438 64.5312-8.625-62.1564a.05.05 0 0 0 0-.0312.05.05 0 0 0-.0313 0 .05.05 0 0 0 0-.031.05.05 0 0 0-.0312 0 .05.05 0 0 0-.0313.032.05.05 0 0 0 0 .031l8.875 64.125L37.25 251.71a.05.05 0 0 0 0-.0312.05.05 0 0 0-.0312 0 .05.05 0 0 0-.0313 0 .05.05 0 0 0-.0312.0312.05.05 0 0 0 0 .0312l8.9687 60.125-9.1875-57.7188a.05.05 0 0 0-.0312-.0312.05.05 0 0 0-.0313-.0312.05.05 0 0 0-.0312.0312.05.05 0 0 0-.0313.0312l9.2188 57.9688-9.375-55.4063a.05.05 0 0 0 0-.032.05.05 0 0 0-.0313 0 .05.05 0 0 0 0-.031.05.05 0 0 0-.0312 0 .05.05 0 0 0 0 .031.05.05 0 0 0-.0313 0 .05.05 0 0 0 0 .031L48 324.366a.05.05 0 0 0 .0313 0 .05.05 0 0 0 0 .031.05.05 0 0 0 .0312 0 .05.05 0 0 0 .0313 0 .05.05 0 0 0 .0312-.031l11.4375-67.656a.05.05 0 0 0 0-.0312.05.05 0 0 0-.0312 0 .05.05 0 0 0 0-.0312.05.05 0 0 0-.0313 0 .05.05 0 0 0 0 .0312.05.05 0 0 0-.0312 0 .05.05 0 0 0 0 .0312l-9.375 55.4063 9.2187-57.9688a.05.05 0 0 0-.0312-.0312.05.05 0 0 0-.0313-.0312.05.05 0 0 0-.0312.032.05.05 0 0 0-.0313.031L50 311.867l8.9688-60.125a.05.05 0 0 0 0-.0312.05.05 0 0 0-.0313-.031.05.05 0 0 0-.0312 0 .05.05 0 0 0-.0313 0 .05.05 0 0 0 0 .031l-9.1875 61.438 8.875-64.125a.05.05 0 0 0 0-.031.05.05 0 0 0-.0312-.0313.05.05 0 0 0-.0313 0 .05.05 0 0 0 0 .031.05.05 0 0 0-.0312 0 .05.05 0 0 0 0 .031l-8.625 62.156 8.3437-64.531a.05.05 0 0 0 0-.031.05.05 0 0 0 0-.0313.05.05 0 0 0-.0312 0 .05.05 0 0 0-.0313 0 .05.05 0 0 0-.0312 0 .05.05 0 0 0 0 .031l-8.4688 65.125 8.0938-67.375a.05.05 0 0 0 0-.0312.05.05 0 0 0-.0313 0 .05.05 0 0 0 0-.0312.05.05 0 0 0-.0312 0 .05.05 0 0 0-.0313.0314.05.05 0 0 0 0 .031l-8.3125 69.0625 7.8125-71.719a.05.05 0 0 0 0-.031.05.05 0 0 0-.0312-.0312.05.05 0 0 0-.0313 0 .05.05 0 0 0-.0312.0316.05.05 0 0 0 0 .031l-7.7188 70.719 7.2188-73.156a.05.05 0 0 0 0-.031.05.05 0 0 0-.0313 0 .05.05 0 0 0 0-.031.05.05 0 0 0-.0312 0 .05.05 0 0 0 0 .032.05.05 0 0 0-.0313 0 .05.05 0 0 0 0 .031L49.125 312.96l6.7188-76.125a.05.05 0 0 0 0-.031.05.05 0 0 0 0-.0313.05.05 0 0 0-.0313 0 .05.05 0 0 0-.0312 0 .05.05 0 0 0 0 .0312.05.05 0 0 0-.0313 0 .05.05 0 0 0 0 .031L49 313.21l6.0938-78.9686a.05.05 0 0 0 0-.0312.05.05 0 0 0-.0313 0 .05.05 0 0 0-.0312 0 .05.05 0 0 0-.0313 0 .05.05 0 0 0 0 .0312l-6.5 83.5937 5.125-87.468a.05.05 0 0 0 0-.031.05.05 0 0 0-.0312 0 .05.05 0 0 0 0-.031.05.05 0 0 0-.0313 0 .05.05 0 0 0-.0312.032.05.05 0 0 0 0 .031l-4.9688 84.531L52.5 228.523a.05.05 0 0 0 0-.031.05.05 0 0 0-.0312-.0314.05.05 0 0 0-.0313 0 .05.05 0 0 0-.0312 0 .05.05 0 0 0 0 .0313L48.25 318.679l2.2188-91.9687a.05.05 0 0 0 0-.031.05.05 0 0 0-.0313 0 .05.05 0 0 0 0-.031.05.05 0 0 0-.0312 0 .05.05 0 0 0-.0313 0 .05.05 0 0 0 0 .031.05.05 0 0 0-.0312.031L48.125 319.148v-92.7814a.05.05 0 0 0 0-.0312.05.05 0 0 0-.0312 0 .05.05 0 0 0 0-.031.05.05 0 0 0-.0313 0 .05.05 0 0 0-.0312 0z" style="text-indent:0;text-align:start;line-height:normal;text-transform:none;block-progression:tb;-inkscape-font-specification:Sans" color="#000" overflow="visible" font-family="Sans"/>
  <path fill="#fafafa" d="M48.063 222.6815s-1.2607-.004-1.8598.1645c-.9527.268-1.8657.7282-2.6602 1.3182-1.1345.8423-2.1097 1.9204-2.9 3.0916-.9356 1.3867-1.5165 2.9893-2.109 4.5536-.682 1.8-1.161 3.672-1.6537 5.533-.515 1.945-.9498 3.9115-1.3603 5.8815-.407 1.953-.777 3.915-1.0925 5.885-.413 2.58-.7474 5.173-1.0463 7.769-.8345 7.247-1.4273 14.52-2.085 21.785-.8893 9.822-1.7367 19.647-2.5165 29.478-.4286 5.404-1.1885 16.22-1.1885 16.22h3.6605s3.2784-45.126 5.3552-67.652c.079-.86.166-1.719.271-2.576.099-.815.223-1.627.339-2.44.135-.95.271-1.899.415-2.847.103-.679.198-1.359.321-2.034.14-.772.312-1.538.474-2.305.173-.815.345-1.63.533-2.441.22-.952.449-1.902.696-2.847.213-.817.448-1.628.678-2.44.217-.77.407-1.547.66-2.305.474-1.423.929-2.864 1.603-4.203.361-.718.771-1.426 1.296-2.034.497-.575 1.037-1.171 1.727-1.491.747-.347 2.44-.389 2.44-.389s1.693.041 2.44.389c.689.32 1.229.916 1.726 1.491.526.608.935 1.315 1.297 2.033.674 1.339 1.129 2.78 1.603 4.203.252.758.443 1.536.66 2.305.229.812.464 1.623.678 2.44.246.945.475 1.895.696 2.847.187.811.36 1.626.533 2.44.162.767.334 1.533.474 2.304.123.675.218 1.355.321 2.033.144.948.28 1.897.415 2.847.116.813.239 1.625.339 2.44.104.857.192 1.716.271 2.576 2.077 22.525 5.355 67.651 5.355 67.651h3.66s-.76-10.816-1.188-16.22c-.78-9.831-1.628-19.657-2.517-29.479-.658-7.265-1.251-14.538-2.085-21.786-.299-2.596-.634-5.189-1.047-7.769-.315-1.97-.685-3.932-1.092-5.885-.41-1.97-.845-3.937-1.36-5.882-.492-1.861-.971-3.733-1.653-5.533-.593-1.565-1.173-3.167-2.109-4.554-.79-1.171-1.766-2.25-2.9-3.092-.794-.59-1.708-1.05-2.66-1.318-.599-.169-1.86-.165-1.86-.165z"/>
  <path fill="#191919" d="M9.4995 324.3h365.801L192.298 427.5z"/>
  <g fill="#e0ebea">
    <path d="M147.5005 342.485c-.3344-.579-.1595-1.2314.4196-1.5657l2.565-1.4807c2.896-1.6717 6.11-.8803 7.639 1.767s.69 5.779-2.289 7.4985l-2.564 1.481c-.579.335-1.231.16-1.566-.419l-4.203-7.28zm7.3177 4.2686c1.6545-.9553 2.144-2.782 1.2365-4.354-.9552-1.6545-2.782-2.144-4.4366-1.1887l-1.571.907 3.248 5.625 1.572-.908zm76.5798-8.575c.3343-.579.9868-.754 1.566-.4195.579.335.7538.987.4194 1.566l-3.7254 6.453 3.8054 2.197c.4964.287.6712.939.3846 1.436s-.939.671-1.4354.385l-4.798-2.77c-.5792-.334-.754-.986-.4197-1.566l4.203-7.28z"/>
    <circle cx="786.3" cy="366.7" r="2.3" transform="matrix(.955 0 0 .955 -480.621 1.629)"/>
    <circle cx="622.8" cy="366.7" r="2.3" transform="matrix(.955 0 0 .955 -480.621 1.629)"/>
    <path d="M188.0536 343.322l3.439-7.833c.2865-.5732.6686-.8598 1.2417-.8598h.0955c.5732 0 1.0508.2866 1.242.8597l3.4388 7.833c.0955.191.0955.286.0955.477 0 .573-.477 1.051-1.05 1.051-.477 0-.859-.287-1.051-.764l-.668-1.529h-4.394l-.669 1.624c-.191.382-.573.668-1.05.668-.573 0-1.05-.478-1.05-1.051.287-.191.287-.382.382-.478zm6.1136-2.7702l-1.3373-3.248-1.338 3.248h2.674z"/>
    <path d="M159.5 353.9688a1.7502 1.7502 0 0 0-1.375 2.875l27.1563 34.125-63.7813-36.75a1.7636 1.7636 0 1 0-1.75 3.0625l71.5 41.1875a1.7502 1.7502 0 0 0 .0937.0625 1.7502 1.7502 0 0 0 .0937.0625 1.7502 1.7502 0 0 0 .0625.0312 1.7502 1.7502 0 0 0 .093.0625 1.7502 1.7502 0 0 0 .062.0312 1.7502 1.7502 0 0 0 .344.125 1.7502 1.7502 0 0 0 .093.0312 1.7502 1.7502 0 0 0 .093 0 1.7502 1.7502 0 0 0 .312 0 1.7502 1.7502 0 0 0 .375-.063 1.7502 1.7502 0 0 0 .218-.063 1.7502 1.7502 0 0 0 .093-.063 1.7502 1.7502 0 0 0 .031 0 1.7502 1.7502 0 0 0 .062-.063l.125-.063a1.7502 1.7502 0 0 0 .094-.063 1.7502 1.7502 0 0 0 .062-.031l71.469-41.188a1.7636 1.7636 0 1 0-1.75-3.063l-63.75 36.75 27.156-34.125a1.757 1.757 0 1 0-2.75-2.188l-29.78 37.438v-36.34a1.7502 1.7502 0 1 0-3.5 0v36.343l-29.812-37.437a1.7502 1.7502 0 0 0-1.344-.688z" style="text-indent:0;text-align:start;line-height:normal;text-transform:none;block-progression:tb;-inkscape-font-specification:Sans" color="#000" overflow="visible" font-family="Sans"/>
  </g>
  <path fill="#e0ebea" d="M381.4 108L195.8.9c-2.1-1.2-4.7-1.2-6.8 0L3.4 108c-2.1 1.2-3.4 3.5-3.4 5.9v214.3c0 2.4 1.3 4.7 3.4 5.9L189 441.2c1.1.6 2.2.9 3.4.9 1.2 0 2.4-.3 3.4-.9l185.6-107.1c2.1-1.2 3.4-3.5 3.4-5.9V113.9c0-2.4-1.3-4.7-3.4-5.9zm-10.1 216.3L192.4 427.5 13.7 324.3l-.3-206.5 179-103.2 178.8 103.2z"/>
</svg>
