<?xml version="1.0" encoding="UTF-8" standalone="no"?>
<svg width="386px" height="443px" viewBox="0 0 386 443" version="1.1" xmlns="http://www.w3.org/2000/svg" xmlns:xlink="http://www.w3.org/1999/xlink" xmlns:sketch="http://www.bohemiancoding.com/sketch/ns">
    <!--
      The MIT License (MIT)
      
      Copyright (c) 2014 Alan Shaw
      
      Permission is hereby granted, free of charge, to any person obtaining a copy
      of this software and associated documentation files (the "Software"), to deal
      in the Software without restriction, including without limitation the rights
      to use, copy, modify, merge, publish, distribute, sublicense, and/or sell
      copies of the Software, and to permit persons to whom the Software is
      furnished to do so, subject to the following conditions:
      
      The above copyright notice and this permission notice shall be included in all
      copies or substantial portions of the Software.
      
      THE SOFTWARE IS PROVIDED "AS IS", WITHOUT WARRANTY OF ANY KIND, EXPRESS OR
      IMPLIED, INCLUDING BUT NOT LIMITED TO THE WARRANTIES OF MERCHANTABILITY,
      FITNESS FOR A PARTICULAR PURPOSE AND NONINFRINGEMENT. IN NO EVENT SHALL THE
      AUTHORS OR COPYRIGHT HOLDERS BE LIABLE FOR ANY CLAIM, DAMAGES OR OTHER
      LIABILITY, WHETHER IN AN ACTION OF CONTRACT, TORT OR OTHERWISE, ARISING FROM,
      OUT OF OR IN CONNECTION WITH THE SOFTWARE OR THE USE OR OTHER DEALINGS IN THE
      SOFTWARE.
    -->
    <title>NodeSchool London</title>
    <desc>Created with Sketch.</desc>
    <defs></defs>
    <g id="Page-1" stroke="none" stroke-width="1" fill="none" fill-rule="evenodd" sketch:type="MSPage">
        <g id="nodeschool" sketch:type="MSLayerGroup" transform="translate(1.000000, 0.000000)">
            <g id="Group" sketch:type="MSShapeGroup">
                <path d="M381,108.5 L195.4,1.4 C193.3,0.2 190.7,0.2 188.6,1.4 L3,108.5 C0.9,109.7 -0.4,112 -0.4,114.4 L-0.4,328.7 C-0.4,331.1 0.9,333.4 3,334.6 L188.6,441.7 C189.7,442.3 190.8,442.6 192,442.6 C193.2,442.6 194.4,442.3 195.4,441.7 L381,334.6 C383.1,333.4 384.4,331.1 384.4,328.7 L384.4,114.4 C384.4,112 383.1,109.7 381,108.5 L381,108.5 Z" id="Shape" fill="#D0021B"></path>
                <path d="M369.619785,324.54783 L192.169949,427 L14.6244517,324.54783 L14.6244517,119.54783 L192.169949,17 L369.619785,119.54783 L369.619785,324.54783 Z" id="Shape" fill="#E0E0E0"></path>
                <g id="Wheel" transform="translate(143.000000, 108.000000)">
                    <path d="M161,188 L161.529785,194.222656 L169.882812,189.423828 L169.882812,182.762695 L161,188 Z" id="Rectangle-21" fill="#D0021B"></path>
                    <ellipse id="Oval-7" stroke="#D0021B" stroke-width="4" cx="105.987113" cy="102.97308" rx="86.6778351" ry="84.0233123"></ellipse>
                    <ellipse id="Oval-8" stroke="#D0021B" stroke-width="4" cx="106.5" cy="102.973357" rx="99.5" ry="96.0266426"></ellipse>
                    <g id="Spokes" transform="translate(19.000000, 19.000000)" stroke="#D0021B" stroke-linecap="square">
                        <path d="M4.5,60.5 L92.5,88.5" id="Line-2"></path>
                        <path d="M0.5,74.5 L92.5,88.5" id="Line"></path>
                        <path d="M8.5,44.5 L91.5,87.5" id="Line-2"></path>
                        <path d="M19.5,30.5 L92.5,88.5" id="Line-2"></path>
                        <path d="M31.5,18.5 L92.5,88.5" id="Line-2"></path>
                        <path d="M45.5,9.5 L90.5,83.5" id="Line-3"></path>
                        <path d="M61.5,3.5 L92.5,88.5" id="Line-3"></path>
                        <path d="M77.5,0.5 L92.5,88.5" id="Line-4"></path>
                        <path d="M94.5,0.5 L92.5,88.5" id="Line-5"></path>
                        <path d="M137.5,15.5 L92.5,88.5" id="Line-6"></path>
                        <path d="M150.5,26.5 L92.5,88.5" id="Line-7"></path>
                        <path d="M160.5,40.5 L92.5,88.5" id="Line-8"></path>
                        <path d="M167.5,54.5 L92.5,88.5" id="Line-9"></path>
                        <path d="M170.5,71.5 L92.5,88.5" id="Line-10"></path>
                        <path d="M171.5,86.5 L92.5,88.5" id="Line-11"></path>
                        <path d="M170.5,102.5 L92.5,88.5" id="Line-12"></path>
                        <path d="M165.5,118.5 L92.5,88.5" id="Line-13"></path>
                        <path d="M156.5,132.5 L92.5,88.5" id="Line-14"></path>
                    </g>
                    <g id="Pods">
                        <path d="M19.5,93.5 L8.5,87.5" id="Line" stroke="#D0021B" stroke-linecap="square"></path>
                        <path d="M22.5,79.5 L9.5,81.5" id="Line-2" stroke="#D0021B" stroke-linecap="square"></path>
                        <path d="M50.5,37.5 L39.5,31.5" id="Line-3" stroke="#D0021B" stroke-linecap="square"></path>
                        <path d="M50.5,37.5 L47.5,26.5" id="Line-4" stroke="#D0021B" stroke-linecap="square"></path>
                        <path d="M64.5,28.5 L55.5,21.5" id="Line-4" stroke="#D0021B" stroke-linecap="square"></path>
                        <path d="M80.5,22.5 L72.5,14.5" id="Line-5" stroke="#D0021B" stroke-linecap="square"></path>
                        <path d="M80.5,22.5 L80.5,10.5" id="Line-6" stroke="#D0021B" stroke-linecap="square"></path>
                        <path d="M64.5,28.5 L62.5,17.5" id="Line-5" stroke="#D0021B" stroke-linecap="square"></path>
                        <path d="M96.5,18.5 L90.5,8.5" id="Line-7" stroke="#D0021B" stroke-linecap="square"></path>
                        <path d="M96.5,18.5 L99.5,7.5" id="Line-8" stroke="#D0021B" stroke-linecap="square"></path>
                        <path d="M113.5,18.5 L109.5,7.5" id="Line-9" stroke="#D0021B" stroke-linecap="square"></path>
                        <path d="M113.5,18.5 L118.5,8.5" id="Line-10" stroke="#D0021B" stroke-linecap="square"></path>
                        <path d="M156.5,34.5 L159.5,21.5" id="Line-11" stroke="#D0021B" stroke-linecap="square"></path>
                        <path d="M156.5,34.5 L167.5,28.5" id="Line-12" stroke="#D0021B" stroke-linecap="square"></path>
                        <path d="M170.5,44.5 L175.5,33.5" id="Line-13" stroke="#D0021B" stroke-linecap="square"></path>
                        <path d="M170.5,44.5 L181.5,41.5" id="Line-14" stroke="#D0021B" stroke-linecap="square"></path>
                        <path d="M180.5,58.5 L188.5,48.5" id="Line-15" stroke="#D0021B" stroke-linecap="square"></path>
                        <path d="M181.5,58.5 L192.5,56.5" id="Line-16" stroke="#D0021B" stroke-linecap="square"></path>
                        <path d="M187.5,73.5 L197.5,64.5" id="Line-17" stroke="#D0021B" stroke-linecap="square"></path>
                        <path d="M187.5,73.5 L200.5,72.5" id="Line-18" stroke="#D0021B" stroke-linecap="square"></path>
                        <path d="M191.5,89.5 L204.5,83.5" id="Line-19" stroke="#D0021B" stroke-linecap="square"></path>
                        <path d="M191.5,89.5 L205.5,91.5" id="Line-20" stroke="#D0021B" stroke-linecap="square"></path>
                        <path d="M192.5,105.5 L206.5,102.5" id="Line-21" stroke="#D0021B" stroke-linecap="square"></path>
                        <path d="M192.5,105.5 L205.5,111.5" id="Line-22" stroke="#D0021B" stroke-linecap="square"></path>
                        <path d="M190.5,121.5 L205.5,121.5" id="Line-23" stroke="#D0021B" stroke-linecap="square"></path>
                        <path d="M190.5,121.5 L200.5,129.5" id="Line-24" stroke="#D0021B" stroke-linecap="square"></path>
                        <path d="M185.5,137.5 L200.5,138.5" id="Line-25" stroke="#D0021B" stroke-linecap="square"></path>
                        <path d="M185.5,137.5 L193.5,146.5" id="Line-26" stroke="#D0021B" stroke-linecap="square"></path>
                        <path d="M176.5,152.5 L188.5,155.5" id="Line-27" stroke="#D0021B" stroke-linecap="square"></path>
                        <path d="M176.5,152.5 L182.5,163.5" id="Line-28" stroke="#D0021B" stroke-linecap="square"></path>
                        <path d="M165.5,164.5 L177.5,171.5" id="Line-29" stroke="#D0021B" stroke-linecap="square"></path>
                        <path d="M165.5,164.5 L168.5,176.5" id="Line-30" stroke="#D0021B" stroke-linecap="square"></path>
                        <path d="M3,96 C4.65685425,96 6,94.6568542 6,93 C6,91.3431458 4.65685425,90 3,90 C1.34314575,90 0,91.3431458 0,93 C0,94.6568542 1.34314575,96 3,96 Z" id="Oval-9" fill="#D0021B"></path>
                        <path d="M7,78 C8.65685425,78 10,76.6568542 10,75 C10,73.3431458 8.65685425,72 7,72 C5.34314575,72 4,73.3431458 4,75 C4,76.6568542 5.34314575,78 7,78 Z" id="Oval-10" fill="#D0021B"></path>
                        <circle id="Oval-10" fill="#D0021B" cx="41" cy="25" r="3"></circle>
                        <circle id="Oval-11" fill="#D0021B" cx="56" cy="15" r="3"></circle>
                        <circle id="Oval-12" fill="#D0021B" cx="75" cy="7" r="3"></circle>
                        <circle id="Oval-13" fill="#D0021B" cx="95" cy="3" r="3"></circle>
                        <circle id="Oval-14" fill="#D0021B" cx="114" cy="3" r="3"></circle>
                        <circle id="Oval-14" fill="#D0021B" cx="148" cy="11" r="3"></circle>
                        <circle id="Oval-14" fill="#D0021B" cx="166" cy="21" r="3"></circle>
                        <circle id="Oval-15" fill="#D0021B" cx="182" cy="35" r="3"></circle>
                        <circle id="Oval-16" fill="#D0021B" cx="195" cy="51" r="3"></circle>
                        <circle id="Oval-17" fill="#D0021B" cx="203" cy="67" r="3"></circle>
                        <circle id="Oval-18" fill="#D0021B" cx="209" cy="87" r="3"></circle>
                        <circle id="Oval-19" fill="#D0021B" cx="210" cy="107" r="3"></circle>
                        <circle id="Oval-20" fill="#D0021B" cx="207" cy="127" r="3"></circle>
                        <circle id="Oval-21" fill="#D0021B" cx="201" cy="144" r="3"></circle>
                        <path d="M190,166 C191.656854,166 193,164.656854 193,163 C193,161.343146 191.656854,160 190,160 C188.343146,160 187,161.343146 187,163 C187,164.656854 188.343146,166 190,166 Z" id="Oval-22" fill="#D0021B"></path>
                        <path d="M175,181 C176.656854,181 178,179.656854 178,178 C178,176.343146 176.656854,175 175,175 C173.343146,175 172,176.343146 172,178 C172,179.656854 173.343146,181 175,181 Z" id="Oval-23" fill="#D0021B"></path>
                    </g>
                </g>
                <g id="Clouds" transform="translate(24.000000, 114.000000)" stroke="#D0021B" stroke-width="4">
                    <path d="M72.9917601,7.00392956 C67.0207576,2.58410211 57.3235808,-0.00853068099 52.9275206,0.36762331 C48.4822197,0.747990635 40.9969829,4.17156157 35.4965327,9.61461081 C28.6030145,16.4361905 26.1838781,25.7191174 26.1838781,25.7191174 C26.1838781,25.7191174 17.751456,23.3842709 11.64868,25.7191185 C6.63713948,27.6364727 3.90593111,33.9739465 2.64590109,36.4807908 C1.24771416,39.2625 -1.0761847,47.0895562 0.250030774,51.9589638 C2.03902508,58.5275364 7.94780332,62 7.94780332,62 L97.42134,62 C97.42134,62 101.706324,57.5866087 104.081154,51.9589628 C106.086998,47.2057045 106.311797,41.4251859 105.701075,38.3457147 C105.063771,35.1322115 101.693841,30.7311941 97.4213408,27.3695589 C92.2822918,23.3261162 82.9917601,24.4354089 82.9917601,24.4354089 C82.9917601,24.4354089 80.5690983,12.6127913 72.9917601,7.00392956 Z" id="Rectangle-24" fill="#E0E0E0" transform="translate(52.927521, 31.165791) scale(-1, 1) translate(-52.927521, -31.165791) "></path>
                    <path d="M105.089332,9.82789813 C100.018382,6.42043586 92.4454656,4.58114944 88.7120555,4.87114505 C84.9368271,5.16438892 76.7953594,7.65855746 72.124032,11.8548717 C66.2696238,17.1139629 64.2151414,24.2706276 64.2151414,24.2706276 C64.2151414,24.2706276 57.0537995,22.4705796 51.8709393,24.2706284 C47.6148246,25.7488111 45.2953111,30.6346811 44.2252145,32.5673307 C43.0377865,34.7118871 41.0641858,40.7461495 42.1904912,44.5002153 C43.7098174,49.5642508 48.7279226,52.2413437 48.7279226,52.2413437 L124.714464,52.2413437 C124.714464,52.2413437 128.353541,48.8388433 130.370396,44.5002144 C132.073884,40.835694 132.264798,36.379208 131.746134,34.0050922 C131.204895,31.5276446 129.988262,26.8622775 126.359787,24.2706276 C121.995384,21.1533388 115.148482,20.3143398 115.148482,20.3143398 C115.148482,20.3143398 111.524483,14.1520454 105.089332,9.82789813 Z" id="Rectangle-23" fill="#E0E0E0"></path>
                    <path d="M153.450195,30.8291013 C148.821117,27.7624819 141.908089,26.1071762 138.5,26.3681641 C135.053737,26.6320752 127.6217,28.8767562 123.357422,32.6533201 C118.013154,37.3863531 116.137695,43.8271484 116.137695,43.8271484 C116.137695,43.8271484 109.600378,42.2071563 104.869141,43.8271492 C100.983895,45.1574716 98.866499,49.5546162 97.8896484,51.2939461 C96.8056903,53.223986 95.004065,58.6546511 96.0322265,62.0332039 C97.4191619,66.5906923 102,69 102,69 L171.365234,69 C171.365234,69 174.68721,65.9378461 176.52832,62.0332031 C178.08337,58.7352386 178.257648,54.7245275 177.78418,52.5878906 C177.290103,50.358258 176.179485,46.1595599 172.867188,43.8271484 C168.88309,41.0216769 162.632813,40.2666016 162.632813,40.2666016 C162.632813,40.2666016 159.324601,34.7207113 153.450195,30.8291013 Z" id="Rectangle-22" fill="#E0E0E0"></path>
                    <path d="M19.5,66.5 L23.5,81.5" id="Line" stroke-linecap="square"></path>
                    <path d="M34.5,74.5 L38,87" id="Line-2" stroke-linecap="square"></path>
                    <path d="M48.5,66.5 L52,78" id="Line-2" stroke-linecap="square"></path>
                </g>
                <g id="Building" transform="translate(11.000000, 242.000000)" stroke="#D0021B">
                    <rect id="Rectangle-17" stroke-width="4" fill="#E0E0E0" x="0" y="0" width="72" height="82"></rect>
                    <path d="M60.5,9.5 L60.5,24.5" id="Line" stroke-width="3" stroke-linecap="square"></path>
                    <path d="M48.5,9.5 L48.5,24.5" id="Line-2" stroke-width="3" stroke-linecap="square"></path>
                    <path d="M35.5,9.5 L35.5,24.5" id="Line-2" stroke-width="3" stroke-linecap="square"></path>
                    <path d="M22.5,9.5 L22.5,24.5" id="Line-2" stroke-width="3" stroke-linecap="square"></path>
                    <path d="M10.5,9.5 L10.5,24.5" id="Line-2" stroke-width="3" stroke-linecap="square"></path>
                    <rect id="Rectangle-18" stroke-width="3" fill="#E0E0E0" x="49" y="39" width="12" height="12" rx="3"></rect>
                    <rect id="Rectangle-19" stroke-width="3" fill="#E0E0E0" x="29" y="39" width="12" height="12" rx="3"></rect>
                    <rect id="Rectangle-19" stroke-width="3" fill="#E0E0E0" x="9" y="39" width="12" height="12" rx="3"></rect>
                </g>
                <g id="Tower" transform="translate(79.000000, 91.000000)">
                    <g id="Body" transform="translate(0.000000, 105.000000)">
                        <rect id="Rectangle-1" stroke="#D0021B" stroke-width="4" fill="#E0E0E0" x="0" y="0" width="57" height="135" rx="4"></rect>
                        <path d="M15.5,36.7007299 L15.5,124.729927" id="Line" stroke="#D0021B" stroke-width="3" stroke-linecap="square"></path>
                        <path d="M28.5,36.7007299 L28.5,124.729927" id="Line-2" stroke="#D0021B" stroke-width="3" stroke-linecap="square"></path>
                        <path d="M41.5,36.7007299 L41.5,124.729927" id="Line-2" stroke="#D0021B" stroke-width="3" stroke-linecap="square"></path>
                        <g id="Window" transform="translate(9.000000, 6.890511)" stroke="#D0021B" stroke-width="3">
                            <rect id="Rectangle-2" fill="#E0E0E0" x="0" y="0" width="39" height="22" rx="3"></rect>
                            <path d="M0.5,11.2262774 L38.5,11.2262774" id="Line" stroke-linecap="square"></path>
                            <path d="M9.5,0.467153285 L9.5,21.9854015" id="Line" stroke-linecap="square"></path>
                            <path d="M19.5,0.467153285 L19.5,21.9854015" id="Line" stroke-linecap="square"></path>
                            <path d="M29.5,0.467153285 L29.5,21.9854015" id="Line-2" stroke-linecap="square"></path>
                        </g>
                    </g>
                    <g id="Chimney" transform="translate(6.000000, 0.000000)" stroke="#D0021B">
                        <rect id="Rectangle-3" stroke-width="4" fill="#E0E0E0" x="0" y="95" width="46" height="10"></rect>
                        <path d="M9.95420525,5 L3,95 L43,95 L35.0681636,5 L9.95420525,5 Z" id="Rectangle-5" stroke-width="4" fill="#E0E0E0"></path>
                        <path d="M17.5,16.5 L14.5,86.5" id="Line-2" stroke-width="3" stroke-linecap="square"></path>
                        <path d="M27.5,16.5 L30.5,86.5" id="Line-3" stroke-width="3" stroke-linecap="square"></path>
                        <rect id="Rectangle-5" stroke-width="4" fill="#E0E0E0" x="10" y="0" width="25" height="9" rx="2"></rect>
                    </g>
                </g>
                <g id="Entrance" transform="translate(136.000000, 206.000000)">
                    <rect id="Rectangle-11" stroke="#D0021B" stroke-width="4" fill="#E0E0E0" x="0" y="0" width="116" height="118"></rect>
                    <rect id="Rectangle-12" stroke="#D0021B" stroke-width="3" fill="#E0E0E0" x="7.73333333" y="115" width="101.5" height="7" rx="2"></rect>
                    <rect id="Rectangle-13" stroke="#D0021B" stroke-width="3" fill="#E0E0E0" x="11" y="108" width="94.3666667" height="7" rx="2"></rect>
                    <rect id="Rectangle-14" stroke="#D0021B" stroke-width="3" fill="#E0E0E0" x="14.5" y="100.796462" width="87" height="7" rx="2"></rect>
                    <path d="M2.41666667,37 L114.55,37" id="Line" stroke="#D0021B" stroke-width="4" stroke-linecap="square"></path>
                    <rect id="Rectangle-15" stroke="#D0021B" stroke-width="3" fill="#E0E0E0" x="26.36" y="36" width="10" height="65"></rect>
                    <ellipse id="Oval-3" stroke="#D0021B" stroke-width="3" fill="#E0E0E0" cx="31.4166667" cy="37.5" rx="6.28333333" ry="6.5"></ellipse>
                    <ellipse id="Oval-2" fill="#D0021B" cx="31.4166667" cy="37.3" rx="2.22333333" ry="2.3"></ellipse>
                    <rect id="Rectangle-16" stroke="#D0021B" stroke-width="3" fill="#E0E0E0" x="81" y="37" width="10" height="64"></rect>
                    <ellipse id="Oval-4" stroke="#D0021B" stroke-width="3" fill="#E0E0E0" cx="86.5166667" cy="37.5" rx="6.28333333" ry="6.5"></ellipse>
                    <ellipse id="Oval-2" fill="#D0021B" cx="86.5166667" cy="37.3" rx="2.22333333" ry="2.3"></ellipse>
                    <g id="Sign" transform="translate(7.733333, 12.000000)" fill="#D0021B">
                        <path d="M0.7975,11.6571429 C1.3775,11.6571429 1.8125,11.1428571 1.8125,10.4571429 L1.8125,4.37142857 L6.0175,10.8857143 C6.3075,11.3142857 6.5975,11.6571429 7.105,11.6571429 L7.1775,11.6571429 C7.7575,11.6571429 8.265,11.1428571 8.265,10.3714286 L8.265,1.37142857 C8.265,0.685714286 7.83,0.171428571 7.25,0.171428571 C6.67,0.171428571 6.235,0.685714286 6.235,1.37142857 L6.235,7.2 L2.175,0.857142857 C1.885,0.428571429 1.595,0.0857142857 1.0875,0.0857142857 L0.87,0.0857142857 C0.29,0.0857142857 -0.2175,0.6 -0.2175,1.37142857 L-0.2175,10.3714286 C-0.2175,11.1428571 0.2175,11.6571429 0.7975,11.6571429 L0.7975,11.6571429 Z" id="Shape"></path>
                        <path d="M15.225,11.7428571 C18.1975,11.7428571 20.3725,9.08571429 20.3725,5.91428571 L20.3725,5.91428571 C20.3725,2.65714286 18.27,0.0857142857 15.2975,0.0857142857 C12.325,0.0857142857 10.15,2.74285714 10.15,5.91428571 L10.15,5.91428571 C10.15,9.17142857 12.2525,11.7428571 15.225,11.7428571 L15.225,11.7428571 Z M12.3975,5.91428571 C12.3975,3.94285714 13.5575,2.4 15.2975,2.4 C16.965,2.4 18.1975,4.02857143 18.1975,6 L18.1975,6 C18.1975,7.97142857 17.0375,9.51428571 15.2975,9.51428571 C13.5575,9.42857143 12.3975,7.88571429 12.3975,5.91428571 L12.3975,5.91428571 L12.3975,5.91428571 Z" id="Shape"></path>
                        <path d="M23.2725,11.5714286 L25.955,11.5714286 C29,11.5714286 31.03,9.08571429 31.03,5.91428571 L31.03,5.91428571 C31.03,2.74285714 28.9275,0.257142857 25.955,0.257142857 L23.2725,0.257142857 C22.6925,0.257142857 22.185,0.771428571 22.185,1.54285714 L22.185,10.2857143 C22.2575,11.0571429 22.6925,11.5714286 23.2725,11.5714286 L23.2725,11.5714286 Z M24.36,2.48571429 L25.955,2.48571429 C27.695,2.48571429 28.855,3.85714286 28.855,5.91428571 L28.855,5.91428571 C28.855,7.88571429 27.695,9.34285714 25.955,9.34285714 L24.36,9.34285714 L24.36,2.48571429 L24.36,2.48571429 Z" id="Shape"></path>
                        <path d="M34.0025,11.5714286 L39.3675,11.5714286 C39.875,11.5714286 40.31,11.0571429 40.31,10.4571429 C40.31,9.85714286 39.875,9.34285714 39.3675,9.34285714 L35.0175,9.34285714 L35.0175,6.94285714 L38.6425,6.94285714 C39.15,6.94285714 39.585,6.42857143 39.585,5.82857143 C39.585,5.22857143 39.15,4.71428571 38.6425,4.71428571 L35.0175,4.71428571 L35.0175,2.4 L39.295,2.4 C39.8025,2.4 40.2375,1.88571429 40.2375,1.28571429 C40.2375,0.685714286 39.8025,0.171428571 39.295,0.171428571 L34.0025,0.171428571 C33.4225,0.171428571 32.915,0.685714286 32.915,1.45714286 L32.915,10.2857143 C32.9875,11.0571429 33.4225,11.5714286 34.0025,11.5714286 L34.0025,11.5714286 Z" id="Shape"></path>
                        <path d="M41.9775,10.3714286 C43.065,11.3142857 44.2975,11.7428571 45.6025,11.7428571 C47.705,11.7428571 49.155,10.4571429 49.155,8.22857143 L49.155,8.22857143 C49.155,6.25714286 48.0675,5.4 46.11,4.8 C44.4425,4.28571429 44.0075,4.02857143 44.0075,3.34285714 L44.0075,3.34285714 C44.0075,2.82857143 44.4425,2.31428571 45.24,2.31428571 C45.8925,2.31428571 46.545,2.57142857 47.27,3.08571429 C47.415,3.17142857 47.6325,3.25714286 47.7775,3.25714286 C48.3575,3.25714286 48.7925,2.74285714 48.7925,2.14285714 C48.7925,1.62857143 48.575,1.28571429 48.3575,1.11428571 C47.4875,0.428571429 46.4725,0.0857142857 45.3125,0.0857142857 C43.355,0.0857142857 41.9775,1.45714286 41.9775,3.51428571 L41.9775,3.51428571 C41.9775,5.74285714 43.21,6.42857143 45.1675,6.94285714 C46.7625,7.45714286 47.125,7.71428571 47.125,8.4 L47.125,8.4 C47.125,9.08571429 46.6175,9.42857143 45.7475,9.42857143 C44.805,9.42857143 44.0075,9 43.2825,8.4 C43.1375,8.31428571 42.92,8.14285714 42.7025,8.14285714 C42.1225,8.14285714 41.6875,8.65714286 41.6875,9.25714286 C41.5425,9.85714286 41.76,10.2 41.9775,10.3714286 L41.9775,10.3714286 Z" id="Shape"></path>
                        <path d="M55.39,11.7428571 C56.9125,11.7428571 57.9275,11.2285714 58.7975,10.2857143 C59.015,10.1142857 59.16,9.77142857 59.16,9.42857143 C59.16,8.82857143 58.725,8.31428571 58.145,8.31428571 C57.9275,8.31428571 57.71,8.4 57.4925,8.57142857 C56.9125,9.17142857 56.3325,9.42857143 55.39,9.42857143 C53.7225,9.42857143 52.635,7.8 52.635,5.82857143 L52.635,5.82857143 C52.635,3.85714286 53.795,2.31428571 55.39,2.31428571 C56.115,2.31428571 56.7675,2.57142857 57.3475,3.08571429 C57.4925,3.17142857 57.71,3.34285714 58,3.34285714 C58.58,3.34285714 59.015,2.82857143 59.015,2.14285714 C59.015,1.71428571 58.7975,1.37142857 58.58,1.11428571 C57.7825,0.428571429 56.84,0 55.39,0 C52.4175,0 50.3875,2.65714286 50.3875,5.82857143 L50.3875,5.82857143 C50.5325,9.17142857 52.635,11.7428571 55.39,11.7428571 L55.39,11.7428571 Z" id="Shape"></path>
                        <path d="M62.1325,11.6571429 C62.7125,11.6571429 63.22,11.1428571 63.22,10.3714286 L63.22,6.94285714 L67.135,6.94285714 L67.135,10.3714286 C67.135,11.0571429 67.57,11.6571429 68.2225,11.6571429 C68.8025,11.6571429 69.31,11.1428571 69.31,10.3714286 L69.31,1.37142857 C69.31,0.685714286 68.875,0.0857142857 68.2225,0.0857142857 C67.6425,0.0857142857 67.135,0.6 67.135,1.37142857 L67.135,4.71428571 L63.22,4.71428571 L63.22,1.37142857 C63.22,0.685714286 62.785,0.0857142857 62.1325,0.0857142857 C61.5525,0.0857142857 61.045,0.6 61.045,1.37142857 L61.045,10.3714286 C61.045,11.1428571 61.48,11.6571429 62.1325,11.6571429 L62.1325,11.6571429 Z" id="Shape"></path>
                        <path d="M76.125,11.7428571 C79.0975,11.7428571 81.2,9.08571429 81.2,5.91428571 L81.2,5.91428571 C81.2,2.65714286 79.0975,0.0857142857 76.125,0.0857142857 C73.1525,0.0857142857 70.9775,2.74285714 70.9775,5.91428571 L70.9775,5.91428571 C71.05,9.17142857 73.1525,11.7428571 76.125,11.7428571 L76.125,11.7428571 Z M73.225,5.91428571 C73.225,3.94285714 74.385,2.4 76.125,2.4 C77.7925,2.4 79.025,4.02857143 79.025,6 L79.025,6 C79.025,7.97142857 77.865,9.51428571 76.125,9.51428571 C74.4575,9.42857143 73.225,7.88571429 73.225,5.91428571 L73.225,5.91428571 L73.225,5.91428571 Z" id="Shape"></path>
                        <path d="M87.7975,11.7428571 C90.77,11.7428571 92.945,9.08571429 92.945,5.91428571 L92.945,5.91428571 C92.945,2.65714286 90.8425,0.0857142857 87.87,0.0857142857 C84.8975,0.0857142857 82.7225,2.74285714 82.7225,5.91428571 L82.7225,5.91428571 C82.7225,9.17142857 84.825,11.7428571 87.7975,11.7428571 L87.7975,11.7428571 Z M84.8975,5.91428571 C84.8975,3.94285714 86.0575,2.4 87.7975,2.4 C89.465,2.4 90.6975,4.02857143 90.6975,6 L90.6975,6 C90.6975,7.97142857 89.5375,9.51428571 87.7975,9.51428571 C86.13,9.42857143 84.8975,7.88571429 84.8975,5.91428571 L84.8975,5.91428571 L84.8975,5.91428571 Z" id="Shape"></path>
                        <path d="M95.845,11.5714286 L100.775,11.5714286 C101.2825,11.5714286 101.7175,11.0571429 101.7175,10.4571429 C101.7175,9.85714286 101.2825,9.34285714 100.775,9.34285714 L96.86,9.34285714 L96.86,1.45714286 C96.86,0.771428571 96.425,0.171428571 95.7725,0.171428571 C95.1925,0.171428571 94.685,0.685714286 94.685,1.45714286 L94.685,10.2857143 C94.7575,11.0571429 95.265,11.5714286 95.845,11.5714286 L95.845,11.5714286 Z" id="Shape"></path>
                    </g>
                </g>
                <g id="Tower-2" transform="translate(252.000000, 91.000000)">
                    <g id="Body" transform="translate(0.000000, 105.000000)">
                        <rect id="Rectangle-1" stroke="#D0021B" stroke-width="4" fill="#E0E0E0" x="0" y="0" width="57" height="135" rx="4"></rect>
                        <path d="M15.5,36.7007299 L15.5,124.729927" id="Line" stroke="#D0021B" stroke-width="3" stroke-linecap="square"></path>
                        <path d="M28.5,36.7007299 L28.5,124.729927" id="Line-2" stroke="#D0021B" stroke-width="3" stroke-linecap="square"></path>
                        <path d="M41.5,36.7007299 L41.5,124.729927" id="Line-2" stroke="#D0021B" stroke-width="3" stroke-linecap="square"></path>
                        <g id="Window" transform="translate(9.000000, 6.890511)" stroke="#D0021B" stroke-width="3">
                            <rect id="Rectangle-2" fill="#E0E0E0" x="0" y="0" width="39" height="22" rx="3"></rect>
                            <path d="M0.5,11.2262774 L38.5,11.2262774" id="Line" stroke-linecap="square"></path>
                            <path d="M9.5,0.467153285 L9.5,21.9854015" id="Line" stroke-linecap="square"></path>
                            <path d="M19.5,0.467153285 L19.5,21.9854015" id="Line" stroke-linecap="square"></path>
                            <path d="M29.5,0.467153285 L29.5,21.9854015" id="Line-2" stroke-linecap="square"></path>
                        </g>
                    </g>
                    <g id="Chimney" transform="translate(6.000000, 0.000000)" stroke="#D0021B">
                        <rect id="Rectangle-3" stroke-width="4" fill="#E0E0E0" x="0" y="95" width="46" height="10"></rect>
                        <path d="M9.95420525,5 L3,95 L43,95 L35.0681636,5 L9.95420525,5 Z" id="Rectangle-5" stroke-width="4" fill="#E0E0E0"></path>
                        <path d="M17.5,16.5 L14.5,86.5" id="Line-2" stroke-width="3" stroke-linecap="square"></path>
                        <path d="M27.5,16.5 L30.5,86.5" id="Line-3" stroke-width="3" stroke-linecap="square"></path>
                        <rect id="Rectangle-5" stroke-width="4" fill="#E0E0E0" x="10" y="0" width="25" height="9" rx="2"></rect>
                    </g>
                </g>
                <g id="Surf" transform="translate(309.000000, 308.000000)" stroke="#D0021B" stroke-width="4" stroke-linecap="square">
                    <path d="M0.457746479,15 L64.5422535,15" id="Line"></path>
                    <path d="M0.457746479,2 C0.457746479,2 10.9352534,-0.415039062 16.1740069,-0.415039062 C24.1726314,-0.415039062 36.1094727,4.85996059 46.1385206,5.45898438 C56.324926,6.06740695 64.5422535,2 64.5422535,2" id="Line-2"></path>
                </g>
                <path d="M268.8,78.3 L192.9,34.5 L192.9,34.5 C192.8,34.4 192.7,34.4 192.6,34.4 L192.6,34.4 L192.5,34.4 L192.4,34.4 L192.1,34.4 C192.1,34.4 192.1,34.4 192,34.4 L191.9,34.4 L191.5,34.4 L191.5,34.4 C191.4,34.4 191.3,34.5 191.2,34.5 L191.2,34.5 L116.5,77.6 C115.6,78.1 115.3,79.2 115.8,80.1 C116.3,81 117.5,81.3 118.3,80.8 L184.7,42.5 L156.5,78.5 C155.9,79.3 156,80.5 156.8,81.1 C157.6,81.7 158.8,81.6 159.4,80.8 L190.2,41.5 L190.2,79.9 C190.2,80.9 191,81.8 192.1,81.8 C193.2,81.8 194,81 194,79.9 L194,41.5 L224.8,80.8 C225.2,81.3 225.7,81.5 226.3,81.5 C226.7,81.5 227.1,81.4 227.4,81.1 C228.2,80.5 228.3,79.3 227.7,78.5 L199.5,42.5 L267.1,81.5 C267.4,81.7 267.7,81.7 268,81.7 C268.6,81.7 269.3,81.4 269.6,80.8 C270,80 269.7,78.8 268.8,78.3 L268.8,78.3 Z" id="Shape" fill="#D0021B"></path>
                <path d="M268.3,361.2 C267.8,360.3 266.6,360 265.8,360.5 L199.5,398.8 L227.7,362.8 C228.3,362 228.2,360.8 227.4,360.2 C226.6,359.6 225.4,359.7 224.8,360.5 L194,399.8 L194,361.4 C194,360.4 193.2,359.5 192.1,359.5 C191,359.5 190.2,360.3 190.2,361.4 L190.2,399.8 L159.4,360.5 C158.8,359.7 157.6,359.6 156.8,360.2 C156,360.8 155.9,362 156.5,362.8 L184.7,398.8 L117.1,359.8 C116.2,359.3 115.1,359.6 114.6,360.5 C114.1,361.4 114.4,362.5 115.3,363 L191.2,406.8 L191.3,406.8 C191.4,406.8 191.4,406.9 191.5,406.9 L191.6,406.9 L191.7,406.9 L191.8,406.9 C191.9,406.9 192.1,407 192.2,407 L192.2,407 L192.2,407 C192.4,407 192.5,407 192.6,406.9 L192.7,406.9 L192.8,406.9 C192.9,406.9 192.9,406.8 193,406.8 L193.1,406.8 L267.8,363.7 C268.5,363.3 268.8,362.1 268.3,361.2 L268.3,361.2 Z" id="Shape" fill="#D0021B"></path>
                <circle id="Oval" fill="#D0021B" cx="273.3" cy="357.3" r="2.3"></circle>
                <circle id="Oval" fill="#D0021B" cx="109.3" cy="357.3" r="2.3"></circle>
                <path d="M144.627796,348.041367 C144.327796,347.441367 144.527796,346.741367 145.127796,346.341367 C145.727796,346.041367 146.427796,346.241367 146.827796,346.841367 L150.727796,353.641367 L154.727796,351.341367 C155.227796,351.041367 155.927796,351.241367 156.227796,351.741367 C156.527796,352.241367 156.327796,352.941367 155.827796,353.241367 L150.827796,356.141367 C150.227796,356.441367 149.527796,356.241367 149.127796,355.641367 L144.627796,348.041367 L144.627796,348.041367 Z" id="Shape-2" fill="#D0021B"></path>
                <path d="M186.1,345.4 L186.1,345.4 C186.1,342.2 188.6,339.6 192.1,339.6 C195.6,339.6 198,342.2 198,345.4 L198,345.4 C198,348.6 195.5,351.2 192,351.2 C188.6,351.1 186.1,348.6 186.1,345.4 L186.1,345.4 Z M195.4,345.4 L195.4,345.4 C195.4,343.4 194,341.8 192,341.8 C190,341.8 188.6,343.4 188.6,345.3 L188.6,345.3 C188.6,347.2 190,348.8 192,348.8 C194,348.9 195.4,347.3 195.4,345.4 L195.4,345.4 Z" id="Shape-2" fill="#D0021B"></path>
                <path d="M232.439354,344.637829 C232.739354,344.037829 233.539354,343.837829 234.139354,344.137829 L234.339354,344.237829 C234.839354,344.537829 235.039354,344.937829 235.039354,345.537829 L236.039354,353.337829 L238.939354,348.337829 C239.239354,347.737829 240.039354,347.537829 240.639354,347.937829 C241.239354,348.237829 241.439354,349.037829 241.039354,349.637829 L236.539354,357.337829 C236.239354,357.937829 235.439354,358.137829 234.839354,357.837829 L234.739354,357.837829 C234.239354,357.537829 234.039354,357.137829 234.039354,356.537829 L233.039354,348.437829 L230.039354,353.637829 C229.739354,354.237829 228.939354,354.437829 228.339354,354.037829 C227.739354,353.737829 227.539354,352.937829 227.939354,352.337829 L232.439354,344.637829 L232.439354,344.637829 Z" id="Shape-2" fill="#D0021B"></path>
            </g>
        </g>
    </g>
</svg>
