<svg id="Layer_1" data-name="Layer 1" xmlns="http://www.w3.org/2000/svg" viewBox="0 0 125.38 144"><defs><style>.cls-1{fill:#ffd580;}.cls-2{fill:#fff;}.cls-3{fill:#ffc223;}.cls-4{fill:#333;}</style></defs><title>logo-nodeschoolhmo</title><polygon class="cls-1" points="122.43 106.72 62.35 141.41 2.23 106.72 2.23 37.31 62.35 2.59 122.43 37.31 122.43 106.72"/><polygon class="cls-2" points="59.06 67.73 61.21 67.73 61.1 63.73 59.28 63.73 59.06 67.73"/><polygon class="cls-2" points="59.87 53.04 59.65 57.04 60.92 57.04 60.81 53.04 59.87 53.04"/><polygon class="cls-2" points="58.99 69.03 58.8 72.59 61.35 72.61 61.25 69.03 58.99 69.03"/><polygon class="cls-2" points="59.35 62.43 61.07 62.43 60.96 58.33 59.58 58.33 59.35 62.43"/><rect class="cls-2" x="64.52" y="67.29" width="1.03" height="1.94"/><path class="cls-2" d="M69.55,53a23.46,23.46,0,0,0-19,37.2L55,87a0.65,0.65,0,0,1,.31-0.12l1.36-.15a0.64,0.64,0,0,1,.16-0.15l2.92-1.84V83.5a0.65,0.65,0,0,1,.15-0.42L61.65,81a0.63,0.63,0,0,1,.5-0.23l2.21,0,1.11-20.22a0.65,0.65,0,0,1,.65-0.61H68.3a0.65,0.65,0,0,1,.65.63L69.5,80.82h0.58V72.25a0.65,0.65,0,0,1,.65-0.65h2.32a0.65,0.65,0,0,1,.65.65v7.53l1.85-.69a0.65,0.65,0,0,1,.61.12l5.63,4.74L81.85,84l1.44-.16a0.65,0.65,0,0,1,.46.13l6,4.51A23.47,23.47,0,0,0,69.55,53Z" transform="translate(-6.86 -8.2)"/><rect class="cls-2" x="64.52" y="64.7" width="1.03" height="1.3"/><path class="cls-2" d="M72.41,78.73h-1v1.68l1-.23a0.64,0.64,0,0,1,0-.16V78.73Z" transform="translate(-6.86 -8.2)"/><path class="cls-3" d="M38,100.63a0.65,0.65,0,0,1-.2,0H37.72l-2,.17-22.94,13,56.78,32.77,56.88-32.84L99.8,95.5Zm43.72,21a1.89,1.89,0,0,1,2.62-.68,1.87,1.87,0,1,1-1.88,3.24A1.84,1.84,0,0,1,81.72,121.65Zm-14-2.65a0.37,0.37,0,0,1,.39-0.39h0.1a0.41,0.41,0,0,1,.36.19l1,1.59,1-1.59a0.41,0.41,0,0,1,.36-0.19H71a0.37,0.37,0,0,1,.39.39v2.88a0.37,0.37,0,0,1-.39.39h0a0.37,0.37,0,0,1-.39-0.39v-1.77l-0.68,1h0a0.36,0.36,0,0,1-.32.19h0a0.36,0.36,0,0,1-.32-0.19h0l-0.68-1v1.77a0.37,0.37,0,0,1-.39.39h0a0.37,0.37,0,0,1-.39-0.39V119ZM54,121.58a0.42,0.42,0,0,1,.55.16L55,122.68l1.26-.74L55.78,121a0.42,0.42,0,0,1,.16-0.55,0.4,0.4,0,0,1,.55.16L58,123.11a0.42,0.42,0,0,1-.16.55,0.4,0.4,0,0,1-.55-0.16l-0.55-.94-1.26.74L56,124.24a0.41,0.41,0,1,1-.71.39l-1.46-2.49A0.42,0.42,0,0,1,54,121.58Zm-11,3.73a0.74,0.74,0,1,1,.74-0.74A0.74,0.74,0,0,1,43,125.32Zm51.17,1.2L70,140.48h0s0,0-.06,0H69.79a0.16,0.16,0,0,1-.13,0l-0.13,0h-0.1s0,0-.06,0h0L44.76,126.29a0.59,0.59,0,0,1,.58-1l21.89,12.63L58.1,126.22a0.6,0.6,0,1,1,.94-0.74l10,12.73V125.77a0.6,0.6,0,0,1,.62-0.62,0.61,0.61,0,0,1,.62.62v12.44l10-12.73a0.6,0.6,0,1,1,.94.74L72,137.88l21.47-12.4a0.6,0.6,0,0,1,.81.23A0.63,0.63,0,0,1,94.15,126.52Zm1.78-1.2a0.74,0.74,0,1,1,.74-0.74A0.74,0.74,0,0,1,95.93,125.32Z" transform="translate(-6.86 -8.2)"/><path class="cls-3" d="M82.82,123.53a1,1,0,0,0,1.52-.39,1.09,1.09,0,0,0-.39-1.55,1.12,1.12,0,0,0-1.52.42A1.07,1.07,0,0,0,82.82,123.53Z" transform="translate(-6.86 -8.2)"/><polygon class="cls-3" points="76.25 76.95 48.66 79.98 33.26 90.95 88.68 86.36 76.25 76.95"/><path class="cls-3" d="M75.58,80.45H75.43L70.3,82.1a0.68,0.68,0,0,1-.2,0L62.38,82,61,83.74v1.38a0.65,0.65,0,0,1-.3.55l-1.23.78L80,84.18Z" transform="translate(-6.86 -8.2)"/><path class="cls-4" d="M130.94,43.27L70.86,8.55a2.59,2.59,0,0,0-2.59,0L8.16,43.27a2.59,2.59,0,0,0-1.3,2.24v69.41a2.59,2.59,0,0,0,1.3,2.24l60.11,34.69a2.59,2.59,0,0,0,2.59,0l60.08-34.69a2.59,2.59,0,0,0,1.3-2.24V45.51A2.59,2.59,0,0,0,130.94,43.27ZM69.57,13.78L127.06,47v65.62L100.35,94.31a0.64,0.64,0,0,0-.42-0.11l-2.45.2L83.69,84a0.65,0.65,0,0,0-.46-0.13L81.79,84l-0.05-.05L76.1,79.2a0.65,0.65,0,0,0-.61-0.12l-1.85.69V72.25A0.65,0.65,0,0,0,73,71.6H70.67a0.65,0.65,0,0,0-.65.65v8.58H69.44L69,66s0,0,0,0V65.54l-0.14-5a0.64,0.64,0,0,0,0-.18l-0.16-4.8A0.65,0.65,0,0,0,68,55l-1.73,0a0.65,0.65,0,0,0-.64.61l-0.26,4.94v0L64.3,80.77l-2.21,0a0.63,0.63,0,0,0-.5.23l-1.78,2.11a0.65,0.65,0,0,0-.15.42v1.26l-2.92,1.84a0.64,0.64,0,0,0-.16.15l-1.36.15a0.65,0.65,0,0,0-.31.12L37.6,99.36l-2.12.18a0.65,0.65,0,0,0-.27.08L12,112.78V47Zm-2,47.45,0.13,4H66.46l0.21-4h0.92Zm-0.85-1.3,0.19-3.67h0.49l0.12,3.68h-0.8Zm1,6.59,0.11,4.1H66.15l0.21-3.91a0.65,0.65,0,0,0,0-.12V66.53h1.37Zm0.15,5.4,0.11,4H65.86l0.22-4H67.9ZM68,77.23l0.1,3.58-2.55,0,0.19-3.56H68Zm2,4.9a0.68,0.68,0,0,0,.2,0l5.25-1.67L80,84.18l-20.6,2.26,1.23-.78a0.65,0.65,0,0,0,.3-0.55V83.74L62.38,82Zm2.25-6.63v1.94h-1V75.49h1Zm-1-1.3V72.9h1v1.3h-1Zm1,4.53V80a0.64,0.64,0,0,0,0,.16l-1,.23V78.73h1Zm10.77,6.42,12.43,9.41L40.12,99.15l15.4-11ZM69.57,146.62L12.78,113.85l22.94-13,2-.17H37.8a0.65,0.65,0,0,0,.2,0L99.8,95.5l26.64,18.27Z" transform="translate(-6.86 -8.2)"/><path class="cls-4" d="M55.27,124.63a0.41,0.41,0,1,0,.71-0.39l-0.55-.94,1.26-.74,0.55,0.94a0.4,0.4,0,0,0,.55.16,0.42,0.42,0,0,0,.16-0.55l-1.46-2.49a0.4,0.4,0,0,0-.55-0.16,0.42,0.42,0,0,0-.16.55l0.52,0.94-1.26.74-0.52-.94a0.41,0.41,0,0,0-.71.39Z" transform="translate(-6.86 -8.2)"/><path class="cls-4" d="M68.11,122.27h0a0.37,0.37,0,0,0,.39-0.39v-1.77l0.68,1h0a0.36,0.36,0,0,0,.32.19h0a0.36,0.36,0,0,0,.32-0.19h0l0.68-1v1.77a0.37,0.37,0,0,0,.39.39h0a0.37,0.37,0,0,0,.39-0.39V119a0.37,0.37,0,0,0-.39-0.39h-0.1a0.41,0.41,0,0,0-.36.19l-1,1.59-1-1.59a0.41,0.41,0,0,0-.36-0.19h-0.1a0.37,0.37,0,0,0-.39.39v2.88A0.37,0.37,0,0,0,68.11,122.27Z" transform="translate(-6.86 -8.2)"/><path class="cls-4" d="M82.47,124.21A1.87,1.87,0,1,0,84.34,121a1.89,1.89,0,0,0-2.62.68A1.84,1.84,0,0,0,82.47,124.21Zm0-2.2a1.12,1.12,0,0,1,1.52-.42,1.09,1.09,0,0,1,.39,1.55,1,1,0,0,1-1.52.39A1.07,1.07,0,0,1,82.43,122Z" transform="translate(-6.86 -8.2)"/><path class="cls-4" d="M45.73,34.89l21.51-12.4L58.1,34.14a0.6,0.6,0,0,0,.94.74L69,22.16V34.6a0.61,0.61,0,0,0,.62.62,0.6,0.6,0,0,0,.62-0.62V22.16l10,12.73a0.58,0.58,0,0,0,.49.23A0.49,0.49,0,0,0,81.06,35a0.61,0.61,0,0,0,.1-0.84L72,22.48,93.92,35.11a0.48,0.48,0,0,0,.29.06,0.58,0.58,0,0,0,.52-0.29,0.64,0.64,0,0,0-.26-0.81L69.89,19.89a0.12,0.12,0,0,0-.1,0H69.44s-0.06,0-.1,0l-24.19,14a0.59,0.59,0,0,0-.23.81A0.6,0.6,0,0,0,45.73,34.89Z" transform="translate(-6.86 -8.2)"/><path class="cls-4" d="M93.5,125.48L72,137.88l9.13-11.66a0.6,0.6,0,1,0-.94-0.74l-10,12.73V125.77a0.61,0.61,0,0,0-.62-0.62,0.6,0.6,0,0,0-.62.62v12.44L59,125.48a0.6,0.6,0,1,0-.94.74l9.13,11.66L45.34,125.25a0.59,0.59,0,0,0-.58,1l24.58,14.19h0s0,0,.06,0h0.1l0.13,0a0.16,0.16,0,0,0,.13,0h0.06s0,0,.06,0h0l24.19-14a0.63,0.63,0,0,0,.16-0.81A0.6,0.6,0,0,0,93.5,125.48Z" transform="translate(-6.86 -8.2)"/><circle class="cls-4" cx="89.07" cy="116.37" r="0.74"/><circle class="cls-4" cx="36.11" cy="116.37" r="0.74"/><path class="cls-4" d="M50.81,42.47a0.44,0.44,0,0,0-.45.45v2.2l-1.81-2.4a0.6,0.6,0,0,0-.49-0.29H48a0.48,0.48,0,0,0-.49.49v3.4a0.45,0.45,0,0,0,.45.49,0.44,0.44,0,0,0,.45-0.45v-2.3l1.88,2.46a0.6,0.6,0,0,0,.49.29h0a0.48,0.48,0,0,0,.49-0.49v-3.4A0.44,0.44,0,0,0,50.81,42.47Z" transform="translate(-6.86 -8.2)"/><path class="cls-4" d="M54.41,42.43a2.23,2.23,0,0,0-2.3,2.2,2.18,2.18,0,0,0,2.27,2.2,2.23,2.23,0,0,0,2.3-2.2A2.18,2.18,0,0,0,54.41,42.43Zm0,3.56a1.31,1.31,0,0,1-1.3-1.36,1.27,1.27,0,0,1,1.3-1.33,1.31,1.31,0,0,1,1.3,1.36A1.27,1.27,0,0,1,54.41,46Z" transform="translate(-6.86 -8.2)"/><path class="cls-4" d="M59.17,42.5H58a0.48,0.48,0,0,0-.49.49v3.3a0.5,0.5,0,0,0,.49.49h1.2A2.14,2.14,0,1,0,59.17,42.5Zm0,3.43H58.46V43.34h0.71a1.22,1.22,0,0,1,1.3,1.3A1.24,1.24,0,0,1,59.17,45.93Z" transform="translate(-6.86 -8.2)"/><path class="cls-4" d="M65.16,45.93H63.22V45h1.62a0.42,0.42,0,0,0,0-.84H63.22V43.31h1.91a0.42,0.42,0,0,0,0-.84H62.76a0.48,0.48,0,0,0-.49.49v3.34a0.5,0.5,0,0,0,.49.49h2.4A0.42,0.42,0,0,0,65.16,45.93Z" transform="translate(-6.86 -8.2)"/><path class="cls-4" d="M68.17,44.22c-0.74-.19-0.94-0.29-0.94-0.55a0.47,0.47,0,0,1,.55-0.39,1.75,1.75,0,0,1,.91.29,0.6,0.6,0,0,0,.23.06,0.44,0.44,0,0,0,.45-0.42,0.46,0.46,0,0,0-.19-0.39,2.39,2.39,0,0,0-1.36-.39,1.33,1.33,0,0,0-1.49,1.3c0,0.84.55,1.1,1.43,1.3,0.71,0.19.87,0.29,0.87,0.55S68.4,46,68,46a1.89,1.89,0,0,1-1.1-.39,0.62,0.62,0,0,0-.26-0.1,0.44,0.44,0,0,0-.45.42,0.35,0.35,0,0,0,.13.42,2.68,2.68,0,0,0,1.62.52,1.37,1.37,0,0,0,1.59-1.33C69.53,44.77,69,44.44,68.17,44.22Z" transform="translate(-6.86 -8.2)"/><path class="cls-4" d="M73.55,45.54a0.52,0.52,0,0,0-.29.1,1.28,1.28,0,0,1-.94.32,1.35,1.35,0,0,1,0-2.69,1.42,1.42,0,0,1,.87.29,0.61,0.61,0,0,0,.29.1,0.44,0.44,0,0,0,.45-0.45,0.56,0.56,0,0,0-.19-0.39,2.26,2.26,0,0,0-1.43-.42,2.17,2.17,0,0,0-2.23,2.2,2.26,2.26,0,0,0,2.23,2.23,2.08,2.08,0,0,0,1.52-.55A0.4,0.4,0,0,0,74,46,0.44,0.44,0,0,0,73.55,45.54Z" transform="translate(-6.86 -8.2)"/><path class="cls-4" d="M78.05,42.43a0.48,0.48,0,0,0-.49.49v1.26H75.82V42.92a0.49,0.49,0,1,0-1,0v3.4a0.46,0.46,0,0,0,.49.49,0.48,0.48,0,0,0,.49-0.49V45h1.75v1.3a0.49,0.49,0,1,0,1,0v-3.4A0.48,0.48,0,0,0,78.05,42.43Z" transform="translate(-6.86 -8.2)"/><path class="cls-4" d="M81.58,42.43a2.2,2.2,0,1,0,0,4.4A2.2,2.2,0,1,0,81.58,42.43Zm0,3.56a1.33,1.33,0,0,1-1.3-1.36,1.27,1.27,0,0,1,1.3-1.33,1.31,1.31,0,0,1,1.3,1.36A1.27,1.27,0,0,1,81.58,46Z" transform="translate(-6.86 -8.2)"/><path class="cls-4" d="M86.83,42.43a2.23,2.23,0,0,0-2.3,2.2,2.18,2.18,0,0,0,2.27,2.2,2.23,2.23,0,0,0,2.3-2.2A2.18,2.18,0,0,0,86.83,42.43Zm0,3.56a1.33,1.33,0,0,1-1.3-1.36,1.27,1.27,0,0,1,1.3-1.33,1.31,1.31,0,0,1,1.3,1.36A1.27,1.27,0,0,1,86.8,46Z" transform="translate(-6.86 -8.2)"/><path class="cls-4" d="M92.59,45.93H90.85V43a0.49,0.49,0,1,0-1,0v3.34a0.53,0.53,0,0,0,.52.49h2.2A0.42,0.42,0,0,0,92.59,45.93Z" transform="translate(-6.86 -8.2)"/></svg>