<?xml version="1.0" encoding="utf-8"?>
<!-- Generator: Adobe Illustrator 16.0.0, SVG Export Plug-In . SVG Version: 6.00 Build 0)  -->
<!DOCTYPE svg PUBLIC "-//W3C//DTD SVG 1.1//EN" "http://www.w3.org/Graphics/SVG/1.1/DTD/svg11.dtd">
<svg version="1.1" id="Layer_1" xmlns="http://www.w3.org/2000/svg" xmlns:xlink="http://www.w3.org/1999/xlink" x="0px" y="0px"
	 width="402px" height="459.36px" viewBox="0 0 402 459.36" enable-background="new 0 0 402 459.36" xml:space="preserve">
<polygon fill="#CDDDF2" points="385.709,335.951 200.129,443.096 14.55,335.951 14.55,121.663 200.129,14.519 385.709,121.663 "/>
<path fill="#4062AD" d="M276.564,369.3c-0.512-0.89-1.65-1.193-2.537-0.68l-66.35,38.307l28.219-36
	c0.633-0.808,0.49-1.976-0.316-2.607c-0.809-0.631-1.975-0.491-2.607,0.315l-30.819,39.319v-38.432c0-1.025-0.832-1.857-1.856-1.857
	c-1.025,0-1.857,0.832-1.857,1.857v38.431l-30.82-39.318c-0.632-0.807-1.797-0.948-2.607-0.315c-0.807,0.632-0.947,1.8-0.315,2.607
	l28.218,36l-67.572-39.013c-0.888-0.513-2.024-0.209-2.537,0.68c-0.512,0.889-0.209,2.023,0.68,2.536l75.883,43.812
	c0.019,0.01,0.039,0.013,0.057,0.022c0.066,0.035,0.133,0.063,0.203,0.091c0.022,0.009,0.04,0.025,0.063,0.034
	c0.019,0.006,0.039,0.004,0.058,0.01c0.035,0.011,0.067,0.024,0.103,0.033c0.144,0.035,0.29,0.057,0.438,0.058l0.008,0.001l0,0l0,0
	c0,0,0.002-0.001,0.004-0.001c0.15,0,0.299-0.021,0.443-0.058c0.031-0.008,0.061-0.021,0.092-0.03
	c0.042-0.013,0.081-0.029,0.122-0.045c0.071-0.027,0.143-0.056,0.211-0.093c0.019-0.01,0.038-0.013,0.056-0.022l74.66-43.105
	C276.773,371.323,277.076,370.188,276.564,369.3z"/>
<path fill="#4062AD" d="M241.773,353.817c0.363-0.523,1.066-0.65,1.59-0.288c0.525,0.364,0.652,1.067,0.289,1.592l-1.99,2.867
	l5.852-1.035c0.393-0.071,0.717-0.046,1.049,0.183c0.523,0.363,0.584,1.004,0.264,1.467c-0.205,0.294-0.49,0.42-0.834,0.471
	l-3.959,0.578l0.336,5.112c0.02,0.286-0.006,0.558-0.201,0.837c-0.363,0.525-1.037,0.637-1.586,0.255
	c-0.365-0.253-0.457-0.59-0.479-1.002l-0.223-4.888l-1.768,0.255l-1.184,1.708c-0.365,0.523-1.068,0.65-1.594,0.288
	c-0.523-0.364-0.65-1.067-0.285-1.592L241.773,353.817z"/>
<g>
	<g>
	</g>
</g>
<g>
	<g>
		<path fill="#FBDE34" d="M204.352,9.455c-2.107-1.216-4.703-1.216-6.811,0L11.963,116.6c-2.107,1.215-3.404,3.463-3.404,5.896
			v214.29c0,2.432,1.297,4.68,3.404,5.895l185.578,107.145c1.055,0.609,2.23,0.914,3.406,0.914c1.174,0,2.352-0.305,3.404-0.914
			L389.93,342.68c2.107-1.215,3.404-3.463,3.404-5.895v-214.29c0-2.433-1.297-4.681-3.404-5.896L204.352,9.455z"/>
		<path fill="#FBDE34" stroke="#343433" stroke-width="6" stroke-miterlimit="10" d="M200.947,447.903
			c-0.696,0-1.384-0.185-1.988-0.533L13.38,340.225c-1.227-0.707-1.987-2.024-1.987-3.439v-214.29c0-1.416,0.761-2.734,1.985-3.439
			L198.958,11.91c0.603-0.349,1.291-0.533,1.988-0.533c0.697,0,1.385,0.184,1.988,0.533l185.578,107.145
			c1.226,0.707,1.986,2.025,1.986,3.44v214.29c0,1.415-0.761,2.732-1.985,3.438L202.935,447.369
			C202.329,447.72,201.644,447.903,200.947,447.903z"/>
		<path fill="#343433" d="M277.176,369.939c-0.512-0.891-1.65-1.193-2.537-0.68l-66.35,38.307l28.219-36
			c0.633-0.809,0.49-1.977-0.316-2.607c-0.809-0.631-1.975-0.492-2.607,0.314l-30.818,39.32v-38.432
			c0-1.025-0.832-1.857-1.857-1.857s-1.857,0.832-1.857,1.857v38.43l-30.82-39.318c-0.633-0.807-1.797-0.947-2.607-0.314
			c-0.807,0.631-0.947,1.799-0.316,2.607l28.219,36l-67.572-39.014c-0.889-0.512-2.025-0.209-2.537,0.68s-0.209,2.023,0.68,2.537
			l75.883,43.811c0.02,0.01,0.039,0.014,0.057,0.023c0.066,0.035,0.133,0.062,0.203,0.09c0.023,0.01,0.041,0.025,0.064,0.035
			c0.018,0.006,0.039,0.004,0.057,0.01c0.035,0.01,0.068,0.023,0.102,0.033c0.145,0.035,0.291,0.057,0.439,0.057l0.008,0.002l0,0
			l0,0c0,0,0.002-0.002,0.004-0.002c0.15,0,0.299-0.021,0.443-0.057c0.031-0.008,0.061-0.021,0.092-0.031
			c0.043-0.012,0.082-0.029,0.123-0.045c0.07-0.027,0.141-0.055,0.211-0.092c0.018-0.01,0.037-0.014,0.055-0.023l74.66-43.105
			C277.385,371.963,277.688,370.828,277.176,369.939z"/>
		<path fill="#343433" d="M124.172,83.122c0.512,0.891,1.65,1.193,2.537,0.68l66.35-38.307l-28.219,36
			c-0.633,0.809-0.49,1.977,0.316,2.607c0.809,0.631,1.975,0.492,2.607-0.314l30.82-39.32v38.432c0,1.025,0.832,1.857,1.855,1.857
			c1.025,0,1.857-0.832,1.857-1.857V44.47l30.82,39.318c0.633,0.807,1.799,0.947,2.609,0.314c0.805-0.631,0.947-1.799,0.314-2.607
			l-28.219-36l67.574,39.014c0.887,0.512,2.023,0.209,2.537-0.68c0.512-0.889,0.209-2.023-0.68-2.537l-75.885-43.811
			c-0.018-0.01-0.039-0.014-0.057-0.023c-0.066-0.035-0.133-0.062-0.203-0.09c-0.021-0.01-0.039-0.025-0.062-0.035
			c-0.02-0.006-0.039-0.004-0.059-0.01c-0.035-0.01-0.066-0.023-0.102-0.033c-0.145-0.035-0.291-0.057-0.439-0.057l-0.008-0.002l0,0
			l0,0c0,0-0.002,0.002-0.004,0.002c-0.15,0-0.299,0.021-0.443,0.057c-0.031,0.008-0.061,0.021-0.092,0.031
			c-0.041,0.012-0.08,0.029-0.121,0.045c-0.072,0.027-0.143,0.055-0.211,0.092c-0.02,0.01-0.039,0.014-0.057,0.023l-74.66,43.105
			C123.963,81.099,123.66,82.233,124.172,83.122z"/>
		<circle fill="#343433" cx="284.054" cy="366.443" r="2.327"/>
		<circle fill="#343433" cx="117.663" cy="365.971" r="2.327"/>
		<path fill="#231F20" d="M157.91,367.822l-2.754-9.244c-0.188-0.641-0.049-1.241,0.463-1.678l0.109-0.094
			c0.512-0.437,1.114-0.469,1.717-0.183l8.697,4.175c0.174,0.081,0.314,0.172,0.417,0.294c0.429,0.499,0.381,1.232-0.118,1.659
			c-0.439,0.375-0.949,0.368-1.453,0.123l-1.715-0.851l-3.75,3.199l0.598,1.91c0.154,0.5,0.023,0.99-0.365,1.322
			c-0.487,0.416-1.197,0.349-1.613-0.139C158.029,368.184,157.963,368.007,157.91,367.822z M161.166,360.961l-3.58-1.806
			l1.219,3.821L161.166,360.961z"/>
		<path fill="#231F20" d="M195.235,348.85c0-0.688,0.543-1.232,1.232-1.232h0.271c0.529,0,0.896,0.272,1.121,0.641l2.977,4.85
			l2.993-4.865c0.256-0.416,0.607-0.625,1.104-0.625h0.271c0.689,0,1.232,0.545,1.232,1.232v8.9c0,0.688-0.543,1.232-1.232,1.232
			c-0.672,0-1.215-0.561-1.215-1.232v-5.586l-2.162,3.328c-0.256,0.385-0.575,0.625-1.022,0.625c-0.449,0-0.77-0.24-1.025-0.625
			l-2.129-3.281v5.57c0,0.673-0.543,1.201-1.217,1.201c-0.672,0-1.199-0.528-1.199-1.201V348.85z"/>
		<path fill="#231F20" d="M238.516,361.056c-0.096-0.318-0.029-0.714,0.209-1.017c0.395-0.504,1.105-0.576,1.607-0.181
			c0.252,0.197,0.359,0.425,0.416,0.612c0.281,1.015,0.773,1.89,1.629,2.563c0.793,0.623,1.518,0.684,1.924,0.168l0.02-0.023
			c0.387-0.491,0.283-0.98-0.893-2.516c-1.418-1.849-2.176-3.239-0.803-4.988l0.021-0.025c1.256-1.598,3.371-1.646,5.17-0.229
			c1.068,0.84,1.783,1.85,2.18,2.977c0.113,0.293,0.121,0.727-0.176,1.104c-0.396,0.504-1.105,0.576-1.609,0.182
			c-0.188-0.148-0.299-0.318-0.383-0.524c-0.344-0.883-0.779-1.571-1.385-2.046c-0.74-0.584-1.398-0.552-1.734-0.124l-0.02,0.025
			c-0.455,0.579-0.225,1.065,0.988,2.651c1.42,1.871,1.924,3.305,0.717,4.84l-0.02,0.025c-1.375,1.748-3.482,1.681-5.381,0.187
			C239.836,363.805,238.943,362.532,238.516,361.056z"/>
		<g>
			<path fill="#343433" d="M138.469,111.083c0.72,0,1.306-0.585,1.306-1.306v-6.436l5.288,6.936c0.358,0.46,0.735,0.771,1.373,0.771
				h0.086c0.736,0,1.319-0.583,1.319-1.322v-9.563c0-0.721-0.583-1.303-1.303-1.303c-0.721,0-1.306,0.583-1.306,1.303v6.199
				l-5.099-6.695c-0.358-0.464-0.739-0.772-1.373-0.772h-0.275c-0.735,0-1.322,0.583-1.322,1.322v9.561
				C137.163,110.498,137.75,111.083,138.469,111.083z"/>
			<path fill="#343433" d="M156.572,111.186c3.708,0,6.402-2.797,6.402-6.215v-0.033c0-3.418-2.66-6.181-6.37-6.181
				c-3.707,0-6.405,2.797-6.405,6.213v0.035C150.2,108.42,152.863,111.186,156.572,111.186z M152.966,104.938
				c0-2.062,1.476-3.745,3.606-3.745c2.126,0,3.641,1.719,3.641,3.777v0.035c0,2.062-1.479,3.742-3.608,3.742
				s-3.639-1.716-3.639-3.776V104.938z"/>
			<path fill="#343433" d="M166.659,110.981h3.364c3.777,0,6.386-2.627,6.386-6.01v-0.033c0-3.383-2.608-5.976-6.386-5.976h-3.364
				c-0.739,0-1.325,0.585-1.325,1.322v9.375C165.333,110.396,165.92,110.981,166.659,110.981z M167.978,101.35h2.045
				c2.161,0,3.62,1.492,3.62,3.621v0.035c0,2.128-1.459,3.588-3.62,3.588h-2.045V101.35z"/>
			<path fill="#343433" d="M180.089,110.981h6.748c0.652,0,1.184-0.515,1.184-1.168c0-0.653-0.532-1.185-1.184-1.185h-5.442v-2.525
				h4.584c0.653,0,1.184-0.511,1.184-1.165c0-0.653-0.53-1.184-1.184-1.184h-4.584v-2.438h5.356c0.653,0,1.188-0.516,1.188-1.169
				c0-0.65-0.534-1.184-1.188-1.184h-6.661c-0.736,0-1.322,0.585-1.322,1.322v9.375
				C178.768,110.396,179.353,110.981,180.089,110.981z"/>
			<path fill="#343433" d="M190.037,109.71c1.338,0.96,2.936,1.441,4.514,1.441c2.592,0,4.414-1.338,4.414-3.726v-0.035
				c0-2.094-1.374-2.968-3.812-3.604c-2.078-0.531-2.593-0.791-2.593-1.578v-0.035c0-0.586,0.534-1.046,1.546-1.046
				c0.826,0,1.648,0.291,2.525,0.806c0.205,0.121,0.41,0.189,0.669,0.189c0.685,0,1.235-0.535,1.235-1.22
				c0-0.515-0.291-0.873-0.582-1.046c-1.083-0.684-2.353-1.066-3.812-1.066c-2.455,0-4.206,1.444-4.206,3.624v0.035
				c0,2.385,1.561,3.057,3.981,3.671c2.011,0.519,2.419,0.861,2.419,1.53v0.035c0,0.705-0.648,1.134-1.73,1.134
				c-1.168,0-2.165-0.413-3.077-1.083c-0.168-0.121-0.41-0.24-0.751-0.24c-0.688,0-1.239,0.532-1.239,1.22
				C189.538,109.125,189.747,109.503,190.037,109.71z"/>
			<path fill="#343433" d="M206.903,111.186c1.923,0,3.19-0.566,4.271-1.511c0.244-0.208,0.449-0.532,0.449-0.944
				c0-0.669-0.567-1.22-1.236-1.22c-0.311,0-0.584,0.121-0.79,0.294c-0.756,0.599-1.496,0.941-2.609,0.941
				c-2.061,0-3.484-1.716-3.484-3.776v-0.033c0-2.062,1.458-3.745,3.484-3.745c0.944,0,1.717,0.31,2.456,0.86
				c0.188,0.119,0.429,0.257,0.79,0.257c0.72,0,1.303-0.567,1.303-1.287c0-0.464-0.239-0.842-0.515-1.046
				c-0.995-0.739-2.216-1.22-4.019-1.22c-3.69,0-6.266,2.797-6.266,6.213v0.035C200.738,108.456,203.365,111.186,206.903,111.186z"
				/>
			<path fill="#343433" d="M215.27,111.083c0.74,0,1.321-0.585,1.321-1.322v-3.604h4.879v3.604c0,0.736,0.581,1.322,1.318,1.322
				c0.739,0,1.322-0.585,1.322-1.322v-9.58c0-0.739-0.583-1.322-1.322-1.322c-0.737,0-1.318,0.583-1.318,1.322v3.537h-4.879v-3.537
				c0-0.739-0.581-1.322-1.321-1.322s-1.322,0.583-1.322,1.322v9.58C213.947,110.498,214.529,111.083,215.27,111.083z"/>
			<path fill="#343433" d="M232.842,111.186c3.706,0,6.401-2.797,6.401-6.215v-0.033c0-3.418-2.659-6.181-6.37-6.181
				c-3.706,0-6.4,2.797-6.4,6.213v0.035C226.473,108.42,229.132,111.186,232.842,111.186z M229.234,104.938
				c0-2.062,1.479-3.745,3.607-3.745s3.64,1.719,3.64,3.777v0.035c0,2.062-1.479,3.742-3.608,3.742s-3.639-1.716-3.639-3.776
				V104.938z"/>
			<path fill="#343433" d="M247.441,111.186c3.709,0,6.404-2.797,6.404-6.215v-0.033c0-3.418-2.663-6.181-6.37-6.181
				c-3.709,0-6.404,2.797-6.404,6.213v0.035C241.071,108.42,243.73,111.186,247.441,111.186z M243.837,104.938
				c0-2.062,1.476-3.745,3.604-3.745c2.127,0,3.639,1.719,3.639,3.777v0.035c0,2.062-1.476,3.742-3.604,3.742
				c-2.128,0-3.639-1.716-3.639-3.776V104.938z"/>
			<path fill="#343433" d="M257.526,110.981h6.217c0.669,0,1.199-0.534,1.199-1.204c0-0.669-0.53-1.2-1.199-1.2h-4.896v-8.396
				c0-0.739-0.581-1.322-1.321-1.322c-0.739,0-1.322,0.583-1.322,1.322v9.478C256.204,110.396,256.787,110.981,257.526,110.981z"/>
		</g>
	</g>
	<g>
		<g>
		</g>
	</g>
</g>
<g>
	<g>
		
			<polyline fill="none" stroke="#343433" stroke-width="4" stroke-linecap="round" stroke-linejoin="round" stroke-miterlimit="10" points="
			148.333,131.527 137.034,126.627 136.898,126.627 125.6,131.527 		"/>
		
			<polyline fill="none" stroke="#343433" stroke-width="4" stroke-linecap="round" stroke-linejoin="round" stroke-miterlimit="10" points="
			148.077,131.527 148.077,158.208 125.617,158.208 125.617,131.527 		"/>
		
			<polyline fill="none" stroke="#343433" stroke-width="4" stroke-linecap="round" stroke-linejoin="round" stroke-miterlimit="10" points="
			148.077,132.855 155.51,132.855 163.919,156.847 148.094,156.847 168.596,156.847 168.596,159.563 166.625,159.563 
			166.625,330.207 		"/>
		
			<polyline fill="none" stroke="#343433" stroke-width="4" stroke-linecap="round" stroke-linejoin="round" stroke-miterlimit="10" points="
			125.617,132.855 118.184,132.855 109.774,156.847 125.6,156.847 106.04,156.847 106.04,330.207 51.932,330.207 		"/>
		<g>
			<g>
				
					<rect x="112.942" y="163.587" fill="none" stroke="#343433" stroke-width="4" stroke-linecap="round" stroke-linejoin="round" stroke-miterlimit="10" width="11.759" height="24.463"/>
				
					<line fill="none" stroke="#343433" stroke-width="4" stroke-linecap="round" stroke-linejoin="round" stroke-miterlimit="10" x1="114.592" y1="171.125" x2="123.05" y2="171.125"/>
				<line fill="none" stroke="#343433" stroke-miterlimit="10" x1="112.917" y1="186.837" x2="124.701" y2="186.837"/>
			</g>
			<g>
				
					<rect x="149.341" y="163.587" fill="none" stroke="#343433" stroke-width="4" stroke-linecap="round" stroke-linejoin="round" stroke-miterlimit="10" width="11.758" height="24.463"/>
				
					<line fill="none" stroke="#343433" stroke-width="4" stroke-linecap="round" stroke-linejoin="round" stroke-miterlimit="10" x1="150.991" y1="171.125" x2="159.449" y2="171.125"/>
				<line fill="none" stroke="#343433" stroke-miterlimit="10" x1="149.316" y1="186.837" x2="161.1" y2="186.837"/>
			</g>
			<g>
				
					<rect x="131.142" y="163.587" fill="none" stroke="#343433" stroke-width="4" stroke-linecap="round" stroke-linejoin="round" stroke-miterlimit="10" width="11.759" height="24.463"/>
				
					<line fill="none" stroke="#343433" stroke-width="4" stroke-linecap="round" stroke-linejoin="round" stroke-miterlimit="10" x1="132.792" y1="171.125" x2="141.25" y2="171.125"/>
				<line fill="none" stroke="#343433" stroke-miterlimit="10" x1="131.117" y1="186.837" x2="142.9" y2="186.837"/>
			</g>
		</g>
		<g>
			<g>
				
					<rect x="112.942" y="196.128" fill="none" stroke="#343433" stroke-width="4" stroke-linecap="round" stroke-linejoin="round" stroke-miterlimit="10" width="11.759" height="24.463"/>
				
					<line fill="none" stroke="#343433" stroke-width="4" stroke-linecap="round" stroke-linejoin="round" stroke-miterlimit="10" x1="114.592" y1="203.666" x2="123.05" y2="203.666"/>
				<line fill="none" stroke="#343433" stroke-miterlimit="10" x1="112.917" y1="219.378" x2="124.701" y2="219.378"/>
			</g>
			<g>
				
					<rect x="149.341" y="196.128" fill="none" stroke="#343433" stroke-width="4" stroke-linecap="round" stroke-linejoin="round" stroke-miterlimit="10" width="11.758" height="24.463"/>
				
					<line fill="none" stroke="#343433" stroke-width="4" stroke-linecap="round" stroke-linejoin="round" stroke-miterlimit="10" x1="150.991" y1="203.666" x2="159.449" y2="203.666"/>
				<line fill="none" stroke="#343433" stroke-miterlimit="10" x1="149.316" y1="219.378" x2="161.1" y2="219.378"/>
			</g>
			<g>
				
					<rect x="131.142" y="196.128" fill="none" stroke="#343433" stroke-width="4" stroke-linecap="round" stroke-linejoin="round" stroke-miterlimit="10" width="11.759" height="24.463"/>
				
					<line fill="none" stroke="#343433" stroke-width="4" stroke-linecap="round" stroke-linejoin="round" stroke-miterlimit="10" x1="132.792" y1="203.666" x2="141.25" y2="203.666"/>
				<line fill="none" stroke="#343433" stroke-miterlimit="10" x1="131.117" y1="219.378" x2="142.9" y2="219.378"/>
			</g>
		</g>
		<g>
			<g>
				
					<rect x="112.942" y="233.25" fill="none" stroke="#343433" stroke-width="4" stroke-linecap="round" stroke-linejoin="round" stroke-miterlimit="10" width="11.759" height="24.464"/>
				
					<line fill="none" stroke="#343433" stroke-width="4" stroke-linecap="round" stroke-linejoin="round" stroke-miterlimit="10" x1="114.592" y1="240.789" x2="123.05" y2="240.789"/>
				<line fill="none" stroke="#343433" stroke-miterlimit="10" x1="112.917" y1="256.501" x2="124.701" y2="256.501"/>
			</g>
			<g>
				
					<rect x="149.341" y="233.25" fill="none" stroke="#343433" stroke-width="4" stroke-linecap="round" stroke-linejoin="round" stroke-miterlimit="10" width="11.758" height="24.464"/>
				
					<line fill="none" stroke="#343433" stroke-width="4" stroke-linecap="round" stroke-linejoin="round" stroke-miterlimit="10" x1="150.991" y1="240.789" x2="159.449" y2="240.789"/>
				<line fill="none" stroke="#343433" stroke-miterlimit="10" x1="149.316" y1="256.501" x2="161.1" y2="256.501"/>
			</g>
			<g>
				
					<rect x="131.142" y="233.25" fill="none" stroke="#343433" stroke-width="4" stroke-linecap="round" stroke-linejoin="round" stroke-miterlimit="10" width="11.759" height="24.464"/>
				
					<line fill="none" stroke="#343433" stroke-width="4" stroke-linecap="round" stroke-linejoin="round" stroke-miterlimit="10" x1="132.792" y1="240.789" x2="141.25" y2="240.789"/>
				<line fill="none" stroke="#343433" stroke-miterlimit="10" x1="131.117" y1="256.501" x2="142.9" y2="256.501"/>
			</g>
		</g>
		<g>
			
				<polyline fill="none" stroke="#343433" stroke-width="4" stroke-linecap="round" stroke-linejoin="round" stroke-miterlimit="10" points="
				132.715,296.258 132.715,275.671 144.043,275.671 144.043,304.229 			"/>
			
				<line fill="none" stroke="#343433" stroke-width="4" stroke-linecap="round" stroke-linejoin="round" stroke-miterlimit="10" x1="134.108" y1="287.109" x2="142.649" y2="287.109"/>
		</g>
		<g>
			
				<polygon fill="none" stroke="#343433" stroke-width="4" stroke-linecap="round" stroke-linejoin="round" stroke-miterlimit="10" points="
				161.633,309.888 152.433,309.888 150.305,308.417 150.305,275.671 161.633,275.671 			"/>
			
				<line fill="none" stroke="#343433" stroke-width="4" stroke-linecap="round" stroke-linejoin="round" stroke-miterlimit="10" x1="151.699" y1="287.109" x2="160.239" y2="287.109"/>
		</g>
		
			<line fill="none" stroke="#343433" stroke-width="4" stroke-linecap="round" stroke-linejoin="round" stroke-miterlimit="10" x1="126.491" y1="296.258" x2="126.491" y2="285.643"/>
		
			<line fill="none" stroke="#343433" stroke-width="4" stroke-linecap="round" stroke-linejoin="round" stroke-miterlimit="10" x1="113.081" y1="302.539" x2="113.081" y2="309.888"/>
		<path fill="none" stroke="#343433" stroke-width="4" stroke-linecap="round" stroke-linejoin="round" stroke-miterlimit="10" d="
			M126.491,285.643v-4.876c0,0-0.847-5.526-6.786-5.526c-5.939,0-6.624,5.526-6.624,5.526v4.876v10.615"/>
		
			<line fill="none" stroke="#343433" stroke-width="4" stroke-linecap="round" stroke-linejoin="round" stroke-miterlimit="10" x1="114.731" y1="287.109" x2="124.84" y2="287.109"/>
		
			<line fill="none" stroke="#343433" stroke-width="4" stroke-linecap="round" stroke-linejoin="round" stroke-miterlimit="10" x1="106.04" y1="268.277" x2="166.625" y2="268.277"/>
		<path fill="none" stroke="#343433" stroke-width="4" stroke-linecap="round" stroke-linejoin="round" stroke-miterlimit="10" d="
			M153.319,318.212l1.487,1.144l-0.029,0.041c1.374,1.057,3.347,0.801,4.404-0.574s0.801-3.349-0.575-4.405l-25.77-18.159h-19.78
			c-1.734,0-3.141,1.407-3.141,3.142s1.406,3.14,3.141,3.14v-0.048h8.987"/>
		<path fill="none" stroke="#343433" stroke-width="4" stroke-linecap="round" stroke-linejoin="round" stroke-miterlimit="10" d="
			M113.081,309.888h20.227v2.87h3.933v2.867h3.934v2.869h3.932v2.87h3.933v2.867h3.932v2.869h3.934v3.106 M113.081,308.592v21.615
			h43.824"/>
		<path fill="none" stroke="#343433" stroke-width="4" stroke-linecap="round" stroke-linejoin="round" stroke-miterlimit="10" d="
			M222.243,181.342h-3.956l-13.632-28.949v-7.752h1.145v-2.91h0.406c-5.367-6.615-11.31-5.983-11.31-5.983h-0.923
			c0,0-5.942-0.631-11.311,5.983h0.406v2.91h1.146v7.752l-13.552,28.949h-4.036"/>
		
			<polygon fill="none" stroke="#343433" stroke-width="4" stroke-linecap="round" stroke-linejoin="round" stroke-miterlimit="10" points="
			181.862,179.205 176.829,179.205 176.829,180.639 178.199,181.48 178.199,202.606 210.439,202.606 210.439,181.48 
			211.809,180.639 211.809,179.205 		"/>
		<path fill="none" stroke="#343433" stroke-width="4" stroke-linecap="round" stroke-linejoin="round" stroke-miterlimit="10" d="
			M216.795,330.207v-23.512c0-3.434-4.77-6.216-10.654-6.216s-10.654,2.782-10.654,6.216v23.512H216.795z"/>
		<path fill="none" stroke="#343433" stroke-width="4" stroke-linecap="round" stroke-linejoin="round" stroke-miterlimit="10" d="
			M222.292,330.207V155.248h1.883v-9.142h-1.024v-2.019h21.752c0-5.528,6.519-9.844,11.898-9.933h2.994
			c5.381,0.089,11.9,4.404,11.9,9.933h21.753v2.019h-1.024v9.142h1.882v174.959h56.073"/>
		
			<rect x="220.613" y="157.756" fill="none" stroke="#343433" stroke-width="4" stroke-linecap="round" stroke-linejoin="round" stroke-miterlimit="10" width="75.372" height="6.095"/>
		
			<line fill="none" stroke="#343433" stroke-width="4" stroke-linecap="round" stroke-linejoin="round" stroke-miterlimit="10" x1="258.971" y1="302.173" x2="258.971" y2="330.207"/>
		
			<line fill="none" stroke="#343433" stroke-width="4" stroke-linecap="round" stroke-linejoin="round" stroke-miterlimit="10" x1="200.249" y1="179.205" x2="200.249" y2="200.756"/>
		
			<line fill="none" stroke="#343433" stroke-width="4" stroke-linecap="round" stroke-linejoin="round" stroke-miterlimit="10" x1="188.866" y1="179.205" x2="188.866" y2="200.756"/>
		
			<line fill="none" stroke="#343433" stroke-width="4" stroke-linecap="round" stroke-linejoin="round" stroke-miterlimit="10" x1="208.657" y1="187.981" x2="179.814" y2="187.981"/>
		
			<polygon fill="none" stroke="#343433" stroke-width="4" stroke-linecap="round" stroke-linejoin="round" stroke-miterlimit="10" points="
			181.862,271.597 176.829,271.597 176.829,273.03 178.199,273.872 178.199,294.998 210.439,294.998 210.439,273.872 
			211.809,273.03 211.809,271.597 		"/>
		
			<line fill="none" stroke="#343433" stroke-width="4" stroke-linecap="round" stroke-linejoin="round" stroke-miterlimit="10" x1="200.249" y1="271.597" x2="200.249" y2="293.147"/>
		
			<line fill="none" stroke="#343433" stroke-width="4" stroke-linecap="round" stroke-linejoin="round" stroke-miterlimit="10" x1="188.866" y1="271.597" x2="188.866" y2="293.147"/>
		
			<line fill="none" stroke="#343433" stroke-width="4" stroke-linecap="round" stroke-linejoin="round" stroke-miterlimit="10" x1="208.657" y1="280.373" x2="179.814" y2="280.373"/>
		
			<polygon fill="none" stroke="#343433" stroke-width="4" stroke-linecap="round" stroke-linejoin="round" stroke-miterlimit="10" points="
			177.763,209.829 172.73,209.829 172.73,211.263 174.1,212.104 174.1,233.23 188.981,233.23 188.981,212.104 190.35,211.263 
			190.35,209.829 		"/>
		
			<line fill="none" stroke="#343433" stroke-width="4" stroke-linecap="round" stroke-linejoin="round" stroke-miterlimit="10" x1="188.981" y1="218.606" x2="174.1" y2="218.606"/>
		
			<polygon fill="none" stroke="#343433" stroke-width="4" stroke-linecap="round" stroke-linejoin="round" stroke-miterlimit="10" points="
			206.861,209.829 199.564,209.829 199.564,211.263 200.934,212.104 200.934,233.23 215.278,233.23 215.278,212.104 
			216.646,211.263 216.646,209.829 		"/>
		
			<line fill="none" stroke="#343433" stroke-width="4" stroke-linecap="round" stroke-linejoin="round" stroke-miterlimit="10" x1="215.278" y1="218.606" x2="200.934" y2="218.606"/>
		
			<polygon fill="none" stroke="#343433" stroke-width="4" stroke-linecap="round" stroke-linejoin="round" stroke-miterlimit="10" points="
			177.763,240.461 172.73,240.461 172.73,241.895 174.1,242.736 174.1,263.862 188.981,263.862 188.981,242.736 190.35,241.895 
			190.35,240.461 		"/>
		
			<line fill="none" stroke="#343433" stroke-width="4" stroke-linecap="round" stroke-linejoin="round" stroke-miterlimit="10" x1="188.981" y1="249.237" x2="174.1" y2="249.237"/>
		
			<polygon fill="none" stroke="#343433" stroke-width="4" stroke-linecap="round" stroke-linejoin="round" stroke-miterlimit="10" points="
			206.861,240.461 199.564,240.461 199.564,241.895 200.934,242.736 200.934,263.862 215.278,263.862 215.278,242.736 
			216.646,241.895 216.646,240.461 		"/>
		
			<line fill="none" stroke="#343433" stroke-width="4" stroke-linecap="round" stroke-linejoin="round" stroke-miterlimit="10" x1="215.278" y1="249.237" x2="200.934" y2="249.237"/>
		
			<polygon fill="none" stroke="#343433" stroke-width="4" stroke-linecap="round" stroke-linejoin="round" stroke-miterlimit="10" points="
			177.013,302.013 171.98,302.013 171.98,303.446 173.351,304.288 173.351,330.207 188.231,330.207 188.231,304.288 189.6,303.446 
			189.6,302.013 		"/>
		
			<line fill="none" stroke="#343433" stroke-width="4" stroke-linecap="round" stroke-linejoin="round" stroke-miterlimit="10" x1="216.795" y1="309.956" x2="195.762" y2="309.956"/>
		
			<line fill="none" stroke="#343433" stroke-width="4" stroke-linecap="round" stroke-linejoin="round" stroke-miterlimit="10" x1="206.141" y1="330.207" x2="206.141" y2="309.956"/>
		
			<line fill="none" stroke="#343433" stroke-width="4" stroke-linecap="round" stroke-linejoin="round" stroke-miterlimit="10" x1="188.231" y1="309.956" x2="175.079" y2="309.956"/>
		
			<polygon fill="none" stroke="#343433" stroke-width="4" stroke-linecap="round" stroke-linejoin="round" stroke-miterlimit="10" points="
			191.642,157.546 189.946,157.546 189.946,158.98 191.316,159.821 191.316,171.97 197.799,171.97 197.799,159.821 199.168,158.98 
			199.168,157.546 		"/>
		<g>
			<g>
				<g>
					
						<path fill="none" stroke="#343433" stroke-width="4" stroke-linecap="round" stroke-linejoin="round" stroke-miterlimit="10" d="
						M240.654,330.207v-27.151c0.083-0.318-3.78-0.883-5.339-0.883c-1.555,0-5.419,0.564-5.337,0.883v27.151H240.654z"/>
				</g>
			</g>
			<g>
				<g>
					
						<path fill="none" stroke="#343433" stroke-width="4" stroke-linecap="round" stroke-linejoin="round" stroke-miterlimit="10" d="
						M287.811,330.207v-27.151c0.082-0.318-3.78-0.883-5.339-0.883c-1.555,0-5.42,0.564-5.337,0.883v27.151H287.811z"/>
				</g>
			</g>
			<g>
				<g>
					
						<path fill="none" stroke="#343433" stroke-width="4" stroke-linecap="round" stroke-linejoin="round" stroke-miterlimit="10" d="
						M270.351,330.207v-27.151c0.177-0.318-8.059-0.883-11.382-0.883c-3.313,0-11.554,0.564-11.377,0.883v27.151H270.351z"/>
				</g>
			</g>
		</g>
		<g>
			<g>
				<g>
					<g>
						
							<path fill="none" stroke="#343433" stroke-width="4" stroke-linecap="round" stroke-linejoin="round" stroke-miterlimit="10" d="
							M288.585,222.137v-2.384l-2.263-0.953v-40.527c0.178-0.537-8.105-1.491-11.444-1.491c-3.335,0-11.62,0.954-11.441,1.491V218.8
							l-2.265,0.953v2.384H288.585z"/>
					</g>
				</g>
				<g>
					<g>
						
							<path fill="none" stroke="#343433" stroke-width="4" stroke-linecap="round" stroke-linejoin="round" stroke-miterlimit="10" d="
							M255.425,222.137v-2.384l-2.263-0.953v-40.527c0.178-0.537-8.104-1.491-11.444-1.491c-3.335,0-11.619,0.954-11.441,1.491
							V218.8l-2.265,0.953v2.384H255.425z"/>
					</g>
				</g>
			</g>
			
				<line fill="none" stroke="#343433" stroke-width="4" stroke-linecap="round" stroke-linejoin="round" stroke-miterlimit="10" x1="263.437" y1="187.009" x2="286.322" y2="187.009"/>
			
				<line fill="none" stroke="#343433" stroke-width="4" stroke-linecap="round" stroke-linejoin="round" stroke-miterlimit="10" x1="230.275" y1="187.009" x2="253.161" y2="187.009"/>
		</g>
		<g>
			<g>
				<g>
					<g>
						
							<path fill="none" stroke="#343433" stroke-width="4" stroke-linecap="round" stroke-linejoin="round" stroke-miterlimit="10" d="
							M288.585,280.373v-2.384l-2.263-0.953V236.51c0.178-0.537-8.105-1.491-11.444-1.491c-3.335,0-11.62,0.954-11.441,1.491v40.526
							l-2.265,0.953v2.384H288.585z"/>
					</g>
				</g>
				<g>
					<g>
						
							<path fill="none" stroke="#343433" stroke-width="4" stroke-linecap="round" stroke-linejoin="round" stroke-miterlimit="10" d="
							M255.425,280.373v-2.384l-2.263-0.953V236.51c0.178-0.537-8.104-1.491-11.444-1.491c-3.335,0-11.619,0.954-11.441,1.491
							v40.526l-2.265,0.953v2.384H255.425z"/>
					</g>
				</g>
			</g>
			
				<line fill="none" stroke="#343433" stroke-width="4" stroke-linecap="round" stroke-linejoin="round" stroke-miterlimit="10" x1="263.437" y1="245.245" x2="286.322" y2="245.245"/>
			
				<line fill="none" stroke="#343433" stroke-width="4" stroke-linecap="round" stroke-linejoin="round" stroke-miterlimit="10" x1="230.275" y1="245.245" x2="253.161" y2="245.245"/>
		</g>
	</g>
	
		<line fill="none" stroke="#231F20" stroke-width="4" stroke-linecap="round" stroke-linejoin="round" stroke-miterlimit="10" x1="148.077" y1="136.925" x2="125.617" y2="136.925"/>
	
		<line fill="none" stroke="#231F20" stroke-width="4" stroke-linecap="round" stroke-linejoin="round" stroke-miterlimit="10" x1="223.701" y1="295.298" x2="294.306" y2="295.298"/>
</g>
</svg>
