<?xml version="1.0" encoding="utf-8"?>
<!-- Generator: Adobe Illustrator 18.1.1, SVG Export Plug-In . SVG Version: 6.00 Build 0)  -->
<svg version="1.1" xmlns="http://www.w3.org/2000/svg" xmlns:xlink="http://www.w3.org/1999/xlink" x="0px" y="0px"
	 viewBox="0 0 384.9 442.4" enable-background="new 0 0 384.9 442.4" xml:space="preserve">
<g id="Layer_2">
</g>
<g id="Layer_1">
	<path fill="#FFDCB2" d="M381.7,108.3L195.6,0.9c-2-1.1-4.4-1.1-6.4,0L3.2,108.3c-2,1.1-3.2,3.3-3.2,5.5v214.8
		c0,2.3,1.2,4.4,3.2,5.5l186,107.4c1,0.6,2.1,0.9,3.2,0.9c1.1,0,2.2-0.3,3.2-0.9l186-107.4c2-1.1,3.2-3.3,3.2-5.5V113.8
		C384.9,111.5,383.6,109.4,381.7,108.3z"/>
	<g>
		<path fill="#010101" d="M381.7,108.3L195.6,0.9c-2-1.1-4.4-1.1-6.4,0L3.2,108.3c-2,1.1-3.2,3.3-3.2,5.5v214.8
			c0,2.3,1.2,4.4,3.2,5.5l186,107.4c1,0.6,2.1,0.9,3.2,0.9c1.1,0,2.2-0.3,3.2-0.9l186-107.4c2-1.1,3.2-3.3,3.2-5.5V113.8
			C384.9,111.5,383.6,109.4,381.7,108.3z M121.5,331H23.3l-3.8-2.2h102V331z M30.7,335.2h78.8l-49,17.2L30.7,335.2z M192.4,428.6
			L65.3,355.2l57.4-20.1c0,0,0.1,0,0.1-0.1c0.3,0.1,0.5,0.2,0.8,0.2h21.5c1.1,0,2-0.8,2.1-1.9h44.6c0.2,0,0.5-0.1,0.7-0.2
			c0.2,0.1,0.4,0.2,0.7,0.2h44.6c0.1,1,1,1.9,2.1,1.9h21.5c0.3,0,0.6-0.1,0.8-0.2c0,0,0.1,0,0.1,0.1l57.3,20.1L192.4,428.6z
			 M125.8,331v-43.8H143V331H125.8z M241.9,331v-43.8h17.2V331H241.9z M324.4,352.4l-49-17.2h78.7L324.4,352.4z M361.5,331h-98.1
			v-2.2h101.8L361.5,331z M372.1,324.9l-1.7,1v-27.3c0-1-0.8-1.8-1.8-1.8c-1,0-1.8,0.8-1.8,1.8v28.8H263.4v-0.3h28
			c0.7,0,1.3-0.6,1.3-1.3v-27.2c0-0.7-0.6-1.3-1.3-1.3h-28v-2.1h28c1,0,1.8-0.8,1.8-1.8c0-1-0.8-1.8-1.8-1.8h-28V285
			c0-1.2-1-2.1-2.1-2.1h-21.5c-1.2,0-2.1,1-2.1,2.1v45.8h-44.5c-0.2,0-0.5,0.1-0.7,0.2c-0.2-0.1-0.4-0.2-0.7-0.2h-44.5V285
			c0-1.2-1-2.1-2.1-2.1h-21.5c-1.2,0-2.1,1-2.1,2.1v6.5h-28c-1,0-1.8,0.8-1.8,1.8c0,1,0.8,1.8,1.8,1.8h28v2.1h-28
			c-0.7,0-1.3,0.6-1.3,1.3v27.2c0,0.7,0.6,1.3,1.3,1.3h28v0.3H18.3v-28.8c0-1-0.8-1.8-1.8-1.8c-1,0-1.8,0.8-1.8,1.8V326l-1.9-1.1
			V117.5L192.4,13.8l179.6,103.7V324.9z M264.3,324.5v-24.6h25.9v24.6H264.3z M120.7,299.9v24.6H94.8v-24.6H120.7z"/>
		<path fill="#010101" d="M16.5,289.3c-1,0-1.8,0.8-1.8,1.8v3.3c0,1,0.8,1.8,1.8,1.8c1,0,1.8-0.8,1.8-1.8v-3.3
			C18.3,290.1,17.5,289.3,16.5,289.3z"/>
		<path fill="#010101" d="M51.2,291.5H22.7c-1,0-1.8,0.8-1.8,1.8c0,1,0.8,1.8,1.8,1.8h28.5c1,0,1.8-0.8,1.8-1.8
			C53,292.3,52.2,291.5,51.2,291.5z"/>
		<path fill="#010101" d="M51.2,297.3H22.7c-0.7,0-1.3,0.6-1.3,1.3v27.2c0,0.7,0.6,1.3,1.3,1.3h28.5c0.7,0,1.3-0.6,1.3-1.3v-27.2
			C52.4,297.9,51.9,297.3,51.2,297.3z M49.9,324.5H23.9v-24.6h25.9V324.5z"/>
		<path fill="#010101" d="M26,323h21.9c0.2,0,0.4-0.2,0.4-0.4v-20.8c0-0.2-0.2-0.4-0.4-0.4H26c-0.2,0-0.4,0.2-0.4,0.4v20.8
			C25.6,322.8,25.8,323,26,323z M26.4,302.2h21v20h-21V302.2z"/>
		<path fill="#010101" d="M42.2,313.9c-0.9-0.9-2.7-1.5-3.9-1.8c1.2-0.5,3-1.4,3.8-2.2c1.3-1.3,2.4-4.6,2.4-4.8c0-0.1,0-0.3-0.1-0.4
			c-0.1-0.1-0.3-0.2-0.4-0.1c-0.2,0-4,1-5.4,2.3c-0.8,0.8-1.4,2.4-1.8,3.7c-0.4-1.3-1.1-3-1.9-3.8c-1.3-1.3-5.1-2.1-5.2-2.2
			c-0.2,0-0.3,0-0.4,0.1c-0.1,0.1-0.1,0.3-0.1,0.4c0.1,0.2,1.4,3.7,2.7,5.1c0.8,0.8,2.4,1.5,3.5,1.9c-1.3,0.4-3.2,1.1-4.1,2
			c-1.3,1.3-2.1,5.1-2.2,5.2c0,0.2,0,0.3,0.1,0.4c0.1,0.1,0.2,0.1,0.3,0.1c0,0,0.1,0,0.1,0c0.2-0.1,3.7-1.4,5.1-2.7
			c0.9-0.9,1.6-2.6,2-3.7c0.5,1.2,1.4,3.1,2.3,4c1.3,1.3,4.6,2.4,4.8,2.4c0,0,0.1,0,0.1,0c0,0,0,0,0,0c0.2,0,0.4-0.2,0.4-0.4
			c0-0.1,0-0.2-0.1-0.2C44.3,318.5,43.4,315.2,42.2,313.9z M39.3,307.5c0.8-0.8,2.9-1.5,4.2-1.9c-0.4,1-1.1,2.8-1.9,3.7
			c-0.9,0.9-2.9,1.8-4,2.2C37.8,310.2,38.5,308.3,39.3,307.5z M30.4,305.6c1.3,0.3,3.2,1,4,1.7c0.8,0.8,1.5,2.9,1.9,4.2
			c-1-0.4-2.8-1.1-3.7-1.9C31.8,308.8,30.9,306.7,30.4,305.6z M34.3,316.5c-0.9,0.9-2.9,1.8-4,2.2c0.3-1.3,1-3.2,1.7-4
			c0.8-0.8,2.9-1.5,4.2-1.9C35.9,313.8,35.2,315.7,34.3,316.5z M39.8,316.8c-0.9-0.9-1.8-2.9-2.2-4c1.3,0.3,3.2,1,4,1.7
			c0.8,0.8,1.5,2.9,1.9,4.2C42.5,318.4,40.7,317.6,39.8,316.8z"/>
		<path fill="#010101" d="M86.6,291.5H58.1c-1,0-1.8,0.8-1.8,1.8c0,1,0.8,1.8,1.8,1.8h28.5c1,0,1.8-0.8,1.8-1.8
			C88.4,292.3,87.6,291.5,86.6,291.5z"/>
		<path fill="#010101" d="M86.6,297.3H58.1c-0.7,0-1.3,0.6-1.3,1.3v27.2c0,0.7,0.6,1.3,1.3,1.3h28.5c0.7,0,1.3-0.6,1.3-1.3v-27.2
			C87.9,297.9,87.3,297.3,86.6,297.3z M85.3,324.5H59.4v-24.6h25.9V324.5z"/>
		<path fill="#010101" d="M61.4,323h21.9c0.2,0,0.4-0.2,0.4-0.4v-20.8c0-0.2-0.2-0.4-0.4-0.4H61.4c-0.2,0-0.4,0.2-0.4,0.4v20.8
			C61,322.8,61.2,323,61.4,323z M61.8,302.2h21v20h-21V302.2z"/>
		<path fill="#010101" d="M77.6,313.9c-0.9-0.9-2.7-1.5-3.9-1.8c1.2-0.5,3-1.4,3.8-2.2c1.3-1.3,2.4-4.6,2.4-4.8c0-0.1,0-0.3-0.1-0.4
			c-0.1-0.1-0.3-0.2-0.4-0.1c-0.2,0-4,1-5.4,2.3c-0.8,0.8-1.4,2.4-1.8,3.7c-0.4-1.3-1.1-3-1.9-3.8c-1.3-1.3-5.1-2.1-5.2-2.2
			c-0.2,0-0.3,0-0.4,0.1c-0.1,0.1-0.1,0.3-0.1,0.4c0.1,0.2,1.4,3.7,2.7,5.1c0.8,0.8,2.4,1.5,3.5,1.9c-1.3,0.4-3.2,1.1-4.1,2
			c-1.3,1.3-2.1,5.1-2.2,5.2c0,0.2,0,0.3,0.1,0.4c0.1,0.1,0.2,0.1,0.3,0.1c0,0,0.1,0,0.1,0c0.2-0.1,3.7-1.4,5.1-2.7
			c0.9-0.9,1.6-2.6,2-3.7c0.5,1.2,1.4,3.1,2.3,4c1.3,1.3,4.6,2.4,4.8,2.4c0,0,0.1,0,0.1,0c0,0,0,0,0,0c0.2,0,0.4-0.2,0.4-0.4
			c0-0.1,0-0.2-0.1-0.2C79.8,318.5,78.9,315.2,77.6,313.9z M74.7,307.5c0.8-0.8,2.9-1.5,4.2-1.9c-0.4,1-1.1,2.8-1.9,3.7
			c-0.9,0.9-2.9,1.8-4,2.2C73.3,310.2,73.9,308.3,74.7,307.5z M65.8,305.6c1.3,0.3,3.2,1,4,1.7c0.8,0.8,1.5,2.9,1.9,4.2
			c-1-0.4-2.8-1.1-3.7-1.9C67.2,308.8,66.3,306.7,65.8,305.6z M69.7,316.5c-0.9,0.9-2.9,1.8-4,2.2c0.3-1.3,1-3.2,1.7-4
			c0.8-0.8,2.9-1.5,4.2-1.9C71.3,313.8,70.6,315.7,69.7,316.5z M75.3,316.8c-0.9-0.9-1.8-2.9-2.2-4c1.3,0.3,3.2,1,4,1.7
			c0.8,0.8,1.5,2.9,1.9,4.2C77.9,318.4,76.1,317.6,75.3,316.8z"/>
		<path fill="#010101" d="M96.8,323h21.9c0.2,0,0.4-0.2,0.4-0.4v-20.8c0-0.2-0.2-0.4-0.4-0.4H96.8c-0.2,0-0.4,0.2-0.4,0.4v20.8
			C96.4,322.8,96.6,323,96.8,323z M97.3,302.2h21v20h-21V302.2z"/>
		<path fill="#010101" d="M113.1,313.9c-0.9-0.9-2.7-1.5-3.9-1.8c1.2-0.5,3-1.4,3.8-2.2c1.3-1.3,2.4-4.6,2.4-4.8
			c0-0.1,0-0.3-0.1-0.4c-0.1-0.1-0.3-0.2-0.4-0.1c-0.2,0-4,1-5.4,2.3c-0.8,0.8-1.4,2.4-1.8,3.7c-0.4-1.3-1.1-3-1.9-3.8
			c-1.3-1.3-5.1-2.1-5.2-2.2c-0.2,0-0.3,0-0.4,0.1c-0.1,0.1-0.1,0.3-0.1,0.4c0.1,0.2,1.4,3.7,2.7,5.1c0.8,0.8,2.4,1.5,3.5,1.9
			c-1.3,0.4-3.2,1.1-4.1,2c-1.3,1.3-2.1,5.1-2.2,5.2c0,0.2,0,0.3,0.1,0.4c0.1,0.1,0.2,0.1,0.3,0.1c0,0,0.1,0,0.1,0
			c0.2-0.1,3.7-1.4,5.1-2.7c0.9-0.9,1.6-2.6,2-3.7c0.5,1.2,1.4,3.1,2.3,4c1.3,1.3,4.6,2.4,4.8,2.4c0,0,0.1,0,0.1,0c0,0,0,0,0,0
			c0.2,0,0.4-0.2,0.4-0.4c0-0.1,0-0.2-0.1-0.2C115.2,318.5,114.3,315.2,113.1,313.9z M110.1,307.5c0.8-0.8,2.9-1.5,4.2-1.9
			c-0.4,1-1.1,2.8-1.9,3.7c-0.9,0.9-2.9,1.8-4,2.2C108.7,310.2,109.3,308.3,110.1,307.5z M101.2,305.6c1.3,0.3,3.2,1,4,1.7
			c0.8,0.8,1.5,2.9,1.9,4.2c-1-0.4-2.8-1.1-3.7-1.9C102.6,308.8,101.7,306.7,101.2,305.6z M105.2,316.5c-0.9,0.9-2.9,1.8-4,2.2
			c0.3-1.3,1-3.2,1.7-4c0.8-0.8,2.9-1.5,4.2-1.9C106.7,313.8,106,315.7,105.2,316.5z M110.7,316.8c-0.9-0.9-1.8-2.9-2.2-4
			c1.3,0.3,3.2,1,4,1.7c0.8,0.8,1.5,2.9,1.9,4.2C113.3,318.4,111.5,317.6,110.7,316.8z"/>
		<path fill="#010101" d="M145.2,279.7h-21.5c-0.7,0-1.3,0.6-1.3,1.3s0.6,1.3,1.3,1.3h21.5c0.7,0,1.3-0.6,1.3-1.3
			S145.9,279.7,145.2,279.7z"/>
		<path fill="#010101" d="M118.8,199c-0.6,3.1-0.2,5.6,1.2,7.5c2.1,2.9,5.9,3.5,8.7,3.5c1.4,0,2.3-0.1,2.3-0.2
			c0.6-0.1,1.1-0.6,1.1-1.2v-20.5c0-0.7-0.6-1.2-1.2-1.2h-23.1c-0.3,0-0.6,0.1-0.9,0.4c-0.2,0.2-0.4,0.6-0.4,0.9
			c0,3.9,1.9,11.4,9,11.4C116.5,199.5,117.6,199.4,118.8,199z M109.1,189.4h20.5v18.1c-0.3,0-0.6,0-0.9,0c-1.8,0-5.1-0.3-6.7-2.5
			c-1.2-1.6-1.3-4.2-0.2-7.6c0.1-0.5,0-1-0.3-1.3c-0.2-0.2-0.5-0.3-0.8-0.3c-0.2,0-0.3,0-0.5,0.1c-1.7,0.7-3.3,1.1-4.6,1.1
			C110.5,197,109.4,191.8,109.1,189.4z"/>
		<path fill="#010101" d="M125.8,203.1c0,0.5,0.4,1,1,1c0.5,0,1-0.4,1-1v-11c0-0.5-0.4-1-1-1H115c-0.5,0-1,0.4-1,1c0,0.5,0.4,1,1,1
			h10.9V203.1z"/>
		<circle fill="#010101" cx="105.9" cy="365.3" r="2.6"/>
		<path fill="#010101" d="M192.5,108.9C192.5,108.9,192.5,108.9,192.5,108.9c1.8,0,3.2-1.4,3.2-3.1c0-1.7-1.4-3.1-3.1-3.1
			c0,0,0,0,0,0s0,0,0,0c-1.7,0-3.1,1.4-3.1,3.1C189.3,107.5,190.7,108.9,192.5,108.9C192.5,108.9,192.5,108.9,192.5,108.9z"/>
		<path fill="#010101" d="M368.5,296.3c1,0,1.8-0.8,1.8-1.8v-3.3c0-1-0.8-1.8-1.8-1.8c-1,0-1.8,0.8-1.8,1.8v3.3
			C366.6,295.5,367.5,296.3,368.5,296.3z"/>
		<path fill="#010101" d="M333.8,295.2h28.5c1,0,1.8-0.8,1.8-1.8c0-1-0.8-1.8-1.8-1.8h-28.5c-1,0-1.8,0.8-1.8,1.8
			C332,294.4,332.8,295.2,333.8,295.2z"/>
		<path fill="#010101" d="M362.3,297.3h-28.5c-0.7,0-1.3,0.6-1.3,1.3v27.2c0,0.7,0.6,1.3,1.3,1.3h28.5c0.7,0,1.3-0.6,1.3-1.3v-27.2
			C363.6,297.9,363,297.3,362.3,297.3z M361,324.5h-25.9v-24.6H361V324.5z"/>
		<path fill="#010101" d="M337.1,323H359c0.2,0,0.4-0.2,0.4-0.4v-20.8c0-0.2-0.2-0.4-0.4-0.4h-21.9c-0.2,0-0.4,0.2-0.4,0.4v20.8
			C336.7,322.8,336.9,323,337.1,323z M337.6,302.2h21v20h-21V302.2z"/>
		<path fill="#010101" d="M355.7,305.1c0.1-0.1,0-0.3-0.1-0.4c-0.1-0.1-0.3-0.2-0.4-0.1c-0.2,0-3.9,0.8-5.2,2.2
			c-0.8,0.8-1.5,2.6-1.9,3.8c-0.4-1.2-1-2.9-1.8-3.7c-1.3-1.3-5.2-2.3-5.4-2.3c-0.2,0-0.3,0-0.4,0.1c-0.1,0.1-0.1,0.3-0.1,0.4
			c0,0.1,1.1,3.4,2.4,4.8c0.9,0.9,2.6,1.7,3.8,2.2c-1.2,0.3-3.1,1-3.9,1.8c-1.3,1.3-2.3,5.2-2.3,5.4c0,0.1,0,0.3,0.1,0.4
			c0.1,0.1,0.2,0.1,0.3,0.1c0,0,0.1,0,0.1,0c0.1,0,3.4-1.1,4.8-2.4c0.9-0.9,1.8-2.8,2.3-4c0.4,1.1,1.2,2.8,2,3.7
			c1.3,1.3,4.9,2.7,5.1,2.7c0,0,0.1,0,0.1,0c0.1,0,0.2,0,0.3-0.1c0.1-0.1,0.2-0.3,0.1-0.4c0-0.2-0.8-3.9-2.2-5.2
			c-0.9-0.9-2.8-1.6-4.1-2c1.1-0.4,2.7-1.1,3.5-1.9C354.3,308.9,355.6,305.3,355.7,305.1z M341.5,305.6c1.3,0.4,3.4,1.1,4.2,1.9
			c0.8,0.8,1.4,2.7,1.7,4c-1.1-0.5-3.2-1.4-4-2.2C342.6,308.4,341.9,306.6,341.5,305.6z M345.1,316.8c-0.8,0.8-2.6,1.6-3.7,1.9
			c0.4-1.3,1.1-3.4,1.9-4.2c0.8-0.8,2.7-1.4,4-1.7C346.9,313.9,346,316,345.1,316.8z M354.7,318.7c-1.1-0.5-3.2-1.4-4-2.2
			c-0.8-0.8-1.6-2.6-1.9-3.7c1.3,0.4,3.4,1.1,4.2,1.9C353.7,315.5,354.3,317.4,354.7,318.7z M348.7,311.5c0.4-1.3,1.1-3.4,1.9-4.2
			c0.8-0.8,2.7-1.4,4-1.7c-0.5,1.1-1.4,3.2-2.2,4C351.5,310.4,349.7,311.2,348.7,311.5z"/>
		<path fill="#010101" d="M298.4,295.2h28.5c1,0,1.8-0.8,1.8-1.8c0-1-0.8-1.8-1.8-1.8h-28.5c-1,0-1.8,0.8-1.8,1.8
			C296.6,294.4,297.4,295.2,298.4,295.2z"/>
		<path fill="#010101" d="M326.9,297.3h-28.5c-0.7,0-1.3,0.6-1.3,1.3v27.2c0,0.7,0.6,1.3,1.3,1.3h28.5c0.7,0,1.3-0.6,1.3-1.3v-27.2
			C328.2,297.9,327.6,297.3,326.9,297.3z M325.6,324.5h-25.9v-24.6h25.9V324.5z"/>
		<path fill="#010101" d="M301.7,323h21.9c0.2,0,0.4-0.2,0.4-0.4v-20.8c0-0.2-0.2-0.4-0.4-0.4h-21.9c-0.2,0-0.4,0.2-0.4,0.4v20.8
			C301.3,322.8,301.5,323,301.7,323z M302.1,302.2h21v20h-21V302.2z"/>
		<path fill="#010101" d="M320.3,305.1c0.1-0.1,0-0.3-0.1-0.4c-0.1-0.1-0.3-0.2-0.4-0.1c-0.2,0-3.9,0.8-5.2,2.2
			c-0.8,0.8-1.5,2.6-1.9,3.8c-0.4-1.2-1-2.9-1.8-3.7c-1.3-1.3-5.2-2.3-5.4-2.3c-0.2,0-0.3,0-0.4,0.1c-0.1,0.1-0.1,0.3-0.1,0.4
			c0,0.1,1.1,3.4,2.4,4.8c0.9,0.9,2.6,1.7,3.8,2.2c-1.2,0.3-3.1,1-3.9,1.8c-1.3,1.3-2.3,5.2-2.3,5.4c0,0.1,0,0.3,0.1,0.4
			c0.1,0.1,0.2,0.1,0.3,0.1c0,0,0.1,0,0.1,0c0.1,0,3.4-1.1,4.8-2.4c0.9-0.9,1.8-2.8,2.3-4c0.4,1.1,1.2,2.8,2,3.7
			c1.3,1.3,4.9,2.7,5.1,2.7c0,0,0.1,0,0.1,0c0.1,0,0.2,0,0.3-0.1c0.1-0.1,0.2-0.3,0.1-0.4c0-0.2-0.8-3.9-2.2-5.2
			c-0.9-0.9-2.8-1.6-4.1-2c1.1-0.4,2.7-1.1,3.5-1.9C318.9,308.9,320.2,305.3,320.3,305.1z M306.1,305.6c1.3,0.4,3.4,1.1,4.2,1.9
			c0.8,0.8,1.4,2.7,1.7,4c-1.1-0.5-3.2-1.4-4-2.2C307.2,308.4,306.5,306.6,306.1,305.6z M309.7,316.8c-0.8,0.8-2.6,1.6-3.7,1.9
			c0.4-1.3,1.1-3.4,1.9-4.2c0.8-0.8,2.7-1.4,4-1.7C311.5,313.9,310.6,316,309.7,316.8z M319.3,318.7c-1.1-0.5-3.2-1.4-4-2.2
			c-0.8-0.8-1.6-2.6-1.9-3.7c1.3,0.4,3.4,1.1,4.2,1.9C318.3,315.5,318.9,317.4,319.3,318.7z M313.3,311.5c0.4-1.3,1.1-3.4,1.9-4.2
			c0.8-0.8,2.7-1.4,4-1.7c-0.5,1.1-1.4,3.2-2.2,4C316.1,310.4,314.3,311.2,313.3,311.5z"/>
		<path fill="#010101" d="M288.2,301.4h-21.9c-0.2,0-0.4,0.2-0.4,0.4v20.8c0,0.2,0.2,0.4,0.4,0.4h21.9c0.2,0,0.4-0.2,0.4-0.4v-20.8
			C288.6,301.5,288.4,301.4,288.2,301.4z M287.7,322.2h-21v-20h21V322.2z"/>
		<path fill="#010101" d="M272,309.9c0.9,0.9,2.6,1.7,3.8,2.2c-1.2,0.3-3.1,1-3.9,1.8c-1.3,1.3-2.3,5.2-2.3,5.4c0,0.1,0,0.3,0.1,0.4
			c0.1,0.1,0.2,0.1,0.3,0.1c0,0,0.1,0,0.1,0c0.1,0,3.4-1.1,4.8-2.4c0.9-0.9,1.8-2.8,2.3-4c0.4,1.1,1.2,2.8,2,3.7
			c1.3,1.3,4.9,2.7,5.1,2.7c0,0,0.1,0,0.1,0c0.1,0,0.2,0,0.3-0.1c0.1-0.1,0.2-0.3,0.1-0.4c0-0.2-0.8-3.9-2.2-5.2
			c-0.9-0.9-2.8-1.6-4.1-2c1.1-0.4,2.7-1.1,3.5-1.9c1.3-1.3,2.7-4.9,2.7-5.1c0.1-0.1,0-0.3-0.1-0.4c-0.1-0.1-0.3-0.2-0.4-0.1
			c-0.2,0-3.9,0.8-5.2,2.2c-0.8,0.8-1.5,2.6-1.9,3.8c-0.4-1.2-1-2.9-1.8-3.7c-1.3-1.3-5.2-2.3-5.4-2.3c-0.2,0-0.3,0-0.4,0.1
			c-0.1,0.1-0.1,0.3-0.1,0.4C269.7,305.3,270.7,308.5,272,309.9z M274.3,316.8c-0.8,0.8-2.6,1.6-3.7,1.9c0.4-1.3,1.1-3.4,1.9-4.2
			c0.8-0.8,2.7-1.4,4-1.7C276.1,313.9,275.2,316,274.3,316.8z M283.8,318.7c-1.1-0.5-3.2-1.4-4-2.2c-0.8-0.8-1.6-2.6-1.9-3.7
			c1.3,0.4,3.4,1.1,4.2,1.9C282.9,315.5,283.5,317.4,283.8,318.7z M279.7,307.3c0.8-0.8,2.7-1.4,4-1.7c-0.5,1.1-1.4,3.2-2.2,4
			c-0.8,0.8-2.6,1.6-3.7,1.9C278.2,310.2,278.9,308.1,279.7,307.3z M274.9,307.5c0.8,0.8,1.4,2.7,1.7,4c-1.1-0.5-3.2-1.4-4-2.2
			c-0.8-0.8-1.6-2.6-1.9-3.7C272,306,274.1,306.7,274.9,307.5z"/>
		<path fill="#010101" d="M261.3,279.7h-21.5c-0.7,0-1.3,0.6-1.3,1.3s0.6,1.3,1.3,1.3h21.5c0.7,0,1.3-0.6,1.3-1.3
			S262,279.7,261.3,279.7z"/>
		<path fill="#010101" d="M277.2,186.9h-23.1c-0.7,0-1.2,0.6-1.2,1.2v20.5c0,0.6,0.4,1.1,1.1,1.2c0,0,1,0.2,2.3,0.2
			c2.8,0,6.6-0.6,8.7-3.5c1.4-1.9,1.8-4.4,1.2-7.5c1.2,0.3,2.3,0.5,3.3,0.5l0,0c7,0,9-7.5,9-11.4c0-0.3-0.1-0.6-0.4-0.9
			C277.9,187,277.6,186.9,277.2,186.9z M269.5,197c-1.3,0-2.9-0.4-4.6-1.1c-0.4-0.2-1-0.1-1.3,0.2c-0.4,0.3-0.5,0.8-0.3,1.3
			c1.1,3.4,1,5.9-0.2,7.6c-1.6,2.1-4.9,2.5-6.7,2.5c-0.3,0-0.6,0-0.9,0v-18.1h20.5C275.6,191.8,274.5,197,269.5,197z"/>
		<path fill="#010101" d="M258.1,204.1c0.5,0,1-0.4,1-1v-10H270c0.5,0,1-0.4,1-1c0-0.5-0.4-1-1-1h-11.9c-0.5,0-1,0.4-1,1v11
			C257.2,203.7,257.6,204.1,258.1,204.1z"/>
		<path fill="#010101" d="M278.3,173.4c-10.2,0.5-17.1-8.4-17.2-8.5c-0.2-0.3-0.6-0.5-1-0.5h-52.6l0,0h-14.4c-0.2,0-0.5,0.1-0.7,0.2
			c-0.2-0.1-0.4-0.2-0.7-0.2h-14.4c0,0,0,0,0,0h-52.6c-0.4,0-0.8,0.2-1,0.5c-0.1,0.1-7,9-17.2,8.5c-9.1-0.4-9.8-14.2-9.8-14.3
			c0-0.7-0.6-1.2-1.3-1.2c-0.7,0-1.2,0.6-1.2,1.2v19.1c0,4.3,3.5,7.9,7.9,7.9h32c-0.3,0.1-0.6,0.3-0.9,0.5c-0.4,0.4-0.6,1-0.6,1.5
			l1.9,63.3c0,1.1,1,2.1,2.1,2.1h16.6c0,0,0,0,0,0c1.2,0,2.1-1,2.1-2.1c0-0.1,0-0.2,0-0.3l-1-63c0-0.9-0.6-1.7-1.5-2h16.8
			c0,0,0,0,0,0c0,0,0,0,0,0h20.7v3.5c0,0.1,0,0.1,0,0.2c-7.7,0.5-14.5,4.1-19.3,9.5l-11.8-11.8c-0.4-0.4-1-0.4-1.4,0
			c-0.4,0.4-0.4,1,0,1.4l12,12c-3.4,4.5-5.5,10-5.7,16h-7.6c-0.5,0-1,0.4-1,1c0,0.5,0.4,1,1,1h7.6c0.2,6.9,3,13.2,7.3,17.9
			L158,250.5c-0.5,0.5-0.5,1.3,0,1.8c0.2,0.2,0.6,0.4,0.9,0.4s0.6-0.1,0.9-0.4l13.8-13.8c4.6,4.2,10.5,6.9,17.1,7.3v8.8H115
			c-0.7,0-1.2,0.6-1.2,1.2v21.8c0,0.7,0.6,1.2,1.2,1.2h76.9c0.2,0,0.5-0.1,0.7-0.2c0.2,0.1,0.4,0.2,0.7,0.2H270
			c0.7,0,1.2-0.6,1.2-1.2v-21.8c0-0.7-0.6-1.2-1.2-1.2h-75.6v-8.8c6.6-0.5,12.5-3.2,17-7.4l13.8,13.8c0.2,0.2,0.6,0.4,0.9,0.4
			c0.3,0,0.6-0.1,0.9-0.4c0.5-0.5,0.5-1.3,0-1.8l-13.8-13.8c4.3-4.8,7-11,7.3-17.9h7.7c0.5,0,1-0.4,1-1c0-0.5-0.4-1-1-1h-7.7
			c-0.2-6-2.3-11.5-5.7-15.9c0,0,0,0,0.1,0l12-12c0.4-0.4,0.4-1,0-1.4c-0.4-0.4-1-0.4-1.4,0l-11.9,11.9c-4.8-5.4-11.6-9-19.2-9.5
			c0-0.1,0-0.1,0-0.2v-3.5h20.7l0,0c0,0,0,0,0,0h16.8c-0.8,0.3-1.4,1-1.5,2l-1,63.3c0,0.6,0.2,1.1,0.6,1.5c0.4,0.4,0.9,0.6,1.5,0.6
			h16.6c1.2,0,2.1-0.9,2.1-2.1l1.9-63.3c0-0.6-0.2-1.1-0.6-1.5c-0.2-0.2-0.5-0.4-0.9-0.5h32c4.3,0,7.9-3.5,7.9-7.9v-19.1
			c0-0.7-0.5-1.2-1.2-1.2c-0.7,0-1.2,0.5-1.3,1.2C288.2,159.2,287.4,173,278.3,173.4z M259.4,183.6l-19.8-16.8h10.6l26.4,16.8H259.4
			z M215.9,183.6l-6.6-16.8h11.9l13.2,16.8H215.9z M206.7,166.9l6.6,16.8h-18.9v-16.8H206.7z M237.6,183.6l-13.2-16.8h11.3
			l19.8,16.8H237.6z M150.5,183.6l13.2-16.8h11.9l-6.6,16.8H150.5z M108.4,183.6l26.4-16.8h10.6l-19.8,16.8H108.4z M149.2,166.9
			h11.3l-13.2,16.8h-17.9L149.2,166.9z M96.8,178.2v-9.3c1.9,3.7,4.9,6.7,9.7,7c10.2,0.5,17.2-7,18.9-9h4.7l-26.4,16.8h-1.6
			C99.2,183.6,96.8,181.2,96.8,178.2z M138.9,249.2l-1.8-59h13.2l0.9,59H138.9z M171.7,183.6l6.6-16.8h12.3v16.8H171.7z M268.8,257
			v19.3h-75.6c-0.2,0-0.5,0.1-0.7,0.2c-0.2-0.1-0.4-0.2-0.7-0.2h-75.6V257h75.6c0.2,0,0.5-0.1,0.7-0.2c0.2,0.1,0.4,0.2,0.7,0.2
			H268.8z M216.8,217.8c0,13.4-10.9,24.4-24.4,24.4c-13.4,0-24.4-10.9-24.4-24.4c0-13.4,10.9-24.4,24.4-24.4
			C205.9,193.4,216.8,204.3,216.8,217.8z M246.1,249.2h-12.3l0.9-59h13.2L246.1,249.2z M288.2,168.9v9.3c0,3-2.4,5.4-5.4,5.4h-1.6
			l-26.4-16.8h4.7c1.7,2,8.7,9.5,18.9,9C283.2,175.6,286.3,172.6,288.2,168.9z"/>
		<path fill="#010101" d="M256,138c0-11.3,0.2-25.3,0.3-32.6c0.1-3.3-0.7-4.2-1.8-5.2c-0.1-0.1-0.3-0.2-0.4-0.4
			c-1.6-1.6-5.5-1.4-6.2-1.4h-9.8c-0.6,0-1.1,0.4-1.2,1c-0.1,0.6,0.2,1.2,0.7,1.4l9.6,4.1c0.4,0.9,1.4,3.5,0.3,5.2
			c-1.1,1.9-4.3,2.3-6.7,2.3h-40.2l-0.6-2.6l4.5-4.5c0.3-0.3,0.4-0.7,0.4-1.1c-0.1-0.4-0.3-0.7-0.6-0.9l-6.7-3.6l-3.9-6.4
			c-0.2-0.4-0.6-0.5-1-0.6c-0.1,0-0.1,0-0.2,0c-0.1,0-0.1,0-0.1,0c-0.4,0-0.8,0.2-1,0.6l-3.9,6.4l-6.7,3.6c-0.3,0.2-0.6,0.5-0.6,0.9
			c-0.1,0.4,0.1,0.8,0.4,1.1l4.5,4.5l-0.6,2.6h-40.2c-2.4,0-5.6-0.4-6.7-2.3c-1.1-1.8-0.1-4.3,0.3-5.2l9.6-4.1
			c0.5-0.2,0.8-0.8,0.7-1.4c-0.1-0.6-0.6-1-1.2-1l-9.7,0c-0.8-0.1-4.7-0.3-6.3,1.4c-0.1,0.1-0.3,0.3-0.4,0.4c-1.1,1-1.9,2-1.8,5.2
			c0.1,7.4,0.3,21.4,0.3,32.6c0,4-5.9,8.6-8.5,10.2c-1.6,0.1-8.7,0.3-13.7,0.3l-5.1-18.4c-0.2-0.6-0.7-1-1.4-0.9
			c-0.6,0.1-1.1,0.6-1.1,1.2v24c0,4.3,3.5,7.9,7.9,7.9h81h8.6h81c4.3,0,7.9-3.5,7.9-7.9v-24c0-0.6-0.5-1.1-1.1-1.2
			c-0.6-0.1-1.2,0.3-1.4,0.9l-5.1,18.4c-5,0-12.1-0.3-13.7-0.3C261.9,146.6,256,142,256,138z M279.1,151c0.6,0,1-0.4,1.2-0.9
			l2.9-10.4v14.8c0,3-2.4,5.4-5.4,5.4h-81h-8.6h-81c-3,0-5.4-2.4-5.4-5.4v-14.8l2.9,10.4c0.1,0.5,0.6,0.9,1.2,0.9
			c5.7,0,15-0.3,15.1-0.3c0.2,0,0.4-0.1,0.6-0.2c0.4-0.2,9.9-6.1,9.9-12.5c0-11.2-0.2-25.3-0.3-32.7c0-2.4,0.4-2.8,1-3.4
			c0.2-0.2,0.3-0.3,0.5-0.5c0.5-0.5,2.7-0.8,4.4-0.6h3.7l-4.4,1.9c-0.3,0.1-0.5,0.3-0.6,0.5c-0.1,0.2-2.5,4.6-0.5,8.1
			c1.4,2.3,4.4,3.5,8.9,3.5h41.2c0.6,0,1.1-0.4,1.2-1l1-4.3c0.1-0.4,0-0.9-0.3-1.2l-3.8-3.8l5.5-3c0.2-0.1,0.4-0.3,0.5-0.4l3.1-5.1
			l3.1,5.1c0.1,0.2,0.3,0.3,0.5,0.4l5.5,3l-3.8,3.8c-0.3,0.3-0.4,0.7-0.3,1.2l1,4.3c0.1,0.6,0.6,1,1.2,1h41.2c4.5,0,7.5-1.2,8.9-3.5
			c2-3.4-0.4-7.9-0.5-8.1c-0.1-0.2-0.3-0.4-0.6-0.5l-4.4-1.9l3.8,0c1.6-0.1,3.8,0.1,4.3,0.6c0.2,0.2,0.4,0.3,0.5,0.5
			c0.7,0.6,1.1,0.9,1,3.4c-0.1,7.3-0.3,21.4-0.3,32.7c0,6.4,9.5,12.3,9.9,12.5c0.2,0.1,0.4,0.2,0.6,0.2
			C264.1,150.7,273.5,151,279.1,151z"/>
		<path fill="#010101" d="M272.6,366.9l-71.7,41.6l29.7-38.4c0.7-0.9,0.5-2.3-0.4-3c-0.9-0.7-2.3-0.5-3,0.4l-32.4,42.1v-40.8
			c0-1.2-1-2.1-2.1-2.1c0,0,0,0-0.1,0c0,0,0,0-0.1,0c-1.2,0-2.1,1-2.1,2.1v40.8l-32.4-42.1c-0.7-0.9-2.1-1.1-3-0.4
			c-0.9,0.7-1.1,2.1-0.4,3l29.7,38.4l-71.7-41.6c-1-0.6-2.3-0.2-2.9,0.8c-0.6,1-0.2,2.3,0.8,2.9l81.1,47c0,0,0.1,0,0.1,0
			c0.1,0.1,0.2,0.1,0.4,0.2c0,0,0.1,0,0.1,0c0.2,0,0.3,0.1,0.5,0.1c0,0,0,0,0,0l0,0h0c0,0,0,0,0.1,0c0,0,0,0,0.1,0l0,0l0,0
			c0,0,0,0,0,0c0.2,0,0.3,0,0.5-0.1c0,0,0.1,0,0.1,0c0.1,0,0.2-0.1,0.4-0.2c0,0,0.1,0,0.1,0l81.1-47c1-0.6,1.4-1.9,0.8-2.9
			C274.9,366.7,273.6,366.4,272.6,366.9z"/>
		<circle fill="#010101" cx="279.1" cy="365.3" r="2.6"/>
		<path fill="#010101" d="M192.5,24.7C192.5,24.7,192.5,24.7,192.5,24.7C192.5,24.7,192.5,24.7,192.5,24.7
			C192.5,24.7,192.4,24.7,192.5,24.7C192.4,24.7,192.4,24.7,192.5,24.7c-0.2,0-0.4,0-0.5,0c0,0-0.1,0-0.1,0c-0.1,0-0.2,0-0.2,0.1
			c-0.1,0-0.1,0-0.2,0.1c0,0-0.1,0-0.1,0.1l-81.1,47c-1,0.6-1.4,1.9-0.8,2.9c0.4,0.7,1.1,1.1,1.8,1.1c0.4,0,0.7-0.1,1.1-0.3
			l71.7-41.6l-29.7,38.4c-0.7,0.9-0.5,2.3,0.4,3c0.9,0.7,2.3,0.5,3-0.4l32.4-42.1v40.8c0,1.2,1,2.1,2.1,2.1c0,0,0,0,0.1,0
			c0,0,0,0,0.1,0c1.2,0,2.1-1,2.1-2.1V33.1l32.4,42.1c0.7,0.9,2.1,1.1,3,0.4c0.9-0.7,1.1-2.1,0.4-3l-29.7-38.4l71.7,41.6
			c0.3,0.2,0.7,0.3,1.1,0.3c0.7,0,1.4-0.4,1.8-1.1c0.6-1,0.2-2.3-0.8-2.9l-81.1-47c0,0-0.1,0-0.1-0.1c-0.1,0-0.1,0-0.2-0.1
			c-0.1,0-0.2-0.1-0.3-0.1c0,0-0.1,0-0.1,0C192.8,24.8,192.7,24.7,192.5,24.7C192.6,24.7,192.6,24.7,192.5,24.7
			C192.5,24.7,192.5,24.7,192.5,24.7z"/>
		<path fill="#010101" d="M192.5,258.9c-0.2-0.1-0.4-0.2-0.7-0.2H122c-0.7,0-1.2,0.5-1.2,1.2c0,0.1,0,0.3,0.1,0.4
			c-0.1,0.2-0.1,0.3-0.1,0.5v12.7c0,0.2,0,0.3,0.1,0.4c0,0.1,0,0.1,0,0.1c0,0.7,0.5,1.2,1.2,1.2h69.8c0.2,0,0.5-0.1,0.7-0.2
			c0.2,0.1,0.4,0.2,0.7,0.2H263c0.7,0,1.2-0.5,1.2-1.2c0-0.1,0-0.1,0-0.1c0.1-0.1,0.1-0.3,0.1-0.4v-12.7c0-0.2-0.1-0.4-0.1-0.5
			c0-0.1,0.1-0.2,0.1-0.4c0-0.7-0.5-1.2-1.2-1.2h-69.8C192.9,258.7,192.7,258.8,192.5,258.9z M261.7,272.8h-5.3V261h5.3V272.8z
			 M254,272.8h-5.3V261h5.3V272.8z M246.2,272.8h-5.3V261h5.3V272.8z M238.5,272.8h-5.3V261h5.3V272.8z M230.7,272.8h-5.3V261h5.3
			V272.8z M222.9,272.8h-5.3V261h5.3V272.8z M215.2,272.8h-5.3V261h5.3V272.8z M207.4,272.8h-5.3V261h5.3V272.8z M199.7,272.8h-5.3
			V261h5.3V272.8z M123.2,261h5.3v11.8h-5.3V261z M131,261h5.3v11.8H131V261z M138.8,261h5.3v11.8h-5.3V261z M146.5,261h5.3v11.8
			h-5.3V261z M154.3,261h5.3v11.8h-5.3V261z M162,261h5.3v11.8H162V261z M169.8,261h5.3v11.8h-5.3V261z M177.6,261h5.3v11.8h-5.3
			V261z M185.3,261h5.3v11.8h-5.3V261z"/>
		<path fill="#010101" d="M147.6,140c-0.7,0-1.1,0.4-1.1,1.1v5.4l-5-6c-0.2-0.3-0.5-0.4-0.9-0.4c-0.7,0-1.1,0.4-1.1,1.1v8.4
			c0,0.7,0.4,1,1.1,1c0.7,0,1.1-0.4,1.1-1V144l5,6.1c0.2,0.2,0.5,0.4,0.8,0.4c0.7,0,1.1-0.4,1.1-1V141
			C148.6,140.4,148.2,140,147.6,140z"/>
		<path fill="#010101" d="M155.5,139.9c-1.6,0-2.9,0.5-4,1.6c-1,1-1.5,2.3-1.5,3.8c0,1.5,0.5,2.7,1.5,3.8c1,1,2.4,1.6,4,1.6
			c1.6,0,2.9-0.5,4-1.6c1-1,1.5-2.3,1.5-3.8c0-1.5-0.5-2.7-1.5-3.8C158.4,140.5,157.1,139.9,155.5,139.9z M157.9,147.6
			c-0.6,0.7-1.4,1-2.4,1c-1,0-1.8-0.3-2.4-1c-0.6-0.6-0.8-1.4-0.8-2.3c0-0.9,0.3-1.7,0.8-2.3c0.6-0.7,1.4-1,2.4-1c1,0,1.8,0.3,2.4,1
			c0.6,0.6,0.8,1.4,0.8,2.3C158.7,146.2,158.4,146.9,157.9,147.6z"/>
		<path fill="#010101" d="M166.2,140.1h-2.8c-0.7,0-1.1,0.4-1.1,1.1v8.1c0,0.7,0.4,1.1,1.1,1.1h2.8c1.6,0,2.9-0.5,3.9-1.5
			c1-1,1.5-2.2,1.5-3.7c0-1.5-0.5-2.7-1.5-3.7C169.1,140.6,167.8,140.1,166.2,140.1z M168.5,147.5c-0.6,0.6-1.3,0.9-2.4,0.9h-1.6
			v-6.2h1.6c1,0,1.8,0.3,2.4,0.9c0.6,0.6,0.8,1.3,0.8,2.2C169.4,146.2,169.1,146.9,168.5,147.5z"/>
		<path fill="#010101" d="M179.8,148.3h-4.6v-2.2h2.3c0.7,0,1.1-0.4,1.1-1s-0.4-1-1.1-1h-2.3v-1.9h4.4c0.7,0,1.1-0.4,1.1-1
			s-0.4-1-1.1-1H174c-0.7,0-1.1,0.4-1.1,1.1v8.1c0,0.7,0.4,1.1,1.1,1.1h5.8c0.7,0,1.1-0.4,1.1-1S180.5,148.3,179.8,148.3z"/>
		<path fill="#010101" d="M189,145.3c-0.3-0.2-0.7-0.4-1.3-0.6c-0.4-0.2-1-0.3-1.6-0.5c-1.1-0.3-1.6-0.5-1.8-0.7
			c-0.3-0.2-0.4-0.4-0.4-0.6c0-0.2,0-0.9,2-0.9c0.4,0,0.8,0.1,1.3,0.2c0.4,0.1,0.7,0.3,1.1,0.5c0.1,0.1,0.3,0.1,0.5,0.1
			c0.6,0,1-0.4,1-1c0-0.3-0.2-0.7-0.6-0.9c-0.2-0.2-0.5-0.3-0.9-0.4c-0.8-0.3-1.6-0.4-2.4-0.4c-1.2,0-2.2,0.2-3,0.7
			c-0.8,0.5-1.3,1.3-1.3,2.3c0,0.8,0.3,1.5,0.9,2c0.6,0.5,1.5,0.9,2.9,1.3c0.5,0.1,0.9,0.3,1.2,0.3c0.3,0.1,0.6,0.2,0.8,0.3
			c0.4,0.2,0.5,0.5,0.5,0.7c0,0.3,0,1-2,1c-0.5,0-1-0.1-1.4-0.2c-0.3-0.1-0.7-0.3-1.2-0.6c-0.3-0.2-0.5-0.2-0.7-0.2
			c-0.6,0-1,0.4-1,1c0,0.4,0.2,0.7,0.6,1c1,0.8,2.3,1.1,3.8,1.1c1.3,0,2.3-0.3,3.1-0.9c0.8-0.6,1.1-1.3,1.1-2.2
			C190.1,146.6,189.7,145.9,189,145.3z"/>
		<path fill="#010101" d="M196.4,142c0.9,0,1.7,0.3,2.3,0.9c0.3,0.3,0.6,0.5,0.9,0.5c0.7,0,1-0.4,1-1c0-0.3-0.1-0.5-0.3-0.7
			c-0.9-1.1-2.3-1.7-4.1-1.7c-1.6,0-3,0.5-4,1.6c-1,1-1.5,2.3-1.5,3.7c0,1.5,0.5,2.7,1.5,3.7c1,1.1,2.4,1.6,4,1.6
			c1.8,0,3.1-0.6,4.1-1.7c0.2-0.2,0.3-0.5,0.3-0.7c0-0.6-0.4-1-1-1c-0.3,0-0.7,0.2-0.9,0.5c-0.6,0.6-1.4,1-2.3,1
			c-1.1,0-1.9-0.3-2.5-1c-0.6-0.6-0.8-1.4-0.8-2.3c0-1,0.3-1.7,0.8-2.3C194.5,142.3,195.3,142,196.4,142z"/>
		<path fill="#010101" d="M209.9,140c-0.7,0-1.1,0.4-1.1,1.1v3h-4.6v-3c0-0.7-0.4-1.1-1.1-1.1c-0.7,0-1.1,0.4-1.1,1.1v8.3
			c0,0.7,0.4,1.1,1.1,1.1c0.7,0,1.1-0.4,1.1-1.1v-3.2h4.6v3.2c0,0.7,0.4,1.1,1.1,1.1c0.7,0,1.1-0.4,1.1-1.1v-8.3
			C211.1,140.4,210.6,140,209.9,140z"/>
		<path fill="#010101" d="M217.9,139.9c-1.6,0-2.9,0.5-4,1.6c-1,1-1.5,2.3-1.5,3.8c0,1.5,0.5,2.7,1.5,3.8c1,1,2.4,1.6,4,1.6
			s2.9-0.5,4-1.6c1-1,1.5-2.3,1.5-3.8c0-1.5-0.5-2.7-1.5-3.8C220.8,140.5,219.5,139.9,217.9,139.9z M220.3,147.6
			c-0.6,0.7-1.4,1-2.4,1c-1,0-1.8-0.3-2.4-1c-0.6-0.6-0.8-1.4-0.8-2.3c0-0.9,0.3-1.7,0.8-2.3c0.6-0.7,1.4-1,2.4-1c1,0,1.8,0.3,2.4,1
			c0.6,0.6,0.8,1.4,0.8,2.3C221.1,146.2,220.8,146.9,220.3,147.6z"/>
		<path fill="#010101" d="M229.6,139.9c-1.6,0-2.9,0.5-4,1.6c-1,1-1.5,2.3-1.5,3.8c0,1.5,0.5,2.7,1.5,3.8c1,1,2.4,1.6,4,1.6
			s2.9-0.5,4-1.6c1-1,1.5-2.3,1.5-3.8c0-1.5-0.5-2.7-1.5-3.8C232.6,140.5,231.2,139.9,229.6,139.9z M232,147.6c-0.6,0.7-1.4,1-2.4,1
			c-1,0-1.8-0.3-2.4-1c-0.6-0.6-0.8-1.4-0.8-2.3c0-0.9,0.3-1.7,0.8-2.3c0.6-0.7,1.4-1,2.4-1c1,0,1.8,0.3,2.4,1
			c0.6,0.6,0.8,1.4,0.8,2.3C232.9,146.2,232.6,146.9,232,147.6z"/>
		<path fill="#010101" d="M243.1,148.3h-4.4v-7.2c0-0.7-0.4-1.1-1.1-1.1c-0.7,0-1.1,0.4-1.1,1.1v8.2c0,0.7,0.4,1.1,1.1,1.1h5.5
			c0.7,0,1.1-0.4,1.1-1.1C244.2,148.7,243.8,148.3,243.1,148.3z"/>
		<path fill="#010101" d="M148.1,366.1c0.3,0.6,0.9,0.7,1.5,0.4c0.6-0.3,0.8-0.9,0.4-1.5l-1.6-2.8l4-2.3l1.6,2.8
			c0.3,0.6,0.9,0.7,1.5,0.4c0.6-0.4,0.8-0.9,0.4-1.5l-4.2-7.2c-0.3-0.6-0.9-0.7-1.5-0.4c-0.6,0.4-0.8,0.9-0.4,1.5l1.5,2.6l-4,2.3
			l-1.5-2.6c-0.3-0.6-0.9-0.7-1.5-0.4c-0.6,0.4-0.8,0.9-0.4,1.5L148.1,366.1z"/>
		<path fill="#010101" d="M189.2,359c0.5,0,0.8-0.2,1-0.6l0.9-1.9h4.2l0.9,1.8c0.2,0.4,0.5,0.6,1,0.6c0.7,0,1.1-0.4,1.1-1
			c0-0.1,0-0.3-0.1-0.5l-4-8.4c-0.2-0.4-0.5-0.6-1-0.6c-0.5,0-0.8,0.2-1,0.6l-4,8.4c-0.1,0.2-0.1,0.3-0.1,0.4
			C188.1,358.6,188.5,359,189.2,359z M193.1,351.9l1.2,2.7H192L193.1,351.9z"/>
		<path fill="#010101" d="M230.4,360.6c0.6,0.3,1.1,0.2,1.5-0.4l2.7-4.7l1.3,7.8c0.1,0.3,0.2,0.6,0.5,0.7c0.6,0.3,1.2,0.2,1.5-0.4
			l4.2-7.3c0.3-0.6,0.2-1.1-0.4-1.5c-0.6-0.3-1.2-0.2-1.5,0.4l-2.7,4.7l-1.3-7.7c0-0.4-0.2-0.6-0.5-0.8c-0.6-0.3-1.2-0.2-1.5,0.4
			l-4.2,7.3C229.6,359.7,229.8,360.3,230.4,360.6z"/>
	</g>
</g>
</svg>
