<?xml version="1.0" encoding="utf-8"?>
<!-- Generator: Adobe Illustrator 16.0.0, SVG Export Plug-In . SVG Version: 6.00 Build 0)  -->
<!DOCTYPE svg PUBLIC "-//W3C//DTD SVG 1.1//EN" "http://www.w3.org/Graphics/SVG/1.1/DTD/svg11.dtd">
<svg version="1.1" id="Layer_1" xmlns="http://www.w3.org/2000/svg" xmlns:xlink="http://www.w3.org/1999/xlink" x="0px" y="0px"
	 width="684.849px" height="790.568px" viewBox="0 0 684.849 790.568" enable-background="new 0 0 684.849 790.568"
	 xml:space="preserve">
<g>
	<polygon fill="#C7E5E2" stroke="#00A79D" stroke-width="24" stroke-miterlimit="10" points="12.179,204.57 342.505,13.856 
		672.832,204.57 672.832,585.999 342.505,776.712 12.179,585.999 	"/>
	<g>
		<defs>
			<polygon id="SVGID_1_" points="23.138,210.897 342.505,26.51 661.874,210.897 661.874,579.671 342.505,764.06 23.138,579.671 			
				"/>
		</defs>
		<clipPath id="SVGID_2_">
			<use xlink:href="#SVGID_1_"  overflow="visible"/>
		</clipPath>
		<g clip-path="url(#SVGID_2_)">
			<path fill="none" d="M-83.309,420.922c0-136.674,0.004-273.347-0.039-410.021c0-1.758,0.211-2.368,2.225-2.367
				c264.936,0.058,529.871,0.058,794.807,0c2.016,0,2.226,0.611,2.225,2.368c-0.043,137.673-0.04,275.346-0.04,413.019
				c-2.313,0.231-4.623,0.607-6.941,0.664c-4.239,0.102-8.349,1.535-12.632,1.128c-1.575-0.149-3.05-0.974-4.663-0.741
				c-5.719,0.828-11.476,0.237-17.207,0.504c-2.838,0.132-5.636-0.123-8.452-0.332c-5.929-0.44-11.729-2.02-17.802-1.38
				c-4.088,0.431-8.249-0.204-12.357-0.925c-1.946-0.342-3.858-1.843-5.786-1.084c-5.182,2.041-10.377,0.746-15.508,0.246
				c-5.24-0.509-10.468-0.817-15.696-0.517c-6.203,0.357-6.323,0.653-6.036,6.786c0.022,0.492,0.155,0.98,0.256,1.467
				c0.526,2.555-0.053,3.411-2.553,3.122c-7.144-0.826-14.305-0.335-21.456-0.432c-3.026-0.04-5.392-0.774-6.354-3.988
				c-0.591-1.977-2.006-2.653-4.021-2.535c-3.561,0.209-7.095,0.241-10.652-0.49c-2.736-0.562-4.585,0.899-5.341,3.524
				c-3.026-3.173-6.521-4.146-10.827-2.792c-1.116,0.352-2.044,0.467-3.085-0.044c-2.642-1.294-5.476-1.215-8.318-1.188
				c-2.009,0.018-2.697,0.959-2.361,2.843c0.19,1.071,0.629,2.179-0.423,3.245c-0.284-2.97-2.452-4.615-4.455-5.844
				c-1.902-1.169-4.485-0.994-6.798-0.538c-1.009,0.2-1.098,1.101-1.083,1.99c0.023,1.515,0.006,3.031,0.006,5.136
				c-1.723-2.911-0.598-6.89-4.669-7.283c-6.06-0.585-6.068-0.495-9.152,6.413c0-1.578,0.03-2.97-0.009-4.359
				c-0.035-1.276-0.72-2.052-2.018-2.069c-2.664-0.034-5.314-0.181-7.964-0.491c-1.711-0.2-2.658,0.591-2.641,2.44
				c0.01,1.098,0.217,2.256-0.492,3.909c-0.535-3.699-3.029-5.143-5.37-6.362c-2.148-1.12-4.857-0.993-7.056-0.121
				c-1.858,0.737-0.49,3.028-0.957,4.558c-0.139,0.456-0.073,0.975-0.129,1.939c-0.442-1.182-0.715-1.928-1.001-2.668
				c-1.544-3.99-1.912-4.224-6.105-3.139c-1.478,0.383-2.751,0.238-4.068-0.481c-1.78-0.973-2.686-0.274-2.738,1.659
				c-0.038,1.435-0.007,2.873-0.007,4.678c-0.504-0.504-0.676-0.595-0.712-0.724c-1.441-5.227-6.709-8.148-11.853-6.609
				c-0.882,0.264-0.988,0.906-1.3,1.611c-0.764,1.734-0.336,3.64-0.785,5.749c-0.871-1.024-0.429-1.938-0.696-2.669
				c-0.573-1.568-0.379-3.881-2.545-4.174c-2.95-0.399-5.925-0.876-8.943-0.653c-1.438,0.106-2.131,0.766-2.131,2.188
				c0,1.525,0,3.051,0,4.576c-0.213,0.02-0.426,0.038-0.639,0.057c-0.491-1.566-0.494-3.141-1.894-4.54
				c-2.856-2.857-6.166-2.298-9.52-2.336c-2.151-0.024-2.976,1.02-2.964,3.069c0.007,1.223,0.229,2.52-0.413,3.996
				c-0.805-1.366-0.533-2.473-0.557-3.53c-0.065-3.085-0.46-3.67-3.559-3.872c-2.82-0.183-5.66-0.041-8.49-0.101
				c-1.817-0.038-2.569,0.822-2.509,2.586c0.048,1.414,0.01,2.83,0.01,4.246c-1.145-1.803-1.889-3.563-2.526-5.361
				c-0.537-1.517-1.437-2.104-3.058-1.709c-1.115,0.271-2.256,0.577-3.444,0.342c-5.958-1.182-5.988-1.18-6.476,4.958
				c-0.114,1.444-0.674,2.129-2.274,2.007c0.297-1.079,0.596-2.095,0.857-3.12c0.729-2.86,0.404-3.347-2.394-3.979
				c-3.38-0.766-6.797-0.523-10.198-0.366c-2.145,0.099-3.119,1.286-2.65,3.539c0.231,1.108,0.769,2.313-0.17,3.655
				c-0.894-1.852-0.54-3.544-0.612-5.178c-0.077-1.75-0.922-2.599-2.651-2.593c-2.331,0.008-4.673-0.115-6.991,0.063
				c-4.973,0.384-5.706,1.15-6.242,5.898c-0.031,0.282,0.147,0.667-0.356,0.833c-0.23-1.647-0.567-3.271-0.658-4.91
				c-0.113-2.032-1.283-2.646-2.999-2.345c-3.403,0.6-6.786-0.111-10.183-0.018c-2.162,0.06-3.046,0.823-2.982,2.951
				c0.037,1.256,0.231,2.57-0.318,3.984c-0.905-0.975-0.517-1.929-0.613-2.785c-0.097-0.848-0.211-1.65-0.914-2.239
				c-4.194-3.517-11.673-3.115-13.521,3.269c-0.455,1.572-1.237,2.494-3.015,2.224c-1.855-0.282-1.52-1.725-1.521-2.907
				c-0.002-1.511-0.226-2.755-1.827-3.46c-3.587-1.58-7.355-2.239-11.19-1.782c-7.747,0.926-15.383,2.659-23.179,3.265
				c-1.023,0.079-2.136,0.302-2.762,1.029c-2.775,3.229-6.252,3.643-10.145,2.931c-1.048-0.191-2.16-0.011-3.243-0.032
				c-11.979-0.231-23.958-0.042-35.945-0.329c-13.802-0.33-27.613-0.87-41.433-0.693c-8.392,0.107-16.802,0.404-25.204-0.651
				c2.839-1.83,4.766-4.553,6.64-7.219c3.302-4.698,6.298-9.564,6.779-15.578c0.208-2.598-0.341-4.278-2.89-5.314
				c-2.497-1.014-4.939-1.901-7.703-1.707c-1.653,0.116-3.353,0.133-4.986-0.109c-7.45-1.104-14.887-1.517-22.336-0.046
				c-1.004,0.198-1.982,0.007-2.972-0.163c-5.033-0.861-10.18-1.381-15.128-0.236c-3.587,0.83-7.076,1.627-10.77,1.6
				c-2.833-0.021-3.218,0.628-2.422,3.342c0.679,2.319,1.609,4.669,1.095,7.089c-0.931,4.38-1.901,8.722-2.006,13.239
				c-0.037,1.604-0.278,3.477-2.147,4.549c-0.432-0.795-0.076-1.311,0.097-1.828c0.57-1.705,0.277-2.538-1.821-2.703
				c-2.34-0.184-4.624-0.026-6.945,0.035c-4.134,0.107-8.23,1.103-12.425,0.281c-3.056-0.6-6.139-1.019-9.293,0.266
				c-1.945,0.793-4.179,0.696-6.39,0.284c-5.274-0.981-10.607-2.273-15.844,0.271c-0.144,0.07-0.325,0.061-0.491,0.085
				c-7.607,1.171-15.268-0.375-22.884,0.447c-0.241,0.026-0.493-0.065-0.741-0.09c-5.398-0.542-10.794-0.43-16.193,0.014
				c-3.136,0.259-6.332,1.545-9.367,0.747c-3.291-0.868-6.406-1.497-9.751-0.621c-0.86,0.225-1.877,0.257-2.73,0.031
				c-3.746-0.996-7.263,0.063-10.786,1.053c-1.419,0.398-2.85,0.562-4.151-0.084c-4.977-2.469-10.156-0.768-15.227-0.723
				c-2.249,0.021-4.277,0.519-5.667-1.827c-0.25-0.421-0.944-0.708-1.479-0.808c-3.452-0.641-6.919-0.96-10.405-0.196
				c-0.685,0.15-1.66,0.792-2.007-0.083c-0.405-1.022,0.974-0.822,1.42-1.323c0.133-0.148,0.173-0.38,0.271-0.612
				c-1.496-0.665-2.667,0.072-3.889,0.558c-1.747,0.693-3.699,1.215-5.17-0.162c-1.725-1.615-2.181-0.75-2.642,0.843
				C-82.93,419.661-83.122,420.292-83.309,420.922z M477.977,412.438c-0.446-0.601-0.984-1.154-1.322-1.811
				c-1.347-2.613-3.391-3.523-6.329-3.247c-5.273,0.498-10.537,0.048-15.791-0.601c-1.374-0.169-3.338-0.63-3.98,1.129
				c-0.794,2.167-1.798,1.549-2.881,0.571c-2.529-2.287-5.764-1.728-8.718-2.25c-0.752-0.132-1.983-0.083-2.271,0.705
				c-1.226,3.343-2.75,1.223-4.155,0.307c-3.078-2.008-8.711-1.936-11.521,0.302c-0.729,0.582-1.297,0.288-1.794-0.068
				c-2.565-1.839-5.517-2.055-8.521-2.344c-3.784-0.364-4.798,0.561-4.058,4.25c0.196,0.976,0.578,1.912,0.826,2.878
				c0.26,1.019,0.863,1.547,1.923,1.628c1.987,0.153,3.968,0.458,5.956,0.505c4.275,0.104,4.442-0.072,5.504-4.088
				c0.045-0.167,0.26-0.288,0.525-0.565c0.232,1.08,0.473,1.959,0.6,2.854c0.17,1.19,0.84,1.655,1.994,1.816
				c4.189,0.589,8.321,1.099,11.171-3.107c0.066-0.098,0.295-0.087,0.669-0.184c-0.265,3.384,2.177,3.516,4.527,3.773
				c1.486,0.162,2.967,0.413,4.458,0.494c4.372,0.235,4.584,0.057,5.498-4.019c0.735,0.694,0.449,1.541,0.397,2.335
				c-0.068,1.05,0.49,1.623,1.451,1.631c3.484,0.033,7.138,0.838,10.393-0.454c2.399-0.952,4.255-0.489,6.335,0.298
				c2.685,1.016,7.215-0.379,9.091-2.774c2.185,2.421,5.07,3.228,8.166,3.611c4.063,0.503,4.108,0.503,5.332-2.599
				c3.193,2.727,6.984,3.285,10.999,3.03c0.892-0.056,1.742-0.333,1.87-1.32c0.315-2.42,1.455-1.461,2.373-0.552
				c1.862,1.846,3.988,2.263,6.426,1.536c1.195-0.357,2.433-0.616,3.575-1.101c1.146-0.486,2.21-0.385,3.028,0.39
				c2.095,1.981,4.37,1.622,6.739,0.766c1.779-0.643,3.528-1.876,5.285,0.185c0.299,0.35,1.347,0.347,1.906,0.136
				c3.167-1.196,6.17,0.502,9.261,0.604c2.682,0.088,5.406,0.439,8.134,0.309c0.843-0.04,1.779-0.141,2.162-0.989
				c0.573-1.269,1.484-1.113,2.172-0.439c3.042,2.982,7.042,0.162,10.273,1.801c2.227-1.799,5.145-0.844,7.593-1.918
				c1.575-0.692,3.444-1.205,4.333,1.204c0.232,0.628,0.75,0.88,1.4,0.762c0.642-0.116,1.023-0.558,1.172-1.161
				c0.117-0.48,0.156-0.982,0.196-1.477c0.041-0.52,0.095-1.042,0.737-1.115c0.692-0.079,1.154,0.321,1.233,0.966
				c0.274,2.276,0.382,4.688,3.776,2.899c0.151-0.08,0.492,0.078,0.683,0.212c1.027,0.721,2.065,0.949,2.746-0.325
				c0.617-1.15,0.828-2.685-0.259-3.471c-2.704-1.958-5.212-4.363-9.15-3.703c-2.749,0.461-5.615,0.023-8.422-0.012
				c-4.892-0.062-9.771-0.651-14.677-0.748c-2.301-0.045-3.849,0.436-3.735,3.497c-1.977-4.174-3.021-4.508-8.755-3.967
				c-2.551,0.24-1.902,2.229-2.409,4.387c-1.486-3.118-3.323-4.735-6.344-4.702c-1.565,0.017-3.158-0.449-4.673,0.188
				c-1.48,0.622-0.891,2.327-1.708,4.02c-1.62-4.524-4.971-4.875-8.491-4.334c-3.478,0.535-6.861-0.212-10.285-0.33
				c-1.405-0.049-2.806-0.274-4.222-0.125c-1.948,0.204-1.57,2.244-2.653,3.69c-1.413-3.6-4.317-3.759-7.271-4.105
				c-4.281-0.502-5.035,0.04-5.014,4.348c0.002,0.333,0.008,0.667,0.012,1c-1.812-5.159-5.953-6.135-10.732-6.013
				c-1.833,0.046-2.78,0.911-2.794,2.754C477.939,410.94,477.965,411.689,477.977,412.438z M538.295,375.791
				c-5.059-0.75-10.028-1.924-15.044-1.003c-3.118,0.572-6.105,0.636-9.111-0.221c-1.121-0.319-3.104-0.291-2.807-1.822
				c0.372-1.906,2.319-0.846,3.387-0.589c6.601,1.586,13.009,1.399,19.252-1.458c0.6-0.274,1.261-0.444,1.909-0.574
				c0.626-0.126,1.215-0.042,1.129,0.838c-0.27,2.793,1.607,2.224,2.858,1.518c1.64-0.924,2.946-0.714,4.418,0.137
				c1.863,1.08,3.826,1.125,5.996,1.031c2.424-0.106,4.867-1.967,7.396-0.065c0.69,0.52,3.925-2.243,3.887-3.216
				c-0.071-1.862-1.416-1.979-2.834-2.002c-0.783-0.013-1.587-0.172-1.589-1.181c-0.002-0.985,0.774-1.164,1.566-1.235
				c0.332-0.031,0.668-0.03,0.996-0.077c0.578-0.084,1.222-0.139,1.337-0.877c0.11-0.704-0.391-1.114-0.948-1.297
				c-2.821-0.92-4.425-3.435-6.673-5.103c-1.423-1.055-2.731-1.506-4.373-0.927c-3.108,1.098-6.315,1.355-9.592,1.303
				c-2.906-0.047-5.823,0.234-8.713,0.3c-4.066,0.093-8.966,1.94-11.216-3.98c-0.731-1.927-0.885-2.664,1.182-3.454
				c2.34-0.895,2.444-1.791,0.825-3.697c-0.55-0.648-0.528-1.378-0.556-2.113c-0.042-1.12-0.533-1.951-1.578-2.319
				c-1.839-0.647-2.329-2.04-2.648-3.819c-0.354-1.967-0.107-3.81,0.33-5.677c0.354-1.512,0.552-2.856-0.889-4.072
				c-0.994-0.839-0.787-1.745,0.66-2.11c0.86-0.217,2.471,0.468,2.4-0.863c-0.06-1.127-1.661-0.597-2.589-0.759
				c-0.902-0.157-1.806-0.292-2.706-0.45c-0.822-0.143-1.387-0.571-1.443-1.462c-0.142-2.247-1.152-4.352-1.039-6.646
				c0.074-1.48,0.021-2.946-2.104-2.887c-2.169,0.061-2.004,1.652-1.931,3.049c0.101,1.897-0.352,3.406-2.087,4.451
				c-1.205,0.726-1.229,1.872-1.178,3.257c0.107,2.929,2.416,5.061,2.461,8.044c0.027,1.822-0.536,2.269-2.059,2.115
				c-1.654-0.167-3.302-0.413-4.947-0.647c-0.821-0.118-1.774-0.467-2.248,0.466c-0.595,1.172,0.641,1.358,1.257,1.739
				c4.974,3.075,7.515,7.791,8.166,13.333c0.521,4.43,0.333,8.949,1.306,13.349c0.239,1.081,0.215,2.114-0.979,2.484
				c-1.426,0.443-1.839-0.71-2.239-1.75c-0.588-1.527-0.269-3.138-0.453-4.699c-0.224-1.896-1.177-2.329-2.54-1.125
				c-0.674,0.595-1.384,0.9-2.219,1c-2.721,0.324-5.444,0.625-8.166,0.938c-2.059,0.238-4.169,0.271-6.061,1.261
				c-0.813,0.425-1.673,1.001-1.712,1.999c-0.043,1.091,1.02,1.11,1.772,1.416c1.9,0.772,1.726,2.503,1.643,4.042
				c-0.091,1.703-1.465,1.662-2.77,1.773c-3.259,0.273-6.446,0.434-9.496-1.191c-1.221-0.651-2.306-0.257-2.425,1.409
				c-0.053,0.732-0.279,1.331-1.177,1.277c-1.553-0.093-3.129-0.07-4.651-0.34c-1.768-0.314-2.84-0.216-2.993,2.02
				c-0.146,2.135-1.143,2.537-3.07,1.456c-1.52-0.853-3-1.817-4.095-3.221c-0.892-1.143-2.076-1.938-3.259-2.69
				c-1.973-1.255-3.164-0.595-3.264,1.715c-0.039,0.911-0.031,1.832,0.06,2.738c0.143,1.404-0.513,1.761-1.779,1.598
				c-5.623-0.722-11.28-0.818-16.938-0.826c-2.571-0.003-4.943-0.567-7.132-1.924c-1.663-1.029-0.995-2.875-1.53-4.3
				c-0.701-1.867-3.519-2.848-3.724-1.582c-0.524,3.225-2.551,3.146-4.836,3.222c-0.327,0.011-0.66,0.472-0.956,0.761
				c-2.718,2.652-5.003,3.09-8.421,1.441c-1.456-0.702-2.921-1.095-4.538-1.194c-4.009-0.247-7.952-0.932-11.501-2.929
				c-3.206-1.804-6.75-1.544-10.188-1.944c-1.63-0.19-2.971,0.239-3.436,2.103c-0.273,1.099-0.995,1.736-1.943,0.734
				c-2.141-2.264-5.012-2.429-7.769-2.947c-0.781-0.146-1.693-0.698-2.361,0.064c-0.873,0.998,0.966,1.357,0.721,2.294
				c-1.234,0.426-1.702-0.38-2.068-1.25c-0.396-0.939-1.071-1.32-2.057-1.567c-2.199-0.548-3.45,0.294-4.299,2.287
				c-0.481,1.131-1.174,2.335-2.745,2.105c-1.718-0.252-1.361-1.607-1.302-2.742c0.054-1.042-0.559-1.479-1.424-1.763
				c-1.97-0.648-3.511-0.132-4.895,1.441c-2.116,2.406-2.123,2.299-4.339,0.09c-0.726-0.722-1.389-2.49-2.933-0.919
				c-0.363,0.369-0.535,0.064-0.789-0.163c-1.409-1.258-3.107-0.989-4.445-0.236c-2.303,1.295-4.609,0.784-6.918,0.514
				c-0.869-0.102-1.482-0.256-1.709,0.744c-0.236,1.04-0.674,0.623-1.174,0.227c-0.626-0.494-1.411-0.41-2.138-0.564
				c-7.818-1.663-15.78,0.368-23.613-0.932c-0.805-0.133-1.736-0.058-2.132,0.901c-0.48,1.164,0.131,2.084,0.772,2.988
				c0.553,0.776,1.207,1.098,2.141,0.667c0.448-0.207,0.93-0.423,1.409-0.457c0.702-0.05,1.825-0.377,1.945,0.505
				c0.146,1.073-1.023,0.701-1.681,0.821c-0.692,0.128-1.997-0.058-1.773,0.826c0.609,2.415-1.077,1.673-2.073,1.676
				c-8.822,0.031-17.604-1.408-26.381-1.325c-12.629,0.119-25.16-1.804-37.842-0.908c-9.016,0.637-18.141,0.51-27.21-0.162
				c-1.815-0.135-3.739-0.259-5.47,0.178c-4.457,1.125-8.953,0.529-13.395,0.464c-7.412-0.111-14.836-0.006-22.166,0.735
				c-4.553,0.461-9.111,0.425-13.642,0.691c-6.045,0.354-12.074,1.244-18.156,1.066c-0.877-0.025-2.006,0.186-2.181,1.285
				c-0.165,1.036,0.33,2.096,1.398,2.386c1.733,0.471,1.379,1.234,0.607,2.299c-0.619,0.855-1.125,1.793-1.659,2.658
				c-0.233-0.077-0.332-0.08-0.383-0.131c-1.131-1.148-0.717-3.875-2.656-3.792c-1.893,0.081-1.363,2.503-1.941,3.881
				c-1.004,2.393-3.464,2.429-5.428,2.916c-1.435,0.355-0.919-1.592-1.49-2.396c-0.923-1.301-1.74-2.005-3.088-0.461
				c-1.007,1.153-2.313,1.208-3.652,0.567c-1.5-0.719-3.02-1.406-4.469-2.217c-0.818-0.458-1.588-0.655-2.31-0.047
				c-1.712,1.444-3.58,2.714-5.241,4.182c-1.263,1.116-2.103,3.127-1.552,4.728c0.515,1.493,2.487,0.901,3.851,0.921
				c8.239,0.116,16.484,0.046,24.718,0.311c6.152,0.199,12.307,0.431,18.412-0.305c5.521-0.666,10.975-1.498,16.593-1.545
				c9.923-0.085,19.773,1.246,29.678,1.083c6.813-0.111,13.62,0.695,20.435,0.061c0.983-0.092,2.008-0.009,2.986,0.151
				c4.477,0.739,8.769,0.004,13.031-1.368c1.79-0.577,2.355-1.568,2.015-3.361c-0.458-2.41-0.238-4.739,0.667-7.092
				c1.093-2.842,0.308-3.843-2.769-3.882c-5.152-0.064-10.296,0.122-15.446,0.372c-2.739,0.132-4.384,1.135-5.348,3.576
				c-0.552,1.4-1.155,2.796-2.466,3.68c-0.897,0.605-2.005,1.421-2.958,0.987c-1.057-0.482,0.147-1.59,0.013-2.447
				c-0.076-0.482,0.007-1,0.08-1.492c0.444-2.998-0.724-3.974-3.653-2.814c-1.811,0.717-3.493,1.761-5.253,2.668
				c-0.204-2.554-1.113-3.097-3.856-2.417c-1.58,0.393-3.076,1.476-4.808,0.78c-2.196-0.883-4.229-0.379-6.265,0.531
				c-1.204,0.539-2.558,2.226-3.411-0.526c-0.207-0.669-1.475-0.719-2.295-0.645c-1.761,0.158-3.452,0.587-4.735,1.95
				c-0.363,0.386-0.732,1.263-1.267,0.325c-1.663-2.917-3.393-1.773-5.259-0.264c-0.583,0.472-1.469,1.311-2.094,0.172
				c-1.133-2.065-2.657-1.609-4.26-0.874c-0.946,0.433-1.763,0.561-2.836,0.172c-2.285-0.825-4.239-0.336-5.427,2.053
				c-0.518,1.041-1.143,2.033-1.776,3.011c-0.33,0.51-0.551,1.474-1.396,1.054c-0.688-0.342-0.394-1.183-0.27-1.823
				c0.294-1.521,1.612-2.843,1.023-4.52c-0.442-1.258,0.183-1.437,1.172-1.491c1.576-0.085,3.158-0.142,4.722-0.336
				c4.954-0.616,9.96-1.494,14.898-1c5.624,0.562,11.141,0.159,16.648-0.537c7.527-0.95,15.094-0.693,22.633-0.974
				c3.861-0.144,7.757,0.175,11.673-0.024c3.723-0.189,7.463-1.136,11.188-0.423c2.185,0.418,4.274,0.225,6.438,0.024
				c5.126-0.474,10.21-1.552,15.401-1.176c6.545,0.474,13.082,1.211,19.634,1.362c7.65,0.176,15.279,0.475,22.919,0.965
				c11.94,0.768,23.918,0.938,35.861,1.677c4.575,0.283,9.141,0.309,13.71,0.446c1.301,0.04,3.088,1.239,3.326-1.421
				c0.048-0.537,0.829-0.31,1.314-0.3c7.624,0.152,15.233,0.807,22.814,1.42c9.358,0.757,18.752,0.519,28.1,1.61
				c7.247,0.846,14.6,0.803,21.903,1.156c4.568,0.221,9.137,0.47,13.707,0.659c11.539,0.478,23.043,1.529,34.591,1.96
				c13.777,0.515,27.536,1.543,41.307,2.282c8.303,0.446,16.615,0.73,24.919,1.154c4.149,0.211,8.335,0.308,12.423,0.96
				c2.618,0.418,5.074,1.777,7.834,1.84c1.242,0.028,2.765,0.598,3.632-0.252c1.622-1.591,3.316-1.154,5.102-0.836
				c1.081,0.193,2.15,0.27,3.205-0.11c1.486-0.534,1.768-1.875,2.088-3.176c0.243-0.983-0.23-1.824-1.09-1.961
				c-3.334-0.53-5.586-4.775-9.633-2.813c-0.001,0.001-0.131-0.265-0.427-0.86c4.281-0.722,8.049-3.138,12.509-2.487
				c2.031,0.296,3.979,0.096,5.927-0.423c0.549-0.146,1.261-0.192,1.239-0.971c-0.021-0.757-0.714-0.9-1.277-0.925
				c-3.404-0.149-6.929-0.86-10.195-0.238c-7.026,1.337-14.312-0.233-21.195,2.164c-0.591,0.206-1.448-0.243-1.819,0.47
				c-0.399,0.769,0.406,1.165,0.808,1.647c0.435,0.521,0.969,1.011,0.438,1.735c-0.476,0.648-1.134,1.075-1.943,0.736
				c-0.958-0.399-2.312-0.303-2.686-1.547C536.167,377.966,536.991,376.921,538.295,375.791z M240.537,347.377
				c0.434,0.849-0.204,1.1-0.396,1.508c-1.183,2.508,0.022,4.513,2.811,4.584c0.828,0.021,1.659-0.095,2.49-0.131
				c3.562-0.151,7.137-2.306,10.688,0.062c0.122,0.082,0.327,0.039,0.492,0.054c3.978,0.364,7.957,0.724,11.955,0.52
				c1.468-0.075,3.18,0.589,4.34-0.482c0.975-0.898,0.049-2.373,0.153-3.595c0.103-1.204,0.526-1.878,1.802-1.867
				c1.345,0.012,1.681,0.853,1.661,1.985c-0.01,0.582-0.004,1.173-0.103,1.744c-0.227,1.312,0.507,1.951,1.615,2.029
				c3.562,0.25,7.135,0.554,10.697,0.495c1.756-0.028,3.448-0.761,2.873-3.294c-0.304-1.337,0.23-2.271,1.882-2.125
				c0.602,0.053,1.204-0.251,1.206-0.98c0.003-0.788-0.682-0.83-1.254-0.919c-2.221-0.346-4.445-0.783-6.7-0.457
				c-1.649,0.238-3.267,0.427-4.958,0.293c-4.79-0.379-9.593-0.607-14.391-0.888c-4.351-0.254-8.672,1.136-12.844,1
				c-4.832-0.158-9.707-1.102-14.623-1.04c-1.187,0.016-1.502-0.684-1.531-1.787c-0.027-1.033,0.249-1.554,1.337-1.634
				c0.824-0.062,1.639-0.278,2.455-0.44c0.483-0.096,1.06-0.119,1.255-0.666c0.247-0.689-0.303-1.09-0.744-1.435
				c-1.644-1.288-3.386-2.354-5.422-3.003c-4.773-1.521-9.779-2.009-14.57-3.431c-1.243-0.369-2.422-0.746-2.528-2.331
				c-0.419-6.311-0.758-12.623-0.56-18.952c0.04-1.263,0.564-2.039,1.831-2.288c0.734-0.144,1.464-0.317,2.189-0.502
				c0.589-0.151,1.213-0.415,1.103-1.125c-0.12-0.762-0.809-0.717-1.402-0.617c-0.984,0.166-1.968,0.347-2.946,0.548
				c-1.313,0.27-2.189-0.158-2.229-1.57c-0.127-4.548-0.827-9.239,2.897-12.927c0.893-0.885,0.989-1.937-0.125-2.494
				c-2.891-1.445-3.646-3.761-3.418-6.771c0.104-1.366-0.749-2.497-2.225-2.521c-1.409-0.022-1.934,1.157-2.144,2.369
				c-0.384,2.213-0.786,4.429-0.63,6.696c0.232,3.378-0.471,6.558-1.545,9.776c-0.835,2.498-1.613,4.02-4.562,2.814
				c-0.879-0.359-1.978-0.155-2.967-0.276c-0.819-0.099-1.494,0.005-1.884,0.826c-0.447,0.94-0.033,1.588,0.707,2.139
				c1.334,0.993,2.68,1.973,3.985,3.001c0.796,0.627,2.201,0.892,1.868,2.317c-0.29,1.243-1.508,1.406-2.539,1.734
				c-0.721,0.23-1.96-0.152-1.941,1.045c0.015,0.98,1.162,0.702,1.817,0.938c2.161,0.781,2.748,2.331,2.573,4.52
				c-0.182,2.293-1.908,2.206-3.397,2.519c-1.542,0.325-3.132,0.452-4.65,0.857c-0.883,0.236-1.684,0.917-1.671,1.958
				c0.011,0.896,0.891,1.165,1.573,1.404c1.566,0.548,3.182,0.955,4.744,1.512c0.606,0.216,1.271,0.62,1.141,1.443
				c-0.139,0.873-0.9,0.847-1.563,0.889c-8.126,0.51-16.247,1.268-24.379,1.438c-5.923,0.125-11.78,0.837-17.674,1.116
				c-4.209,0.2-7.545,1.463-9.483,5.516c-0.687,1.437-1.984,2.442-3.638,2.836c-0.562,0.134-1.235,0.32-1.146,1.077
				c0.09,0.76,0.812,0.737,1.373,0.793c1.87,0.19,3.3,1.117,4.321,2.643c0.895,1.334,1.149,2.409-1.054,2.713
				c-1.926,0.266-1.911,0.401-1.67,2.216c0.071,0.536-0.404,0.653-0.663,0.943c-3.118,3.5-3.042,6.046,0.269,8.772
				c-0.395,0.667-1.148,0.561-1.737,0.796c-0.524,0.209-1.315,0.224-1.246,0.97c0.068,0.734,0.836,0.697,1.401,0.73
				c1.628,0.098,3.162,0.603,4.421,1.555c1.496,1.132,3.083,1.368,4.887,1.479c1.907,0.118,3.336-1.435,4.682-1.5
				c4.452-0.216,9.024-0.021,13.401,0.803c6.189,1.167,12.204,0.495,17.945-1.383c2.832-0.926,4.952-2.368,7.545,0.181
				c0.584,0.574,2.435,0.927,2.105-1.013c-0.289-1.697,0.319-2.107,1.764-2.136c0.564-0.011,0.987-0.226,0.73-0.941
				c-0.418-1.166,0.486-0.993,1.097-1.021c8.277-0.382,16.499-2.097,24.841-1.036c1.064,0.135,2.165,0.039,3.244-0.02
				c0.759-0.04,1.658-0.182,1.616-1.159c-0.039-0.862-0.933-0.747-1.566-0.882c-2.685-0.569-5.368-1.147-8.045-1.756
				c-0.46-0.105-1.094-0.284-0.959-0.914c0.14-0.654,0.778-0.514,1.251-0.412c1.287,0.278,2.682,0.312,3.533-0.672
				C233.856,349.285,237.97,349.948,240.537,347.377z M425.899,388.97c1.625,1.83-1.653,5.549,2.931,6.038
				c4.265,0.454,2.686-3.125,3.705-5.183c0.835,1.141,0.928,2.052,0.891,2.953c-0.07,1.698,0.582,2.483,2.368,2.234
				c2.667-0.372,5.294,0.176,7.901,0.59c1.754,0.279,2.719-0.065,2.881-1.988c0.108-1.3,0.618-2.503,1.403-3.914
				c0.966,1.807,1.743,3.341,2.596,4.831c0.455,0.792,1.056,1.769,2.112,1.39c3.994-1.432,7.808-0.289,11.752,0.334
				c2.968,0.469,6.124,0.308,9.107,0.34c5.231,0.056,10.36,1.281,15.628,0.873c3.212-0.249,6.526,0.665,9.747,0.756
				c3.884,0.111,7.774-0.449,11.695,0.204c4.838,0.804,9.75-1.052,14.651,0.387c1.688,0.495,2.191-1.247,2.099-2.659
				c-0.119-1.843,0.924-4.167-1.782-5.127c-0.149-0.053-0.389-0.098-0.486-0.021c-2.033,1.636-3.865,0.884-5.712-0.388
				c-0.271-0.186-0.845-0.096-1.209,0.044c-1.655,0.63-3.259,0.152-4.915-0.01c-4.946-0.485-9.908-0.834-14.868-1.165
				c-1.882-0.126-3.438,1.11-5.788,0.037c-1.951-0.889-4.996-0.618-7.567-0.611c-6.48,0.014-12.938-0.414-19.393-0.946
				c-1.651-0.135-3.426-0.353-4.215,2.049c-0.448-1.456-0.981-2.613-2.521-2.518c-4.568,0.284-9.108-0.239-13.662-0.39
				c-5.359-0.178-10.702-0.134-16.074-0.632c-3.435-0.319-6.891-1.078-10.535-0.597c-2.305,0.305-5.061,0.849-7.26,0.213
				c-3.7-1.068-7.445-0.347-11.104-1.13c-1.459-0.314-3.205-0.435-4.294,1.212c-0.188,0.285-0.604,0.37-0.894,0.134
				c-2.865-2.331-6.491-1.893-9.751-2.349c-4.68-0.654-6.176,0.129-5.038,4.416c0.146,0.554,0.184,1.164,0.137,1.737
				c-0.157,1.958,0.621,2.673,2.656,2.985c2.885,0.443,4.235-0.431,4.304-3.529c0.884,1.35,0.021,3.655,2.336,3.721
				c2.82,0.08,5.22-0.55,4.997-4.708c1.297,1.953-0.158,4.625,2.282,4.716c2.127,0.079,4.809,1.927,6.465-1.248
				c1.496,2.38,3.715,1.973,5.856,1.752c0.64-0.066,1.229-0.582,1.922-0.279c3.2,1.4,6.666,0.191,9.927,1.016
				c0.48,0.121,0.994,0.096,1.481,0.196c1.793,0.367,2.753-0.104,2.457-2.171C424.947,391.354,425.125,390.15,425.899,388.97z
				 M370.121,350.956c0.569,0,1.14,0.022,1.707-0.004c1.917-0.089,3.52-0.231,2.755-3.042c-0.325-1.195-0.017-2.667-0.062-4.027
				c-0.113-3.351,0.057-3.511-3.224-3.39c-6.305,0.231-12.603,0.624-18.904,0.93c-1.555,0.076-2.045,0.931-2.277,2.387
				c-0.255,1.595-0.458,3.591-1.484,4.586c-1.833,1.778-0.957,2.71,0.527,3.979c-1.526,0.328-2.278,1.498-3.244,2.396
				c-0.633,0.588-1.152,1.309-0.863,2.197c0.323,0.995,1.303,0.957,2.108,0.934c2.572-0.076,5.143-0.307,7.716-0.343
				c9.971-0.14,19.934-0.792,29.914-0.09c5.881,0.413,11.735,1.243,17.649,1.184c0.385-0.003,0.773,0.211,1.419,0.4
				c-1.438,1.479-1.74,3.049-0.693,4.818c-0.714,0.033-1.126,0.043-1.537,0.075c-1.382,0.11-3.241-0.045-1.112,2.021
				c0.223,0.216,0.353,0.569,0.435,0.883c0.511,1.961,1.64,1.816,2.978,0.878c1.426-1,2.757-2.196,4.694-1.998
				c0.413,0.042,0.909,0.044,0.938-0.519c0.027-0.529-0.462-0.612-0.867-0.699c-1.141-0.243-2.411,0.211-3.746-0.545
				c4.421-1.377,4.421-1.377,3.312-4.665c0.767-0.564,2.544,0.025,2.286-1.649c-0.211-1.369-1.504-1.62-2.725-1.693
				c-0.083-0.005-0.167-0.008-0.25-0.013c-7.199-0.501-14.408-0.907-21.597-1.546c-3.448-0.307-6.987-0.312-10.248-1.822
				C373.982,351.773,372.147,351.266,370.121,350.956z M369.05,328.127c-4.552,0.331-9.119,0.521-13.647,1.049
				c-2.5,0.292-4.985,0.126-7.469,0.319c-0.759,0.06-1.601,0.162-1.683,1.13c-0.082,0.972,0.711,1.211,1.472,1.363
				c1.625,0.324,3.259,0.605,4.88,0.946c1.146,0.24,2.96-0.552,3.274,0.906c0.274,1.271-1.68,0.885-2.469,1.53
				c-0.129,0.105-0.296,0.166-0.413,0.279c-0.738,0.716-2.121,1.143-1.688,2.476c0.396,1.215,1.665,0.864,2.615,0.879
				c4.325,0.075,8.634-0.39,12.948-0.507c11.334-0.307,22.544,1.537,33.822,2.245c1.372,0.086,3.104,0.826,3.907-0.629
				c0.811-1.472-0.899-2.257-1.752-3.199c-1.222-1.35-0.854-2.257,0.81-2.673c1.287-0.322,2.622-0.455,3.918-0.747
				c0.842-0.19,2.119-0.139,2.022-1.372c-0.093-1.176-1.319-1.047-2.2-1.133c-3.718-0.364-7.432-0.81-11.157-1.022
				c-3.743-0.212-7.29-1.663-11.056-1.614c-2.024,0.026-3.938-0.275-5.827-1.093c-2.03-0.879-4.111-1.189-6.194,0.177
				C371.967,328.221,370.481,328.237,369.05,328.127z M390.574,407.433c0.641,1.725,1.11,3.048,1.626,4.354
				c0.318,0.808,0.833,1.497,1.78,1.552c3.064,0.18,6.095,0.833,9.194,0.564c1.388-0.121,2.066-0.735,2.298-2.113
				c0.624-3.713-1.822-6.341-6.061-6.893c-4.938-0.643-9.916-0.004-14.866-0.807c-2.563-0.415-5.293,0.192-7.948,0.34
				c-0.606,0.033-1.206,0.182-1.479,0.763c-0.614,1.309-1.527,1.05-2.474,0.517c-3.232-1.821-7.011-1.081-10.398-2.213
				c-0.543-0.182-1.451,0.004-1.892,0.375c-1.295,1.091-2.605,0.792-3.987,0.396c-3.455-0.991-6.916-1.858-10.557-0.999
				c-1.234,0.291-2.881-0.148-3.2,1.679c-0.323,1.843-0.229,3.528,1.507,4.917c3.885,3.11,8.393,2.636,12.847,2.516
				c1.084-0.029,1.414-0.996,1.517-1.988c0.058-0.55-0.075-1.312,0.666-1.445c0.654-0.117,1.07,0.484,1.301,0.996
				c1.111,2.461,3.309,2.795,5.603,2.931c1.078,0.065,2.163,0.045,3.244,0.032c2.752-0.035,5.979,0.728,6.099-4.133
				c1.626,4.237,4.579,4.54,8.201,4.813C388.301,413.944,388.81,410.429,390.574,407.433z M265.066,355.943
				c-8.577,0-15.651,0.034-22.725-0.02c-2.199-0.018-3.695,0.344-2.876,3.081c0.158,0.527,0.085,1.172-0.038,1.727
				c-0.706,3.174-0.721,3.152,2.514,3.312c0.739,0.037,1.467,0.264,2.202,0.385c2.291,0.38,4.541,1.166,6.897,0.958
				c6.579-0.578,13.086,0.7,19.646,0.76c2.295,0.021,4.378,0.076,6.512-0.907c1.373-0.633,2.825-1.498,4.522-0.88
				c1.1,0.4,1.956,2.12,3.261,1.119c1.165-0.893,0.438-2.502,0.581-3.789c0.044-0.412,0.03-0.833,0.014-1.248
				c-0.065-1.654,0.695-2.44,2.376-2.479c0.742-0.018,1.993,0.255,1.947-0.907c-0.037-0.921-1.213-0.593-1.897-0.671
				C279.872,355.456,271.708,356.236,265.066,355.943z M364.09,388.306c0.126,3.568,1.926,4.451,4.263,4.094
				c2.712-0.415,5.263,0.01,7.857,0.652c2.016,0.5,3.233-0.434,3.298-2.552c0.047-1.567-0.335-3.15-0.243-4.71
				c0.095-1.613-0.626-2.101-2.031-2.073c-5.538,0.106-11.046-0.438-16.566-0.727c-1.604-0.085-3.339-0.613-4.77,0.703
				c-0.397,0.365-0.738,0.111-1.098-0.139c-3.592-2.496-7.563-1.088-11.352-0.903c-1.806,0.088-3.652,2.047-5.042-0.709
				c-0.106-0.211-0.581-0.293-0.897-0.332c-4.265-0.516-6.775,2.562-5.392,6.595c0.854,2.486,1.967,3.024,4.985,2.782
				c2.337-0.188,1.836-1.908,2.032-3.302c0.049-0.344,0.189-0.626,0.621-0.589c0.533,0.246,0.602,0.778,0.701,1.249
				c0.571,2.703,2.354,3.427,4.836,2.96c1.165-0.218,2.31,0.025,3.445,0.008c2.299-0.035,4.754,1.249,6.902-0.625
				c0.481-0.42,0.639,0.148,0.926,0.416C359.376,393.731,362.932,392.796,364.09,388.306z M281.78,382.565
				c-0.256-1.475-0.132-3.149-1.904-3.447c-2.131-0.358-4.384-0.591-6.427,0.108c-1.146,0.393-1.891,0.25-2.95-0.058
				c-1.944-0.564-4.181-1.367-5.455,1.205c-0.849,1.709-1.537,3.5-2.265,5.266c-0.342,0.833-0.297,1.637,0.467,2.26
				c1.948,1.591,8.07,0.291,9.316-2.131c0.729,4.291,4.019,2.848,6.562,3.168c2.415,0.305,3.026-1.229,3.224-3.811
				c0.443,1.056,0.663,1.417,0.747,1.806c0.443,2.044,1.56,2.712,3.633,2.13c2.027-0.569,4.244-0.487,6.002-2.038
				c0.577,2.967,2.707,3.07,7.768,1.725c3.198-0.85,1.435-3.983,1.43-6.052c-0.009-3.368-2.927-2.589-4.889-2.675
				c-3.936-0.171-4.227,0.182-4.746,3.842c-1.422-4.509-1.423-4.384-7.209-4.469C282.734,379.361,282.016,380.448,281.78,382.565z
				 M311.959,386.268c-0.093-0.004-0.186-0.008-0.28-0.012c-0.061-1.241-0.101-2.483-0.188-3.722
				c-0.071-0.998-0.517-1.682-1.567-1.978c-5.876-1.658-8.254,0.547-7.187,6.446c0.407,2.251,1.345,3.126,3.617,2.96
				c6.283-0.46,12.55,0.194,18.801,0.651c5.766,0.422,5.838,0.544,5.45-5.096c-0.33-4.795-1.631-5.494-5.825-3.189
				c-0.561,0.309-0.885,0.642-1.068,1.25c-0.228,0.76-1.092,0.9-1.279,0.305c-0.941-3.001-3.655-2.336-5.629-2.57
				c-3.326-0.394-4.349-1.34-4.499,3.269C312.287,385.148,312.08,385.707,311.959,386.268z M277.032,410.398
				c1.746,0,3.494,0.029,5.24-0.008c1.982-0.042,2.981-0.874,2.336-3.013c-0.409-1.352-0.749-2.727-1.077-4.101
				c-0.348-1.464-1.166-2.116-2.728-2.408c-4.294-0.803-8.601,0.275-12.903-0.356c-2.049-0.301-3.219,1.478-2.609,3.717
				c0.863,3.169,2.642,6.299,7.001,6.173C273.871,410.356,275.452,410.395,277.032,410.398z M225.69,399.182
				c2.354,3.051,2.346,3.019-0.684,3.848c-1.734,0.476-1.796,2.044-1.894,3.428c-0.111,1.57,1.011,2.311,2.354,2.345
				c5.051,0.128,10.104,0.571,15.158,0.095c0.968-0.091,1.697-0.389,1.979-1.515c1.414-5.667,0.583-7.035-4.947-7.938
				c-0.41-0.067-0.812-0.249-1.219-0.251C233.026,399.173,229.615,399.182,225.69,399.182z M295.44,410.924c0-0.012,0-0.024,0-0.036
				c1.328,0,2.66,0.065,3.983-0.011c6.257-0.364,7.434-2.593,4.292-8.042c-0.347-0.601-0.733-1.159-1.484-1.173
				c-4.879-0.098-9.749-0.664-14.639-0.252c-1.442,0.121-2.001,0.896-2.084,2.268c-0.199,3.335,3.347,7.209,6.693,7.245
				C293.281,410.934,294.36,410.924,295.44,410.924z M313.743,401.929c-0.916,0-1.833,0.003-2.748,0
				c-5.014-0.024-5.699,0.792-4.778,5.706c0.107,0.573,0.259,1.137,0.368,1.708c0.183,0.95,0.758,1.399,1.708,1.523
				c4.55,0.591,9.12,0.648,13.696,0.534c0.996-0.025,1.792-0.35,1.881-1.55c0.154-2.096-0.251-4.146-0.516-6.202
				c-0.133-1.027-1.059-1.112-1.901-1.279C318.9,401.865,316.322,401.903,313.743,401.929z M253.115,399.943
				c-2.176,0-3.919-0.021-5.66,0.009c-0.826,0.014-1.664,0.052-2.162,0.924c-1.347,2.363,1.424,8.339,4.134,8.454
				c3.945,0.168,7.941,0.759,11.827-0.719c1.265-0.48,2.957-0.622,2.49-2.388c-0.546-2.067,0.151-4.973-2.896-5.748
				C258.177,399.797,255.42,399.871,253.115,399.943z M334.848,411.932c6.773-0.043,5.533,0.477,6.765-5.195
				c0.55-2.539-0.438-3.431-2.733-3.872c-3.795-0.729-7.613-0.072-11.41-0.403c-1.241-0.107-2.778,0.032-2.794,1.729
				c-0.018,1.935-1.123,4.387,1.45,5.542C329.071,411.054,332.045,412.504,334.848,411.932z M539.923,396.951
				c1.125,2.46,1.127,2.424,3.465,2.534c1.236,0.058,2.463,0.284,3.698,0.407c2.854,0.282,4.177-0.889,4.299-3.782
				c0.107-2.52-1.323-4.133-3.779-4.18c-3.643-0.068-7.286,0.145-10.919-0.465c-1.294-0.217-2.945-0.45-3.241,1.683
				c-0.363,2.615,0.74,5.387,2.297,5.903C537.642,399.681,538.965,399.107,539.923,396.951z M443.371,366.728
				c2.429-0.333,2.562-1.843,2.375-3.669c-0.121-1.189-0.626-1.984-1.764-2.018c-2.485-0.071-4.989-0.119-7.457,0.116
				c-1.384,0.132-2.494,1.236-2.554,2.688c-0.068,1.638,1.432,1.775,2.638,2.073c0.441,0.109,1.121-0.219,1.3,0.326
				c0.616,1.885,0.579,1.938,1.987,1.896c4.817-0.14,9.6,0.312,14.383,0.779c3.831,0.375,7.62-0.298,11.429-0.491
				c0.496-0.025,1.114-0.116,1.108-0.737c-0.006-0.615-0.623-0.678-1.12-0.743c-2.718-0.351-5.448-0.882-8.182-0.437
				C452.879,367.268,448.237,366.706,443.371,366.728z M565.436,392.933c-3.517-0.165-3.505-0.167-3.097,3.308
				c0.087,0.742,0.063,1.497,0.087,2.246c0.039,1.188,0.348,2.235,1.778,2.222c1.427-0.013,1.625-1.072,1.778-2.246
				c0.149-1.136-0.638-3.177,0.748-3.181c1.27-0.004,1.017,2.132,1.159,3.414c0.036,0.33,0.018,0.67,0.085,0.994
				c0.16,0.777,0.662,1.355,1.381,0.783c0.968-0.77,1.563-0.163,2.422,0.145c1.576,0.562,3.372,0.79,4.81-0.214
				c1.485-1.036-0.235-2.225-0.238-3.376c-0.001-0.487-0.282-0.971-0.3-1.462c-0.06-1.593-0.948-2.132-2.429-2.186
				C570.891,393.277,568.165,393.088,565.436,392.933z M394.135,349.046c0.003-2.154-0.906-4.001-1.974-5.804
				c-0.84-1.42-1.907-2.346-3.669-1.763c-1.806,0.598-2,2.167-1.831,3.671c0.215,1.907,0.979,3.678,1.961,5.348
				c0.791,1.346,1.642,2.711,3.451,2.188C393.793,352.191,394.054,350.617,394.135,349.046z M588.657,406.415
				c1.1-0.049,2.588,0.144,3.014-1.597c0.755-3.081-3.317-7.671-6.42-7.294c-0.731,0.089-1.194,0.53-1.506,1.16
				C582.493,401.222,585.641,406.404,588.657,406.415z M282.206,371.595c1.51-0.07,3-0.089,4.479-0.228
				c0.677-0.064,1.289-0.485,1.44-1.202c0.167-0.79-0.464-1.222-1.038-1.525c-0.57-0.302-1.219-0.564-1.852-0.62
				c-2.387-0.208-4.792,0.048-7.184-0.365c-1.104-0.19-1.98,0.53-2.122,1.643c-0.133,1.048,0.651,1.758,1.6,1.909
				C279.077,371.449,280.656,371.477,282.206,371.595z M375.187,365.01c5.332,0.238,10.601,0.82,15.892,0.905
				c0.949,0.015,1.928-0.354,2.087-1.422c0.176-1.182-1.068-1.043-1.709-1.452c-0.797-0.509-1.715-0.771-2.628-0.6
				C384.298,363.291,379.804,364.336,375.187,365.01z M298.992,360.4c-0.885,0-1.22-0.017-1.552,0.003
				c-1.069,0.064-2.4-0.084-2.29,1.541c0.102,1.491,1.32,1.118,2.303,1.122c1.994,0.007,3.991,0.019,5.979,0.151
				c0.918,0.062,1.814,0.269,2.69-0.146c0.534-0.253,1.102-0.539,1.056-1.239c-0.05-0.768-0.706-0.906-1.282-0.885
				C303.386,361.041,300.921,360.624,298.992,360.4z M552.408,396.054c-0.017,0-0.031,0.001-0.048,0.002
				c0.047,0.827,0.049,1.66,0.155,2.479c0.1,0.767,0.403,1.489,1.269,1.657c0.963,0.188,1.735-0.365,1.968-1.17
				c0.48-1.655,0.866-3.38,0.47-5.118c-0.262-1.152-1.139-1.539-2.273-1.458c-1.184,0.084-1.512,0.85-1.538,1.866
				C552.396,394.892,552.408,395.473,552.408,396.054z"/>
			<path fill-rule="evenodd" clip-rule="evenodd" fill="#00A79D" d="M-83.309,420.922c0.188-0.631,0.379-1.261,0.562-1.894
				c0.461-1.593,0.917-2.458,2.642-0.843c1.471,1.377,3.423,0.855,5.17,0.162c1.222-0.485,2.393-1.223,3.889-0.558
				c-0.099,0.232-0.139,0.464-0.271,0.612c-0.446,0.501-1.825,0.301-1.42,1.323c0.347,0.876,1.322,0.234,2.007,0.083
				c3.486-0.764,6.953-0.444,10.405,0.196c0.535,0.1,1.229,0.387,1.479,0.808c1.39,2.346,3.418,1.848,5.667,1.827
				c5.07-0.045,10.25-1.747,15.227,0.723c1.302,0.646,2.732,0.483,4.151,0.084c3.523-0.99,7.04-2.049,10.786-1.053
				c0.854,0.227,1.87,0.194,2.73-0.031c3.345-0.875,6.46-0.247,9.751,0.621c3.035,0.798,6.231-0.488,9.367-0.747
				c5.399-0.444,10.795-0.556,16.193-0.014c0.248,0.025,0.5,0.117,0.741,0.09c7.616-0.822,15.276,0.725,22.884-0.447
				c0.166-0.025,0.348-0.016,0.491-0.085c5.236-2.544,10.569-1.251,15.844-0.271c2.211,0.412,4.444,0.51,6.39-0.284
				c3.154-1.285,6.237-0.866,9.293-0.266c4.194,0.821,8.291-0.174,12.425-0.281c2.321-0.061,4.605-0.219,6.945-0.035
				c2.099,0.165,2.392,0.999,1.821,2.703c-0.173,0.517-0.528,1.033-0.097,1.828c1.869-1.072,2.11-2.945,2.147-4.549
				c0.104-4.517,1.075-8.859,2.006-13.239c0.515-2.42-0.416-4.771-1.095-7.089c-0.796-2.713-0.411-3.362,2.422-3.342
				c3.693,0.028,7.183-0.77,10.77-1.6c4.948-1.146,10.095-0.625,15.128,0.236c0.989,0.17,1.968,0.36,2.972,0.163
				c7.449-1.471,14.886-1.058,22.336,0.046c1.634,0.242,3.333,0.226,4.986,0.109c2.764-0.195,5.206,0.692,7.703,1.707
				c2.549,1.036,3.098,2.716,2.89,5.314c-0.481,6.014-3.478,10.88-6.779,15.578c-1.874,2.667-3.801,5.389-6.64,7.219
				c8.402,1.055,16.812,0.758,25.204,0.651c13.819-0.177,27.631,0.363,41.433,0.693c11.987,0.286,23.966,0.097,35.945,0.329
				c1.083,0.021,2.195-0.16,3.243,0.032c3.893,0.711,7.369,0.298,10.145-2.931c0.626-0.727,1.738-0.95,2.762-1.029
				c7.796-0.605,15.432-2.339,23.179-3.265c3.835-0.458,7.604,0.202,11.19,1.782c1.602,0.706,1.825,1.95,1.827,3.46
				c0.001,1.183-0.335,2.625,1.521,2.907c1.777,0.271,2.56-0.652,3.015-2.224c1.848-6.384,9.326-6.786,13.521-3.269
				c0.703,0.589,0.817,1.391,0.914,2.239c0.097,0.855-0.292,1.81,0.613,2.785c0.55-1.415,0.355-2.729,0.318-3.984
				c-0.063-2.128,0.82-2.891,2.982-2.951c3.396-0.093,6.779,0.618,10.183,0.018c1.716-0.302,2.886,0.313,2.999,2.345
				c0.091,1.639,0.428,3.263,0.658,4.91c0.504-0.166,0.325-0.551,0.356-0.833c0.536-4.748,1.27-5.515,6.242-5.898
				c2.318-0.178,4.66-0.055,6.991-0.063c1.729-0.006,2.574,0.844,2.651,2.593c0.072,1.634-0.281,3.326,0.612,5.178
				c0.938-1.342,0.401-2.547,0.17-3.655c-0.469-2.252,0.506-3.439,2.65-3.539c3.401-0.157,6.818-0.4,10.198,0.366
				c2.798,0.632,3.123,1.12,2.394,3.979c-0.262,1.025-0.561,2.041-0.857,3.12c1.601,0.122,2.16-0.563,2.274-2.007
				c0.487-6.139,0.518-6.141,6.476-4.958c1.188,0.235,2.329-0.071,3.444-0.342c1.621-0.395,2.521,0.192,3.058,1.709
				c0.638,1.798,1.382,3.558,2.526,5.361c0-1.416,0.038-2.832-0.01-4.246c-0.061-1.765,0.691-2.624,2.509-2.586
				c2.83,0.06,5.67-0.082,8.49,0.101c3.099,0.201,3.493,0.786,3.559,3.872c0.023,1.057-0.248,2.164,0.557,3.53
				c0.642-1.476,0.42-2.773,0.413-3.996c-0.012-2.05,0.812-3.093,2.964-3.069c3.354,0.038,6.663-0.521,9.52,2.336
				c1.399,1.399,1.402,2.973,1.894,4.54c0.213-0.02,0.426-0.038,0.639-0.057c0-1.525,0-3.051,0-4.576
				c0-1.422,0.693-2.082,2.131-2.188c3.019-0.223,5.993,0.254,8.943,0.653c2.166,0.293,1.972,2.606,2.545,4.174
				c0.268,0.731-0.175,1.645,0.696,2.669c0.449-2.109,0.021-4.015,0.785-5.749c0.312-0.705,0.418-1.347,1.3-1.611
				c5.144-1.539,10.411,1.383,11.853,6.609c0.036,0.129,0.208,0.22,0.712,0.724c0-1.805-0.031-3.243,0.007-4.678
				c0.053-1.933,0.958-2.632,2.738-1.659c1.317,0.719,2.591,0.864,4.068,0.481c4.193-1.085,4.562-0.851,6.105,3.139
				c0.286,0.741,0.559,1.486,1.001,2.668c0.056-0.964-0.01-1.483,0.129-1.939c0.467-1.529-0.901-3.821,0.957-4.558
				c2.198-0.872,4.907-0.999,7.056,0.121c2.341,1.22,4.835,2.664,5.37,6.362c0.709-1.653,0.502-2.811,0.492-3.909
				c-0.018-1.849,0.93-2.641,2.641-2.44c2.649,0.31,5.3,0.457,7.964,0.491c1.298,0.018,1.982,0.793,2.018,2.069
				c0.039,1.389,0.009,2.782,0.009,4.359c3.084-6.907,3.093-6.998,9.152-6.413c4.071,0.393,2.946,4.372,4.669,7.283
				c0-2.104,0.018-3.621-0.006-5.136c-0.015-0.889,0.074-1.79,1.083-1.99c2.312-0.457,4.896-0.631,6.798,0.538
				c2.003,1.229,4.171,2.874,4.455,5.844c1.052-1.066,0.613-2.174,0.423-3.245c-0.336-1.883,0.353-2.825,2.361-2.843
				c2.843-0.027,5.677-0.106,8.318,1.188c1.041,0.511,1.969,0.396,3.085,0.044c4.307-1.354,7.801-0.381,10.827,2.792
				c0.756-2.625,2.604-4.085,5.341-3.524c3.558,0.731,7.092,0.699,10.652,0.49c2.016-0.119,3.431,0.558,4.021,2.535
				c0.962,3.213,3.327,3.948,6.354,3.988c7.151,0.096,14.312-0.394,21.456,0.432c2.5,0.289,3.079-0.567,2.553-3.122
				c-0.101-0.487-0.233-0.975-0.256-1.467c-0.287-6.133-0.167-6.429,6.036-6.786c5.229-0.301,10.456,0.007,15.696,0.517
				c5.131,0.5,10.326,1.794,15.508-0.246c1.928-0.759,3.84,0.743,5.786,1.084c4.108,0.721,8.27,1.355,12.357,0.925
				c6.073-0.64,11.873,0.94,17.802,1.38c2.816,0.209,5.614,0.464,8.452,0.332c5.731-0.267,11.488,0.324,17.207-0.504
				c1.613-0.233,3.088,0.592,4.663,0.741c4.283,0.407,8.393-1.026,12.632-1.128c2.318-0.057,4.628-0.432,6.941-0.664
				c0,117.35-0.004,234.699,0.041,352.051c0,1.766-0.228,2.361-2.23,2.361c-264.933-0.059-529.865-0.059-794.798,0
				c-2.006,0-2.229-0.6-2.229-2.363C-83.304,657.62-83.309,539.271-83.309,420.922z"/>
			<path fill-rule="evenodd" clip-rule="evenodd" fill="#00A79D" d="M538.295,375.791c-1.305,1.131-2.128,2.176-1.679,3.676
				c0.373,1.244,1.728,1.148,2.686,1.547c0.81,0.339,1.468-0.088,1.943-0.736c0.531-0.724-0.003-1.213-0.438-1.735
				c-0.401-0.482-1.207-0.878-0.808-1.647c0.371-0.713,1.229-0.265,1.819-0.47c6.884-2.396,14.169-0.826,21.195-2.164
				c3.267-0.622,6.791,0.089,10.195,0.238c0.563,0.024,1.256,0.168,1.277,0.925c0.021,0.778-0.69,0.825-1.239,0.971
				c-1.947,0.519-3.896,0.719-5.927,0.423c-4.46-0.651-8.228,1.766-12.509,2.487c0.296,0.595,0.426,0.861,0.427,0.86
				c4.047-1.962,6.299,2.283,9.633,2.813c0.859,0.137,1.333,0.979,1.09,1.961c-0.32,1.301-0.602,2.642-2.088,3.176
				c-1.055,0.38-2.124,0.303-3.205,0.11c-1.785-0.318-3.479-0.755-5.102,0.836c-0.867,0.85-2.39,0.281-3.632,0.252
				c-2.76-0.063-5.216-1.422-7.834-1.84c-4.088-0.652-8.273-0.749-12.423-0.96c-8.304-0.424-16.616-0.708-24.919-1.154
				c-13.771-0.739-27.529-1.768-41.307-2.282c-11.548-0.432-23.052-1.483-34.591-1.96c-4.57-0.189-9.139-0.438-13.707-0.659
				c-7.304-0.353-14.656-0.31-21.903-1.156c-9.348-1.092-18.741-0.853-28.1-1.61c-7.581-0.613-15.19-1.268-22.814-1.42
				c-0.485-0.009-1.267-0.237-1.314,0.3c-0.238,2.66-2.025,1.461-3.326,1.421c-4.569-0.138-9.135-0.164-13.71-0.446
				c-11.943-0.739-23.921-0.909-35.861-1.677c-7.64-0.491-15.269-0.789-22.919-0.965c-6.552-0.151-13.089-0.888-19.634-1.362
				c-5.191-0.376-10.275,0.702-15.401,1.176c-2.163,0.201-4.253,0.394-6.438-0.024c-3.726-0.713-7.466,0.234-11.188,0.423
				c-3.916,0.199-7.812-0.119-11.673,0.024c-7.539,0.28-15.105,0.023-22.633,0.974c-5.508,0.696-11.024,1.1-16.648,0.537
				c-4.938-0.494-9.944,0.384-14.898,1c-1.563,0.194-3.146,0.251-4.722,0.336c-0.989,0.054-1.614,0.233-1.172,1.491
				c0.589,1.676-0.729,2.999-1.023,4.52c-0.124,0.641-0.418,1.481,0.27,1.823c0.846,0.419,1.066-0.544,1.396-1.054
				c0.634-0.978,1.259-1.971,1.776-3.011c1.188-2.389,3.142-2.878,5.427-2.053c1.073,0.388,1.89,0.261,2.836-0.172
				c1.603-0.735,3.127-1.191,4.26,0.874c0.625,1.139,1.511,0.299,2.094-0.172c1.866-1.509,3.596-2.653,5.259,0.264
				c0.534,0.938,0.903,0.061,1.267-0.325c1.283-1.362,2.975-1.792,4.735-1.95c0.82-0.074,2.088-0.024,2.295,0.645
				c0.854,2.752,2.207,1.065,3.411,0.526c2.035-0.91,4.068-1.414,6.265-0.531c1.731,0.696,3.228-0.387,4.808-0.78
				c2.743-0.679,3.652-0.136,3.856,2.417c1.76-0.907,3.442-1.951,5.253-2.668c2.93-1.159,4.098-0.184,3.653,2.814
				c-0.073,0.493-0.156,1.01-0.08,1.492c0.135,0.857-1.069,1.965-0.013,2.447c0.953,0.435,2.061-0.381,2.958-0.987
				c1.311-0.884,1.914-2.279,2.466-3.68c0.964-2.441,2.608-3.444,5.348-3.576c5.15-0.25,10.294-0.437,15.446-0.372
				c3.076,0.039,3.861,1.04,2.769,3.882c-0.905,2.353-1.125,4.682-0.667,7.092c0.341,1.792-0.225,2.784-2.015,3.361
				c-4.263,1.372-8.555,2.106-13.031,1.368c-0.979-0.16-2.003-0.243-2.986-0.151c-6.814,0.634-13.621-0.172-20.435-0.061
				c-9.904,0.162-19.755-1.169-29.678-1.083c-5.618,0.047-11.071,0.879-16.593,1.545c-6.105,0.736-12.26,0.503-18.412,0.305
				c-8.233-0.265-16.479-0.195-24.718-0.311c-1.363-0.02-3.336,0.572-3.851-0.921c-0.551-1.6,0.289-3.611,1.552-4.728
				c1.661-1.468,3.529-2.738,5.241-4.182c0.722-0.608,1.491-0.41,2.31,0.047c1.449,0.812,2.969,1.499,4.469,2.217
				c1.339,0.641,2.646,0.585,3.652-0.567c1.348-1.544,2.165-0.84,3.088,0.461c0.571,0.803,0.056,2.75,1.49,2.396
				c1.964-0.487,4.424-0.522,5.428-2.916c0.578-1.378,0.049-3.801,1.941-3.881c1.939-0.083,1.525,2.643,2.656,3.792
				c0.051,0.051,0.149,0.054,0.383,0.131c0.534-0.865,1.04-1.803,1.659-2.658c0.771-1.065,1.126-1.829-0.607-2.299
				c-1.068-0.29-1.563-1.35-1.398-2.386c0.175-1.099,1.304-1.31,2.181-1.285c6.082,0.178,12.111-0.711,18.156-1.066
				c4.53-0.266,9.089-0.23,13.642-0.691c7.33-0.742,14.754-0.846,22.166-0.735c4.441,0.065,8.938,0.661,13.395-0.464
				c1.73-0.437,3.654-0.312,5.47-0.178c9.069,0.672,18.194,0.799,27.21,0.162c12.682-0.896,25.213,1.026,37.842,0.908
				c8.777-0.083,17.559,1.355,26.381,1.325c0.996-0.003,2.683,0.739,2.073-1.676c-0.224-0.884,1.081-0.698,1.773-0.826
				c0.657-0.12,1.826,0.252,1.681-0.821c-0.12-0.882-1.243-0.555-1.945-0.505c-0.479,0.034-0.961,0.25-1.409,0.457
				c-0.934,0.432-1.588,0.11-2.141-0.667c-0.642-0.903-1.253-1.824-0.772-2.988c0.396-0.959,1.327-1.035,2.132-0.901
				c7.833,1.3,15.795-0.73,23.613,0.932c0.727,0.154,1.512,0.07,2.138,0.564c0.5,0.396,0.938,0.812,1.174-0.227
				c0.227-1,0.84-0.846,1.709-0.744c2.309,0.271,4.615,0.782,6.918-0.514c1.338-0.753,3.036-1.022,4.445,0.236
				c0.254,0.228,0.426,0.532,0.789,0.163c1.544-1.571,2.207,0.197,2.933,0.919c2.216,2.209,2.223,2.316,4.339-0.09
				c1.384-1.574,2.925-2.09,4.895-1.441c0.865,0.285,1.478,0.721,1.424,1.763c-0.06,1.134-0.416,2.49,1.302,2.742
				c1.571,0.23,2.264-0.974,2.745-2.105c0.849-1.993,2.1-2.835,4.299-2.287c0.985,0.247,1.661,0.627,2.057,1.567
				c0.366,0.87,0.834,1.677,2.068,1.25c0.245-0.937-1.594-1.296-0.721-2.294c0.668-0.762,1.58-0.211,2.361-0.064
				c2.757,0.518,5.628,0.683,7.769,2.947c0.948,1.002,1.67,0.365,1.943-0.734c0.465-1.864,1.806-2.293,3.436-2.103
				c3.438,0.4,6.982,0.141,10.188,1.944c3.549,1.997,7.492,2.682,11.501,2.929c1.617,0.099,3.082,0.493,4.538,1.194
				c3.418,1.649,5.703,1.211,8.421-1.441c0.296-0.289,0.629-0.75,0.956-0.761c2.285-0.076,4.312,0.003,4.836-3.222
				c0.205-1.266,3.022-0.285,3.724,1.582c0.535,1.425-0.133,3.271,1.53,4.3c2.188,1.356,4.561,1.921,7.132,1.924
				c5.657,0.007,11.314,0.104,16.938,0.826c1.267,0.163,1.922-0.194,1.779-1.598c-0.091-0.906-0.099-1.827-0.06-2.738
				c0.1-2.31,1.291-2.97,3.264-1.715c1.183,0.751,2.367,1.547,3.259,2.69c1.095,1.404,2.575,2.368,4.095,3.221
				c1.928,1.081,2.924,0.679,3.07-1.456c0.153-2.236,1.226-2.334,2.993-2.02c1.522,0.27,3.099,0.247,4.651,0.34
				c0.897,0.054,1.124-0.545,1.177-1.277c0.119-1.666,1.204-2.06,2.425-1.409c3.05,1.625,6.237,1.464,9.496,1.191
				c1.305-0.111,2.679-0.07,2.77-1.773c0.083-1.539,0.258-3.27-1.643-4.042c-0.753-0.306-1.815-0.325-1.772-1.416
				c0.039-0.998,0.898-1.574,1.712-1.999c1.892-0.989,4.002-1.023,6.061-1.261c2.722-0.313,5.445-0.614,8.166-0.938
				c0.835-0.1,1.545-0.405,2.219-1c1.363-1.204,2.316-0.771,2.54,1.125c0.185,1.562-0.135,3.172,0.453,4.699
				c0.4,1.04,0.813,2.193,2.239,1.75c1.194-0.37,1.219-1.403,0.979-2.484c-0.973-4.4-0.784-8.919-1.306-13.349
				c-0.651-5.542-3.192-10.258-8.166-13.333c-0.616-0.381-1.852-0.567-1.257-1.739c0.474-0.933,1.427-0.584,2.248-0.466
				c1.646,0.234,3.293,0.48,4.947,0.647c1.522,0.154,2.086-0.293,2.059-2.115c-0.045-2.983-2.354-5.115-2.461-8.044
				c-0.051-1.385-0.027-2.531,1.178-3.257c1.735-1.045,2.188-2.554,2.087-4.451c-0.073-1.396-0.238-2.988,1.931-3.049
				c2.124-0.059,2.178,1.407,2.104,2.887c-0.113,2.295,0.897,4.399,1.039,6.646c0.057,0.891,0.621,1.319,1.443,1.462
				c0.9,0.158,1.804,0.293,2.706,0.45c0.928,0.162,2.529-0.368,2.589,0.759c0.07,1.332-1.54,0.646-2.4,0.863
				c-1.447,0.366-1.654,1.271-0.66,2.11c1.44,1.216,1.242,2.56,0.889,4.072c-0.438,1.867-0.684,3.71-0.33,5.677
				c0.319,1.779,0.81,3.172,2.648,3.819c1.045,0.368,1.536,1.199,1.578,2.319c0.027,0.735,0.006,1.465,0.556,2.113
				c1.619,1.907,1.515,2.803-0.825,3.697c-2.066,0.79-1.913,1.526-1.182,3.454c2.25,5.92,7.149,4.073,11.216,3.98
				c2.89-0.065,5.807-0.347,8.713-0.3c3.276,0.053,6.483-0.205,9.592-1.303c1.642-0.579,2.95-0.128,4.373,0.927
				c2.248,1.668,3.852,4.183,6.673,5.103c0.558,0.183,1.059,0.593,0.948,1.297c-0.115,0.738-0.759,0.793-1.337,0.877
				c-0.328,0.047-0.664,0.046-0.996,0.077c-0.792,0.072-1.568,0.25-1.566,1.235c0.002,1.009,0.806,1.168,1.589,1.181
				c1.418,0.023,2.763,0.14,2.834,2.002c0.038,0.973-3.196,3.735-3.887,3.216c-2.529-1.902-4.973-0.042-7.396,0.065
				c-2.17,0.094-4.133,0.049-5.996-1.031c-1.472-0.852-2.778-1.062-4.418-0.137c-1.251,0.706-3.128,1.275-2.858-1.518
				c0.086-0.881-0.503-0.965-1.129-0.838c-0.648,0.129-1.31,0.299-1.909,0.574c-6.243,2.857-12.651,3.044-19.252,1.458
				c-1.067-0.256-3.015-1.316-3.387,0.589c-0.298,1.531,1.686,1.502,2.807,1.822c3.006,0.857,5.993,0.793,9.111,0.221
				C528.267,373.867,533.237,375.041,538.295,375.791z"/>
			<path fill-rule="evenodd" clip-rule="evenodd" fill="#00A79D" d="M240.537,347.377c-2.566,2.571-6.681,1.908-9.153,4.765
				c-0.852,0.985-2.246,0.95-3.533,0.672c-0.473-0.103-1.111-0.242-1.251,0.412c-0.135,0.63,0.499,0.809,0.959,0.914
				c2.677,0.608,5.36,1.187,8.045,1.756c0.634,0.135,1.527,0.02,1.566,0.882c0.042,0.978-0.857,1.12-1.616,1.159
				c-1.079,0.058-2.18,0.155-3.244,0.02c-8.342-1.061-16.563,0.654-24.841,1.036c-0.61,0.028-1.515-0.144-1.097,1.021
				c0.257,0.715-0.166,0.93-0.73,0.941c-1.444,0.029-2.053,0.438-1.764,2.136c0.329,1.94-1.521,1.587-2.105,1.013
				c-2.593-2.548-4.713-1.107-7.545-0.181c-5.741,1.877-11.756,2.549-17.945,1.383c-4.377-0.824-8.949-1.019-13.401-0.803
				c-1.346,0.065-2.774,1.618-4.682,1.5c-1.804-0.111-3.391-0.348-4.887-1.479c-1.259-0.952-2.793-1.458-4.421-1.555
				c-0.565-0.033-1.333,0.004-1.401-0.73c-0.069-0.747,0.722-0.761,1.246-0.97c0.589-0.235,1.343-0.129,1.737-0.796
				c-3.311-2.726-3.387-5.271-0.269-8.772c0.259-0.291,0.734-0.407,0.663-0.943c-0.241-1.815-0.256-1.95,1.67-2.216
				c2.203-0.304,1.948-1.379,1.054-2.713c-1.021-1.526-2.451-2.453-4.321-2.643c-0.562-0.057-1.283-0.034-1.373-0.793
				c-0.09-0.757,0.583-0.943,1.146-1.077c1.653-0.395,2.951-1.399,3.638-2.836c1.938-4.053,5.274-5.316,9.483-5.516
				c5.894-0.279,11.751-0.991,17.674-1.116c8.132-0.171,16.253-0.929,24.379-1.438c0.663-0.042,1.425-0.016,1.563-0.889
				c0.131-0.823-0.534-1.227-1.141-1.443c-1.562-0.557-3.178-0.964-4.744-1.512c-0.683-0.239-1.562-0.508-1.573-1.404
				c-0.013-1.041,0.788-1.723,1.671-1.958c1.519-0.405,3.108-0.533,4.65-0.857c1.489-0.313,3.216-0.225,3.397-2.519
				c0.175-2.189-0.412-3.739-2.573-4.52c-0.655-0.236-1.803,0.042-1.817-0.938c-0.019-1.197,1.221-0.815,1.941-1.045
				c1.031-0.329,2.249-0.492,2.539-1.734c0.333-1.426-1.072-1.69-1.868-2.317c-1.306-1.028-2.651-2.008-3.985-3.001
				c-0.74-0.551-1.154-1.199-0.707-2.139c0.39-0.821,1.064-0.925,1.884-0.826c0.989,0.121,2.088-0.083,2.967,0.276
				c2.949,1.206,3.728-0.316,4.562-2.814c1.074-3.218,1.777-6.397,1.545-9.776c-0.156-2.267,0.246-4.483,0.63-6.696
				c0.21-1.212,0.734-2.392,2.144-2.369c1.476,0.024,2.328,1.155,2.225,2.521c-0.228,3.01,0.527,5.326,3.418,6.771
				c1.114,0.557,1.018,1.608,0.125,2.494c-3.725,3.688-3.024,8.379-2.897,12.927c0.039,1.412,0.915,1.84,2.229,1.57
				c0.979-0.201,1.962-0.382,2.946-0.548c0.594-0.1,1.282-0.146,1.402,0.617c0.11,0.71-0.514,0.974-1.103,1.125
				c-0.726,0.186-1.455,0.358-2.189,0.502c-1.267,0.249-1.791,1.025-1.831,2.288c-0.198,6.33,0.141,12.642,0.56,18.952
				c0.106,1.584,1.285,1.962,2.528,2.331c4.791,1.422,9.797,1.91,14.57,3.431c2.036,0.649,3.778,1.715,5.422,3.003
				c0.441,0.345,0.991,0.746,0.744,1.435c-0.195,0.547-0.771,0.57-1.255,0.666c-0.816,0.162-1.631,0.379-2.455,0.44
				c-1.088,0.08-1.364,0.602-1.337,1.634c0.029,1.103,0.345,1.803,1.531,1.787c4.916-0.062,9.791,0.882,14.623,1.04
				c4.172,0.136,8.493-1.254,12.844-1c4.798,0.281,9.601,0.509,14.391,0.888c1.691,0.134,3.309-0.055,4.958-0.293
				c2.255-0.327,4.479,0.11,6.7,0.457c0.572,0.089,1.257,0.132,1.254,0.919c-0.002,0.729-0.604,1.034-1.206,0.98
				c-1.651-0.146-2.186,0.788-1.882,2.125c0.575,2.533-1.117,3.266-2.873,3.294c-3.562,0.06-7.135-0.245-10.697-0.495
				c-1.108-0.078-1.842-0.717-1.615-2.029c0.099-0.57,0.093-1.162,0.103-1.744c0.02-1.133-0.316-1.973-1.661-1.985
				c-1.275-0.012-1.699,0.663-1.802,1.867c-0.104,1.222,0.821,2.697-0.153,3.595c-1.16,1.071-2.872,0.407-4.34,0.482
				c-3.998,0.204-7.978-0.156-11.955-0.52c-0.165-0.015-0.37,0.028-0.492-0.054c-3.552-2.368-7.127-0.214-10.688-0.062
				c-0.831,0.036-1.662,0.152-2.49,0.131c-2.788-0.071-3.993-2.077-2.811-4.584C240.333,348.477,240.97,348.226,240.537,347.377z"/>
			<path fill-rule="evenodd" clip-rule="evenodd" fill="#00A79D" d="M425.899,388.97c-0.774,1.18-0.952,2.384-0.779,3.594
				c0.296,2.067-0.664,2.538-2.457,2.171c-0.487-0.1-1.001-0.075-1.481-0.196c-3.261-0.824-6.727,0.384-9.927-1.016
				c-0.693-0.303-1.282,0.213-1.922,0.279c-2.142,0.221-4.36,0.628-5.856-1.752c-1.656,3.175-4.338,1.327-6.465,1.248
				c-2.44-0.092-0.985-2.763-2.282-4.716c0.223,4.158-2.177,4.788-4.997,4.708c-2.314-0.066-1.452-2.371-2.336-3.721
				c-0.068,3.099-1.419,3.973-4.304,3.529c-2.035-0.312-2.813-1.027-2.656-2.985c0.047-0.573,0.01-1.183-0.137-1.737
				c-1.138-4.286,0.358-5.069,5.038-4.416c3.26,0.457,6.886,0.019,9.751,2.349c0.289,0.236,0.706,0.15,0.894-0.134
				c1.089-1.647,2.835-1.526,4.294-1.212c3.658,0.783,7.403,0.062,11.104,1.13c2.199,0.635,4.955,0.092,7.26-0.213
				c3.645-0.481,7.101,0.277,10.535,0.597c5.372,0.498,10.715,0.454,16.074,0.632c4.554,0.151,9.094,0.674,13.662,0.39
				c1.539-0.095,2.072,1.062,2.521,2.518c0.789-2.401,2.563-2.184,4.215-2.049c6.455,0.532,12.912,0.96,19.393,0.946
				c2.571-0.006,5.616-0.278,7.567,0.611c2.35,1.073,3.906-0.163,5.788-0.037c4.96,0.331,9.922,0.68,14.868,1.165
				c1.656,0.163,3.26,0.64,4.915,0.01c0.364-0.14,0.938-0.23,1.209-0.044c1.847,1.272,3.679,2.024,5.712,0.388
				c0.098-0.078,0.337-0.033,0.486,0.021c2.706,0.961,1.663,3.284,1.782,5.127c0.093,1.413-0.411,3.154-2.099,2.659
				c-4.901-1.439-9.813,0.417-14.651-0.387c-3.921-0.653-7.812-0.093-11.695-0.204c-3.221-0.091-6.535-1.005-9.747-0.756
				c-5.268,0.408-10.396-0.817-15.628-0.873c-2.983-0.032-6.14,0.128-9.107-0.34c-3.944-0.624-7.758-1.766-11.752-0.334
				c-1.057,0.379-1.657-0.597-2.112-1.39c-0.853-1.49-1.63-3.024-2.596-4.831c-0.785,1.411-1.295,2.614-1.403,3.914
				c-0.162,1.923-1.127,2.267-2.881,1.988c-2.607-0.414-5.234-0.961-7.901-0.59c-1.786,0.249-2.438-0.536-2.368-2.234
				c0.037-0.901-0.056-1.812-0.891-2.953c-1.02,2.058,0.56,5.637-3.705,5.183C424.246,394.52,427.524,390.8,425.899,388.97z"/>
			<path fill-rule="evenodd" clip-rule="evenodd" fill="#00A79D" d="M491.47,413.452c-0.004-0.333-0.01-0.666-0.012-1
				c-0.021-4.308,0.732-4.85,5.014-4.348c2.954,0.346,5.858,0.505,7.271,4.105c1.083-1.446,0.705-3.486,2.653-3.69
				c1.416-0.149,2.816,0.076,4.222,0.125c3.424,0.118,6.808,0.865,10.285,0.33c3.521-0.541,6.871-0.19,8.491,4.334
				c0.817-1.693,0.228-3.398,1.708-4.02c1.515-0.637,3.107-0.171,4.673-0.188c3.021-0.033,4.857,1.584,6.344,4.702
				c0.507-2.159-0.142-4.147,2.409-4.387c5.733-0.541,6.778-0.207,8.755,3.967c-0.113-3.061,1.435-3.542,3.735-3.497
				c4.905,0.097,9.785,0.686,14.677,0.748c2.807,0.036,5.673,0.473,8.422,0.012c3.938-0.66,6.446,1.745,9.15,3.703
				c1.087,0.786,0.876,2.32,0.259,3.471c-0.681,1.273-1.719,1.046-2.746,0.325c-0.19-0.134-0.531-0.292-0.683-0.212
				c-3.395,1.789-3.502-0.623-3.776-2.899c-0.079-0.646-0.541-1.045-1.233-0.966c-0.643,0.073-0.696,0.595-0.737,1.115
				c-0.04,0.495-0.079,0.997-0.196,1.477c-0.148,0.603-0.53,1.045-1.172,1.161c-0.65,0.118-1.168-0.134-1.4-0.762
				c-0.889-2.409-2.758-1.896-4.333-1.204c-2.448,1.074-5.366,0.12-7.593,1.918c-3.231-1.639-7.231,1.181-10.273-1.801
				c-0.688-0.673-1.599-0.83-2.172,0.439c-0.383,0.849-1.319,0.95-2.162,0.989c-2.728,0.131-5.452-0.22-8.134-0.309
				c-3.091-0.103-6.094-1.801-9.261-0.604c-0.56,0.211-1.607,0.214-1.906-0.136c-1.757-2.061-3.506-0.828-5.285-0.185
				c-2.369,0.855-4.645,1.215-6.739-0.766c-0.818-0.775-1.882-0.876-3.028-0.39c-1.143,0.485-2.38,0.744-3.575,1.101
				c-2.438,0.728-4.563,0.31-6.426-1.536c-0.918-0.909-2.058-1.868-2.373,0.552c-0.128,0.987-0.979,1.264-1.87,1.32
				c-4.015,0.255-7.806-0.303-10.999-3.03L491.47,413.452z"/>
			<path fill-rule="evenodd" clip-rule="evenodd" fill="#00A79D" d="M370.121,350.956c2.026,0.31,3.861,0.817,5.605,1.625
				c3.261,1.51,6.8,1.515,10.248,1.822c7.188,0.64,14.397,1.045,21.597,1.546c0.083,0.005,0.167,0.008,0.25,0.013
				c1.221,0.074,2.514,0.324,2.725,1.693c0.258,1.674-1.52,1.085-2.286,1.649c1.108,3.287,1.108,3.287-3.312,4.665
				c1.335,0.757,2.605,0.303,3.746,0.545c0.405,0.087,0.895,0.17,0.867,0.699c-0.029,0.563-0.525,0.561-0.938,0.519
				c-1.938-0.198-3.269,0.997-4.694,1.998c-1.338,0.938-2.467,1.083-2.978-0.878c-0.082-0.314-0.212-0.667-0.435-0.883
				c-2.129-2.066-0.27-1.912,1.112-2.021c0.411-0.032,0.823-0.042,1.537-0.075c-1.047-1.77-0.744-3.339,0.693-4.818
				c-0.646-0.189-1.034-0.404-1.419-0.4c-5.914,0.06-11.769-0.771-17.649-1.184c-9.98-0.702-19.943-0.05-29.914,0.09
				c-2.573,0.036-5.144,0.268-7.716,0.343c-0.806,0.023-1.785,0.061-2.108-0.934c-0.289-0.889,0.23-1.609,0.863-2.197
				c0.966-0.898,1.718-2.068,3.244-2.396c-1.484-1.268-2.36-2.2-0.527-3.979c1.026-0.996,1.229-2.991,1.484-4.586
				c0.232-1.456,0.723-2.311,2.277-2.387c6.302-0.307,12.6-0.699,18.904-0.93c3.28-0.121,3.11,0.039,3.224,3.39
				c0.045,1.36-0.264,2.832,0.062,4.027c0.765,2.811-0.838,2.953-2.755,3.042C371.26,350.978,370.69,350.956,370.121,350.956z"/>
			<path fill-rule="evenodd" clip-rule="evenodd" fill="#00A79D" d="M369.05,328.127c1.431,0.11,2.917,0.094,4.113-0.69
				c2.083-1.367,4.164-1.057,6.194-0.177c1.89,0.818,3.803,1.12,5.827,1.093c3.766-0.048,7.312,1.402,11.056,1.614
				c3.726,0.212,7.439,0.658,11.157,1.022c0.881,0.086,2.107-0.043,2.2,1.133c0.097,1.233-1.181,1.182-2.022,1.372
				c-1.296,0.292-2.631,0.425-3.918,0.747c-1.663,0.416-2.031,1.323-0.81,2.673c0.853,0.941,2.562,1.727,1.752,3.199
				c-0.803,1.455-2.535,0.715-3.907,0.629c-11.278-0.708-22.488-2.552-33.822-2.245c-4.314,0.118-8.623,0.582-12.948,0.507
				c-0.95-0.016-2.22,0.336-2.615-0.879c-0.433-1.333,0.95-1.76,1.688-2.476c0.117-0.114,0.284-0.174,0.413-0.279
				c0.789-0.646,2.743-0.259,2.469-1.53c-0.314-1.458-2.128-0.667-3.274-0.906c-1.621-0.34-3.255-0.622-4.88-0.946
				c-0.761-0.152-1.554-0.391-1.472-1.363c0.082-0.968,0.924-1.07,1.683-1.13c2.483-0.193,4.969-0.027,7.469-0.319
				C359.931,328.648,364.499,328.458,369.05,328.127z"/>
			<path fill-rule="evenodd" clip-rule="evenodd" fill="#00A79D" d="M477.955,412.404c-1.876,2.396-6.406,3.79-9.091,2.774
				c-2.08-0.787-3.936-1.25-6.335-0.298c-3.255,1.292-6.908,0.486-10.393,0.454c-0.961-0.009-1.52-0.581-1.451-1.631
				c0.052-0.795,0.338-1.642-0.397-2.335c-0.914,4.076-1.126,4.254-5.498,4.019c-1.491-0.081-2.972-0.332-4.458-0.494
				c-2.351-0.257-4.792-0.389-4.527-3.773c-0.374,0.097-0.603,0.086-0.669,0.184c-2.85,4.206-6.981,3.697-11.171,3.107
				c-1.154-0.162-1.824-0.626-1.994-1.816c-0.127-0.895-0.367-1.774-0.6-2.854c-0.266,0.278-0.48,0.399-0.525,0.565
				c-1.062,4.016-1.229,4.193-5.504,4.088c-1.988-0.048-3.969-0.352-5.956-0.505c-1.06-0.081-1.663-0.609-1.923-1.628
				c-0.248-0.966-0.63-1.902-0.826-2.878c-0.74-3.689,0.273-4.614,4.058-4.25c3.004,0.289,5.955,0.505,8.521,2.344
				c0.497,0.356,1.064,0.65,1.794,0.068c2.81-2.238,8.442-2.311,11.521-0.302c1.405,0.916,2.93,3.036,4.155-0.307
				c0.288-0.787,1.52-0.836,2.271-0.705c2.954,0.523,6.188-0.037,8.718,2.25c1.083,0.978,2.087,1.595,2.881-0.571
				c0.643-1.759,2.606-1.298,3.98-1.129c5.254,0.649,10.518,1.098,15.791,0.601c2.938-0.277,4.982,0.633,6.329,3.247
				c0.338,0.656,0.876,1.209,1.322,1.811L477.955,412.404z"/>
			<path fill-rule="evenodd" clip-rule="evenodd" fill="#00A79D" d="M390.574,407.433c-1.764,2.996-2.272,6.511-6.98,6.156
				c-3.622-0.273-6.575-0.577-8.201-4.813c-0.12,4.861-3.347,4.099-6.099,4.133c-1.081,0.013-2.166,0.033-3.244-0.032
				c-2.294-0.136-4.491-0.47-5.603-2.931c-0.23-0.512-0.646-1.113-1.301-0.996c-0.741,0.133-0.608,0.895-0.666,1.445
				c-0.103,0.992-0.433,1.959-1.517,1.988c-4.454,0.12-8.962,0.594-12.847-2.516c-1.735-1.39-1.83-3.075-1.507-4.917
				c0.319-1.827,1.966-1.388,3.2-1.679c3.641-0.859,7.102,0.008,10.557,0.999c1.382,0.396,2.692,0.696,3.987-0.396
				c0.44-0.371,1.349-0.557,1.892-0.375c3.388,1.132,7.166,0.392,10.398,2.213c0.946,0.533,1.859,0.792,2.474-0.517
				c0.273-0.582,0.873-0.73,1.479-0.763c2.655-0.148,5.385-0.755,7.948-0.34c4.95,0.802,9.928,0.164,14.866,0.807
				c4.238,0.552,6.685,3.18,6.061,6.893c-0.231,1.378-0.91,1.993-2.298,2.113c-3.1,0.269-6.13-0.385-9.194-0.564
				c-0.947-0.055-1.462-0.744-1.78-1.552C391.684,410.481,391.214,409.158,390.574,407.433z"/>
			<path fill-rule="evenodd" clip-rule="evenodd" fill="#00A79D" d="M265.066,355.943c6.642,0.292,14.806-0.488,22.937,0.439
				c0.685,0.078,1.86-0.25,1.897,0.671c0.046,1.163-1.205,0.889-1.947,0.907c-1.681,0.04-2.441,0.826-2.376,2.479
				c0.017,0.416,0.03,0.836-0.014,1.248c-0.144,1.287,0.584,2.896-0.581,3.789c-1.305,1.001-2.161-0.719-3.261-1.119
				c-1.697-0.618-3.149,0.247-4.522,0.88c-2.134,0.983-4.217,0.928-6.512,0.907c-6.561-0.06-13.067-1.338-19.646-0.76
				c-2.356,0.208-4.606-0.578-6.897-0.958c-0.735-0.121-1.463-0.348-2.202-0.385c-3.234-0.16-3.22-0.138-2.514-3.312
				c0.123-0.555,0.196-1.2,0.038-1.727c-0.819-2.736,0.677-3.098,2.876-3.081C249.415,355.978,256.489,355.943,265.066,355.943z"/>
			<path fill-rule="evenodd" clip-rule="evenodd" fill="#00A79D" d="M364.09,388.306c-1.158,4.49-4.714,5.425-7.523,2.798
				c-0.287-0.268-0.444-0.836-0.926-0.416c-2.148,1.875-4.604,0.591-6.902,0.625c-1.136,0.017-2.28-0.226-3.445-0.008
				c-2.482,0.467-4.265-0.257-4.836-2.96c-0.1-0.471-0.168-1.003-0.702-1.248c-0.431-0.039-0.571,0.244-0.62,0.588
				c-0.196,1.395,0.305,3.115-2.032,3.302c-3.019,0.242-4.132-0.295-4.985-2.782c-1.384-4.032,1.127-7.11,5.392-6.595
				c0.316,0.038,0.791,0.121,0.897,0.332c1.39,2.756,3.236,0.797,5.042,0.709c3.788-0.185,7.76-1.593,11.352,0.903
				c0.359,0.25,0.7,0.504,1.098,0.139c1.431-1.316,3.165-0.788,4.77-0.703c5.521,0.289,11.028,0.833,16.566,0.727
				c1.405-0.027,2.126,0.46,2.031,2.073c-0.092,1.56,0.29,3.143,0.243,4.71c-0.064,2.118-1.282,3.051-3.298,2.552
				c-2.595-0.643-5.146-1.067-7.857-0.652C366.016,392.757,364.216,391.875,364.09,388.306z"/>
			<path fill-rule="evenodd" clip-rule="evenodd" fill="#00A79D" d="M281.78,382.565c0.236-2.118,0.954-3.205,3.303-3.17
				c5.786,0.085,5.787-0.04,7.209,4.469c0.52-3.66,0.811-4.013,4.746-3.842c1.962,0.085,4.88-0.693,4.889,2.675
				c0.005,2.069,1.769,5.202-1.43,6.052c-5.061,1.345-7.19,1.243-7.768-1.725c-1.758,1.551-3.975,1.469-6.002,2.038
				c-2.073,0.583-3.189-0.085-3.633-2.13c-0.084-0.389-0.304-0.75-0.747-1.806c-0.197,2.581-0.809,4.115-3.224,3.811
				c-2.543-0.32-5.832,1.123-6.562-3.168c-1.246,2.422-7.368,3.723-9.316,2.131c-0.764-0.624-0.809-1.427-0.467-2.26
				c0.728-1.767,1.416-3.557,2.265-5.266c1.274-2.572,3.511-1.769,5.455-1.205c1.06,0.308,1.805,0.451,2.95,0.058
				c2.043-0.699,4.296-0.467,6.427-0.108C281.648,379.416,281.524,381.091,281.78,382.565z"/>
			<path fill-rule="evenodd" clip-rule="evenodd" fill="#00A79D" d="M311.959,386.268c0.12-0.562,0.327-1.12,0.345-1.686
				c0.15-4.608,1.173-3.662,4.499-3.269c1.974,0.234,4.688-0.431,5.629,2.57c0.188,0.596,1.052,0.456,1.279-0.305
				c0.184-0.608,0.508-0.941,1.068-1.25c4.194-2.305,5.495-1.606,5.825,3.189c0.388,5.64,0.315,5.518-5.45,5.096
				c-6.251-0.458-12.518-1.111-18.801-0.651c-2.272,0.167-3.21-0.708-3.617-2.96c-1.067-5.898,1.311-8.104,7.187-6.446
				c1.051,0.295,1.496,0.979,1.567,1.978c0.088,1.238,0.128,2.481,0.188,3.722C311.774,386.26,311.867,386.264,311.959,386.268z"/>
			<path fill-rule="evenodd" clip-rule="evenodd" fill="#00A79D" d="M277.032,410.396c-1.58-0.001-3.161-0.04-4.74,0.006
				c-4.359,0.125-6.138-3.004-7.001-6.173c-0.609-2.239,0.561-4.018,2.609-3.717c4.303,0.631,8.609-0.446,12.903,0.356
				c1.562,0.292,2.38,0.944,2.728,2.408c0.328,1.375,0.668,2.75,1.077,4.101c0.646,2.14-0.354,2.971-2.336,3.013
				C280.526,410.427,278.778,410.398,277.032,410.396z"/>
			<path fill-rule="evenodd" clip-rule="evenodd" fill="#00A79D" d="M225.69,399.182c3.925,0,7.336-0.009,10.747,0.012
				c0.407,0.002,0.809,0.184,1.219,0.251c5.53,0.904,6.361,2.271,4.947,7.938c-0.281,1.126-1.011,1.424-1.979,1.515
				c-5.055,0.476-10.107,0.033-15.158-0.095c-1.343-0.034-2.465-0.774-2.354-2.345c0.098-1.384,0.159-2.953,1.894-3.428
				C228.036,402.2,228.044,402.233,225.69,399.182z"/>
			<path fill-rule="evenodd" clip-rule="evenodd" fill="#00A79D" d="M295.44,410.924c-1.08,0-2.159,0.01-3.238-0.002
				c-3.347-0.036-6.893-3.91-6.693-7.245c0.083-1.373,0.642-2.147,2.084-2.268c4.89-0.411,9.76,0.154,14.639,0.252
				c0.751,0.015,1.138,0.573,1.484,1.173c3.142,5.449,1.965,7.678-4.292,8.042c-1.323,0.077-2.655,0.011-3.983,0.011
				C295.44,410.9,295.44,410.912,295.44,410.924z"/>
			<path fill-rule="evenodd" clip-rule="evenodd" fill="#00A79D" d="M313.743,401.929c2.579-0.025,5.157-0.064,7.71,0.44
				c0.843,0.167,1.769,0.252,1.901,1.279c0.265,2.056,0.67,4.105,0.516,6.202c-0.089,1.2-0.885,1.525-1.881,1.55
				c-4.576,0.114-9.146,0.057-13.696-0.534c-0.95-0.124-1.525-0.573-1.708-1.523c-0.109-0.572-0.261-1.136-0.368-1.708
				c-0.921-4.914-0.235-5.73,4.778-5.706C311.91,401.932,312.827,401.929,313.743,401.929z"/>
			<path fill-rule="evenodd" clip-rule="evenodd" fill="#00A79D" d="M253.115,399.943c2.306-0.073,5.062-0.146,7.733,0.533
				c3.047,0.774,2.35,3.681,2.896,5.748c0.467,1.766-1.226,1.908-2.49,2.388c-3.886,1.478-7.882,0.887-11.827,0.719
				c-2.71-0.115-5.48-6.091-4.134-8.454c0.498-0.872,1.336-0.91,2.162-0.924C249.196,399.922,250.939,399.943,253.115,399.943z"/>
			<path fill-rule="evenodd" clip-rule="evenodd" fill="#00A79D" d="M334.848,411.932c-2.803,0.572-5.777-0.878-8.723-2.199
				c-2.573-1.155-1.468-3.607-1.45-5.542c0.016-1.697,1.553-1.836,2.794-1.729c3.797,0.331,7.615-0.326,11.41,0.403
				c2.295,0.441,3.283,1.333,2.733,3.872C340.381,412.409,341.622,411.889,334.848,411.932z"/>
			<path fill-rule="evenodd" clip-rule="evenodd" fill="#00A79D" d="M539.923,396.951c-0.958,2.156-2.281,2.73-4.181,2.099
				c-1.557-0.517-2.66-3.288-2.297-5.903c0.296-2.133,1.947-1.899,3.241-1.683c3.633,0.61,7.276,0.397,10.919,0.465
				c2.456,0.047,3.887,1.661,3.779,4.18c-0.122,2.893-1.445,4.063-4.299,3.782c-1.235-0.123-2.462-0.349-3.698-0.407
				C541.05,399.375,541.048,399.412,539.923,396.951z"/>
			<path fill-rule="evenodd" clip-rule="evenodd" fill="#00A79D" d="M443.371,366.728c4.866-0.022,9.509,0.54,14.144-0.216
				c2.733-0.446,5.464,0.086,8.182,0.437c0.497,0.064,1.114,0.127,1.12,0.743c0.006,0.622-0.612,0.712-1.108,0.737
				c-3.809,0.192-7.598,0.865-11.429,0.491c-4.783-0.467-9.565-0.919-14.383-0.779c-1.408,0.041-1.371-0.012-1.987-1.896
				c-0.179-0.545-0.858-0.217-1.3-0.326c-1.206-0.298-2.706-0.435-2.638-2.073c0.06-1.451,1.17-2.555,2.554-2.688
				c2.468-0.235,4.972-0.187,7.457-0.116c1.138,0.033,1.643,0.828,1.764,2.018C445.932,364.885,445.799,366.395,443.371,366.728z"/>
			<path fill-rule="evenodd" clip-rule="evenodd" fill="#00A79D" d="M565.436,392.935c2.729,0.154,5.455,0.343,8.185,0.442
				c1.48,0.054,2.369,0.593,2.429,2.186c0.018,0.491,0.299,0.975,0.3,1.462c0.003,1.151,1.724,2.341,0.238,3.376
				c-1.438,1.004-3.233,0.777-4.81,0.214c-0.858-0.307-1.454-0.914-2.422-0.145c-0.719,0.572-1.221-0.005-1.381-0.783
				c-0.067-0.324-0.049-0.664-0.085-0.994c-0.143-1.282,0.11-3.418-1.159-3.414c-1.386,0.004-0.599,2.045-0.748,3.181
				c-0.153,1.174-0.352,2.233-1.778,2.246c-1.431,0.014-1.739-1.034-1.778-2.222c-0.023-0.749,0-1.503-0.087-2.246
				C561.931,392.766,561.919,392.768,565.436,392.935z"/>
			<path fill-rule="evenodd" clip-rule="evenodd" fill="#00A79D" d="M477.977,412.438c-0.012-0.749-0.038-1.498-0.033-2.246
				c0.014-1.843,0.961-2.708,2.794-2.754c4.779-0.122,8.921,0.854,10.732,6.013l-0.018-0.035c-1.224,3.102-1.269,3.102-5.332,2.599
				c-3.096-0.384-5.981-1.19-8.166-3.611L477.977,412.438z"/>
			<path fill-rule="evenodd" clip-rule="evenodd" fill="#00A79D" d="M394.135,349.046c-0.081,1.571-0.342,3.145-2.062,3.641
				c-1.81,0.523-2.66-0.842-3.451-2.188c-0.982-1.67-1.746-3.441-1.961-5.348c-0.169-1.504,0.025-3.073,1.831-3.671
				c1.762-0.583,2.829,0.342,3.669,1.763C393.229,345.044,394.138,346.892,394.135,349.046z"/>
			<path fill-rule="evenodd" clip-rule="evenodd" fill="#00A79D" d="M588.657,406.415c-3.016-0.011-6.164-5.193-4.912-7.731
				c0.312-0.629,0.774-1.07,1.506-1.16c3.103-0.377,7.175,4.213,6.42,7.294C591.245,406.559,589.756,406.366,588.657,406.415z"/>
			<path fill-rule="evenodd" clip-rule="evenodd" fill="#00A79D" d="M282.206,371.595c-1.55-0.118-3.129-0.146-4.676-0.389
				c-0.948-0.151-1.732-0.861-1.6-1.909c0.142-1.112,1.019-1.833,2.122-1.643c2.392,0.413,4.797,0.156,7.184,0.365
				c0.633,0.056,1.281,0.318,1.852,0.62c0.574,0.304,1.205,0.735,1.038,1.525c-0.151,0.717-0.764,1.138-1.44,1.202
				C285.206,371.505,283.715,371.525,282.206,371.595z"/>
			<path fill-rule="evenodd" clip-rule="evenodd" fill="#00A79D" d="M375.187,365.01c4.617-0.674,9.111-1.72,13.642-2.569
				c0.913-0.171,1.831,0.091,2.628,0.6c0.641,0.409,1.885,0.271,1.709,1.452c-0.159,1.068-1.138,1.437-2.087,1.422
				C385.788,365.831,380.519,365.248,375.187,365.01z"/>
			<path fill-rule="evenodd" clip-rule="evenodd" fill="#00A79D" d="M298.992,360.4c1.93,0.224,4.395,0.641,6.904,0.547
				c0.576-0.021,1.232,0.117,1.282,0.885c0.046,0.7-0.521,0.986-1.056,1.239c-0.876,0.415-1.772,0.208-2.69,0.146
				c-1.988-0.133-3.985-0.144-5.979-0.151c-0.982-0.004-2.201,0.369-2.303-1.122c-0.11-1.625,1.221-1.477,2.29-1.541
				C297.772,360.383,298.107,360.4,298.992,360.4z"/>
			<path fill-rule="evenodd" clip-rule="evenodd" fill="#00A79D" d="M552.408,396.054c0-0.581-0.012-1.162,0.002-1.742
				c0.026-1.017,0.354-1.782,1.538-1.866c1.135-0.08,2.012,0.307,2.273,1.458c0.396,1.738,0.011,3.463-0.47,5.118
				c-0.232,0.805-1.005,1.357-1.968,1.17c-0.865-0.167-1.169-0.89-1.269-1.657c-0.106-0.819-0.108-1.652-0.155-2.479
				C552.376,396.056,552.391,396.055,552.408,396.054z"/>
		</g>
	</g>
	<rect x="119.505" y="185.711" fill-rule="evenodd" clip-rule="evenodd" fill="none" width="444" height="75"/>
	<text transform="matrix(1 0 0 1 163.6978 221.6611)" fill="#00A79D" font-family="'Helvetica'" font-size="50">NODESCHOOL</text>
	
		<rect x="243.861" y="601.71" transform="matrix(0.7771 -0.6293 0.6293 0.7771 -330.8138 306.764)" fill-rule="evenodd" clip-rule="evenodd" fill="none" width="47.71" height="37.502"/>
	
		<text transform="matrix(0.7772 -0.6293 0.6293 0.7772 262.1313 634.2217)" fill="#C7E5E2" font-family="'Helvetica-Bold'" font-size="36">B</text>
	
		<rect x="392.862" y="600.71" transform="matrix(0.7772 0.6293 -0.6293 0.7772 482.6889 -124.2004)" fill-rule="evenodd" clip-rule="evenodd" fill="none" width="47.709" height="37.503"/>
	
		<text transform="matrix(0.7772 0.6293 -0.6293 0.7772 408.3755 621.8887)" fill="#C7E5E2" font-family="'Helvetica-Bold'" font-size="36">I</text>
	<g>
		<g>
			<line fill="#C7E5E2" x1="341.505" y1="63.512" x2="341.505" y2="143.015"/>
			<g>
				<path fill="#00A79D" d="M339.005,63.512c0,26.501,0,53.002,0,79.503c0,3.224,5,3.224,5,0c0-26.501,0-53.002,0-79.503
					C344.005,60.288,339.005,60.288,339.005,63.512L339.005,63.512z"/>
			</g>
		</g>
		<g>
			<line fill="#C7E5E2" x1="341.505" y1="63.512" x2="403.521" y2="142.219"/>
			<g>
				<path fill="#00A79D" d="M339.738,65.28c20.672,26.236,41.344,52.471,62.016,78.707c1.995,2.532,5.507-1.033,3.535-3.535
					c-20.672-26.236-41.344-52.471-62.016-78.707C341.278,59.213,337.766,62.777,339.738,65.28L339.738,65.28z"/>
			</g>
		</g>
		<g>
			<line fill="#C7E5E2" x1="341.505" y1="63.512" x2="477.085" y2="142.219"/>
			<g>
				<path fill="#00A79D" d="M340.244,65.671c42.359,24.59,84.719,49.181,127.078,73.771c2.834,1.645,5.668,3.291,8.502,4.936
					c2.794,1.622,5.31-2.7,2.523-4.317c-42.359-24.59-84.719-49.181-127.078-73.771c-2.834-1.645-5.668-3.291-8.502-4.936
					C339.973,59.731,337.457,64.053,340.244,65.671L340.244,65.671z"/>
			</g>
		</g>
		<g>
			<line fill="#C7E5E2" x1="341.505" y1="63.512" x2="279.49" y2="142.219"/>
			<g>
				<path fill="#00A79D" d="M339.738,61.745c-20.672,26.235-41.344,52.471-62.016,78.707c-1.972,2.502,1.541,6.067,3.535,3.535
					c20.672-26.235,41.344-52.471,62.016-78.707C345.245,62.777,341.732,59.213,339.738,61.745L339.738,61.745z"/>
			</g>
		</g>
		<g>
			<line fill="#C7E5E2" x1="341.505" y1="63.512" x2="205.926" y2="142.219"/>
			<g>
				<path fill="#00A79D" d="M340.244,61.354c-42.359,24.59-84.718,49.181-127.077,73.771c-2.834,1.645-5.668,3.291-8.502,4.936
					c-2.787,1.618-0.271,5.939,2.523,4.317c42.359-24.59,84.718-49.181,127.077-73.771c2.834-1.645,5.668-3.291,8.502-4.936
					C345.554,64.053,343.038,59.731,340.244,61.354L340.244,61.354z"/>
			</g>
		</g>
	</g>
	<g>
		<g>
			<line fill="#00A79D" x1="341.505" y1="714.403" x2="341.505" y2="634.899"/>
			<g>
				<path fill="#C7E5E2" d="M344.005,714.403c0-26.501,0-53.003,0-79.504c0-3.225-5-3.225-5,0c0,26.501,0,53.003,0,79.504
					C339.005,717.628,344.005,717.628,344.005,714.403L344.005,714.403z"/>
			</g>
		</g>
		<g>
			<line fill="#00A79D" x1="341.505" y1="714.403" x2="279.49" y2="635.696"/>
			<g>
				<path fill="#C7E5E2" d="M343.273,712.636c-20.672-26.236-41.344-52.472-62.016-78.707c-1.995-2.531-5.507,1.032-3.535,3.535
					c20.672,26.236,41.344,52.472,62.016,78.707C341.732,718.702,345.245,715.139,343.273,712.636L343.273,712.636z"/>
			</g>
		</g>
		<g>
			<line fill="#00A79D" x1="341.505" y1="714.403" x2="205.926" y2="635.696"/>
			<g>
				<path fill="#C7E5E2" d="M342.767,712.245c-42.359-24.591-84.718-49.182-127.077-73.771c-2.834-1.646-5.668-3.291-8.502-4.936
					c-2.794-1.622-5.31,2.699-2.523,4.316c42.359,24.591,84.718,49.182,127.077,73.771c2.834,1.646,5.668,3.291,8.502,4.936
					C343.038,718.184,345.554,713.862,342.767,712.245L342.767,712.245z"/>
			</g>
		</g>
		<g>
			<line fill="#00A79D" x1="341.505" y1="714.403" x2="403.521" y2="635.696"/>
			<g>
				<path fill="#C7E5E2" d="M343.273,716.171c20.672-26.235,41.344-52.471,62.016-78.707c1.972-2.503-1.541-6.066-3.535-3.535
					c-20.672,26.235-41.344,52.471-62.016,78.707C337.766,715.139,341.278,718.702,343.273,716.171L343.273,716.171z"/>
			</g>
		</g>
		<g>
			<line fill="#00A79D" x1="341.505" y1="714.403" x2="477.085" y2="635.696"/>
			<g>
				<path fill="#C7E5E2" d="M342.767,716.562c42.359-24.59,84.719-49.181,127.078-73.771c2.834-1.646,5.668-3.291,8.502-4.937
					c2.787-1.617,0.271-5.938-2.523-4.316c-42.359,24.59-84.719,49.181-127.078,73.771c-2.834,1.646-5.668,3.291-8.502,4.937
					C337.457,713.862,339.973,718.184,342.767,716.562L342.767,716.562z"/>
			</g>
		</g>
	</g>
	<circle fill="#C7E5E2" cx="341.505" cy="606.462" r="3.511"/>
	<circle fill="#C7E5E2" cx="192.872" cy="628.388" r="3.511"/>
	<circle fill="#C7E5E2" cx="489.361" cy="628.388" r="3.511"/>
</g>
</svg>
