<svg xmlns="http://www.w3.org/2000/svg" width="480.975" height="552.737"><defs><clipPath id="a"><path d="M0 4421.95v-4421.95h3847.76v4421.95h-3847.76z"/></clipPath></defs><g clip-path="url(#a)"><path d="M17.037 266.604l-.015.026v-.026h.015zm446.912.674l-.389-.674h.389v.674zm12.766-132.214l-231.974-133.931c-2.632-1.52-5.879-1.52-8.511 0l-231.975 133.931c-2.634 1.52-4.255 4.329-4.255 7.37v267.861c0 3.04 1.622 5.849 4.255 7.37l231.975 133.93c1.316.761 2.788 1.141 4.256 1.141 1.469 0 2.939-.381 4.255-1.141l231.974-133.93c2.634-1.521 4.255-4.33 4.255-7.37v-267.861c0-3.041-1.621-5.85-4.255-7.37" fill="#e12125"/><path d="M20.642 251.749l-.071.007h-2.08v8.492h7.059l-4.908-8.5" fill="#fac1cc"/><path d="M111.956 377.091c-1.221-1.22-1.221-3.197 0-4.419 7.839-7.84 14.496-29.829 19.248-63.589 3.644-25.88 4.829-49.576 4.84-49.814.081-1.664 1.454-2.973 3.121-2.973h203.75c1.647 0 3.013 1.28 3.119 2.925.019.295 1.948 29.837 6.651 61.782 7.77 52.748 16.829 71.248 23.061 77.479 1.22 1.221 1.22 3.199 0 4.42-.611.61-1.41.915-2.21.915s-1.599-.305-2.21-.915c-10.037-10.037-18.39-37.299-24.83-81.028-3.876-26.336-5.883-51.046-6.494-59.329h-197.88c-.986 16.655-6.619 95.415-25.748 114.544-1.22 1.221-3.2 1.221-4.419 0zm215.608-89.002h-8.553c-1.016 0-1.82-.805-1.82-1.82v-13.043c0-1.015.804-1.82 1.82-1.82s1.82.805 1.82 1.82v11.555h6.732c.921 0 1.655.731 1.655 1.653 0 .921-.734 1.655-1.655 1.655zm-13.62-8.269c0 4.701-3.709 8.551-8.813 8.551-5.104 0-8.765-3.804-8.765-8.505v-.046c0-4.702 3.709-8.554 8.813-8.554 5.104 0 8.765 3.804 8.765 8.505v.049zm-37.671.046v-.046c0-4.702 3.709-8.554 8.813-8.554 5.104 0 8.765 3.804 8.765 8.505v.049c0 4.701-3.709 8.551-8.811 8.551-5.104 0-8.766-3.804-8.766-8.505zm-6.885-1.772v-4.867c0-1.015.802-1.82 1.819-1.82 1.015 0 1.819.805 1.819 1.82v13.185c0 1.015-.804 1.82-1.819 1.82-1.016 0-1.819-.805-1.819-1.82v-4.963h-6.711v4.963c0 1.015-.802 1.82-1.819 1.82-1.016 0-1.82-.805-1.82-1.82v-13.185c0-1.015.804-1.82 1.82-1.82s1.819.805 1.819 1.82v4.867h6.711zm-19.927 6.923c1.535 0 2.551-.471 3.591-1.299.284-.236.661-.403 1.086-.403.921 0 1.701.756 1.701 1.677 0 .568-.284 1.016-.614 1.301-1.49 1.299-3.237 2.078-5.884 2.078-4.867 0-8.482-3.755-8.482-8.505v-.046c0-4.702 3.544-8.554 8.624-8.554 2.481 0 4.159.662 5.53 1.677.378.282.709.802.709 1.441 0 .993-.805 1.771-1.796 1.771-.496 0-.828-.188-1.087-.354-1.015-.756-2.079-1.181-3.377-1.181-2.789 0-4.798 2.315-4.798 5.15v.049c0 2.834 1.961 5.196 4.798 5.196zm-17.989-3.615c-3.331-.85-5.481-1.772-5.481-5.056v-.046c0-3.001 2.41-4.986 5.789-4.986 2.009 0 3.756.521 5.245 1.466.401.236.804.731.804 1.441 0 .944-.756 1.677-1.702 1.677-.354 0-.637-.095-.921-.26-1.204-.71-2.337-1.11-3.473-1.11-1.394 0-2.126.636-2.126 1.441v.046c0 1.086.709 1.44 3.567 2.174 3.355.875 5.245 2.079 5.245 4.961v.049c0 3.284-2.505 5.126-6.072 5.126-2.172 0-4.371-.661-6.214-1.985-.401-.282-.685-.802-.685-1.37 0-.945.756-1.677 1.701-1.677.472 0 .804.165 1.039.331 1.252.921 2.624 1.489 4.23 1.489 1.489 0 2.386-.591 2.386-1.56v-.049c0-.921-.568-1.393-3.331-2.103zm-10.924-3.259c.897 0 1.629.731 1.629 1.629 0 .899-.731 1.606-1.629 1.606h-6.31v3.474h7.491c.897 0 1.629.733 1.629 1.631 0 .897-.731 1.606-1.629 1.606h-9.286c-1.016 0-1.819-.805-1.819-1.82v-12.9c0-1.015.802-1.82 1.819-1.82h9.168c.897 0 1.631.734 1.631 1.633 0 .896-.734 1.606-1.631 1.606h-7.372v3.355h6.31zm-28.411 8.126v-12.9c0-1.015.802-1.82 1.82-1.82h4.63c5.199 0 8.79 3.569 8.79 8.223v.049c0 4.654-3.591 8.269-8.79 8.269h-4.63c-1.018 0-1.82-.805-1.82-1.82zm103.483 70.414l-.058.185c-.058.185-.129.361-.219.53l-.046.113-19.968 34.584c-2.245-.273-4.492-.547-6.74-.825l5.809-10.061h-13.357v9.127l-6.25-.78v-75.642h-28.75v72.094l-6.25-.772v-4.026h-13.357l1.478 2.56c-2.584-.306-5.162-.608-7.739-.905l-14.637-25.352-.048-.113c-.089-.169-.161-.345-.217-.529l-.058-.186c-.058-.236-.096-.48-.096-.735 0-.254.039-.499.096-.735l.058-.185c.056-.185.129-.361.217-.53l.048-.113 26.087-45.185c.557-.968 1.589-1.563 2.706-1.563h52.175c1.117 0 2.149.595 2.706 1.563l26.087 45.185.046.113c.09.169.161.345.219.53l.058.185c.058.236.096.48.096.735s-.039.499-.096.735zm-55.204 4.121c-2.675 0-4.844-2.169-4.844-4.844 0-2.675 2.169-4.844 4.844-4.844 2.675 0 4.844 2.169 4.844 4.844 0 2.675-2.169 4.844-4.844 4.844zm-69.105-80.938v-.046c0-4.702 3.71-8.554 8.814-8.554 5.103 0 8.765 3.804 8.765 8.505v.049c0 4.701-3.709 8.551-8.814 8.551-5.103 0-8.765-3.804-8.765-8.505zm-3.248 6.496c0 1.018-.802 1.82-1.819 1.82h-.119c-.874 0-1.394-.425-1.89-1.064l-7.276-9.544v8.859c0 .993-.804 1.798-1.796 1.798-.993 0-1.796-.805-1.796-1.798v-13.159c0-1.016.804-1.82 1.82-1.82h.379c.873 0 1.394.425 1.89 1.064l7.018 9.214v-8.529c0-.993.802-1.798 1.795-1.798.993 0 1.795.805 1.795 1.798v13.159zm-133.858-18.983v-.025h.014l-.014.025zm412.562-.025v.623l-.359-.623h.359zm-194.253 130.06c71.141 9.874 144.556 20.059 209.316 5.695.419-.968.65-2.022.65-3.112v-31.99h-21.253c-1.726 0-3.125-1.4-3.125-3.125v-43.305c0-1.726 1.399-3.125 3.125-3.125h21.253v-25.858l-15.967-27.657-.046-.114c-.09-.168-.161-.344-.219-.529l-.058-.185c-.058-.236-.096-.48-.096-.735s.039-.499.096-.735l.058-.185c.058-.185.129-.361.219-.53l.046-.113 15.967-27.656v-17.76h-48.96v184.298c0 1.726-1.399 3.125-3.125 3.125s-3.125-1.399-3.125-3.125v-187.423c0-1.725 1.399-3.125 3.125-3.125h15.572v-8.389h-80.065v18.24h11.666c1.725 0 3.125 1.399 3.125 3.125v21.76c0 1.725-1.4 3.125-3.125 3.125h-233.333c-1.727 0-3.125-1.4-3.125-3.125v-21.76c0-1.726 1.398-3.125 3.125-3.125h11.667v-18.24h-81.689v8.389h15.572c1.726 0 3.125 1.4 3.125 3.125v164.824c0 1.726-1.399 3.125-3.125 3.125s-3.125-1.399-3.125-3.125v-161.699h-48.17v19.128l15.178 26.289.046.113c.088.168.161.343.218.526l.059.191c.057.234.095.475.095.728v.01c-.001.253-.038.494-.095.728l-.059.191c-.058.184-.129.357-.218.525l-.046.114-15.178 26.29v27.225h20.462c1.726 0 3.125 1.399 3.125 3.125v43.305c0 1.725-1.399 3.125-3.125 3.125h-20.462v31.99c0 .721.102 1.427.29 2.104 67.176-27.773 148.196-16.559 233.733-4.686" fill="#fac1cc"/><path d="M18.491 210.146h29.473v-23.029h-29.473v23.029z" fill="#fac1cc"/><path d="M18.491 340.104h17.337v-15.403h-17.337v15.403z" fill="#fac1cc"/><path d="M25.55 266.499h-7.059v9.476h1.588l5.471-9.476" fill="#fac1cc"/><path d="M18.491 361.757h17.337v-15.402h-17.337v15.402z" fill="#fac1cc"/><path d="M305.131 274.621c-2.929 0-4.961 2.315-4.961 5.15v.049c0 2.834 2.079 5.196 5.009 5.196s4.963-2.315 4.963-5.15v-.046c0-2.836-2.08-5.199-5.01-5.199" fill="#fac1cc"/><path d="M206.403 330.738h13.387v-16.851h-3.659l-9.729 16.851" fill="#fac1cc"/><path d="M193.653 352.822h26.137v-15.834h-16.996l-9.141 15.834" fill="#fac1cc"/><path d="M202.824 374.957h16.966v-15.885h-26.137l9.171 15.885" fill="#fac1cc"/><path d="M290.048 279.866v-.046c0-2.836-2.08-5.199-5.009-5.199-2.93 0-4.963 2.315-4.963 5.15v.049c0 2.834 2.08 5.196 5.009 5.196 2.93 0 4.963-2.315 4.963-5.15" fill="#fac1cc"/><path d="M264.699 313.887h-3.659v16.851h13.387l-9.729-16.851" fill="#fac1cc"/><path d="M261.04 374.957h16.966l9.171-15.885h-26.137v15.885" fill="#fac1cc"/><path d="M203.571 279.866v-.046c0-2.93-2.007-4.986-4.985-4.986h-2.811v9.971h2.811c2.978 0 4.985-2.009 4.985-4.939" fill="#fac1cc"/><path d="M180.075 274.621c-2.929 0-4.961 2.315-4.961 5.15v.049c0 2.834 2.08 5.196 5.01 5.196 2.929 0 4.961-2.315 4.961-5.15v-.046c0-2.836-2.08-5.199-5.01-5.199" fill="#fac1cc"/><path d="M261.04 336.988v15.834h26.137l-9.141-15.834h-16.996" fill="#fac1cc"/><path d="M444.353 361.757h18.128v-15.402h-18.128v15.402z" fill="#fac1cc"/><path d="M143.97 121.409c-.894-1.548-.894-3.453 0-5 .892-1.548 2.544-2.5 4.33-2.5h5.511l3.245-5.621c.894-1.546 2.544-2.5 4.33-2.5s3.438.954 4.33 2.5l3.246 5.621h5.518c2.761 0 4.996 2.239 4.996 5 0 .969-.275 1.874-.752 2.64l-2.676 4.634 2.756 4.772c.894 1.548.894 3.454 0 5-.892 1.548-2.544 2.5-4.33 2.5h-5.511l-3.246 5.621c-.892 1.548-2.544 2.5-4.33 2.5s-3.436-.953-4.33-2.5l-3.245-5.621h-5.511c-1.786 0-3.438-.953-4.33-2.5-.894-1.546-.894-3.453 0-5l2.755-4.772-2.755-4.774zm159.03 0c-.894-1.548-.894-3.453 0-5 .892-1.548 2.544-2.5 4.33-2.5h5.511l3.245-5.621c.894-1.546 2.544-2.5 4.331-2.5 1.786 0 3.436.954 4.33 2.5l3.245 5.621h5.518c2.761 0 4.997 2.239 4.997 5 0 .969-.276 1.874-.754 2.64l-2.675 4.634 2.755 4.772c.894 1.548.894 3.454 0 5-.892 1.548-2.544 2.5-4.33 2.5h-5.511l-3.245 5.621c-.894 1.548-2.544 2.5-4.33 2.5-1.788 0-3.438-.953-4.331-2.5l-3.245-5.621h-5.511c-1.786 0-3.438-.953-4.33-2.5-.894-1.546-.894-3.453 0-5l2.756-4.772-2.756-4.774zm-251.911 59.457c1.726 0 3.125 1.399 3.125 3.125v11.515h81.689v-40c0-1.726 1.399-3.125 3.125-3.125h45.625c1.725 0 3.125 1.399 3.125 3.125v64.49h26.563v-70.115h-9.479c-1.726 0-3.125-1.4-3.125-3.125v-13.125c0-1.726 1.399-3.125 3.125-3.125h7.471c.993-13.444 11.518-24.264 24.82-25.749v-14.251h-9.098c-1.726 0-3.125-1.4-3.125-3.125 0-1.726 1.399-3.125 3.125-3.125h9.098v-8.496c0-1.726 1.399-3.125 3.125-3.125 1.725 0 3.125 1.399 3.125 3.125v8.496h9.096c1.726 0 3.125 1.399 3.125 3.125 0 1.725-1.399 3.125-3.125 3.125h-9.096v14.251c13.301 1.485 23.826 12.305 24.819 25.749h7.473c1.725 0 3.125 1.399 3.125 3.125v13.125c0 1.725-1.4 3.125-3.125 3.125h-9.479v70.115h27.813v-64.49c0-1.726 1.399-3.125 3.125-3.125h45.625c1.725 0 3.125 1.399 3.125 3.125v40h80.065v-11.515c0-1.726 1.399-3.125 3.125-3.125h33.388v-28.135c0-2.806-1.498-5.4-3.929-6.804l-214.137-123.632c-2.43-1.404-5.426-1.404-7.856 0l-214.139 123.632c-2.432 1.404-3.928 3.998-3.928 6.804v28.135h32.598" fill="#fac1cc"/><path d="M156.699 133.456l4.688 8.121 4.689-8.121h8.399l-4.199-7.272 4.199-7.274h-8.399l-4.689-8.121-4.688 8.121h-8.399l4.199 7.274-4.199 7.272h8.399" fill="#fac1cc"/><path d="M342.081 449.478c-1.607 0-2.91-1.303-2.91-2.909 0-1.607 1.302-2.91 2.91-2.91 1.606 0 2.91 1.303 2.91 2.91 0 1.606-1.304 2.909-2.91 2.909zm-7.11 4.631l-93.325 53.881-.07.028-.263.115-.152.056-.115.038c-.182.045-.367.072-.555.072l-.004.002h-.001l-.009-.002c-.185-.001-.369-.027-.549-.072l-.128-.042-.072-.012-.08-.043-.254-.113-.07-.028-94.854-54.764c-1.111-.641-1.49-2.06-.85-3.171.641-1.11 2.061-1.49 3.171-.849l84.466 48.767-35.273-45c-.791-1.01-.614-2.47.394-3.26 1.012-.79 2.47-.614 3.26.394l38.525 49.148v-48.038c0-1.281 1.039-2.321 2.321-2.321 1.281 0 2.321 1.04 2.321 2.321v48.04l38.524-49.15c.791-1.008 2.248-1.183 3.26-.394 1.009.79 1.185 2.25.395 3.26l-35.274 45 82.938-47.884c1.107-.642 2.531-.263 3.171.849.64 1.111.261 2.53-.85 3.171zm-197.281-4.631c-1.606 0-2.909-1.303-2.909-2.909 0-1.607 1.302-2.91 2.909-2.91 1.607 0 2.91 1.303 2.91 2.91 0 1.606-1.302 2.909-2.91 2.909zm42.333-13.736c.698-.505 1.647-.352 2.152.344l2.416 3.339 4.603-3.331-2.416-3.339c-.505-.698-.352-1.647.345-2.151.696-.505 1.646-.353 2.151.345l6.546 9.043c.504.696.352 1.647-.345 2.151-.698.505-1.647.351-2.151-.345l-2.464-3.404-4.603 3.333 2.464 3.404c.504.696.351 1.647-.345 2.151-.698.504-1.647.351-2.151-.345l-6.546-9.043c-.505-.698-.352-1.647.344-2.151zm54.191-.515l4.527-10.226c.316-.706.892-1.131 1.673-1.131h.166c.779 0 1.335.425 1.651 1.131l4.529 10.226c.092.204.149.39.149.577 0 .76-.594 1.374-1.356 1.374-.667 0-1.111-.39-1.371-.984l-.874-2.042h-5.715l-.91 2.134c-.242.558-.724.893-1.317.893-.743 0-1.319-.595-1.319-1.337 0-.205.075-.409.168-.613zm50.164 3.215l6.827-8.834c.525-.68 1.48-.802 2.16-.276l.27.207c.522.404.679.955.618 1.49l-.761 7.072 6.679-2.523c.571-.216 1.08-.154 1.57.226l.269.207c.681.526.802 1.48.278 2.16l-6.804 8.804c-.525.68-1.48.802-2.16.276-.665-.514-.775-1.484-.261-2.147l4.27-5.525-4.681 1.64c-.547.185-1.048.178-1.491-.165-.444-.342-.576-.825-.535-1.401l.403-4.872-4.259 5.509c-.514.666-1.456.773-2.121.259s-.782-1.44-.269-2.106zm105.271-21.945c-45.108.001-92.02-6.511-137.994-12.893-83.882-11.643-163.373-22.66-228.675 3.52l213.578 123.309c1.215.704 2.572 1.054 3.929 1.054 1.355 0 2.712-.351 3.928-1.054l205.44-118.61c-19.521 3.324-39.678 4.674-60.205 4.674" fill="#fac1cc"/><path d="M315.729 133.456l4.689 8.121 4.688-8.121h8.399l-4.199-7.272 4.199-7.274h-8.399l-4.688-8.121-4.689 8.121h-8.399l4.199 7.274-4.199 7.272h8.399" fill="#fac1cc"/><path d="M240.45 427.341l-1.8 4.286h3.6l-1.8-4.286" fill="#fac1cc"/><path d="M142.153 158.632v64.49c0 1.726-1.4 3.125-3.125 3.125h-11.668v15.51h227.084v-15.51h-11.666c-1.726 0-3.125-1.399-3.125-3.125v-64.49h-39.375v64.49c0 1.726-1.4 3.125-3.125 3.125h-34.063c-1.726 0-3.125-1.399-3.125-3.125v-76.365c0-1.726 1.399-3.125 3.125-3.125h9.479v-6.875h-7.449c-.853 0-1.666-.347-2.256-.963-.59-.615-.902-1.444-.866-2.294l.029-.486.022-.425c0-12.004-9.768-21.77-21.771-21.77-12.005 0-21.771 9.766-21.771 21.77l.02.417.03.504c.033.85-.282 1.675-.871 2.288-.589.613-1.403.959-2.251.959h-7.447v6.875h9.479c1.725 0 3.125 1.399 3.125 3.125v76.365c0 1.726-1.4 3.125-3.125 3.125h-32.813c-1.726 0-3.125-1.399-3.125-3.125v-64.49h-39.375" fill="#fac1cc"/><path d="M460.101 275.976h2.379v-9.476h-7.849l5.47 9.476" fill="#fac1cc"/><path d="M459.539 251.749l-4.907 8.5h7.849v-8.492h-2.87l-.071-.007" fill="#fac1cc"/><path d="M444.353 340.104h18.128v-15.403h-18.128v15.403z" fill="#fac1cc"/><path d="M432.217 210.146h29.982v-23.029h-29.982v23.029z" fill="#fac1cc"/></g></svg>