<?xml version="1.0" encoding="UTF-8"?>
<svg width="2000px" height="2000px" viewBox="0 0 2000 2000" version="1.1" xmlns="http://www.w3.org/2000/svg" xmlns:xlink="http://www.w3.org/1999/xlink">
    <!-- Generator: Sketch 55.2 (78181) - https://sketchapp.com -->
    <title>Nodeschool Prague</title>
    <desc>Created with Sketch.</desc>
    <defs>
        <linearGradient x1="50%" y1="0%" x2="50%" y2="100%" id="linearGradient-1">
            <stop stop-color="#146DB0" offset="0%"></stop>
            <stop stop-color="#BEF0FF" offset="100%"></stop>
        </linearGradient>
    </defs>
    <g id="colored-copy" stroke="none" stroke-width="1" fill="none" fill-rule="evenodd">
        <polygon id="Polygon" stroke="#FFFFFF" stroke-width="37" fill="url(#linearGradient-1)" stroke-linejoin="round" points="999.5 142 1742.11678 570.75 1742.11678 1428.25 999.5 1857 256.883216 1428.25 256.883216 570.75"></polygon>
        <text id="NODESCHOOL" font-family="Futura-Medium, Futura" font-size="74" font-weight="400" line-spacing="105" letter-spacing="11.4" fill="#FFFFFF">
            <tspan x="683" y="537">NODESCHOOL</tspan>
        </text>
        <text id="R" transform="translate(1002.000000, 1476.000000) rotate(-360.000000) translate(-1002.000000, -1476.000000) " font-family="Avenir-Heavy, Avenir" font-size="63" font-weight="600" fill="#3A3531">
            <tspan x="982" y="1496">R</tspan>
        </text>
        <text id="P" transform="translate(840.346856, 1501.230331) rotate(-37.000000) translate(-840.346856, -1501.230331) " font-family="Avenir-Heavy, Avenir" font-size="63" font-weight="600" fill="#3A3531">
            <tspan x="820.846856" y="1521.23033">P</tspan>
        </text>
        <g id="top-lines" transform="translate(711.000000, 280.000000)" stroke="#FFFFFF" stroke-linecap="round" stroke-width="17">
            <path d="M289,0.5 L0.5,166.5" id="Line"></path>
            <path d="M289,0.5 L582.5,166.5" id="Line-2"></path>
            <path d="M289,0.5 L289,166.5" id="Line-3"></path>
            <path d="M288.5,0.5 L157.5,166.5" id="Line-4"></path>
            <path d="M289,0.5 L422.5,170.5" id="Line-5"></path>
        </g>
        <g id="bottom-lines" opacity="0.858956473" transform="translate(1001.100444, 1606.824918) rotate(-180.000000) translate(-1001.100444, -1606.824918) translate(652.100444, 1500.324918)">
            <path d="M349,0.5 L60.5,166.5" id="Line" stroke="#3A3531" stroke-width="17" stroke-linecap="round"></path>
            <path d="M349,0.5 L642.5,166.5" id="Line-2" stroke="#3A3531" stroke-width="17" stroke-linecap="round"></path>
            <path d="M349,0.5 L349,166.5" id="Line-3" stroke="#3A3531" stroke-width="17" stroke-linecap="round"></path>
            <path d="M348.5,0.5 L217.5,166.5" id="Line-4" stroke="#3A3531" stroke-width="17" stroke-linecap="round"></path>
            <path d="M349,0.5 L482.5,170.5" id="Line-5" stroke="#3A3531" stroke-width="17" stroke-linecap="round"></path>
            <circle id="Oval" fill="#0F0E0C" cx="688.100444" cy="203.324918" r="9"></circle>
            <circle id="Oval" fill="#0F0E0C" cx="9.10044381" cy="203.324918" r="9"></circle>
        </g>
        <text id="G" transform="translate(1168.472972, 1505.671518) rotate(-322.000000) translate(-1168.472972, -1505.671518) " font-family="Avenir-Heavy, Avenir" font-size="63" font-weight="600" fill="#3A3531">
            <tspan x="1143.47297" y="1525.67152">G</tspan>
        </text>
        <g id="prahgue-landmark-1" transform="translate(256.000000, 631.000000)">
            <rect id="Rectangle" fill="#3A3531" fill-rule="nonzero" x="476" y="331" width="174" height="221"></rect>
            <path d="M559.5,174 L559.5,109" id="Path" stroke="#000000" stroke-width="5" fill="#FFFFFF" fill-rule="nonzero" stroke-linecap="round" stroke-linejoin="round"></path>
            <path d="M541,128.5 L580,128.5" id="Path" stroke="#000000" stroke-width="5" fill="#FFFFFF" fill-rule="nonzero" stroke-linecap="round" stroke-linejoin="round"></path>
            <path d="M711.457148,338.350326 L702.425077,327.294063 L677.368364,296.646876 L675.814459,252.130867 L674.843269,225.363071 C674.74615,222.162574 669.987317,222.162574 669.890197,225.363071 L668.919007,252.130867 L667.753579,285.008704 L645.804675,258.046938 L645.610437,252.130867 L643.27958,186.375194 C643.182461,183.174697 638.423627,183.174697 638.326508,186.375194 L636.189889,246.408766 L612.589962,217.507305 L610.356224,153.400373 C610.259105,150.199876 605.500272,150.199876 605.403153,153.400373 L603.557891,206.451041 L577.432868,174.349083 C572.868273,168.723966 566.264178,165.911408 559.660083,165.911408 C553.055988,165.911408 546.549013,168.723966 541.887298,174.349083 L517.31618,204.414361 L515.568038,153.400373 C515.470919,150.199876 510.712086,150.199876 510.614966,153.400373 L508.478348,215.276655 L484.781301,244.372086 L482.741801,186.375194 C482.644682,183.174697 477.885849,183.174697 477.78873,186.375194 L475.360754,255.913273 L453.217612,283.069008 L451.178112,225.460056 C451.080993,222.259559 446.32216,222.259559 446.225041,225.460056 L443.797065,294.513211 L417.477804,327.294063 L408.445733,338.350326 L292,369.967361 L292,697 L828,697 L828,369.967361 L711.457148,338.350326 Z M615.017938,564.809761 L504.884943,564.809761 L504.884943,395.37737 C504.884943,364.924153 529.261823,339.708113 559.757202,339.611128 L559.95144,339.611128 C575.19913,339.611128 588.892915,345.721169 598.896177,355.7106 C608.899438,365.700031 615.017938,379.374883 615.017938,394.601492 L615.017938,564.809761 Z" id="Shape" fill="#EDDAB9" fill-rule="nonzero"></path>
            <path d="M827,369.967361 L827,697 L559,697 L559,564.809761 L614.076477,564.809761 L614.076477,394.504507 C614.076477,379.374883 607.956868,365.603046 597.951794,355.613615 C587.94672,345.624184 574.250453,339.514144 559,339.514144 L559,165.911408 C565.605292,165.911408 572.210584,168.723966 576.776006,174.349083 L602.905763,206.451041 L604.751359,153.400373 C604.848496,150.199876 609.608191,150.199876 609.705328,153.400373 L611.939471,217.507305 L635.543675,246.408766 L637.680681,186.375194 C637.777818,183.174697 642.537514,183.174697 642.63465,186.375194 L644.96593,252.130867 L645.160203,258.046938 L667.113084,285.008704 L668.278724,252.130867 L669.250091,225.363071 C669.347227,222.162574 674.106923,222.162574 674.204059,225.363071 L675.175426,252.130867 L676.729612,296.646876 L701.790866,327.294063 L710.824574,338.350326 L827,369.967361 Z" id="Path" fill="#CCB697" fill-rule="nonzero"></path>
            <path d="M703,328 L417,328 L443.903885,295.195052 L446.340832,226.294983 C446.438309,223.101581 451.214724,223.101581 451.312202,226.294983 L453.359237,283.77622 L475.584185,256.680687 L478.021132,187.29677 C478.118609,184.103368 482.895024,184.103368 482.992502,187.29677 L485.039536,245.165086 L508.824131,216.134158 L510.968643,154.395052 C511.066121,151.201649 515.842536,151.201649 515.940014,154.395052 L517.694615,205.295945 L542.35651,175.29732 C546.937969,169.684674 553.566462,166.878351 560.194956,166.878351 C566.823449,166.878351 573.451943,169.684674 578.033401,175.29732 L604.254942,207.32811 L605.814588,161.943093 L606.107021,154.395052 C606.204499,151.201649 610.980913,151.201649 611.078391,154.395052 L611.370825,161.943093 L613.320382,218.359863 L637.007498,247.197251 L639.152011,187.29677 C639.249489,184.103368 644.025903,184.103368 644.123381,187.29677 L646.657805,258.809622 L668.687798,285.711615 L670.734833,226.198213 C670.832311,223.004811 675.608725,223.004811 675.706203,226.198213 L678.143149,297.323986 L703,328 Z" id="Path" fill="#93816D" fill-rule="nonzero"></path>
            <path d="M703,328 L561,328 L561,166.886536 C567.58214,166.886536 574.164281,169.694402 578.713701,175.310136 L604.751875,207.358548 L606.300613,161.948563 L606.591002,154.396369 C606.687798,151.20121 611.430811,151.20121 611.527607,154.396369 L611.817996,161.948563 L613.75392,218.396369 L637.275392,247.249622 L639.404908,187.316188 C639.501704,184.121029 644.244717,184.121029 644.341513,187.316188 L646.858214,258.868381 L668.734151,285.785174 L670.766871,226.239032 C670.863667,223.043873 675.60668,223.043873 675.703476,226.239032 L678.123381,297.403933 L703,328 Z" id="Path" fill="#6D5D4D" fill-rule="nonzero"></path>
            <rect id="Rectangle" fill="#DEBD90" fill-rule="nonzero" x="404" y="312" width="314" height="18"></rect>
            <rect id="Rectangle" fill="#C4A27A" fill-rule="nonzero" x="404" y="321" width="314" height="10"></rect>
            <rect id="Rectangle" fill="#A88462" fill-rule="nonzero" opacity="0.42" x="559" y="312" width="158" height="18"></rect>
            <path d="M1204,442.506234 L1204,698 L839,698 L839,442.506234 C839,432.877805 846.863032,425 856.473404,425 L1186.5266,425 C1196.13697,425 1204,432.780549 1204,442.506234 Z" id="Path" fill="#DDBB85" fill-rule="nonzero"></path>
            <rect id="Rectangle" fill="#B79462" fill-rule="nonzero" x="1043" y="425" width="42" height="273"></rect>
            <path d="M1207,593.254417 L1207,612.745583 C1207,615.120141 1205.1525,617 1202.81882,617 L838.181178,617 C835.847497,617 834,615.120141 834,612.745583 L834,593.254417 C834,590.879859 835.847497,589 838.181178,589 L1202.81882,589 C1205.1525,589 1207,590.879859 1207,593.254417 Z" id="Path" fill="#FFE5C2" fill-rule="nonzero"></path>
            <rect id="Rectangle" fill="#D8B891" fill-rule="nonzero" x="1062" y="589" width="24" height="28"></rect>
            <path d="M1208,603 L1208,612.730496 C1208,615.113475 1206.14866,617 1203.81012,617 L1052,617 L1052,603 L1208,603 Z" id="Path" fill="#B5A591" fill-rule="nonzero" opacity="0.69"></path>
            <path d="M725.493387,56.675307 L731.962967,103.529332 C732.252649,105.361073 730.804236,107 728.969579,107 L716.030421,107 C714.195764,107 712.747351,105.361073 713.037033,103.529332 L719.506613,56.675307 C719.892856,53.108231 725.010583,53.108231 725.493387,56.675307 Z" id="Path" fill="#1C1918" fill-rule="nonzero"></path>
            <path d="M771.493387,56.675307 L777.962967,103.529332 C778.252649,105.361073 776.804236,107 774.969579,107 L762.030421,107 C760.195764,107 758.747351,105.361073 759.037033,103.529332 L765.506613,56.675307 C765.892856,53.108231 771.010583,53.108231 771.493387,56.675307 Z" id="Path" fill="#1C1918" fill-rule="nonzero"></path>
            <path d="M762.039409,107 L769.231527,107 C774.059113,107 778,110.902012 778,115.681976 L778,129.631668 C778,129.631668 770.019704,130.21697 767.655172,137.630792 C765.192118,144.947064 758,120.559491 758,120.559491 L762.039409,107 Z" id="Path" fill="#1C1918" fill-rule="nonzero"></path>
            <path d="M728.960591,107 L721.768473,107 C716.940887,107 713,110.902012 713,115.681976 L713,129.631668 C713,129.631668 720.980296,130.21697 723.344828,137.630792 C725.807882,144.947064 733,120.559491 733,120.559491 L728.960591,107 Z" id="Path" fill="#1C1918" fill-rule="nonzero"></path>
            <path d="M746.558263,2.54334194 L773.936996,193.415099 C774.325347,195.255994 772.869031,197 770.927277,197 L716.072723,197 C714.130969,197 712.674653,195.255994 713.063004,193.415099 L740.441737,2.54334194 C741.121351,-0.847780647 745.975737,-0.847780647 746.558263,2.54334194 Z" id="Path" fill="#3A3531" fill-rule="nonzero"></path>
            <path d="M692.683843,201 L796.316157,201 C798.351965,201 800,199.434211 800,197.5 L800,197.5 C800,195.565789 798.351965,194 796.316157,194 L692.683843,194 C690.648035,194 689,195.565789 689,197.5 L689,197.5 C689.096943,199.434211 690.744978,201 692.683843,201 Z" id="Path" fill="#FFF0D9" fill-rule="nonzero"></path>
            <path d="M705.084602,137.488834 L714.935428,190.388751 C715.333442,192.243176 713.840892,194 711.850826,194 L692.149174,194 C690.159108,194 688.666558,192.243176 689.064572,190.388751 L698.915398,137.488834 C699.611921,134.170389 704.487582,134.170389 705.084602,137.488834 Z" id="Path" fill="#1C1918" fill-rule="nonzero"></path>
            <path d="M790.084602,137.488834 L799.935428,190.388751 C800.333442,192.243176 798.840892,194 796.850826,194 L777.149174,194 C775.159108,194 773.666558,192.243176 774.064572,190.388751 L783.915398,137.488834 C784.512418,134.170389 789.487582,134.170389 790.084602,137.488834 Z" id="Path" fill="#1C1918" fill-rule="nonzero"></path>
            <path d="M747.493387,56.675307 L753.962967,103.529332 C754.252649,105.361073 752.804236,107 750.969579,107 L738.030421,107 C736.195764,107 734.747351,105.361073 735.037033,103.529332 L741.506613,56.675307 C741.892856,53.108231 747.010583,53.108231 747.493387,56.675307 Z" id="Path" fill="#1C1918" fill-rule="nonzero"></path>
            <path d="M740.513486,107 L748.304248,107 C752.579666,107.383012 756,111.021622 756,115.522008 L756,129.214672 C756,129.214672 748.304248,129.789189 746.024025,137.066409 C745.643988,138.311197 743.363765,138.311197 742.983728,137.066409 C740.608496,129.884942 733.007753,129.214672 733.007753,129.214672 L733.007753,115.522008 C732.817734,111.021622 736.143059,107.383012 740.513486,107 Z" id="Path" fill="#1C1918" fill-rule="nonzero"></path>
            <rect id="Rectangle" fill="#CEB386" fill-rule="nonzero" x="692" y="307" width="104" height="390"></rect>
            <rect id="Rectangle" fill="#9B815F" fill-rule="nonzero" x="744" y="307" width="52" height="390"></rect>
            <path d="M797,201 L797,293.774312 C797,301.06789 791.073327,307 783.786434,307 L691,307 L691,201 L797,201 Z" id="Path" fill="#CEB386" fill-rule="nonzero"></path>
            <rect id="Rectangle" fill="#FFF0D9" fill-rule="nonzero" x="691" y="324" width="106" height="12"></rect>
            <path d="M731.097744,428 L757,428 L757,408.858006 C757,401.800604 751.233083,396 744,396 L744,396 C736.864662,396 731,401.703927 731,408.858006 L731,428 L731.097744,428 Z" id="Path" stroke="#191919" stroke-width="3" fill="#FFFFFF" fill-rule="nonzero"></path>
            <path d="M785.928571,324 L807.071429,324 C811.47619,324 815,320.618785 815,316.392265 L815,314.607735 C815,310.381215 811.47619,307 807.071429,307 L785.928571,307 C781.52381,307 778,310.381215 778,314.607735 L778,316.392265 C778,320.524862 781.52381,324 785.928571,324 Z" id="Path" fill="#F5D598" fill-rule="nonzero"></path>
            <rect id="Rectangle" fill="#BA8E5A" fill-rule="nonzero" x="785" y="343" width="23" height="354"></rect>
            <rect id="Rectangle" fill="#BA8E5A" fill-rule="nonzero" x="785" y="324" width="23" height="6"></rect>
            <path d="M681.928571,324 L703.071429,324 C707.47619,324 711,320.618785 711,316.392265 L711,314.607735 C711,310.381215 707.47619,307 703.071429,307 L681.928571,307 C677.52381,307 674,310.381215 674,314.607735 L674,316.392265 C674,320.524862 677.52381,324 681.928571,324 Z" id="Path" fill="#F5D598" fill-rule="nonzero"></path>
            <rect id="Rectangle" fill="#BA8E5A" fill-rule="nonzero" x="681" y="343" width="23" height="354"></rect>
            <rect id="Rectangle" fill="#BA8E5A" fill-rule="nonzero" x="681" y="324" width="23" height="6"></rect>
            <path d="M702.44818,231.398882 L704.994288,304.479963 C705.092215,305.836906 703.917088,307 702.546107,307 L697.453893,307 C696.082912,307 694.907785,305.836906 695.005712,304.479963 L697.55182,231.398882 C697.649747,228.200373 702.350253,228.200373 702.44818,231.398882 Z" id="Path" fill="#1C1918" fill-rule="nonzero"></path>
            <path d="M785,377.5 L703,377.5" id="Path" stroke="#F4F4F4" stroke-width="5" fill="#FFFFFF" fill-rule="nonzero"></path>
            <path d="M785.350453,344 L808.649547,344 C811.066465,344 813,341.931034 813,339.344828 L813,333.655172 C813,331.068966 811.066465,329 808.649547,329 L785.350453,329 C782.933535,329 781,331.068966 781,333.655172 L781,339.344828 C781.096677,341.931034 783.030211,344 785.350453,344 Z" id="Path" fill="#F5D598" fill-rule="nonzero"></path>
            <path d="M680.350453,344 L703.649547,344 C706.066465,344 708,341.931034 708,339.344828 L708,333.655172 C708,331.068966 706.066465,329 703.649547,329 L680.350453,329 C677.933535,329 676,331.068966 676,333.655172 L676,339.344828 C676,341.931034 677.933535,344 680.350453,344 Z" id="Path" fill="#F5D598" fill-rule="nonzero"></path>
            <path d="M426,307 L426,637.738622 C422.989729,641.909227 421.24183,646.952748 421.24183,652.481224 L421.24183,697 L386.963585,697 L386.963585,652.481224 C386.963585,645.497886 384.147526,639.096493 379.486461,634.537926 C377.835668,632.889082 375.990663,631.531211 373.951447,630.367322 C370.261438,628.330515 365.988796,627.069634 361.521942,627.069634 C347.441643,627.069634 336.080299,638.417558 336.080299,652.481224 L336.080299,697 L322,697 L322,307 L426,307 Z" id="Path" fill="#CEB386" fill-rule="nonzero"></path>
            <path d="M427,307 L427,637.738622 C423.992537,641.909227 422.246269,646.952748 422.246269,652.481224 L422.246269,697 L388,697 L388,652.481224 C388,645.497886 385.186567,639.096493 380.529851,634.537926 C378.880597,632.889082 377.037313,631.531211 375,630.367322 L375,307 L427,307 Z" id="Path" fill="#9B815F" fill-rule="nonzero"></path>
            <path d="M421.960526,652.471088 C421.960526,641.993697 428.618421,633.068512 438,629.187997 L438,343 L415,343 L415,697 L421.859649,697 L421.859649,652.471088 L421.960526,652.471088 Z" id="Path" fill="#BA8E5A" fill-rule="nonzero"></path>
            <path d="M394.506613,56.675307 L388.037033,103.529332 C387.747351,105.361073 389.195764,107 391.030421,107 L403.969579,107 C405.804236,107 407.252649,105.361073 406.962967,103.529332 L400.493387,56.675307 C400.010583,53.108231 394.989417,53.108231 394.506613,56.675307 Z" id="Path" fill="#1C1918" fill-rule="nonzero"></path>
            <path d="M347.506613,56.675307 L341.037033,103.529332 C340.747351,105.361073 342.195764,107 344.030421,107 L356.969579,107 C358.804236,107 360.252649,105.361073 359.962967,103.529332 L353.493387,56.675307 C353.107144,53.108231 347.989417,53.108231 347.506613,56.675307 Z" id="Path" fill="#1C1918" fill-rule="nonzero"></path>
            <path d="M356.960591,107 L349.768473,107 C344.940887,107 341,110.902012 341,115.681976 L341,129.631668 C341,129.631668 348.980296,130.21697 351.344828,137.630792 C353.807882,144.947064 361,120.559491 361,120.559491 L356.960591,107 Z" id="Path" fill="#1C1918" fill-rule="nonzero"></path>
            <path d="M391.039409,107 L398.231527,107 C403.059113,107 407,110.902012 407,115.681976 L407,129.631668 C407,129.631668 399.019704,130.21697 396.655172,137.630792 C394.192118,144.947064 387,120.559491 387,120.559491 L391.039409,107 Z" id="Path" fill="#1C1918" fill-rule="nonzero"></path>
            <path d="M371.441737,2.54334194 L344.063004,193.415099 C343.674653,195.255994 345.130969,197 347.072723,197 L401.927277,197 C403.869031,197 405.325347,195.255994 404.936996,193.415099 L377.558263,2.54334194 C376.878649,-0.847780647 372.121351,-0.847780647 371.441737,2.54334194 Z" id="Path" fill="#3A3531" fill-rule="nonzero"></path>
            <path d="M426.316157,201 L322.683843,201 C320.648035,201 319,199.434211 319,197.5 L319,197.5 C319,195.565789 320.648035,194 322.683843,194 L426.316157,194 C428.351965,194 430,195.565789 430,197.5 L430,197.5 C429.903057,199.434211 428.351965,201 426.316157,201 Z" id="Path" fill="#FFF0D9" fill-rule="nonzero"></path>
            <path d="M414.915398,137.488834 L405.064572,190.388751 C404.666558,192.243176 406.159108,194 408.149174,194 L427.850826,194 C429.840892,194 431.333442,192.243176 430.935428,190.388751 L421.084602,137.488834 C420.487582,134.170389 415.512418,134.170389 414.915398,137.488834 Z" id="Path" fill="#1C1918" fill-rule="nonzero"></path>
            <path d="M328.915398,137.488834 L319.064572,190.388751 C318.666558,192.243176 320.159108,194 322.149174,194 L341.850826,194 C343.840892,194 345.333442,192.243176 344.935428,190.388751 L335.084602,137.488834 C334.487582,134.170389 329.611921,134.170389 328.915398,137.488834 Z" id="Path" fill="#1C1918" fill-rule="nonzero"></path>
            <path d="M371.506613,56.675307 L365.037033,103.529332 C364.747351,105.361073 366.195764,107 368.030421,107 L380.969579,107 C382.804236,107 384.252649,105.361073 383.962967,103.529332 L377.493387,56.675307 C377.107144,53.108231 371.989417,53.108231 371.506613,56.675307 Z" id="Path" fill="#1C1918" fill-rule="nonzero"></path>
            <path d="M379.490398,107 L371.697682,107 C367.421192,107.383012 364,111.021622 364,115.522008 L364,129.214672 C364,129.214672 371.697682,129.789189 373.978477,137.066409 C374.358609,138.311197 376.639404,138.311197 377.019537,137.066409 C379.395364,129.884942 386.998013,129.214672 386.998013,129.214672 L386.998013,115.522008 C387.093047,111.021622 383.766888,107.383012 379.490398,107 Z" id="Path" fill="#1C1918" fill-rule="nonzero"></path>
            <path d="M427,201 L427,307 L334.213566,307 C326.926673,307 321,301.073327 321,293.786434 L321,201 L427,201 Z" id="Path" fill="#CEB386" fill-rule="nonzero"></path>
            <rect id="Rectangle" fill="#FFF0D9" fill-rule="nonzero" x="321" y="324" width="106" height="12"></rect>
            <path d="M387.902256,419 L362,419 L362,399.89697 C362,392.818182 367.766917,387 375,387 L375,387 C382.135338,387 388,392.721212 388,399.89697 L388,419 L387.902256,419 Z" id="Path" fill="#3A3531" fill-rule="nonzero"></path>
            <path d="M334.169312,324 L312.928571,324 C308.52381,324 305,320.618785 305,316.392265 L305,314.607735 C305,310.381215 308.52381,307 312.928571,307 L334.071429,307 C338.47619,307 342,310.381215 342,314.607735 L342,316.392265 C342,320.524862 338.47619,324 334.169312,324 Z" id="Path" fill="#F5D598" fill-rule="nonzero"></path>
            <rect id="Rectangle" fill="#BA8E5A" fill-rule="nonzero" x="311" y="343" width="23" height="354"></rect>
            <rect id="Rectangle" fill="#BA8E5A" fill-rule="nonzero" x="311" y="324" width="23" height="6"></rect>
            <path d="M438.169312,324 L416.928571,324 C412.52381,324 409,320.618785 409,316.392265 L409,314.607735 C409,310.381215 412.52381,307 416.928571,307 L438.071429,307 C442.47619,307 446,310.381215 446,314.607735 L446,316.392265 C446,320.524862 442.47619,324 438.169312,324 Z" id="Path" fill="#F5D598" fill-rule="nonzero"></path>
            <rect id="Rectangle" fill="#BA8E5A" fill-rule="nonzero" x="415" y="324" width="23" height="6"></rect>
            <path d="M416.547563,229.398882 L414,302.479963 C414,303.836906 415.077815,305 416.449579,305 L421.544705,305 C422.916469,305 424.092267,303.836906 423.994284,302.479963 L421.446722,229.398882 C421.446722,226.200373 416.645546,226.200373 416.547563,229.398882 Z" id="Path" fill="#1C1918" fill-rule="nonzero"></path>
            <path d="M333,377.5 L415,377.5" id="Path" stroke="#F4F4F4" stroke-width="5" fill="#FFFFFF" fill-rule="nonzero"></path>
            <path d="M703,539.0782 L703,697 L655.797737,697 L655.797737,652.352973 C655.797737,645.334226 652.981141,638.900375 648.319189,634.318693 C643.754361,629.737011 637.344177,626.812533 630.351249,626.812533 C616.26827,626.812533 604.904762,638.217997 604.904762,652.352973 L604.904762,697 L564.112683,697 L564.112683,652.352973 C564.112683,645.334226 561.296087,638.900375 556.634135,634.318693 C552.069307,629.737011 545.659123,626.812533 538.666195,626.812533 C524.680339,626.812533 513.219708,638.217997 513.219708,652.352973 L513.219708,697 L472.427628,697 L472.427628,652.352973 C472.427628,645.334226 469.611033,638.900375 464.949081,634.318693 C460.384253,629.737011 453.974069,626.812533 446.981141,626.812533 C432.995285,626.812533 421.534653,638.217997 421.534653,652.352973 L421.534653,697 L387.249882,697 L387.249882,652.352973 C387.249882,645.334226 384.433286,638.900375 379.771334,634.318693 C375.206506,629.737011 368.796322,626.812533 361.803395,626.812533 C347.720415,626.812533 336.356907,638.217997 336.356907,652.352973 L336.356907,697 L291,697 L291,539.0782 C291,525.820568 301.68364,515 314.989628,515 L678.816124,515 C692.31636,515.097483 703,525.820568 703,539.0782 Z" id="Path" fill="#DEBD90" fill-rule="nonzero"></path>
            <path d="M704,538.993569 L704,697 L656.563116,697 L656.563116,652.329046 C656.563116,645.306538 653.73252,638.869239 649.047396,634.285102 C644.459878,629.700965 638.017832,626.77492 630.990145,626.77492 C616.837166,626.77492 605.417175,638.186495 605.417175,652.329046 L605.417175,697 L564.422337,697 L564.422337,652.329046 C564.422337,645.306538 561.591741,638.869239 556.906617,634.285102 C552.319099,629.700965 545.877053,626.77492 538.849366,626.77492 C524.793993,626.77492 513.276396,638.186495 513.276396,652.329046 L513.276396,697 L496,697 L496,515 L679.793524,515 C683.307367,515 686.625997,515.780279 689.651807,517.145766 C698.241201,520.85209 704,529.240086 704,538.993569 Z" id="Path" fill="#CCA77A" fill-rule="nonzero"></path>
            <path d="M704,539.829268 L704,697 L689,697 L689,518 C697.896552,521.78374 704,530.127371 704,539.829268 Z" id="Path" fill="#916C47" fill-rule="nonzero" opacity="0.19"></path>
            <path d="M709,612.448276 C709,613.689655 708.514064,614.827586 707.736565,615.655172 C706.959067,616.482759 705.890007,617 704.723759,617 L288.179053,617 C285.846558,617 284,615.034483 284,612.551724 C284,611.310345 284.485936,610.172414 285.263435,609.344828 C286.040933,608.517241 287.109993,608 288.276241,608 L704.820947,608 C707.153442,608 709,609.965517 709,612.448276 Z" id="Path" fill="#EFE8DF" fill-rule="nonzero"></path>
            <path d="M709,612.448276 C709,613.689655 708.515318,614.827586 707.739826,615.655172 C706.964335,616.482759 705.898034,617 704.734797,617 L497,617 L497,608 L704.831733,608 C707.158208,608 709,609.965517 709,612.448276 Z" id="Path" fill="#D3D0CD" fill-rule="nonzero"></path>
            <path d="M697,519.450156 C697,520.691022 696.514844,521.828483 695.738595,522.655728 C694.962346,523.482972 693.895004,524 692.73063,524 L299.172339,524 C296.843592,524 295,522.035295 295,519.553561 C295,518.312695 295.485156,517.175234 296.261405,516.347989 C297.037654,515.520745 298.104996,515.003717 299.26937,515.003717 L692.827661,515.003717 C695.059377,514.900312 697,516.968423 697,519.450156 Z" id="Path" fill="#EAE5E1" fill-rule="nonzero"></path>
            <path d="M493.548387,529 L493.548387,529 C507.580645,529 519,540.464873 519,554.553064 L519,594 L468,594 L468,554.553064 C468,540.464873 479.419355,529 493.548387,529 Z" id="Path" fill="#4D443B" fill-rule="nonzero"></path>
            <path d="M441.093023,595 L422.906977,595 C418.55814,595 415,591.513514 415,587.252252 L415,559.747748 C415,555.486486 418.55814,552 422.906977,552 L441.093023,552 C445.44186,552 449,555.486486 449,559.747748 L449,587.252252 C448.901163,591.61036 445.44186,595 441.093023,595 Z" id="Path" fill="#4D443B" fill-rule="nonzero"></path>
            <path d="M396.093023,595 L377.906977,595 C373.55814,595 370,591.513514 370,587.252252 L370,559.747748 C370,555.486486 373.55814,552 377.906977,552 L396.093023,552 C400.44186,552 404,555.486486 404,559.747748 L404,587.252252 C404,591.61036 400.44186,595 396.093023,595 Z" id="Path" fill="#4D443B" fill-rule="nonzero"></path>
            <path d="M351.093023,595 L332.906977,595 C328.55814,595 325,591.513514 325,587.252252 L325,559.747748 C325,555.486486 328.55814,552 332.906977,552 L351.093023,552 C355.44186,552 359,555.486486 359,559.747748 L359,587.252252 C358.901163,591.61036 355.44186,595 351.093023,595 Z" id="Path" fill="#4D443B" fill-rule="nonzero"></path>
            <path d="M651.093023,595 L632.906977,595 C628.55814,595 625,591.513514 625,587.252252 L625,559.747748 C625,555.486486 628.55814,552 632.906977,552 L651.093023,552 C655.44186,552 659,555.486486 659,559.747748 L659,587.252252 C658.901163,591.61036 655.44186,595 651.093023,595 Z" id="Path" fill="#4D443B" fill-rule="nonzero"></path>
            <path d="M606.19186,595 L587.906977,595 C583.55814,595 580,591.513514 580,587.252252 L580,559.747748 C580,555.486486 583.55814,552 587.906977,552 L606.093023,552 C610.44186,552 614,555.486486 614,559.747748 L614,587.252252 C614,591.61036 610.44186,595 606.19186,595 Z" id="Path" fill="#4D443B" fill-rule="nonzero"></path>
            <path d="M561.093023,595 L542.906977,595 C538.55814,595 535,591.513514 535,587.252252 L535,559.747748 C535,555.486486 538.55814,552 542.906977,552 L561.093023,552 C565.44186,552 569,555.486486 569,559.747748 L569,587.252252 C569,591.61036 565.44186,595 561.093023,595 Z" id="Path" fill="#4D443B" fill-rule="nonzero"></path>
            <g id="Group" transform="translate(305.000000, 409.000000)" fill-rule="nonzero">
                <path d="M3.40203562,108.625641 L3.40203562,93.1035897 C3.40203562,84.3302564 10.5949109,77.0994872 19.5374046,77.0994872 L20.6066158,77.0994872 C22.3562341,65.6266667 32.2707379,56.9497436 44.3236641,56.9497436 C50.3501272,56.9497436 56.0849873,59.2635897 60.4590331,63.2164103 L60.4590331,33.6184615 C60.6534351,23.8810256 68.8183206,15.9753846 78.5384224,15.9753846 C82.7180662,15.9753846 86.6061069,17.4215385 89.8137405,19.8317949 C90.4941476,10.48 98.464631,3.05641026 107.89313,3.05641026 C117.224427,3.05641026 125.000509,10.1907692 125.972519,19.2533333 C128.985751,17.1323077 132.679389,15.9753846 136.470229,15.9753846 C146.287532,15.9753846 154.355216,23.8810256 154.549618,33.6184615 L154.549618,58.1066667 C162.131298,45.6697436 175.73944,37.4748718 191.097201,37.0892308 C191.388804,37.0892308 191.777608,37.0892308 192.069211,37.0892308 C207.329771,37.0892308 221.326718,45.0912821 229.2,57.4317949 L229.2,33.6184615 C229.394402,23.8810256 237.559288,15.9753846 247.279389,15.9753846 C251.16743,15.9753846 254.861069,17.2287179 257.8743,19.3497436 C258.749109,10.1907692 266.622392,3.05641026 275.95369,3.05641026 C285.382188,3.05641026 293.352672,10.3835897 294.033079,19.6389744 C297.143511,17.3251282 300.934351,15.9753846 305.016794,15.9753846 C314.834097,15.9753846 322.901781,23.8810256 323.096183,33.6184615 L323.096183,64.0841026 C327.470229,59.6492308 333.593893,57.0461538 340.106361,57.0461538 C352.159288,57.0461538 362.073791,65.7230769 363.82341,77.1958974 C372.182697,77.774359 378.695165,84.7158974 378.695165,93.1035897 L378.695165,108.625641 L3.40203562,108.625641 L3.40203562,108.625641 Z" id="Path" fill="#DEBD90"></path>
                <path d="M276.050891,5.85230769 C284.312977,5.85230769 291.117048,12.4082051 291.31145,20.6030769 L291.31145,27.5446154 C293.741476,22.3384615 298.990331,18.6748718 305.211196,18.6748718 C313.473282,18.6748718 320.277354,25.2307692 320.374555,33.425641 L320.374555,73.8215385 C323.193384,65.6266667 331.066667,59.6492308 340.300763,59.6492308 C351.673282,59.6492308 360.907379,68.6153846 361.296183,79.7989744 L362.754198,79.7989744 C370.044275,79.7989744 375.973537,85.68 375.973537,92.9107692 L375.973537,105.540513 L6.31806616,105.540513 L6.31806616,92.9107692 C6.31806616,85.68 12.2473282,79.7989744 19.5374046,79.7989744 L23.2310433,79.7989744 C23.6198473,68.6153846 32.853944,59.6492308 44.2264631,59.6492308 C52.6829517,59.6492308 59.973028,64.5661538 63.2778626,71.7005128 L63.2778626,33.425641 C63.4722646,25.2307692 70.1791349,18.6748718 78.4412214,18.6748718 C84.8564885,18.6748718 90.2997455,22.6276923 92.535369,28.1230769 L92.535369,20.5066667 C92.729771,12.3117949 99.4366412,5.75589744 107.698728,5.75589744 C116.058015,5.75589744 122.764885,12.3117949 122.959288,20.5066667 L122.959288,26.3876923 C125.583715,21.76 130.540967,18.5784615 136.275827,18.5784615 C144.537913,18.5784615 151.341985,25.134359 151.536387,33.3292308 L151.536387,73.7251282 C154.646819,54.6358974 171.073791,40.0779487 191.097201,39.5958974 C191.388804,39.5958974 191.680407,39.5958974 192.069211,39.5958974 C211.703817,39.5958974 228.033588,53.2861538 232.116031,71.5076923 L232.116031,33.3292308 C232.310433,25.134359 239.017303,18.5784615 247.279389,18.5784615 C253.11145,18.5784615 258.165903,21.8564103 260.69313,26.6769231 L260.69313,20.5066667 C260.984733,12.5046154 267.788804,5.85230769 276.050891,5.85230769 L276.050891,5.85230769 Z M276.050891,0.0676923077 C266.719593,0.0676923077 258.651908,6.33435897 255.93028,14.8184615 C253.305852,13.6615385 250.389822,12.9866667 247.37659,12.9866667 C236.004071,12.9866667 226.575573,22.145641 226.38117,33.425641 L226.38117,33.5220513 L226.38117,33.6184615 L226.38117,48.8512821 C224.923155,47.3087179 223.367939,45.8625641 221.715522,44.5128205 C213.356234,37.7641026 202.955725,34.1005128 192.166412,34.1005128 C191.777608,34.1005128 191.388804,34.1005128 191,34.1005128 C177.780662,34.3897436 165.824936,40.174359 157.465649,49.3333333 L157.465649,33.6184615 L157.465649,33.5220513 L157.465649,33.425641 C157.271247,22.145641 147.842748,12.9866667 136.470229,12.9866667 C133.554198,12.9866667 130.638168,13.5651282 128.01374,14.7220513 C125.292112,6.23794872 117.321628,0.0676923077 107.89313,0.0676923077 C98.464631,0.0676923077 90.2997455,6.43076923 87.6753181,15.0112821 C84.8564885,13.6615385 81.746056,12.9866667 78.5384224,12.9866667 C67.1659033,12.9866667 57.7374046,22.145641 57.5430025,33.425641 L57.5430025,33.5220513 L57.5430025,33.6184615 L57.5430025,57.6246154 C53.5577608,55.4071795 48.989313,54.1538462 44.3236641,54.1538462 C31.6875318,54.1538462 21.0926209,62.6379487 18.1765903,74.4 C8.35928753,75.0748718 0.583206107,83.2697436 0.583206107,93.2 L0.583206107,105.829744 L0.583206107,111.614359 L6.41526718,111.614359 L376.070738,111.614359 L381.902799,111.614359 L381.902799,105.829744 L381.902799,93.2 C381.902799,84.0410256 375.29313,76.4246154 366.545038,74.6892308 C363.726209,62.8307692 353.131298,54.1538462 340.397964,54.1538462 C335.24631,54.1538462 330.38626,55.6 326.303817,58.1066667 L326.303817,33.6184615 L326.303817,33.5220513 L326.303817,33.425641 C326.109415,22.145641 316.680916,12.9866667 305.308397,12.9866667 C302.197964,12.9866667 299.184733,13.6615385 296.365903,14.9148718 C293.547074,6.43076923 285.479389,0.0676923077 276.050891,0.0676923077 L276.050891,0.0676923077 Z" id="Shape" fill="#EAE5E1"></path>
            </g>
            <path d="M334.649547,344 L311.350453,344 C308.933535,344 307,341.931034 307,339.344828 L307,333.655172 C307,331.068966 308.933535,329 311.350453,329 L334.649547,329 C337.066465,329 339,331.068966 339,333.655172 L339,339.344828 C339,341.931034 337.066465,344 334.649547,344 Z" id="Path" fill="#F5D598" fill-rule="nonzero"></path>
            <path d="M438.649547,344 L415.350453,344 C412.933535,344 411,341.931034 411,339.344828 L411,333.655172 C411,331.068966 412.933535,329 415.350453,329 L438.649547,329 C441.066465,329 443,331.068966 443,333.655172 L443,339.344828 C442.903323,341.931034 440.969789,344 438.649547,344 Z" id="Path" fill="#F5D598" fill-rule="nonzero"></path>
            <path d="M1204,442.772152 L1204,464 L839,464 L839,442.772152 C839,432.997468 846.863032,425 856.473404,425 L1186.5266,425 C1196.13697,425 1204,432.898734 1204,442.772152 Z" id="Path" fill="#BF945C" fill-rule="nonzero"></path>
            <rect id="Rectangle" fill="#9B7345" fill-rule="nonzero" x="1052" y="425" width="34" height="39"></rect>
            <path d="M1068,425.456376 L1068,697 L703,697 L703,425.456376 C703,415.855369 710.863032,408 720.473404,408 L1050.5266,408 C1060.13697,408 1068,415.855369 1068,425.456376 Z" id="Path" fill="#F5D598" fill-rule="nonzero"></path>
            <path d="M1068,425.456376 L1068,697 L885,697 L885,408 L1050.47872,408 C1060.11543,408 1068,415.855369 1068,425.456376 Z" id="Path" fill="#D1AB6F" fill-rule="nonzero"></path>
            <path d="M1072,593.254417 L1072,612.745583 C1072,615.120141 1070.1525,617 1067.81882,617 L703.181178,617 C700.847497,617 699,615.120141 699,612.745583 L699,593.254417 C699,590.879859 700.847497,589 703.181178,589 L1067.81882,589 C1070.1525,589 1072,590.879859 1072,593.254417 Z" id="Path" fill="#FFF0D9" fill-rule="nonzero"></path>
            <path d="M762,627 L762,627 C748.206897,627 737,638.375 737,652.375 L737,697 L787,697 L787,652.375 C787,638.375 775.793103,627 762,627 Z" id="Path" fill="#3A3531" fill-rule="nonzero"></path>
            <path d="M631,627 L631,627 C617.206897,627 606,638.375 606,652.375 L606,697 L656,697 L656,652.375 C656,638.375 644.793103,627 631,627 Z" id="Path" fill="#3A3531" fill-rule="nonzero"></path>
            <path d="M539,627 L539,627 C525.206897,627 514,638.375 514,652.375 L514,697 L564,697 L564,652.375 C564,638.375 552.793103,627 539,627 Z" id="Path" fill="#3A3531" fill-rule="nonzero"></path>
            <path d="M448,627 L448,627 C434.206897,627 423,638.375 423,652.375 L423,697 L473,697 L473,652.375 C473,638.375 461.793103,627 448,627 Z" id="Path" fill="#3A3531" fill-rule="nonzero"></path>
            <path d="M363,627 L363,627 C349.206897,627 338,638.375 338,652.375 L338,697 L388,697 L388,652.375 C388,638.375 376.793103,627 363,627 Z" id="Path" fill="#3A3531" fill-rule="nonzero"></path>
            <path d="M845,627 L845,627 C831.206897,627 820,638.375 820,652.375 L820,697 L870,697 L870,652.375 C870,638.375 858.793103,627 845,627 Z" id="Path" fill="#3A3531" fill-rule="nonzero"></path>
            <path d="M927,627 L927,627 C913.206897,627 902,638.375 902,652.375 L902,697 L952,697 L952,652.375 C952,638.375 940.793103,627 927,627 Z" id="Path" fill="#3A3531" fill-rule="nonzero"></path>
            <path d="M1009.9522,627 L1009.9522,627 C996.185468,627 985,638.375 985,652.375 L985,697 L1035,697 L1035,652.375 C1035,638.375 1023.81453,627 1009.9522,627 Z" id="Path" fill="#3A3531" fill-rule="nonzero"></path>
            <path d="M1135.9997,627 L1135.9997,627 C1122.20676,627 1111,638.375 1111,652.375 L1111,697 L1160.99939,697 L1160.99939,652.375 C1161.09517,638.375 1149.88841,627 1135.9997,627 Z" id="Path" fill="#3A3531" fill-rule="nonzero"></path>
            <path d="M1068,425.525355 L1068,456 L703,456 L703,425.525355 C703,415.88641 710.863032,408 720.473404,408 L1050.5266,408 C1060.13697,408 1068,415.88641 1068,425.525355 Z" id="Path" fill="#E0B97C" fill-rule="nonzero"></path>
            <path d="M1068,425.525355 L1068,456 L885,456 L885,408 L1050.37201,408 C1060.11123,408 1068,415.88641 1068,425.525355 Z" id="Path" fill="#BA8E5A" fill-rule="nonzero"></path>
            <path d="M756.620462,509 L746.379538,509 C741.211221,509 737,504.774834 737,499.589404 L737,489.410596 C737,484.225166 741.211221,480 746.379538,480 L756.620462,480 C761.788779,480 766,484.225166 766,489.410596 L766,499.68543 C766,504.870861 761.788779,509 756.620462,509 Z" id="Path" fill="#4D443B" fill-rule="nonzero"></path>
            <path d="M798.620462,509 L788.379538,509 C783.211221,509 779,504.774834 779,499.589404 L779,489.410596 C779,484.225166 783.211221,480 788.379538,480 L798.620462,480 C803.788779,480 808,484.225166 808,489.410596 L808,499.68543 C808,504.870861 803.788779,509 798.620462,509 Z" id="Path" fill="#4D443B" fill-rule="nonzero"></path>
            <path d="M842.620462,509 L832.379538,509 C827.211221,509 823,504.774834 823,499.589404 L823,489.410596 C823,484.225166 827.211221,480 832.379538,480 L842.620462,480 C847.788779,480 852,484.225166 852,489.410596 L852,499.68543 C852,504.870861 847.788779,509 842.620462,509 Z" id="Path" fill="#4D443B" fill-rule="nonzero"></path>
            <path d="M904.620462,509 L894.379538,509 C889.211221,509 885,504.774834 885,499.589404 L885,489.410596 C885,484.225166 889.211221,480 894.379538,480 L904.620462,480 C909.788779,480 914,484.225166 914,489.410596 L914,499.68543 C913.90429,504.870861 909.788779,509 904.620462,509 Z" id="Path" fill="#3A3531" fill-rule="nonzero"></path>
            <path d="M946.620462,509 L936.379538,509 C931.211221,509 927,504.774834 927,499.589404 L927,489.410596 C927,484.225166 931.211221,480 936.379538,480 L946.620462,480 C951.788779,480 956,484.225166 956,489.410596 L956,499.68543 C955.90429,504.870861 951.788779,509 946.620462,509 Z" id="Path" fill="#3A3531" fill-rule="nonzero"></path>
            <path d="M989.620462,509 L979.379538,509 C974.211221,509 970,504.774834 970,499.589404 L970,489.410596 C970,484.225166 974.211221,480 979.379538,480 L989.620462,480 C994.788779,480 999,484.225166 999,489.410596 L999,499.68543 C999,504.870861 994.788779,509 989.620462,509 Z" id="Path" fill="#3A3531" fill-rule="nonzero"></path>
            <path d="M1033.62046,509 L1023.37954,509 C1018.21122,509 1014,504.774834 1014,499.589404 L1014,489.410596 C1014,484.225166 1018.21122,480 1023.37954,480 L1033.62046,480 C1038.78878,480 1043,484.225166 1043,489.410596 L1043,499.68543 C1043,504.870861 1038.78878,509 1033.62046,509 Z" id="Path" fill="#3A3531" fill-rule="nonzero"></path>
            <path d="M756.620462,446 L746.379538,446 C741.211221,446 737,441.788779 737,436.620462 L737,426.379538 C737,421.211221 741.211221,417 746.379538,417 L756.620462,417 C761.788779,417 766,421.211221 766,426.379538 L766,436.620462 C766,441.788779 761.788779,446 756.620462,446 Z" id="Path" fill="#4D443B" fill-rule="nonzero"></path>
            <path d="M798.620462,446 L788.379538,446 C783.211221,446 779,441.788779 779,436.620462 L779,426.379538 C779,421.211221 783.211221,417 788.379538,417 L798.620462,417 C803.788779,417 808,421.211221 808,426.379538 L808,436.620462 C808,441.788779 803.788779,446 798.620462,446 Z" id="Path" fill="#4D443B" fill-rule="nonzero"></path>
            <path d="M842.620462,446 L832.379538,446 C827.211221,446 823,441.788779 823,436.620462 L823,426.379538 C823,421.211221 827.211221,417 832.379538,417 L842.620462,417 C847.788779,417 852,421.211221 852,426.379538 L852,436.620462 C852,441.788779 847.788779,446 842.620462,446 Z" id="Path" fill="#4D443B" fill-rule="nonzero"></path>
            <path d="M904.620462,446 L894.379538,446 C889.211221,446 885,441.788779 885,436.620462 L885,426.379538 C885,421.211221 889.211221,417 894.379538,417 L904.620462,417 C909.788779,417 914,421.211221 914,426.379538 L914,436.620462 C913.90429,441.788779 909.788779,446 904.620462,446 Z" id="Path" fill="#3A3531" fill-rule="nonzero"></path>
            <path d="M946.620462,446 L936.379538,446 C931.211221,446 927,441.788779 927,436.620462 L927,426.379538 C927,421.211221 931.211221,417 936.379538,417 L946.620462,417 C951.788779,417 956,421.211221 956,426.379538 L956,436.620462 C955.90429,441.788779 951.788779,446 946.620462,446 Z" id="Path" fill="#3A3531" fill-rule="nonzero"></path>
            <path d="M989.620462,446 L979.379538,446 C974.211221,446 970,441.788779 970,436.620462 L970,426.379538 C970,421.211221 974.211221,417 979.379538,417 L989.620462,417 C994.788779,417 999,421.211221 999,426.379538 L999,436.620462 C999,441.788779 994.788779,446 989.620462,446 Z" id="Path" fill="#3A3531" fill-rule="nonzero"></path>
            <path d="M1033.62046,446 L1023.37954,446 C1018.21122,446 1014,441.788779 1014,436.620462 L1014,426.379538 C1014,421.211221 1018.21122,417 1023.37954,417 L1033.62046,417 C1038.78878,417 1043,421.211221 1043,426.379538 L1043,436.620462 C1043,441.788779 1038.78878,446 1033.62046,446 Z" id="Path" fill="#3A3531" fill-rule="nonzero"></path>
            <path d="M756.620462,561 L746.379538,561 C741.211221,561 737,556.788779 737,551.620462 L737,541.379538 C737,536.211221 741.211221,532 746.379538,532 L756.620462,532 C761.788779,532 766,536.211221 766,541.379538 L766,551.620462 C766,556.788779 761.788779,561 756.620462,561 Z" id="Path" fill="#4D443B" fill-rule="nonzero"></path>
            <path d="M798.620462,561 L788.379538,561 C783.211221,561 779,556.788779 779,551.620462 L779,541.379538 C779,536.211221 783.211221,532 788.379538,532 L798.620462,532 C803.788779,532 808,536.211221 808,541.379538 L808,551.620462 C808,556.788779 803.788779,561 798.620462,561 Z" id="Path" fill="#4D443B" fill-rule="nonzero"></path>
            <path d="M842.620462,561 L832.379538,561 C827.211221,561 823,556.788779 823,551.620462 L823,541.379538 C823,536.211221 827.211221,532 832.379538,532 L842.620462,532 C847.788779,532 852,536.211221 852,541.379538 L852,551.620462 C852,556.788779 847.788779,561 842.620462,561 Z" id="Path" fill="#4D443B" fill-rule="nonzero"></path>
            <path d="M904.620462,561 L894.379538,561 C889.211221,561 885,556.788779 885,551.620462 L885,541.379538 C885,536.211221 889.211221,532 894.379538,532 L904.620462,532 C909.788779,532 914,536.211221 914,541.379538 L914,551.620462 C913.90429,556.788779 909.788779,561 904.620462,561 Z" id="Path" fill="#3A3531" fill-rule="nonzero"></path>
            <path d="M946.620462,561 L936.379538,561 C931.211221,561 927,556.788779 927,551.620462 L927,541.379538 C927,536.211221 931.211221,532 936.379538,532 L946.620462,532 C951.788779,532 956,536.211221 956,541.379538 L956,551.620462 C955.90429,556.788779 951.788779,561 946.620462,561 Z" id="Path" fill="#3A3531" fill-rule="nonzero"></path>
            <path d="M989.620462,561 L979.379538,561 C974.211221,561 970,556.788779 970,551.620462 L970,541.379538 C970,536.211221 974.211221,532 979.379538,532 L989.620462,532 C994.788779,532 999,536.211221 999,541.379538 L999,551.620462 C999,556.788779 994.788779,561 989.620462,561 Z" id="Path" fill="#3A3531" fill-rule="nonzero"></path>
            <path d="M1033.62046,561 L1023.37954,561 C1018.21122,561 1014,556.788779 1014,551.620462 L1014,541.379538 C1014,536.211221 1018.21122,532 1023.37954,532 L1033.62046,532 C1038.78878,532 1043,536.211221 1043,541.379538 L1043,551.620462 C1043,556.788779 1038.78878,561 1033.62046,561 Z" id="Path" fill="#3A3531" fill-rule="nonzero"></path>
            <path d="M1118.62046,510 L1108.37954,510 C1103.21122,510 1099,505.788779 1099,500.620462 L1099,490.379538 C1099,485.211221 1103.21122,481 1108.37954,481 L1118.62046,481 C1123.78878,481 1128,485.211221 1128,490.379538 L1128,500.620462 C1127.90429,505.788779 1123.78878,510 1118.62046,510 Z" id="Path" fill="#3A3531" fill-rule="nonzero"></path>
            <path d="M1162.62046,510 L1152.37954,510 C1147.21122,510 1143,505.788779 1143,500.620462 L1143,490.379538 C1143,485.211221 1147.21122,481 1152.37954,481 L1162.62046,481 C1167.78878,481 1172,485.211221 1172,490.379538 L1172,500.620462 C1171.90429,505.788779 1167.78878,510 1162.62046,510 Z" id="Path" fill="#3A3531" fill-rule="nonzero"></path>
            <path d="M1118.62046,458 L1108.37954,458 C1103.21122,458 1099,453.788779 1099,448.620462 L1099,438.379538 C1099,433.211221 1103.21122,429 1108.37954,429 L1118.62046,429 C1123.78878,429 1128,433.211221 1128,438.379538 L1128,448.620462 C1127.90429,453.884488 1123.78878,458 1118.62046,458 Z" id="Path" fill="#3A3531" fill-rule="nonzero"></path>
            <path d="M1162.62046,458 L1152.37954,458 C1147.21122,458 1143,453.788779 1143,448.620462 L1143,438.379538 C1143,433.211221 1147.21122,429 1152.37954,429 L1162.62046,429 C1167.78878,429 1172,433.211221 1172,438.379538 L1172,448.620462 C1171.90429,453.884488 1167.78878,458 1162.62046,458 Z" id="Path" fill="#3A3531" fill-rule="nonzero"></path>
            <path d="M1118.62046,562 L1108.37954,562 C1103.21122,562 1099,557.788779 1099,552.620462 L1099,542.379538 C1099,537.211221 1103.21122,533 1108.37954,533 L1118.62046,533 C1123.78878,533 1128,537.211221 1128,542.379538 L1128,552.620462 C1127.90429,557.788779 1123.78878,562 1118.62046,562 Z" id="Path" fill="#3A3531" fill-rule="nonzero"></path>
            <path d="M1162.62046,562 L1152.37954,562 C1147.21122,562 1143,557.788779 1143,552.620462 L1143,542.379538 C1143,537.211221 1147.21122,533 1152.37954,533 L1162.62046,533 C1167.78878,533 1172,537.211221 1172,542.379538 L1172,552.620462 C1171.90429,557.788779 1167.78878,562 1162.62046,562 Z" id="Path" fill="#3A3531" fill-rule="nonzero"></path>
            <rect id="Rectangle" fill="#3A3531" fill-rule="nonzero" x="774" y="370" width="223" height="38"></rect>
            <path d="M944,408 L827,408 L870.300752,360.737794 C874.406015,356.245931 879.977444,354 885.548872,354 C891.120301,354 896.691729,356.245931 900.796992,360.737794 L944,408 Z" id="Path" fill="#F5D598" fill-rule="nonzero"></path>
            <path d="M943,408 L885,408 L885,354 C890.528428,354 896.056856,356.245931 900.130435,360.737794 L943,408 Z" id="Path" fill="#D1AE75" fill-rule="nonzero"></path>
            <path d="M758.786294,368.282902 L720,409 L827,409 L788.213706,368.282902 C780.109107,359.905699 766.794409,359.905699 758.786294,368.282902 Z" id="Path" fill="#F5D598" fill-rule="nonzero"></path>
            <path d="M982.786294,368.282902 L944,409 L1051,409 L1012.21371,368.282902 C1004.10911,359.905699 990.794409,359.905699 982.786294,368.282902 Z" id="Path" fill="#D1AE75" fill-rule="nonzero"></path>
            <path d="M892.074766,396 L878.925234,396 C876.766355,396 875,394.233645 875,392.074766 L875,378.925234 C875,376.766355 876.766355,375 878.925234,375 L892.074766,375 C894.233645,375 896,376.766355 896,378.925234 L896,392.074766 C896,394.233645 894.233645,396 892.074766,396 Z" id="Path" fill="#4D443B" fill-rule="nonzero"></path>
            <path d="M780.074766,396 L766.925234,396 C764.766355,396 763,394.233645 763,392.074766 L763,378.925234 C763,376.766355 764.766355,375 766.925234,375 L780.074766,375 C782.233645,375 784,376.766355 784,378.925234 L784,392.074766 C784,394.233645 782.233645,396 780.074766,396 Z" id="Path" fill="#4D443B" fill-rule="nonzero"></path>
            <path d="M1004.07477,396 L990.925234,396 C988.766355,396 987,394.233645 987,392.074766 L987,378.925234 C987,376.766355 988.766355,375 990.925234,375 L1004.07477,375 C1006.23364,375 1008,376.766355 1008,378.925234 L1008,392.074766 C1008,394.233645 1006.33178,396 1004.07477,396 Z" id="Path" fill="#3A3531" fill-rule="nonzero"></path>
            <path d="M1119.78629,384.282902 L1081,425 L1188,425 L1149.21371,384.282902 C1141.20559,375.905699 1127.79441,375.905699 1119.78629,384.282902 Z" id="Path" fill="#F5D598" fill-rule="nonzero"></path>
            <path d="M1141.07477,416 L1127.92523,416 C1125.76636,416 1124,414.233645 1124,412.074766 L1124,398.925234 C1124,396.766355 1125.76636,395 1127.92523,395 L1141.07477,395 C1143.23364,395 1145,396.766355 1145,398.925234 L1145,412.074766 C1145,414.233645 1143.23364,416 1141.07477,416 Z" id="Path" fill="#3A3531" fill-rule="nonzero"></path>
            <path d="M1072,593.254417 L1072,612.745583 C1072,615.120141 1070.15649,617 1067.82786,617 L886,617 L886,589 L1067.73083,589 C1070.15649,589 1072,590.879859 1072,593.254417 Z" id="Path" fill="#EDD8BC" fill-rule="nonzero"></path>
            <path d="M1072,603 L1072,612.730496 C1072,615.113475 1070.1525,617 1067.81882,617 L703.181178,617 C700.847497,617 699,615.113475 699,612.730496 L699,603 L1072,603 Z" id="Path" fill="#B5A591" fill-rule="nonzero" opacity="0.54"></path>
            <path d="M727.608527,472 L709.391473,472 C707.550388,472 706,470.4 706,468.5 L706,463.5 C706,461.6 707.550388,460 709.391473,460 L727.608527,460 C729.449612,460 731,461.6 731,463.5 L731,468.5 C731,470.4 729.449612,472 727.608527,472 Z" id="Path" fill="#FFF7EB" fill-rule="nonzero"></path>
            <path d="M788.608527,527 L770.391473,527 C768.550388,527 767,525.4 767,523.5 L767,518.5 C767,516.6 768.550388,515 770.391473,515 L788.608527,515 C790.449612,515 792,516.6 792,518.5 L792,523.5 C792,525.5 790.449612,527 788.608527,527 Z" id="Path" fill="#FFF7EB" fill-rule="nonzero"></path>
            <path d="M733.608527,585 L715.391473,585 C713.550388,585 712,583.4 712,581.5 L712,576.5 C712,574.6 713.550388,573 715.391473,573 L733.608527,573 C735.449612,573 737,574.6 737,576.5 L737,581.5 C737,583.4 735.449612,585 733.608527,585 Z" id="Path" fill="#FFF7EB" fill-rule="nonzero"></path>
            <path d="M322.608527,547 L304.391473,547 C302.550388,547 301,545.4 301,543.5 L301,538.5 C301,536.6 302.550388,535 304.391473,535 L322.608527,535 C324.449612,535 326,536.6 326,538.5 L326,543.5 C326,545.5 324.449612,547 322.608527,547 Z" id="Path" fill="#FFF7EB" fill-rule="nonzero"></path>
            <path d="M328.595331,663 L310.404669,663 C308.55642,663 307,661.4 307,659.5 L307,654.5 C307,652.6 308.55642,651 310.404669,651 L328.595331,651 C330.44358,651 332,652.6 332,654.5 L332,659.5 C332,661.4 330.540856,663 328.595331,663 Z" id="Path" fill="#FFF7EB" fill-rule="nonzero"></path>
            <path d="M309.608527,593 L291.391473,593 C289.550388,593 288,591.4 288,589.5 L288,584.5 C288,582.6 289.550388,581 291.391473,581 L309.608527,581 C311.449612,581 313,582.6 313,584.5 L313,589.5 C313,591.5 311.546512,593 309.608527,593 Z" id="Path" fill="#FFF7EB" fill-rule="nonzero"></path>
            <path d="M417.608527,633 L399.391473,633 C397.550388,633 396,631.4 396,629.5 L396,624.5 C396,622.6 397.550388,621 399.391473,621 L417.608527,621 C419.449612,621 421,622.6 421,624.5 L421,629.5 C421,631.5 419.546512,633 417.608527,633 Z" id="Path" fill="#FFF7EB" fill-rule="nonzero"></path>
            <path d="M457.608527,547 L439.391473,547 C437.550388,547 436,545.4 436,543.5 L436,538.5 C436,536.6 437.550388,535 439.391473,535 L457.608527,535 C459.449612,535 461,536.6 461,538.5 L461,543.5 C461,545.5 459.449612,547 457.608527,547 Z" id="Path" fill="#FFF7EB" fill-rule="nonzero"></path>
            <path d="M469.608527,408 L451.391473,408 C449.550388,408 448,406.4 448,404.5 L448,399.5 C448,397.6 449.550388,396 451.391473,396 L469.608527,396 C471.449612,396 473,397.6 473,399.5 L473,404.5 C473,406.4 471.449612,408 469.608527,408 Z" id="Path" fill="#FFF7EB" fill-rule="nonzero"></path>
            <path d="M360.608527,436 L342.391473,436 C340.550388,436 339,434.4 339,432.5 L339,427.5 C339,425.6 340.550388,424 342.391473,424 L360.608527,424 C362.449612,424 364,425.6 364,427.5 L364,432.5 C364,434.5 362.449612,436 360.608527,436 Z" id="Path" fill="#FFF7EB" fill-rule="nonzero"></path>
            <path d="M720.608527,221 L702.391473,221 C700.550388,221 699,219.4 699,217.5 L699,212.5 C699,210.6 700.550388,209 702.391473,209 L720.608527,209 C722.449612,209 724,210.6 724,212.5 L724,217.5 C724,219.5 722.449612,221 720.608527,221 Z" id="Path" fill="#FFF7EB" fill-rule="nonzero"></path>
            <path d="M498.608527,436 L480.391473,436 C478.550388,436 477,434.4 477,432.5 L477,427.5 C477,425.6 478.550388,424 480.391473,424 L498.608527,424 C500.449612,424 502,425.6 502,427.5 L502,432.5 C502,434.5 500.449612,436 498.608527,436 Z" id="Path" fill="#FFF7EB" fill-rule="nonzero"></path>
            <path d="M308.608527,407 L290.391473,407 C288.550388,407 287,405.4 287,403.5 L287,398.5 C287,396.6 288.550388,395 290.391473,395 L308.608527,395 C310.449612,395 312,396.6 312,398.5 L312,403.5 C312,405.5 310.449612,407 308.608527,407 Z" id="Path" fill="#FFF7EB" fill-rule="nonzero"></path>
            <path d="M470.608527,367 L452.391473,367 C450.550388,367 449,365.4 449,363.5 L449,358.5 C449,356.6 450.550388,355 452.391473,355 L470.608527,355 C472.449612,355 474,356.6 474,358.5 L474,363.5 C474,365.4 472.449612,367 470.608527,367 Z" id="Path" fill="#FFF7EB" fill-rule="nonzero"></path>
            <path d="M868.608527,585 L850.391473,585 C848.550388,585 847,583.4 847,581.5 L847,576.5 C847,574.6 848.550388,573 850.391473,573 L868.608527,573 C870.449612,573 872,574.6 872,576.5 L872,581.5 C872,583.4 870.449612,585 868.608527,585 Z" id="Path" fill="#FFF7EB" fill-rule="nonzero"></path>
            <path d="M727.608527,640 L709.391473,640 C707.550388,640 706,638.4 706,636.5 L706,631.5 C706,629.6 707.550388,628 709.391473,628 L727.608527,628 C729.449612,628 731,629.6 731,631.5 L731,636.5 C731,638.5 729.546512,640 727.608527,640 Z" id="Path" fill="#FFF7EB" fill-rule="nonzero"></path>
            <path d="M813.608527,674 L795.391473,674 C793.550388,674 792,672.4 792,670.5 L792,665.5 C792,663.6 793.550388,662 795.391473,662 L813.608527,662 C815.449612,662 817,663.6 817,665.5 L817,670.5 C817,672.5 815.449612,674 813.608527,674 Z" id="Path" fill="#FFF7EB" fill-rule="nonzero"></path>
            <path d="M829.608527,478 L811.391473,478 C809.550388,478 808,476.4 808,474.5 L808,469.5 C808,467.6 809.550388,466 811.391473,466 L829.608527,466 C831.449612,466 833,467.6 833,469.5 L833,474.5 C833,476.4 831.449612,478 829.608527,478 Z" id="Path" fill="#FFF7EB" fill-rule="nonzero"></path>
            <path d="M898,465.5 L898,470.5 C898,472.4 896.44358,474 894.595331,474 L876.404669,474 C874.55642,474 873,472.4 873,470.5 L873,465.5 C873,463.6 874.55642,462 876.404669,462 L894.692607,462 C896.44358,462 898,463.5 898,465.5 Z" id="Path" fill="#FFF7EB" fill-rule="nonzero"></path>
            <path d="M979,566.5 L979,571.5 C979,573.4 977.449612,575 975.608527,575 L957.391473,575 C955.550388,575 954,573.4 954,571.5 L954,566.5 C954,564.6 955.550388,563 957.391473,563 L975.608527,563 C977.449612,563 979,564.6 979,566.5 Z" id="Path" fill="#E2D5C3" fill-rule="nonzero"></path>
            <path d="M977,623.5 L977,628.5 C977,630.4 975.449612,632 973.608527,632 L955.391473,632 C953.550388,632 952,630.4 952,628.5 L952,623.5 C952,621.6 953.550388,620 955.391473,620 L973.608527,620 C975.449612,620 977,621.6 977,623.5 Z" id="Path" fill="#E2D5C3" fill-rule="nonzero"></path>
            <path d="M597,630.5 L597,635.5 C597,637.4 595.449612,639 593.608527,639 L575.391473,639 C573.550388,639 572,637.4 572,635.5 L572,630.5 C572,628.6 573.550388,627 575.391473,627 L593.608527,627 C595.449612,627 597,628.6 597,630.5 Z" id="Path" fill="#E2D5C3" fill-rule="nonzero"></path>
            <path d="M1071,514.5 L1071,519.5 C1071,521.4 1069.44961,523 1067.60853,523 L1049.39147,523 C1047.55039,523 1046,521.4 1046,519.5 L1046,514.5 C1046,512.6 1047.55039,511 1049.39147,511 L1067.60853,511 C1069.44961,511 1071,512.6 1071,514.5 Z" id="Path" fill="#E2D5C3" fill-rule="nonzero"></path>
            <path d="M1207,469.5 L1207,474.5 C1207,476.4 1205.44961,478 1203.60853,478 L1185.39147,478 C1183.55039,478 1182,476.4 1182,474.5 L1182,469.5 C1182,467.6 1183.55039,466 1185.39147,466 L1203.60853,466 C1205.54651,466 1207,467.5 1207,469.5 Z" id="Path" fill="#F2E3D1" fill-rule="nonzero"></path>
            <path d="M1155,520.5 L1155,525.5 C1155,527.4 1153.44961,529 1151.60853,529 L1133.39147,529 C1131.55039,529 1130,527.4 1130,525.5 L1130,520.5 C1130,518.6 1131.55039,517 1133.39147,517 L1151.60853,517 C1153.54651,517 1155,518.6 1155,520.5 Z" id="Path" fill="#F2E3D1" fill-rule="nonzero"></path>
            <path d="M1173,578.5 L1173,583.5 C1173,585.4 1171.44961,587 1169.60853,587 L1151.39147,587 C1149.55039,587 1148,585.4 1148,583.5 L1148,578.5 C1148,576.6 1149.55039,575 1151.39147,575 L1169.60853,575 C1171.54651,575 1173,576.6 1173,578.5 Z" id="Path" fill="#F2E3D1" fill-rule="nonzero"></path>
            <path d="M1206,638.5 L1206,643.5 C1206,645.4 1204.44961,647 1202.60853,647 L1184.39147,647 C1182.55039,647 1181,645.4 1181,643.5 L1181,638.5 C1181,636.6 1182.55039,635 1184.39147,635 L1202.60853,635 C1204.54651,635 1206,636.6 1206,638.5 Z" id="Path" fill="#F2E3D1" fill-rule="nonzero"></path>
            <path d="M1188,675.5 L1188,680.5 C1188,682.4 1186.44961,684 1184.60853,684 L1166.39147,684 C1164.55039,684 1163,682.4 1163,680.5 L1163,675.5 C1163,673.6 1164.55039,672 1166.39147,672 L1184.60853,672 C1186.44961,672 1188,673.6 1188,675.5 Z" id="Path" fill="#F2E3D1" fill-rule="nonzero"></path>
            <path d="M1111,623.5 L1111,628.5 C1111,630.4 1109.44961,632 1107.60853,632 L1089.39147,632 C1087.55039,632 1086,630.4 1086,628.5 L1086,623.5 C1086,621.6 1087.55039,620 1089.39147,620 L1107.60853,620 C1109.54651,620 1111,621.6 1111,623.5 Z" id="Path" fill="#F2E3D1" fill-rule="nonzero"></path>
            <path d="M936,517.5 L936,522.5 C936,524.4 934.449612,526 932.608527,526 L914.391473,526 C912.550388,526 911,524.4 911,522.5 L911,517.5 C911,515.6 912.550388,514 914.391473,514 L932.608527,514 C934.449612,514 936,515.5 936,517.5 Z" id="Path" fill="#E2D5C3" fill-rule="nonzero"></path>
            <path d="M633,534.5 L633,539.5 C633,541.4 631.449612,543 629.608527,543 L611.391473,543 C609.550388,543 608,541.4 608,539.5 L608,534.5 C608,532.6 609.550388,531 611.391473,531 L629.608527,531 C631.449612,531 633,532.6 633,534.5 Z" id="Path" fill="#E2D5C3" fill-rule="nonzero"></path>
            <path d="M625,336.5 L625,341.5 C625,343.4 623.449612,345 621.608527,345 L603.391473,345 C601.550388,345 600,343.4 600,341.5 L600,336.5 C600,334.6 601.550388,333 603.391473,333 L621.608527,333 C623.449612,333 625,334.5 625,336.5 Z" id="Path" fill="#E2D5C3" fill-rule="nonzero"></path>
            <path d="M671,437.5 L671,442.5 C671,444.4 669.449612,446 667.608527,446 L649.391473,446 C647.550388,446 646,444.4 646,442.5 L646,437.5 C646,435.6 647.550388,434 649.391473,434 L667.608527,434 C669.546512,434 671,435.6 671,437.5 Z" id="Path" fill="#E2D5C3" fill-rule="nonzero"></path>
            <path d="M975,460.5 L975,465.5 C975,467.4 973.449612,469 971.608527,469 L953.391473,469 C951.550388,469 950,467.4 950,465.5 L950,460.5 C950,458.6 951.550388,457 953.391473,457 L971.608527,457 C973.449612,457 975,458.6 975,460.5 Z" id="Path" fill="#E2D5C3" fill-rule="nonzero"></path>
            <path d="M1040,578.5 L1040,583.5 C1040,585.4 1038.44961,587 1036.60853,587 L1018.39147,587 C1016.55039,587 1015,585.4 1015,583.5 L1015,578.5 C1015,576.6 1016.55039,575 1018.39147,575 L1036.60853,575 C1038.54651,575 1040,576.6 1040,578.5 Z" id="Path" fill="#E2D5C3" fill-rule="nonzero"></path>
            <path d="M1073,659.5 L1073,664.5 C1073,666.4 1071.44358,668 1069.59533,668 L1051.40467,668 C1049.55642,668 1048,666.4 1048,664.5 L1048,659.5 C1048,657.6 1049.55642,656 1051.40467,656 L1069.59533,656 C1071.44358,656 1073,657.6 1073,659.5 Z" id="Path" fill="#E2D5C3" fill-rule="nonzero"></path>
            <path d="M869.387097,571 L860.612903,571 C858.651613,571 857,569.417582 857,567.538462 L857,565.461538 C857,563.582418 858.651613,562 860.612903,562 L869.387097,562 C871.348387,562 873,563.582418 873,565.461538 L873,567.538462 C873,569.516484 871.348387,571 869.387097,571 Z" id="Path" fill="#FFF7EB" fill-rule="nonzero"></path>
            <path d="M804.387097,633 L795.612903,633 C793.651613,633 792,631.417582 792,629.538462 L792,627.461538 C792,625.582418 793.651613,624 795.612903,624 L804.387097,624 C806.348387,624 808,625.582418 808,627.461538 L808,629.538462 C808,631.417582 806.348387,633 804.387097,633 Z" id="Path" fill="#FFF7EB" fill-rule="nonzero"></path>
            <path d="M711.387097,651 L702.612903,651 C700.651613,651 699,649.417582 699,647.538462 L699,645.461538 C699,643.582418 700.651613,642 702.612903,642 L711.387097,642 C713.348387,642 715,643.582418 715,645.461538 L715,647.538462 C715,649.417582 713.348387,651 711.387097,651 Z" id="Path" fill="#FFF7EB" fill-rule="nonzero"></path>
            <path d="M311.387097,646 L302.612903,646 C300.651613,646 299,644.417582 299,642.538462 L299,640.461538 C299,638.582418 300.651613,637 302.612903,637 L311.387097,637 C313.348387,637 315,638.582418 315,640.461538 L315,642.538462 C315,644.516484 313.348387,646 311.387097,646 Z" id="Path" fill="#FFF7EB" fill-rule="nonzero"></path>
            <path d="M490.387097,688 L481.612903,688 C479.651613,688 478,686.417582 478,684.538462 L478,682.461538 C478,680.582418 479.651613,679 481.612903,679 L490.387097,679 C492.348387,679 494,680.582418 494,682.461538 L494,684.538462 C494,686.417582 492.348387,688 490.387097,688 Z" id="Path" fill="#FFF7EB" fill-rule="nonzero"></path>
            <path d="M429.387097,545 L420.612903,545 C418.651613,545 417,543.417582 417,541.538462 L417,539.461538 C417,537.582418 418.651613,536 420.612903,536 L429.387097,536 C431.348387,536 433,537.582418 433,539.461538 L433,541.538462 C433,543.417582 431.451613,545 429.387097,545 Z" id="Path" fill="#FFF7EB" fill-rule="nonzero"></path>
            <path d="M471.387097,378 L462.612903,378 C460.651613,378 459,376.417582 459,374.538462 L459,372.461538 C459,370.582418 460.651613,369 462.612903,369 L471.387097,369 C473.348387,369 475,370.582418 475,372.461538 L475,374.538462 C475,376.417582 473.348387,378 471.387097,378 Z" id="Path" fill="#FFF7EB" fill-rule="nonzero"></path>
            <path d="M343.387097,228 L334.612903,228 C332.651613,228 331,226.417582 331,224.538462 L331,222.461538 C331,220.582418 332.651613,219 334.612903,219 L343.387097,219 C345.348387,219 347,220.582418 347,222.461538 L347,224.538462 C347,226.417582 345.348387,228 343.387097,228 Z" id="Path" fill="#FFF7EB" fill-rule="nonzero"></path>
            <path d="M350.387097,243 L341.612903,243 C339.651613,243 338,241.417582 338,239.538462 L338,237.461538 C338,235.582418 339.651613,234 341.612903,234 L350.387097,234 C352.348387,234 354,235.582418 354,237.461538 L354,239.538462 C354,241.417582 352.451613,243 350.387097,243 Z" id="Path" fill="#FFF7EB" fill-rule="nonzero"></path>
            <path d="M724.387097,290 L715.612903,290 C713.651613,290 712,288.417582 712,286.538462 L712,284.461538 C712,282.582418 713.651613,281 715.612903,281 L724.387097,281 C726.348387,281 728,282.582418 728,284.461538 L728,286.538462 C728,288.417582 726.348387,290 724.387097,290 Z" id="Path" fill="#FFF7EB" fill-rule="nonzero"></path>
            <path d="M723.387097,363 L714.612903,363 C712.651613,363 711,361.417582 711,359.538462 L711,357.461538 C711,355.582418 712.651613,354 714.612903,354 L723.387097,354 C725.348387,354 727,355.582418 727,357.461538 L727,359.538462 C727,361.417582 725.451613,363 723.387097,363 Z" id="Path" fill="#FFF7EB" fill-rule="nonzero"></path>
            <path d="M356.387097,359 L347.612903,359 C345.651613,359 344,357.417582 344,355.538462 L344,353.461538 C344,351.582418 345.651613,350 347.612903,350 L356.387097,350 C358.348387,350 360,351.582418 360,353.461538 L360,355.538462 C360,357.417582 358.451613,359 356.387097,359 Z" id="Path" fill="#FFF7EB" fill-rule="nonzero"></path>
            <path d="M352.387097,417 L343.612903,417 C341.651613,417 340,415.417582 340,413.538462 L340,411.461538 C340,409.582418 341.651613,408 343.612903,408 L352.387097,408 C354.348387,408 356,409.582418 356,411.461538 L356,413.538462 C356,415.417582 354.348387,417 352.387097,417 Z" id="Path" fill="#FFF7EB" fill-rule="nonzero"></path>
            <path d="M299.387097,422 L290.612903,422 C288.651613,422 287,420.417582 287,418.538462 L287,416.461538 C287,414.582418 288.651613,413 290.612903,413 L299.387097,413 C301.348387,413 303,414.582418 303,416.461538 L303,418.538462 C303,420.417582 301.348387,422 299.387097,422 Z" id="Path" fill="#FFF7EB" fill-rule="nonzero"></path>
            <path d="M525.387097,342 L516.612903,342 C514.651613,342 513,340.417582 513,338.538462 L513,336.461538 C513,334.582418 514.651613,333 516.612903,333 L525.387097,333 C527.348387,333 529,334.582418 529,336.461538 L529,338.538462 C529,340.417582 527.451613,342 525.387097,342 Z" id="Path" fill="#FFF7EB" fill-rule="nonzero"></path>
            <path d="M1059.3871,509 L1050.6129,509 C1048.65161,509 1047,507.417582 1047,505.538462 L1047,503.461538 C1047,501.582418 1048.65161,500 1050.6129,500 L1059.3871,500 C1061.34839,500 1063,501.582418 1063,503.461538 L1063,505.538462 C1063,507.516484 1061.34839,509 1059.3871,509 Z" id="Path" fill="#E2D5C3" fill-rule="nonzero"></path>
            <path d="M1009.3871,587 L1000.6129,587 C998.651613,587 997,585.417582 997,583.538462 L997,581.461538 C997,579.582418 998.651613,578 1000.6129,578 L1009.3871,578 C1011.34839,578 1013,579.582418 1013,581.461538 L1013,583.538462 C1013,585.516484 1011.34839,587 1009.3871,587 Z" id="Path" fill="#E2D5C3" fill-rule="nonzero"></path>
            <path d="M647.387097,542 L638.612903,542 C636.651613,542 635,540.417582 635,538.538462 L635,536.461538 C635,534.582418 636.651613,533 638.612903,533 L647.387097,533 C649.348387,533 651,534.582418 651,536.461538 L651,538.538462 C651,540.417582 649.348387,542 647.387097,542 Z" id="Path" fill="#E2D5C3" fill-rule="nonzero"></path>
            <path d="M641.387097,394 L632.612903,394 C630.651613,394 629,392.417582 629,390.538462 L629,388.461538 C629,386.582418 630.651613,385 632.612903,385 L641.387097,385 C643.348387,385 645,386.582418 645,388.461538 L645,390.538462 C645,392.516484 643.348387,394 641.387097,394 Z" id="Path" fill="#E2D5C3" fill-rule="nonzero"></path>
            <path d="M643.387097,348 L634.612903,348 C632.651613,348 631,346.417582 631,344.538462 L631,342.461538 C631,340.582418 632.651613,339 634.612903,339 L643.387097,339 C645.348387,339 647,340.582418 647,342.461538 L647,344.538462 C647,346.417582 645.348387,348 643.387097,348 Z" id="Path" fill="#E2D5C3" fill-rule="nonzero"></path>
            <path d="M1205.3871,492 L1196.6129,492 C1194.65161,492 1193,490.417582 1193,488.538462 L1193,486.461538 C1193,484.582418 1194.65161,483 1196.6129,483 L1205.3871,483 C1207.34839,483 1209,484.582418 1209,486.461538 L1209,488.538462 C1209,490.516484 1207.34839,492 1205.3871,492 Z" id="Path" fill="#F2E3D1" fill-rule="nonzero"></path>
            <path d="M1168.3871,528 L1159.6129,528 C1157.65161,528 1156,526.417582 1156,524.538462 L1156,522.461538 C1156,520.582418 1157.65161,519 1159.6129,519 L1168.3871,519 C1170.34839,519 1172,520.582418 1172,522.461538 L1172,524.538462 C1172,526.417582 1170.34839,528 1168.3871,528 Z" id="Path" fill="#F2E3D1" fill-rule="nonzero"></path>
            <path d="M1204.3871,631 L1195.6129,631 C1193.65161,631 1192,629.417582 1192,627.538462 L1192,625.461538 C1192,623.582418 1193.65161,622 1195.6129,622 L1204.3871,622 C1206.34839,622 1208,623.582418 1208,625.461538 L1208,627.538462 C1208,629.417582 1206.45161,631 1204.3871,631 Z" id="Path" fill="#F2E3D1" fill-rule="nonzero"></path>
            <path d="M1099.3871,478 L1090.6129,478 C1088.65161,478 1087,476.417582 1087,474.538462 L1087,472.461538 C1087,470.582418 1088.65161,469 1090.6129,469 L1099.3871,469 C1101.34839,469 1103,470.582418 1103,472.461538 L1103,474.538462 C1103,476.516484 1101.34839,478 1099.3871,478 Z" id="Path" fill="#F2E3D1" fill-rule="nonzero"></path>
            <path d="M992.387097,629 L983.612903,629 C981.651613,629 980,627.417582 980,625.538462 L980,623.461538 C980,621.582418 981.651613,620 983.612903,620 L992.387097,620 C994.348387,620 996,621.582418 996,623.461538 L996,625.538462 C996,627.516484 994.451613,629 992.387097,629 Z" id="Path" fill="#E2D5C3" fill-rule="nonzero"></path>
            <path d="M680.387097,597 L671.612903,597 C669.651613,597 668,595.417582 668,593.538462 L668,591.461538 C668,589.582418 669.651613,588 671.612903,588 L680.387097,588 C682.348387,588 684,589.582418 684,591.461538 L684,593.538462 C684,595.417582 682.348387,597 680.387097,597 Z" id="Path" fill="#E2D5C3" fill-rule="nonzero"></path>
            <path d="M680.387097,678 L671.612903,678 C669.651613,678 668,676.417582 668,674.538462 L668,672.461538 C668,670.582418 669.651613,669 671.612903,669 L680.387097,669 C682.348387,669 684,670.582418 684,672.461538 L684,674.538462 C684,676.417582 682.348387,678 680.387097,678 Z" id="Path" fill="#E2D5C3" fill-rule="nonzero"></path>
            <path d="M584.387097,651 L575.612903,651 C573.651613,651 572,649.417582 572,647.538462 L572,645.461538 C572,643.582418 573.651613,642 575.612903,642 L584.387097,642 C586.348387,642 588,643.582418 588,645.461538 L588,647.538462 C588,649.417582 586.451613,651 584.387097,651 Z" id="Path" fill="#E2D5C3" fill-rule="nonzero"></path>
            <path d="M539.387097,541 L530.612903,541 C528.651613,541 527,539.417582 527,537.538462 L527,535.461538 C527,533.582418 528.651613,532 530.612903,532 L539.387097,532 C541.348387,532 543,533.582418 543,535.461538 L543,537.538462 C543,539.516484 541.348387,541 539.387097,541 Z" id="Path" fill="#E2D5C3" fill-rule="nonzero"></path>
            <path d="M1069.3871,654 L1060.6129,654 C1058.65161,654 1057,652.417582 1057,650.538462 L1057,648.461538 C1057,646.582418 1058.65161,645 1060.6129,645 L1069.3871,645 C1071.34839,645 1073,646.582418 1073,648.461538 L1073,650.538462 C1073,652.417582 1071.34839,654 1069.3871,654 Z" id="Path" fill="#E2D5C3" fill-rule="nonzero"></path>
            <path d="M973.486739,678 L964.611867,678 C962.651139,678 961,676.417582 961,674.538462 L961,672.461538 C961,670.582418 962.651139,669 964.611867,669 L973.383543,669 C975.344271,669 976.99541,670.582418 976.99541,672.461538 L976.99541,674.538462 C977.098606,676.417582 975.447467,678 973.486739,678 Z" id="Path" fill="#E2D5C3" fill-rule="nonzero"></path>
            <path d="M1067.3871,467 L1058.6129,467 C1056.65161,467 1055,465.417582 1055,463.538462 L1055,461.461538 C1055,459.582418 1056.65161,458 1058.6129,458 L1067.3871,458 C1069.34839,458 1071,459.582418 1071,461.461538 L1071,463.538462 C1071,465.516484 1069.34839,467 1067.3871,467 Z" id="Path" fill="#E2D5C3" fill-rule="nonzero"></path>
            <path d="M808.387097,526 L799.612903,526 C797.651613,526 796,524.417582 796,522.538462 L796,520.461538 C796,518.582418 797.651613,517 799.612903,517 L808.387097,517 C810.348387,517 812,518.582418 812,520.461538 L812,522.538462 C812,524.516484 810.348387,526 808.387097,526 Z" id="Path" fill="#FFF7EB" fill-rule="nonzero"></path>
            <path d="M725.608527,571 L707.391473,571 C705.550388,571 704,569.4 704,567.5 L704,562.5 C704,560.6 705.550388,559 707.391473,559 L725.608527,559 C727.449612,559 729,560.6 729,562.5 L729,567.5 C729,569.5 727.449612,571 725.608527,571 Z" id="Path" fill="#FFF7EB" fill-rule="nonzero"></path>
            <path d="M898,465.5 L898,470.5 C898,472.4 896.387597,474 894.472868,474 L885,474 L885,462 L894.472868,462 C896.387597,462 898,463.5 898,465.5 Z" id="Path" fill="#E2D5C3" fill-rule="nonzero"></path>
            <path d="M509,630.5 L509,635.5 C509,637.4 507.449612,639 505.608527,639 L487.391473,639 C485.550388,639 484,637.4 484,635.5 L484,630.5 C484,628.6 485.550388,627 487.391473,627 L505.608527,627 C507.449612,627 509,628.6 509,630.5 Z" id="Path" fill="#FFF7EB" fill-rule="nonzero"></path>
            <path d="M509,630.5 L509,635.5 C509,637.4 507.387597,639 505.472868,639 L496,639 L496,627 L505.472868,627 C507.387597,627 509,628.6 509,630.5 Z" id="Path" fill="#E2D5C3" fill-rule="nonzero"></path>
            <path d="M898,629.5 L898,634.5 C898,636.4 896.44358,638 894.595331,638 L876.404669,638 C874.55642,638 873,636.4 873,634.5 L873,629.5 C873,627.6 874.55642,626 876.404669,626 L894.692607,626 C896.44358,626 898,627.6 898,629.5 Z" id="Path" fill="#FFF7EB" fill-rule="nonzero"></path>
            <path d="M898,629.5 L898,634.5 C898,636.4 896.387597,638 894.472868,638 L885,638 L885,626 L894.472868,626 C896.387597,626 898,627.6 898,629.5 Z" id="Path" fill="#E2D5C3" fill-rule="nonzero"></path>
            <g id="Group" transform="translate(738.000000, 483.000000)" stroke="#FFFFFF" stroke-linecap="round" stroke-linejoin="round" stroke-width="3">
                <path d="M12.1463307,0.192 L12.1463307,23.52" id="Path"></path>
                <path d="M0.0587975243,11.904 L24.137931,11.904" id="Path"></path>
            </g>
            <g id="Group" transform="translate(738.000000, 534.000000)" stroke="#FFFFFF" stroke-linecap="round" stroke-linejoin="round" stroke-width="3">
                <path d="M12.1463307,0.576 L12.1463307,23.904" id="Path"></path>
                <path d="M0.0587975243,12.192 L24.137931,12.192" id="Path"></path>
            </g>
            <g id="Group" transform="translate(782.000000, 483.000000)" stroke="#FFFFFF" stroke-linecap="round" stroke-linejoin="round" stroke-width="3">
                <path d="M12.4038462,0.192 L12.4038462,23.52" id="Path"></path>
                <path d="M0.288461538,11.904 L24.4230769,11.904" id="Path"></path>
            </g>
            <g id="Group" transform="translate(782.000000, 534.000000)" stroke="#FFFFFF" stroke-linecap="round" stroke-linejoin="round" stroke-width="3">
                <path d="M12.4038462,0.576 L12.4038462,23.904" id="Path"></path>
                <path d="M0.288461538,12.192 L24.4230769,12.192" id="Path"></path>
            </g>
            <g id="Group" transform="translate(825.000000, 483.000000)" stroke="#FFFFFF" stroke-linecap="round" stroke-linejoin="round" stroke-width="3">
                <path d="M12.7884615,0.192 L12.7884615,23.52" id="Path"></path>
                <path d="M0.769230769,11.904 L24.8076923,11.904" id="Path"></path>
            </g>
            <g id="Group" transform="translate(825.000000, 534.000000)" stroke="#FFFFFF" stroke-linecap="round" stroke-linejoin="round" stroke-width="3">
                <path d="M12.7884615,0.576 L12.7884615,23.904" id="Path"></path>
                <path d="M0.769230769,12.192 L24.8076923,12.192" id="Path"></path>
            </g>
            <g id="Group" transform="translate(886.000000, 483.000000)" stroke="#E5DACC" stroke-linecap="round" stroke-linejoin="round" stroke-width="3">
                <path d="M12.6923077,0.192 L12.6923077,23.52" id="Path"></path>
                <path d="M0.673076923,11.904 L24.7115385,11.904" id="Path"></path>
            </g>
            <g id="Group" transform="translate(886.000000, 534.000000)" stroke="#E5DACC" stroke-linecap="round" stroke-linejoin="round" stroke-width="3">
                <path d="M12.6923077,0.576 L12.6923077,23.904" id="Path"></path>
                <path d="M0.673076923,12.192 L24.7115385,12.192" id="Path"></path>
            </g>
            <g id="Group" transform="translate(929.000000, 483.000000)" stroke="#E5DACC" stroke-linecap="round" stroke-linejoin="round" stroke-width="3">
                <path d="M12.4038462,0.192 L12.4038462,23.52" id="Path"></path>
                <path d="M0.288461538,11.904 L24.4230769,11.904" id="Path"></path>
            </g>
            <g id="Group" transform="translate(929.000000, 534.000000)" stroke="#E5DACC" stroke-linecap="round" stroke-linejoin="round" stroke-width="3">
                <path d="M12.4038462,0.576 L12.4038462,23.904" id="Path"></path>
                <path d="M0.288461538,12.192 L24.4230769,12.192" id="Path"></path>
            </g>
            <g id="Group" transform="translate(973.000000, 483.000000)" stroke="#E5DACC" stroke-linecap="round" stroke-linejoin="round" stroke-width="3">
                <path d="M12,0.192 L12,23.52" id="Path"></path>
                <path d="M0,11.904 L24,11.904" id="Path"></path>
            </g>
            <g id="Group" transform="translate(973.000000, 534.000000)" stroke="#E5DACC" stroke-linecap="round" stroke-linejoin="round" stroke-width="3">
                <path d="M12,0.576 L12,23.904" id="Path"></path>
                <path d="M0,12.192 L24,12.192" id="Path"></path>
            </g>
            <g id="Group" transform="translate(1016.000000, 483.000000)" stroke="#E5DACC" stroke-linecap="round" stroke-linejoin="round" stroke-width="3">
                <path d="M12.6923077,0.192 L12.6923077,23.52" id="Path"></path>
                <path d="M0.576923077,11.904 L24.7115385,11.904" id="Path"></path>
            </g>
            <g id="Group" transform="translate(1016.000000, 534.000000)" stroke="#E5DACC" stroke-linecap="round" stroke-linejoin="round" stroke-width="3">
                <path d="M12.6923077,0.576 L12.6923077,23.904" id="Path"></path>
                <path d="M0.576923077,12.192 L24.7115385,12.192" id="Path"></path>
            </g>
            <g id="Group" transform="translate(1101.000000, 484.000000)" stroke="#E5DACC" stroke-linecap="round" stroke-linejoin="round" stroke-width="3">
                <path d="M12.1153846,0.192 L12.1153846,23.52" id="Path"></path>
                <path d="M0.0961538462,11.904 L24.2307692,11.904" id="Path"></path>
            </g>
            <g id="Group" transform="translate(1101.000000, 535.000000)" stroke="#E5DACC" stroke-linecap="round" stroke-linejoin="round" stroke-width="3">
                <path d="M12.1153846,0.576 L12.1153846,23.904" id="Path"></path>
                <path d="M0.0961538462,12.192 L24.2307692,12.192" id="Path"></path>
            </g>
            <g id="Group" transform="translate(1144.000000, 484.000000)" stroke="#E5DACC" stroke-linecap="round" stroke-linejoin="round" stroke-width="3">
                <path d="M12.5,0.192 L12.5,23.52" id="Path"></path>
                <path d="M0.480769231,11.904 L24.6153846,11.904" id="Path"></path>
            </g>
            <g id="Group" transform="translate(1144.000000, 535.000000)" stroke="#E5DACC" stroke-linecap="round" stroke-linejoin="round" stroke-width="3">
                <path d="M12.5,0.576 L12.5,23.904" id="Path"></path>
                <path d="M0.480769231,12.192 L24.6153846,12.192" id="Path"></path>
            </g>
            <path d="M682,503.342995 L682,516 L497,516 L497,450.009662 C497.291798,450.009662 497.583596,450.009662 497.97266,450.009662 C517.6204,450.009662 533.961094,463.729469 538.046267,481.990338 L538.046267,443.729469 C538.240799,435.516908 544.952156,428.94686 553.219769,428.94686 C559.055731,428.94686 564.113565,432.231884 566.642482,437.062802 L566.642482,430.879227 C566.837014,422.666667 573.54837,416 581.913249,416 C590.278128,416 596.989485,422.570048 597.184017,430.879227 L597.184017,437.835749 C599.615668,432.618357 604.868034,428.94686 611.09306,428.94686 C619.360673,428.94686 626.169295,435.516908 626.266562,443.729469 L626.266562,484.21256 C629.087277,476 636.965825,470.009662 646.206099,470.009662 C657.586225,470.009662 666.826498,478.995169 667.215563,490.202899 L668.674553,490.202899 C676.066772,490.202899 682,496.096618 682,503.342995 Z" id="Path" fill="#C9A67D" fill-rule="nonzero"></path>
            <path d="M398.5,445 C399.1,447.592988 399.6,450.282012 400,452.875 L400,460.75 L400,476.5 L400,492.25 L400,500.125 C399.5,502.717988 399.1,505.407012 398.5,508 C397.9,505.407012 397.5,502.717988 397,500.125 L397,492.25 L397,476.5 L397,460.75 L397,452.875 C397.4,450.185976 397.8,447.592988 398.5,445 Z" id="Path" fill="#EAE5E1" fill-rule="nonzero"></path>
            <path d="M367.5,487 C368.1,487.866972 368.6,488.733945 369,489.600917 C369,490.46789 369,491.334862 369,492.201835 L369,497.5 L369,502.798165 L369,505.399083 C368.5,506.266055 368.1,507.133028 367.5,508 C366.9,507.133028 366.5,506.266055 366,505.399083 L366,502.798165 L366,497.5 L366,492.201835 C366,491.334862 366,490.46789 366,489.600917 C366.4,488.733945 366.8,487.866972 367.5,487 Z" id="Path" fill="#EAE5E1" fill-rule="nonzero"></path>
            <path d="M457.5,487 C458.1,487.866972 458.6,488.733945 459,489.600917 C459,490.46789 459,491.334862 459,492.201835 L459,497.5 L459,502.798165 L459,505.399083 C458.5,506.266055 458.1,507.133028 457.5,508 C456.9,507.133028 456.5,506.266055 456,505.399083 L456,502.798165 L456,497.5 L456,492.201835 C456,491.334862 456,490.46789 456,489.600917 C456.5,488.733945 456.9,487.866972 457.5,487 Z" id="Path" fill="#EAE5E1" fill-rule="nonzero"></path>
            <path d="M537.5,487 C538.1,487.866972 538.6,488.733945 539,489.600917 C539,490.46789 539,491.334862 539,492.201835 L539,497.5 L539,502.798165 L539,505.399083 C538.5,506.266055 538.1,507.133028 537.5,508 C536.9,507.133028 536.5,506.266055 536,505.399083 L536,502.798165 L536,497.5 L536,492.201835 C536,491.334862 536,490.46789 536,489.600917 C536.4,488.733945 536.8,487.866972 537.5,487 Z" id="Path" fill="#EAE5E1" fill-rule="nonzero"></path>
            <path d="M625.5,487 C626.1,487.866972 626.6,488.733945 627,489.600917 C627,490.46789 627,491.334862 627,492.201835 L627,497.5 L627,502.798165 L627,505.399083 C626.5,506.266055 626.1,507.133028 625.5,508 C624.9,507.133028 624.5,506.266055 624,505.399083 L624,502.798165 L624,497.5 L624,492.201835 C624,491.334862 624,490.46789 624,489.600917 C624.4,488.733945 624.8,487.866972 625.5,487 Z" id="Path" fill="#EAE5E1" fill-rule="nonzero"></path>
            <path d="M428.5,445 C429.1,447.592988 429.6,450.282012 430,452.875 L430,460.75 L430,476.5 L430,492.25 L430,500.125 C429.5,502.717988 429.1,505.407012 428.5,508 C427.9,505.407012 427.5,502.717988 427,500.125 L427,492.25 L427,476.5 L427,460.75 L427,452.875 C427.4,450.185976 427.8,447.592988 428.5,445 Z" id="Path" fill="#EAE5E1" fill-rule="nonzero"></path>
            <path d="M567.5,445 C568.1,447.592988 568.6,450.282012 569,452.875 L569,460.75 L569,476.5 L569,492.25 L569,500.125 C568.5,502.717988 568.1,505.407012 567.5,508 C566.9,505.407012 566.5,502.717988 566,500.125 L566,492.25 L566,476.5 L566,460.75 L566,452.875 C566.4,450.185976 566.8,447.592988 567.5,445 Z" id="Path" fill="#EAE5E1" fill-rule="nonzero"></path>
            <path d="M597.5,445 C598.1,447.592988 598.6,450.282012 599,452.875 L599,460.75 L599,476.5 L599,492.25 L599,500.125 C598.5,502.717988 598.1,505.407012 597.5,508 C596.9,505.407012 596.5,502.717988 596,500.125 L596,492.25 L596,476.5 L596,460.75 L596,452.875 C596.4,450.185976 596.8,447.592988 597.5,445 Z" id="Path" fill="#EAE5E1" fill-rule="nonzero"></path>
            <rect id="Rectangle" fill="#56514F" fill-rule="nonzero" x="194" y="697" width="1110" height="41"></rect>
            <rect id="Rectangle" fill="#353231" fill-rule="nonzero" x="194" y="718" width="1110" height="20"></rect>
            <g id="Group" transform="translate(353.000000, 144.000000)" stroke="#F7F4F0" stroke-linecap="round" stroke-linejoin="round" stroke-width="2">
                <path d="M1.90909091,33.9456522 L6.09090909,0.293478261" id="Path"></path>
                <path d="M0.545454545,44.6086957 L1.45454545,37.3695652" id="Path"></path>
                <path d="M8.90909091,12.7173913 L9.36363636,8.31521739" id="Path"></path>
                <path d="M6,43.3369565 L8.63636364,17.1195652" id="Path"></path>
            </g>
            <g id="Group" transform="translate(724.000000, 144.000000)" stroke="#F7F4F0" stroke-linecap="round" stroke-linejoin="round" stroke-width="2">
                <path d="M1.63636364,33.9456522 L5.81818182,0.293478261" id="Path"></path>
                <path d="M0.272727273,44.6086957 L1.18181818,37.3695652" id="Path"></path>
                <path d="M8.63636364,12.7173913 L9.09090909,8.31521739" id="Path"></path>
                <path d="M5.72727273,43.3369565 L8.45454545,17.1195652" id="Path"></path>
            </g>
            <path d="M797,201 L797,293.774312 C797,301.06789 791.035055,307 783.701107,307 L744,307 L744,201 L797,201 Z" id="Path" fill="#AF946D" fill-rule="nonzero"></path>
            <path d="M731.097744,287 L757,287 L757,229.912621 C757,222.825243 751.233083,217 744,217 L744,217 C736.864662,217 731,222.728155 731,229.912621 L731,287 L731.097744,287 Z" id="Path" fill="#3A3531" fill-rule="nonzero"></path>
            <rect id="Rectangle" fill="#AF946D" fill-rule="nonzero" x="375" y="201" width="53" height="106"></rect>
            <path d="M387.902256,287 L362,287 L362,229.912621 C362,222.825243 367.766917,217 375,217 L375,217 C382.135338,217 388,222.728155 388,229.912621 L388,287 L387.902256,287 Z" id="Path" fill="#3A3531" fill-rule="nonzero"></path>
            <path d="M413.387097,228 L404.612903,228 C402.651613,228 401,226.417582 401,224.538462 L401,222.461538 C401,220.582418 402.651613,219 404.612903,219 L413.387097,219 C415.348387,219 417,220.582418 417,222.461538 L417,224.538462 C417,226.417582 415.348387,228 413.387097,228 Z" id="Path" fill="#E2D5C3" fill-rule="nonzero"></path>
            <path d="M774.387097,220 L765.612903,220 C763.651613,220 762,218.417582 762,216.538462 L762,214.461538 C762,212.582418 763.651613,211 765.612903,211 L774.387097,211 C776.348387,211 778,212.582418 778,214.461538 L778,216.538462 C778,218.417582 776.348387,220 774.387097,220 Z" id="Path" fill="#E2D5C3" fill-rule="nonzero"></path>
            <path d="M800.387097,290 L791.612903,290 C789.651613,290 788,288.417582 788,286.538462 L788,284.461538 C788,282.582418 789.651613,281 791.612903,281 L800.387097,281 C802.348387,281 804,282.582418 804,284.461538 L804,286.538462 C804,288.516484 802.451613,290 800.387097,290 Z" id="Path" fill="#E2D5C3" fill-rule="nonzero"></path>
            <path d="M422,284.5 L422,289.5 C422,291.4 420.449612,293 418.608527,293 L400.391473,293 C398.550388,293 397,291.4 397,289.5 L397,284.5 C397,282.6 398.550388,281 400.391473,281 L418.608527,281 C420.449612,281 422,282.6 422,284.5 Z" id="Path" fill="#E2D5C3" fill-rule="nonzero"></path>
            <path d="M344,288.5 L344,293.5 C344,295.4 342.449612,297 340.608527,297 L322.391473,297 C320.550388,297 319,295.4 319,293.5 L319,288.5 C319,286.6 320.550388,285 322.391473,285 L340.608527,285 C342.449612,285 344,286.6 344,288.5 Z" id="Path" fill="#E2D5C3" fill-rule="nonzero"></path>
            <path d="M776,347.5 L776,352.5 C776,354.4 774.449612,356 772.608527,356 L754.391473,356 C752.550388,356 751,354.4 751,352.5 L751,347.5 C751,345.6 752.550388,344 754.391473,344 L772.608527,344 C774.449612,344 776,345.5 776,347.5 Z" id="Path" fill="#E2D5C3" fill-rule="nonzero"></path>
            <path d="M792,226.5 L792,231.5 C792,233.4 790.449612,235 788.608527,235 L770.391473,235 C768.550388,235 767,233.4 767,231.5 L767,226.5 C767,224.6 768.550388,223 770.391473,223 L788.608527,223 C790.449612,223 792,224.6 792,226.5 Z" id="Path" fill="#E2D5C3" fill-rule="nonzero"></path>
            <path d="M805,269.5 L805,274.5 C805,276.4 803.449612,278 801.608527,278 L783.391473,278 C781.550388,278 780,276.4 780,274.5 L780,269.5 C780,267.6 781.550388,266 783.391473,266 L801.608527,266 C803.546512,266 805,267.6 805,269.5 Z" id="Path" fill="#E2D5C3" fill-rule="nonzero"></path>
            <path d="M1271.34741,165 C1279.49852,165 1286,171.529801 1286,179.5 L1286,179.5 C1286,187.566225 1279.40148,194 1271.34741,194 L1038.65259,194 C1030.50148,194 1024,187.470199 1024,179.5 L1024,179.5 C1024,171.433775 1030.59852,165 1038.65259,165" id="Path" fill="#FFFFFF" fill-rule="nonzero"></path>
            <path d="M1486,361 L1360.60954,361 C1352.48238,361 1346,354.470199 1346,346.5 L1346,346.5 C1346,338.433775 1352.57913,332 1360.60954,332 L1486,332 L1486,361 Z" id="Path" fill="#FFFFFF" fill-rule="nonzero"></path>
            <path d="M1399.13598,305 L1272.86402,305 C1269.63881,305 1267,302.3 1267,299 L1267,299 C1267,295.7 1269.63881,293 1272.86402,293 L1399.13598,293 C1402.36119,293 1405,295.7 1405,299 L1405,299 C1405,302.3 1402.36119,305 1399.13598,305 Z" id="Path" fill="#FFFFFF" fill-rule="nonzero"></path>
            <path d="M1229.25108,221 L1124.8437,221 C1121.62966,221 1119,218.3 1119,215 L1119,215 C1119,211.7 1121.62966,209 1124.8437,209 L1229.15368,209 C1232.36772,209 1234.99738,211.7 1234.99738,215 L1234.99738,215 C1235.09477,218.4 1232.46511,221 1229.25108,221 Z" id="Path" fill="#FFFFFF" fill-rule="nonzero"></path>
            <path d="M57.1846154,194 L0,194 L0,206 L57.1846154,206 C60.3830769,206 63,203.3 63,200 C63,196.6 60.3830769,194 57.1846154,194 Z" id="Path" fill="#FFFFFF" fill-rule="nonzero"></path>
            <path d="M86.3768546,276 L0,276 L0,305 L86.3768546,305 C94.5109979,305 100.998945,298.491749 100.998945,290.547855 C101.095781,282.412541 94.5109979,276 86.3768546,276 Z" id="Path" fill="#FFFFFF" fill-rule="nonzero"></path>
        </g>
    </g>
</svg>