<?xml version="1.0" encoding="utf-8"?>
<!-- Generator: Adobe Illustrator 18.1.1, SVG Export Plug-In . SVG Version: 6.00 Build 0)  -->
<svg version="1.1" id="Vrstva_1" xmlns:sketch="http://www.bohemiancoding.com/sketch/ns"
	 xmlns="http://www.w3.org/2000/svg" xmlns:xlink="http://www.w3.org/1999/xlink" x="0px" y="0px" viewBox="-182 175.7 385 442.3"
	 enable-background="new -182 175.7 385 442.3" xml:space="preserve">
<title>NodeSchool London</title>
<desc>Created with Sketch.</desc>
<g>
	<path id="Shape_42_" fill="#D0021B" d="M199.6,283.8L14,176.7c-2.1-1.2-4.7-1.2-6.8,0l-185.6,107.1c-2.1,1.2-3.4,3.5-3.4,5.9V504
		c0,2.4,1.3,4.7,3.4,5.9L7.2,617c1.1,0.6,2.2,0.9,3.4,0.9s2.4-0.3,3.4-0.9l185.6-107.1c2.1-1.2,3.4-3.5,3.4-5.9V289.7
		C203,287.3,201.7,285,199.6,283.8L199.6,283.8z"/>
	<path id="Shape_41_" fill="#FFFFFF" d="M188.2,499.8L10.8,602.3l-177.5-102.5v-205L10.8,192.3l177.4,102.5V499.8z"/>
	<path id="Rectangle-5_3_" fill="#FFFFFF" stroke="#D0021B" stroke-width="4" d="M-96.8,289.4l-3.9,38.6h22.5l-4.5-38.6H-96.8z"/>
	<path fill="#D0021B" d="M126.2,431.9c-1.3,13-2.5,25.3-3.8,37.6c-0.1,1.1-0.5,2.4-1.8,1.5c-2.9-2.2-6.2-1.1-9.2-1.3
		c-4.1-0.2-8.1,0-12.2-0.1c-3.5,0-4.9,0-4.2-5.1c0.6-4.2,0.7-9,0.8-13.6c0.1-6.2,0.7-12.4,1.9-18.4c1.5-8,5.3-14.9,11.1-20.7
		c1.7-1.7,2.5-4.8,5.1-4.8c2.7,0,3.2,3.4,4.9,5C124.7,417.5,124.6,425.3,126.2,431.9z M99.9,451.9c0,3.9,0.1,7.3,0,10.6
		c-0.2,3.2,1.1,4.3,4.3,4.2c3.9-0.2,8-0.7,11.7,0.2c4.2,1,4.3-0.9,4.4-3.9c0.3-8.9,0-17.8,1.2-26.6c1.3-8.8-2.2-15.9-5.7-23.2
		c-0.9-1.8-3.1-2.7-4.5-0.4c-2.8,4.6-6.6,8.4-8.2,13.8C100.5,435,99.6,443.6,99.9,451.9z"/>
	<path id="Shape_40_" fill="#D0021B" d="M87.4,543.5c-0.5-0.9-1.7-1.2-2.5-0.7l-66.3,38.3l28.2-36c0.6-0.8,0.5-2-0.3-2.6
		c-0.8-0.6-2-0.5-2.6,0.3l-30.8,39.3v-38.4c0-1-0.8-1.9-1.9-1.9c-1.1,0-1.9,0.8-1.9,1.9v38.4l-30.8-39.3c-0.6-0.8-1.8-0.9-2.6-0.3
		c-0.8,0.6-0.9,1.8-0.3,2.6l28.2,36l-67.6-39c-0.9-0.5-2-0.2-2.5,0.7c-0.5,0.9-0.2,2,0.7,2.5l75.9,43.8h0.1c0.1,0,0.1,0.1,0.2,0.1
		h0.1h0.1h0.1c0.1,0,0.3,0.1,0.4,0.1l0,0l0,0c0.2,0,0.3,0,0.4-0.1h0.1h0.1c0.1,0,0.1-0.1,0.2-0.1h0.1L86.9,546
		C87.6,545.6,87.9,544.4,87.4,543.5L87.4,543.5z"/>
	<circle id="Oval_3_" fill="#D0021B" cx="11.2" cy="533.3" r="2.3"/>
	<path id="Shape_39_" fill="#D0021B" d="M87.5,252.5l-75.9-43.8l0,0c-0.1-0.1-0.2-0.1-0.3-0.1l0,0h-0.1h-0.1h-0.3c0,0,0,0-0.1,0
		h-0.1h-0.4l0,0c-0.1,0-0.2,0.1-0.3,0.1l0,0l-74.7,43.1c-0.9,0.5-1.2,1.6-0.7,2.5c0.5,0.9,1.7,1.2,2.5,0.7l66.4-38.3l-28.2,36
		c-0.6,0.8-0.5,2,0.3,2.6c0.8,0.6,2,0.5,2.6-0.3l30.8-39.3v38.4c0,1,0.8,1.9,1.9,1.9c1.1,0,1.9-0.8,1.9-1.9v-38.4L43.5,255
		c0.4,0.5,0.9,0.7,1.5,0.7c0.4,0,0.8-0.1,1.1-0.4c0.8-0.6,0.9-1.8,0.3-2.6l-28.2-36l67.6,39c0.3,0.2,0.6,0.2,0.9,0.2
		c0.6,0,1.3-0.3,1.6-0.9C88.7,254.2,88.4,253,87.5,252.5L87.5,252.5z"/>
	<g>
		<path fill="#D0021B" d="M-68.5,527.7v3.3h5v-3.3c0-0.5,0.1-0.8,0.3-1.1s0.5-0.4,0.8-0.4c0.3,0,0.6,0.1,0.8,0.3s0.3,0.6,0.3,1.1v9
			c0,0.5-0.1,0.8-0.3,1.1s-0.5,0.4-0.8,0.4c-0.3,0-0.6-0.1-0.8-0.4s-0.3-0.6-0.3-1.1v-3.9h-5v3.9c0,0.5-0.1,0.8-0.3,1.1
			s-0.5,0.4-0.8,0.4c-0.3,0-0.6-0.1-0.8-0.4s-0.3-0.6-0.3-1.1v-9c0-0.5,0.1-0.8,0.3-1.1s0.5-0.4,0.8-0.4c0.3,0,0.6,0.1,0.8,0.3
			S-68.5,527.3-68.5,527.7z"/>
	</g>
	<g>
		<path fill="#D0021B" d="M-24.7,527.7v4l4.6-4.8c0.2-0.2,0.4-0.4,0.6-0.5s0.4-0.2,0.6-0.2c0.3,0,0.6,0.1,0.8,0.3s0.3,0.4,0.3,0.7
			c0,0.3-0.2,0.7-0.5,1l-2.8,2.7l3.3,4.7c0.2,0.3,0.4,0.6,0.5,0.8s0.2,0.5,0.2,0.7c0,0.3-0.1,0.5-0.3,0.7s-0.5,0.3-0.8,0.3
			c-0.3,0-0.6-0.1-0.8-0.2s-0.4-0.3-0.5-0.6s-0.3-0.4-0.4-0.6l-2.7-4.2l-1.9,1.8v2.4c0,0.5-0.1,0.8-0.3,1.1s-0.5,0.3-0.8,0.3
			c-0.2,0-0.4-0.1-0.6-0.2s-0.3-0.2-0.4-0.4c-0.1-0.1-0.1-0.3-0.1-0.5s0-0.5,0-0.8v-8.5c0-0.5,0.1-0.8,0.3-1.1s0.5-0.4,0.8-0.4
			c0.3,0,0.6,0.1,0.8,0.3S-24.7,527.3-24.7,527.7z"/>
	</g>
	<g>
		<path fill="#D0021B" d="M51.9,534.4c0,0.4-0.1,0.8-0.3,1.2s-0.5,0.8-0.8,1.3s-0.9,0.7-1.5,1s-1.3,0.4-2.1,0.4
			c-0.6,0-1.2-0.1-1.6-0.2s-0.9-0.3-1.3-0.5s-0.8-0.6-1.1-1c-0.3-0.4-0.6-0.8-0.8-1.2s-0.4-0.9-0.5-1.4s-0.2-1-0.2-1.6
			c0-0.9,0.1-1.7,0.4-2.5s0.7-1.4,1.2-1.9s1.1-0.9,1.8-1.2s1.4-0.4,2.1-0.4c0.9,0,1.8,0.2,2.5,0.6s1.3,0.8,1.7,1.4s0.6,1.1,0.6,1.5
			c0,0.3-0.1,0.5-0.3,0.7s-0.4,0.3-0.7,0.3c-0.3,0-0.5-0.1-0.7-0.2s-0.3-0.4-0.5-0.7c-0.3-0.6-0.7-1-1.1-1.3s-0.9-0.4-1.5-0.4
			c-1,0-1.7,0.4-2.3,1.1s-0.8,1.8-0.8,3.1c0,0.9,0.1,1.6,0.4,2.2s0.6,1,1.1,1.3s1,0.4,1.6,0.4c0.7,0,1.2-0.2,1.7-0.5s0.8-0.8,1-1.5
			c0.1-0.3,0.2-0.5,0.4-0.7s0.4-0.3,0.7-0.3c0.3,0,0.5,0.1,0.7,0.3S51.9,534.1,51.9,534.4z"/>
	</g>
	<g>
		<path fill="#D0021B" d="M85.1,535.3l5.9-7h-5.1c-0.4,0-0.6-0.1-0.8-0.2s-0.3-0.4-0.3-0.6c0-0.3,0.1-0.5,0.3-0.6s0.4-0.2,0.8-0.2
			h6.5c0.8,0,1.3,0.4,1.3,1.2c0,0.4-0.1,0.7-0.2,0.9s-0.4,0.6-0.9,1.1l-5.5,6.5h6.1c0.4,0,0.6,0.1,0.8,0.2s0.3,0.4,0.3,0.6
			c0,0.3-0.1,0.5-0.3,0.7s-0.4,0.2-0.8,0.2h-7.4c-0.5,0-0.9-0.1-1.1-0.3s-0.4-0.5-0.4-0.9c0-0.1,0-0.3,0.1-0.4s0.1-0.2,0.2-0.3
			s0.2-0.2,0.3-0.4S85,535.4,85.1,535.3z"/>
	</g>
	<line fill="#FF9CA6" stroke="#D0021B" stroke-width="3.5" stroke-linecap="round" x1="-76.5" y1="449.8" x2="-47.4" y2="500.2"/>
	<line fill="none" stroke="#D0021B" stroke-width="3.5" stroke-linecap="round" x1="-77.6" y1="449.8" x2="-106.4" y2="499.7"/>
	<line fill="#FF9CA6" stroke="#D0021B" stroke-width="3.5" stroke-linecap="round" x1="157.5" y1="449.1" x2="191.1" y2="507.3"/>
	<line fill="#FF9CA6" stroke="#D0021B" stroke-width="3.5" stroke-linecap="round" x1="-77.6" y1="449.1" x2="156.7" y2="449.1"/>
	<line fill="none" stroke="#D0021B" stroke-width="3.5" stroke-linecap="round" x1="-9.7" y1="396.5" x2="-9.7" y2="448.4"/>
	<line fill="none" stroke="#D0021B" stroke-width="3.5" stroke-linecap="round" x1="56.5" y1="396.5" x2="56.5" y2="448.4"/>
	<line fill="#FF9CA6" stroke="#D0021B" stroke-width="3.5" stroke-linecap="round" x1="-16.4" y1="396.5" x2="61.9" y2="396.5"/>
	<line fill="#FF9CA6" stroke="#D0021B" stroke-width="3.5" stroke-linecap="round" x1="72.7" y1="396.5" x2="153" y2="396.5"/>
	<line fill="none" stroke="#D0021B" stroke-width="3.5" stroke-linecap="round" x1="12.1" y1="312.8" x2="-2.3" y2="394.5"/>
	<line fill="none" stroke="#D0021B" stroke-width="3.5" stroke-linecap="round" x1="33.8" y1="312.1" x2="48.3" y2="393.8"/>
	<line fill="#FF9CA6" stroke="#D0021B" stroke-width="3.5" stroke-linecap="round" x1="12.1" y1="312.1" x2="33.8" y2="312.1"/>
	<line fill="none" stroke="#D0021B" stroke-width="3" stroke-linecap="round" x1="-8.8" y1="360.8" x2="-14.9" y2="394.9"/>
	<line fill="none" stroke="#D0021B" stroke-width="3" stroke-linecap="round" x1="-8.8" y1="360.7" x2="-2.8" y2="394.9"/>
	<line fill="none" stroke="#D0021B" stroke-width="3" stroke-linecap="round" x1="54.3" y1="360.8" x2="48.3" y2="394.9"/>
	<line fill="none" stroke="#D0021B" stroke-width="3" stroke-linecap="round" x1="54.3" y1="360.7" x2="60.3" y2="394.9"/>
	<line fill="none" stroke="#D0021B" stroke-width="2" stroke-linecap="round" x1="-8.8" y1="344.4" x2="-8.8" y2="360.6"/>
	<line fill="none" stroke="#D0021B" stroke-width="2.5" stroke-linecap="round" x1="-89.6" y1="259" x2="-89.6" y2="277.8"/>
	<circle fill="#D0021B" cx="-89.6" cy="267.5" r="3.5"/>
	<line fill="none" stroke="#D0021B" stroke-width="3.5" stroke-linecap="round" x1="-125.3" y1="389.3" x2="-125.3" y2="500"/>
	<line fill="none" stroke="#D0021B" stroke-width="3.5" stroke-linecap="round" x1="-52.8" y1="389.3" x2="-52.8" y2="448.4"/>
	<line fill="#FF9CA6" stroke="#D0021B" stroke-width="3.5" stroke-linecap="round" x1="-128.2" y1="438" x2="-50.6" y2="438"/>
	<line fill="#FF9CA6" stroke="#D0021B" stroke-width="3.5" stroke-linecap="round" x1="-128.2" y1="388.9" x2="-50.6" y2="388.9"/>
	<ellipse id="Oval-4_3_" fill="#FFFFFF" stroke="#D0021B" stroke-width="3" cx="-89" cy="413.8" rx="16.2" ry="16.2"/>
	<line fill="#FF9CA6" stroke="#D0021B" stroke-width="3.5" stroke-linecap="round" x1="-121.1" y1="372.6" x2="-56.8" y2="372.6"/>
	<path id="Line-2_29_" fill="none" stroke="#D0021B" stroke-width="3" stroke-linecap="square" d="M-119.4,373.9v12.5"/>
	<path id="Line-2_28_" fill="none" stroke="#D0021B" stroke-width="3" stroke-linecap="square" d="M-89,374.1v12.5"/>
	<path id="Line-2_25_" fill="none" stroke="#D0021B" stroke-width="3" stroke-linecap="square" d="M-71.6,374.1v12.5"/>
	<path id="Line-2_19_" fill="none" stroke="#D0021B" stroke-width="3" stroke-linecap="square" d="M-106.3,375.2v12.5"/>
	<path id="Line-2_17_" fill="none" stroke="#D0021B" stroke-width="3" stroke-linecap="square" d="M-58.8,375.2v12.5"/>
	<line fill="none" stroke="#D0021B" stroke-width="3.5" stroke-linecap="round" x1="102.1" y1="312.8" x2="87.7" y2="394.6"/>
	<line fill="none" stroke="#D0021B" stroke-width="3.5" stroke-linecap="round" x1="123.8" y1="312.1" x2="138.3" y2="393.8"/>
	<line fill="#FF9CA6" stroke="#D0021B" stroke-width="3.5" stroke-linecap="round" x1="102.1" y1="312.1" x2="123.8" y2="312.1"/>
	<line fill="none" stroke="#D0021B" stroke-width="3" stroke-linecap="round" x1="81.2" y1="360.8" x2="75.1" y2="395"/>
	<line fill="none" stroke="#D0021B" stroke-width="3" stroke-linecap="round" x1="81.2" y1="360.8" x2="87.2" y2="394.9"/>
	<line fill="none" stroke="#D0021B" stroke-width="3" stroke-linecap="round" x1="144.3" y1="360.8" x2="138.3" y2="394.9"/>
	<line fill="none" stroke="#D0021B" stroke-width="3" stroke-linecap="round" x1="144.3" y1="360.8" x2="150.3" y2="394.9"/>
	<line fill="#FF9CA6" stroke="#D0021B" stroke-width="3.5" stroke-linecap="round" x1="-169.4" y1="500.8" x2="191.1" y2="500.8"/>
	<path fill="none" stroke="#D0021B" stroke-width="3.5" stroke-linecap="round" d="M-119.4,372.3l11.1-6.3
		c-17.9-14.1,2-25.4,3.6-25.6l3.4-10.3"/>
	<path fill="none" stroke="#D0021B" stroke-width="3.5" stroke-linecap="round" d="M-59.7,372.3l-11.1-6.3
		c17.9-14.1-2-25.4-3.6-25.6l-3.4-10.3"/>
	<path fill="#FFFFFF" stroke="#D0021B" stroke-width="3.5" stroke-linecap="round" d="M-97.1,287.4c0-4.1,3.5-7.5,7.9-7.5"/>
	<path fill="#FFFFFF" stroke="#D0021B" stroke-width="3.5" stroke-linecap="round" d="M-90.3,279.9c4.3,0,7.9,3.4,7.9,7.5"/>
	<circle id="Oval-14_24_" fill="#D0021B" cx="-8.8" cy="351" r="3.4"/>
	<line fill="none" stroke="#D0021B" stroke-width="2" stroke-linecap="round" x1="54.3" y1="344.1" x2="54.3" y2="360.3"/>
	<circle id="Oval-14_23_" fill="#D0021B" cx="54.3" cy="350.7" r="3.4"/>
	<line fill="none" stroke="#D0021B" stroke-width="2" stroke-linecap="round" x1="12.5" y1="294.4" x2="12.5" y2="310.6"/>
	<circle id="Oval-14_22_" fill="#D0021B" cx="12.5" cy="301" r="3.4"/>
	<line fill="none" stroke="#D0021B" stroke-width="2" stroke-linecap="round" x1="33.8" y1="294" x2="33.8" y2="310.3"/>
	<circle id="Oval-14_21_" fill="#D0021B" cx="33.8" cy="300.7" r="3.4"/>
	<line fill="none" stroke="#D0021B" stroke-width="2" stroke-linecap="round" x1="102.1" y1="294.4" x2="102.1" y2="310.6"/>
	<circle id="Oval-14_20_" fill="#D0021B" cx="102.1" cy="301" r="3.4"/>
	<line fill="none" stroke="#D0021B" stroke-width="2" stroke-linecap="round" x1="123.8" y1="294.4" x2="123.8" y2="310.6"/>
	<circle id="Oval-14_19_" fill="#D0021B" cx="123.8" cy="301" r="3.4"/>
	<line fill="none" stroke="#D0021B" stroke-width="2" stroke-linecap="round" x1="81.2" y1="343.5" x2="81.2" y2="359.7"/>
	<circle id="Oval-14_18_" fill="#D0021B" cx="81.2" cy="350.1" r="3.4"/>
	<line fill="none" stroke="#D0021B" stroke-width="2" stroke-linecap="round" x1="144.3" y1="343.7" x2="144.3" y2="360"/>
	<circle id="Oval-14_17_" fill="#D0021B" cx="144.3" cy="350.3" r="3.4"/>
	<rect x="81.4" y="398.5" fill="#FFFFFF" width="63.6" height="98.5"/>
	<g id="Sign_3_" transform="translate(7.733333, 12.000000)">
		<path id="Shape_38_" fill="#D0021B" d="M-44.8,466.9c0.7,0,1.2-0.6,1.2-1.4v-6.9l4.8,7.4c0.3,0.5,0.7,0.9,1.2,0.9h0.1
			c0.7,0,1.2-0.6,1.2-1.5v-10.3c0-0.8-0.5-1.4-1.2-1.4c-0.7,0-1.2,0.6-1.2,1.4v6.7l-4.6-7.2c-0.3-0.5-0.7-0.9-1.2-0.9h-0.2
			c-0.7,0-1.2,0.6-1.2,1.5v10.3C-46,466.3-45.5,466.9-44.8,466.9L-44.8,466.9z"/>
		<path id="Shape_37_" fill="#D0021B" d="M-28.4,467c3.4,0,5.9-3,5.9-6.7l0,0c0-3.7-2.4-6.7-5.8-6.7s-5.9,3-5.9,6.7l0,0
			C-34.2,464-31.8,467-28.4,467L-28.4,467z M-31.6,460.3c0-2.3,1.3-4,3.3-4c1.9,0,3.3,1.9,3.3,4.1l0,0c0,2.3-1.3,4-3.3,4
			C-30.3,464.3-31.6,462.6-31.6,460.3L-31.6,460.3L-31.6,460.3z"/>
		<path id="Shape_36_" fill="#D0021B" d="M-19.2,466.8h3.1c3.5,0,5.8-2.8,5.8-6.5l0,0c0-3.6-2.4-6.5-5.8-6.5h-3.1
			c-0.7,0-1.2,0.6-1.2,1.5v10C-20.3,466.2-19.8,466.8-19.2,466.8L-19.2,466.8z M-17.9,456.4h1.8c2,0,3.3,1.6,3.3,3.9l0,0
			c0,2.3-1.3,3.9-3.3,3.9h-1.8V456.4L-17.9,456.4z"/>
		<path id="Shape_35_" fill="#D0021B" d="M-6.9,466.8h6.1c0.6,0,1.1-0.6,1.1-1.3c0-0.7-0.5-1.3-1.1-1.3h-5v-2.7h4.1
			c0.6,0,1.1-0.6,1.1-1.3s-0.5-1.3-1.1-1.3h-4.1v-2.6h4.9c0.6,0,1.1-0.6,1.1-1.3c0-0.7-0.5-1.3-1.1-1.3h-6c-0.7,0-1.2,0.6-1.2,1.5
			v10.1C-8.1,466.2-7.6,466.8-6.9,466.8L-6.9,466.8z"/>
		<path id="Shape_34_" fill="#D0021B" d="M2.2,465.4c1.2,1.1,2.6,1.6,4.1,1.6c2.4,0,4.1-1.5,4.1-4l0,0c0-2.3-1.2-3.2-3.5-3.9
			c-1.9-0.6-2.4-0.9-2.4-1.7l0,0c0-0.6,0.5-1.2,1.4-1.2c0.7,0,1.5,0.3,2.3,0.9c0.2,0.1,0.4,0.2,0.6,0.2c0.7,0,1.2-0.6,1.2-1.3
			c0-0.6-0.2-1-0.5-1.2c-1-0.8-2.2-1.2-3.5-1.2c-2.2,0-3.8,1.6-3.8,3.9l0,0c0,2.5,1.4,3.3,3.6,3.9c1.8,0.6,2.2,0.9,2.2,1.7l0,0
			c0,0.8-0.6,1.2-1.6,1.2c-1.1,0-2-0.5-2.8-1.2c-0.2-0.1-0.4-0.3-0.7-0.3c-0.7,0-1.2,0.6-1.2,1.3C1.7,464.8,1.9,465.2,2.2,465.4
			L2.2,465.4z"/>
		<path id="Shape_33_" fill="#D0021B" d="M17.5,467c1.7,0,2.9-0.6,3.9-1.7c0.2-0.2,0.4-0.6,0.4-1c0-0.7-0.5-1.3-1.2-1.3
			c-0.2,0-0.5,0.1-0.7,0.3c-0.7,0.7-1.3,1-2.4,1c-1.9,0-3.1-1.9-3.1-4.1l0,0c0-2.3,1.3-4,3.1-4c0.8,0,1.6,0.3,2.2,0.9
			c0.2,0.1,0.4,0.3,0.7,0.3c0.7,0,1.2-0.6,1.2-1.4c0-0.5-0.2-0.9-0.5-1.2c-0.9-0.8-2-1.3-3.6-1.3c-3.4,0-5.7,3-5.7,6.7l0,0
			C11.9,464,14.3,467,17.5,467L17.5,467z"/>
		<path id="Shape_32_" fill="#D0021B" d="M25.2,466.9c0.7,0,1.2-0.6,1.2-1.5v-3.9h4.5v3.9c0,0.8,0.5,1.5,1.2,1.5
			c0.7,0,1.2-0.6,1.2-1.5v-10.3c0-0.8-0.5-1.5-1.2-1.5c-0.7,0-1.2,0.6-1.2,1.5v3.8h-4.5v-3.8c0-0.8-0.5-1.5-1.2-1.5
			c-0.7,0-1.2,0.6-1.2,1.5v10.3C23.9,466.3,24.4,466.9,25.2,466.9L25.2,466.9z"/>
		<path id="Shape_31_" fill="#D0021B" d="M41.2,467c3.4,0,5.8-3,5.8-6.7l0,0c0-3.7-2.4-6.7-5.8-6.7c-3.4,0-5.9,3-5.9,6.7l0,0
			C35.4,464,37.8,467,41.2,467L41.2,467z M37.9,460.3c0-2.3,1.3-4,3.3-4c1.9,0,3.3,1.9,3.3,4.1l0,0c0,2.3-1.3,4-3.3,4
			C39.3,464.3,37.9,462.6,37.9,460.3L37.9,460.3L37.9,460.3z"/>
		<path id="Shape_30_" fill="#D0021B" d="M54.5,467c3.4,0,5.9-3,5.9-6.7l0,0c0-3.7-2.4-6.7-5.8-6.7c-3.4,0-5.9,3-5.9,6.7l0,0
			C48.7,464,51.1,467,54.5,467L54.5,467z M51.2,460.3c0-2.3,1.3-4,3.3-4c1.9,0,3.3,1.9,3.3,4.1l0,0c0,2.3-1.3,4-3.3,4
			C52.6,464.3,51.2,462.6,51.2,460.3L51.2,460.3L51.2,460.3z"/>
		<path id="Shape_29_" fill="#D0021B" d="M63.7,466.8h5.6c0.6,0,1.1-0.6,1.1-1.3c0-0.7-0.5-1.3-1.1-1.3h-4.5v-9
			c0-0.8-0.5-1.5-1.2-1.5c-0.7,0-1.2,0.6-1.2,1.5v10.1C62.4,466.2,63,466.8,63.7,466.8L63.7,466.8z"/>
	</g>
	<line fill="none" stroke="#D0021B" stroke-width="3.5" stroke-linecap="round" x1="80.3" y1="398.5" x2="80.3" y2="448.9"/>
	<line fill="none" stroke="#D0021B" stroke-width="3.5" stroke-linecap="round" x1="146.5" y1="398.5" x2="146.5" y2="489.3"/>
	<path id="Rectangle-19_12_" fill="#FFFFFF" stroke="#D0021B" stroke-width="3" d="M12.4,408.3h4.5c1.2,0,2.3,1.3,2.3,3v6
		c0,1.7-1,3-2.3,3h-4.5c-1.2,0-2.3-1.3-2.3-3v-6C10.1,409.6,11.1,408.3,12.4,408.3z"/>
	<path id="Rectangle-19_11_" fill="#FFFFFF" stroke="#D0021B" stroke-width="3" d="M30.6,408.3h4.5c1.2,0,2.3,1.3,2.3,3v6
		c0,1.7-1,3-2.3,3h-4.5c-1.2,0-2.3-1.3-2.3-3v-6C28.3,409.6,29.3,408.3,30.6,408.3z"/>
	<path id="Rectangle-19_10_" fill="#FFFFFF" stroke="#D0021B" stroke-width="3" d="M101.5,408.1h4.5c1.2,0,2.3,1.3,2.3,3v6
		c0,1.7-1,3-2.3,3h-4.5c-1.2,0-2.3-1.3-2.3-3v-6C99.2,409.5,100.2,408.1,101.5,408.1z"/>
	<path id="Rectangle-19_9_" fill="#FFFFFF" stroke="#D0021B" stroke-width="3" d="M119.7,408.1h4.5c1.2,0,2.3,1.3,2.3,3v6
		c0,1.7-1,3-2.3,3h-4.5c-1.2,0-2.3-1.3-2.3-3v-6C117.4,409.5,118.4,408.1,119.7,408.1z"/>
	<path id="Line-2_14_" fill="none" stroke="#D0021B" stroke-width="3" stroke-linecap="round" d="M-88.9,405.3v8.5"/>
	<path id="Line-2_13_" fill="none" stroke="#D0021B" stroke-width="3" stroke-linecap="round" d="M-88.4,413.8h8.5"/>
	<path id="Line-2_15_" fill="none" stroke="#D0021B" stroke-width="3" d="M121.6,478.2h-19.4"/>
	<path fill="none" stroke="#D0021B" stroke-width="3" stroke-linecap="round" d="M111.8,438.2c-6.1,7.5-8.5,15.4-8.1,39.4"/>
	<path fill="none" stroke="#D0021B" stroke-width="3" stroke-linecap="round" d="M111.9,438.2c6.1,7.5,8.5,15.4,8.1,39.4"/>
</g>
</svg>
