<?xml version="1.0" encoding="UTF-8" standalone="no"?>
<svg
   xmlns:dc="http://purl.org/dc/elements/1.1/"
   xmlns:cc="http://creativecommons.org/ns#"
   xmlns:rdf="http://www.w3.org/1999/02/22-rdf-syntax-ns#"
   xmlns:svg="http://www.w3.org/2000/svg"
   xmlns="http://www.w3.org/2000/svg"
   viewBox="0 0 513.06665 589.46667"
   height="589.46667"
   width="513.06665"
   xml:space="preserve"
   id="svg2"
   version="1.1"><metadata
     id="metadata8"><rdf:RDF><cc:Work
         rdf:about=""><dc:format>image/svg+xml</dc:format><dc:type
           rdf:resource="http://purl.org/dc/dcmitype/StillImage" /></cc:Work></rdf:RDF></metadata><defs
     id="defs6" /><g
     transform="matrix(1.3333333,0,0,-1.3333333,0,589.46667)"
     id="g10"><g
       transform="scale(0.1)"
       id="g12"><path
         id="path14"
         style="fill:#100f0d;fill-opacity:1;fill-rule:nonzero;stroke:none"
         d="m 1958,4412 c -21,12 -47,12 -68,0 L 34,3341 C 13,3329 0,3306 0,3282 V 1139 c 0,-24 13,-47 34,-59 L 1890,9 c 11,-6 22,-9 34,-9 12,0 24,3 34,9 l 1856,1071 c 21,12 34,35 34,59 v 2143 c 0,24 -13,47 -34,59 L 1958,4412" /><path
         id="path16"
         style="fill:#f4ba18;fill-opacity:1;fill-rule:nonzero;stroke:none"
         d="M 3778,1147 1923,76 67,1147 V 3290 L 1923,4362 3778,3290 V 1147" /><path
         id="path18"
         style="fill:#100f0d;fill-opacity:1;fill-rule:nonzero;stroke:none"
         d="m 1445.38,929.59 c -3,6 -1,13 5,17 l 2,1 c 5,3 10,2 15,0 l 72,-30 -29,50 c -3,6 -1,13 4,17 6,3 13,1 17,-4 l 45,-77 c 3,-6 1,-13 -5,-17 h -1 c -5,-3 -10,-2 -15,0 l -75,31 30,-52 c 3,-6 1,-13 -4,-17 -6,-3 -13,-1 -17,4 l -44,77 v 0" /><path
         id="path20"
         style="fill:#100f0d;fill-opacity:1;fill-rule:nonzero;stroke:none"
         d="m 1913,966 -36,49 c -2,2 -3,5 -3,9 0,7 5,12 12,12 6,0 9,-3 12,-8 l 27,-39 28,40 c 3,4 7,7 12,7 8,0 12,-5 12,-12 0,-3 -2,-6 -3,-9 l -36,-49 v -32 c 0,-7 -5,-12 -12,-12 -7,0 -12,5 -12,12 v 32 h -1" /><path
         id="path22"
         style="fill:#100f0d;fill-opacity:1;fill-rule:nonzero;stroke:none"
         d="m 2302,935.301 v 0 c 16,28 50,38 80,21 15,-8 22,-18 27,-29 1,-3 1,-7 -1,-11 -3,-6 -11,-8 -17,-4 -3,2 -4,4 -5,6 -3,8 -8,14 -16,18 -16,9 -36,3 -46,-14 v 0 c -10,-17 -6,-37 11,-47 9,-5 17,-6 25,-5 2,0 5,0 8,-1 5,-3 7,-10 4,-16 -2,-3 -5,-5 -8,-6 -13,-3 -26,-1 -42,8 -27,18 -36,52 -20,80 v 0" /><path
         id="path24"
         style="fill:#100f0d;fill-opacity:1;fill-rule:nonzero;stroke:none"
         d="m 2692,3643 -759,438 v 0 c -1,1 -2,1 -3,1 h -5 c 0,0 0,0 -1,0 h -5 v 0 c -1,0 -2,-1 -3,-1 v 0 l -747,-431 c -9,-5 -12,-16 -7,-25 5,-9 17,-12 25,-7 l 664,383 -282,-360 c -6,-8 -5,-20 3,-26 8,-6 20,-5 26,3 l 308,393 v -384 c 0,-10 8,-19 19,-19 11,0 19,8 19,19 v 384 l 308,-393 c 4,-5 9,-7 15,-7 4,0 8,1 11,4 8,6 9,18 3,26 l -282,360 676,-390 c 3,-2 6,-2 9,-2 6,0 13,3 16,9 4,8 1,20 -8,25 v 0" /><path
         id="path26"
         style="fill:#100f0d;fill-opacity:1;fill-rule:nonzero;stroke:none"
         d="m 2687,814 c -5,9 -17,12 -25,7 l -663,-383 282,360 c 6,8 5,20 -3,26 -8,6 -20,5 -26,-3 L 1944,428 v 384 c 0,10 -8,19 -19,19 -11,0 -19,-8 -19,-19 V 428 l -308,393 c -6,8 -18,9 -26,3 -8,-6 -9,-18 -3,-26 l 282,-360 -676,390 c -9,5 -20,2 -25,-7 -5,-9 -2,-20 7,-25 l 759,-438 h 1 c 1,0 1,-1 2,-1 h 3 c 1,0 3,-1 4,-1 v 0 c 2,0 3,0 4,1 h 2 c 1,0 1,1 2,1 h 1 l 747,431 c 7,4 10,16 5,25 v 0" /><path
         id="path28"
         style="fill:#100f0d;fill-opacity:1;fill-rule:nonzero;stroke:none"
         d="m 2737,872 c 12.7,0 23,-10.301 23,-23 0,-12.699 -10.3,-23 -23,-23 -12.7,0 -23,10.301 -23,23 0,12.699 10.3,23 23,23" /><path
         id="path30"
         style="fill:#100f0d;fill-opacity:1;fill-rule:nonzero;stroke:none"
         d="m 1102,872 c 12.7,0 23,-10.301 23,-23 0,-12.699 -10.3,-23 -23,-23 -12.7,0 -23,10.301 -23,23 0,12.699 10.3,23 23,23" /><path
         id="path32"
         style="fill:#100f0d;fill-opacity:1;fill-rule:nonzero;stroke:none"
         d="m 1235,3340 c 8,0 14,6 14,14 v 71 l 58,-76 c 4,-5 8,-9 15,-9 h 1 c 8,0 15,6 15,15 v 105 c 0,8 -6,14 -14,14 -8,0 -14,-6 -14,-14 v -68 l -56,74 c -4,5 -8,9 -15,9 h -3 c -8,0 -15,-6 -15,-15 v -105 c 0,-9 6,-15 14,-15 v 0" /><path
         id="path34"
         style="fill:#100f0d;fill-opacity:1;fill-rule:nonzero;stroke:none"
         d="m 1395,3407 c 0,23 16,41 40,41 23,0 40,-19 40,-42 v 0 c 0,-23 -16,-41 -40,-41 -24,1 -40,19 -40,42 z m 39,-68 c 41,0 71,31 71,68 v 0 c 0,38 -29,68 -70,68 -41,0 -71,-31 -71,-68 v 0 c 0,-38 29,-68 70,-68 v 0" /><path
         id="path36"
         style="fill:#100f0d;fill-opacity:1;fill-rule:nonzero;stroke:none"
         d="m 1560,3447 h 22 c 24,0 40,-16 40,-40 v 0 c 0,-23 -16,-40 -40,-40 h -22 z m -15,-106 h 37 c 42,0 70,29 70,66 v 0 c 0,37 -29,66 -70,66 h -37 c -8,0 -15,-6 -15,-15 v -102 c 1,-9 7,-15 15,-15 v 0" /><path
         id="path38"
         style="fill:#100f0d;fill-opacity:1;fill-rule:nonzero;stroke:none"
         d="m 1693,3341 h 74 c 7,0 13,6 13,13 0,7 -6,13 -13,13 h -60 v 28 h 50 c 7,0 13,6 13,13 0,7 -6,13 -13,13 h -50 v 27 h 59 c 7,0 13,6 13,13 0,7 -6,13 -13,13 h -73 c -8,0 -15,-6 -15,-15 v -103 c 1,-9 7,-15 15,-15 v 0" /><path
         id="path40"
         style="fill:#100f0d;fill-opacity:1;fill-rule:nonzero;stroke:none"
         d="m 1803,3355 c 15,-11 32,-16 50,-16 29,0 49,15 49,41 v 0 c 0,23 -15,33 -42,40 -23,6 -29,9 -29,17 v 0 c 0,6 6,12 17,12 9,0 18,-3 28,-9 2,-1 5,-2 7,-2 8,0 14,6 14,13 0,6 -3,10 -6,12 -12,8 -26,12 -42,12 -27,0 -46,-16 -46,-40 v 0 c 0,-26 17,-34 44,-40 22,-6 27,-9 27,-17 v 0 c 0,-8 -7,-12 -19,-12 -13,0 -24,5 -34,12 -2,1 -5,3 -8,3 -8,0 -14,-6 -14,-13 -2,-7 1,-11 4,-13 v 0" /><path
         id="path42"
         style="fill:#100f0d;fill-opacity:1;fill-rule:nonzero;stroke:none"
         d="m 1988,3339 c 21,0 35,6 47,17 3,2 5,6 5,10 0,7 -6,13 -14,13 -3,0 -6,-1 -9,-3 -8,-7 -16,-10 -29,-10 -23,0 -38,19 -38,42 v 0 c 0,23 16,41 38,41 10,0 19,-3 27,-9 2,-1 5,-3 9,-3 8,0 14,6 14,14 0,5 -3,9 -6,12 -11,8 -24,13 -44,13 -41,0 -69,-31 -69,-68 v 0 c 2,-39 31,-69 69,-69 v 0" /><path
         id="path44"
         style="fill:#100f0d;fill-opacity:1;fill-rule:nonzero;stroke:none"
         d="m 2081,3340 c 8,0 15,6 15,15 v 40 h 54 v -40 c 0,-8 6,-15 15,-15 8,0 15,6 15,15 v 105 c 0,8 -6,15 -15,15 -8,0 -15,-6 -15,-15 v -39 h -54 v 39 c 0,8 -6,15 -15,15 -8,0 -15,-6 -15,-15 v -105 c 0,-9 6,-15 15,-15 v 0" /><path
         id="path46"
         style="fill:#100f0d;fill-opacity:1;fill-rule:nonzero;stroke:none"
         d="m 2234,3407 c 0,23 16,41 40,41 23,0 40,-19 40,-42 v 0 c 0,-23 -16,-41 -40,-41 -23,1 -40,19 -40,42 z m 40,-68 c 41,0 70,31 70,68 v 0 c 0,38 -29,68 -70,68 -41,0 -71,-31 -71,-68 v 0 c 1,-38 30,-68 71,-68 v 0" /><path
         id="path48"
         style="fill:#100f0d;fill-opacity:1;fill-rule:nonzero;stroke:none"
         d="m 2395,3407 c 0,23 16,41 40,41 23,0 40,-19 40,-42 v 0 c 0,-23 -16,-41 -40,-41 -23,1 -40,19 -40,42 z m 40,-68 c 41,0 71,31 71,68 v 0 c 0,38 -29,68 -70,68 -41,0 -71,-31 -71,-68 v 0 c 0,-38 29,-68 70,-68 v 0" /><path
         id="path50"
         style="fill:#100f0d;fill-opacity:1;fill-rule:nonzero;stroke:none"
         d="m 2546,3341 h 68 c 7,0 13,6 13,13 0,7 -6,13 -13,13 h -54 v 92 c 0,8 -6,15 -15,15 -8,0 -15,-6 -15,-15 v -103 c 1,-9 8,-15 16,-15 v 0" /><path
         id="path52"
         style="fill:#100f0d;fill-opacity:1;fill-rule:nonzero;stroke:none"
         d="m 3305.77,1394.72 v -22.77 h -192.32 v -37.65 h 192.32 v -22.77 h -192.32 v -37.66 h 192.32 v -22.77 h -232 V 1553 c 0,10.41 -8.89,18.83 -19.85,18.83 -10.98,0 -19.85,-8.42 -19.85,-18.83 v -301.9 h -39.7 v 716.98 c 0,25.97 -22.25,47.07 -49.62,47.07 -27.36,0 -49.63,-21.1 -49.63,-47.07 V 1251.1 h -39.7 V 1553 c 0,10.41 -8.87,18.83 -19.85,18.83 -10.95,0 -19.85,-8.42 -19.85,-18.83 v -301.9 h -232 v 22.77 h 192.3 v 37.66 h -192.3 v 22.77 h 192.3 v 37.65 h -192.3 v 22.77 h 192.3 v 37.65 h -192.3 v 22.77 h 192.3 v 123.99 l 43.71,41.45 c 1.91,1.79 3.42,3.92 4.45,6.29 0.28,0.64 0.24,1.34 0.42,2 0.49,1.66 1.09,3.29 1.09,5.1 0,0.08 -0.04,0.11 -0.04,0.19 v 12.95 h 39.7 v 37.65 h -39.7 v 22.76 h 39.7 v 37.65 h -39.7 v 22.78 h 39.7 v 37.65 h -39.7 v 22.78 h 39.7 v 37.65 h -39.7 v 22.78 h 39.7 v 37.65 h -39.7 v 22.78 h 39.7 v 37.65 h -37.9 c 9.51,53.33 58.4,94.13 117.3,94.13 58.89,0 107.8,-40.8 117.29,-94.13 h -37.9 v -37.65 h 39.7 v -22.78 h -39.7 v -37.65 h 39.7 v -22.78 h -39.7 v -37.65 h 39.7 v -22.78 h -39.7 v -37.65 h 39.7 v -22.78 h -39.7 v -37.65 h 39.7 v -22.76 h -39.7 v -37.65 h 39.7 v -13.14 c 0,-1.83 0.58,-3.46 1.1,-5.1 0.19,-0.66 0.15,-1.36 0.41,-2 1.03,-2.37 2.52,-4.5 4.45,-6.29 l 43.71,-41.45 v -123.99 h 192.28 v -22.77 h -192.32 v -37.65 h 192.3 z m -351.1,-143.62 h -19.85 v 716.98 c 0,5.18 4.47,9.42 9.93,9.42 5.48,0 9.92,-4.24 9.92,-9.42 z m -286.55,364.06 h 89.74 l -21.54,-20.44 V 1492.8 h -68.2 z m 38.47,408.22 h 19.81 v -370.59 h -19.81 z m 238.16,402.07 c 54.72,0 99.24,-42.2 99.24,-94.11 v -7.19 c -9.72,6.2 -20.16,11.47 -31.08,15.78 l 7.86,24.66 c 3.18,9.94 -2.74,20.46 -13.22,23.47 -10.52,3.02 -21.58,-2.59 -24.77,-12.55 l -8.08,-25.27 c -3.53,0.57 -7.03,1.19 -10.62,1.55 0.12,0.83 0.5,1.56 0.5,2.42 v 43.01 c 0,10.4 -8.88,18.82 -19.85,18.82 -10.96,0 -19.85,-8.42 -19.85,-18.82 v -43.01 c 0,-0.86 0.41,-1.59 0.51,-2.42 -3.59,-0.38 -7.06,-0.98 -10.6,-1.55 l -8.08,25.27 c -3.17,9.96 -14.25,15.57 -24.77,12.54 -10.48,-3.03 -16.39,-13.56 -13.2,-23.5 l 7.86,-24.6 c -10.94,-4.31 -21.38,-9.58 -31.1,-15.78 v 7.17 c 0,51.91 44.52,94.11 99.25,94.11 z m 0,103.54 c 32.83,0 59.54,-25.34 59.54,-56.45 v -22.33 c -12.34,5.59 -25.68,9.47 -39.71,11.37 v 32.09 c 0,10.42 -8.88,18.83 -19.85,18.83 -10.96,0 -19.85,-8.41 -19.85,-18.83 v -32.09 c -14.02,-1.92 -27.34,-5.8 -39.68,-11.37 v 22.33 c 0,31.11 26.71,56.45 59.55,56.45 z m -19.85,94.15 c 0,10.37 8.91,18.81 19.85,18.81 10.95,0 19.85,-8.44 19.85,-18.81 v -58.4 c -6.41,1.23 -13.04,1.91 -19.85,1.91 -6.79,0 -13.44,-0.67 -19.85,-1.91 z m 9.92,129.43 c 0,5.17 4.47,9.41 9.93,9.41 5.48,0 9.92,-4.24 9.92,-9.41 v -73.93 c -3.23,0.52 -6.51,0.96 -9.92,0.96 -3.4,0 -6.67,-0.42 -9.93,-0.96 z m 228.25,-729.19 h 19.89 v -370.56 h -19.89 z m -218.34,291.77 c 69.55,0 127.15,-48.77 137.22,-112.1 -14.99,11.52 -31.62,21.18 -49.51,28.63 l 7.35,22.93 c 3.17,9.94 -2.74,20.46 -13.22,23.49 -10.49,3.02 -21.58,-2.59 -24.78,-12.53 l -7.02,-21.99 c -9.85,2.2 -19.89,3.86 -30.19,4.74 v 38.61 c 0,10.41 -8.88,18.83 -19.85,18.83 -10.96,0 -19.85,-8.42 -19.85,-18.83 v -38.61 c -10.3,-0.88 -20.31,-2.54 -30.15,-4.74 l -7.05,21.99 c -3.18,9.94 -14.25,15.57 -24.76,12.53 -10.48,-3.03 -16.39,-13.55 -13.22,-23.49 l 7.35,-22.91 c -17.88,-7.47 -34.54,-17.11 -49.54,-28.65 10.08,63.35 67.68,112.1 137.22,112.1 z m 50.69,-119.26 c -10.68,2.53 -21.4,-3.72 -23.96,-13.85 l -16.27,-63.86 c -3.48,0.21 -6.91,0.49 -10.42,0.49 -3.58,0 -7.05,-0.3 -10.57,-0.51 l -16.27,63.88 c -2.58,10.09 -13.34,16.32 -23.96,13.85 -10.66,-2.44 -17.19,-12.61 -14.63,-22.72 l 15.84,-62.12 c -5.7,-1.79 -11.21,-3.92 -16.63,-6.27 l -29.56,39.4 c -6.35,8.44 -18.72,10.45 -27.69,4.41 -8.93,-6.01 -11.02,-17.77 -4.67,-26.27 l 28.12,-37.44 c -2.47,-1.92 -4.77,-3.95 -7.11,-5.99 l -19.83,13.82 c -8.86,6.18 -21.26,4.33 -27.73,-4.03 -6.49,-8.36 -4.59,-20.14 4.23,-26.3 l 17.54,-12.21 c -16.35,-23.65 -25.9,-51.81 -25.9,-82.09 v -315.26 h -19.85 v 389.21 c 0,0.08 0.04,0.14 0.04,0.19 0,0.06 -0.02,0.09 -0.02,0.15 0.08,93.34 80.17,169.26 178.63,169.26 98.51,0 178.64,-76 178.64,-169.41 v -389.4 h -19.85 v 315.26 c 0,30.32 -9.57,58.5 -25.88,82.16 l 17.45,12.16 c 8.81,6.16 10.72,17.94 4.22,26.3 -6.49,8.36 -18.89,10.2 -27.72,4.03 l -19.77,-13.76 c -2.33,2.03 -4.65,4.1 -7.11,5.98 l 28.05,37.39 c 6.33,8.48 4.26,20.24 -4.67,26.26 -8.95,6.09 -21.32,4.03 -27.69,-4.4 l -29.52,-39.37 c -5.4,2.38 -10.95,4.5 -16.67,6.29 l 15.84,62.07 c 2.56,10.11 -3.99,20.28 -14.65,22.7 z m 157.77,-703.09 v 101.92 l -21.54,20.44 h 89.76 V 1492.8 h -68.22 z m 107.92,0 v 125.06 l 47.66,6.94 c 10.84,1.58 18.28,11.2 16.61,21.48 -1.66,10.28 -11.91,17.36 -22.65,15.74 l -62.98,-9.19 h -17.11 v 408.2 h -60.6 c -3.53,36.93 -17.33,71.05 -38.67,99.85 l -0.02,22.5 c 0,40.22 -14.9,77.16 -39.68,106.25 v 41.71 c 0,35.79 -15.18,68.27 -39.7,92.04 v 49.16 c 0,30.62 -15.74,57.62 -39.69,74.81 v 75.79 c 0,11.48 -3.7,22.18 -9.93,31.08 v 98.35 c 0,19.27 -12.31,35.84 -29.83,43.11 l 0.11,281.48 c 0.03,10.41 -8.85,18.84 -19.81,18.84 h -0.01 c -10.96,0 -19.86,-8.42 -19.86,-18.83 l -0.11,-281.57 c -17.47,-7.3 -29.72,-23.81 -29.72,-43.03 v -97.95 c 0,-0.1 0.06,-0.19 0.06,-0.29 -6.27,-8.96 -9.98,-19.67 -9.98,-31.19 v -75.79 c -23.96,-17.19 -39.7,-44.19 -39.7,-74.81 v -47.84 c 0,-0.39 0.21,-0.7 0.24,-1.09 -24.66,-23.78 -39.94,-56.35 -39.94,-92.27 v -41.68 c -24.77,-29.1 -39.7,-66.06 -39.7,-106.28 v -22.5 c -21.34,-28.8 -35.15,-62.92 -38.69,-99.85 h -60.52 v -408.24 h -17.09 l -63.08,9.19 c -10.72,1.62 -20.98,-5.46 -22.63,-15.74 -1.67,-10.28 5.76,-19.9 16.59,-21.48 l 47.74,-6.94 V 1492.76 H 2544 v -279.32 h 801.47 v 279.36 h -84.36 v 0" /><path
         id="path54"
         style="fill:#100f0d;fill-opacity:1;fill-rule:nonzero;stroke:none"
         d="m 1256.76,2711.13 80.7,-1452.6 h -243.1 l 162.4,1452.6 z M 775.469,1258.53 855.938,2711.04 1018.57,1258.53 H 775.469 Z m 463.011,1712.29 -182.01,-1628.3 -182.325,1628.3 h 364.335 z m -299.769,60.25 c 0,9.77 35.519,28.98 117.609,28.98 82.08,0 117.6,-19.19 117.6,-28.98 v -15.64 H 938.711 Z m 348.229,-15.64 h -65.98 v 15.64 c 0,43.12 -51.12,69.24 -141.11,73.04 l 0.14,318.29 c 0,12.31 -10.51,22.31 -23.52,22.31 -13.01,0 -23.53,-9.98 -23.53,-22.31 l -0.14,-318.29 c -89.995,-3.8 -141.132,-29.92 -141.132,-73.04 v -15.64 H 825.664 L 725.883,1213.91 h 661.147 l -100.09,1801.52 v 0" /><path
         id="path56"
         style="fill:#100f0d;fill-opacity:1;fill-rule:nonzero;stroke:none"
         d="m 1062.35,2548.84 h 47.0391 v 197.98 H 1062.35 Z" /><path
         id="path58"
         style="fill:#100f0d;fill-opacity:1;fill-rule:nonzero;stroke:none"
         d="m 1121.15,2548.84 h 47.0508 v 197.98 H 1121.15 Z" /><path
         id="path60"
         style="fill:#100f0d;fill-opacity:1;fill-rule:nonzero;stroke:none"
         d="m 944.734,2548.84 h 47.0469 v 197.98 H 944.734 Z" /><path
         id="path62"
         style="fill:#100f0d;fill-opacity:1;fill-rule:nonzero;stroke:none"
         d="m 1003.54,2548.84 h 47.0508 v 197.98 H 1003.54 Z" /><path
         id="path64"
         style="fill:#100f0d;fill-opacity:1;fill-rule:nonzero;stroke:none"
         d="m 2335.76,1255.58 h -33.39 v 374.93 h -41.78 v -374.93 h -20.37 v 374.93 h -41.78 v -374.93 h -20.37 v 374.93 h -41.79 v -374.93 h -33.38 v 399.4 h 232.86 z m -298.88,0 v 829.52 c 0,10.92 -9.33,19.74 -20.89,19.74 -11.53,0 -20.89,-8.82 -20.89,-19.74 v -829.52 h -20.37 v 829.52 c 0,10.92 -9.34,19.74 -20.89,19.74 -11.53,0 -20.89,-8.82 -20.89,-19.74 v -829.52 h -20.37 v 829.52 c 0,10.92 -9.36,19.74 -20.89,19.74 -11.56,0 -20.9,-8.82 -20.9,-19.74 v -829.52 h -20.36 v 438.87 h -24.57 v 327.17 h -27.14 v 53.62 h -41.78 v -53.62 h -77.34 v 121.68 h 552.33 v -121.68 h -81.21 v 53.62 h -41.78 v -53.62 h -23.28 v -327.17 h -24.54 v -438.87 h -24.24 z m -228.22,0 h -33.4 v 374.93 h -41.79 v -374.93 h -20.37 v 374.93 h -41.78 v -374.93 h -20.35 v 374.93 h -41.78 v -374.93 h -33.41 v 399.4 h 232.88 z m -187.41,726.58 h 162.84 v -287.71 h -29.45 v 232.06 h -41.79 v -232.06 h -20.36 v 232.06 h -41.79 v -232.06 h -29.45 z m 105.12,241.73 h 458.84 v -41.13 h -458.84 z m 68.71,72.05 h 321.42 v -32.56 h -321.42 z m 51.69,55.52 h 218.03 v -16.06 h -218.03 z m 28.87,74.28 h 22.4 v 62.67 h 19.82 v 273.48 h 15.09 v -370.96 h -57.31 z m 59.19,387.38 9.71,16.34 h 22.48 l 9.72,-16.34 v -11.76 h -41.91 z m 101.09,-387.38 v -34.81 h -61.19 v 370.96 h 18.97 v -273.48 h 19.8 v -62.67 h 22.42 z m 254.42,-731.29 h -29.46 v 232.06 h -41.78 v -232.06 h -20.39 v 232.06 h -41.79 v -232.06 h -29.45 v 287.71 h 162.87 z m 41.78,0 v 327.17 h -58.39 v 161.14 H 2227 v 80.6 h -68.72 v 72.02 h -51.7 v 35.8 c 0,10.91 -9.36,19.73 -20.9,19.73 h -7.97 v 74.28 h -22.4 v 62.67 h -19.81 v 273.5 h -16.98 v 16.87 c 0,3.4 -0.92,6.71 -2.68,9.67 l -18.36,30.9 c -3.7,6.24 -10.68,10.11 -18.22,10.11 h -2.59 v 300.79 c 0,10.91 -9.33,19.73 -20.89,19.73 -11.53,0 -20.89,-8.82 -20.89,-19.73 v -300.77 h -2.59 c -7.54,0 -14.52,-3.85 -18.22,-10.11 l -18.36,-30.9 c -1.76,-2.96 -2.68,-6.28 -2.68,-9.67 v -16.87 h -16.96 V 2527.9 h -19.83 v -62.67 h -22.39 v -74.28 h -7.98 c -11.54,0 -20.89,-8.82 -20.89,-19.73 v -35.8 h -51.71 v -72.02 h -68.71 v -80.59 h -46.74 v -161.15 h -58.37 V 1694.49 H 1534 v -478.37 h 843.54 v 478.33 h -45.42 v 0" /></g></g></svg>