<?xml version="1.0" encoding="utf-8"?>
<!-- Generator: Adobe Illustrator 16.0.0, SVG Export Plug-In . SVG Version: 6.00 Build 0)  -->
<!DOCTYPE svg PUBLIC "-//W3C//DTD SVG 1.1//EN" "http://www.w3.org/Graphics/SVG/1.1/DTD/svg11.dtd">
<svg version="1.1" id="Layer_1" xmlns="http://www.w3.org/2000/svg" xmlns:xlink="http://www.w3.org/1999/xlink" x="0px" y="0px"
	 width="402px" height="459.36px" viewBox="0 0 402 459.36" enable-background="new 0 0 402 459.36" xml:space="preserve">
<g>
	<path fill="#FBDE34" d="M204.298,9.416c-2.106-1.216-4.703-1.216-6.81,0L11.909,116.561c-2.107,1.215-3.404,3.463-3.404,5.896
		v214.29c0,2.432,1.297,4.68,3.404,5.895l185.579,107.145c1.054,0.609,2.229,0.914,3.405,0.914c1.175,0,2.352-0.305,3.404-0.914
		l185.578-107.145c2.107-1.215,3.405-3.463,3.405-5.895v-214.29c0-2.433-1.298-4.681-3.405-5.896"/>
	<g>
		
			<polygon fill="none" stroke="#343433" stroke-width="2.3" stroke-linecap="round" stroke-linejoin="round" stroke-miterlimit="10" points="
			229.801,201.311 171.462,201.311 171.534,144.966 229.873,144.966 		"/>
		
			<polyline fill="none" stroke="#343433" stroke-width="2.3" stroke-linecap="round" stroke-linejoin="round" stroke-miterlimit="10" points="
			229.873,255.443 229.801,314.592 175.146,314.592 171.462,314.592 171.534,255.443 		"/>
		
			<rect x="156.183" y="201.311" fill="none" stroke="#343433" stroke-width="2.3" stroke-linecap="round" stroke-linejoin="round" stroke-miterlimit="10" width="89.023" height="19.67"/>
		
			<path fill="none" stroke="#343433" stroke-width="2.3" stroke-linecap="round" stroke-linejoin="round" stroke-miterlimit="10" d="
			M156.14,242.301c10.252-5.053,26.286-8.303,44.31-8.303c18.227,0,34.42,3.324,44.654,8.475"/>
		
			<path fill="none" stroke="#343433" stroke-width="2.3" stroke-linecap="round" stroke-linejoin="round" stroke-miterlimit="10" d="
			M236.744,314.693l0.432-48.443c0-6.523-6.021-11.197-9.611-13.402c-7.088-4.352-16.629-6.75-26.871-6.75
			c-10.24,0-19.783,2.398-26.87,6.75c-3.589,2.205-9.61,6.879-9.61,13.402l-0.431,48.393"/>
		
			<path fill="none" stroke="#343433" stroke-width="2.3" stroke-linecap="round" stroke-linejoin="round" stroke-miterlimit="10" d="
			M160.384,315.941v-50.84c0-13.592,17.938-24.609,40.065-24.609c22.127,0,40.064,11.018,40.064,24.609v51.625"/>
		
			<line fill="none" stroke="#343433" stroke-width="2.3" stroke-linecap="round" stroke-linejoin="round" stroke-miterlimit="10" x1="192.517" y1="144.966" x2="201.116" y2="113.434"/>
		
			<line fill="none" stroke="#343433" stroke-width="2.3" stroke-linecap="round" stroke-linejoin="round" stroke-miterlimit="10" x1="201.154" y1="113.462" x2="209.742" y2="144.966"/>
		
			<line fill="none" stroke="#343433" stroke-width="2.3" stroke-linecap="round" stroke-linejoin="round" stroke-miterlimit="10" x1="201.116" y1="113.492" x2="217.666" y2="144.966"/>
		
			<line fill="none" stroke="#343433" stroke-width="2.3" stroke-linecap="round" stroke-linejoin="round" stroke-miterlimit="10" x1="201.193" y1="113.434" x2="183.84" y2="144.966"/>
		
			<path fill="none" stroke="#343433" stroke-width="2.3" stroke-linecap="round" stroke-linejoin="round" stroke-miterlimit="10" d="
			M247.685,87.351l-6.058,29.809c0,0-1.197,5.815-3.592,9.065h19.328c-2.395-3.25-3.592-9.065-3.592-9.065l-6.065-29.83"/>
		
			<path fill="none" stroke="#343433" stroke-width="2.3" stroke-linecap="round" stroke-linejoin="round" stroke-miterlimit="10" d="
			M247.706,87.373l-12.751,32.524c0,0-4.166,9.388-7.898,10.682l10.967-4.345"/>
		
			<path fill="none" stroke="#343433" stroke-width="2.3" stroke-linecap="round" stroke-linejoin="round" stroke-miterlimit="10" d="
			M247.662,87.33l13.293,32.396c0,0,3.602,9.541,7.332,10.835l-10.967-4.345"/>
		
			<line fill="none" stroke="#343433" stroke-width="2.3" stroke-linecap="round" stroke-linejoin="round" stroke-miterlimit="10" x1="239.941" y1="126.302" x2="239.941" y2="201.311"/>
		
			<line fill="none" stroke="#343433" stroke-width="2.3" stroke-linecap="round" stroke-linejoin="round" stroke-miterlimit="10" x1="255.75" y1="126.302" x2="255.75" y2="173.139"/>
		
			<polyline fill="none" stroke="#343433" stroke-width="2.3" stroke-linecap="round" stroke-linejoin="round" stroke-miterlimit="10" points="
			229.109,129.798 229.047,135.026 229.818,136.892 229.9,199.946 		"/>
		
			<polyline fill="none" stroke="#343433" stroke-width="2.3" stroke-linecap="round" stroke-linejoin="round" stroke-miterlimit="10" points="
			266.469,129.729 266.531,134.956 265.758,136.821 265.677,147.978 		"/>
		
			<path fill="none" stroke="#343433" stroke-width="2.3" stroke-linecap="round" stroke-linejoin="round" stroke-miterlimit="10" d="
			M153.706,87.351l6.058,29.809c0,0,1.198,5.815,3.592,9.065h-19.328c2.396-3.25,3.592-9.065,3.592-9.065l6.065-29.83"/>
		
			<path fill="none" stroke="#343433" stroke-width="2.3" stroke-linecap="round" stroke-linejoin="round" stroke-miterlimit="10" d="
			M153.685,87.373l12.75,32.524c0,0,4.168,9.388,7.899,10.682l-10.967-4.345"/>
		
			<path fill="none" stroke="#343433" stroke-width="2.3" stroke-linecap="round" stroke-linejoin="round" stroke-miterlimit="10" d="
			M153.729,87.33l-13.293,32.396c0,0-3.601,9.541-7.332,10.835l10.967-4.345"/>
		
			<line fill="none" stroke="#343433" stroke-width="2.3" stroke-linecap="round" stroke-linejoin="round" stroke-miterlimit="10" x1="161.449" y1="126.302" x2="161.449" y2="201.309"/>
		
			<line fill="none" stroke="#343433" stroke-width="2.3" stroke-linecap="round" stroke-linejoin="round" stroke-miterlimit="10" x1="145.641" y1="126.302" x2="145.641" y2="174.157"/>
		
			<polyline fill="none" stroke="#343433" stroke-width="2.3" stroke-linecap="round" stroke-linejoin="round" stroke-miterlimit="10" points="
			172.282,129.798 172.345,135.026 171.571,136.892 171.491,199.946 		"/>
		
			<polyline fill="none" stroke="#343433" stroke-width="2.3" stroke-linecap="round" stroke-linejoin="round" stroke-miterlimit="10" points="
			134.923,129.729 134.86,134.956 135.634,136.821 135.714,149.282 		"/>
		
			<path fill="none" stroke="#343433" stroke-width="2.3" stroke-linecap="round" stroke-linejoin="round" stroke-miterlimit="10" d="
			M176.823,314.592l0.025-27.775c0-10.766,10.675-19.49,23.845-19.49s23.846,8.725,23.846,19.49l-0.026,27.775"/>
		
			<path fill="none" stroke="#343433" stroke-width="2.3" stroke-linecap="round" stroke-linejoin="round" stroke-miterlimit="10" d="
			M180.445,314.592l0.026-21.998c0-9.131,9.054-16.529,20.222-16.529s20.223,7.398,20.223,16.529l-0.026,21.998"/>
		
			<path fill="none" stroke="#343433" stroke-width="2.3" stroke-linecap="round" stroke-linejoin="round" stroke-miterlimit="10" d="
			M216.954,201.309c0-14.202-7.119-27.154-16.505-30.59c-9.388,3.436-16.506,16.388-16.506,30.59"/>
		
			<path fill="none" stroke="#343433" stroke-width="2.3" stroke-linecap="round" stroke-linejoin="round" stroke-miterlimit="10" d="
			M223.541,197.34v3.969c0-17.393-9.67-33.335-23.092-36.446c-13.423,3.11-23.093,19.053-23.093,36.446v-3.969"/>
		
			<line fill="none" stroke="#343433" stroke-width="2.3" stroke-linecap="round" stroke-linejoin="round" stroke-miterlimit="10" x1="236.744" y1="314.645" x2="159.65" y2="314.645"/>
		
			<path fill="none" stroke="#343433" stroke-width="2.3" stroke-linecap="round" stroke-linejoin="round" stroke-miterlimit="10" d="
			M277.109,119.011l-10.887,53.569c0,0-2.151,10.451-6.455,16.292h34.734c-4.303-5.841-6.455-16.292-6.455-16.292l-10.898-53.607"/>
		
			<path fill="none" stroke="#343433" stroke-width="2.3" stroke-linecap="round" stroke-linejoin="round" stroke-miterlimit="10" d="
			M277.148,119.05l-22.913,58.449c0,0-7.491,16.87-14.196,19.197l19.707-7.809"/>
		
			<path fill="none" stroke="#343433" stroke-width="2.3" stroke-linecap="round" stroke-linejoin="round" stroke-miterlimit="10" d="
			M277.07,118.972l23.888,58.219c0,0,6.471,17.146,13.177,19.472l-19.708-7.808"/>
		
			<polyline fill="none" stroke="#343433" stroke-width="2.3" stroke-linecap="round" stroke-linejoin="round" stroke-miterlimit="10" points="
			263.193,189.01 263.193,198.969 265.297,204.5 265.297,239.436 		"/>
		
			<polyline fill="none" stroke="#343433" stroke-width="2.3" stroke-linecap="round" stroke-linejoin="round" stroke-miterlimit="10" points="
			291.605,189.01 291.605,198.969 289.502,204.5 289.502,239.492 		"/>
		
			<path fill="none" stroke="#343433" stroke-width="2.3" stroke-linecap="round" stroke-linejoin="round" stroke-miterlimit="10" d="
			M263.376,198.862c0,0,2.966-8.416,13.936-8.416s14.345,8.723,14.345,8.723"/>
		
			<polyline fill="none" stroke="#343433" stroke-width="2.3" stroke-linecap="round" stroke-linejoin="round" stroke-miterlimit="10" points="
			243.727,195.293 243.613,204.688 245.003,208.04 245.578,319.82 		"/>
		
			<polyline fill="none" stroke="#343433" stroke-width="2.3" stroke-linecap="round" stroke-linejoin="round" stroke-miterlimit="10" points="
			262.932,188.819 262.932,198.776 261.445,204.211 261.512,239.852 		"/>
		
			<path fill="none" stroke="#343433" stroke-width="2.3" stroke-linecap="round" stroke-linejoin="round" stroke-miterlimit="10" d="
			M243.85,205.102c0,0,2.004-9.09,9.42-11.59s9.697,5.453,9.697,5.453"/>
		
			<line fill="none" stroke="#343433" stroke-width="2.3" stroke-linecap="round" stroke-linejoin="round" stroke-miterlimit="10" x1="316.514" y1="337.193" x2="317.589" y2="351.086"/>
		
			<polyline fill="none" stroke="#343433" stroke-width="2.3" stroke-linecap="round" stroke-linejoin="round" stroke-miterlimit="10" points="
			312.955,314.797 315.08,318.678 315.896,329.223 		"/>
		
			<polyline fill="none" stroke="#343433" stroke-width="2.3" stroke-linecap="round" stroke-linejoin="round" stroke-miterlimit="10" points="
			310.865,195.167 310.977,204.563 309.588,207.915 309.812,307.627 		"/>
		
			<polyline fill="none" stroke="#343433" stroke-width="2.3" stroke-linecap="round" stroke-linejoin="round" stroke-miterlimit="10" points="
			291.658,188.694 291.658,198.651 293.145,204.084 293.08,239.836 		"/>
		
			<path fill="none" stroke="#343433" stroke-width="2.3" stroke-linecap="round" stroke-linejoin="round" stroke-miterlimit="10" d="
			M310.74,204.977c0,0-2.004-9.09-9.42-11.59c-7.415-2.5-9.696,5.453-9.696,5.453"/>
		
			<path fill="none" stroke="#343433" stroke-width="2.3" stroke-linecap="round" stroke-linejoin="round" stroke-miterlimit="10" d="
			M245.397,304.609"/>
		
			<path fill="none" stroke="#343433" stroke-width="2.3" stroke-linecap="round" stroke-linejoin="round" stroke-miterlimit="10" d="
			M309.805,304.609c0-1.102-14.342-1.994-32.359-1.994"/>
		
			<path fill="none" stroke="#343433" stroke-width="2.3" stroke-linecap="round" stroke-linejoin="round" stroke-miterlimit="10" d="
			M309.533,248.793c1.166-0.746,1.797-1.547,1.797-2.381c0-4.086-15.207-7.396-33.967-7.396s-33.969,3.311-33.969,7.396
			c0,0.799,0.582,1.568,1.66,2.291"/>
		
			<path fill="none" stroke="#343433" stroke-width="2.3" stroke-linecap="round" stroke-linejoin="round" stroke-miterlimit="10" d="
			M309.723,265.811c0-2.982-14.342-5.398-32.359-5.398s-32.047,2.416-32.047,5.398"/>
		
			<path fill="none" stroke="#343433" stroke-width="2.3" stroke-linecap="round" stroke-linejoin="round" stroke-miterlimit="10" d="
			M309.723,285.211c0-2.041-14.342-3.699-32.359-3.699s-32.047,1.658-32.047,3.699"/>
		
			<path fill="none" stroke="#343433" stroke-width="2.3" stroke-linecap="round" stroke-linejoin="round" stroke-miterlimit="10" d="
			M289.58,204.096c0-3.078-2.497-5.574-5.575-5.574c-3.079,0-5.575,2.496-5.575,5.574h-1.968c0-3.078-2.495-5.574-5.573-5.574
			c-3.08,0-5.576,2.496-5.576,5.574"/>
		
			<path fill="none" stroke="#343433" stroke-width="2.3" stroke-linecap="round" stroke-linejoin="round" stroke-miterlimit="10" d="
			M286.652,239.309v-23.327c0-5.072-4.112-9.185-9.184-9.185c-5.072,0-9.186,4.112-9.186,9.185v23.327"/>
		
			<path fill="none" stroke="#343433" stroke-width="2.3" stroke-linecap="round" stroke-linejoin="round" stroke-miterlimit="10" d="
			M261.376,203.102c-0.167-2.744-2.02-4.572-4.136-4.085s-3.697,3.106-3.529,5.851l-1.352,0.311
			c-0.168-2.744-2.021-4.572-4.137-4.086c-2.117,0.487-3.696,3.106-3.528,5.851"/>
		
			<path fill="none" stroke="#343433" stroke-width="2.3" stroke-linecap="round" stroke-linejoin="round" stroke-miterlimit="10" d="
			M258.539,240.227v-24.058c0-5.071-2.428-8.648-5.423-7.99c-2.995,0.659-5.424,5.305-5.424,10.377v23.326"/>
		
			<path fill="none" stroke="#343433" stroke-width="2.3" stroke-linecap="round" stroke-linejoin="round" stroke-miterlimit="10" d="
			M292.748,203.102c0.167-2.744,2.02-4.572,4.137-4.085c2.115,0.487,3.695,3.106,3.527,5.851l1.354,0.311
			c0.168-2.744,2.02-4.572,4.136-4.086c2.118,0.487,3.696,3.106,3.528,5.851"/>
		
			<path fill="none" stroke="#343433" stroke-width="2.3" stroke-linecap="round" stroke-linejoin="round" stroke-miterlimit="10" d="
			M295.584,239.496v-23.328c0-5.071,2.43-8.648,5.424-7.99c2.995,0.659,5.424,5.305,5.424,10.377v23.326"/>
		
			<polyline fill="none" stroke="#343433" stroke-width="2.3" stroke-linecap="round" stroke-linejoin="round" stroke-miterlimit="10" points="
			378.104,310.428 306.254,310.912 240.826,299.562 		"/>
		
			<polyline fill="none" stroke="#343433" stroke-width="2.3" stroke-linecap="round" stroke-linejoin="round" stroke-miterlimit="10" points="
			240.756,308.074 306.222,332.809 378.104,332.809 		"/>
		
			<polyline fill="none" stroke="#343433" stroke-width="2.3" stroke-linecap="round" stroke-linejoin="round" stroke-miterlimit="10" points="
			346.104,354.609 306.045,354.631 237.135,314.574 		"/>
		
			<line fill="none" stroke="#343433" stroke-width="2.3" stroke-linecap="round" stroke-linejoin="round" stroke-miterlimit="10" x1="306.218" y1="311.037" x2="306.218" y2="355.268"/>
		
			<line fill="none" stroke="#343433" stroke-width="2.3" stroke-linecap="round" stroke-linejoin="round" stroke-miterlimit="10" x1="285.49" y1="307.086" x2="285.49" y2="342.865"/>
		
			<line fill="none" stroke="#343433" stroke-width="2.3" stroke-linecap="round" stroke-linejoin="round" stroke-miterlimit="10" x1="271.042" y1="304.627" x2="271.042" y2="334.412"/>
		
			<line fill="none" stroke="#343433" stroke-width="2.3" stroke-linecap="round" stroke-linejoin="round" stroke-miterlimit="10" x1="258.9" y1="302.781" x2="258.9" y2="327.342"/>
		
			<line fill="none" stroke="#343433" stroke-width="2.3" stroke-linecap="round" stroke-linejoin="round" stroke-miterlimit="10" x1="251.369" y1="301.246" x2="251.369" y2="323.039"/>
		
			<line fill="none" stroke="#343433" stroke-width="2.3" stroke-linecap="round" stroke-linejoin="round" stroke-miterlimit="10" x1="240.611" y1="299.557" x2="240.611" y2="316.738"/>
		
			<line fill="none" stroke="#343433" stroke-width="2.3" stroke-linecap="round" stroke-linejoin="round" stroke-miterlimit="10" x1="245.529" y1="300.373" x2="245.529" y2="319.451"/>
		
			<path fill="none" stroke="#343433" stroke-width="2.3" stroke-linecap="round" stroke-linejoin="round" stroke-miterlimit="10" d="
			M124.088,119.011l10.886,53.569c0,0,2.151,10.451,6.455,16.292h-34.734c4.304-5.841,6.455-16.292,6.455-16.292l10.899-53.607"/>
		
			<path fill="none" stroke="#343433" stroke-width="2.3" stroke-linecap="round" stroke-linejoin="round" stroke-miterlimit="10" d="
			M124.049,119.05l22.913,58.449c0,0,7.49,16.87,14.196,19.197l-19.708-7.809"/>
		
			<path fill="none" stroke="#343433" stroke-width="2.3" stroke-linecap="round" stroke-linejoin="round" stroke-miterlimit="10" d="
			M124.127,118.972l-23.888,58.219c0,0-6.472,17.146-13.178,19.472l19.708-7.808"/>
		
			<polyline fill="none" stroke="#343433" stroke-width="2.3" stroke-linecap="round" stroke-linejoin="round" stroke-miterlimit="10" points="
			138.003,189.01 138.003,198.969 135.9,204.5 135.9,240.512 		"/>
		
			<polyline fill="none" stroke="#343433" stroke-width="2.3" stroke-linecap="round" stroke-linejoin="round" stroke-miterlimit="10" points="
			109.592,189.01 109.592,198.969 111.694,204.5 111.694,240.102 		"/>
		
			<path fill="none" stroke="#343433" stroke-width="2.3" stroke-linecap="round" stroke-linejoin="round" stroke-miterlimit="10" d="
			M137.82,198.862c0,0-2.965-8.416-13.936-8.416c-10.97,0-14.345,8.723-14.345,8.723"/>
		
			<polyline fill="none" stroke="#343433" stroke-width="2.3" stroke-linecap="round" stroke-linejoin="round" stroke-miterlimit="10" points="
			157.471,195.293 157.584,204.688 156.193,208.04 155.619,319.82 		"/>
		
			<polyline fill="none" stroke="#343433" stroke-width="2.3" stroke-linecap="round" stroke-linejoin="round" stroke-miterlimit="10" points="
			138.265,188.819 138.265,198.776 139.751,204.211 139.687,240.387 		"/>
		
			<path fill="none" stroke="#343433" stroke-width="2.3" stroke-linecap="round" stroke-linejoin="round" stroke-miterlimit="10" d="
			M157.347,205.102c0,0-2.003-9.09-9.419-11.59s-9.697,5.453-9.697,5.453"/>
		
			<line fill="none" stroke="#343433" stroke-width="2.3" stroke-linecap="round" stroke-linejoin="round" stroke-miterlimit="10" x1="84.684" y1="337.193" x2="83.608" y2="351.086"/>
		
			<polyline fill="none" stroke="#343433" stroke-width="2.3" stroke-linecap="round" stroke-linejoin="round" stroke-miterlimit="10" points="
			88.243,314.797 86.118,318.678 85.301,329.223 		"/>
		
			<polyline fill="none" stroke="#343433" stroke-width="2.3" stroke-linecap="round" stroke-linejoin="round" stroke-miterlimit="10" points="
			90.332,195.167 90.22,204.563 91.609,207.915 91.384,307.627 		"/>
		
			<polyline fill="none" stroke="#343433" stroke-width="2.3" stroke-linecap="round" stroke-linejoin="round" stroke-miterlimit="10" points="
			109.538,188.694 109.538,198.651 108.052,204.084 108.117,240.262 		"/>
		
			<path fill="none" stroke="#343433" stroke-width="2.3" stroke-linecap="round" stroke-linejoin="round" stroke-miterlimit="10" d="
			M90.456,204.977c0,0,2.004-9.09,9.42-11.59c7.415-2.5,9.697,5.453,9.697,5.453"/>
		
			<path fill="none" stroke="#343433" stroke-width="2.3" stroke-linecap="round" stroke-linejoin="round" stroke-miterlimit="10" d="
			M155.799,304.609"/>
		
			<path fill="none" stroke="#343433" stroke-width="2.3" stroke-linecap="round" stroke-linejoin="round" stroke-miterlimit="10" d="
			M91.392,304.609c0-1.102,14.342-1.994,32.36-1.994"/>
		
			<path fill="none" stroke="#343433" stroke-width="2.3" stroke-linecap="round" stroke-linejoin="round" stroke-miterlimit="10" d="
			M91.663,248.793c-1.165-0.746-1.797-1.547-1.797-2.381c0-4.086,15.208-7.396,33.968-7.396s33.968,3.311,33.968,7.396
			c0,0.799-0.582,1.568-1.659,2.291"/>
		
			<path fill="none" stroke="#343433" stroke-width="2.3" stroke-linecap="round" stroke-linejoin="round" stroke-miterlimit="10" d="
			M91.474,265.811c0-2.982,14.343-5.398,32.36-5.398s32.047,2.416,32.047,5.398"/>
		
			<path fill="none" stroke="#343433" stroke-width="2.3" stroke-linecap="round" stroke-linejoin="round" stroke-miterlimit="10" d="
			M91.474,285.211c0-2.041,14.343-3.699,32.36-3.699s32.047,1.658,32.047,3.699"/>
		
			<path fill="none" stroke="#343433" stroke-width="2.3" stroke-linecap="round" stroke-linejoin="round" stroke-miterlimit="10" d="
			M111.617,204.096c0-3.078,2.496-5.574,5.574-5.574c3.079,0,5.575,2.496,5.575,5.574h1.968c0-3.078,2.496-5.574,5.575-5.574
			c3.078,0,5.574,2.496,5.574,5.574"/>
		
			<path fill="none" stroke="#343433" stroke-width="2.3" stroke-linecap="round" stroke-linejoin="round" stroke-miterlimit="10" d="
			M114.545,239.309v-23.327c0-5.072,4.111-9.185,9.184-9.185s9.185,4.112,9.185,9.185v23.327"/>
		
			<path fill="none" stroke="#343433" stroke-width="2.3" stroke-linecap="round" stroke-linejoin="round" stroke-miterlimit="10" d="
			M139.82,203.102c0.167-2.744,2.02-4.572,4.137-4.085c2.115,0.487,3.696,3.106,3.528,5.851l1.353,0.311
			c0.168-2.744,2.02-4.572,4.136-4.086c2.117,0.487,3.696,3.106,3.528,5.851"/>
		
			<path fill="none" stroke="#343433" stroke-width="2.3" stroke-linecap="round" stroke-linejoin="round" stroke-miterlimit="10" d="
			M142.657,239.496v-23.328c0-5.071,2.428-8.648,5.423-7.99c2.996,0.659,5.424,5.305,5.424,10.377v23.326"/>
		
			<path fill="none" stroke="#343433" stroke-width="2.3" stroke-linecap="round" stroke-linejoin="round" stroke-miterlimit="10" d="
			M108.449,203.102c-0.168-2.744-2.02-4.572-4.138-4.085c-2.115,0.487-3.695,3.106-3.527,5.851l-1.353,0.311
			c-0.168-2.744-2.021-4.572-4.137-4.086c-2.117,0.487-3.696,3.106-3.528,5.851"/>
		
			<path fill="none" stroke="#343433" stroke-width="2.3" stroke-linecap="round" stroke-linejoin="round" stroke-miterlimit="10" d="
			M105.612,239.496v-23.328c0-5.071-2.429-8.648-5.424-7.99c-2.995,0.659-5.424,5.305-5.424,10.377v23.326"/>
		
			<polyline fill="none" stroke="#343433" stroke-width="2.3" stroke-linecap="round" stroke-linejoin="round" stroke-miterlimit="10" points="
			23.854,310.912 94.942,310.912 160.371,299.562 		"/>
		
			<polyline fill="none" stroke="#343433" stroke-width="2.3" stroke-linecap="round" stroke-linejoin="round" stroke-miterlimit="10" points="
			160.44,308.074 94.975,332.809 23.854,332.809 		"/>
		
			<polyline fill="none" stroke="#343433" stroke-width="2.3" stroke-linecap="round" stroke-linejoin="round" stroke-miterlimit="10" points="
			55.854,354.609 95.151,354.631 164.062,314.574 		"/>
		
			<line fill="none" stroke="#343433" stroke-width="2.3" stroke-linecap="round" stroke-linejoin="round" stroke-miterlimit="10" x1="94.979" y1="311.037" x2="94.979" y2="355.268"/>
		
			<line fill="none" stroke="#343433" stroke-width="2.3" stroke-linecap="round" stroke-linejoin="round" stroke-miterlimit="10" x1="115.707" y1="307.086" x2="115.707" y2="342.865"/>
		
			<line fill="none" stroke="#343433" stroke-width="2.3" stroke-linecap="round" stroke-linejoin="round" stroke-miterlimit="10" x1="130.154" y1="304.627" x2="130.154" y2="334.412"/>
		
			<line fill="none" stroke="#343433" stroke-width="2.3" stroke-linecap="round" stroke-linejoin="round" stroke-miterlimit="10" x1="142.296" y1="302.781" x2="142.296" y2="327.342"/>
		
			<line fill="none" stroke="#343433" stroke-width="2.3" stroke-linecap="round" stroke-linejoin="round" stroke-miterlimit="10" x1="149.827" y1="301.246" x2="149.827" y2="323.039"/>
		
			<line fill="none" stroke="#343433" stroke-width="2.3" stroke-linecap="round" stroke-linejoin="round" stroke-miterlimit="10" x1="160.585" y1="299.557" x2="160.585" y2="316.738"/>
		
			<line fill="none" stroke="#343433" stroke-width="2.3" stroke-linecap="round" stroke-linejoin="round" stroke-miterlimit="10" x1="155.668" y1="300.373" x2="155.668" y2="319.451"/>
	</g>
	<g>
		<circle fill="#343433" cx="270.991" cy="304.828" r="2.311"/>
		<circle fill="#343433" cx="258.951" cy="302.684" r="2.312"/>
		<circle fill="#343433" cx="251.363" cy="301.328" r="2.311"/>
		<path fill="#343433" d="M247.953,300.373c0-1.275-1.034-2.309-2.311-2.309c-1.277,0-2.311,1.033-2.311,2.309
			c0,1.279,1.033,2.312,2.311,2.312C246.919,302.686,247.953,301.652,247.953,300.373z"/>
		<circle fill="#343433" cx="240.689" cy="299.629" r="2.312"/>
		<circle fill="#343433" cx="306.114" cy="311.107" r="2.312"/>
		<circle fill="#343433" cx="285.489" cy="307.572" r="2.311"/>
		<path fill="#343433" d="M308.293,356.084c0.44-1.197-0.174-2.527-1.372-2.967c-1.198-0.441-2.527,0.174-2.968,1.373
			c-0.439,1.195,0.175,2.525,1.373,2.967C306.524,357.896,307.853,357.281,308.293,356.084z"/>
		<circle fill="#343433" cx="285.367" cy="342.816" r="2.312"/>
		<circle fill="#343433" cx="270.963" cy="334.318" r="2.312"/>
		<circle fill="#343433" cx="258.814" cy="327.23" r="2.312"/>
		<circle fill="#343433" cx="251.237" cy="322.828" r="2.311"/>
		<circle fill="#343433" cx="245.53" cy="319.5" r="2.311"/>
		<circle fill="#343433" cx="240.626" cy="316.682" r="2.311"/>
		<circle fill="#343433" cx="130.206" cy="304.828" r="2.312"/>
		<circle fill="#343433" cx="142.246" cy="302.684" r="2.311"/>
		<circle fill="#343433" cx="149.833" cy="301.328" r="2.311"/>
		<path fill="#343433" d="M153.243,300.373c0-1.275,1.034-2.309,2.312-2.309c1.276,0,2.311,1.033,2.311,2.309
			c0,1.279-1.034,2.312-2.311,2.312C154.277,302.686,153.243,301.652,153.243,300.373z"/>
		<circle fill="#343433" cx="160.507" cy="299.629" r="2.311"/>
		<circle fill="#343433" cx="95.083" cy="311.107" r="2.311"/>
		<circle fill="#343433" cx="115.708" cy="307.572" r="2.312"/>
		<path fill="#343433" d="M92.903,356.084c-0.44-1.197,0.175-2.527,1.373-2.967c1.198-0.441,2.526,0.174,2.967,1.373
			c0.44,1.195-0.175,2.525-1.373,2.967C94.672,357.896,93.345,357.281,92.903,356.084z"/>
		<circle fill="#343433" cx="115.83" cy="342.816" r="2.311"/>
		<circle fill="#343433" cx="130.233" cy="334.318" r="2.312"/>
		<circle fill="#343433" cx="142.382" cy="327.23" r="2.311"/>
		<circle fill="#343433" cx="149.959" cy="322.828" r="2.311"/>
		<circle fill="#343433" cx="155.667" cy="319.5" r="2.311"/>
		<circle fill="#343433" cx="160.571" cy="316.682" r="2.312"/>
	</g>
	<g>
		<path d="M163.578,215.622c0.44,0,0.797-0.357,0.797-0.797v-3.928l3.227,4.231c0.22,0.282,0.45,0.472,0.838,0.472h0.053
			c0.45,0,0.806-0.355,0.806-0.807v-5.836c0-0.439-0.355-0.796-0.796-0.796c-0.439,0-0.796,0.356-0.796,0.796v3.782l-3.111-4.085
			c-0.22-0.283-0.451-0.472-0.838-0.472h-0.168c-0.45,0-0.807,0.356-0.807,0.808v5.834
			C162.782,215.264,163.139,215.622,163.578,215.622z"/>
		<path d="M174.625,215.684c2.263,0,3.907-1.707,3.907-3.793v-0.021c0-2.085-1.624-3.771-3.887-3.771s-3.908,1.707-3.908,3.791
			v0.021C170.737,213.997,172.361,215.684,174.625,215.684z M172.425,211.871c0-1.257,0.9-2.284,2.2-2.284
			c1.298,0,2.221,1.049,2.221,2.305v0.021c0,1.258-0.901,2.283-2.2,2.283s-2.221-1.047-2.221-2.305V211.871z"/>
		<path d="M180.779,215.558h2.053c2.305,0,3.897-1.603,3.897-3.667v-0.021c0-2.063-1.593-3.646-3.897-3.646h-2.053
			c-0.451,0-0.808,0.356-0.808,0.807v5.72C179.972,215.202,180.328,215.558,180.779,215.558z M181.585,209.681h1.247
			c1.319,0,2.21,0.911,2.21,2.21v0.021c0,1.299-0.891,2.189-2.21,2.189h-1.247V209.681z"/>
		<path d="M188.976,215.558h4.117c0.397,0,0.723-0.313,0.723-0.712s-0.325-0.724-0.723-0.724h-3.321v-1.54h2.797
			c0.398,0,0.724-0.313,0.724-0.712s-0.325-0.723-0.724-0.723h-2.797v-1.487h3.269c0.398,0,0.724-0.314,0.724-0.713
			c0-0.397-0.325-0.723-0.724-0.723h-4.064c-0.45,0-0.807,0.356-0.807,0.807v5.72C188.169,215.202,188.525,215.558,188.976,215.558z
			"/>
		<path d="M195.045,214.784c0.817,0.586,1.792,0.879,2.755,0.879c1.582,0,2.692-0.816,2.692-2.273v-0.021
			c0-1.277-0.838-1.811-2.325-2.199c-1.268-0.324-1.582-0.482-1.582-0.964v-0.021c0-0.357,0.325-0.639,0.943-0.639
			c0.503,0,1.006,0.178,1.54,0.492c0.125,0.074,0.251,0.115,0.408,0.115c0.419,0,0.754-0.326,0.754-0.744
			c0-0.314-0.178-0.534-0.355-0.639c-0.66-0.419-1.436-0.65-2.326-0.65c-1.498,0-2.566,0.881-2.566,2.211v0.021
			c0,1.456,0.953,1.865,2.43,2.241c1.227,0.316,1.478,0.525,1.478,0.933v0.022c0,0.43-0.397,0.691-1.058,0.691
			c-0.713,0-1.32-0.252-1.876-0.66c-0.104-0.074-0.251-0.147-0.46-0.147c-0.42,0-0.755,0.325-0.755,0.745
			C194.741,214.426,194.867,214.657,195.045,214.784z"/>
		<path d="M205.336,215.684c1.174,0,1.948-0.346,2.608-0.922c0.147-0.127,0.272-0.324,0.272-0.576c0-0.408-0.346-0.744-0.754-0.744
			c-0.189,0-0.356,0.073-0.482,0.179c-0.461,0.366-0.911,0.575-1.592,0.575c-1.257,0-2.127-1.047-2.127-2.305v-0.021
			c0-1.257,0.891-2.284,2.127-2.284c0.576,0,1.047,0.189,1.498,0.525c0.115,0.072,0.262,0.156,0.482,0.156
			c0.439,0,0.796-0.346,0.796-0.786c0-0.282-0.146-0.513-0.314-0.639c-0.608-0.45-1.352-0.743-2.452-0.743
			c-2.252,0-3.823,1.707-3.823,3.791v0.021C201.575,214.018,203.178,215.684,205.336,215.684z"/>
		<path d="M210.442,215.622c0.45,0,0.807-0.357,0.807-0.807v-2.2h2.976v2.2c0,0.449,0.355,0.807,0.806,0.807
			s0.807-0.357,0.807-0.807v-5.846c0-0.451-0.356-0.808-0.807-0.808s-0.806,0.356-0.806,0.808v2.158h-2.976v-2.158
			c0-0.451-0.356-0.808-0.807-0.808c-0.451,0-0.807,0.356-0.807,0.808v5.846C209.636,215.264,209.991,215.622,210.442,215.622z"/>
		<path d="M221.164,215.684c2.263,0,3.907-1.707,3.907-3.793v-0.021c0-2.085-1.624-3.771-3.887-3.771s-3.907,1.707-3.907,3.791
			v0.021C217.277,213.997,218.901,215.684,221.164,215.684z M218.963,211.871c0-1.257,0.902-2.284,2.201-2.284
			s2.221,1.049,2.221,2.305v0.021c0,1.258-0.901,2.283-2.2,2.283s-2.222-1.047-2.222-2.305V211.871z"/>
		<path d="M230.072,215.684c2.264,0,3.908-1.707,3.908-3.793v-0.021c0-2.085-1.624-3.771-3.887-3.771s-3.908,1.707-3.908,3.791
			v0.021C226.186,213.997,227.81,215.684,230.072,215.684z M227.873,211.871c0-1.257,0.9-2.284,2.199-2.284
			c1.3,0,2.222,1.049,2.222,2.305v0.021c0,1.258-0.901,2.283-2.2,2.283s-2.221-1.047-2.221-2.305V211.871z"/>
		<path d="M236.227,215.558h3.793c0.408,0,0.732-0.325,0.732-0.733s-0.324-0.732-0.732-0.732h-2.985v-5.123
			c0-0.451-0.356-0.808-0.808-0.808c-0.45,0-0.807,0.356-0.807,0.808v5.782C235.42,215.202,235.776,215.558,236.227,215.558z"/>
	</g>
	<g>
		<path fill="#343433" d="M277.123,391.9c-0.512-0.891-1.65-1.193-2.537-0.68l-66.35,38.307l28.219-36
			c0.633-0.809,0.49-1.977-0.316-2.607c-0.809-0.631-1.975-0.492-2.607,0.314l-30.819,39.32v-38.432
			c0-1.025-0.832-1.857-1.856-1.857c-1.025,0-1.857,0.832-1.857,1.857v38.43l-30.82-39.318c-0.633-0.807-1.798-0.947-2.608-0.314
			c-0.806,0.631-0.947,1.799-0.315,2.607l28.219,36l-67.573-39.014c-0.888-0.512-2.024-0.209-2.537,0.68
			c-0.512,0.889-0.209,2.023,0.68,2.537l75.884,43.811c0.019,0.01,0.039,0.014,0.057,0.023c0.066,0.035,0.133,0.062,0.203,0.09
			c0.022,0.01,0.04,0.025,0.063,0.035c0.019,0.006,0.039,0.004,0.058,0.01c0.035,0.01,0.067,0.023,0.102,0.033
			c0.145,0.035,0.291,0.057,0.439,0.057l0.008,0.002l0,0l0,0c0,0,0.002-0.002,0.004-0.002c0.15,0,0.299-0.021,0.443-0.057
			c0.031-0.008,0.061-0.021,0.092-0.031c0.042-0.012,0.081-0.029,0.122-0.045c0.071-0.027,0.142-0.055,0.211-0.092
			c0.019-0.01,0.038-0.014,0.056-0.023l74.66-43.105C277.332,393.924,277.635,392.789,277.123,391.9z"/>
		<circle fill="#343433" cx="284.001" cy="388.404" r="2.327"/>
		<circle fill="#343433" cx="117.61" cy="387.932" r="2.328"/>
		<path fill="#343433" d="M153.395,382.496c-0.438-0.531-0.366-1.295,0.163-1.736c0.529-0.439,1.297-0.367,1.735,0.164l2.103,2.539
			l3.503-2.9l-2.104-2.539c-0.439-0.529-0.368-1.295,0.163-1.734c0.529-0.439,1.296-0.367,1.734,0.164l5.697,6.877
			c0.438,0.531,0.367,1.297-0.162,1.736c-0.531,0.438-1.297,0.365-1.736-0.164l-2.144-2.59l-3.501,2.9l2.144,2.59
			c0.438,0.529,0.367,1.297-0.163,1.734c-0.529,0.439-1.297,0.367-1.735-0.162L153.395,382.496z"/>
		<path fill="#343433" d="M195.381,379.318l3.905-8.818c0.272-0.609,0.769-0.977,1.44-0.977h0.145c0.672,0,1.152,0.367,1.425,0.977
			l3.905,8.818c0.08,0.176,0.129,0.336,0.129,0.496c0,0.656-0.512,1.186-1.168,1.186c-0.578,0-0.962-0.336-1.186-0.85l-0.753-1.76
			h-4.93l-0.784,1.84c-0.208,0.48-0.624,0.77-1.137,0.77c-0.641,0-1.137-0.512-1.137-1.152
			C195.236,379.672,195.301,379.494,195.381,379.318z M202.312,376.213l-1.553-3.697l-1.553,3.697H202.312z"/>
		<path fill="#343433" d="M244.02,376.086c0.447-0.521,1.215-0.582,1.738-0.135l2.955,2.529c1.082,0.926,1.66,1.949,1.74,2.986
			c0.068,0.881-0.248,1.768-0.934,2.57l-0.023,0.025c-1.143,1.336-2.52,1.59-3.918,1.131l-0.053,2.695
			c-0.016,0.387-0.061,0.686-0.311,0.979c-0.447,0.521-1.176,0.488-1.625,0.104c-0.426-0.365-0.529-0.812-0.508-1.279l0.152-3.871
			l-1.494-1.279l-1.594,1.859c-0.447,0.523-1.215,0.582-1.738,0.135c-0.521-0.447-0.582-1.215-0.135-1.736L244.02,376.086z
			 M245.051,382.512c0.912,0.779,1.852,0.74,2.467,0.023l0.02-0.023c0.688-0.803,0.482-1.695-0.43-2.477l-1.861-1.592l-2.092,2.443
			L245.051,382.512z"/>
	</g>
</g>
</svg>
