<?xml version="1.0" standalone="no"?><!DOCTYPE svg PUBLIC "-//W3C//DTD SVG 1.1//EN" "http://www.w3.org/Graphics/SVG/1.1/DTD/svg11.dtd"><svg width="100%" height="100%" viewBox="0 0 519 600" version="1.1" xmlns="http://www.w3.org/2000/svg" xmlns:xlink="http://www.w3.org/1999/xlink" xml:space="preserve" style="fill-rule:evenodd;clip-rule:evenodd;stroke-linejoin:round;stroke-miterlimit:1.41421;"><path id="rest-of-the-fucking-owl" d="M512.941,147.34l-248.882,-144.625c-2.816,-1.62 -6.302,-1.62 -9.118,0l-248.882,144.625c-2.816,1.621 -4.559,4.727 -4.559,7.968l0,289.384c0,3.241 1.743,6.347 4.559,7.968l248.882,144.625c1.475,0.81 2.95,1.215 4.559,1.215c1.609,0 3.218,-0.405 4.559,-1.215l248.882,-144.625c2.816,-1.621 4.559,-4.727 4.559,-7.968l0,-289.384c0,-3.241 -1.743,-6.347 -4.559,-7.968Z" style="fill:url(#_Linear1);fill-rule:nonzero;"/><g id="birds"><path d="M144.017,209.642c6.349,0.241 13.074,-5.141 19.092,3.73c2.027,-13.702 10.549,-9.317 16.566,-10.167c-7.212,4.208 -15.194,3.108 -15.338,14.755c-7.198,-10.146 -13.214,-5.152 -20.32,-8.318Z" style="fill:#cdcdcd;"/><path d="M171.502,227.305c5.207,0.198 6.436,-8.09 11.372,-0.814c1.663,-11.238 6.242,-2.572 11.177,-3.27c-5.916,3.452 -10.536,-3.655 -10.654,5.898c-5.904,-8.321 -6.067,0.783 -11.895,-1.814Z" style="fill:#cdcdcd;"/><path d="M141.945,227.314c4.361,0.165 9.378,-1.753 13.511,4.34c1.393,-9.412 6.849,-8.178 10.983,-8.762c-4.955,2.89 -10.438,2.135 -10.536,10.135c-4.945,-6.969 -9.077,-3.539 -13.958,-5.713Z" style="fill:#cdcdcd;"/></g><g id="sutro + hills"><path d="M445.715,285.161l-0.088,38.212c0.088,1.666 0.549,2.337 1.463,2.459l4.628,1.096c0.685,0.227 1.145,-0.987 1.136,-1.806l-2.712,-37.692c-0.41,-1.369 -1.334,-2.079 -2.602,-2.345l-1.825,0.076ZM436.047,286.445l-3.752,39.346c-0.024,0.6 0.352,0.953 1.022,1.125l8.041,-1.218c0.503,-0.129 1.012,-0.708 1.341,-2.149l0.047,-38.542l-4.435,-0.051c-0.973,0.113 -1.802,0.479 -2.264,1.489ZM445.974,256.871l-0.338,19.929c0.052,1.249 0.366,2.011 0.883,2.395l2.625,0.774c0.574,0.158 0.904,-0.518 1.123,-1.572l1.878,-20.098l-4.86,-1.701c-0.977,-0.325 -1.339,-0.177 -1.311,0.273ZM434.101,257.959l1.957,20.788c0.017,0.935 0.477,1.251 1.219,1.174l4.289,-0.801c0.645,-0.177 1.049,-0.945 1.231,-2.258l0.173,-20.261c0.046,-0.587 -0.26,-0.684 -0.891,-0.478l-7.978,1.836ZM446.236,230.477l-0.219,21.1l6.76,2.138l2.164,-23.311l-8.705,0.073ZM431.478,230.413l2.311,23.273l9.235,-1.972l0.455,-21.319l-12.001,0.018ZM425.751,370.469l8.184,-85.968l0,-3.656l-4.9,-50.408l-9.735,-0.077l-2.999,-4.494l12.33,0l1.251,-56.669l0.934,0l0.111,56.592l12.617,0l1.008,-61.38l1.131,-0.022l1.138,61.367l8.474,0l0.888,-56.068l1.255,0l0.405,56.187l12.679,0l-2.739,4.556l-10.139,-0.051l-5.222,50.164l-0.096,3.326l7.056,90.188l-2.934,0l-2.73,-39.388c-0.282,-1.249 -1.023,-2.02 -2.386,-2.462l-5.508,-0.052l0.03,41.448l-3.075,0l0.103,-41.509l-8.972,0c-1.47,0.103 -2.326,0.821 -2.286,2.436l-3.369,36.181l-2.504,-0.241Z" style="fill:#2d5d81;"/><path d="M400.925,497.194c-36.465,-8.612 -62.823,-33.292 -62.823,-62.362c0,-35.366 39.015,-64.236 87.777,-65.577c12.445,-21.485 40.329,-37.211 73.674,-40.007l0,110.543l-98.628,57.403Z" style="fill:#2d5d81;"/></g><g id="transamerica + city"><g><path d="M76.861,473.207l-46.316,-26.956l0,-119.961l46.316,0l0,146.917Z" style="fill:#5d96c2;"/><path d="M78.213,473.994l-57.095,-33.23l0,-77.117l57.095,0l0,110.347Z" style="fill:#2d5d81;"/><path d="M99.414,486.333l-46.316,-26.956l0,-115.579l46.316,0l0,142.535Z" style="fill:#396c92;"/><rect x="190.463" y="332.671" width="57.095" height="143.972" style="fill:#4286ba;"/><rect x="147.372" y="299.355" width="46.316" height="171.66" style="fill:#3e7eb0;"/><rect x="115.391" y="359.607" width="57.095" height="143.972" style="fill:#417ca9;"/><rect x="169.262" y="312.822" width="46.316" height="171.66" style="fill:#5d96c2;"/></g><g><path d="M55.351,460.688l21.574,-116.045l2.156,-50.423l2.794,-1.131l5.19,-3.208l13.02,-68.142l2.01,-0.918l1.132,0.16l1.451,1.197l8.594,63.226l1.35,0.168l2.018,-0.447l6.162,4.072l-0.481,65.251l17.29,131.021l-30.947,-8.813l-2.835,-0.146l-20.583,1.577l-29.895,-17.399Z" style="fill:#eeddc1;"/><path d="M106.228,287.485l10.412,-2.36l-1.349,120.482l-9.063,-118.122Z" style="fill:#6d6b6e;"/><path d="M85.246,478.087l-29.895,-17.399l21.574,-116.045l10.284,-55.033l12.876,-67.871l2.01,-0.918l0.877,65.182l2.857,190.507l-20.583,1.577Z" style="fill:#576271;"/><path d="M87.215,289.641l-10.29,55.002l2.066,-50.692l2.648,-0.696l5.576,-3.614Z" style="fill:#6d6b6e;"/><path d="M87.185,289.641l-0.359,2.393l-5.53,1.348l5.889,-3.741Z" style="fill:#334b5e;"/><path d="M106.149,284.418l0.159,2.968l8.278,-1.717l-8.437,-1.251Z" style="fill:#3a5567;"/></g></g><g id="fog background"><g><path d="M101.842,487.746l-82.395,-47.955l0,-47.633c21.709,-14.169 38.063,-6.845 50.373,16.707c31.425,4.682 38.909,20.79 26.146,46.709c9.508,10.268 12.12,22.417 5.876,32.172Z" style="fill:#f1f1ef;"/><path d="M66.821,451.21c-8.105,-12.198 -18.173,-17.604 -30.077,-18.324c15.431,-4.801 31.093,6.686 30.077,18.324ZM69.091,468.685l-49.644,-28.894l0,-35.193c18.203,-2.931 27.933,-0.135 31.483,6.84c-5.514,0.659 -10.655,1.65 -15.04,4.057c0,0 4.057,2.555 8.106,2.707c9.197,0.347 12.906,-0.903 18.412,1.659c6.965,3.242 11.371,9.822 13.487,8.891c2.467,-2.779 -0.317,-7.11 -7.375,-12.706c11.524,-2.404 27.465,4.221 31.538,9.287c2.515,3.13 2.065,5.796 0.835,12.458c-1.073,5.81 -5.355,11.657 -7.736,13.921c-4.05,3.851 -23.852,2.02 -23.852,2.02c3.395,6.175 3.183,11.111 -0.214,14.953Z" style="fill:#e2e3dd;"/><path d="M102.098,487.895l-33.007,-19.21c3.397,-3.842 3.609,-8.778 0.214,-14.953c0,0 19.802,1.831 23.852,-2.02c2.381,-2.264 6.663,-8.111 7.736,-13.921c1.23,-6.662 -0.835,-12.458 -0.835,-12.458c5.867,8.804 -0.69,22.212 -3.66,27.378c-1.548,2.693 -0.062,5.579 0.918,6.683c5.21,5.867 8.887,11.492 7.369,19.07c0.031,4.441 -0.799,7.443 -2.587,9.431Z" style="fill:#d4d7ce;"/></g><g><path d="M207.15,549.036l-138.776,-80.769c-10.163,-23.661 -1.908,-38.404 27.927,-42.849c12.82,-24.528 30.027,-31.455 53.101,-14.834c26.218,-9.986 43.615,-8.895 50.102,5.898c15.937,-10.518 32.976,-9.674 51.808,9.643c24.094,0.39 26.327,1.921 32.508,22.824c0,0 6.466,13.75 1.813,25.221c-2.455,6.053 -11.163,9.184 -15.737,13.319c-4.637,4.192 -5.122,9.35 -4.963,9.854c6.448,20.358 -9.042,22.432 -33.649,23.366c-6.078,0.231 -12.57,3.681 -16.047,10.716c-2.355,8.018 -4.913,13.718 -8.087,17.611Z" style="fill:#f1f1ef;"/><path d="M99.3,467.762c8.105,-12.197 18.173,-17.603 30.077,-18.323c-15.431,-4.802 -31.093,6.686 -30.077,18.323ZM240.687,441.57c10.646,4.608 11.922,11.128 7.088,20.852c9.802,-10.436 7.595,-18.124 -7.088,-20.852ZM96.558,484.671c-2.937,-3.757 -2.972,-8.511 0.259,-14.387c0,0 -19.803,1.832 -23.853,-2.02c-2.381,-2.263 -6.663,-8.11 -7.736,-13.92c-1.23,-6.662 -1.68,-9.328 0.836,-12.458c4.072,-5.066 20.013,-11.692 31.538,-9.288c-7.059,5.597 -9.843,9.928 -7.376,12.706c2.116,0.931 6.522,-5.648 13.487,-8.89c5.506,-2.563 9.215,-1.312 18.412,-1.659c4.049,-0.152 8.106,-2.707 8.106,-2.707c-4.385,-2.407 -9.526,-3.398 -15.04,-4.058c4.124,-8.101 16.587,-10.565 40.983,-4.963c22.035,-2.841 30.57,-3.01 35.002,3.406c1.285,1.859 -1.009,5.348 -3.305,6.157c-2.208,0.779 -12.928,0.892 -21.509,2.35c-8.157,1.387 -13.013,3.784 -13.109,6.159c23.574,-7.695 37.438,-4.366 33.11,19.62c2.326,-10.818 10.046,-17.057 24.924,-20.292c-3.755,-2.08 -11.086,-1.755 -20.527,-0.011c0.47,-3.949 1.592,-7.612 4.148,-10.643c8.734,-9.867 24.366,-0.463 28.389,1.763c4.469,2.474 14.816,1.846 21.032,2.356c7.452,0.61 11.626,12.921 14.987,16.791c2.19,2.521 3.032,-7.797 6.493,-10.228c1.546,-1.086 5.81,-1.413 8.37,0.695c2.758,2.271 3.822,7.089 5.581,8.742c2.82,2.65 7.196,5.171 6.402,9.685c0,0 -1.624,6.922 -3.497,9.735c-1.886,2.835 -7.824,7.277 -7.824,7.277c-33.182,12.378 -23.609,-11.752 -27.578,-13.079c-3.479,-1.162 -6.024,5.082 -13.74,7.187c-3.802,1.037 -10.825,0.137 -15.884,-2.981c-5.169,-3.187 -8.372,-8.603 -12.062,-8.438c-3.105,0.139 -3.96,4.282 -6.35,6.966c-2.928,3.289 -6.435,4.141 -9.511,6.413c-2.912,2.152 -4.146,11.455 -10.863,14.585c-4.363,2.034 -13.978,1.864 -20.673,-0.806c-5.77,-2.3 -8.516,-7.067 -13.901,-6.711c-5.12,0.338 -6.062,9.36 -10.853,12.905c-6.096,4.509 -16.16,3.368 -24.375,-0.777c-0.108,-0.032 -0.215,-0.066 -0.322,-0.099l-12.171,-7.083Z" style="fill:#e2e3dd;"/><path d="M108.729,491.754c0.107,0.033 0.214,0.067 0.322,0.099c8.215,4.145 18.279,5.286 24.375,0.777c4.791,-3.545 5.733,-12.567 10.853,-12.905c5.385,-0.356 8.131,4.411 13.901,6.711c6.695,2.67 16.31,2.84 20.673,0.806c6.717,-3.13 7.951,-12.433 10.863,-14.585c3.076,-2.272 6.583,-3.124 9.511,-6.413c2.39,-2.684 3.245,-6.827 6.35,-6.966c3.69,-0.165 6.893,5.251 12.062,8.438c5.059,3.118 12.082,4.018 15.884,2.981c7.716,-2.105 10.261,-8.349 13.74,-7.187c3.969,1.327 -5.604,25.457 27.578,13.079c0,0 5.938,-4.442 7.824,-7.277c1.873,-2.813 3.497,-9.735 3.497,-9.735c1.322,3.789 1.251,13.426 -2.603,18.309c-4.17,5.282 -13.053,7.055 -14.626,9.842c-3.499,6.198 -6.85,17.963 -10.305,18.34c-6.153,0.67 -9.218,-4.934 -10.408,-15.885c-8.203,16.534 -22.316,17.597 -37.83,10.573c9.908,-7.993 17.352,-15.833 9.977,-21.831c-11.129,13.096 -23.104,17.671 -34.845,16.068c2.755,2.594 8.014,3.359 17.075,2.935c-5.195,25.43 -22.211,30.254 -47.783,20.164c5.426,-5.286 8.146,-11.285 8.834,-17.338c-5.895,6.138 -11.618,10.254 -18.085,12.438l-36.834,-21.438ZM96.558,484.671l-27.015,-15.723c-3.044,-5.378 -9.231,-18.432 -3.479,-27.062c0,0 -2.066,5.796 -0.836,12.458c1.073,5.81 5.355,11.657 7.736,13.92c4.05,3.852 23.853,2.02 23.853,2.02c-3.231,5.876 -3.196,10.63 -0.259,14.387Z" style="fill:#d4d7ce;"/><path d="M198.737,544.14l-21.584,-12.562l0.12,-0.185l-0.218,0.128l-31.492,-18.329c6.467,-2.184 12.19,-6.3 18.085,-12.438c-0.688,6.053 -3.408,12.052 -8.834,17.338c25.572,10.09 42.588,5.266 47.783,-20.164c-9.061,0.424 -14.32,-0.341 -17.075,-2.935c11.741,1.603 23.716,-2.972 34.845,-16.068c7.375,5.998 -0.069,13.838 -9.977,21.831c15.514,7.024 29.627,5.961 37.83,-10.573c1.19,10.951 4.255,16.555 10.408,15.885c3.455,-0.377 5.929,-11.128 5.929,-11.128c0.254,2.355 0.55,4.759 0.794,7.206c0.277,2.774 2.225,6.567 -0.367,9.139c-2.279,2.262 -7.823,3.934 -12.892,4.84c-7.942,1.836 -15.842,1.776 -23.735,1.371c-8.877,4.096 -14.058,0.918 -17.118,-6.432c-1.539,13.337 -10.073,19.399 -24.124,19.722c5.228,2.297 11.785,2.436 21.005,-1.755c-1.233,3.279 -0.65,5.88 -2.258,8.283c-1.971,2.945 -4.373,5.236 -7.125,6.826Z" style="fill:#bdc1b2;"/><path d="M207.15,549.036l-8.413,-4.896c2.752,-1.59 5.154,-3.881 7.125,-6.826c1.608,-2.403 1.025,-5.004 2.258,-8.283c-9.22,4.191 -15.777,4.052 -21.005,1.755c14.051,-0.323 22.585,-6.385 24.124,-19.722c3.06,7.35 8.241,10.528 17.118,6.432c7.893,0.405 15.793,0.465 23.735,-1.371c5.069,-0.906 10.613,-2.578 12.892,-4.84c0.099,-0.098 0.191,-0.197 0.276,-0.298c-3.768,7.834 -16.599,9.062 -33.976,9.722c-6.078,0.231 -12.57,3.681 -16.047,10.716c-2.355,8.017 -4.913,13.718 -8.087,17.611ZM177.153,531.578l-0.098,-0.057l0.218,-0.128l-0.12,0.185Z" style="fill:#acb0a0;"/></g><g><path d="M259.5,579.505l-124.651,-72.548c0.484,-0.58 0.99,-1.155 1.517,-1.724c-12.762,-25.92 -5.279,-42.028 26.146,-46.71c12.821,-24.527 30.027,-31.455 53.101,-14.833c26.219,-9.987 43.616,-8.895 50.103,5.898c15.937,-10.519 32.976,-9.674 51.807,9.643c24.094,0.39 26.327,1.921 32.508,22.824c0,0 6.466,13.75 1.813,25.221c-2.455,6.053 -11.163,9.184 -15.737,13.319c-4.637,4.192 -5.122,9.35 -4.962,9.854c0.771,2.434 1.228,4.606 1.393,6.547l-28.371,16.512c-2.136,0.122 -4.364,0.219 -6.671,0.307c-6.078,0.23 -12.57,3.68 -16.048,10.716c-0.271,0.923 -0.545,1.816 -0.822,2.678l-21.126,12.296Z" style="fill:#f1f1ef;"/><path d="M165.512,500.868c8.105,-12.198 18.172,-17.604 30.077,-18.324c-15.431,-4.801 -31.094,6.687 -30.077,18.324ZM306.899,474.675c10.646,4.609 11.921,11.129 7.088,20.852c9.801,-10.435 7.594,-18.124 -7.088,-20.852ZM163.813,465.704c-7.058,5.596 -9.842,9.928 -7.375,12.706c2.116,0.931 6.522,-5.649 13.487,-8.89c5.505,-2.563 9.215,-1.313 18.411,-1.659c4.05,-0.153 8.106,-2.707 8.106,-2.707c-4.384,-2.408 -9.526,-3.399 -15.039,-4.058c4.123,-8.101 16.586,-10.565 40.982,-4.963c22.035,-2.841 30.571,-3.011 35.003,3.406c1.284,1.859 -1.01,5.348 -3.305,6.157c-2.209,0.779 -12.928,0.892 -21.509,2.35c-8.158,1.386 -13.014,3.784 -13.109,6.159c23.573,-7.696 37.437,-4.366 33.11,19.619c2.325,-10.817 10.045,-17.057 24.924,-20.291c-3.755,-2.08 -11.087,-1.755 -20.528,-0.011c0.47,-3.949 1.593,-7.612 4.149,-10.643c8.733,-9.867 24.366,-0.463 28.388,1.763c4.47,2.474 14.817,1.846 21.033,2.355c7.452,0.611 11.626,12.922 14.987,16.792c2.189,2.521 3.031,-7.797 6.492,-10.228c1.547,-1.087 5.81,-1.413 8.371,0.695c2.757,2.271 3.821,7.089 5.58,8.742c2.82,2.65 7.196,5.171 6.402,9.685c0,0 -1.624,6.921 -3.496,9.735c-1.887,2.835 -7.824,7.277 -7.824,7.277c-33.182,12.378 -23.609,-11.752 -27.579,-13.079c-3.479,-1.163 -6.024,5.081 -13.74,7.186c-3.802,1.037 -10.825,0.138 -15.883,-2.981c-5.169,-3.186 -8.373,-8.602 -12.062,-8.437c-3.105,0.139 -3.961,4.282 -6.35,6.966c-2.928,3.289 -6.435,4.141 -9.511,6.413c-2.913,2.151 -4.147,11.455 -10.864,14.585c-4.363,2.033 -13.978,1.863 -20.673,-0.806c-5.769,-2.301 -8.515,-7.068 -13.9,-6.712c-5.12,0.338 -6.063,9.361 -10.854,12.906c-6.095,4.509 -16.16,3.368 -24.374,-0.777c-13.271,-4.031 -18.058,-10.977 -12.235,-21.569c0,0 -19.803,1.832 -23.853,-2.02c-2.38,-2.263 -6.663,-8.11 -7.735,-13.92c-1.23,-6.663 -1.681,-9.328 0.835,-12.458c4.072,-5.066 20.014,-11.692 31.538,-9.288Z" style="fill:#e2e3dd;"/><path d="M135.955,507.6c0.666,-1.395 1.055,-3.359 -0.021,-5.23c-2.97,-5.166 -9.527,-18.575 -3.659,-27.378c0,0 -2.065,5.795 -0.835,12.458c1.072,5.81 5.355,11.657 7.735,13.92c4.05,3.852 23.853,2.02 23.853,2.02c-5.823,10.592 -1.036,17.538 12.235,21.569c8.214,4.145 18.279,5.286 24.374,0.777c4.791,-3.545 5.734,-12.568 10.854,-12.906c5.385,-0.356 8.131,4.411 13.9,6.712c6.695,2.669 16.31,2.839 20.673,0.806c6.717,-3.13 7.951,-12.434 10.864,-14.585c3.076,-2.272 6.583,-3.124 9.511,-6.413c2.389,-2.684 3.245,-6.827 6.35,-6.966c3.689,-0.165 6.893,5.251 12.062,8.437c5.058,3.119 12.081,4.018 15.883,2.981c7.716,-2.105 10.261,-8.349 13.74,-7.186c3.97,1.327 -5.603,25.457 27.579,13.079c0,0 5.937,-4.442 7.824,-7.277c1.872,-2.814 3.496,-9.735 3.496,-9.735c1.322,3.789 1.252,13.425 -2.603,18.308c-4.169,5.283 -13.052,7.055 -14.626,9.842c-3.499,6.199 -6.849,17.964 -10.305,18.34c-6.153,0.671 -9.217,-4.933 -10.408,-15.884c-8.203,16.533 -22.316,17.597 -37.829,10.572c9.907,-7.992 17.351,-15.832 9.977,-21.831c-11.129,13.097 -23.105,17.671 -34.845,16.069c2.755,2.593 8.014,3.358 17.075,2.934c-5.196,25.431 -22.212,30.255 -47.783,20.165c5.426,-5.287 8.145,-11.285 8.833,-17.339c-7.843,8.167 -15.383,12.755 -24.773,13.976l-69.131,-40.235Z" style="fill:#d4d7ce;"/><path d="M259.336,579.409l-18.548,-10.795l2.697,-4.115c-1.773,1.038 -3.441,1.957 -5.013,2.767l-33.386,-19.431c9.39,-1.221 16.93,-5.809 24.773,-13.976c-0.688,6.054 -3.407,12.052 -8.833,17.339c25.571,10.09 42.587,5.266 47.783,-20.165c-9.061,0.424 -14.32,-0.341 -17.075,-2.934c11.74,1.602 23.716,-2.972 34.845,-16.069c7.374,5.999 -0.07,13.839 -9.977,21.831c15.513,7.025 29.626,5.961 37.829,-10.572c1.191,10.951 4.255,16.555 10.408,15.884c3.456,-0.376 5.929,-11.127 5.929,-11.127c0.254,2.355 0.55,4.759 0.795,7.206c0.064,0.649 0.221,1.353 0.389,2.085l-22.779,13.257c-4.876,0.376 -9.742,0.257 -14.604,0.008c-8.878,4.096 -14.059,0.918 -17.119,-6.432c-1.539,13.336 -10.072,19.399 -24.124,19.722c5.229,2.297 11.785,2.436 21.006,-1.756c-1.234,3.28 -0.65,5.88 -2.259,8.284c-0.816,1.219 -1.705,2.326 -2.664,3.317l-9.528,5.546c-0.181,0.044 -0.362,0.086 -0.545,0.126Z" style="fill:#bdc1b2;"/><path d="M259.5,579.505l-0.164,-0.096c0.183,-0.04 0.364,-0.082 0.545,-0.126l-0.381,0.222ZM240.788,568.614l-2.316,-1.348c1.572,-0.81 3.24,-1.729 5.013,-2.767l-2.697,4.115ZM280.626,567.209l-11.215,6.528c0.957,-0.992 1.847,-2.098 2.662,-3.317c1.609,-2.404 1.025,-5.004 2.259,-8.284c-9.221,4.192 -15.777,4.053 -21.006,1.756c14.052,-0.323 22.585,-6.386 24.124,-19.722c3.06,7.35 8.241,10.528 17.119,6.432c4.862,0.249 9.728,0.368 14.604,-0.008l-5.005,2.913c-2.137,0.123 -4.364,0.22 -6.672,0.308c-6.078,0.23 -12.57,3.68 -16.048,10.716c-0.271,0.923 -0.545,1.815 -0.822,2.678Z" style="fill:#acb0a0;"/></g><g><path d="M381.934,508.247c-9.991,-10.261 -8.115,-24.413 2.725,-36.12c-12.763,-25.92 -5.279,-42.027 26.146,-46.709c12.82,-24.528 30.027,-31.455 53.101,-14.834c14.831,-5.649 26.839,-7.753 35.647,-5.837l0,35.044l-117.619,68.456Z" style="fill:#f1f1ef;"/><path d="M413.805,467.762c8.104,-12.197 18.172,-17.603 30.076,-18.323c-15.43,-4.802 -31.093,6.686 -30.076,18.323ZM497.573,440.944l-81.842,47.633c-7.094,-4.165 -8.886,-10.152 -4.41,-18.293c0,0 -19.803,1.832 -23.853,-2.02c-2.38,-2.263 -6.663,-8.11 -7.736,-13.92c-1.229,-6.662 -1.68,-9.328 0.836,-12.458c4.072,-5.066 20.014,-11.692 31.538,-9.288c-7.058,5.597 -9.842,9.928 -7.376,12.706c2.117,0.931 6.523,-5.648 13.488,-8.89c5.505,-2.563 9.215,-1.312 18.411,-1.659c4.05,-0.152 8.106,-2.707 8.106,-2.707c-4.384,-2.407 -9.526,-3.398 -15.039,-4.058c4.123,-8.101 16.586,-10.565 40.982,-4.963c14.708,-1.896 23.402,-2.602 28.875,-0.954l0,10.982c-4.298,0.441 -12.119,0.769 -18.687,1.885c-8.157,1.387 -13.013,3.784 -13.109,6.159c13.885,-4.532 24.402,-5.24 29.816,-0.155Z" style="fill:#e2e3dd;"/><path d="M399.228,498.181l-15.596,9.078c-5.333,-1.339 -7.744,-4.733 -7.692,-12.242c-1.518,-7.578 2.159,-13.203 7.37,-19.07c0.98,-1.104 2.465,-3.99 0.917,-6.683c-2.97,-5.166 -9.527,-18.574 -3.659,-27.378c0,0 -2.065,5.796 -0.836,12.458c1.073,5.81 5.356,11.657 7.736,13.92c4.05,3.852 23.853,2.02 23.853,2.02c-4.476,8.141 -2.684,14.128 4.41,18.293l-14.021,8.16c-0.233,-0.413 -0.466,-0.833 -0.697,-1.259c-0.858,0.859 -1.446,1.761 -1.785,2.703Z" style="fill:#d4d7ce;"/><path d="M383.544,507.31l-2.277,1.325c-1.651,-1.237 -2.38,-2.655 -3.32,-3.664c0,0 1.235,1.442 5.597,2.339ZM401.71,496.737l-2.482,1.444c0.339,-0.942 0.927,-1.844 1.785,-2.703c0.231,0.426 0.464,0.846 0.697,1.259Z" style="fill:#bdc1b2;"/></g><g><path d="M436.788,476.321l-134.732,78.416c-5.391,-3.486 -9.169,-10.209 -12.53,-21.657c-3.478,-7.035 -9.969,-10.485 -16.048,-10.716c-24.606,-0.934 -40.096,-3.008 -33.649,-23.365c0.16,-0.504 -0.325,-5.663 -4.962,-9.855c-4.574,-4.135 -13.282,-7.265 -15.737,-13.319c-4.653,-11.471 1.813,-25.22 1.813,-25.22c6.181,-20.903 8.414,-22.435 32.508,-22.825c18.831,-19.317 35.871,-20.161 51.807,-9.643c6.487,-14.792 23.884,-15.884 50.103,-5.897c23.074,-16.622 40.28,-9.695 53.101,14.833c31.425,4.682 38.909,20.79 26.146,46.709c0.773,0.835 1.5,1.682 2.18,2.539Z" style="fill:#f1f1ef;"/><path d="M405.462,469.418c-8.104,-12.198 -18.172,-17.604 -30.076,-18.324c15.43,-4.801 31.093,6.686 30.076,18.324ZM264.076,443.225c-10.647,4.608 -11.922,11.128 -7.088,20.852c-9.802,-10.436 -7.595,-18.124 7.088,-20.852ZM407.161,434.254c7.058,5.596 9.842,9.928 7.376,12.706c-2.117,0.931 -6.523,-5.649 -13.488,-8.891c-5.505,-2.562 -9.215,-1.312 -18.411,-1.659c-4.05,-0.152 -8.106,-2.707 -8.106,-2.707c4.384,-2.407 9.526,-3.398 15.039,-4.057c-4.123,-8.101 -16.586,-10.566 -40.982,-4.964c-22.035,-2.841 -30.57,-3.01 -35.003,3.406c-1.284,1.86 1.01,5.348 3.306,6.158c2.208,0.779 12.927,0.891 21.509,2.35c8.157,1.386 13.013,3.783 13.109,6.159c-23.574,-7.696 -37.438,-4.366 -33.111,19.619c-2.325,-10.818 -10.045,-17.057 -24.924,-20.291c3.755,-2.081 11.087,-1.756 20.528,-0.011c-0.47,-3.95 -1.593,-7.612 -4.149,-10.643c-8.733,-9.868 -24.366,-0.464 -28.388,1.763c-4.469,2.473 -14.817,1.845 -21.033,2.355c-7.452,0.611 -11.625,12.922 -14.987,16.791c-2.189,2.521 -3.031,-7.797 -6.492,-10.228c-1.547,-1.086 -5.81,-1.413 -8.371,0.696c-2.757,2.271 -3.821,7.089 -5.58,8.741c-2.82,2.65 -7.196,5.172 -6.402,9.686c0,0 1.624,6.921 3.496,9.734c1.887,2.836 7.824,7.278 7.824,7.278c33.183,12.378 23.609,-11.753 27.579,-13.079c3.479,-1.163 6.024,5.081 13.74,7.186c3.802,1.037 10.825,0.137 15.884,-2.981c5.168,-3.186 8.372,-8.603 12.062,-8.438c3.104,0.139 3.96,4.282 6.349,6.966c2.928,3.29 6.436,4.142 9.511,6.413c2.913,2.152 4.147,11.455 10.864,14.586c4.363,2.033 13.978,1.863 20.673,-0.807c5.769,-2.3 8.515,-7.067 13.901,-6.711c5.119,0.338 6.062,9.36 10.853,12.905c6.095,4.51 16.16,3.369 24.374,-0.776c13.271,-4.031 18.058,-10.977 12.235,-21.569c0,0 19.803,1.831 23.853,-2.02c2.38,-2.264 6.663,-8.11 7.735,-13.921c1.23,-6.662 1.681,-9.328 -0.835,-12.457c-4.072,-5.067 -20.014,-11.692 -31.538,-9.288Z" style="fill:#e2e3dd;"/><path d="M367.632,516.57c-10.213,-0.859 -18.194,-5.495 -26.517,-14.161c0.688,6.053 3.407,12.052 8.833,17.338c-25.571,10.091 -42.587,5.266 -47.783,-20.164c9.062,0.424 14.32,-0.341 17.075,-2.935c-11.74,1.603 -23.716,-2.972 -34.845,-16.068c-7.374,5.998 0.07,13.839 9.977,21.831c-15.513,7.024 -29.626,5.961 -37.829,-10.572c-1.19,10.951 -4.255,16.555 -10.408,15.884c-3.456,-0.377 -6.806,-12.141 -10.305,-18.34c-1.574,-2.787 -10.457,-4.56 -14.626,-9.842c-3.855,-4.883 -3.925,-14.52 -2.603,-18.308c0,0 1.624,6.921 3.496,9.734c1.887,2.836 7.824,7.278 7.824,7.278c33.183,12.378 23.609,-11.753 27.579,-13.079c3.479,-1.163 6.024,5.081 13.74,7.186c3.802,1.037 10.825,0.137 15.884,-2.981c5.168,-3.186 8.372,-8.603 12.062,-8.438c3.104,0.139 3.96,4.282 6.349,6.966c2.928,3.29 6.436,4.142 9.511,6.413c2.913,2.152 4.147,11.455 10.864,14.586c4.363,2.033 13.978,1.863 20.673,-0.807c5.769,-2.3 8.515,-7.067 13.901,-6.711c5.119,0.338 6.062,9.36 10.853,12.905c6.095,4.51 16.16,3.369 24.374,-0.776c13.271,-4.031 18.058,-10.977 12.235,-21.569c0,0 19.803,1.831 23.853,-2.02c2.38,-2.264 6.663,-8.11 7.735,-13.921c1.23,-6.662 -0.835,-12.457 -0.835,-12.457c5.868,8.803 -0.689,22.211 -3.659,27.377c-1.336,2.324 -0.414,4.79 0.494,6.132l-67.902,39.519Z" style="fill:#d4d7ce;"/><path d="M330.756,538.033l-17.534,10.205c-5.85,-0.8 -10.781,-3.979 -14.321,-9.269c-1.609,-2.403 -1.025,-5.003 -2.259,-8.283c9.221,4.191 15.778,4.052 21.006,1.755c-14.052,-0.323 -22.585,-6.385 -24.124,-19.722c-3.06,7.35 -8.241,10.528 -17.118,6.432c-7.893,0.405 -15.794,0.465 -23.735,-1.37c-5.069,-0.907 -10.613,-2.579 -12.893,-4.841c-2.591,-2.572 -0.644,-6.365 -0.367,-9.138c0.245,-2.448 0.541,-4.851 0.795,-7.206c0,0 2.473,10.75 5.929,11.127c6.153,0.671 9.218,-4.933 10.408,-15.884c8.203,16.533 22.316,17.596 37.829,10.572c-9.907,-7.992 -17.351,-15.833 -9.977,-21.831c11.129,13.096 23.105,17.671 34.845,16.068c-2.755,2.594 -8.013,3.359 -17.075,2.935c5.196,25.43 22.212,30.255 47.783,20.164c-5.426,-5.286 -8.145,-11.285 -8.833,-17.338c8.323,8.666 16.304,13.302 26.517,14.161l-34.027,19.805c-1.888,-0.94 -3.922,-2.042 -6.116,-3.326l3.267,4.984Z" style="fill:#bdc1b2;"/><path d="M333.605,536.375l-2.849,1.658l-3.267,-4.984c2.194,1.283 4.227,2.386 6.116,3.326ZM313.221,548.238l-11.165,6.499c-5.391,-3.486 -9.169,-10.209 -12.53,-21.657c-3.478,-7.035 -9.969,-10.485 -16.048,-10.716c-17.377,-0.659 -30.207,-1.887 -33.975,-9.722c0.085,0.101 0.177,0.201 0.275,0.298c2.28,2.262 7.824,3.934 12.893,4.841c7.941,1.835 15.842,1.775 23.735,1.37c8.877,4.096 14.058,0.918 17.118,-6.432c1.539,13.337 10.072,19.399 24.124,19.722c-5.228,2.297 -11.785,2.436 -21.006,-1.755c1.234,3.28 0.65,5.88 2.259,8.283c3.54,5.289 8.471,8.469 14.32,9.269Z" style="fill:#acb0a0;"/></g></g><g id="bridge"><path d="M247.165,217.252l0,349.42l1.406,0l0,-352.12l-1.406,2.7ZM258.84,197.942l0,368.599l1.406,0l0,-371.448l-1.406,2.849ZM236.679,566.223l-1.405,-0.818l0,-327.986l1.405,-2.544l0,331.348ZM284.245,565.103l-1.406,0.818l0,-356.342l1.406,2.743l0,352.781ZM295.271,558.685l-1.405,0.818l0,-340.627l1.405,2.674l0,337.135ZM224.788,559.302l-1.405,-0.818l0,-302.613l1.405,-2.402l0,305.833ZM306.081,552.394l-1.405,0.818l0,-318.553l1.405,2.558l0,315.177ZM212.897,552.381l-1.406,-0.818l0,-277.028l1.406,-2.256l0,280.102ZM317.973,545.473l-1.406,0.818l0,-348.387l1.406,2.836l0,344.733ZM200.789,545.334l-1.405,-0.818l0,-251.958l1.405,-2.118l0,254.894ZM328.783,539.181l-1.405,0.818l0,-342.095l1.405,2.836l0,338.441ZM188.466,538.162l-1.406,-0.818l0,-226.551l1.406,-1.975l0,229.344ZM175.709,530.738l-1.405,-0.818l0,-200.246l1.405,-1.83l0,202.894ZM162.953,523.313l-1.405,-0.817l0,-175.444l1.405,-1.696l0,177.957ZM149.981,515.763l-1.405,-0.817l0,-150.087l1.405,-1.558l0,152.462ZM137.225,508.339l-1.406,-0.818l0,-125.499l1.406,-1.424l0,127.741ZM123.82,500.538l-1.405,-0.818l0,-100.537l1.405,-1.289l0,102.644ZM110.415,492.736l-1.405,-0.818l0,-75.999l1.405,-1.161l0,77.978ZM96.794,484.808l-1.405,-0.818l0,-51.551l1.405,-1.033l0,53.402ZM82.741,476.629l-1.405,-0.818l0,-26.637l1.405,-0.904l0,28.359ZM68.904,468.576l-1.406,-0.818l0,-2.703l1.406,-0.786l0,4.307Z" style="fill:#c54e45;"/><path d="M458.65,463.597l-2.182,1.27c-63.292,-72.934 -124.487,-172.188 -184.543,-285.748l2.162,-1.795c65.751,126.317 127.212,220.281 184.563,286.273Z" style="fill:#c54e45;"/><path d="M66.822,467.364l-2.394,-1.393c74.113,-84.803 141.917,-181.077 203.245,-289.126l2.429,2.769c-58.962,102.7 -125.889,199.26 -203.28,287.75Z" style="fill:#c54e45;"/><path d="M330.03,538.455l0,-15.448l-2.619,-1.602l0,-13.511l-1.601,-1.978l0,-7.264l-0.641,-1.177l0,-4.702l-2.619,-4.805l0,-2.138l-3.204,-0.216l-0.961,-1.177l-25.563,0.528l-1.657,0.961l-2.46,0.641l0,2.779l-1.922,3.74l-1.762,0.056l0,5.462l-0.612,1.049l0,6.755l-1.041,1.95l0,13.671l-1.55,1.63l0,42.6l-20.931,0l0,-221.718l1.71,-1.281l0,-41.673l0.881,-2.431l0,-38.494l1.041,-0.909l0,-78.911l4.325,-4.193l4.433,0l3.712,5.073l0,2.912l5.874,0.48l1.47,0.401l1.55,0l1.389,1.069l36.019,-0.849l0.749,-0.961l0.909,-0.749l6.035,-0.08l6.167,-9.398l5.362,0.005l3.099,5.182l0.641,3.26l0,74.167l1.498,1.498l0,41.656l0.641,2.458l0,38.191l2.458,2.138l0,183.236l-20.82,12.117ZM329.759,397.738l0,49.603l-1.39,-0.08l-0.989,1.47l-1.87,0l-1.55,1.521l-5.394,0.08l-1.95,0.721l-26.457,0.24l-0.909,-0.64l-2.351,-0.16l-1.469,-0.881l-1.711,0l-2.43,-1.922l0,-48.242l1.95,-2.431l0.028,-6.034l0.749,-1.254l0,-3.472l2.082,-4.433l2.111,-0.48l0.4,-0.989l3.712,0.08l0.721,-1.15c7.698,-0.627 16.133,-0.748 25.132,-0.48l6.591,1.682l2.055,3.924l0,3.793l1.309,1.281l0,6.355l1.63,1.898ZM331.739,308.551l0,33.124l-1.359,0.854l-0.659,2.296l-2.064,1.343l-9.469,2.403l-21.341,0.427l-13.207,-1.015l0,-0.819l-1.922,-0.766l0,-1.674l-1.068,-0.98l-0.854,-1.3l0,-32.219l0.66,-1.087l0,-6.282l0.926,-1.067l0,-3.81l0.766,-1.12l0,-1.086l1.033,-0.748l0,-1.3l1.762,-0.675l0.55,-0.975l3.49,0.107l1.37,-1.371l28.089,-0.818l2.816,0.072l5.625,2.048l3.116,4.236l0,3.508l0.907,1.087l0,5.857l0.833,1.75ZM333.545,220.264l0,37.306l-1.294,1.037l0,2.336l-1.189,0l-1.095,1.282l-1.856,-0.04l-1.376,1.361l-8.423,0.921l-30.327,0.841l-1.336,-0.735l-2.617,-0.04l0,-0.374l-1.776,-0.04l-0.4,-0.375l-2.737,-1.761l0,-1.376l-1.402,-1.441l0,-37.087l0.949,-1.335l0,-3.498l2.243,-4.058l1.776,0l0.975,-1.496l3.097,0l2.169,-2.148l34.601,-0.559l4.205,1.496l1.736,0l3.137,4.405l0,3.844l0.94,1.534Z" style="fill:#73302a;"/><path d="M270.021,486.636l2.297,-0.36l0.116,79.989l3.039,0.004l-0.317,-42.62l0.608,-1.202l1.114,1.904l0.166,41.958l2.272,-0.047l-0.207,-42.647l1.206,-1.415l0.089,-14.087l1.218,-1.432l-0.274,-7.402l1.23,-0.938l-0.108,-5.354l1.587,-0.254l1.513,-3.452l0.005,-2.586l3.13,-0.128l0,2.779l-1.922,3.74l-1.762,0.056l0,5.462l-0.612,1.049l0,6.755l-1.041,1.95l0,13.671l-1.55,1.63l0,42.6l-11.427,0.102l-0.37,-79.725Z" style="fill:#c54e45;"/><path d="M272.505,380.193l-1.776,0l0,67.122l-0.987,2.296l0.28,1.096l1.856,0l0.801,-2.337l0.669,-0.881l0,-50.267l-0.641,-2.296l-0.202,-14.733ZM276.607,398.152l0,49.007l-0.936,-0.08l0,-49.002l0.936,0.075ZM283.803,381.664l-1.5,3.923l-1.241,-0.084l0.042,4.368l-1.125,0.674l0.098,6.559l-0.683,1.554l-0.32,49.032l2.215,0l0,-48.242l1.95,-2.431l0.028,-6.034l0.749,-1.254l0,-3.472l2.082,-4.433l-2.295,-0.16Z" style="fill:#c54e45;"/><path d="M273.282,293.591l-0.16,53.064l-2.421,1.656l-0.089,-2.262l1.228,-1.46l0,-51.225l1.442,0.227ZM275.921,308.59l-0.076,37.524c0.482,-1.983 1.098,-3.419 2.028,-4.093c1.019,1.397 1.344,2.812 1.317,4.236l2.201,1.718l2.249,-0.331l-1.922,-1.246l0,-1.674l-1.068,-0.98l-0.854,-1.3l0,-32.219l0.66,-1.087l0,-6.282l0.926,-1.067l0,-3.81l0.766,-1.12l0,-1.086l1.033,-0.748l0,-1.3l-2.119,-0.037l-1.37,3.564l-1.052,0.152l0.049,4.312l-1.208,0.993l0.137,5.895l-0.414,1.2l-1.283,-1.214Z" style="fill:#c54e45;"/><path d="M278.76,213.027l-1.409,3.325l-1.487,0.063l0.073,4.224l-1.363,0.901l0.264,5.847l-0.523,1.391l-0.992,-2.025l0.363,-12.835l-0.668,-1.657l-0.481,1.41l-0.184,45.354l-1.128,3.236l0.695,2.3l1.959,-2.43l-0.138,-2.425l1.442,-1.689l1.337,1.64l0.241,2.458l1.703,1.738l3.072,-0.029l-2.417,-1.841l0,-1.376l-1.402,-1.441l0,-37.087l0.949,-1.335l0,-3.498l2.243,-4.058l-2.149,-0.161Z" style="fill:#c54e45;"/><path d="M341.591,531.727l-2.36,1.374l-0.224,-84.002l1.14,-1.673l-0.778,-102.719l1.219,-1.478l0.256,-45.274l-0.392,-38.682l0.953,-1.523l-0.41,-75.487l5.258,0.731l0,74.167l1.498,1.498l0,41.656l0.641,2.458l0,38.191l2.458,2.138l0.131,183.16l-2.803,1.631l0,-185.155l-1.121,-1.62l-1.212,1.565l0,186.568l-1.921,1.118l0,-80.987l0.713,-1.428l0,-145.431l0.785,-2.016l0,-42.565l-1.229,-1.407l-1.086,2.071l0,41.612l-0.625,2.19l0,144.78l-0.891,1.941l0,82.598Z" style="fill:#c54e45;"/><path d="M499.032,440.095c-50.313,-65.885 -101.003,-151.043 -152.413,-250.072l0.013,-6.621c49.854,99.098 100.848,186.182 152.921,253.987l0,2.402l-0.521,0.304Z" style="fill:#c54e45;"/><path d="M117.702,496.977l-2.669,-1.554c77.997,-88.286 151.78,-193.482 220.596,-318.61l3.26,2.669c-64.341,112.587 -135.18,220.503 -221.187,317.495Z" style="fill:#c54e45;"/><path d="M352.349,525.465l-1.405,0.818l0,-328.379l1.405,2.836l0,324.725ZM362.944,519.299l-1.406,0.818l0,-302.106l1.406,2.692l0,298.596ZM373.321,513.259l-1.405,0.818l0,-276.607l1.405,2.543l0,273.246ZM383.699,507.219l-1.405,0.818l0,-251.541l1.405,2.402l0,248.321ZM394.077,501.179l-1.405,0.818l0,-226.908l1.405,2.262l0,223.828ZM404.239,495.265l-1.406,0.818l0,-203.697l1.406,2.133l0,200.746ZM414.401,489.351l-1.406,0.818l0,-180.487l1.406,2.003l0,177.666ZM424.346,483.563l-1.405,0.818l0,-158.483l1.405,1.882l0,155.783ZM433.859,478.026l-1.405,0.818l0,-137.163l1.405,1.764l0,134.581ZM443.588,472.364l-1.405,0.817l0,-115.717l1.405,1.645l0,113.255ZM453.101,466.827l-1.405,0.818l0,-95.479l1.405,1.537l0,93.124ZM462.614,461.29l-1.405,0.818l0,-75.456l1.405,1.429l0,73.209ZM471.911,455.879l-1.405,0.818l0,-56.641l1.405,1.33l0,54.493ZM481.208,450.468l-1.405,0.818l0,-37.825l1.405,1.23l0,35.777ZM490.073,445.309l-1.406,0.818l0,-20.775l1.406,1.142l0,18.815ZM499.153,440.024l-1.405,0.818l0,-2.95l1.405,1.049l0,1.083Z" style="fill:#c54e45;"/></g><g id="fog foreground"><g><path d="M498.684,440.298l-131.361,76.453c-4.031,-1.181 -7.733,-0.229 -10.225,-2.353c-9.891,-8.428 -8.745,-20.777 0.614,-30.885c-10.383,-21.089 -4.294,-34.194 21.273,-38.004c10.431,-19.956 24.43,-25.592 43.204,-12.068c21.332,-8.126 35.486,-7.238 40.764,4.798c11.131,-7.347 22.923,-7.88 35.731,2.059Z" style="fill:#f1f1ef;"/><path d="M381.426,479.961c6.594,-9.924 14.785,-14.322 24.471,-14.908c-12.555,-3.906 -25.298,5.44 -24.471,14.908ZM464.542,460.168l-5.889,3.428c1.646,-1.323 3.601,-2.459 5.889,-3.428ZM470.171,456.892c-3.337,-0.696 -8.306,-0.293 -14.333,0.82c0.383,-3.213 1.296,-6.193 3.376,-8.659c6.739,-7.615 18.528,-1.124 22.518,1.111l-11.561,6.728ZM452.887,466.952l-59.116,34.406c-1.508,-0.475 -2.994,-1.08 -4.412,-1.796c-10.797,-3.279 -14.692,-8.931 -9.954,-17.549c0,0 -16.112,1.49 -19.407,-1.643c-1.937,-1.842 -5.421,-6.599 -6.294,-11.326c-1,-5.421 -1.367,-7.589 0.68,-10.136c3.313,-4.122 16.283,-9.512 25.66,-7.556c-5.743,4.553 -8.008,8.077 -6.001,10.337c1.721,0.758 5.306,-4.596 10.973,-7.233c4.479,-2.085 7.498,-1.068 14.98,-1.35c3.295,-0.124 6.595,-2.202 6.595,-2.202c-3.567,-1.959 -7.75,-2.765 -12.236,-3.302c3.355,-6.591 13.495,-8.596 33.343,-4.038c17.929,-2.311 24.873,-2.449 28.479,2.771c1.045,1.513 -0.821,4.351 -2.689,5.01c-1.797,0.634 -10.518,0.726 -17.5,1.912c-6.637,1.128 -10.588,3.078 -10.666,5.011c16.474,-5.378 27.12,-4.138 27.565,8.684Z" style="fill:#e2e3dd;"/><path d="M376.888,511.184c-2.049,-2.261 -3.986,-5.207 -5.87,-8.673c-2.98,2.982 -1.959,6.608 1.801,10.674c-3.258,0.002 -7.496,-0.449 -10.087,-0.481c-8.455,-0.105 -12.172,-2.184 -12.114,-10.568c-1.234,-6.166 1.757,-10.742 5.997,-15.516c0.797,-0.898 2.006,-3.246 0.746,-5.437c-2.416,-4.203 -7.751,-15.112 -2.977,-22.275c0,0 -1.68,4.715 -0.68,10.136c0.873,4.727 4.357,9.484 6.294,11.326c3.295,3.133 19.407,1.643 19.407,1.643c-4.738,8.618 -0.843,14.27 9.954,17.549c1.418,0.716 2.904,1.321 4.412,1.796l-16.883,9.826Z" style="fill:#d4d7ce;"/><path d="M376.888,511.184l-8.832,5.14c-3.327,-1.033 -7.256,-0.724 -10.539,-1.81c-3.377,-1.118 -4.132,-3.063 -5.266,-4.279c0,0 2.026,2.364 10.481,2.469c2.591,0.032 6.829,0.483 10.087,0.481c-3.76,-4.066 -4.781,-7.692 -1.801,-10.674c1.884,3.466 3.821,6.412 5.87,8.673Z" style="fill:#bdc1b2;"/></g><g><path d="M283.994,565.249c-12.508,0.958 -18.452,-3.441 -23.322,-20.023c-2.829,-5.724 -8.111,-8.531 -13.056,-8.719c-20.02,-0.76 -32.623,-2.447 -27.377,-19.011c0.129,-0.41 -0.265,-4.606 -4.038,-8.017c-3.721,-3.365 -10.806,-5.912 -12.804,-10.837c-3.785,-9.333 1.476,-20.52 1.476,-20.52c5.028,-17.007 6.845,-18.252 26.448,-18.57c15.322,-15.716 29.185,-16.403 42.152,-7.846c5.277,-12.035 19.432,-12.923 40.764,-4.798c18.773,-13.524 32.772,-7.887 43.203,12.069c25.568,3.809 31.657,16.915 21.273,38.003c2.817,3.042 4.89,6.287 6.141,9.567l-100.86,58.702Z" style="fill:#f1f1ef;"/><path d="M355,493.429c-6.594,-9.924 -14.786,-14.323 -24.471,-14.908c12.555,-3.907 25.298,5.44 24.471,14.908ZM239.966,472.118c-8.662,3.75 -9.7,9.055 -5.767,16.966c-7.975,-8.491 -6.179,-14.746 5.767,-16.966ZM356.382,464.819c5.743,4.553 8.008,8.078 6.001,10.338c-1.722,0.757 -5.307,-4.596 -10.974,-7.234c-4.479,-2.084 -7.497,-1.067 -14.979,-1.349c-3.295,-0.124 -6.596,-2.203 -6.596,-2.203c3.568,-1.958 7.751,-2.765 12.237,-3.301c-3.355,-6.591 -13.495,-8.596 -33.344,-4.038c-17.928,-2.312 -24.873,-2.449 -28.479,2.771c-1.045,1.513 0.822,4.351 2.689,5.01c1.797,0.633 10.519,0.725 17.5,1.912c6.637,1.127 10.588,3.078 10.666,5.011c-19.18,-6.262 -30.46,-3.553 -26.939,15.962c-1.892,-8.801 -8.173,-13.878 -20.278,-16.509c3.055,-1.693 9.02,-1.428 16.701,-0.009c-0.382,-3.213 -1.295,-6.193 -3.375,-8.659c-7.106,-8.029 -19.825,-0.377 -23.097,1.434c-3.637,2.013 -12.055,1.502 -17.113,1.916c-6.063,0.497 -9.459,10.514 -12.193,13.662c-1.782,2.051 -2.467,-6.344 -5.283,-8.322c-1.258,-0.884 -4.727,-1.149 -6.81,0.566c-2.244,1.848 -3.109,5.768 -4.54,7.112c-2.295,2.156 -5.855,4.208 -5.209,7.881c0,0 1.321,5.631 2.845,7.92c1.535,2.307 6.365,5.921 6.365,5.921c26.998,10.071 19.209,-9.562 22.439,-10.641c2.83,-0.946 4.901,4.134 11.179,5.846c3.093,0.844 8.807,0.112 12.923,-2.425c4.205,-2.592 6.812,-6.999 9.814,-6.865c2.526,0.113 3.222,3.484 5.166,5.668c2.382,2.676 5.236,3.369 7.738,5.217c2.37,1.751 3.374,9.32 8.839,11.867c3.55,1.655 11.373,1.516 16.82,-0.656c4.694,-1.871 6.928,-5.75 11.309,-5.46c4.166,0.275 4.933,7.616 8.831,10.499c4.959,3.67 13.148,2.741 19.831,-0.631c10.798,-3.28 14.692,-8.931 9.955,-17.549c0,0 16.112,1.49 19.407,-1.643c1.936,-1.842 5.421,-6.599 6.293,-11.326c1.001,-5.421 1.368,-7.59 -0.679,-10.136c-3.313,-4.122 -16.284,-9.513 -25.66,-7.557Z" style="fill:#e2e3dd;"/><path d="M330.667,538.085c-1.14,-0.432 -2.257,-0.94 -3.348,-1.526c4.557,-1.878 6.383,-3.686 7.498,-5.324c-13.918,2.289 -22.777,-1.182 -32.171,-10.964c0.56,4.925 2.772,9.806 7.187,14.107c-20.805,8.21 -34.65,4.284 -38.877,-16.406c7.372,0.345 11.651,-0.278 13.892,-2.388c-9.552,1.304 -19.295,-2.418 -28.35,-13.073c-6,4.88 0.057,11.259 8.117,17.762c-12.621,5.715 -24.104,4.85 -30.778,-8.602c-0.968,8.91 -3.462,13.469 -8.468,12.924c-2.812,-0.307 -5.538,-9.879 -8.385,-14.922c-1.28,-2.268 -8.507,-3.71 -11.899,-8.008c-3.136,-3.972 -3.194,-11.813 -2.118,-14.895c0,0 1.321,5.631 2.845,7.92c1.535,2.307 6.365,5.921 6.365,5.921c26.998,10.071 19.209,-9.562 22.439,-10.641c2.83,-0.946 4.901,4.134 11.179,5.846c3.093,0.844 8.807,0.112 12.923,-2.425c4.205,-2.592 6.812,-6.999 9.814,-6.865c2.526,0.113 3.222,3.484 5.166,5.668c2.382,2.676 5.236,3.369 7.738,5.217c2.37,1.751 3.374,9.32 8.839,11.867c3.55,1.655 11.373,1.516 16.82,-0.656c4.694,-1.871 6.928,-5.75 11.309,-5.46c4.166,0.275 4.933,7.616 8.831,10.499c4.959,3.67 13.148,2.741 19.831,-0.631c10.798,-3.28 14.692,-8.931 9.955,-17.549c0,0 16.112,1.49 19.407,-1.643c1.936,-1.842 5.421,-6.599 6.293,-11.326c1.001,-5.421 -0.679,-10.136 -0.679,-10.136c4.774,7.162 -0.561,18.071 -2.977,22.275c-1.26,2.191 -0.051,4.539 0.746,5.437c1.946,2.192 3.63,4.342 4.761,6.623l-18.143,10.56c-0.264,-0.443 -0.604,-0.874 -1.022,-1.292c-0.536,0.987 -1.077,1.933 -1.624,2.832l-17.506,10.188c-0.377,-0.13 -0.758,-0.281 -1.144,-0.452c0.314,0.197 0.613,0.396 0.898,0.596l-15.364,8.942Z" style="fill:#d4d7ce;"/><path d="M346.277,528.999l-0.246,0.144c-0.285,-0.2 -0.584,-0.399 -0.898,-0.596c0.386,0.171 0.767,0.322 1.144,0.452ZM366.429,517.271l-2.646,1.54c0.547,-0.899 1.088,-1.845 1.624,-2.832c0.418,0.418 0.758,0.849 1.022,1.292ZM307.413,551.619c-3.804,-0.473 -8.807,-2.297 -15.853,-6.419l5.176,7.898c-12.007,7.328 -22.57,5.684 -28.436,-3.081c-1.309,-1.955 -0.834,-4.071 -1.837,-6.739c7.502,3.41 12.836,3.297 17.09,1.428c-11.433,-0.263 -18.375,-5.195 -19.628,-16.046c-2.49,5.98 -6.705,8.565 -13.927,5.233c-6.422,0.329 -12.85,0.378 -19.311,-1.115c-4.125,-0.738 -8.635,-2.098 -10.49,-3.938c-2.109,-2.093 -0.524,-5.179 -0.298,-7.436c0.199,-1.991 0.439,-3.946 0.646,-5.863c0,0 2.012,8.747 4.824,9.054c5.006,0.545 7.5,-4.014 8.468,-12.924c6.674,13.452 18.157,14.317 30.778,8.602c-8.06,-6.503 -14.117,-12.882 -8.117,-17.762c9.055,10.655 18.798,14.377 28.35,13.073c-2.241,2.11 -6.52,2.733 -13.892,2.388c4.227,20.69 18.072,24.616 38.877,16.406c-4.415,-4.301 -6.627,-9.182 -7.187,-14.107c9.394,9.782 18.253,13.253 32.171,10.964c-1.115,1.638 -2.941,3.446 -7.498,5.324c1.091,0.586 2.208,1.094 3.348,1.526l-23.254,13.534Z" style="fill:#bdc1b2;"/><path d="M283.994,565.249c-12.508,0.958 -18.452,-3.441 -23.322,-20.023c-2.829,-5.724 -8.111,-8.531 -13.056,-8.719c-14.138,-0.537 -24.577,-1.536 -27.643,-7.91c0.069,0.082 0.144,0.163 0.224,0.243c1.855,1.84 6.365,3.2 10.49,3.938c6.461,1.493 12.889,1.444 19.311,1.115c7.222,3.332 11.437,0.747 13.927,-5.233c1.253,10.851 8.195,15.783 19.628,16.046c-4.254,1.869 -9.588,1.982 -17.09,-1.428c1.003,2.668 0.528,4.784 1.837,6.739c5.866,8.765 16.429,10.409 28.436,3.081l-5.176,-7.898c7.046,4.122 12.049,5.946 15.853,6.419l-23.419,13.63Z" style="fill:#acb0a0;"/></g><g><path d="M259.5,579.505l-111.15,-64.691c0.639,-5.475 2.652,-9.756 2.652,-9.756c5.029,-17.007 6.846,-18.253 26.449,-18.57c15.321,-15.717 29.185,-16.404 42.151,-7.846c5.278,-12.036 19.432,-12.924 40.764,-4.798c18.774,-13.524 32.773,-7.888 43.204,12.068c25.567,3.809 31.656,16.915 21.273,38.003c3.9,4.213 6.374,8.814 7.217,13.359l-72.56,42.231Z" style="fill:#f1f1ef;"/><path d="M301.129,520.364c-6.594,-9.924 -14.785,-14.322 -24.471,-14.908c12.555,-3.907 25.298,5.44 24.471,14.908ZM186.095,499.053c-8.662,3.75 -9.699,9.055 -5.767,16.966c-7.975,-8.491 -6.179,-14.746 5.767,-16.966ZM149.572,515.526c-0.299,-1.068 -0.476,-1.821 -0.476,-1.821c-0.646,-3.673 2.915,-5.724 5.209,-7.88c1.432,-1.345 2.297,-5.265 4.541,-7.113c2.083,-1.715 5.551,-1.449 6.81,-0.565c2.816,1.977 3.501,10.372 5.282,8.321c2.735,-3.148 6.131,-13.165 12.194,-13.662c5.057,-0.414 13.476,0.097 17.112,-1.916c3.273,-1.811 15.992,-9.462 23.097,-1.434c2.08,2.466 2.993,5.446 3.376,8.659c-7.682,-1.419 -13.647,-1.683 -16.702,0.009c12.106,2.632 18.387,7.708 20.279,16.509c-3.521,-19.514 7.759,-22.224 26.939,-15.962c-0.078,-1.933 -4.029,-3.883 -10.666,-5.011c-6.982,-1.187 -15.703,-1.278 -17.5,-1.912c-1.868,-0.659 -3.734,-3.497 -2.689,-5.01c3.606,-5.22 10.55,-5.082 28.479,-2.771c19.848,-4.558 29.988,-2.553 33.343,4.038c-4.486,0.537 -8.669,1.343 -12.236,3.302c0,0 3.3,2.078 6.595,2.202c7.482,0.282 10.501,-0.735 14.98,1.35c5.667,2.637 9.251,7.991 10.973,7.233c2.007,-2.26 -0.258,-5.784 -6.001,-10.338c9.377,-1.956 22.347,3.435 25.66,7.557c2.047,2.547 1.68,4.715 0.68,10.136c-0.873,4.727 -4.357,9.484 -6.294,11.326c-3.295,3.133 -19.407,1.643 -19.407,1.643c4.738,8.618 0.843,14.269 -9.954,17.549c-6.683,3.373 -14.872,4.301 -19.831,0.632c-3.898,-2.884 -4.665,-10.225 -8.831,-10.5c-4.381,-0.29 -6.616,3.589 -11.31,5.461c-5.447,2.171 -13.27,2.31 -16.819,0.656c-5.465,-2.547 -6.469,-10.117 -8.839,-11.867c-2.503,-1.849 -5.356,-2.542 -7.739,-5.218c-1.944,-2.184 -2.64,-5.555 -5.166,-5.668c-3.002,-0.134 -5.608,4.273 -9.814,6.865c-4.116,2.537 -9.83,3.269 -12.923,2.426c-6.277,-1.713 -8.348,-6.793 -11.179,-5.847c-2.273,0.76 0.913,10.714 -6.419,13.027l-24.754,-14.406Z" style="fill:#e2e3dd;"/><path d="M295.087,558.793l-13.149,7.652c-2.968,-0.544 -5.805,-1.509 -8.489,-2.951c4.557,-1.878 6.383,-3.685 7.497,-5.324c-13.918,2.289 -22.776,-1.181 -32.171,-10.964c0.56,4.925 2.773,9.806 7.188,14.107c-8.232,3.248 -15.373,4.597 -21.261,3.759l-12.259,-7.135c-2.432,-3.217 -4.234,-7.532 -5.358,-13.03c7.373,0.345 11.652,-0.277 13.893,-2.388c-9.552,1.304 -19.296,-2.418 -28.35,-13.073c-6.001,4.88 0.056,11.259 8.117,17.762c-1.346,0.609 -2.679,1.144 -3.994,1.596l-32.425,-18.872c7.332,-2.313 4.146,-12.267 6.419,-13.027c2.831,-0.946 4.902,4.134 11.179,5.847c3.093,0.843 8.807,0.111 12.923,-2.426c4.206,-2.592 6.812,-6.999 9.814,-6.865c2.526,0.113 3.222,3.484 5.166,5.668c2.383,2.676 5.236,3.369 7.739,5.218c2.37,1.75 3.374,9.32 8.839,11.867c3.549,1.654 11.372,1.515 16.819,-0.656c4.694,-1.872 6.929,-5.751 11.31,-5.461c4.166,0.275 4.933,7.616 8.831,10.5c4.959,3.669 13.148,2.741 19.831,-0.632c10.797,-3.28 14.692,-8.931 9.954,-17.549c0,0 16.112,1.49 19.407,-1.643c1.937,-1.842 5.421,-6.599 6.294,-11.326c1,-5.421 -0.68,-10.136 -0.68,-10.136c4.774,7.163 -0.561,18.072 -2.977,22.275c-1.26,2.191 -0.051,4.539 0.746,5.437c2.955,3.327 5.304,6.559 6.038,10.299l-18.933,11.019c0.553,-1.979 0.119,-3.799 -1.508,-5.427c-2.915,5.364 -5.959,9.481 -9.345,11.743l-1.437,0.837c-2.872,1.428 -5.997,1.538 -9.492,-0.012c1.699,1.069 2.968,2.175 3.824,3.311ZM149.572,515.526l-0.819,-0.477c0.095,-0.51 0.211,-0.963 0.343,-1.344c0,0 0.177,0.753 0.476,1.821Z" style="fill:#d4d7ce;"/><path d="M257.778,578.502l-23.076,-13.43c5.888,0.838 13.029,-0.511 21.261,-3.759c-4.415,-4.301 -6.628,-9.182 -7.188,-14.107c9.395,9.783 18.253,13.253 32.171,10.964c-1.114,1.639 -2.94,3.446 -7.497,5.324c2.684,1.442 5.52,2.407 8.489,2.951l-20.438,11.895c0.83,-0.727 1.629,-1.575 2.397,-2.545c-1.776,1.199 -3.649,2.289 -6.119,2.707ZM300.755,555.494l-5.668,3.299c-0.856,-1.136 -2.125,-2.242 -3.824,-3.311c3.495,1.55 6.62,1.44 9.492,0.012ZM313.045,548.341l-10.853,6.316c3.386,-2.262 6.43,-6.379 9.345,-11.743c1.627,1.628 2.061,3.448 1.508,5.427ZM222.443,557.937l-15.692,-9.133c1.315,-0.452 2.648,-0.987 3.994,-1.596c-8.061,-6.503 -14.118,-12.882 -8.117,-17.762c9.054,10.655 18.798,14.377 28.35,13.073c-2.241,2.111 -6.52,2.733 -13.893,2.388c1.124,5.498 2.926,9.813 5.358,13.03Z" style="fill:#bdc1b2;"/><path d="M259.5,579.505l-1.722,-1.003c2.47,-0.418 4.343,-1.508 6.119,-2.707c-0.768,0.97 -1.567,1.818 -2.396,2.545l-2.001,1.165Z" style="fill:#acb0a0;"/></g><g><path d="M126.891,502.325l-101.284,-58.948c7.337,-3.316 18.424,-1.924 32.745,3.531c18.773,-13.524 32.773,-7.887 43.204,12.069c25.567,3.809 31.656,16.915 21.272,38.003c1.599,1.727 2.958,3.519 4.063,5.345Z" style="fill:#f1f1ef;"/><path d="M115.228,495.537l-19.624,-11.421c-2.492,-2.783 -6.105,-4.964 -10.21,-5.943l-37.346,-21.736c1.504,0.177 3.1,0.376 4.794,0.595c19.849,-4.558 29.989,-2.553 33.344,4.038c-4.486,0.536 -8.669,1.343 -12.236,3.301c0,0 3.3,2.079 6.595,2.203c7.482,0.282 10.5,-0.735 14.98,1.349c5.666,2.638 9.251,7.991 10.973,7.234c2.007,-2.26 -0.258,-5.785 -6.001,-10.338c9.376,-1.956 22.347,3.435 25.66,7.557c2.047,2.546 1.68,4.715 0.68,10.136c-0.873,4.727 -4.358,9.484 -6.294,11.326c-0.945,0.898 -2.944,1.417 -5.315,1.699Z" style="fill:#e2e3dd;"/><path d="M124.827,501.124l-9.599,-5.587c2.371,-0.282 4.37,-0.801 5.315,-1.699c1.936,-1.842 5.421,-6.599 6.294,-11.326c1,-5.421 -0.68,-10.136 -0.68,-10.136c4.774,7.162 -0.561,18.071 -2.977,22.275c-1.26,2.191 -0.051,4.539 0.746,5.437c0.307,0.346 0.608,0.691 0.901,1.036Z" style="fill:#d4d7ce;"/></g><g><path d="M200.876,545.385l-122.202,-71.123c2.973,-7.183 11.082,-11.896 24.788,-13.938c10.431,-19.957 24.43,-25.593 43.203,-12.069c21.332,-8.125 35.487,-7.237 40.765,4.798c12.966,-8.558 26.829,-7.871 42.151,7.846c19.603,0.318 21.42,1.563 26.449,18.57c0,0 5.261,11.187 1.475,20.52c-1.998,4.925 -9.083,7.472 -12.804,10.837c-3.772,3.41 -4.167,7.607 -4.037,8.017c5.245,16.563 -7.357,18.251 -27.378,19.011c-4.59,0.174 -9.47,2.605 -12.41,7.531Z" style="fill:#f1f1ef;"/><path d="M220.937,473.465c8.661,3.749 9.699,9.054 5.766,16.966c7.975,-8.491 6.18,-14.746 -5.766,-16.966ZM78.521,474.173c0.105,-0.149 0.218,-0.299 0.339,-0.45c3.314,-4.122 16.284,-9.513 25.66,-7.557c-5.742,4.553 -8.008,8.077 -6.001,10.338c1.722,0.757 5.307,-4.596 10.974,-7.234c4.479,-2.085 7.497,-1.067 14.98,-1.349c3.294,-0.124 6.595,-2.203 6.595,-2.203c-3.567,-1.959 -7.751,-2.765 -12.236,-3.301c3.354,-6.591 13.494,-8.596 33.343,-4.039c17.928,-2.311 24.873,-2.449 28.479,2.771c1.045,1.513 -0.822,4.352 -2.689,5.01c-1.797,0.634 -10.519,0.726 -17.5,1.912c-6.637,1.128 -10.588,3.079 -10.666,5.011c19.18,-6.261 30.46,-3.552 26.939,15.963c1.892,-8.802 8.173,-13.878 20.279,-16.509c-3.056,-1.693 -9.021,-1.428 -16.702,-0.009c0.383,-3.214 1.296,-6.194 3.375,-8.66c7.106,-8.028 19.825,-0.377 23.097,1.435c3.637,2.012 12.056,1.501 17.113,1.916c6.063,0.497 9.459,10.513 12.193,13.662c1.782,2.051 2.467,-6.344 5.283,-8.322c1.258,-0.884 4.727,-1.15 6.81,0.566c2.244,1.848 3.109,5.768 4.54,7.112c2.295,2.156 5.855,4.208 5.209,7.88c0,0 -1.321,5.632 -2.844,7.921c-1.535,2.306 -6.366,5.92 -6.366,5.92c-26.998,10.071 -19.209,-9.561 -22.438,-10.641c-2.831,-0.946 -4.902,4.135 -11.18,5.847c-3.093,0.844 -8.807,0.112 -12.923,-2.425c-4.205,-2.593 -6.811,-7 -9.813,-6.865c-2.527,0.113 -3.223,3.484 -5.167,5.667c-2.382,2.677 -5.235,3.37 -7.738,5.218c-2.37,1.751 -3.374,9.32 -8.839,11.867c-3.55,1.654 -11.373,1.516 -16.819,-0.656c-4.695,-1.872 -6.929,-5.75 -11.31,-5.461c-2.083,0.138 -3.316,2.042 -4.516,4.272l-29.687,-17.278c6.149,-7.632 13.532,-11.118 22.078,-11.635c-10.606,-3.3 -21.347,2.859 -23.927,10.559l-27.925,-16.253Z" style="fill:#e2e3dd;"/><path d="M182.506,534.693l-44.524,-25.913c1.2,-2.23 2.433,-4.134 4.516,-4.272c4.381,-0.289 6.615,3.589 11.31,5.461c5.446,2.172 13.269,2.31 16.819,0.656c5.465,-2.547 6.469,-10.116 8.839,-11.867c2.503,-1.848 5.356,-2.541 7.738,-5.218c1.944,-2.183 2.64,-5.554 5.167,-5.667c3.002,-0.135 5.608,4.272 9.813,6.865c4.116,2.537 9.83,3.269 12.923,2.425c6.278,-1.712 8.349,-6.793 11.18,-5.847c3.229,1.08 -4.56,20.712 22.438,10.641c0,0 4.831,-3.614 6.366,-5.92c1.523,-2.289 2.844,-7.921 2.844,-7.921c1.076,3.083 1.018,10.923 -2.117,14.896c-3.393,4.298 -10.62,5.74 -11.9,8.008c-2.847,5.043 -5.573,14.615 -8.385,14.921c-5.006,0.546 -7.499,-4.013 -8.468,-12.923c-6.674,13.451 -18.156,14.317 -30.778,8.602c8.061,-6.503 14.117,-12.882 8.117,-17.762c-9.055,10.655 -18.798,14.377 -28.35,13.073c2.241,2.11 6.52,2.733 13.892,2.388c-1.423,6.967 -3.937,12.033 -7.44,15.374ZM78.69,474.271l-0.128,-0.074c0.095,-0.16 0.194,-0.318 0.298,-0.474c0,0 -0.069,0.194 -0.17,0.548Z" style="fill:#d4d7ce;"/><path d="M192.564,540.547l-10.058,-5.854c3.503,-3.341 6.017,-8.407 7.44,-15.374c-7.372,0.345 -11.651,-0.278 -13.892,-2.388c9.552,1.304 19.295,-2.418 28.35,-13.073c6,4.88 -0.056,11.259 -8.117,17.762c12.622,5.715 24.104,4.849 30.778,-8.602c0.969,8.91 3.462,13.469 8.468,12.923c2.812,-0.306 4.824,-9.053 4.824,-9.053c0.207,1.916 0.448,3.872 0.647,5.863c0.225,2.256 1.81,5.343 -0.299,7.435c-1.854,1.841 -6.365,3.201 -10.489,3.939c-6.462,1.493 -12.89,1.444 -19.311,1.115c-7.223,3.332 -11.438,0.747 -13.928,-5.234c-0.52,4.503 -2.019,7.987 -4.413,10.541Z" style="fill:#bdc1b2;"/><path d="M200.876,545.385l-8.312,-4.838c2.394,-2.554 3.893,-6.037 4.413,-10.541c2.49,5.981 6.705,8.566 13.928,5.234c6.421,0.329 12.849,0.378 19.311,-1.115c4.124,-0.738 8.635,-2.098 10.489,-3.939c0.08,-0.079 0.155,-0.16 0.224,-0.242c-3.066,6.374 -13.505,7.373 -27.643,7.91c-4.59,0.174 -9.47,2.605 -12.41,7.531Z" style="fill:#acb0a0;"/></g></g><g id="bottom"><path d="M368.496,488.969c-0.536,-0.007 -1.062,-0.112 -1.552,-0.334c-0.414,-0.187 -0.793,-0.45 -1.114,-0.771c-0.321,-0.321 -0.584,-0.7 -0.771,-1.114c-0.154,-0.34 -0.256,-0.703 -0.303,-1.073c-0.049,-0.38 -0.039,-0.768 0.028,-1.146c0.212,-1.18 0.998,-2.211 2.077,-2.732c0.45,-0.216 0.943,-0.342 1.442,-0.367c0.505,-0.026 1.014,0.05 1.49,0.224c0.428,0.157 0.826,0.393 1.171,0.691c0.342,0.297 0.631,0.655 0.847,1.053c0.177,0.325 0.305,0.676 0.379,1.039c0.077,0.375 0.097,0.762 0.058,1.144c-0.119,1.166 -0.795,2.231 -1.796,2.839c-0.48,0.292 -1.015,0.464 -1.571,0.528c-0.129,0.011 -0.256,0.017 -0.385,0.019Z" style="fill:#696969;fill-rule:nonzero;"/><path d="M148.301,488.969c-0.537,-0.007 -1.062,-0.112 -1.552,-0.334c-0.414,-0.187 -0.793,-0.45 -1.114,-0.771c-0.322,-0.321 -0.584,-0.7 -0.772,-1.114c-0.153,-0.34 -0.256,-0.703 -0.303,-1.073c-0.052,-0.411 -0.037,-0.832 0.046,-1.238c0.234,-1.143 1.01,-2.133 2.06,-2.639c0.45,-0.217 0.942,-0.343 1.441,-0.368c0.506,-0.026 1.015,0.05 1.49,0.224c0.428,0.157 0.827,0.393 1.171,0.691c0.343,0.297 0.631,0.655 0.848,1.053c0.176,0.326 0.305,0.677 0.379,1.039c0.077,0.375 0.096,0.762 0.057,1.144c-0.118,1.166 -0.795,2.231 -1.796,2.839c-0.48,0.292 -1.014,0.464 -1.571,0.528c-0.128,0.011 -0.256,0.017 -0.384,0.019Z" style="fill:#696969;fill-rule:nonzero;"/><path d="M259.255,552.267c-0.184,-0.011 -0.352,-0.066 -0.527,-0.123l-0.04,-0.012l-0.378,0c-0.07,-0.004 -0.069,-0.006 -0.138,-0.015c-0.109,-0.023 -0.203,-0.065 -0.298,-0.121l-0.009,-0.007l-0.112,-0.015l-0.162,-0.067c-34.117,-19.688 -68.648,-38.675 -102.35,-59.065c-0.068,-0.043 -0.134,-0.088 -0.2,-0.135c-0.435,-0.327 -0.786,-0.747 -1.008,-1.247c-0.143,-0.322 -0.23,-0.668 -0.257,-1.019c-0.082,-1.074 0.41,-2.159 1.275,-2.802c0.263,-0.197 0.559,-0.35 0.871,-0.453c0.383,-0.127 0.791,-0.178 1.194,-0.15c0.474,0.033 0.927,0.177 1.344,0.402l88.041,50.793l-35.844,-45.758c-0.047,-0.065 -0.093,-0.131 -0.137,-0.199c-0.206,-0.331 -0.358,-0.689 -0.442,-1.071c-0.207,-0.951 0.012,-1.989 0.648,-2.736c0.139,-0.164 0.296,-0.312 0.468,-0.441c1.012,-0.76 2.452,-0.875 3.556,-0.244c0.344,0.196 0.64,0.46 0.882,0.773l40.275,51.391c0,-16.617 -0.184,-33.234 0.001,-49.849c0.003,-0.084 0.007,-0.167 0.014,-0.251c0.048,-0.454 0.171,-0.895 0.394,-1.296c0.188,-0.339 0.441,-0.642 0.742,-0.888c0.304,-0.248 0.656,-0.435 1.03,-0.554c0.969,-0.308 2.061,-0.168 2.898,0.417c0.255,0.178 0.483,0.393 0.677,0.637c0.192,0.241 0.35,0.51 0.467,0.796c0.149,0.365 0.226,0.75 0.24,1.143l0.001,0.076l0,49.769c13.457,-17.17 26.556,-34.626 40.37,-51.509c0.277,-0.32 0.609,-0.581 0.993,-0.762c1.123,-0.532 2.527,-0.347 3.478,0.453c0.143,0.12 0.274,0.254 0.391,0.4c0.648,0.804 0.827,1.915 0.54,2.898c-0.11,0.379 -0.29,0.729 -0.522,1.047l-35.841,45.754c28.799,-16.636 57.441,-33.546 86.395,-49.909c0.07,-0.037 0.14,-0.071 0.211,-0.104c0.262,-0.11 0.533,-0.187 0.815,-0.221c1.108,-0.134 2.257,0.352 2.926,1.246c0.626,0.836 0.793,1.968 0.509,2.965c-0.144,0.51 -0.409,0.994 -0.801,1.356c-0.108,0.099 -0.225,0.186 -0.348,0.265l-0.058,0.035l-100.607,58.047l-0.162,0.067l-0.112,0.015c-0.024,0.017 -0.05,0.031 -0.076,0.046c-0.142,0.074 -0.288,0.097 -0.447,0.097c-0.024,0.014 -0.051,0.024 -0.076,0.036c-0.069,0.027 -0.08,0.034 -0.151,0.052c-0.105,0.028 -0.212,0.039 -0.32,0.044c-0.111,0.003 -0.111,0.002 -0.223,0.003Z" style="fill:#696969;fill-rule:nonzero;"/><g><path d="M315.415,485.024c5.521,0 9.427,-4.175 9.427,-9.158c0,-5.118 -3.906,-9.158 -9.427,-9.158c-5.522,0 -9.562,4.175 -9.562,9.158c0.134,5.117 4.04,9.158 9.562,9.158ZM310.028,475.866c0,-3.098 2.154,-5.522 5.387,-5.522c3.097,0 5.387,2.559 5.387,5.656c0,3.098 -2.155,5.522 -5.387,5.522c-3.098,-0.135 -5.387,-2.559 -5.387,-5.656Z" style="fill:#696969;fill-rule:nonzero;"/><path d="M254.493,481.041c1.049,-0.109 1.734,-0.706 1.885,-2.017l0,-5.256l6.734,0c0.943,0 1.751,-0.808 1.751,-1.75c0,-0.943 -0.808,-1.751 -1.751,-1.751l-6.734,0l0,-3.636l7.946,0c0.943,0 1.751,-0.808 1.751,-1.751c0,-0.943 -0.808,-1.751 -1.751,-1.751l-9.831,0c-1.078,0 -2.02,0.808 -2.02,2.02l0,13.872c0.134,1.212 0.942,2.02 2.02,2.02Z" style="fill:#696969;fill-rule:nonzero;"/><path d="M201.479,485.476c2.503,-0.109 4.71,-1.017 6.601,-2.534c3.046,-2.444 3.883,-5.706 1.692,-8.437c-1.939,-2.416 -4.357,-2.202 -7.784,-0.661c-2.921,1.308 -3.804,1.499 -4.479,0.658c-0.505,-0.63 -0.381,-1.766 0.775,-2.693c0.945,-0.759 2.143,-1.202 3.699,-1.415c0.295,-0.063 0.694,-0.211 0.904,-0.38c0.841,-0.674 0.965,-1.81 0.375,-2.545c-0.506,-0.63 -1.158,-0.798 -1.642,-0.755c-1.934,0.171 -3.742,0.931 -5.423,2.279c-2.836,2.276 -3.483,5.558 -1.46,8.079c2.191,2.731 4.651,2.139 7.993,0.493c2.817,-1.224 3.595,-1.33 4.269,-0.49c0.674,0.841 0.276,1.851 -0.984,2.862c-1.366,1.096 -2.943,1.498 -4.583,1.605c-0.295,0.064 -0.778,0.107 -1.093,0.36c-0.841,0.674 -0.965,1.81 -0.375,2.545c0.38,0.904 1.032,1.071 1.515,1.029Z" style="fill:#696969;fill-rule:nonzero;"/></g></g><g id="top"><path d="M257.816,45.265c0.051,-0.009 0.095,-0.014 0.06,-0.012c-0.03,0.005 -0.03,0.004 -0.06,0.012ZM259.139,110.3c-0.392,-0.005 -0.777,-0.068 -1.144,-0.206c-0.884,-0.332 -1.586,-1.06 -1.902,-1.948c-0.114,-0.322 -0.172,-0.657 -0.185,-0.999l-0.001,-0.075l0,-49.769c-13.456,17.17 -26.555,34.626 -40.37,51.509c-0.277,0.32 -0.609,0.58 -0.992,0.762c-1.124,0.531 -2.528,0.347 -3.478,-0.453c-0.143,-0.12 -0.275,-0.255 -0.392,-0.4c-0.647,-0.804 -0.827,-1.915 -0.54,-2.898c0.111,-0.379 0.29,-0.729 0.522,-1.047l35.845,-45.759c-28.845,16.638 -57.545,33.527 -86.533,49.914c-0.07,0.036 -0.14,0.071 -0.211,0.103c-0.333,0.141 -0.682,0.224 -1.043,0.24c-1.037,0.047 -2.075,-0.432 -2.699,-1.264c-0.364,-0.487 -0.583,-1.083 -0.625,-1.689c-0.023,-0.328 0.006,-0.659 0.086,-0.977c0.099,-0.392 0.275,-0.764 0.517,-1.089c0.267,-0.358 0.608,-0.648 0.995,-0.869l100.602,-58.045c0.103,-0.044 0.1,-0.054 0.212,-0.074c0.045,-0.022 0.091,-0.044 0.137,-0.065c0.107,-0.043 0.211,-0.07 0.325,-0.083c0.537,-0.032 1.075,-0.005 1.612,-0.002c0.2,0.007 0.392,0.043 0.569,0.143c0.069,0.038 0.129,0.085 0.19,0.135l-0.015,-0.015c34.095,19.676 68.69,38.509 102.285,59.029c0.069,0.044 0.136,0.09 0.202,0.139c0.295,0.227 0.55,0.495 0.754,0.807c0.598,0.915 0.754,2.153 0.286,3.158c-0.376,0.809 -1.157,1.351 -2.01,1.557c-0.192,0.047 -0.388,0.077 -0.585,0.089c-0.118,0.007 -0.235,0.007 -0.353,0.006c-0.222,-0.002 -0.445,-0.016 -0.663,-0.062c-0.264,-0.056 -0.515,-0.159 -0.742,-0.306l-88.018,-50.779l35.844,45.758c0.048,0.065 0.093,0.131 0.138,0.198c0.179,0.288 0.317,0.595 0.405,0.923c0.223,0.837 0.115,1.76 -0.337,2.504c-0.122,0.202 -0.269,0.389 -0.437,0.556c-0.085,0.085 -0.177,0.159 -0.269,0.236c-0.081,0.07 -0.157,0.142 -0.243,0.205c-0.169,0.123 -0.354,0.223 -0.549,0.3c-0.443,0.173 -0.927,0.22 -1.399,0.189c-0.415,-0.027 -0.826,-0.125 -1.201,-0.308c-0.424,-0.207 -0.778,-0.515 -1.076,-0.878l-40.282,-51.398c0,16.616 0.19,33.234 -0.001,49.849c-0.002,0.084 -0.007,0.167 -0.014,0.25c-0.036,0.35 -0.116,0.691 -0.255,1.014c-0.321,0.747 -0.932,1.341 -1.686,1.644c-0.328,0.132 -0.672,0.203 -1.024,0.231c-0.084,0.005 -0.168,0.008 -0.252,0.009Z" style="fill:#fff;fill-rule:nonzero;"/><g id="nodeschool-banner"><path d="M168.906,155.147c1.078,0 1.886,-0.808 1.886,-1.886l0,-9.562l7.811,10.236c0.539,0.673 1.077,1.212 2.02,1.212l0.135,0c1.077,0 2.02,-0.808 2.02,-2.02l0,-14.141c0,-1.078 -0.808,-1.886 -1.886,-1.886c-1.077,0 -1.885,0.808 -1.885,1.886l0,9.158l-7.542,-9.966c-0.539,-0.674 -1.077,-1.212 -2.02,-1.212l-0.404,0c-1.078,0 -2.02,0.808 -2.02,2.02l0,14.141c0,1.212 0.808,2.02 1.885,2.02Z" style="fill:#fff;fill-rule:nonzero;"/><path d="M195.707,155.282c5.521,0 9.562,-4.175 9.562,-9.158c0,-5.118 -3.906,-9.158 -9.428,-9.158c-5.521,0 -9.562,4.175 -9.562,9.158c0,5.117 3.906,9.158 9.428,9.158ZM190.454,146.124c0,-3.098 2.155,-5.522 5.387,-5.522c3.098,0 5.387,2.559 5.387,5.656c0,3.098 -2.154,5.522 -5.387,5.522c-3.232,-0.135 -5.387,-2.559 -5.387,-5.656Z" style="fill:#fff;fill-rule:nonzero;"/><path d="M210.656,155.012l4.983,0c5.656,0 9.427,-3.905 9.427,-8.888c0,-4.983 -3.906,-8.889 -9.427,-8.889l-4.983,0c-1.078,0 -2.02,0.808 -2.02,2.02l0,13.737c0.134,1.212 0.942,2.02 2.02,2.02ZM212.676,140.737l2.963,0c3.232,0 5.387,2.154 5.387,5.387c0,3.097 -2.155,5.387 -5.387,5.387l-2.963,0l0,-10.774Z" style="fill:#fff;fill-rule:nonzero;"/><path d="M230.588,155.012l9.966,0c0.943,0 1.751,-0.808 1.751,-1.751c0,-0.942 -0.808,-1.75 -1.751,-1.75l-8.081,0l0,-3.771l6.734,0c0.943,0 1.751,-0.808 1.751,-1.751c0,-0.943 -0.808,-1.751 -1.751,-1.751l-6.734,0l0,-3.636l7.946,0c0.943,0 1.751,-0.808 1.751,-1.751c0,-0.943 -0.808,-1.751 -1.751,-1.751l-9.831,0c-1.078,0 -2.02,0.808 -2.02,2.02l0,13.872c0.134,1.212 0.942,2.02 2.02,2.02Z" style="fill:#fff;fill-rule:nonzero;"/><path d="M245.402,153.127c2.02,1.481 4.31,2.155 6.734,2.155c3.906,0 6.599,-2.021 6.599,-5.522c0,-3.098 -2.02,-4.444 -5.656,-5.387c-3.098,-0.808 -3.906,-1.212 -3.906,-2.29c0,-0.808 0.808,-1.616 2.29,-1.616c1.212,0 2.424,0.404 3.771,1.212c0.269,0.135 0.673,0.27 0.942,0.27c1.078,0 1.886,-0.808 1.886,-1.751c0,-0.808 -0.404,-1.347 -0.808,-1.616c-1.616,-1.078 -3.502,-1.616 -5.657,-1.616c-3.636,0 -6.195,2.154 -6.195,5.387c0,3.501 2.29,4.579 5.926,5.387c2.963,0.808 3.636,1.212 3.636,2.289c0,1.078 -0.943,1.616 -2.559,1.616c-1.75,0 -3.232,-0.673 -4.579,-1.616c-0.269,-0.134 -0.673,-0.404 -1.077,-0.404c-1.077,0 -1.886,0.808 -1.886,1.751c-0.269,0.943 0.135,1.481 0.539,1.751Z" style="fill:#fff;fill-rule:nonzero;"/><path d="M270.317,155.282c2.828,0 4.714,-0.808 6.33,-2.29c0.404,-0.269 0.673,-0.808 0.673,-1.347c0,-0.942 -0.808,-1.75 -1.885,-1.75c-0.404,0 -0.808,0.134 -1.212,0.404c-1.078,0.942 -2.155,1.346 -3.906,1.346c-3.097,0 -5.117,-2.558 -5.117,-5.656c0,-3.098 2.154,-5.522 5.117,-5.522c1.347,0 2.559,0.404 3.637,1.212c0.269,0.135 0.673,0.404 1.212,0.404c1.077,0 1.885,-0.808 1.885,-1.885c0,-0.673 -0.404,-1.212 -0.808,-1.616c-1.481,-1.078 -3.232,-1.751 -5.926,-1.751c-5.521,0 -9.292,4.175 -9.292,9.158c0.269,5.252 4.175,9.293 9.292,9.293Z" style="fill:#fff;fill-rule:nonzero;"/><path d="M282.842,155.147c1.078,0 2.02,-0.808 2.02,-2.02l0,-5.387l7.273,0l0,5.387c0,1.077 0.808,2.02 2.02,2.02c1.077,0 2.02,-0.808 2.02,-2.02l0,-14.141c0,-1.078 -0.808,-2.02 -2.02,-2.02c-1.077,0 -2.02,0.808 -2.02,2.02l0,5.252l-7.273,0l0,-5.252c0,-1.078 -0.808,-2.02 -2.02,-2.02c-1.077,0 -2.02,0.808 -2.02,2.02l0,14.141c0,1.212 0.808,2.02 2.02,2.02Z" style="fill:#fff;fill-rule:nonzero;"/><path d="M308.835,155.282c5.521,0 9.427,-4.175 9.427,-9.158c0,-5.118 -3.906,-9.158 -9.427,-9.158c-5.522,0 -9.562,4.175 -9.562,9.158c0.134,5.117 4.04,9.158 9.562,9.158ZM303.448,146.124c0,-3.098 2.154,-5.522 5.387,-5.522c3.097,0 5.387,2.559 5.387,5.656c0,3.098 -2.155,5.522 -5.387,5.522c-3.098,-0.135 -5.387,-2.559 -5.387,-5.656Z" style="fill:#fff;fill-rule:nonzero;"/><path d="M330.518,155.282c5.521,0 9.562,-4.175 9.562,-9.158c0,-5.118 -3.906,-9.158 -9.428,-9.158c-5.522,0 -9.562,4.175 -9.562,9.158c0,5.117 3.906,9.158 9.428,9.158ZM325.13,146.124c0,-3.098 2.155,-5.522 5.388,-5.522c3.097,0 5.387,2.559 5.387,5.656c0,3.098 -2.155,5.522 -5.387,5.522c-3.098,-0.135 -5.388,-2.559 -5.388,-5.656Z" style="fill:#fff;fill-rule:nonzero;"/><path d="M345.467,155.012l9.158,0c0.942,0 1.75,-0.808 1.75,-1.751c0,-0.942 -0.808,-1.75 -1.75,-1.75l-7.273,0l0,-12.391c0,-1.077 -0.808,-2.02 -2.02,-2.02c-1.078,0 -2.02,0.808 -2.02,2.02l0,13.872c0.134,1.212 1.077,2.02 2.155,2.02Z" style="fill:#fff;fill-rule:nonzero;"/></g></g><path d="M259.5,600c-0.741,-0.006 -1.476,-0.087 -2.196,-0.268c-0.833,-0.21 -1.624,-0.544 -2.379,-0.953c-83.291,-48.477 -166.799,-96.576 -249.873,-145.43c-0.603,-0.369 -1.164,-0.798 -1.669,-1.296c-1.246,-1.229 -2.13,-2.819 -2.53,-4.53c-0.15,-0.641 -0.227,-1.293 -0.243,-1.951c-0.813,-97.044 -0.813,-194.1 0,-291.144c0.016,-0.658 0.093,-1.31 0.243,-1.951c0.4,-1.711 1.284,-3.301 2.53,-4.53c0.505,-0.498 1.066,-0.927 1.669,-1.296c83.118,-48.88 166.074,-98.062 250.006,-145.505c0.664,-0.361 1.361,-0.647 2.091,-0.841c1.632,-0.431 3.373,-0.403 4.989,0.081c0.628,0.189 1.228,0.447 1.804,0.76c83.932,47.443 166.888,96.625 250.006,145.505c0.603,0.369 1.164,0.798 1.669,1.296c1.246,1.229 2.13,2.819 2.53,4.53c0.15,0.641 0.227,1.293 0.243,1.951c0.813,97.044 0.813,194.1 0,291.144c-0.016,0.658 -0.093,1.31 -0.243,1.951c-0.4,1.711 -1.284,3.301 -2.53,4.53c-0.505,0.498 -1.066,0.927 -1.669,1.296c-83.159,48.904 -166.197,98.036 -250.128,145.577c-0.393,0.213 -0.797,0.398 -1.217,0.548c-0.902,0.321 -1.846,0.484 -2.8,0.521c-0.152,0.004 -0.152,0.004 -0.303,0.005ZM259.5,579.505l240.053,-139.714l0,-279.582l-240.053,-139.714l-240.053,139.714l0,279.582c80.018,46.572 160.035,93.143 240.053,139.714Z" style="fill:#fff;fill-rule:nonzero;"/><defs><linearGradient id="_Linear1" x1="0" y1="0" x2="1" y2="0" gradientUnits="userSpaceOnUse" gradientTransform="matrix(0.235449,568.33,-564.367,0.237102,259.398,22.1731)"><stop offset="0%" style="stop-color:#004c90;stop-opacity:1"/><stop offset="100%" style="stop-color:#64d7ff;stop-opacity:1"/></linearGradient></defs></svg>