<?xml version="1.0" encoding="UTF-8" standalone="no"?>
<!-- Generator: Adobe Illustrator 19.1.0, SVG Export Plug-In . SVG Version: 6.00 Build 0)  -->

<svg
   xmlns:dc="http://purl.org/dc/elements/1.1/"
   xmlns:cc="http://creativecommons.org/ns#"
   xmlns:rdf="http://www.w3.org/1999/02/22-rdf-syntax-ns#"
   xmlns:svg="http://www.w3.org/2000/svg"
   xmlns="http://www.w3.org/2000/svg"
   xmlns:sodipodi="http://sodipodi.sourceforge.net/DTD/sodipodi-0.dtd"
   xmlns:inkscape="http://www.inkscape.org/namespaces/inkscape"
   version="1.1"
   id="Camada_1"
   x="0px"
   y="0px"
   viewBox="0 0 483.99999 555.82502"
   xml:space="preserve"
   inkscape:version="0.91 r13725"
   sodipodi:docname="nodeschoolcps.svg"
   width="484"
   height="555.82501"><metadata
     id="metadata423"><rdf:RDF><cc:Work
         rdf:about=""><dc:format>image/svg+xml</dc:format><dc:type
           rdf:resource="http://purl.org/dc/dcmitype/StillImage" /><dc:title></dc:title></cc:Work></rdf:RDF></metadata><defs
     id="defs421" /><sodipodi:namedview
     pagecolor="#ffffff"
     bordercolor="#666666"
     borderopacity="1"
     objecttolerance="10"
     gridtolerance="10"
     guidetolerance="10"
     inkscape:pageopacity="0"
     inkscape:pageshadow="2"
     inkscape:window-width="1280"
     inkscape:window-height="991"
     id="namedview419"
     showgrid="false"
     fit-margin-top="0"
     fit-margin-left="0"
     fit-margin-right="0"
     fit-margin-bottom="0"
     inkscape:zoom="0.39643878"
     inkscape:cx="249.71738"
     inkscape:cy="277.25001"
     inkscape:window-x="0"
     inkscape:window-y="136"
     inkscape:window-maximized="1"
     inkscape:current-layer="Camada_1" /><style
     type="text/css"
     id="style3">
	.st0{fill:#333333;}
	.st1{fill:#629689;}
</style><g
     id="g5"
     transform="translate(-178.8,-19.075)"><polygon
       class="st0"
       points="195.7,167.2 420.8,37.4 645.6,167.2 645.8,426.8 420.8,556.6 196.1,426.8 "
       id="polygon7"
       style="fill:#333333" /></g><g
     id="g9"
     transform="translate(-178.8,-19.075)"><g
       id="g11"><g
         id="top-stripes_1_"><g
           id="g14"><path
             class="st1"
             d="M 495,92.3 421.8,50 l 0,0 c -0.1,-0.1 -0.2,-0.1 -0.3,-0.1 l 0,0 0,0 -0.1,0 -0.1,0 c -0.1,0 -0.2,0 -0.3,0 0,0 0,0 -0.1,0 l -0.1,0 c -0.1,0 -0.3,0 -0.4,0 l 0,0 0,0 0,0 c -0.1,0 -0.2,0.1 -0.3,0.1 l 0,0 -72,41.6 c -0.9,0.5 -1.2,1.5 -0.7,2.4 0.5,0.9 1.6,1.2 2.4,0.7 l 64,-36.9 -27.2,34.7 c -0.6,0.8 -0.5,1.9 0.3,2.5 0.8,0.6 1.9,0.5 2.5,-0.3 l 29.7,-37.9 0,37 c 0,1 0.8,1.8 1.8,1.8 1.1,0 1.8,-0.8 1.8,-1.8 l 0,-37 29.7,37.9 c 0.4,0.5 0.9,0.7 1.4,0.7 0.4,0 0.8,-0.1 1.1,-0.4 0.8,-0.6 0.9,-1.7 0.3,-2.5 L 428,57.8 493.2,95.4 c 0.3,0.2 0.6,0.2 0.9,0.2 0.6,0 1.3,-0.3 1.5,-0.9 0.6,-0.8 0.3,-2 -0.6,-2.4 l 0,0 z"
             id="path16"
             inkscape:connector-curvature="0"
             style="fill:#629689" /></g></g><g
         id="g18"><g
           id="bottom-stripes_1_"><g
             id="g21"><path
               class="st1"
               d="m 507.6,487.9 c -0.6,-1 -1.9,-1.4 -2.8,-0.8 l -75.5,43.6 32.1,-41 c 0.7,-0.9 0.6,-2.3 -0.3,-3 -0.9,-0.7 -2.3,-0.6 -3,0.3 l -35.1,44.9 0,-43.7 c 0,-1.1 -0.9,-2.2 -2.2,-2.2 -1.3,0 -2.2,0.9 -2.2,2.2 l 0,43.7 -35.1,-44.7 c -0.7,-0.9 -2,-1 -3,-0.3 -0.9,0.7 -1,2 -0.3,3 l 32.1,41 -77,-44.4 c -1,-0.6 -2.3,-0.2 -2.8,0.8 -0.5,1 -0.2,2.3 0.8,2.8 l 86.4,49.9 c 0,0 0,0 0.1,0 0.1,0 0.1,0.1 0.2,0.1 0,0 0,0 0.1,0 0,0 0,0 0.1,0 l 0.1,0 c 0.1,0 0.3,0.1 0.5,0.1 l 0,0 0,0 0,0 0,0 c 0.2,0 0.3,0 0.5,-0.1 l 0.1,0 0.1,0 c 0.1,0 0.1,-0.1 0.2,-0.1 0,0 0,0 0.1,0 l 85.1,-49.1 c 0.9,-0.6 1.3,-2 0.7,-3 z"
               id="path23"
               inkscape:connector-curvature="0"
               style="fill:#629689" /></g></g><g
           id="bottom-dot-right_1_"><g
             id="g26"><ellipse
               class="st1"
               cx="513.29999"
               cy="476.39999"
               rx="2.5999999"
               ry="2.5"
               id="ellipse28"
               style="fill:#629689" /></g></g><g
           id="bottom-dot-left_1_"><g
             id="g31"><ellipse
               class="st1"
               cx="327.10001"
               cy="476.39999"
               rx="2.5999999"
               ry="2.5"
               id="ellipse33"
               style="fill:#629689" /></g></g><g
           id="letter-left_1_"><path
             class="st1"
             d="m 367.3,473.5 c 0.2,-1.5 1,-2.7 2.4,-3.6 1.8,-1.3 3.5,-1.6 5.2,-1 0.9,0.3 1.6,0.8 2.1,1.5 l -2.2,1.6 c -0.5,-0.4 -1,-0.7 -1.4,-0.8 -0.7,-0.2 -1.5,0 -2.3,0.5 -0.8,0.6 -1.2,1.3 -1.2,2.3 0,1 0.4,2.1 1.3,3.3 0.9,1.2 1.7,1.9 2.6,2.2 0.9,0.3 1.7,0.1 2.5,-0.4 0.8,-0.5 1.2,-1.2 1.2,-2 0,-0.4 -0.1,-1 -0.3,-1.6 l 2.2,-1.6 c 0.6,1.3 0.8,2.6 0.5,3.9 -0.3,1.3 -1,2.4 -2.3,3.2 -1.5,1.1 -3.1,1.4 -4.6,1 -1.6,-0.4 -3,-1.4 -4.2,-3.2 -1.3,-1.8 -1.8,-3.6 -1.5,-5.3 z"
             id="path36"
             inkscape:connector-curvature="0"
             style="fill:#629689" /></g><g
           id="letter-middle_1_"><path
             class="st1"
             d="m 424.1,470.6 c -0.8,0.6 -1.9,1 -3.3,1 l -2.7,0 0,4.7 -2.7,0 0,-13.1 5.6,0 c 1.3,0 2.3,0.3 3.1,1 0.8,0.7 1.2,1.7 1.2,3.1 -0.1,1.6 -0.4,2.7 -1.2,3.3 z m -2.1,-4.7 c -0.3,-0.3 -0.8,-0.4 -1.5,-0.4 l -2.5,0 0,3.9 2.5,0 c 0.6,0 1.1,-0.2 1.5,-0.5 0.4,-0.3 0.5,-0.8 0.5,-1.5 0,-0.7 -0.2,-1.2 -0.5,-1.5 z"
             id="path39"
             inkscape:connector-curvature="0"
             style="fill:#629689" /></g><g
           id="letter-right_1_"><path
             class="st1"
             d="m 464.4,477.2 c -0.3,0.5 -0.4,1 -0.4,1.4 0.1,0.7 0.5,1.4 1.4,2 0.5,0.4 1,0.6 1.4,0.7 0.8,0.2 1.4,0 1.8,-0.6 0.2,-0.4 0.3,-0.7 0.1,-1.2 -0.2,-0.4 -0.6,-0.9 -1.1,-1.5 l -1,-1.1 c -1,-1.1 -1.6,-1.9 -1.8,-2.5 -0.4,-1 -0.2,-2 0.5,-3.1 0.7,-1 1.6,-1.5 2.7,-1.7 1.1,-0.2 2.4,0.3 3.8,1.2 1.1,0.8 1.9,1.8 2.3,3 0.4,1.2 0.2,2.3 -0.6,3.5 l -2.2,-1.5 c 0.4,-0.7 0.4,-1.3 0.1,-2 -0.2,-0.4 -0.6,-0.8 -1.1,-1.2 -0.6,-0.4 -1.1,-0.6 -1.7,-0.6 -0.5,0 -0.9,0.2 -1.2,0.6 -0.3,0.4 -0.3,0.8 -0.1,1.2 0.1,0.3 0.5,0.8 1.1,1.4 l 1.6,1.8 c 0.7,0.8 1.1,1.5 1.3,2.1 0.3,1 0.1,1.9 -0.6,2.9 -0.7,1 -1.6,1.5 -2.9,1.6 -1.2,0.1 -2.5,-0.3 -3.9,-1.3 -1.4,-1 -2.3,-2.1 -2.7,-3.3 -0.4,-1.2 -0.2,-2.4 0.6,-3.5 l 2.6,1.7 z"
             id="path42"
             inkscape:connector-curvature="0"
             style="fill:#629689" /></g></g></g><g
       id="g44"><g
         id="g46"><g
           id="g48"><path
             class="st1"
             d="m 215,438.5 c -0.3,0 -0.6,-0.2 -0.7,-0.6 -0.1,-0.4 0.2,-0.7 0.6,-0.8 l 82.6,-16.3 -110.1,0 c -0.4,0 -0.7,-0.3 -0.7,-0.7 0,-0.4 0.3,-0.7 0.7,-0.7 l 117.3,0 c 0.4,0 0.7,0.3 0.7,0.6 0,0.4 -0.2,0.7 -0.6,0.8 l -89.6,17.7 c -0.1,0 -0.1,0 -0.2,0 z"
             id="path50"
             inkscape:connector-curvature="0"
             style="fill:#629689" /></g></g><g
         id="g52"><g
           id="g54"><path
             class="st1"
             d="m 627.6,438 c 0,0 -0.1,0 -0.1,0 L 537,421.1 c -0.4,-0.1 -0.6,-0.4 -0.6,-0.8 0,-0.4 0.3,-0.6 0.7,-0.6 l 117.2,0 c 0.4,0 0.7,0.3 0.7,0.7 0,0.4 -0.3,0.7 -0.7,0.7 l -109.7,0 83.1,15.5 c 0.4,0.1 0.6,0.4 0.6,0.8 -0.1,0.4 -0.4,0.6 -0.7,0.6 z"
             id="path56"
             inkscape:connector-curvature="0"
             style="fill:#629689" /></g></g></g><g
       id="g58"><g
         id="g60"><g
           id="g62"><path
             class="st1"
             d="M 658.5,154.8 425.1,20.2 c -2.6,-1.5 -5.9,-1.5 -8.6,0 L 183.1,154.8 c -2.6,1.5 -4.3,4.4 -4.3,7.4 l 0,269.5 c 0,3 1.6,5.9 4.3,7.4 l 233.4,134.7 c 1.4,0.8 2.8,1.1 4.3,1.1 1.5,0 3,-0.4 4.3,-1.1 L 658.5,439.1 c 2.6,-1.5 4.3,-4.4 4.3,-7.4 l 0,-269.4 c -0.1,-3.1 -1.7,-6 -4.3,-7.5 z m -12.7,272 -225,129.8 -224.7,-129.8 -0.4,-259.7 225.1,-129.7 224.8,129.8 0.2,259.6 z m -0.2,-139.5 0,0.6 -0.4,-0.6 0.4,0 z"
             id="path64"
             inkscape:connector-curvature="0"
             style="fill:#629689" /></g></g></g><g
       id="g66"><g
         id="g68"><g
           id="g70"><path
             class="st1"
             d="m 223.4,420.6 c -0.3,0 -0.5,-0.2 -0.5,-0.5 l 0,-60 -15.9,4.8 0,55.2 c 0,0.3 -0.2,0.5 -0.5,0.5 -0.3,0 -0.5,-0.2 -0.5,-0.5 l 0,-55.6 c 0,-0.2 0.1,-0.4 0.3,-0.4 l 16.8,-5.1 c 0.1,0 0.3,0 0.4,0.1 0.1,0.1 0.2,0.2 0.2,0.4 l 0,60.7 c 0.2,0.2 0,0.4 -0.3,0.4 z"
             id="path72"
             inkscape:connector-curvature="0"
             style="fill:#629689" /></g></g><g
         id="g74"><g
           id="g76"><path
             class="st1"
             d="m 210.7,363.8 c -0.3,0 -0.5,-0.2 -0.5,-0.5 l 0,-27 -16.5,-7.6 c -0.2,-0.1 -0.3,-0.4 -0.2,-0.6 0.1,-0.2 0.4,-0.3 0.6,-0.2 l 16.8,7.7 c 0.2,0.1 0.3,0.2 0.3,0.4 l 0,27.3 c 0,0.2 -0.3,0.5 -0.5,0.5 z"
             id="path78"
             inkscape:connector-curvature="0"
             style="fill:#629689" /></g></g><g
         id="g80"><g
           id="g82"><path
             class="st1"
             d="m 240.2,420.6 c -0.3,0 -0.5,-0.2 -0.5,-0.5 l 0,-55.2 -16.5,-5 c -0.2,-0.1 -0.4,-0.3 -0.3,-0.6 0.1,-0.2 0.3,-0.4 0.6,-0.3 l 16.8,5.1 c 0.2,0.1 0.3,0.2 0.3,0.4 l 0,55.6 c 0.1,0.3 -0.1,0.5 -0.4,0.5 z"
             id="path84"
             inkscape:connector-curvature="0"
             style="fill:#629689" /></g></g><g
         id="g86"><g
           id="g88"><path
             class="st1"
             d="m 254.4,420.6 c -0.1,0 -0.2,0 -0.3,-0.1 -0.2,-0.2 -0.2,-0.5 0,-0.7 l 3,-2.9 c 0.5,-0.5 0.8,-1.3 0.5,-2 l -0.8,-2.6 c -0.2,-0.6 -0.2,-1.3 0.1,-1.9 l 0.8,-2.1 c 0.2,-0.5 0.2,-1 0,-1.4 l -0.8,-1.8 c -0.2,-0.6 -0.3,-1.2 -0.2,-1.8 0.1,-0.6 0,-1.1 -0.4,-1.6 -0.4,-0.5 -1.1,-0.8 -1.8,-0.8 l -0.3,0 c -1.2,0 -2.3,-0.7 -2.8,-1.7 l -2,-3.9 c -0.3,-0.5 -0.7,-0.9 -1.3,-1.1 l -5.5,-1.6 c -0.2,-0.1 -0.4,-0.1 -0.6,-0.1 l -1.5,0 c -0.2,0 -0.3,0 -0.4,0 -0.3,0 -0.4,-0.3 -0.4,-0.5 0,-0.3 0.3,-0.4 0.5,-0.4 0.1,0 0.2,0 0.3,0 l 1.5,0 c 0.3,0 0.6,0 0.9,0.1 l 5.5,1.6 c 0.8,0.2 1.5,0.8 1.9,1.6 l 2,3.9 c 0.4,0.7 1.1,1.2 2,1.2 l 0.3,0 c 1,0 1.9,0.4 2.5,1.2 0.5,0.7 0.7,1.6 0.6,2.4 -0.1,0.4 -0.1,0.8 0.1,1.2 l 0.8,1.8 c 0.3,0.7 0.3,1.5 0,2.2 l -0.8,2.1 c -0.2,0.4 -0.2,0.8 0,1.2 l 0.8,2.6 c 0.3,1 0,2.2 -0.8,2.9 l -3,2.9 c -0.1,0 -0.3,0.1 -0.4,0.1 z"
             id="path90"
             inkscape:connector-curvature="0"
             style="fill:#629689" /></g></g><g
         id="g92"><g
           id="g94"><path
             class="st1"
             d="m 633.6,420.6 c -0.3,0 -0.5,-0.2 -0.5,-0.5 l 0,-55.3 -15.9,-4.8 0,60.1 c 0,0.3 -0.2,0.5 -0.5,0.5 -0.3,0 -0.5,-0.2 -0.5,-0.5 l 0,-60.7 c 0,-0.1 0.1,-0.3 0.2,-0.4 0.1,-0.1 0.3,-0.1 0.4,-0.1 l 16.8,5.1 c 0.2,0.1 0.3,0.2 0.3,0.4 l 0,55.6 c 0.1,0.4 -0.1,0.6 -0.3,0.6 z"
             id="path96"
             inkscape:connector-curvature="0"
             style="fill:#629689" /></g></g><g
         id="g98"><g
           id="g100"><path
             class="st1"
             d="m 629.5,363.8 c -0.3,0 -0.5,-0.2 -0.5,-0.5 l 0,-27.3 c 0,-0.2 0.1,-0.3 0.3,-0.4 l 16.8,-7.7 c 0.2,-0.1 0.5,0 0.6,0.2 0.1,0.2 0,0.5 -0.2,0.6 l -16.5,7.6 0,27 c 0,0.2 -0.2,0.5 -0.5,0.5 z"
             id="path102"
             inkscape:connector-curvature="0"
             style="fill:#629689" /></g></g><g
         id="g104"><g
           id="g106"><path
             class="st1"
             d="m 600,420.6 c -0.3,0 -0.5,-0.2 -0.5,-0.5 l 0,-55.6 c 0,-0.2 0.1,-0.4 0.3,-0.4 l 16.8,-5.1 c 0.2,-0.1 0.5,0.1 0.6,0.3 0.1,0.2 -0.1,0.5 -0.3,0.6 l -16.5,5 0,55.3 c 0,0.2 -0.2,0.4 -0.4,0.4 z"
             id="path108"
             inkscape:connector-curvature="0"
             style="fill:#629689" /></g></g><g
         id="g110"><g
           id="g112"><path
             class="st1"
             d="m 586.1,420.9 c -0.1,0 -0.2,0 -0.3,-0.1 l -3.4,-3.2 c -0.8,-0.8 -1.1,-1.9 -0.8,-2.9 l 0.8,-2.6 c 0.1,-0.4 0.1,-0.8 0,-1.2 l -0.8,-2.1 c -0.3,-0.7 -0.3,-1.5 0,-2.2 l 0.8,-1.8 c 0.2,-0.4 0.2,-0.8 0.1,-1.2 -0.2,-0.8 0,-1.7 0.5,-2.4 0.6,-0.7 1.5,-1.2 2.5,-1.2 l 0.3,0 c 0.8,0 1.6,-0.5 2,-1.2 l 2,-3.9 c 0.4,-0.8 1.1,-1.3 1.9,-1.6 l 5.5,-1.6 c 0.3,-0.1 0.6,-0.1 0.9,-0.1 l 1.5,0 c 0.1,0 0.2,0 0.3,0 0.3,0 0.5,0.1 0.5,0.4 0,0.3 -0.1,0.5 -0.4,0.5 -0.1,0 -0.3,0 -0.4,0 l -1.5,0 c -0.2,0 -0.4,0 -0.6,0.1 l -5.5,1.6 c -0.6,0.2 -1.1,0.6 -1.3,1.1 l -2,3.9 c -0.5,1 -1.6,1.7 -2.8,1.7 l -0.3,0 c -0.7,0 -1.3,0.3 -1.8,0.8 -0.4,0.5 -0.5,1 -0.4,1.6 0.1,0.6 0.1,1.2 -0.2,1.8 l -0.8,1.8 c -0.2,0.5 -0.2,1 0,1.4 l 0.8,2.1 c 0.2,0.6 0.3,1.3 0.1,1.9 l -0.8,2.6 c -0.2,0.7 0,1.4 0.5,2 l 3.4,3.2 c 0.2,0.2 0.2,0.5 0,0.7 0,0.1 -0.2,0.1 -0.3,0.1 z"
             id="path114"
             inkscape:connector-curvature="0"
             style="fill:#629689" /></g></g></g><g
       id="g116"><g
         id="g118"><path
           class="st1"
           d="m 630.3,252.5 c -1,-4.5 -4.2,-8.3 -8.5,-10.1 0,-10.8 -8.8,-19.5 -19.6,-19.5 -9.5,0 -17.5,6.7 -19.2,16 -0.8,-0.1 -1.6,-0.2 -2.4,-0.2 -7.7,0 -13.9,6.3 -13.9,13.9 0,0.3 0.2,0.5 0.5,0.5 l 62.8,0 c 0.1,0 0.3,-0.1 0.4,-0.2 -0.1,-0.1 -0.1,-0.2 -0.1,-0.4 z m -62.8,-0.3 c 0.2,-7 6,-12.5 13,-12.5 0.9,0 1.8,0.1 2.7,0.3 0.1,0 0.3,0 0.4,-0.1 0.1,-0.1 0.2,-0.2 0.2,-0.3 1.5,-9.1 9.2,-15.7 18.4,-15.7 10.3,0 18.6,8.4 18.6,18.6 l 0,0.3 c 0,0.2 0.1,0.4 0.3,0.4 4,1.6 7,4.9 8.1,9 l -61.7,0 z"
           id="path120"
           inkscape:connector-curvature="0"
           style="fill:#629689" /></g><g
         id="g122"><path
           class="st1"
           d="m 599.4,223.6 c -2.7,-11.4 -12.8,-19.4 -24.6,-19.4 -12.3,0 -22.7,8.7 -24.9,20.8 -1.1,-0.2 -2.2,-0.3 -3.3,-0.3 -9.9,0 -18,8.1 -18,18 0,0.3 0.2,0.5 0.5,0.5 l 42.4,0 c 0.1,0 0.2,0 0.3,-0.1 3.1,-2.8 7.3,-3.9 11.4,-3.1 0.1,0 0.3,0 0.4,-0.1 0.1,-0.1 0.2,-0.2 0.2,-0.3 1.3,-7.8 7.3,-14 15.2,-15.4 0.1,0 0.2,-0.1 0.3,-0.2 0.1,-0.1 0.1,-0.3 0.1,-0.4 z M 583,238.9 c 0,0 0,0 0,0 0,0 0,0 0,0 -1.1,-0.2 -2.1,-0.2 -3.1,-0.2 -3.1,0.2 -6.1,1.4 -8.5,3.5 l 0,0 -41.7,0 0,0 c 0.2,-9.2 7.8,-16.6 17,-16.6 0,0 0,0 0,0 0,0 0,0 0,0 1.2,0 2.4,0.1 3.6,0.4 0,0 0.1,0 0.1,0 0.1,0 0.1,0 0.2,-0.1 0.1,-0.1 0.2,-0.2 0.2,-0.3 1.9,-11.9 12,-20.5 24,-20.5 0,0 0,0 0,0 0,0 0,0 0,0 11.1,0 20.8,7.5 23.5,18.2 -7.7,1.6 -13.8,7.8 -15.3,15.6 z"
           id="path124"
           inkscape:connector-curvature="0"
           style="fill:#629689" /></g><g
         id="g126"><path
           class="st1"
           d="m 301.3,210.7 c -1.1,-4.8 -4.5,-8.8 -9.1,-10.7 l 0,0 c 0,-11.4 -9.3,-20.7 -20.7,-20.7 -6.5,0 -12.5,3 -16.5,8.2 -0.1,0.1 -0.1,0.3 -0.1,0.4 0.1,0.1 0.2,0.2 0.3,0.3 10.9,2.2 19,11.6 19.6,22.7 0,0.2 0.2,0.4 0.4,0.4 l 25.5,0 c 0.1,0 0.3,-0.1 0.3,-0.2 0.3,-0.2 0.3,-0.3 0.3,-0.4 z m -25.6,-0.3 c -0.8,-11.1 -8.8,-20.4 -19.6,-22.9 3.8,-4.7 9.4,-7.3 15.4,-7.3 11,0 19.9,8.9 19.9,19.9 l 0,0.3 c 0,0.2 0.1,0.3 0.3,0.4 4.3,1.7 7.5,5.3 8.7,9.7 l -24.7,0 z"
           id="path128"
           inkscape:connector-curvature="0"
           style="fill:#629689" /></g><g
         id="g130"><path
           class="st1"
           d="m 287,225.5 c -1.4,-5.9 -5.6,-10.8 -11.2,-13.2 l 0,-0.1 c 0,-14.1 -11.4,-25.5 -25.5,-25.5 -12.5,0 -23,8.8 -25.1,21 -1.1,-0.2 -2.2,-0.3 -3.4,-0.3 -10,0 -18.1,8.1 -18.1,18.1 0,0.2 0.2,0.4 0.4,0.4 l 82.5,0 c 0.1,0 0.3,-0.1 0.3,-0.2 0.1,0.1 0.2,-0.1 0.1,-0.2 z m -82.5,-0.3 c 0.2,-9.3 7.9,-16.9 17.3,-16.9 1.2,0 2.4,0.1 3.6,0.4 0.1,0 0.2,0 0.3,-0.1 0.1,-0.1 0.2,-0.2 0.2,-0.3 1.9,-12 12.2,-20.7 24.4,-20.7 13.6,0 24.7,11.1 24.7,24.7 l 0,0.4 c 0,0.2 0.1,0.3 0.3,0.4 5.4,2.1 9.4,6.6 10.8,12.2 l -81.6,0 z"
           id="path132"
           inkscape:connector-curvature="0"
           style="fill:#629689" /></g></g></g><g
     id="g134"
     transform="translate(-178.8,-19.075)"><g
       id="g136"><g
         id="g138"><path
           class="st0"
           d="m 420.8,340 c -0.1,0 -0.1,0 -0.2,0 l -8.3,0 c -0.4,0 -0.7,0.2 -0.7,0.6 0,3.4 -2.4,7.1 -5.8,7.1 -0.4,0 -0.7,0.3 -0.7,0.7 l 0,10.5 c 0,0.4 0.3,0.8 0.7,0.8 3.4,0 5.8,4 5.8,7.4 0,0.4 0.3,1 0.7,1 l 8.3,0 c 0.1,0 0.2,0 0.2,-0.1 0.1,0 0.1,0.1 0.2,0.1 l 8.3,0 c 0.4,0 0.7,-0.6 0.7,-1 0,-3.4 2.6,-7.3 6,-7.3 0.4,0 1,-0.5 1,-0.9 l 0,-10.5 c 0,-0.4 -0.6,-0.8 -1,-0.8 -3.4,0 -5.9,-3.7 -5.9,-7 0,-0.4 -0.4,-0.6 -0.8,-0.6 l -8.3,0 c -0.1,0 -0.2,0 -0.2,0 z m 14.2,9.1 0,9 c -4,0.4 -6.1,3.8 -6.4,7.8 l -7.6,0 c -0.1,0 -0.2,0 -0.2,0 -0.1,0 -0.1,0 -0.2,0 l -7.6,0 c -0.3,-4 -1.9,-7.4 -5.9,-7.8 l 0,-9 c 4,-0.4 5.6,-4.1 5.9,-8.1 l 7.6,0 c 0.1,0 0.2,0 0.2,-0.1 0.1,0 0.1,0.1 0.2,0.1 l 7.6,0 c 0.3,4 2.4,7.7 6.4,8.1 z"
           id="path140"
           inkscape:connector-curvature="0"
           style="fill:#333333" /></g><g
         id="g142"><path
           class="st0"
           d="m 383,215.1 0,8.1 c -1,0.1 -2,0.2 -2.1,0.2 -0.4,0 -0.9,0.4 -0.9,0.8 0,0.4 0.2,0.7 0.6,0.7 0,0 0,0 0,0 0,0 0.6,-0.1 1.7,-0.2 0.1,0.1 0.3,0.2 0.4,0.2 0.2,0 0.4,-0.1 0.5,-0.3 6.2,-0.6 22,-1.9 37.2,-2.1 0.1,0 0.1,0 0.2,-0.1 0.1,0 0.1,0.1 0.2,0.1 15.2,0.2 31,1.5 37.2,2.1 0.1,0.2 0.3,0.3 0.5,0.3 0.2,0 0.3,-0.1 0.4,-0.2 1.1,0.1 1.7,0.2 1.7,0.2 0,0 0,0 0.1,0 0.4,0 0.7,-0.3 0.7,-0.7 0,-0.4 -0.5,-0.8 -0.8,-0.8 0,0 -0.8,-0.1 -1.8,-0.2 l 0,-8.1 c 0,-0.4 -0.1,-0.8 -0.5,-0.8 -0.4,0 -0.5,0.3 -0.5,0.8 l 0,7.9 c -6,-0.6 -22,-2.1 -37,-2.1 0,0 0,0 0,0 -0.1,0 -0.1,0 -0.2,0 -0.1,0 0.1,-0.1 0,-0.1 -15,0.2 -30.8,1.5 -36.8,2.1 l 0,-7.9 c 0,-0.4 -0.1,-0.8 -0.5,-0.8 -0.4,0 -0.3,0.5 -0.3,0.9 z"
           id="path144"
           inkscape:connector-curvature="0"
           style="fill:#333333" /></g><g
         id="g146"><path
           class="st0"
           d="m 421,233 c -0.1,0 -0.2,0 -0.3,0.1 -0.1,0 -0.1,0 -0.2,0 -19.6,0.2 -41.7,2.4 -42,2.4 -0.4,0 -0.7,0.4 -0.6,0.8 0,0.4 0.3,0.7 0.7,0.7 0,0 0,0 0.1,0 0.2,0 22.3,-2.1 41.9,-2.4 0.1,0 0.2,0 0.2,-0.1 0.1,0 0.1,0.1 0.2,0.1 19.6,0.2 41.6,2.4 41.9,2.4 0,0 0,0 0.1,0 0.4,0 0.7,-0.3 0.7,-0.7 0,-0.4 -0.2,-0.8 -0.6,-0.8 -0.3,-0.1 -22.5,-2.5 -42.1,-2.5 l 0,0 z"
           id="path148"
           inkscape:connector-curvature="0"
           style="fill:#333333" /></g><g
         id="g150"><path
           class="st0"
           d="m 440,370 0,-32.6 c 0,-0.4 -0.4,-0.3 -0.8,-0.3 l -18.2,0 c -0.1,0 -0.2,0 -0.2,0.1 -0.1,0 -0.1,-0.1 -0.2,-0.1 l -18.2,0 c -0.4,0 -0.3,-0.1 -0.3,0.3 l 0,32.6 c 0,0.4 0,1 0.3,1 l 18.2,0 c 0.1,0 0.2,0 0.2,-0.1 0.1,0 0.1,0.1 0.2,0.1 l 18.2,0 c 0.4,0 0.8,-0.6 0.8,-1 z m -1,-1 -18,0 c -0.1,0 -0.2,0 -0.2,0.1 -0.1,0 -0.1,-0.1 -0.2,-0.1 l -17.6,0 0,-31 17.5,0 c 0.1,0 0.2,0 0.2,-0.1 0.1,0 0.1,0.1 0.2,0.1 l 18,0 0,31 z"
           id="path152"
           inkscape:connector-curvature="0"
           style="fill:#333333" /></g><g
         id="g154"><path
           class="st0"
           d="m 438,263.2 c -0.1,0 -9.7,-1.2 -16.9,-1.2 -0.1,0 -0.2,0 -0.3,0.1 -0.1,0 -0.2,-0.1 -0.3,-0.1 -7.1,0 -16.7,1.2 -16.8,1.2 -0.4,0 -0.7,0.4 -0.7,0.7 l 0,42.3 c 0,0.2 0.2,0.4 0.3,0.6 0.1,0.1 0.3,0.2 0.5,0.2 0,0 0.1,0 0.1,0 0.1,0 8,-1.2 16.5,-1.2 0.1,0 0.2,0 0.2,-0.1 0.1,0 0.2,0.1 0.2,0.1 8.5,0 16.4,1.2 16.5,1.2 0,0 0.1,0 0.1,0 0.2,0 0.7,-0.1 0.8,-0.2 0.2,-0.1 0.6,-0.4 0.6,-0.6 l 0,-42.3 c 0.2,-0.4 -0.4,-0.7 -0.8,-0.7 z m -1,42.2 c -2,-0.3 -8.9,-1.1 -16,-1.1 -0.1,0 -0.2,0 -0.3,0.1 -0.1,0 0,-0.1 -0.1,-0.1 -7,0 -13.7,0.8 -15.7,1.1 l 0,-40.8 c 2,-0.3 9.7,-1.1 15.7,-1.1 0.1,0 0.1,0 0.1,-0.1 0.1,0 0.1,0.1 0.2,0.1 6,0 13.9,0.9 15.9,1.1 l 0,40.8 z"
           id="path156"
           inkscape:connector-curvature="0"
           style="fill:#333333" /></g><g
         id="g158"><path
           class="st0"
           d="m 391.9,135.9 c 0.1,0.4 0.4,0.6 0.7,0.6 0,0 0.1,0 0.1,0 0.1,0 13.1,-2.5 27.8,-2.5 0.1,0 0.2,0 0.2,-0.1 0.1,0 0.1,0.1 0.2,0.1 14.7,0 27.7,2.4 27.8,2.5 0,0 0.1,0 0.1,0 0.3,0 0.6,-0.3 0.7,-0.6 0.1,-0.4 -0.2,-0.8 -0.6,-0.9 -0.1,0 -13.2,-2.5 -28.1,-2.5 -0.1,0 -0.2,0 -0.2,0.1 -0.1,0 -0.1,-0.1 -0.2,-0.1 -14.9,0 -27.9,2.5 -28.1,2.5 -0.2,0.1 -0.5,0.5 -0.4,0.9 z"
           id="path160"
           inkscape:connector-curvature="0"
           style="fill:#333333" /></g><g
         id="g162"><path
           class="st0"
           d="m 384,183.2 c 0,0 0.1,0 0,0 0.3,0 24.3,-3 36.5,-3 0.1,0 0.2,0 0.2,-0.1 0.1,0 0.1,0.1 0.2,0.1 12.2,0 36.2,3 36.4,3 0,0 0.1,0 0.1,0 0.2,0 0.4,-0.1 0.5,-0.2 0.2,-0.2 0.2,-0.4 0.2,-0.6 l -2.9,-45.8 c -0.1,-1.1 -0.5,-1.9 -1.2,-2.8 -1.1,-1.3 -2.6,-1.8 -4.3,-1.8 l -1.9,0 c -0.4,0 -0.7,0.1 -0.7,0.5 0,0.4 0.3,0.5 0.7,0.5 l 1.9,0 c 1.3,0 2.4,0.5 3.2,1.5 0.5,0.6 0.8,1.4 0.9,2.2 l 2.8,44.9 c -4.4,-0.5 -24.8,-2.9 -35.8,-2.9 -0.1,0 -0.2,0 -0.2,0 -0.1,0 -0.1,-0.1 -0.2,-0.1 -11,0 -31.4,2.4 -35.8,2.9 l 2.8,-44.9 c 0.1,-0.8 0.3,-1.5 0.9,-2.2 0.8,-1 2,-1.5 3.2,-1.5 l 1.9,0 c 0.4,0 0.7,-0.1 0.7,-0.5 0,-0.4 -0.3,-0.5 -0.7,-0.5 l -1.9,0 c -1.7,0 -3.2,0.5 -4.3,1.8 -0.7,0.9 -1.1,1.8 -1.2,2.9 l -2.9,45.7 c 0,0.2 0.1,0.4 0.2,0.6 0.4,0.2 0.5,0.3 0.7,0.3 z"
           id="path164"
           inkscape:connector-curvature="0"
           style="fill:#333333" /></g><g
         id="g166"><path
           class="st0"
           d="m 504.3,239.6 c -0.7,-5.9 -7.3,-64.2 -8.7,-71 -1.3,-6.3 -7.9,-8.1 -9.8,-8.5 -0.5,-2.1 -2.6,-9.7 -9.2,-15.7 -7.6,-7 -14.4,-8.9 -16.2,-9.3 l -0.1,-0.7 c -0.3,-1.4 -1.4,-2.4 -2.7,-2.5 l -0.2,0 -1,-1.9 c -0.6,-1.2 -1.8,-2.1 -3.1,-2.2 -2.7,-0.4 -7.2,-0.6 -9.8,1.8 -2.1,-0.2 -15.1,-1.5 -21.6,-1.5 l -2.8,0 c -6.5,0.1 -18.5,1.3 -20.5,1.5 -2.6,-2.4 -7.3,-2.1 -10,-1.8 -1.3,0.2 -2.5,1 -3.1,2.2 l -0.9,1.9 -0.2,0 c -1.4,0.1 -2.5,1.1 -2.7,2.5 l -0.1,0.7 c -1.8,0.4 -8.6,2.4 -16.2,9.3 -6.6,6.1 -8.7,13.7 -9.2,15.7 -1.9,0.4 -8.5,2.1 -9.8,8.5 -1.4,6.8 -8.1,65.1 -8.7,71 -3.8,2.2 -6.5,6 -7.2,10.4 l -31.2,192.7 c 0,0.2 0,0.7 0.2,0.8 0.1,0.2 0.3,0.5 0.5,0.5 0,0 0,0 0,0 l 46.4,-1.7 0,2.9 c 0,0.4 0.5,0.7 0.8,0.8 l 11.8,1.1 c 0,0 0.1,-0.1 0.2,-0.1 l 61.7,0 c 0.1,0 0.2,0 0.2,-0.1 0.1,0 0.1,0.1 0.2,0.1 l 61.7,0 c 0,0 0,0.1 0.1,0.1 l 12.2,-1.1 c 0.4,0 1.1,-0.3 1.1,-0.7 l 0,-2.9 45.9,1.7 c 0,0 0,0 0,0 0.2,0 0.4,-0.3 0.5,-0.5 0.1,-0.2 0.2,-0.5 0.2,-0.7 L 511.8,250.2 c -1,-4.5 -3.7,-8.4 -7.5,-10.6 z m 5.8,10.7 1,6.4 -1.5,-1.8 c -1.4,-1.7 -3,-3.2 -4.7,-4.4 -2.3,-1.7 -5.8,-4.1 -9.5,-5.7 -3.3,-1.5 -6.9,-3.1 -9.4,-3.9 -2.9,-1.1 -6,-1.8 -9.2,-1.8 l -3.1,0 -0.9,-9.1 5.7,0.4 c 2.7,0.1 5.3,0.9 7.7,2.1 l 17,8.4 c 3.7,1.8 6.3,5.4 6.9,9.4 z M 491,425 l -10.7,0 -16.6,-208.9 3.9,1 c 1.6,0.4 2.8,1.8 3,3.5 L 491,425 Z M 475.9,258 c 3.4,0.8 16.4,3.8 25.1,10.3 4.4,3.3 5.1,6.8 6.1,7.3 l 0,3.2 -11.9,-6.1 c 0,0 -0.2,0 -0.2,0 -0.1,0 -0.2,0.1 -0.3,0.1 0,0 -0.1,0.2 -0.2,0.2 l -6.4,0 -11.8,-8.6 -0.4,-6.4 z m 5.6,171.1 0.4,13.9 -6.1,0 -3,-5 c -0.1,-0.2 -0.3,-1 -0.6,-1 l -3.8,0 -0.4,-10.5 c 0.2,-0.2 0.3,-0.3 0.4,-0.4 1,-0.6 6.3,0 11,0.5 l 2.1,2.5 z m 4.5,-255.7 0,-11.7 c 2,0.5 7.2,2.2 8.2,7.2 0.7,3.3 2.6,18.9 4.5,34.6 -0.9,-1 -1.8,-2 -2.8,-2.9 -0.1,-10.1 -4.9,-18.6 -13.5,-24 0,0 0,0 -0.1,0 l 0.7,0 c 1.7,-0.1 3,-1.5 3,-3.2 z M 463.7,169 c 1.1,0 2.2,0.4 3.3,0.9 0.1,0 6.9,3.2 14.7,8.1 7.8,4.9 12.2,12.4 12.7,21.4 -11.3,-10 -27.5,-16.2 -30.5,-17.2 l -1,-13.1 0.8,0 z m -0.8,-1 -1.1,-14.9 c 3.6,0.5 10,4 14.3,7.3 4.5,3.5 8.4,9.5 8.4,13 0,0.9 -0.7,1.7 -1.5,1.8 l -2.2,0.1 c -0.1,0 -0.3,0.1 -0.4,0.2 -7,-4.2 -12.7,-6.6 -12.7,-6.6 -1.2,-0.6 -2.5,-0.8 -3.9,-0.8 l -0.9,0 z m 12.5,-22.4 c 6.9,6.4 8.6,14.7 8.6,15.3 l 0,7.5 c 0,-3.3 -4.2,-6.8 -7.3,-9.3 -4.6,-3.6 -11.3,-7.3 -15.2,-7.7 l -1.2,-14.7 c 2.2,0.6 8.4,2.7 15.1,8.9 z M 357,160.9 c 0,-0.6 1.9,-8.9 8.9,-15.3 6.7,-6.2 12.9,-8.3 15.2,-8.9 l -1.1,14.7 c -3.9,0.4 -10.7,4.1 -15.3,7.7 -3.2,2.5 -5.6,6 -7.6,9.3 l 0,-7.5 z m 8.5,-0.6 c 4.3,-3.3 10.7,-6.8 14.3,-7.3 l -1.1,14.9 -0.9,0 c -1.3,0 -2.7,0.2 -3.8,0.8 -0.1,0 -5.8,2.5 -12.8,6.7 -0.1,-0.1 -0.2,-0.2 -0.4,-0.2 l -2.2,-0.1 c -0.9,-0.1 -1.6,-0.9 -1.6,-1.8 0.1,-3.4 3.9,-9.4 8.5,-13 z m 13.1,8.7 -1,13.1 c -3,1.1 -19.2,7.2 -30.5,17.2 0.5,-8.9 5,-16.4 12.7,-21.3 7.8,-4.9 14.7,-8.1 14.8,-8.1 1,-0.5 2.1,-0.9 3.2,-0.9 l 0.8,0 z m -31.1,0 c 1,-5 6.5,-6.7 8.5,-7.2 l 0,11.7 c 0,1.7 1,3.1 2.7,3.3 l 0.5,0 c 0,0 -0.1,0 -0.1,0 -8.6,5.4 -13.4,13.9 -13.5,24 -1,0.9 -1.8,1.9 -2.7,2.9 2,-15.9 4,-31.5 4.6,-34.7 z m -4.9,37.2 c 11,-14 35.6,-22.6 35.9,-22.7 0.3,-0.1 0.5,-0.4 0.5,-0.7 l 3.6,-47 0.2,-1.1 c 0.1,-0.7 0.7,-1.2 1.5,-1.3 l 0.6,0 c 0.2,0 0.5,-0.2 0.6,-0.4 l 1.2,-2.2 c 0.4,-0.8 1.2,-1.4 2.1,-1.5 2,-0.3 6.9,-0.6 9.2,1.6 0.1,0.1 0.3,0.2 0.5,0.2 0.1,0 14.7,-1.5 22.2,-1.5 0.1,0 0.2,0 0.2,-0.1 0.1,0 0.1,0.1 0.2,0.1 7.5,0 22.1,1.5 22.2,1.5 0.2,0 0.4,-0.1 0.5,-0.2 2.2,-2.3 7.2,-1.9 9.2,-1.6 0.9,0.1 1.7,0.7 2.1,1.5 l 1.2,2.2 c 0.1,0.2 0.3,0.4 0.6,0.4 l 0.6,0 c 0.7,0 1.3,0.6 1.5,1.3 l 0.2,1.1 3.6,47 c 0,0.3 0.2,0.6 0.5,0.7 0.2,0.1 24.9,8.7 35.9,22.7 1.7,14.4 3.3,28.3 3.8,32.6 l -15.9,-7.9 c -2.6,-1.3 -5.3,-2 -8.2,-2.1 l -5.9,-0.3 -0.8,-8.2 c -0.2,-2.3 -1.9,-4.2 -4,-4.7 l -4.8,-1.2 c -0.2,-0.1 -0.4,0 -0.6,0.2 -0.2,0.2 -0.3,0.4 -0.2,0.6 l 16.7,209.6 c -6.9,-0.8 -9.6,-0.5 -10.8,-0.1 l -6.1,-169 0,-10 c 0,-0.4 -0.4,-0.6 -0.8,-0.6 -0.2,0 -20.8,-1.3 -40.2,-2.3 l 0,0 c -0.1,0 -0.2,-0.1 -0.3,-0.1 -0.1,0 -0.1,-0.1 -0.2,-0.1 -19.4,0.2 -39.8,2.3 -40,2.4 -0.4,0 -0.6,0.3 -0.6,0.7 l 0,10 -6.3,169 c -1.2,-0.5 -4.1,-0.8 -11,0.1 l 16.7,-209.6 c 0,-0.2 -0.1,-0.5 -0.2,-0.6 -0.2,-0.2 -0.4,-0.2 -0.6,-0.2 l -4.8,1.2 c -2.2,0.6 -3.8,2.5 -4,4.7 l -0.8,8.2 -5.9,0.3 c -2.9,0.2 -5.6,0.9 -8.2,2.1 l -15.9,7.9 c -0.1,-4.2 1.5,-18.2 3.3,-32.6 z M 422,428 l 0,-48 17,0 0,48 -17,0 z m 17,2 0,7 -17,0 0,-7 17,0 z m -18,-52 c -0.1,0 -0.2,0 -0.2,0.1 -0.1,0 -0.1,-0.1 -0.2,-0.1 l -18.2,0 c -0.4,0 -0.3,0.7 -0.3,1.2 l 0,48.2 -6.3,-1.3 1.7,-114.8 c 2.6,-0.4 13.2,-1.9 23.2,-1.9 0.1,0 0.1,0 0.2,-0.1 0.1,0 0.1,0.1 0.2,0.1 10,0 20.7,1.5 23.3,1.9 l 1.9,114.7 -6.1,1.3 0,-48.2 c 0,-0.4 -0.4,-1.2 -0.8,-1.2 l -18.4,0 z m -1,52 0,7 -17,0 0,-7 17,0 z m -17,-2 0,-48 17,0 0,48 -17,0 z m -1,0.9 0,8.1 -6.7,0 0.3,-9.7 6.4,1.6 z m 38,0 6.1,-1.6 0.1,9.7 -6.2,0 0,-8.1 z m 5.6,-118.3 c 0,-0.4 -0.3,-0.7 -0.6,-0.7 -0.1,0 -12.6,-2 -24.1,-2 -0.1,0 -0.2,0 -0.2,0.1 -0.1,0 -0.1,-0.1 -0.2,-0.1 -11.5,0 -23.9,2 -24.1,2 -0.3,0.1 -0.6,0.4 -0.6,0.7 l -1.8,115.2 -9.4,-0.7 c -0.1,0 -0.1,0 -0.1,0 -3.7,0.6 -7.9,0.9 -9.5,0.6 l 6.2,-169.2 c 3.8,-0.4 24.6,-2.6 39.3,-2.9 0.1,0 0.1,0 0.2,-0.1 0.1,0 0.1,0.1 0.2,0.1 14.7,0.3 35.5,2.5 39.3,2.9 l 6.2,169.2 c -1.6,0.3 -5.8,0 -9.5,-0.6 0,0 -0.1,0 -0.1,0 l -9.4,0.7 -1.8,-115.2 z m -51.5,116.5 -0.2,9.9 -19.3,0 0.4,-10 c 1.5,0.3 4.4,0.2 9.7,-0.6 l 9.4,0.7 z M 382,255 l 0,-8.5 c 3,-0.4 21.5,-2.1 38.9,-2.3 0.1,0 0,0 0,-0.1 0.1,0 -0.1,0.1 0,0.1 17.5,0.2 35.1,2 39.1,2.3 l 0,8.5 c -4,-0.4 -24.6,-2.6 -39.1,-2.9 -0.1,0 -0.1,0 -0.2,0 -0.1,0 -0.1,-0.1 -0.2,-0.1 0,0 0,0 0,0 -14.5,0 -35.5,2.6 -38.5,3 z m 74.9,171.7 c 5.3,0.8 8.2,0.6 9.7,0.3 l 0.4,10 -19.3,0 -0.2,-9.9 9.4,-0.4 z M 371,220.6 c 0.2,-1.6 1.4,-3 3,-3.4 l 3.9,-1 -16.7,208.8 -10.7,0 20.5,-204.4 z m -5.8,43.8 -11.8,8.6 -6.4,0 c 0,0 0,-0.2 -0.1,-0.2 -0.1,0 -0.1,-0.1 -0.2,0 0,0 0.3,0 0.3,0 l -11.1,6.1 0,-3.2 c 0,-0.5 0.9,-4 5.3,-7.3 8.6,-6.4 21.1,-9.4 24.5,-10.2 l -0.5,6.2 z m -3,162 c 4.7,-0.6 10,-0.8 11,-0.2 0,0.2 0.1,0.1 0.4,0.3 l -0.4,10.5 -3.8,0 c -0.2,0 -0.4,0.8 -0.6,1 l -3,5 -6.1,0 0.4,-13.9 2.1,-2.7 z M 331.4,250.3 c 0.7,-4 3.2,-7.6 6.8,-9.5 l 17,-8.4 c 2.4,-1.2 5,-1.9 7.7,-2 l 5.7,-0.5 -0.9,9.1 -3.1,0 c -3.1,0 -6.2,0.7 -9.2,1.8 -2.5,0.9 -6.1,2.4 -9.4,3.9 -3.7,1.7 -7.2,4.1 -9.5,5.8 -1.7,1.3 -3.3,2.8 -4.7,4.5 l -1.5,1.8 1.1,-6.5 z m -31,191.7 29.5,-182.6 3,-3.6 c 1.3,-1.6 2.8,-3 4.4,-4.2 2.2,-1.7 5.7,-4 9.2,-5.6 3.3,-1.5 6.9,-2.8 9.3,-3.7 2.8,-1 5.7,-1.5 8.7,-1.5 l 2.9,0 -1.6,15.4 c -2.3,0.5 -16.2,3.5 -25.8,10.6 -5.3,3.9 -6.2,8.1 -6.2,8.3 0,0.1 0,0.1 0,0.2 l 0,4.5 -16,161.5 c 0,0 0,0.1 0,0.1 l -17.4,0.6 z m 19,-0.5 15.9,-161 11,-5.9 -14,166.5 -12.9,0.4 z m 27.1,-14.6 c -0.2,0.1 -0.5,0.4 -0.5,0.6 l 0,13.3 -12.5,0.8 14.2,-166.6 5.9,0 c 0.1,0 0.3,-0.5 0.4,-0.6 l 11,-8.1 -16.1,159 -2.4,1.6 z m 12.2,1.4 -0.4,14.1 c -0.1,0.1 -0.1,0.3 -0.1,0.4 0,0.1 0,0.3 0.1,0.4 l 0,2.4 -10.3,-1 0,-16.6 1.9,-1.9 10.2,0 -1.3,1.6 c 0,0 -0.1,0.4 -0.1,0.6 z M 421,445 c -0.1,0 -0.2,0 -0.2,0.1 -0.1,0 -0.1,-0.1 -0.2,-0.1 l -61,0 0.1,-1 6.5,0 c 0.2,0 0.4,-0.3 0.6,-0.5 l 3,-4.5 24.9,0 0,0 26.3,0 0,0.2 0,-0.1 c 0,0 -0.1,-0.1 0,-0.1 0.1,0 -0.1,0 0,0 l 25.9,0 0,0 24.9,0 3,4.5 c 0.1,0.2 0.3,0.5 0.6,0.5 l 6.5,0 0.1,1 -61,0 z m 73,-0.5 -10.5,1 -0.1,-2.4 c 0.1,-0.1 0.1,-0.2 0.1,-0.4 0,-0.2 -0.1,-0.3 -0.1,-0.4 L 483,428.2 c 0,-0.2 -0.1,-0.6 -0.2,-0.7 l -1.3,-1.6 10.2,0 2.4,1.9 0,16.7 z m 2,-3.7 0,-13.3 c 0,-0.3 -0.6,-0.5 -0.8,-0.6 l -2.6,-1.6 -16.1,-159.1 10.9,8.3 c 0.1,0.1 0.2,0.6 0.3,0.6 l 5.9,0 14.4,166.6 -12,-0.9 z m 13.2,0.4 -14,-166.5 11,5.9 15.9,161 -12.9,-0.4 z m 31.9,0.8 -17.6,-0.5 c 0,0 0.2,-0.1 0.2,-0.1 L 508,280 l 0,-4.5 c 0,-0.1 -0.2,-0.1 -0.2,-0.2 0,-0.2 -1.1,-4.4 -6.4,-8.3 -9.6,-7.2 -23.6,-10.1 -25.8,-10.6 L 474,241 l 2.9,0 c 3,0 5.9,0.4 8.7,1.5 2.4,0.9 6,2.2 9.3,3.7 3.6,1.6 7,3.9 9.3,5.6 1.6,1.2 3.1,2.6 4.4,4.2 l 3,3.6 29.5,182.4 z"
           id="path168"
           inkscape:connector-curvature="0"
           style="fill:#333333" /></g><g
         id="g170"><path
           class="st0"
           d="m 451.5,148.7 c 0.1,0 0,0 0.1,0 0.3,0 0.5,-0.2 0.6,-0.5 0.1,-0.4 -0.1,-0.8 -0.5,-0.9 0,0 -0.8,-0.3 -2.3,-0.6 -0.1,-0.2 -0.3,-0.3 -0.5,-0.3 -0.1,0 -0.2,0 -0.3,0.1 -4.8,-1.1 -14.7,-3.1 -27.7,-3.1 -0.1,0 -0.2,0 -0.2,0.1 -0.1,0 -0.1,-0.1 -0.2,-0.1 -12.9,0 -22.9,1.9 -27.7,3.1 -0.1,0 -0.2,-0.1 -0.3,-0.1 -0.2,0 -0.4,0.1 -0.5,0.3 -1.5,0.4 -2.2,0.6 -2.3,0.6 -0.4,0.1 -0.6,0.5 -0.5,0.9 0.1,0.3 0.4,0.5 0.7,0.5 0.1,0 0.2,0 0.3,0 0,0 0.8,-0.2 1.8,-0.5 l 0,15.6 c -2,0.2 -3.5,0.3 -3.5,0.3 -0.4,0 -0.7,0.4 -0.7,0.8 0,0.4 0.3,0.7 0.7,0.7 0,0 0,0 0.1,0 0.2,0 20.4,-2.1 32,-2.1 0.1,0 0.2,0 0.2,-0.1 0.1,0 0.1,0.1 0.2,0.1 11.6,0 31.8,2.1 32,2.1 0,0 0,0 0.1,0 0.4,0 0.7,-0.3 0.7,-0.7 0,-0.4 -0.1,-0.8 -0.4,-0.8 -0.1,0 -1.3,-0.1 -3.3,-0.3 l 0,-15.6 c 0.9,0.3 1.4,0.5 1.4,0.5 z m -3.5,14.9 c -6,-0.6 -19,-1.7 -27.1,-1.7 -0.1,0 -0.1,0 -0.2,0.1 -0.1,0 0.2,-0.1 0.2,-0.1 -8.2,0 -20.9,1 -26.9,1.7 l 0,-15.8 c 5,-1.1 14.2,-3 26.9,-3 0.1,0 0,0 0.1,-0.1 0.1,0 -0.1,0.1 0,0.1 12.7,0 22,1.9 27,3 l 0,15.8 z"
           id="path172"
           inkscape:connector-curvature="0"
           style="fill:#333333" /></g><g
         id="g174"><rect
           x="422"
           y="380"
           class="st1"
           width="17"
           height="48"
           id="rect176"
           style="fill:#629689" /></g><g
         id="g178"><rect
           x="422"
           y="430"
           class="st1"
           width="17"
           height="7"
           id="rect180"
           style="fill:#629689" /></g><g
         id="g182"><path
           class="st1"
           d="m 420.8,144.8 c -0.1,0 0.2,0.1 0.1,0.1 -12.7,0 -21.9,1.9 -26.9,3 l 0,15.8 c 6,-0.6 18.7,-1.7 26.9,-1.7 0.1,0 0,0 0.1,0.1 0.1,0 -0.1,-0.1 0,-0.1 8.2,0 21,1 27,1.7 l 0,-15.8 c -5,-1.1 -14.4,-3 -27.1,-3 -0.1,-0.1 -0.1,-0.1 -0.1,-0.1 z"
           id="path184"
           inkscape:connector-curvature="0"
           style="fill:#629689" /></g><g
         id="g186"><path
           class="st1"
           d="m 399,197 0,7 0.6,0 c 1.6,0 2.7,-1.9 2.7,-3.5 0,-1.7 -1.1,-3.5 -2.7,-3.5 l -0.6,0 z"
           id="path188"
           inkscape:connector-curvature="0"
           style="fill:#629689" /></g><g
         id="g190"><path
           class="st1"
           d="m 443.7,200.4 c 0,1.6 1.1,2.9 2.7,3 1.6,0 2.7,-1.3 2.7,-2.9 0,-1.6 -1.1,-3 -2.7,-3 -1.6,0 -2.7,1.3 -2.7,2.9 z"
           id="path192"
           inkscape:connector-curvature="0"
           style="fill:#629689" /></g><g
         id="g194"><path
           class="st1"
           d="m 362.8,228.9 5.9,-0.3 0.8,-8.2 c 0.2,-2.3 1.9,-4.2 4,-4.7 l 4.8,-1.2 c 0.2,-0.1 0.4,0 0.6,0.2 0.2,0.2 0.3,0.4 0.2,0.6 l -16.7,209.6 c 6.9,-0.8 9.9,-0.5 11.1,-0.1 l 6.3,-169 0,-10 c 0,-0.4 0.2,-0.7 0.6,-0.7 0.2,0 20.6,-2.2 40,-2.4 0.1,0 0.1,0.2 0.2,0.2 0.1,0 0.1,0.1 0.2,0.1 l 0,0 c 19.4,1 40,2.2 40.2,2.3 0.4,0 0.8,0.2 0.8,0.6 l 0,10 6.1,169 c 1.2,-0.5 4,-0.8 10.9,0.1 L 462.1,215.4 c 0,-0.2 0,-0.5 0.2,-0.6 0.2,-0.2 0.4,-0.2 0.6,-0.2 l 4.8,1.2 c 2.2,0.6 3.8,2.5 4,4.7 l 0.8,8.2 5.9,0.3 c 2.9,0.2 5.6,0.9 8.2,2.1 l 15.9,7.9 c -0.5,-4.3 -2.1,-18.2 -3.8,-32.6 -11,-14 -35.6,-22.6 -35.9,-22.7 -0.3,-0.1 -0.5,-0.4 -0.5,-0.7 l -3.6,-47 -0.2,-1.1 c -0.1,-0.7 -0.7,-1.2 -1.5,-1.3 l -0.6,0 c -0.2,0 -0.5,-0.2 -0.6,-0.4 l -1.2,-2.2 c -0.4,-0.8 -1.2,-1.4 -2.1,-1.5 -2,-0.3 -6.9,-0.6 -9.2,1.6 -0.1,0.1 -0.3,0.2 -0.5,0.2 -0.1,0 -14.7,-1.5 -22.2,-1.5 -0.1,0 -0.2,0 -0.2,-0.1 -0.1,0 -0.1,0.1 -0.2,0.1 -7.5,0 -22.1,1.5 -22.2,1.5 -0.2,0 -0.4,-0.1 -0.5,-0.2 -2.2,-2.3 -7.2,-1.9 -9.2,-1.6 -0.9,0.1 -1.7,0.7 -2.1,1.5 l -1.2,2.2 c -0.1,0.2 -0.3,0.4 -0.6,0.4 l -0.6,0 c -0.7,0 -1.3,0.6 -1.5,1.3 l -0.2,1.1 -3.6,47 c 0,0.3 -0.2,0.6 -0.5,0.7 -0.2,0.1 -24.9,8.7 -35.9,22.7 -1.7,14.4 -3.3,28.3 -3.8,32.6 l 15.9,-7.9 c 3,-1.4 5.8,-2.1 8.6,-2.2 z m 100.2,6.5 c 0.4,0 0.7,0.4 0.6,0.8 0,0.4 -0.3,0.7 -0.7,0.7 0,0 0,0 -0.1,0 -0.2,0 -22.3,-2.1 -41.9,-2.4 -0.1,0 -0.2,0 -0.2,-0.1 -0.1,0 -0.1,0.1 -0.2,0.1 -19.6,0.2 -41.6,2.4 -41.9,2.4 0,0 0,0 -0.1,0 -0.4,0 -0.7,-0.3 -0.7,-0.7 0,-0.4 0.2,-0.8 0.6,-0.8 0.2,0 22.3,-2.2 42,-2.4 0.1,0 0.1,0 0.2,0 0.1,0 0.2,-0.1 0.3,-0.1 l 0,0 c 19.7,0.1 41.9,2.5 42.1,2.5 z M 420.5,132.5 c 0.1,0 0.2,0 0.2,0.1 0.1,0 0.1,-0.1 0.2,-0.1 14.9,0 27.9,2.5 28.1,2.5 0.4,0.1 0.6,0.5 0.6,0.9 -0.1,0.4 -0.4,0.6 -0.7,0.6 0,0 -0.1,0 -0.1,0 -0.1,0 -13.1,-2.5 -27.8,-2.5 -0.1,0 -0.2,0 -0.2,-0.1 -0.1,0 -0.1,0.1 -0.2,0.1 -14.7,0 -27.7,2.4 -27.8,2.5 0,0 -0.1,0 -0.1,0 -0.3,0 -0.6,-0.3 -0.7,-0.6 -0.1,-0.4 0.2,-0.8 0.6,-0.9 0,0 13.1,-2.5 27.9,-2.5 z m 32.8,31.6 c 0.4,0 0.6,0.4 0.5,0.8 0,0.4 -0.4,0.7 -0.7,0.7 0,0 -0.1,0 -0.1,0 -0.2,0 -20.4,-2.1 -32,-2.1 -0.1,0 -0.2,0 -0.2,-0.1 -0.1,0 -0.2,0.1 -0.2,0.1 -11.6,0 -31.8,2.1 -32,2.1 0,0 0,0 -0.1,0 -0.4,0 -0.7,-0.3 -0.7,-0.7 0,-0.4 0.3,-0.8 0.7,-0.8 0.1,0 1.5,-0.1 3.5,-0.3 l 0,-15.6 c -1,0.3 -1.7,0.5 -1.8,0.5 -0.1,0 -0.2,0 -0.2,0 -0.3,0 -0.6,-0.2 -0.7,-0.5 -0.1,-0.4 0.1,-0.8 0.5,-0.9 0,0 0.8,-0.3 2.3,-0.6 0.1,-0.2 0.3,-0.3 0.5,-0.3 0.1,0 0.2,0 0.3,0.1 4.8,-1.1 14.7,-3.1 27.7,-3.1 0.1,0 0.2,0 0.2,0.1 0.1,0 0.1,-0.1 0.2,-0.1 12.9,0 22.9,1.9 27.7,3.1 0.1,0 0.2,-0.1 0.3,-0.1 0.2,0 0.4,0.1 0.5,0.3 1.5,0.4 2.2,0.6 2.3,0.6 0.4,0.1 0.6,0.5 0.5,0.9 -0.1,0.3 -0.4,0.5 -0.7,0.5 -0.1,0 0,0 0,0 0,0 -0.5,-0.2 -1.5,-0.5 l 0,15.6 c 1.9,0.2 3.1,0.3 3.2,0.3 z m -67.1,-27.5 c 0.1,-1.1 0.5,-1.9 1.2,-2.8 1.1,-1.3 2.6,-1.8 4.3,-1.8 l 1.9,0 c 0.4,0 0.7,0.1 0.7,0.5 0,0.4 -0.3,0.5 -0.7,0.5 l -1.9,0 c -1.3,0 -2.4,0.5 -3.2,1.5 -0.5,0.6 -0.8,1.4 -0.9,2.2 l -2.8,44.9 c 4.4,-0.5 24.8,-2.9 35.8,-2.9 0.1,0 0.2,0 0.2,0 0.1,0 0.1,-0.1 0.2,-0.1 11,0 31.4,2.4 35.8,2.9 L 454,136.6 c -0.1,-0.8 -0.3,-1.5 -0.9,-2.2 -0.8,-1 -2,-1.5 -3.2,-1.5 l -1.9,0 c -0.4,0 -0.7,-0.1 -0.7,-0.5 0,-0.4 0.3,-0.5 0.7,-0.5 l 1.9,0 c 1.7,0 3.2,0.5 4.3,1.8 0.7,0.9 1.1,1.8 1.2,2.9 l 2.9,45.7 c 0,0.2 -0.1,0.4 -0.2,0.6 -0.1,0.1 -0.3,0.2 -0.5,0.2 0,0 -0.1,0 -0.1,0 -0.2,0 -24.2,-3 -36.4,-3 -0.1,0 -0.2,0 -0.2,-0.1 -0.1,0 -0.1,0 -0.2,0 -12.2,0 -36.2,3 -36.4,3 0,0 -0.1,0 -0.1,0 -0.2,0 -0.4,-0.1 -0.5,-0.2 -0.2,-0.2 -0.2,-0.4 -0.2,-0.6 l 2.7,-45.6 z m -2.2,78.5 0,7.9 c 6,-0.6 21.7,-1.9 36.8,-2.1 0.1,0 0.1,0 0.2,0.1 0.1,0 0,0 0.1,0 0,0 0,0 0,0 15,0 31,1.5 37,2.1 l 0,-7.9 c 0,-0.4 0.1,-0.8 0.5,-0.8 0.4,0 0.5,0.3 0.5,0.8 l 0,8.1 c 1,0.1 1.8,0.2 1.8,0.2 0.4,0 0.8,0.4 0.7,0.8 0,0.4 -0.3,0.7 -0.6,0.7 0,0 0,0 0,0 0,0 -0.6,-0.1 -1.7,-0.2 -0.1,0.1 -0.3,0.2 -0.4,0.2 -0.2,0 -0.4,-0.1 -0.5,-0.3 -6.2,-0.6 -22,-1.9 -37.2,-2.1 -0.1,0 -0.2,0 -0.2,-0.1 -0.1,0 -0.1,0.1 -0.2,0.1 -15.2,0.2 -31,1.5 -37.2,2.1 -0.1,0.2 -0.3,0.3 -0.5,0.3 -0.2,0 -0.3,-0.1 -0.4,-0.2 -1.1,0.1 -1.7,0.2 -1.7,0.2 0,0 0,0 -0.1,0 -0.4,0 -0.7,-0.3 -0.7,-0.7 0,-0.4 0.7,-0.8 1.1,-0.8 0,0 1.1,-0.1 2.1,-0.2 l 0,-8.1 c 0,-0.4 0.1,-0.8 0.5,-0.8 0.4,0 0.1,0.3 0.1,0.7 z"
           id="path196"
           inkscape:connector-curvature="0"
           style="fill:#629689" /></g><g
         id="g198"><path
           class="st1"
           d="m 454.6,200.4 c 0,1.6 1.2,2.9 2.7,3 1.6,0 2.7,-1.3 2.7,-2.9 0,-1.6 -1.1,-3 -2.7,-3 -1.7,0 -2.7,1.3 -2.7,2.9 z"
           id="path200"
           inkscape:connector-curvature="0"
           style="fill:#629689" /></g><g
         id="g202"><path
           class="st1"
           d="m 386.9,200.4 c 0,1.6 1.1,2.9 2.7,3 1.6,0 2.7,-1.3 2.7,-2.9 0,-1.6 -1.1,-3 -2.7,-3 -1.6,0 -2.7,1.3 -2.7,2.9 z"
           id="path204"
           inkscape:connector-curvature="0"
           style="fill:#629689" /></g><g
         id="g206"><path
           class="st1"
           d="m 420.8,340.9 c -0.1,0 -0.1,0.1 -0.2,0.1 l -7.6,0 c -0.3,4 -1.9,7.7 -5.9,8.1 l 0,9 c 4,0.4 5.6,3.8 5.9,7.8 l 7.6,0 c 0.1,0 0.2,0 0.2,0 0.1,0 0.1,0 0.2,0 l 7.6,0 c 0.3,-4 2.4,-7.4 6.4,-7.8 l 0,-9 c -4,-0.4 -6.1,-4.1 -6.4,-8.1 l -7.6,0 c -0.1,0 -0.2,0 -0.2,-0.1 z"
           id="path208"
           inkscape:connector-curvature="0"
           style="fill:#629689" /></g><g
         id="g210"><rect
           x="403"
           y="430"
           class="st1"
           width="17"
           height="7"
           id="rect212"
           style="fill:#629689" /></g><g
         id="g214"><rect
           x="403"
           y="380"
           class="st1"
           width="17"
           height="48"
           id="rect216"
           style="fill:#629689" /></g><g
         id="g218"><path
           class="st1"
           d="m 345.6,200.7 c 0.1,-10.1 4.9,-18.6 13.5,-24 0,0 0,0 0.1,0 l -0.5,0 c -1.7,-0.2 -2.7,-1.6 -2.7,-3.3 l 0,-11.7 c -2,0.5 -7.4,2.2 -8.5,7.2 -0.7,3.3 -2.7,18.9 -4.6,34.6 0.9,-0.9 1.8,-1.8 2.7,-2.8 z"
           id="path220"
           inkscape:connector-curvature="0"
           style="fill:#629689" /></g><g
         id="g222"><path
           class="st1"
           d="m 420.8,337.9 c -0.1,0 -0.1,0.1 -0.2,0.1 l -17.6,0 0,31 17.5,0 c 0.1,0 0.2,0 0.2,0.1 0.1,0 0.1,-0.1 0.2,-0.1 l 18,0 0,-31 -18,0 c 0,0 -0.1,0 -0.1,-0.1 z m 9.2,2.7 c 0,3.4 2.6,7.1 6,7.1 0.4,0 1,0.3 1,0.7 l 0,10.5 c 0,0.4 -0.6,0.8 -1,0.8 -3.4,0 -5.9,4 -5.9,7.4 0,0.4 -0.4,1 -0.8,1 l -8.3,0 c -0.1,0 -0.2,0 -0.2,-0.1 -0.1,0 -0.1,0.1 -0.2,0.1 l -8.3,0 c -0.4,0 -0.7,-0.6 -0.7,-1 0,-3.4 -2.4,-7.3 -5.8,-7.3 -0.4,0 -0.7,-0.5 -0.7,-0.9 l 0,-10.5 c 0,-0.4 0.3,-0.8 0.7,-0.8 3.4,0 5.8,-3.7 5.8,-7 0,-0.4 0.3,-0.6 0.7,-0.6 l 8.3,0 c 0.1,0 0.2,0 0.2,0 0.1,0 0.1,0 0.2,0 l 8.3,0 c 0.4,0 0.7,0.2 0.7,0.6 z"
           id="path224"
           inkscape:connector-curvature="0"
           style="fill:#629689" /></g><g
         id="g226"><path
           class="st1"
           d="m 440,379.2 0,48.2 6.1,-1.3 -1.8,-114.7 c -2.6,-0.4 -13.3,-1.9 -23.3,-1.9 -0.1,0 -0.2,0 -0.2,-0.1 -0.1,0 -0.2,0.1 -0.2,0.1 -10,0 -20.7,1.5 -23.3,1.9 l -1.6,114.8 6.3,1.3 0,-48.2 c 0,-0.4 0,-1.2 0.3,-1.2 l 18.2,0 c 0.1,0 0.2,0 0.2,0.1 0.1,0 0.1,-0.1 0.2,-0.1 l 18.2,0 c 0.5,-0.1 0.9,0.6 0.9,1.1 z m -19.2,-8.3 c -0.1,0 -0.1,0.1 -0.2,0.1 l -18.2,0 c -0.4,0 -0.3,-0.6 -0.3,-1 l 0,-32.6 c 0,-0.4 0,-0.3 0.3,-0.3 l 18.2,0 c 0.1,0 0.2,0 0.2,0.1 0.1,0 0.1,-0.1 0.2,-0.1 l 18.2,0 c 0.4,0 0.8,-0.1 0.8,0.3 l 0,32.6 c 0,0.4 -0.4,1 -0.8,1 l -18.2,0 c -0.1,0 -0.2,0 -0.2,-0.1 z"
           id="path228"
           inkscape:connector-curvature="0"
           style="fill:#629689" /></g><g
         id="g230"><path
           class="st1"
           d="m 494.4,273 c 0,0 0,-0.2 0.1,-0.2 0.1,0 0.1,-0.1 0.2,0 0,0 0.4,0 0.4,0 l 11.9,6.1 0,-3.2 c -1,-0.5 -1.6,-4 -6.1,-7.3 -8.6,-6.4 -21.4,-9.5 -24.9,-10.3 l 0.4,6.4 11.7,8.6 6.3,0 z"
           id="path232"
           inkscape:connector-curvature="0"
           style="fill:#629689" /></g><g
         id="g234"><path
           class="st1"
           d="m 468.4,426.2 c 0,0.2 -0.1,0.1 -0.4,0.3 l 0.4,10.5 3.8,0 c 0.2,0 0.4,0.8 0.6,1 l 3,5 6.1,0 -0.4,-13.9 -2.1,-2.5 c -4.7,-0.5 -10.1,-1 -11,-0.4 z"
           id="path236"
           inkscape:connector-curvature="0"
           style="fill:#629689" /></g><g
         id="g238"><path
           class="st1"
           d="m 482.4,176.7 c 0,0 0,0 0,0 8.7,5.4 13.4,13.9 13.5,24 1,0.9 1.9,1.9 2.8,2.9 -1.9,-15.8 -3.8,-31.4 -4.4,-34.6 -1,-5 -6.2,-6.7 -8.2,-7.2 l 0,11.7 c 0,1.7 -1.3,3.1 -2.9,3.3 l -0.8,-0.1 z"
           id="path240"
           inkscape:connector-curvature="0"
           style="fill:#629689" /></g><g
         id="g242"><path
           class="st1"
           d="m 494.4,199.4 c -0.5,-8.9 -5,-16.5 -12.7,-21.3 -7.8,-4.9 -14.7,-8.1 -14.7,-8.1 -1,-0.6 -2.2,-0.9 -3.3,-0.9 l -0.7,0 1,13.1 c 2.9,1 19.1,7.2 30.4,17.2 z"
           id="path244"
           inkscape:connector-curvature="0"
           style="fill:#629689" /></g><g
         id="g246"><path
           class="st1"
           d="m 374.6,169.9 c -0.1,0.1 -7,3.2 -14.8,8.1 -7.8,4.9 -12.2,12.4 -12.7,21.4 11.3,-10 27.5,-16.2 30.5,-17.2 l 1,-13.1 -0.7,0 c -1.2,-0.1 -2.3,0.3 -3.3,0.8 z"
           id="path248"
           inkscape:connector-curvature="0"
           style="fill:#629689" /></g><g
         id="g250"><path
           class="st1"
           d="m 478.6,230.4 -5.7,-0.5 0.9,9.1 3.1,0 c 3.1,0 6.2,0.7 9.2,1.8 2.5,0.9 6.1,2.4 9.4,3.9 3.7,1.7 7.2,4.1 9.5,5.8 1.7,1.3 3.3,2.8 4.7,4.5 l 1.5,1.8 -1,-6.4 c -0.7,-4 -3.2,-7.6 -6.8,-9.5 l -17,-8.4 c -2.5,-1.3 -5.1,-2 -7.8,-2.1 z"
           id="path252"
           inkscape:connector-curvature="0"
           style="fill:#629689" /></g><g
         id="g254"><path
           class="st1"
           d="m 467.6,217.1 -3.9,-0.9 16.6,208.8 10.7,0 -20.5,-204.4 c -0.1,-1.7 -1.3,-3.1 -2.9,-3.5 z"
           id="path256"
           inkscape:connector-curvature="0"
           style="fill:#629689" /></g><g
         id="g258"><polygon
           class="st1"
           points="395.6,427.3 395.3,437 402,437 402,428.9 "
           id="polygon260"
           style="fill:#629689" /></g><g
         id="g262"><path
           class="st1"
           d="m 358.7,175.2 2.2,0.1 c 0.1,0 0.3,0.1 0.4,0.2 7,-4.2 12.7,-6.6 12.8,-6.7 1.1,-0.6 2.5,-0.8 3.8,-0.8 l 0.9,0 1.1,-14.9 c -3.6,0.5 -10,4 -14.3,7.3 -4.5,3.5 -8.4,9.5 -8.4,13 -0.1,0.9 0.6,1.7 1.5,1.8 z"
           id="path264"
           inkscape:connector-curvature="0"
           style="fill:#629689" /></g><g
         id="g266"><path
           class="st1"
           d="m 476.7,159.1 c 3.2,2.5 7.3,6 7.3,9.3 l 0,-7.5 c 0,-0.7 -1.7,-9 -8.6,-15.3 -6.7,-6.2 -12.8,-8.3 -15,-8.9 l 1.1,14.7 c 3.8,0.4 10.5,4.1 15.2,7.7 z"
           id="path268"
           inkscape:connector-curvature="0"
           style="fill:#629689" /></g><g
         id="g270"><path
           class="st1"
           d="m 467.6,168.8 c 0,0 5.8,2.5 12.7,6.7 0.1,-0.1 0.2,-0.2 0.4,-0.2 l 2.2,-0.1 c 0.9,-0.1 1.5,-0.9 1.5,-1.8 0,-3.5 -3.8,-9.5 -8.4,-13.1 -4.3,-3.3 -10.7,-6.8 -14.3,-7.3 l 1.1,14.9 0.9,0 c 1.4,0.1 2.7,0.3 3.9,0.9 z"
           id="path272"
           inkscape:connector-curvature="0"
           style="fill:#629689" /></g><g
         id="g274"><path
           class="st1"
           d="m 364.6,159.1 c 4.6,-3.6 11.4,-7.3 15.3,-7.7 l 1.1,-14.7 c -2.2,0.6 -8.4,2.7 -15.2,8.9 -7,6.4 -8.9,14.7 -8.9,15.3 l 0,7.5 c 2.1,-3.3 4.5,-6.8 7.7,-9.3 z"
           id="path276"
           inkscape:connector-curvature="0"
           style="fill:#629689" /></g><g
         id="g278"><polygon
           class="st1"
           points="446.2,437 446.1,427.3 440,428.9 440,437 "
           id="polygon280"
           style="fill:#629689" /></g><g
         id="g282"><path
           class="st1"
           d="m 475.4,444 c -0.2,0 -0.4,-0.3 -0.6,-0.5 l -3,-4.5 -24.8,0 0,0 -26,0 c -0.1,0 0.1,0 0,-0.1 -0.1,0 0,0.1 0,0.1 l 0,0.1 0,-0.1 -26.4,0 0,0 -24.9,0 -3,4.5 c -0.1,0.2 -0.3,0.5 -0.6,0.5 l -6.5,0 -0.1,1 61,0 c 0.1,0 0.2,0 0.2,0.1 0.1,0 0.1,-0.1 0.2,-0.1 l 61,0 -0.1,-1 -6.4,0 z"
           id="path284"
           inkscape:connector-curvature="0"
           style="fill:#629689" /></g><g
         id="g286"><path
           class="st1"
           d="m 349.9,426 -1.9,1.9 0,16.6 10.3,1 0,-2.4 c -0.1,-0.1 -0.1,-0.2 -0.1,-0.4 0,-0.2 0,-0.3 0.1,-0.4 l 0.4,-14.1 c 0,-0.2 0.1,-0.6 0.2,-0.7 l 1.2,-1.6 -10.2,0 z"
           id="path288"
           inkscape:connector-curvature="0"
           style="fill:#629689" /></g><g
         id="g290"><path
           class="st1"
           d="m 365,266.1 -11,8.3 c -0.1,0.1 -0.3,0.6 -0.4,0.6 l -5.9,0 -14.2,166.6 12.5,-0.8 0,-13.3 c 0,-0.3 0.3,-0.5 0.5,-0.6 l 2.5,-1.6 16,-159.2 z"
           id="path292"
           inkscape:connector-curvature="0"
           style="fill:#629689" /></g><g
         id="g294"><path
           class="st1"
           d="m 359.7,443 6.1,0 3,-5 c 0.1,-0.2 0.3,-1 0.6,-1 l 3.8,0 0.4,-10.5 c -0.2,-0.2 -0.3,-0.3 -0.4,-0.4 -1,-0.6 -6.3,-0.3 -11,0.3 l -2.1,2.7 -0.4,13.9 z"
           id="path296"
           inkscape:connector-curvature="0"
           style="fill:#629689" /></g><g
         id="g298"><path
           class="st1"
           d="m 336.6,250.5 c 2.3,-1.7 5.8,-4.1 9.5,-5.7 3.3,-1.5 6.9,-3.1 9.4,-3.9 2.9,-1.1 6,-1.8 9.2,-1.8 l 3.1,0 0.9,-9.1 -5.7,0.4 c -2.7,0.1 -5.3,0.9 -7.7,2.1 l -17,8.4 c -3.6,1.9 -6.1,5.5 -6.8,9.5 l -1,6.4 1.5,-1.8 c 1.3,-1.8 2.8,-3.3 4.6,-4.5 z"
           id="path300"
           inkscape:connector-curvature="0"
           style="fill:#629689" /></g><g
         id="g302"><path
           class="st1"
           d="m 334,280 0,-4.5 c 0,-0.1 0,-0.1 0,-0.2 0,-0.2 1,-4.4 6.2,-8.3 9.6,-7.2 23.5,-10.1 25.8,-10.6 l 1.5,-15.4 -2.9,0 c -3,0 -5.9,0.4 -8.7,1.5 -2.4,0.9 -6,2.2 -9.3,3.7 -3.6,1.6 -7,3.9 -9.2,5.6 -1.6,1.2 -3.1,2.6 -4.4,4.2 l -3,3.6 -29.6,182.4 17.6,-0.5 c 0,0 0,-0.1 0,-0.1 L 334,280 Z"
           id="path304"
           inkscape:connector-curvature="0"
           style="fill:#629689" /></g><g
         id="g306"><path
           class="st1"
           d="m 504.2,251.7 c -2.2,-1.7 -5.7,-4 -9.3,-5.6 -3.3,-1.5 -6.9,-2.8 -9.3,-3.7 -2.8,-1 -5.7,-1.5 -8.7,-1.5 l -2.9,0 1.6,15.4 c 2.3,0.5 16.2,3.5 25.8,10.6 5.3,3.9 6.4,8.1 6.5,8.3 0,0.1 0.2,0.1 0.2,0.2 l 0,4.5 15.8,161.5 c 0,0 -0.1,0.1 -0.1,0.1 l 17.5,0.5 -29.5,-182.6 -3,-3.6 c -1.5,-1.5 -3,-2.9 -4.6,-4.1 z"
           id="path308"
           inkscape:connector-curvature="0"
           style="fill:#629689" /></g><g
         id="g310"><path
           class="st1"
           d="m 487.9,275 c -0.1,0 -0.3,-0.5 -0.4,-0.6 l -11,-8.1 16,159 2.8,1.6 c 0.2,0.1 0.8,0.3 0.8,0.6 l 0,13.3 12.2,0.8 -14.5,-166.6 -5.9,0 z"
           id="path312"
           inkscape:connector-curvature="0"
           style="fill:#629689" /></g><g
         id="g314"><polygon
           class="st1"
           points="506.3,280.5 495.3,274.6 509.2,441.2 522.2,441.5 "
           id="polygon316"
           style="fill:#629689" /></g><g
         id="g318"><path
           class="st1"
           d="m 481.4,426 1.3,1.6 c 0.1,0.1 0.2,0.4 0.2,0.6 l 0.4,14.2 c 0.1,0.1 0.1,0.3 0.1,0.4 0,0.1 0,0.3 -0.1,0.4 l 0.2,2.4 10.5,-1 0,-16.6 -2.4,-1.9 -10.2,0 z"
           id="path320"
           inkscape:connector-curvature="0"
           style="fill:#629689" /></g><g
         id="g322"><polygon
           class="st1"
           points="346.3,274.6 335.3,280.5 319.4,441.5 332.3,441.2 "
           id="polygon324"
           style="fill:#629689" /></g><g
         id="g326"><path
           class="st1"
           d="m 467,437 -0.4,-10 c -1.5,0.3 -4.4,0.4 -9.7,-0.5 l -9.4,0.5 0.2,10 19.3,0 z"
           id="path328"
           inkscape:connector-curvature="0"
           style="fill:#629689" /></g><g
         id="g330"><path
           class="st1"
           d="m 361.2,425 16.6,-208.9 -3.9,1 c -1.6,0.4 -2.8,1.8 -3,3.5 l -20.4,204.4 10.7,0 z"
           id="path332"
           inkscape:connector-curvature="0"
           style="fill:#629689" /></g><g
         id="g334"><path
           class="st1"
           d="m 336,275.6 0,3.2 11.1,-6.1 c 0,0 -0.2,0 -0.1,0 0.1,0 0.1,0.1 0.1,0.1 0,0 0,0.2 0,0.2 l 6.4,0 11.8,-8.6 0.4,-6.3 c -3.4,0.8 -15.7,3.8 -24.3,10.2 -4.5,3.3 -5.4,6.7 -5.4,7.3 z"
           id="path336"
           inkscape:connector-curvature="0"
           style="fill:#629689" /></g><g
         id="g338"><path
           class="st1"
           d="m 420.8,252.1 c 0.1,0 0,0 0,0 14.6,0.3 35.2,2.5 39.2,2.9 l 0,-8.5 c -4,-0.4 -21.7,-2.1 -39.1,-2.3 -0.1,0 -0.1,0 -0.2,-0.1 -0.1,0 0.3,0.1 0.2,0.1 -17.5,0.2 -35.9,2 -38.9,2.3 l 0,8.5 c 3,-0.4 24,-3 38.5,-3 0,0 0,0 0,0 0.1,0 0.2,0.1 0.3,0.1 z"
           id="path340"
           inkscape:connector-curvature="0"
           style="fill:#629689" /></g><g
         id="g342"><path
           class="st1"
           d="m 456.9,425.1 c 0,0 0.1,0 0.1,0 3.7,0.6 7.9,0.9 9.5,0.6 l -6.2,-169.2 c -3.8,-0.4 -24.6,-2.6 -39.3,-2.9 -0.1,0 -0.1,0 -0.2,-0.1 -0.1,0 -0.1,0.1 -0.2,0.1 -14.7,0.3 -35.5,2.5 -39.3,2.9 L 375,425.8 c 1.6,0.3 5.8,0 9.5,-0.6 0,0 0.1,0 0.1,0 l 9.4,0.7 1.8,-115.2 c 0,-0.4 0.3,-0.7 0.6,-0.7 0.1,0 12.6,-2 24.1,-2 0.1,0 0.2,0 0.2,0.1 0.1,0 0.1,-0.1 0.2,-0.1 11.5,0 23.9,2 24.1,2 0.3,0.1 0.6,0.4 0.6,0.7 l 1.8,115.2 9.5,-0.8 z M 439,306.2 c 0,0.2 -0.4,0.4 -0.6,0.6 -0.1,0.1 -0.5,0.2 -0.6,0.2 0,0 -0.2,0 -0.2,0 -0.1,0 -8,-1.2 -16.6,-1.2 -0.1,0 -0.2,0 -0.3,-0.1 -0.1,0 -0.2,0.1 -0.2,0.1 -8.5,0 -16.4,1.2 -16.5,1.2 0,0 -0.1,0 -0.1,0 -0.2,0 -0.4,-0.1 -0.6,-0.2 -0.2,-0.1 -0.4,-0.4 -0.4,-0.6 l 0,-42.3 c 0,-0.4 0.4,-0.7 0.7,-0.7 0.1,0 9.6,-1.2 16.8,-1.2 0.1,0 0.2,0 0.3,0.1 0.1,0 0.2,-0.1 0.2,-0.1 7.1,0 17,1.2 17.1,1.2 0.4,0 1,0.4 1,0.7 l 0,42.3 z"
           id="path344"
           inkscape:connector-curvature="0"
           style="fill:#629689" /></g><g
         id="g346"><path
           class="st1"
           d="m 374.9,427 -0.4,10 19.3,0 0.2,-9.9 -9.4,-0.7 c -5.3,0.8 -8.1,0.9 -9.7,0.6 z"
           id="path348"
           inkscape:connector-curvature="0"
           style="fill:#629689" /></g><g
         id="g350"><path
           class="st1"
           d="m 420.8,263.4 c -0.1,0 0,0 0,0 -6.1,0.1 -13.8,0.9 -15.8,1.2 l 0,40.8 c 2,-0.3 8.7,-1.1 15.7,-1.1 0.1,0 0.1,0 0.1,0.1 0.1,0 0.1,-0.1 0.2,-0.1 7,0 13.9,0.8 15.9,1.1 l 0,-40.8 c -2,-0.3 -9.9,-1.1 -16,-1.1 0.1,-0.1 -0.1,-0.1 -0.1,-0.1 z"
           id="path352"
           inkscape:connector-curvature="0"
           style="fill:#629689" /></g><g
         id="nodeschool-banner_1_"><g
           id="g355"><g
             id="g357"><path
               class="st0"
               d="m 375.1,204.7 c 0.6,0 1,-0.4 1,-0.9 l 0,-4.8 4,5.1 c 0.3,0.3 0.6,0.6 1,0.6 l 0.1,0 c 0.6,0 1,-0.4 1,-1 l 0,-7.1 c 0,-0.5 -0.4,-0.9 -1,-0.9 -0.6,0 -1,0.4 -1,0.9 l 0,4.6 -3.9,-5 c -0.3,-0.3 -0.6,-0.6 -1,-0.6 l -0.2,0 c -0.6,0 -1,0.4 -1,1 l 0,7.1 c 0,0.6 0.5,1 1,1 l 0,0 z"
               id="path359"
               inkscape:connector-curvature="0"
               style="fill:#333333" /></g></g><g
           id="g361"><g
             id="g363"><path
               class="st0"
               d="m 388.9,204.8 c 2.9,0 4.9,-2.1 4.9,-4.6 l 0,0 c 0,-2.6 -2,-4.6 -4.9,-4.6 -2.9,0 -4.9,2.1 -4.9,4.6 l 0,0 c 0.1,2.6 2.1,4.6 4.9,4.6 z m -2.7,-4.6 c 0,-1.6 1.1,-2.8 2.8,-2.8 1.6,0 2.8,1.3 2.8,2.8 l 0,0 c 0,1.6 -1.1,2.8 -2.8,2.8 -1.7,0 -2.8,-1.2 -2.8,-2.8 l 0,0 z"
               id="path365"
               inkscape:connector-curvature="0"
               style="fill:#333333" /></g></g><g
           id="g367"><g
             id="g369"><path
               class="st0"
               d="m 396.7,204.7 2.6,0 c 2.9,0 4.9,-2 4.9,-4.5 l 0,0 c 0,-2.5 -2,-4.5 -4.9,-4.5 l -2.6,0 c -0.6,0 -1,0.4 -1,1 l 0,6.9 c 0,0.7 0.4,1.1 1,1.1 z m 1,-7.2 1.5,0 c 1.7,0 2.8,1.1 2.8,2.7 l 0,0 c 0,1.6 -1.1,2.7 -2.8,2.7 l -1.5,0 0,-5.4 0,0 z"
               id="path371"
               inkscape:connector-curvature="0"
               style="fill:#333333" /></g></g><g
           id="g373"><g
             id="g375"><path
               class="st0"
               d="m 407,204.7 5.1,0 c 0.5,0 0.9,-0.4 0.9,-0.9 0,-0.5 -0.4,-0.9 -0.9,-0.9 l -4.2,0 0,-1.9 3.5,0 c 0.5,0 0.9,-0.4 0.9,-0.9 0,-0.5 -0.4,-0.9 -0.9,-0.9 l -3.5,0 0,-1.8 4.1,0 c 0.5,0 0.9,-0.4 0.9,-0.9 0,-0.5 -0.4,-0.9 -0.9,-0.9 l -5,0 c -0.6,0 -1,0.4 -1,1 l 0,7 c 0,0.7 0.4,1.1 1,1.1 l 0,0 z"
               id="path377"
               inkscape:connector-curvature="0"
               style="fill:#333333" /></g></g><g
           id="g379"><g
             id="g381"><path
               class="st0"
               d="m 414.6,203.7 c 1,0.7 2.2,1.1 3.5,1.1 2,0 3.4,-1 3.4,-2.8 l 0,0 c 0,-1.6 -1,-2.2 -2.9,-2.7 -1.6,-0.4 -2,-0.6 -2,-1.1 l 0,0 c 0,-0.4 0.4,-0.8 1.2,-0.8 0.6,0 1.3,0.2 1.9,0.6 0.1,0.1 0.3,0.1 0.5,0.1 0.6,0 1,-0.4 1,-0.9 0,-0.4 -0.2,-0.7 -0.4,-0.8 -0.8,-0.5 -1.8,-0.8 -2.9,-0.8 -1.9,0 -3.2,1.1 -3.2,2.7 l 0,0 c 0,1.8 1.2,2.3 3.1,2.7 1.5,0.4 1.9,0.6 1.9,1.1 l 0,0 c 0,0.5 -0.5,0.8 -1.3,0.8 -0.9,0 -1.7,-0.3 -2.4,-0.8 -0.1,-0.1 -0.3,-0.2 -0.6,-0.2 -0.6,0 -1,0.4 -1,0.9 -0.2,0.5 0,0.8 0.2,0.9 l 0,0 z"
               id="path383"
               inkscape:connector-curvature="0"
               style="fill:#333333" /></g></g><g
           id="g385"><g
             id="g387"><path
               class="st0"
               d="m 427.5,204.8 c 1.5,0 2.4,-0.4 3.3,-1.1 0.2,-0.1 0.3,-0.4 0.3,-0.7 0,-0.5 -0.4,-0.9 -1,-0.9 -0.2,0 -0.4,0.1 -0.6,0.2 -0.6,0.5 -1.1,0.7 -2,0.7 -1.6,0 -2.6,-1.3 -2.6,-2.8 l 0,0 c 0,-1.6 1.1,-2.8 2.6,-2.8 0.7,0 1.3,0.2 1.9,0.6 0.1,0.1 0.3,0.2 0.6,0.2 0.6,0 1,-0.4 1,-0.9 0,-0.3 -0.2,-0.6 -0.4,-0.8 -0.8,-0.5 -1.7,-0.9 -3.1,-0.9 -2.9,0 -4.8,2.1 -4.8,4.6 l 0,0 c 0.1,2.6 2.1,4.6 4.8,4.6 l 0,0 z"
               id="path389"
               inkscape:connector-curvature="0"
               style="fill:#333333" /></g></g><g
           id="g391"><g
             id="g393"><path
               class="st0"
               d="m 433.9,204.7 c 0.6,0 1,-0.4 1,-1 l 0,-2.7 3.8,0 0,2.7 c 0,0.5 0.4,1 1,1 0.6,0 1,-0.4 1,-1 l 0,-7.1 c 0,-0.5 -0.4,-1 -1,-1 -0.6,0 -1,0.4 -1,1 l 0,2.6 -3.7,0 0,-2.6 c 0,-0.5 -0.4,-1 -1,-1 -0.6,0 -1,0.4 -1,1 l 0,7.1 c -0.1,0.6 0.3,1 0.9,1 z"
               id="path395"
               inkscape:connector-curvature="0"
               style="fill:#333333" /></g></g><g
           id="g397"><g
             id="g399"><path
               class="st0"
               d="m 447.3,204.8 c 2.9,0 4.9,-2.1 4.9,-4.6 l 0,0 c 0,-2.6 -2,-4.6 -4.9,-4.6 -2.9,0 -4.9,2.1 -4.9,4.6 l 0,0 c 0.1,2.6 2.1,4.6 4.9,4.6 z m -2.7,-4.6 c 0,-1.6 1.1,-2.8 2.8,-2.8 1.6,0 2.8,1.3 2.8,2.8 l 0,0 c 0,1.6 -1.1,2.8 -2.8,2.8 -1.7,0 -2.8,-1.2 -2.8,-2.8 l 0,0 z"
               id="path401"
               inkscape:connector-curvature="0"
               style="fill:#333333" /></g></g><g
           id="g403"><g
             id="g405"><path
               class="st0"
               d="m 458.5,204.8 c 2.9,0 4.9,-2.1 4.9,-4.6 l 0,0 c 0,-2.6 -2,-4.6 -4.9,-4.6 -2.9,0 -4.9,2.1 -4.9,4.6 l 0,0 c 0.1,2.6 2.1,4.6 4.9,4.6 z m -2.7,-4.6 c 0,-1.6 1.1,-2.8 2.8,-2.8 1.6,0 2.8,1.3 2.8,2.8 l 0,0 c 0,1.6 -1.1,2.8 -2.8,2.8 -1.7,0 -2.8,-1.2 -2.8,-2.8 l 0,0 z"
               id="path407"
               inkscape:connector-curvature="0"
               style="fill:#333333" /></g></g><g
           id="g409"><g
             id="g411"><path
               class="st0"
               d="m 466.2,204.7 4.7,0 c 0.5,0 0.9,-0.4 0.9,-0.9 0,-0.5 -0.4,-0.9 -0.9,-0.9 l -3.8,0 0,-6.2 c 0,-0.5 -0.4,-1 -1,-1 -0.6,0 -1,0.4 -1,1 l 0,7 c 0.1,0.6 0.6,1 1.1,1 l 0,0 z"
               id="path413"
               inkscape:connector-curvature="0"
               style="fill:#333333" /></g></g></g></g><g
       id="g415"><polygon
         class="st1"
         points="421,104 420,104 420,115.7 419,116.3 419,128.2 422,128.2 422,116.3 421,115.7 "
         id="polygon417"
         style="fill:#629689" /></g></g></svg>