<?xml version="1.0" encoding="UTF-8" standalone="no"?>
<!-- Created with Inkscape (http://www.inkscape.org/) -->
<svg xmlns:rdf="http://www.w3.org/1999/02/22-rdf-syntax-ns#" xmlns="http://www.w3.org/2000/svg" height="124.8mm" width="108.6mm" version="1.1" xmlns:cc="http://creativecommons.org/ns#" xmlns:dc="http://purl.org/dc/elements/1.1/" viewBox="0 0 384.8 441.9">
 <title>NodeSchool Perth Logo</title>
 <metadata>
  <rdf:RDF>
   <cc:Work rdf:about="">
    <dc:format>image/svg+xml</dc:format>
    <dc:type rdf:resource="http://purl.org/dc/dcmitype/StillImage"/>
    <dc:title>NodeSchool Perth Logo</dc:title>
    <dc:creator>
     <cc:Agent>
      <dc:title>Michael Huynh</dc:title>
     </cc:Agent>
    </dc:creator>
   </cc:Work>
  </rdf:RDF>
 </metadata>
 <g transform="translate(-916.2,-459.9)">
  <path d="m1109 464.2-188.3 108.3 0.3 216.9 188 108.3 187-108.3v-216.9z" fill="#d6dffb"/>
  <path stroke-linejoin="round" d="m925.5 750.2c32.6 32.6 49.4-24.1 86.5 5.7 37 29.8 64 26.5 97 1.1 32 25.4 60 28.7 97-1.1 36-29.8 53 26.9 86-5.7" stroke="#0a1f62" stroke-width="3.8" fill="none"/>
  <g stroke="#0a1f62" transform="translate(0,5.7)">
   <g stroke-linejoin="round" fill="none" transform="translate(916.2,452.3)">
    <path stroke-width="3.8" d="m274.1 276.5v-125.9h-163.2v125.9"/>
    <path stroke-width="3.548" d="m122.7 264.6v-11.9l139.6 0.2-0.1 11.7"/>
    <path stroke-width="3.8" d="m131.6 252.7v-10l121.8 0.2-0.1 9.8"/>
    <path stroke-width="3.548" d="m122.7 178.5v-17.1l139.6 0.2-0.1 16.9z"/>
    <path stroke-width="3.8" d="m137.6 242.7v-55.4h-6v-8.8m20 0v8.8h-6v55.4"/>
    <path stroke-width="3.8" d="m239.4 242.9v-55.4h-6v-8.8m20 0v8.8h-6v55.4"/>
   </g>
   <path stroke-linejoin="round" d="m1048 622.2 122 0.1z" stroke-width="3.8" fill="none"/>
   <g transform="translate(916.2,184.1)">
    <g fill="none">
     <path stroke-linejoin="round" stroke-width="3.8" d="m208.2 511h-31.4l-15.7-27.2 15.7-27.2h31.4l15.7 27.2z"/>
     <path stroke-linejoin="round" stroke-width="3.488" d="m179.3 456.6v54.4m26.4 0v-54.4"/>
     <g stroke-width="3.8">
      <path d="m161.1 483.8h18.3-18.3z"/>
      <path d="m216.1 497.4h-10.4"/>
      <path d="m179.3 497.4h-10.4"/>
      <path d="m205.6 483.8h18.3-18.3z"/>
      <path d="m179.3 470.2h-10.4"/>
      <path d="m216.1 470.2h-10.4"/>
     </g>
    </g>
    <circle cy="483.8" cx="192.5" r="3.8" fill="#0a1f62"/>
   </g>
  </g>
  <g stroke="#0a1f62" stroke-width="3.8" fill="none">
   <g transform="translate(916.2,460.1)">
    <path stroke-linejoin="round" d="m291.1 274.4v-95.7h63.9v95.7z"/>
    <g transform="translate(6.2)">
     <path stroke-linejoin="round" d="m325.2 218.2h-16.6l-8.3-14.4 8.3-14.4h16.6l8.3 14.4z"/>
     <path d="m300.3 203.8h33.2z"/>
     <path d="m304.5 196.6h24.8z"/>
     <path d="m304.5 211h24.8z"/>
     <path d="m316.9 218.2v-28.8z"/>
    </g>
    <rect stroke-linejoin="round" ry=".5838" height="25.65" width="41.5" y="236.3" x="302.3"/>
    <path d="m316.1 262v-25.7z"/>
    <path d="m330 262v-25.7z"/>
    <path d="m302.3 249.1h41.5z"/>
    <path stroke-linejoin="round" d="m345 178.7v-17.1h-43.8v17.1"/>
    <g stroke-linejoin="round" transform="translate(64.17,6.08e-6)">
     <path d="m291.1 274.4v-95.7h22.7v95.7z"/>
     <path d="m313.8 178.7v-17.1h-12.6v17.1"/>
    </g>
    <path d="m345 170.1 20.4 0.1z"/>
    <path d="m301.2 170.1h-27.1z"/>
   </g>
   <g transform="matrix(-1,0,0,1,1301,460.1)">
    <path stroke-linejoin="round" fill="#d6dffb" d="m291.1 274.4v-95.7h63.9v95.7z"/>
    <g transform="translate(6.2)">
     <path stroke-linejoin="round" d="m325.2 218.2h-16.6l-8.3-14.4 8.3-14.4h16.6l8.3 14.4z"/>
     <path d="m300.3 203.8h33.2z"/>
     <path d="m304.5 196.6h24.8z"/>
     <path d="m304.5 211h24.8z"/>
     <path d="m316.9 218.2v-28.8z"/>
    </g>
    <rect stroke-linejoin="round" ry=".5838" height="25.65" width="41.5" y="236.3" x="302.3"/>
    <path d="m316.1 262v-25.7z"/>
    <path d="m330 262v-25.7z"/>
    <path d="m302.3 249.1h41.5z"/>
    <path stroke-linejoin="round" d="m345 178.7v-17.1h-43.8v17.1"/>
    <g stroke-linejoin="round" transform="translate(64.17,6.08e-6)">
     <path d="m291.1 274.4v-95.7h22.7v95.7z"/>
     <path d="m313.8 178.7v-17.1h-12.6v17.1"/>
    </g>
    <path d="m345 170.1 20.4 0.1z"/>
    <path d="m301.2 170.1h-27.1z"/>
   </g>
   <path d="m1190 722.6h-163"/>
  </g>
  <path d="m1291 734.5h-364.6" stroke="#0a1f62" stroke-width="3.8"/>
  <g fill="#0a1f62" transform="translate(916.2,459.9)">
   <path d="m269.2 77.8-75.9-43.8c-0.1-0.1-0.2-0.1-0.3-0.1h-1.1c-0.1 0-0.2 0.1-0.3 0.1l-74.7 43.1c-0.9 0.5-1.2 1.6-0.7 2.5s1.7 1.2 2.5 0.7l66.4-38.3-28.2 36c-0.6 0.8-0.5 2 0.3 2.6s2 0.5 2.6-0.3l30.8-39.3v38.4c0 1 0.8 1.9 1.9 1.9s1.9-0.8 1.9-1.9v-38.4l30.8 39.3c0.4 0.5 0.9 0.7 1.5 0.7 0.4 0 0.8-0.1 1.1-0.4 0.8-0.6 0.9-1.8 0.3-2.6l-28.2-36 67.6 39c0.3 0.2 0.6 0.2 0.9 0.2 0.6 0 1.3-0.3 1.6-0.9 0.4-0.8 0.1-2-0.8-2.5z"/>
   <path d="m268.7 360.7c-0.5-0.9-1.7-1.2-2.5-0.7l-66.3 38.3 28.2-36c0.6-0.8 0.5-2-0.3-2.6s-2-0.5-2.6 0.3l-30.8 39.3v-38.4c0-1-0.8-1.9-1.9-1.9s-1.9 0.8-1.9 1.9v38.4l-30.8-39.3c-0.6-0.8-1.8-0.9-2.6-0.3s-0.9 1.8-0.3 2.6l28.2 36-67.6-39c-0.9-0.5-2-0.2-2.5 0.7s-0.2 2 0.7 2.5l75.9 43.8h0.1c0.1 0 0.1 0.1 0.2 0.1h0.3c0.1 0 0.3 0.1 0.4 0.1 0.2 0 0.3 0 0.4-0.1h0.2c0.1 0 0.1-0.1 0.2-0.1h0.1l74.7-43.1c0.7-0.4 1-1.6 0.5-2.5z"/>
   <path d="m276 357.2c0 1.3-1 2.3-2.3 2.3-1.2 0-2.3-1-2.3-2.3s1.1-2.3 2.3-2.3c1.3 0 2.3 1 2.3 2.3z"/>
   <path d="m112.5 357.2c0 1.3-1 2.3-2.3 2.3-1.2 0-2.3-1-2.3-2.3s1.1-2.3 2.3-2.3c1.3 0 2.3 1 2.3 2.3z"/>
   <path d="m188.1 348.8v-8.7c0-0.7 0.5-1.2 1.2-1.2h6.2c0.6 0 1.1 0.5 1.1 1.1s-0.5 1.1-1.1 1.1h-5v2.3h4.3c0.6 0 1.1 0.5 1.1 1.1s-0.5 1.1-1.1 1.1h-4.3v2.4h5.1c0.6 0 1.1 0.5 1.1 1.1s-0.5 1.1-1.1 1.1h-6.3c-0.6-0.2-1.2-0.7-1.2-1.4z"/>
   <path d="m144.3 349.1c-0.4-0.6-0.3-1.3 0.2-1.7l2.6-2c2.2-1.7 4.4-1.4 5.8 0.5 1.6 2 0.8 4.3-1.2 5.8l-1.5 1.2 1.3 1.7c0.5 0.6 0.4 1.3-0.2 1.7-0.5 0.4-1.2 0.3-1.7-0.2l-5.3-7zm6.2 0.8c0.9-0.7 1.1-1.8 0.5-2.6-0.7-0.8-1.7-0.8-2.6-0.1l-1.5 1.2 2.1 2.6 1.5-1.1z"/>
   <path d="m233.5 344.7c0.4-0.5 1.2-0.6 1.8-0.3l3.1 2.4c1.1 0.8 1.8 1.8 2 2.8 0.1 1-0.2 1.8-0.8 2.7-1.1 1.3-2.4 1.7-3.8 1.3v2.7c0.1 0.4 0 0.7-0.2 1-0.4 0.5-1.2 0.5-1.7 0.2-0.4-0.4-0.6-0.8-0.5-1.3l-0.1-3.9-1.6-1.2-1.4 2c-0.4 0.5-1.2 0.6-1.8 0.2-0.5-0.3-0.6-1.2-0.3-1.7l5.3-6.9zm1.4 6.3c0.9 0.8 2 0.7 2.5 0 0.6-0.9 0.4-1.8-0.6-2.5l-1.9-1.5-2 2.6 2 1.4z"/>
   <path d="m124 115.8c0.8 0 1.4-0.6 1.4-1.4v-7.1l5.8 7.6c0.4 0.5 0.8 0.9 1.5 0.9h0.1c0.8 0 1.5-0.6 1.5-1.5v-10.5c0-0.8-0.6-1.4-1.4-1.4s-1.4 0.6-1.4 1.4v6.8l-5.6-7.4c-0.4-0.5-0.8-0.9-1.5-0.9h-0.3c-0.8 0-1.5 0.6-1.5 1.5v10.5c0 0.9 0.6 1.5 1.4 1.5z"/>
   <path d="m143.9 115.9c4.1 0 7.1-3.1 7.1-6.8 0-3.8-2.9-6.8-7-6.8s-7.1 3.1-7.1 6.8c0 3.8 2.9 6.8 7 6.8zm-3.9-6.8c0-2.3 1.6-4.1 4-4.1 2.3 0 4 1.9 4 4.2s-1.6 4.1-4 4.1c-2.4-0.1-4-1.9-4-4.2z"/>
   <path d="m155 115.7h3.7c4.2 0 7-2.9 7-6.6s-2.9-6.6-7-6.6h-3.7c-0.8 0-1.5 0.6-1.5 1.5v10.2c0.1 0.9 0.7 1.5 1.5 1.5zm1.5-10.6h2.2c2.4 0 4 1.6 4 4 0 2.3-1.6 4-4 4h-2.2v-8z"/>
   <path d="m169.8 115.7h7.4c0.7 0 1.3-0.6 1.3-1.3s-0.6-1.3-1.3-1.3h-6v-2.8h5c0.7 0 1.3-0.6 1.3-1.3s-0.6-1.3-1.3-1.3h-5v-2.7h5.9c0.7 0 1.3-0.6 1.3-1.3s-0.6-1.3-1.3-1.3h-7.3c-0.8 0-1.5 0.6-1.5 1.5v10.3c0.1 0.9 0.7 1.5 1.5 1.5z"/>
   <path d="m180.8 114.3c1.5 1.1 3.2 1.6 5 1.6 2.9 0 4.9-1.5 4.9-4.1 0-2.3-1.5-3.3-4.2-4-2.3-0.6-2.9-0.9-2.9-1.7 0-0.6 0.6-1.2 1.7-1.2 0.9 0 1.8 0.3 2.8 0.9 0.2 0.1 0.5 0.2 0.7 0.2 0.8 0 1.4-0.6 1.4-1.3 0-0.6-0.3-1-0.6-1.2-1.2-0.8-2.6-1.2-4.2-1.2-2.7 0-4.6 1.6-4.6 4 0 2.6 1.7 3.4 4.4 4 2.2 0.6 2.7 0.9 2.7 1.7s-0.7 1.2-1.9 1.2c-1.3 0-2.4-0.5-3.4-1.2-0.2-0.1-0.5-0.3-0.8-0.3-0.8 0-1.4 0.6-1.4 1.3-0.2 0.7 0.1 1.1 0.4 1.3z"/>
   <path d="m199.3 115.9c2.1 0 3.5-0.6 4.7-1.7 0.3-0.2 0.5-0.6 0.5-1 0-0.7-0.6-1.3-1.4-1.3-0.3 0-0.6 0.1-0.9 0.3-0.8 0.7-1.6 1-2.9 1-2.3 0-3.8-1.9-3.8-4.2s1.6-4.1 3.8-4.1c1 0 1.9 0.3 2.7 0.9 0.2 0.1 0.5 0.3 0.9 0.3 0.8 0 1.4-0.6 1.4-1.4 0-0.5-0.3-0.9-0.6-1.2-1.1-0.8-2.4-1.3-4.4-1.3-4.1 0-6.9 3.1-6.9 6.8 0.2 3.9 3.1 6.9 6.9 6.9z"/>
   <path d="m208.6 115.8c0.8 0 1.5-0.6 1.5-1.5v-4h5.4v4c0 0.8 0.6 1.5 1.5 1.5 0.8 0 1.5-0.6 1.5-1.5v-10.5c0-0.8-0.6-1.5-1.5-1.5-0.8 0-1.5 0.6-1.5 1.5v3.9h-5.4v-3.9c0-0.8-0.6-1.5-1.5-1.5-0.8 0-1.5 0.6-1.5 1.5v10.5c0 0.9 0.6 1.5 1.5 1.5z"/>
   <path d="m227.9 115.9c4.1 0 7-3.1 7-6.8 0-3.8-2.9-6.8-7-6.8s-7.1 3.1-7.1 6.8c0.1 3.8 3 6.8 7.1 6.8zm-4-6.8c0-2.3 1.6-4.1 4-4.1 2.3 0 4 1.9 4 4.2s-1.6 4.1-4 4.1c-2.3-0.1-4-1.9-4-4.2z"/>
   <path d="m244 115.9c4.1 0 7.1-3.1 7.1-6.8 0-3.8-2.9-6.8-7-6.8s-7.1 3.1-7.1 6.8c0 3.8 2.9 6.8 7 6.8zm-4-6.8c0-2.3 1.6-4.1 4-4.1 2.3 0 4 1.9 4 4.2s-1.6 4.1-4 4.1c-2.3-0.1-4-1.9-4-4.2z"/>
   <path d="m255.1 115.7h6.8c0.7 0 1.3-0.6 1.3-1.3s-0.6-1.3-1.3-1.3h-5.4v-9.2c0-0.8-0.6-1.5-1.5-1.5-0.8 0-1.5 0.6-1.5 1.5v10.3c0.1 0.9 0.8 1.5 1.6 1.5z"/>
   <path d="m192.4 0c-1.2 0-2.4 0.3-3.4 0.9l-185.6 107.1c-2.1 1.2-3.4 3.5-3.4 5.9v214.3c0 2.4 1.3 4.7 3.4 5.9l185.6 107.1c1.1 0.6 2.2 0.9 3.4 0.9s2.4-0.3 3.4-0.9l185.6-107.1c2.1-1.2 3.4-3.5 3.4-5.9v-214.3c0-2.4-1.3-4.7-3.4-5.9l-185.6-107.1c-1-0.6-2.2-0.9-3.4-0.9zm0 14.6 178.8 103.2 0.1 206.5l-178.9 103.2-178.7-103.2-0.3-206.5 179-103.2z"/>
  </g>
  <rect stroke-linejoin="round" ry="1.633" height="26.11" width="156.7" stroke="#0a1f62" stroke-linecap="round" y="556.2" x="1031" stroke-width="3.5" fill="none"/>
  <g stroke-linejoin="round" transform="matrix(.9081 0 0 .9081 933.8 267.9)">
   <g transform="matrix(.942 0 0 .942 206.8 9.796)" stroke-linecap="round" stroke-width="4.442" fill="none">
    <path d="m-31.17 561.8c-14.92-7.2-13.72-17-9.94-23.2 1.46-2.4 6.82-8.2 11.83-9.1 5.39-1.1 8.01-0.9 14.15-1.8 8.759-1.3 12.03-3.6 18.81-9.5 0 0 3.117 7.3 0.06 15.5-2.466 6.6-9.717 14.3-9.717 14.3 8.196 0.7 12.92-0.9 19.927-5.1 0 0 0.26 16-14.257 21m4.327-30.5c2.499-0.4 4.468 0.8 11.83-2 6.34-2.5 13.61-7.9 13.61-7.9 1.65 13.8-0.83 18.9-7.21 29.3 9.43 0.3 16.28-7.5 16.28-7.5-0.32 11.5-4.96 20.6-14.38 26.6-9.09 5.8-16.68 7.3-25.53 8-17.05 1.6-33.2 1.2-49.92-7.2-16.27-8.1-11.35-24-5.5-33.8 6.27-10.5 22.05-38.6 17.95-53.4-4.64-4.7-11.86-4-11.86-4s-15.6 3.5-16.49 2.7c-1.3-1.3-2.52-3.9-1.66-4.8 3.13-3.3 8.6-4 12.05-7.2 1.82-1.7 3.07-2.9 4.63-6.4 2-4.6 13.52-11.4 22.42 0.4 6.95 10.5 0.14 14.5 0.41 15.7 2.71 15.2-1.48 36.5-8.7 53.1"/>
   </g>
   <g stroke-width="4.1846" transform="translate(-.0499 -5.551)">
    <path fill="#d6dffb" d="m167.8 444c-4.1 0.1-8.1 2.6-9.7 6.4-1.8 3.9-5.4 6.5-9.1 8.2-1.9 1.1-4.1 1.7-5.6 3.2-0.9 1.5 0.8 3.5 2.4 2.9 4.7-0.6 9.2-2 13.9-2.5 4-0.1 8.3 1 11.1 3.9 1.4 1.8 1 4.1 1.2 6.2 0 7.4-2.6 14.4-5.2 21.2-3.6 9-8.4 17.5-13.2 26-3 5.6-5.5 12.3-3.7 18.7 1.5 5.4 6.4 9 11.4 11.1 10.6 4.8 22.4 6.7 34 6.1 9.7-0.4 19.8-0.7 28.7-5.2 7.2-3.3 13.8-9.2 16.2-17 0.4-1.6 1.3-3.3 1-5-1.1-1.2-2.4 0.6-3.5 1-3.2 1.7-6.9 2.8-10.5 2.4-1.2-0.8 0-2.2 0.4-3.1 2.9-4.9 5.8-10.1 6-15.9 0-2.1 0.4-4.3 0-6.4-1.4-1-2.6 1-3.9 1.4-5.3 3.2-11.3 6.1-17.7 5.8-1.4 0.5-1.5 2.4-2.5 3.4-1.2 2.4-3.1 4.4-4.4 6.7-0.1 1.8 1.9 1.4 3 1.2 4.1-0.6 7.7-2.6 11.3-4.5 1-0.7 2.1 0.7 1.8 1.7-0.4 6.8-3.6 13.8-9.4 17.8-1.7 1-3.6 2.2-5.6 2.5-0.7-0.3-1.5-1.6-0.4-2 3.2-1.7 6.5-3.4 8.7-6.3 1.8-2.5 3.1-5.4 3.6-8.4-0.5-1.6-2.4-0.6-3.5-0.2-4.3 1.9-9.2 2.4-13.9 1.8-0.9-0.2-0.9-1.6-0.2-2.1 3.9-4.8 8.2-9.7 9.5-15.9 0.3-2.4 0.3-4.9 0-7.2-0.9-1.5-2.5 0.1-3.5 0.7-4.4 3.7-10.2 5.1-15.8 5.7-4.5 0.7-9.1 0.7-13.4 2.2-3.9 2.1-7.3 5.4-9.2 9.3-2.1 4.2-1 9.5 2.2 12.8 2.1 2.4 5.1 3.9 7.8 5.5 1.2 0.7 0.1 2.7-1.1 1.9-4.3-1.8-8.3-4.8-10.7-8.9-2.8-4.7-1.9-10.8 1.2-15.2 1.4-1.9 3-3.8 3.7-6.1 4-10.3 6.7-21.3 7.3-32.4 0.2-4.4 0.1-8.9-0.5-13.4 0.1-2.1 2.2-3.6 2.4-5.7 0.5-5-2.8-9.7-6.7-12.4-1.7-1.2-3.8-1.9-5.9-1.9z"/>
    <g transform="matrix(.942 0 0 .942 206.8 9.796)" stroke="#000" stroke-linecap="round" stroke-width="4.4422" fill="none">
     <path d="m-31.17 561.8c-14.92-7.2-13.72-17-9.94-23.2 1.46-2.4 6.82-8.2 11.83-9.1 5.39-1.1 8.01-0.9 14.15-1.8 8.759-1.3 12.026-3.6 18.807-9.5 0 0 3.117 7.3 0.06 15.5-2.466 6.6-9.717 14.3-9.717 14.3 8.196 0.7 12.925-0.9 19.93-5.1 0 0 0.26 16-14.258 21m4.327-30.5c2.499-0.4 4.468 0.8 11.831-2 6.34-2.5 13.61-7.9 13.61-7.9 1.65 13.8-0.83 18.9-7.21 29.3 9.43 0.3 16.28-7.5 16.28-7.5-0.32 11.5-4.96 20.6-14.38 26.6-9.09 5.8-16.685 7.3-25.534 8-17.046 1.6-33.196 1.2-49.916-7.2-16.27-8.1-11.35-24-5.5-33.8 6.27-10.5 22.05-38.6 17.95-53.4-4.64-4.7-11.86-4-11.86-4s-15.6 3.5-16.49 2.7c-1.3-1.3-2.52-3.9-1.66-4.8 3.13-3.3 8.6-4 12.05-7.2 1.82-1.7 3.07-2.9 4.63-6.4 2-4.6 13.52-11.4 22.42 0.4 6.95 10.5 0.14 14.5 0.41 15.7 2.71 15.2-1.48 36.5-8.7 53.1" stroke="#0a1f62"/>
    </g>
   </g>
  </g>
 </g>
</svg>
