<?xml version="1.0" encoding="utf-8"?>
<!-- Generator: Adobe Illustrator 19.1.0, SVG Export Plug-In . SVG Version: 6.00 Build 0)  -->
<svg version="1.1" id="Layer_1" xmlns="http://www.w3.org/2000/svg" xmlns:xlink="http://www.w3.org/1999/xlink" x="0px" y="0px"
	 viewBox="-203 85.6 384.9 442.4" style="enable-background:new -203 85.6 384.9 442.4;" xml:space="preserve">
<style type="text/css">
	.st0{fill:#002673;}
	.st1{clip-path:url(#SVGID_2_);}
	.st2{fill:#02265E;}
	.st3{fill:#F4B311;}
</style>
<g id="Layer_2">
</g>
<g>
	<g>
		<path class="st0" d="M-10.5,527.9c-1.2,0-2.4-0.3-3.5-0.9l-185.5-107c-2.2-1.3-3.5-3.6-3.5-6.1V199.7c0-2.5,1.3-4.8,3.5-6.1
			L-14,86.5c2.2-1.3,4.8-1.3,7,0l185.4,107.1c2.2,1.2,3.5,3.6,3.5,6.1v214.2c0,2.5-1.3,4.8-3.5,6.1L-7,527
			C-8.1,527.6-9.3,527.9-10.5,527.9z"/>
	</g>
</g>
<g>
	<defs>
		<path id="SVGID_1_" d="M-10.5,527.9c-1.2,0-2.4-0.3-3.5-0.9l-185.5-107c-2.2-1.3-3.5-3.6-3.5-6.1V199.7c0-2.5,1.3-4.8,3.5-6.1
			L-14,86.5c2.2-1.3,4.8-1.3,7,0l185.4,107.1c2.2,1.2,3.5,3.6,3.5,6.1v214.2c0,2.5-1.3,4.8-3.5,6.1L-7,527
			C-8.1,527.6-9.3,527.9-10.5,527.9z"/>
	</defs>
	<clipPath id="SVGID_2_">
		<use xlink:href="#SVGID_1_"  style="overflow:visible;"/>
	</clipPath>
	<g class="st1">
		<g>
			<rect x="-106.2" y="376" class="st2" width="191.9" height="22.4"/>
		</g>
		<g>
			<path class="st2" d="M-67.2,418.7h15.9c0,0-0.3,20.3-25.7,46.4l-13-11.8C-90.1,453.4-70.4,437.5-67.2,418.7z"/>
		</g>
		<g>
			<path class="st2" d="M46.6,418.7H30.7c0,0,0.3,20.3,25.7,46.4l13-11.8C69.5,453.4,49.8,437.5,46.6,418.7z"/>
		</g>
		<g>
			<path class="st2" d="M24.9,479.1c0,0-22.2-25.8-26.4-60.4h-8.7v0h-8.7c-4.1,34.6-26.4,60.4-26.4,60.4
				c10.5,28,35.1,35.9,35.1,35.9v0C-10.1,515,14.4,507.1,24.9,479.1z"/>
		</g>
		<g>
			<path class="st2" d="M-53.8,357.1h-15.6c0,0-20.3-28.3-44.8-39.1s-64.5-5.4-55.3,46.4c0,0-40.7,3.2-55.3-42
				c-14.6-45.1,33.1-74.4,65.2-74.4S-75.5,254.8-53.8,357.1z"/>
		</g>
		<g>
			<path class="st2" d="M33.8,357.1h15.6c0,0,20.3-28.3,44.8-39.1s64.5-5.4,55.3,46.4c0,0,40.7,3.2,55.3-42
				c14.6-45.1-33.1-74.4-65.2-74.4S55.4,254.8,33.8,357.1z"/>
		</g>
		<g>
			<path class="st2" d="M-10.2,80.4c-74.5,50.3-80.2,108.1-45.9,164.4S-20,357.4-20,357.4h9.8h9.8c0,0,1.9-56.3,36.2-112.6
				S64.3,130.8-10.2,80.4z"/>
		</g>
	</g>
</g>
<g>
	<path class="st3" d="M94.4,355.8c-1.3,0-2.4-1-2.5-2.2c0-0.5-5.2-49.7-20.7-98.3c-9.1-28.4-19.8-51-31.9-67.1
		c-14.9-19.8-31.8-29.8-50.4-29.8c-18.6,0-35.5,10-50.1,29.8c-12,16.1-22.5,38.7-31.3,67.1c-15,48.6-19.8,97.8-19.8,98.3
		c-0.1,1.4-1.3,2.4-2.7,2.3c-1.4-0.1-2.4-1.3-2.3-2.7c0-0.5,4.8-50.2,20-99.3c9-28.9,19.7-52,32-68.6c15.7-21.1,33.9-31.9,54.2-31.9
		c20.3,0,38.6,10.7,54.5,31.9c12.5,16.6,23.5,39.7,32.7,68.6c15.6,49.1,20.9,98.8,20.9,99.3c0.1,1.4-0.9,2.6-2.2,2.7
		C94.5,355.8,94.5,355.8,94.4,355.8z"/>
</g>
<g>
	<path class="st3" d="M-138.9,359.9c-0.1,0-0.2,0-0.3,0c-1.4-0.2-2.4-1.4-2.2-2.8c0.1-0.5,6.2-54.7,25.1-108.2
		c11.1-31.5,24.4-56.7,39.5-74.8c19.1-22.9,41.2-34.5,65.6-34.5c24.4,0,46.6,11.6,65.9,34.5c15.2,18.1,28.7,43.2,40,74.8
		c19.2,53.5,25.8,107.6,25.9,108.2c0.2,1.4-0.8,2.6-2.2,2.8c-1.4,0.2-2.6-0.8-2.8-2.2c-0.1-0.5-6.6-54.2-25.7-107.2
		c-11.1-30.9-24.3-55.6-39.2-73.2c-18.3-21.7-39.2-32.7-62-32.7c-22.9,0-43.7,11-61.8,32.7c-14.7,17.6-27.7,42.3-38.6,73.2
		c-18.7,52.9-24.8,106.5-24.8,107.1C-136.6,358.9-137.7,359.9-138.9,359.9z"/>
</g>
<g>
	<path class="st3" d="M129.2,362.7c-12,0-18.1-2-24-3.8c-5.8-1.9-11.3-3.6-22.5-3.6c-11.2,0-16.7,1.8-22.5,3.6
		c-5.9,1.9-12,3.8-24,3.8s-18.1-2-24-3.8c-5.8-1.9-11.3-3.6-22.5-3.6c-11.2,0-16.7,1.8-22.5,3.6c-5.9,1.9-12,3.8-24,3.8
		s-18.1-2-24-3.8c-5.8-1.9-11.3-3.6-22.5-3.6c-11.2,0-16.7,1.8-22.5,3.6c-5.9,1.9-12,3.8-24,3.8c-12,0-18.1-2-24-3.8
		c-5.8-1.9-11.3-3.6-22.5-3.6c-1.4,0-2.5-1.1-2.5-2.5c0-1.4,1.1-2.5,2.5-2.5c12,0,18.1,2,24,3.8c5.8,1.9,11.3,3.6,22.5,3.6
		c11.2,0,16.7-1.8,22.5-3.6c5.9-1.9,12-3.8,24-3.8c12,0,18.1,2,24,3.8c5.8,1.9,11.3,3.6,22.5,3.6s16.7-1.8,22.5-3.6
		c5.9-1.9,12-3.8,24-3.8s18.1,2,24,3.8c5.8,1.9,11.3,3.6,22.5,3.6c11.2,0,16.7-1.8,22.5-3.6c5.9-1.9,12-3.8,24-3.8
		c12,0,18.1,2,24,3.8c5.8,1.9,11.3,3.6,22.5,3.6c11.2,0,16.7-1.8,22.5-3.6c5.9-1.9,12-3.8,24-3.8c1.4,0,2.5,1.1,2.5,2.5
		c0,1.4-1.1,2.5-2.5,2.5c-11.2,0-16.7,1.8-22.5,3.6C147.4,360.7,141.3,362.7,129.2,362.7z"/>
</g>
<g>
	<path class="st3" d="M129.2,390.6c-12,0-18.1-2-24-3.8c-5.8-1.9-11.3-3.6-22.5-3.6c-11.2,0-16.7,1.8-22.5,3.6
		c-5.9,1.9-12,3.8-24,3.8s-18.1-2-24-3.8c-5.8-1.9-11.3-3.6-22.5-3.6c-11.2,0-16.7,1.8-22.5,3.6c-5.9,1.9-12,3.8-24,3.8
		s-18.1-2-24-3.8c-5.8-1.9-11.3-3.6-22.5-3.6c-11.2,0-16.7,1.8-22.5,3.6c-5.9,1.9-12,3.8-24,3.8c-12,0-18.1-2-24-3.8
		c-5.8-1.9-11.3-3.6-22.5-3.6c-1.4,0-2.5-1.1-2.5-2.5c0-1.4,1.1-2.5,2.5-2.5c12,0,18.1,2,24,3.8c5.8,1.9,11.3,3.6,22.5,3.6
		c11.2,0,16.7-1.8,22.5-3.6c5.9-1.9,12-3.8,24-3.8c12,0,18.1,2,24,3.8c5.8,1.9,11.3,3.6,22.5,3.6s16.7-1.8,22.5-3.6
		c5.9-1.9,12-3.8,24-3.8s18.1,2,24,3.8c5.8,1.9,11.3,3.6,22.5,3.6c11.2,0,16.7-1.8,22.5-3.6c5.9-1.9,12-3.8,24-3.8
		c12,0,18.1,2,24,3.8c5.8,1.9,11.3,3.6,22.5,3.6c11.2,0,16.7-1.8,22.5-3.6c5.9-1.9,12-3.8,24-3.8c1.4,0,2.5,1.1,2.5,2.5
		c0,1.4-1.1,2.5-2.5,2.5c-11.2,0-16.7,1.8-22.5,3.6C147.4,388.6,141.3,390.6,129.2,390.6z"/>
</g>
<g>
	<path class="st3" d="M129.2,418.5c-12,0-18.1-2-24-3.8c-5.8-1.9-11.3-3.6-22.5-3.6c-11.2,0-16.7,1.8-22.5,3.6
		c-5.9,1.9-12,3.8-24,3.8s-18.1-2-24-3.8c-5.8-1.9-11.3-3.6-22.5-3.6c-11.2,0-16.7,1.8-22.5,3.6c-5.9,1.9-12,3.8-24,3.8
		s-18.1-2-24-3.8c-5.8-1.9-11.3-3.6-22.5-3.6c-11.2,0-16.7,1.8-22.5,3.6c-5.9,1.9-12,3.8-24,3.8c-12,0-18.1-2-24-3.8
		c-5.8-1.9-11.3-3.6-22.5-3.6c-1.4,0-2.5-1.1-2.5-2.5c0-1.4,1.1-2.5,2.5-2.5c12,0,18.1,2,24,3.8c5.8,1.9,11.3,3.6,22.5,3.6
		c11.2,0,16.7-1.8,22.5-3.6c5.9-1.9,12-3.8,24-3.8c12,0,18.1,2,24,3.8c5.8,1.9,11.3,3.6,22.5,3.6s16.7-1.8,22.5-3.6
		c5.9-1.9,12-3.8,24-3.8s18.1,2,24,3.8c5.8,1.9,11.3,3.6,22.5,3.6c11.2,0,16.7-1.8,22.5-3.6c5.9-1.9,12-3.8,24-3.8
		c12,0,18.1,2,24,3.8c5.8,1.9,11.3,3.6,22.5,3.6c11.2,0,16.7-1.8,22.5-3.6c5.9-1.9,12-3.8,24-3.8c1.4,0,2.5,1.1,2.5,2.5
		c0,1.4-1.1,2.5-2.5,2.5c-11.2,0-16.7,1.8-22.5,3.6C147.4,416.6,141.3,418.5,129.2,418.5z"/>
</g>
<g>
	<g>
		<path class="st3" d="M-10.5,527.9c-1.2,0-2.4-0.3-3.5-0.9l-185.5-107c-2.2-1.3-3.5-3.6-3.5-6.1V199.7c0-2.5,1.3-4.8,3.5-6.1
			L-14,86.5c2.2-1.3,4.8-1.3,7,0l185.4,107.1c2.2,1.2,3.5,3.6,3.5,6.1v214.2c0,2.5-1.3,4.8-3.5,6.1L-7,527
			C-8.1,527.6-9.3,527.9-10.5,527.9z M-189,409.8l178.5,103l178.4-103V203.7L-10.5,100.6L-189,203.7V409.8z"/>
	</g>
</g>
<g>
	<path class="st3" d="M65.3,444.9c-0.5-0.9-1.7-1.2-2.5-0.7l-66.3,38.3l28.2-36c0.6-0.8,0.5-2-0.3-2.6c-0.8-0.6-2-0.5-2.6,0.3
		L-9,483.5v-38.4c0-1-0.8-1.9-1.9-1.9s-1.9,0.8-1.9,1.9v38.4l-30.8-39.3c-0.6-0.8-1.8-0.9-2.6-0.3c-0.8,0.6-0.9,1.8-0.3,2.6l28.2,36
		l-67.6-39c-0.9-0.5-2-0.2-2.5,0.7s-0.2,2,0.7,2.5l75.9,43.8c0,0,0,0,0.1,0c0.1,0,0.1,0.1,0.2,0.1c0,0,0,0,0.1,0c0,0,0,0,0.1,0h0.1
		c0.1,0,0.3,0.1,0.4,0.1l0,0l0,0l0,0l0,0c0.2,0,0.3,0,0.4-0.1h0.1h0.1c0.1,0,0.1-0.1,0.2-0.1c0,0,0,0,0.1,0l74.7-43.1
		C65.5,447,65.8,445.8,65.3,444.9z"/>
</g>
<g>
	<circle class="st3" cx="70.3" cy="441.4" r="2.3"/>
</g>
<g>
	<circle class="st3" cx="-93.2" cy="441.4" r="2.3"/>
</g>
<g>
	<g>
		<path class="st3" d="M-80.4,340c0.8,0,1.4-0.6,1.4-1.4v-7.1l5.8,7.6c0.4,0.5,0.8,0.9,1.5,0.9h0.1c0.8,0,1.5-0.6,1.5-1.5V328
			c0-0.8-0.6-1.4-1.4-1.4c-0.8,0-1.4,0.6-1.4,1.4v6.8l-5.6-7.4c-0.4-0.5-0.8-0.9-1.5-0.9h-0.3c-0.8,0-1.5,0.6-1.5,1.5v10.5
			C-81.8,339.4-81.2,340-80.4,340z"/>
	</g>
	<g>
		<path class="st3" d="M-60.5,340.1c4.1,0,7.1-3.1,7.1-6.8l0,0c0-3.8-2.9-6.8-7-6.8s-7.1,3.1-7.1,6.8l0,0
			C-67.5,337.1-64.6,340.1-60.5,340.1z M-64.4,333.3c0-2.3,1.6-4.1,4-4.1c2.3,0,4,1.9,4,4.2l0,0c0,2.3-1.6,4.1-4,4.1
			C-62.8,337.4-64.4,335.6-64.4,333.3L-64.4,333.3z"/>
	</g>
	<g>
		<path class="st3" d="M-49.4,339.9h3.7c4.2,0,7-2.9,7-6.6l0,0c0-3.7-2.9-6.6-7-6.6h-3.7c-0.8,0-1.5,0.6-1.5,1.5v10.2
			C-50.8,339.3-50.2,339.9-49.4,339.9z M-47.9,329.3h2.2c2.4,0,4,1.6,4,4l0,0c0,2.3-1.6,4-4,4h-2.2V329.3z"/>
	</g>
	<g>
		<path class="st3" d="M-34.6,339.9h7.4c0.7,0,1.3-0.6,1.3-1.3c0-0.7-0.6-1.3-1.3-1.3h-6v-2.8h5c0.7,0,1.3-0.6,1.3-1.3
			c0-0.7-0.6-1.3-1.3-1.3h-5v-2.7h5.9c0.7,0,1.3-0.6,1.3-1.3s-0.6-1.3-1.3-1.3h-7.3c-0.8,0-1.5,0.6-1.5,1.5v10.3
			C-36,339.3-35.4,339.9-34.6,339.9z"/>
	</g>
	<g>
		<path class="st3" d="M-23.6,338.5c1.5,1.1,3.2,1.6,5,1.6c2.9,0,4.9-1.5,4.9-4.1l0,0c0-2.3-1.5-3.3-4.2-4c-2.3-0.6-2.9-0.9-2.9-1.7
			l0,0c0-0.6,0.6-1.2,1.7-1.2c0.9,0,1.8,0.3,2.8,0.9c0.2,0.1,0.5,0.2,0.7,0.2c0.8,0,1.4-0.6,1.4-1.3c0-0.6-0.3-1-0.6-1.2
			c-1.2-0.8-2.6-1.2-4.2-1.2c-2.7,0-4.6,1.6-4.6,4l0,0c0,2.6,1.7,3.4,4.4,4c2.2,0.6,2.7,0.9,2.7,1.7l0,0c0,0.8-0.7,1.2-1.9,1.2
			c-1.3,0-2.4-0.5-3.4-1.2c-0.2-0.1-0.5-0.3-0.8-0.3c-0.8,0-1.4,0.6-1.4,1.3C-24.2,337.9-23.9,338.3-23.6,338.5z"/>
	</g>
	<g>
		<path class="st3" d="M-5.1,340.1c2.1,0,3.5-0.6,4.7-1.7c0.3-0.2,0.5-0.6,0.5-1c0-0.7-0.6-1.3-1.4-1.3c-0.3,0-0.6,0.1-0.9,0.3
			c-0.8,0.7-1.6,1-2.9,1c-2.3,0-3.8-1.9-3.8-4.2l0,0c0-2.3,1.6-4.1,3.8-4.1c1,0,1.9,0.3,2.7,0.9c0.2,0.1,0.5,0.3,0.9,0.3
			c0.8,0,1.4-0.6,1.4-1.4c0-0.5-0.3-0.9-0.6-1.2c-1.1-0.8-2.4-1.3-4.4-1.3c-4.1,0-6.9,3.1-6.9,6.8l0,0
			C-11.8,337.1-8.9,340.1-5.1,340.1z"/>
	</g>
	<g>
		<path class="st3" d="M4.2,340c0.8,0,1.5-0.6,1.5-1.5v-4H11v4c0,0.8,0.6,1.5,1.5,1.5c0.8,0,1.5-0.6,1.5-1.5V328
			c0-0.8-0.6-1.5-1.5-1.5c-0.8,0-1.5,0.6-1.5,1.5v3.9H5.6V328c0-0.8-0.6-1.5-1.5-1.5c-0.8,0-1.5,0.6-1.5,1.5v10.5
			C2.7,339.4,3.3,340,4.2,340z"/>
	</g>
	<g>
		<path class="st3" d="M23.4,340.1c4.1,0,7-3.1,7-6.8l0,0c0-3.8-2.9-6.8-7-6.8s-7.1,3.1-7.1,6.8l0,0
			C16.4,337.1,19.3,340.1,23.4,340.1z M19.4,333.3c0-2.3,1.6-4.1,4-4.1c2.3,0,4,1.9,4,4.2l0,0c0,2.3-1.6,4.1-4,4.1
			C21.1,337.4,19.4,335.6,19.4,333.3L19.4,333.3z"/>
	</g>
	<g>
		<path class="st3" d="M39.5,340.1c4.1,0,7.1-3.1,7.1-6.8l0,0c0-3.8-2.9-6.8-7-6.8s-7.1,3.1-7.1,6.8l0,0
			C32.5,337.1,35.4,340.1,39.5,340.1z M35.5,333.3c0-2.3,1.6-4.1,4-4.1c2.3,0,4,1.9,4,4.2l0,0c0,2.3-1.6,4.1-4,4.1
			C37.2,337.4,35.5,335.6,35.5,333.3L35.5,333.3z"/>
	</g>
	<g>
		<path class="st3" d="M50.6,339.9h6.8c0.7,0,1.3-0.6,1.3-1.3c0-0.7-0.6-1.3-1.3-1.3H52v-9.2c0-0.8-0.6-1.5-1.5-1.5
			c-0.8,0-1.5,0.6-1.5,1.5v10.3C49.1,339.3,49.8,339.9,50.6,339.9z"/>
	</g>
</g>
<g>
	<path class="st3" d="M-54.7,441.2c-0.3,0-0.7-0.2-0.9-0.6c-0.3-0.6-0.1-1.2,0.4-1.6c0.3-0.2,0.5-0.2,0.7-0.2c1,0.1,2,0,3-0.6
		c0.9-0.5,1.2-1.2,0.9-1.7l0,0c-0.3-0.5-0.8-0.6-2.7-0.1c-2.2,0.6-3.8,0.8-4.9-1.1l0,0c-1-1.8-0.3-3.7,1.7-4.9
		c1.2-0.7,2.4-1,3.6-0.9c0.3,0,0.7,0.2,1,0.6c0.3,0.6,0.1,1.2-0.4,1.6c-0.2,0.1-0.4,0.2-0.6,0.2c-0.9,0-1.7,0.1-2.4,0.5
		c-0.8,0.5-1,1.1-0.8,1.6l0,0c0.4,0.6,0.9,0.6,2.8,0.1c2.3-0.6,3.8-0.6,4.8,1.1l0,0c1.1,1.9,0.3,3.9-1.8,5.1
		C-51.7,441-53.2,441.4-54.7,441.2z"/>
</g>
<g>
	<path class="st3" d="M-12.2,425.5h-2.4c-0.6,0-1.1-0.5-1.1-1.1c0-0.6,0.5-1.1,1.1-1.1h7.2c0.6,0,1.1,0.5,1.1,1.1
		c0,0.6-0.5,1.1-1.1,1.1h-2.4v7.8c0,0.7-0.5,1.2-1.2,1.2c-0.7,0-1.2-0.5-1.2-1.2V425.5z"/>
</g>
<g>
	<path class="st3" d="M29.9,428.7c0.3-0.6,1.1-0.8,1.7-0.5c0.6,0.3,0.8,1.1,0.5,1.7l-3.9,6.8l4,2.3c0.5,0.3,0.7,1,0.4,1.5
		c-0.3,0.5-1,0.7-1.5,0.4l-5-2.9c-0.6-0.3-0.8-1.1-0.5-1.7L29.9,428.7z"/>
</g>
<g>
	<path class="st3" d="M26.3,292.8c-1.4,0-2.5-1.1-2.5-2.5c0-19.5-15.9-35.4-35.4-35.4c-19.5,0-35.4,15.9-35.4,35.4
		c0,1.4-1.1,2.5-2.5,2.5c-1.4,0-2.5-1.1-2.5-2.5c0-22.3,18.1-40.4,40.4-40.4c22.3,0,40.4,18.1,40.4,40.4
		C28.8,291.6,27.7,292.8,26.3,292.8z"/>
</g>
<g>
	<path class="st3" d="M58.7,316.2H-81.8c-1.4,0-2.5-1.1-2.5-2.5v-15c0-1.2,0.8-2.2,1.9-2.4l70.3-17c0.4-0.1,0.8-0.1,1.2,0l70.3,17
		c1.1,0.3,1.9,1.3,1.9,2.4v15C61.2,315.1,60.1,316.2,58.7,316.2z M-79.3,311.2H56.2v-10.5l-67.8-16.4l-67.8,16.4V311.2z"/>
</g>
<g>
	<path class="st3" d="M3.5,257c-1.4,0-2.5-1.1-2.5-2.5v-12.1h-26.1v12.1c0,1.4-1.1,2.5-2.5,2.5c-1.4,0-2.5-1.1-2.5-2.5v-14.6
		c0-1.4,1.1-2.5,2.5-2.5H3.5c1.4,0,2.5,1.1,2.5,2.5v14.6C6,255.8,4.9,257,3.5,257z"/>
</g>
<g>
	<path class="st3" d="M-2.1,240.8c-1.4,0-2.5-1.1-2.5-2.5c0-3.9-3.1-7-7-7s-7,3.1-7,7c0,1.4-1.1,2.5-2.5,2.5s-2.5-1.1-2.5-2.5
		c0-6.6,5.4-12,12-12s12,5.4,12,12C0.4,239.7-0.7,240.8-2.1,240.8z"/>
</g>
<g>
	<path class="st3" d="M-11.5,231.3c-1.4,0-2.5-1.1-2.5-2.5v-54.4c0-1.4,1.1-2.5,2.5-2.5s2.5,1.1,2.5,2.5v54.4
		C-9,230.2-10.2,231.3-11.5,231.3z"/>
</g>
<g>
	<path class="st3" d="M6.5,198.4c-0.2,0-0.4,0-0.5-0.1l-18.1-4c-1.3-0.3-2.2-1.6-1.9-3c0.3-1.3,1.6-2.2,3-1.9l15,3.3V183l-16.1-3.6
		c-1.3-0.3-2.2-1.6-1.9-3c0.3-1.3,1.6-2.2,3-1.9l18.1,4c1.1,0.3,2,1.3,2,2.4v14.9c0,0.8-0.3,1.5-0.9,1.9
		C7.6,198.2,7.1,198.4,6.5,198.4z"/>
</g>
<g>
	<path class="st3" d="M-11.5,316.2c-1.4,0-2.5-1.1-2.5-2.5v-16c0-1.4,1.1-2.5,2.5-2.5s2.5,1.1,2.5,2.5v16
		C-9,315.1-10.2,316.2-11.5,316.2z"/>
</g>
<g>
	<path class="st3" d="M3.5,316.2c-1.4,0-2.5-1.1-2.5-2.5v-14c0-1.4,1.1-2.5,2.5-2.5s2.5,1.1,2.5,2.5v14C6,315.1,4.9,316.2,3.5,316.2
		z"/>
</g>
<g>
	<path class="st3" d="M18.5,316.2c-1.4,0-2.5-1.1-2.5-2.5v-12c0-1.4,1.1-2.5,2.5-2.5c1.4,0,2.5,1.1,2.5,2.5v12
		C21,315.1,19.9,316.2,18.5,316.2z"/>
</g>
<g>
	<path class="st3" d="M33.6,316.2c-1.4,0-2.5-1.1-2.5-2.5v-10c0-1.4,1.1-2.5,2.5-2.5c1.4,0,2.5,1.1,2.5,2.5v10
		C36.1,315.1,35,316.2,33.6,316.2z"/>
</g>
<g>
	<path class="st3" d="M48.6,316.2c-1.4,0-2.5-1.1-2.5-2.5v-8c0-1.4,1.1-2.5,2.5-2.5c1.4,0,2.5,1.1,2.5,2.5v8
		C51.1,315.1,50,316.2,48.6,316.2z"/>
</g>
<g>
	<path class="st3" d="M-71.8,316.2c-1.4,0-2.5-1.1-2.5-2.5v-8c0-1.4,1.1-2.5,2.5-2.5s2.5,1.1,2.5,2.5v8
		C-69.3,315.1-70.4,316.2-71.8,316.2z"/>
</g>
<g>
	<path class="st3" d="M-56.8,316.2c-1.4,0-2.5-1.1-2.5-2.5v-10c0-1.4,1.1-2.5,2.5-2.5c1.4,0,2.5,1.1,2.5,2.5v10
		C-54.3,315.1-55.4,316.2-56.8,316.2z"/>
</g>
<g>
	<path class="st3" d="M-41.7,316.2c-1.4,0-2.5-1.1-2.5-2.5v-12c0-1.4,1.1-2.5,2.5-2.5c1.4,0,2.5,1.1,2.5,2.5v12
		C-39.2,315.1-40.3,316.2-41.7,316.2z"/>
</g>
<g>
	<path class="st3" d="M-26.7,316.2c-1.4,0-2.5-1.1-2.5-2.5v-14c0-1.4,1.1-2.5,2.5-2.5c1.4,0,2.5,1.1,2.5,2.5v14
		C-24.2,315.1-25.3,316.2-26.7,316.2z"/>
</g>
</svg>
