<?xml version="1.0" encoding="utf-8"?>
<!-- Generator: Adobe Illustrator 16.0.0, SVG Export Plug-In . SVG Version: 6.00 Build 0)  -->
<!DOCTYPE svg PUBLIC "-//W3C//DTD SVG 1.1//EN" "http://www.w3.org/Graphics/SVG/1.1/DTD/svg11.dtd">
<svg version="1.1" id="Layer_1" xmlns="http://www.w3.org/2000/svg" xmlns:xlink="http://www.w3.org/1999/xlink" x="0px" y="0px"
	 width="385.186px" height="442.798px" viewBox="0 0 385.186 442.798" enable-background="new 0 0 385.186 442.798"
	 xml:space="preserve">
<g>
	<path fill="#FC8C54" d="M183.94,233.91h-8.633c-0.434,0-0.786,0.353-0.786,0.786v21.087c0,0.434,0.353,0.785,0.786,0.785h8.633
		c0.433,0,0.785-0.352,0.785-0.785v-21.087C184.726,234.262,184.373,233.91,183.94,233.91z M178.838,246.982h-2.743v-6.567h2.743
		V246.982z M180.41,240.415h2.744v6.567h-2.744V240.415z M176.095,248.553h2.743v2.374h-2.743V248.553z M180.41,248.553h2.744v2.374
		h-2.744V248.553z M183.154,238.842h-2.744v-3.36h2.744V238.842z M178.838,235.482v3.36h-2.743v-3.36H178.838z M176.095,252.499
		h2.743v2.497h-2.743V252.499z M180.41,254.996v-2.497h2.744v2.497H180.41z"/>
	<path fill="#FC8C54" d="M197.504,233.91h-8.631c-0.435,0-0.786,0.353-0.786,0.786v21.087c0,0.434,0.352,0.785,0.786,0.785h8.631
		c0.434,0,0.785-0.352,0.785-0.785v-21.087C198.289,234.262,197.938,233.91,197.504,233.91z M192.403,246.982h-2.744v-6.567h2.744
		V246.982z M193.974,240.415h2.744v6.567h-2.744V240.415z M189.659,248.553h2.744v2.374h-2.744V248.553z M193.974,248.553h2.744
		v2.374h-2.744V248.553z M196.718,238.842h-2.744v-3.36h2.744V238.842z M192.403,235.482v3.36h-2.744v-3.36H192.403z
		 M189.659,252.499h2.744v2.497h-2.744V252.499z M193.974,254.996v-2.497h2.744v2.497H193.974z"/>
	<path fill="#FC8C54" d="M210.822,233.91h-8.634c-0.434,0-0.786,0.353-0.786,0.786v21.087c0,0.434,0.353,0.785,0.786,0.785h8.634
		c0.433,0,0.784-0.352,0.784-0.785v-21.087C211.606,234.262,211.255,233.91,210.822,233.91z M205.72,246.982h-2.745v-6.567h2.745
		V246.982z M207.292,240.415h2.743v6.567h-2.743V240.415z M202.975,248.553h2.745v2.374h-2.745V248.553z M207.292,248.553h2.743
		v2.374h-2.743V248.553z M210.035,238.842h-2.743v-3.36h2.743V238.842z M205.72,235.482v3.36h-2.745v-3.36H205.72z M202.975,252.499
		h2.745v2.497h-2.745V252.499z M207.292,254.996v-2.497h2.743v2.497H207.292z"/>
	<path fill="#FC8C54" d="M197.628,217.227h-2.96h-2.959h-2.96c-0.434,0-0.786,0.353-0.786,0.786v9.167
		c0,0.434,0.353,0.786,0.786,0.786h2.96c0.434,0,0.785-0.353,0.785-0.786v-0.529h1.388v0.529c0,0.434,0.353,0.786,0.786,0.786h2.96
		c0.434,0,0.786-0.353,0.786-0.786v-9.167C198.414,217.58,198.062,217.227,197.628,217.227z M190.923,226.394h-1.388v-7.596h1.388
		v7.066V226.394z M192.494,225.08v-6.281h1.388v6.281H192.494z M196.842,226.394h-1.389v-0.529v-7.066h1.389V226.394z"/>
	<path fill="#FC8C54" d="M263.974,218.144h-2.957h-2.961h-2.959c-0.435,0-0.785,0.352-0.785,0.786v9.167
		c0,0.434,0.351,0.785,0.785,0.785h2.959c0.435,0,0.786-0.352,0.786-0.785v-0.53h1.388v0.53c0,0.434,0.353,0.785,0.787,0.785h2.957
		c0.435,0,0.787-0.352,0.787-0.785v-9.167C264.761,218.496,264.408,218.144,263.974,218.144z M257.271,227.31h-1.389v-7.595h1.389
		v7.065V227.31z M258.842,225.996v-6.28h1.388v6.28H258.842z M263.188,227.31h-1.387v-0.529v-7.065h1.387V227.31z"/>
	<path fill="#FC8C54" d="M316.275,218.144h-2.96h-2.959h-2.96c-0.433,0-0.786,0.352-0.786,0.786v9.167
		c0,0.434,0.354,0.785,0.786,0.785h2.96c0.433,0,0.785-0.352,0.785-0.785v-0.53h1.389v0.53c0,0.434,0.352,0.785,0.785,0.785h2.96
		c0.434,0,0.785-0.352,0.785-0.785v-9.167C317.061,218.496,316.709,218.144,316.275,218.144z M309.569,227.31h-1.387v-7.595h1.387
		v7.065V227.31z M311.142,225.996v-6.28h1.389v6.28H311.142z M315.489,227.31h-1.389v-0.529v-7.065h1.389V227.31z"/>
	<path fill="#FC8C54" d="M358.573,203.737h-9.889v-2.349c0-0.395-0.29-0.717-0.667-0.774v-12.354c0-0.434-0.353-0.785-0.785-0.785
		h-5.687v-3.256c0-0.435-0.353-0.786-0.785-0.786h-4.607v-4.147c0-0.434-0.353-0.785-0.787-0.785h-11.161
		c-1.232-1.312-6.844-6.742-15.325-6.742c-8.47,0-13.936,5.411-15.151,6.742h-7.815c-1.524-1.765-9.884-10.566-24.758-10.838V146.73
		c0-0.434-0.352-0.785-0.785-0.785h-7.321c-0.435,0-0.786,0.352-0.786,0.785v4.811c-0.017-0.002-0.032-0.005-0.049-0.005h-6.551
		c-7.336-12.999-19.168-22.603-32.955-27.317c-0.143-0.066-0.275-0.135-0.423-0.2c-0.124-0.057-0.256-0.073-0.385-0.063
		c-2.842-0.928-5.762-1.656-8.74-2.158v-15.208c0-0.434-0.353-0.786-0.786-0.786h-3.77c0.1-0.265,0.16-0.549,0.16-0.849
		c0-0.876-0.467-1.645-1.166-2.07c0.207-0.356,0.324-0.769,0.324-1.208c0-0.678-0.28-1.292-0.728-1.732
		c1.563-1.09,2.984-3.016,3.159-5.849c0.025-0.445-0.132-0.894-0.421-1.203c-0.482-0.511-1.251-0.587-2.108-0.153
		c-0.627,0.316-1.198,0.671-1.707,1.061c-0.428-0.629-1.073-1.017-1.785-1.017s-1.357,0.388-1.785,1.017
		c-0.51-0.391-1.081-0.746-1.707-1.061c-0.857-0.435-1.626-0.358-2.106,0.153c-0.292,0.309-0.448,0.758-0.422,1.204
		c0.175,2.832,1.594,4.758,3.159,5.848c-0.447,0.441-0.728,1.054-0.728,1.732c0,0.44,0.118,0.852,0.323,1.208
		c-0.699,0.426-1.167,1.194-1.167,2.07c0,0.3,0.062,0.583,0.162,0.849h-4.272c-0.435,0-0.787,0.352-0.787,0.786v14.904
		c-0.366,0.05-0.73,0.109-1.095,0.165c-0.096-0.015-0.193-0.016-0.292,0.005c-0.015,0.004-0.151,0.036-0.376,0.096
		c-3.097,0.509-6.129,1.258-9.078,2.225c-0.173-0.049-0.362-0.043-0.54,0.036c-0.396,0.18-0.775,0.366-1.159,0.55
		c-13.366,4.83-24.814,14.277-31.977,26.968h-6.843c-0.036,0-0.071,0.006-0.106,0.011v-4.816c0-0.434-0.351-0.785-0.784-0.785
		h-7.323c-0.435,0-0.785,0.352-0.785,0.785v20.933c-14.825,0.292-23.08,9.065-24.596,10.837h-7.854
		c-1.216-1.331-6.681-6.742-15.151-6.742c-8.48,0-14.092,5.43-15.326,6.742H50.559c-0.435,0-0.786,0.352-0.786,0.785v4.147h-4.609
		c-0.433,0-0.785,0.352-0.785,0.786v3.256h-5.685c-0.436,0-0.787,0.352-0.787,0.785v12.354c-0.378,0.058-0.668,0.381-0.668,0.774
		v2.349h-9.839c-0.434,0-0.785,0.352-0.785,0.785v2.159c0,0.435,0.352,0.785,0.785,0.785h1.025v5.275
		c0,0.434,0.353,0.785,0.787,0.785h3.953v1.15c0,0.435,0.352,0.786,0.786,0.786h0.669v1.145c0,0.434,0.352,0.786,0.785,0.786h0.717
		v2.42c0,0.434,0.353,0.785,0.786,0.785h1.003V264.9h-0.998c-0.435,0-0.785,0.352-0.785,0.785v2.113h-2.172
		c-0.435,0-0.785,0.352-0.785,0.785v1.973v3.946v2.591c0,0.434,0.351,0.785,0.785,0.785h1.183v41.697
		c0,0.434,0.351,0.787,0.785,0.787H55.36c0.055,0.011,0.11,0.018,0.169,0.018c0.057,0,0.113-0.007,0.166-0.018h3.242
		c0.056,0.011,0.111,0.018,0.169,0.018c0.057,0,0.113-0.007,0.168-0.018H82.71c0.056,0.011,0.111,0.018,0.17,0.018
		c0.057,0,0.112-0.007,0.167-0.018h3.243c0.053,0.011,0.108,0.018,0.167,0.018c0.057,0,0.114-0.007,0.168-0.018h21.716v0.443
		c0,0.434,0.352,0.785,0.785,0.785h8.262c0.434,0,0.786-0.352,0.786-0.785v-0.443h10.883v0.443c0,0.434,0.352,0.785,0.786,0.785
		h8.262c0.435,0,0.785-0.352,0.785-0.785v-0.443h2.035c-0.085,0.125-0.135,0.275-0.135,0.439v2.469c0,0.434,0.352,0.785,0.786,0.785
		h8.262c0.269,0,0.506-0.135,0.647-0.342c0.141,0.207,0.379,0.342,0.648,0.342h8.261c0.435,0,0.786-0.352,0.786-0.785v-2.469
		c0-0.164-0.05-0.314-0.134-0.439h13.615c-0.085,0.125-0.134,0.275-0.134,0.439v2.469c0,0.434,0.352,0.785,0.784,0.785h8.263
		c0.435,0,0.786-0.352,0.786-0.785v-2.469c0-0.164-0.05-0.314-0.134-0.439h9.361c0.054,0.012,0.111,0.02,0.169,0.02
		c0.061,0,0.117-0.008,0.173-0.02h9.836c-0.084,0.125-0.134,0.275-0.134,0.439v2.469c0,0.434,0.352,0.785,0.785,0.785h8.264
		c0.433,0,0.784-0.352,0.784-0.785v-2.469c0-0.164-0.049-0.314-0.135-0.439h13.439c-0.086,0.125-0.136,0.275-0.136,0.439v2.469
		c0,0.434,0.353,0.785,0.785,0.785h8.263c0.202,0,0.384-0.078,0.524-0.203c0.139,0.125,0.322,0.203,0.522,0.203h8.263
		c0.435,0,0.787-0.352,0.787-0.785v-2.469c0-0.164-0.051-0.314-0.135-0.439h0.31v0.443c0,0.434,0.352,0.785,0.785,0.785h8.264
		c0.434,0,0.786-0.352,0.786-0.785v-0.443h10.881v0.443c0,0.434,0.354,0.785,0.788,0.785h8.261c0.435,0,0.786-0.352,0.786-0.785
		v-0.443h74.496c0.433,0,0.785-0.354,0.785-0.787v-41.697h1.188c0.435,0,0.786-0.352,0.786-0.785v-8.51
		c0-0.434-0.352-0.785-0.786-0.785h-2.177v-2.113c0-0.434-0.353-0.785-0.786-0.785h-0.997v-44.301h1.002
		c0.435,0,0.786-0.352,0.786-0.785v-2.42h0.718c0.435,0,0.785-0.353,0.785-0.786v-1.145h0.669c0.435,0,0.786-0.352,0.786-0.786
		v-1.15h4.002c0.433,0,0.786-0.352,0.786-0.785v-5.275h1.025c0.434,0,0.784-0.351,0.784-0.785v-2.159
		C359.357,204.088,359.007,203.737,358.573,203.737z M346.446,189.044v11.559h-4.919v-0.294c0-0.048-0.007-0.093-0.015-0.138
		c0-0.006,0.002-0.011,0.002-0.016v-11.111H346.446z M336.165,185.003h3.777v14.52l-3.777-0.004V185.003z M294.083,180.072
		c0.233,0,0.455-0.105,0.604-0.284c0.054-0.063,5.471-6.458,14.192-6.458c8.702,0,14.327,6.403,14.382,6.469
		c0.149,0.172,0.367,0.273,0.595,0.273h10.725v4.146c0,0.047,0.007,0.092,0.014,0.137v15.162l-5.539-0.005
		c-1.154-1.203-6.164-5.639-17.226-5.639c-11.152,0-16.653,4.502-17.864,5.639l-10.597,0.002v-15.206
		c0-0.031-0.005-0.062-0.01-0.092v-4.145h2.186c0.002,0,0.003,0,0.004,0c0.002,0,0.003,0,0.004,0H294.083z M351.188,213.892h-26.116
		c-0.959-1.273-4.086-4.086-13.04-4.086s-12.083,2.812-13.04,4.086h-26.221v-4.488h23.784c0.217,0,0.426-0.092,0.574-0.248
		c0.044-0.048,4.562-4.71,14.851-4.71c10.247,0,14.191,4.623,14.229,4.667c0.148,0.184,0.373,0.291,0.609,0.291h24.369V213.892z
		 M349.733,215.822h-0.386c-0.057,0-0.112,0.007-0.165,0.019c-0.054-0.012-0.109-0.019-0.167-0.019h-8.262
		c-0.01,0-0.02,0.002-0.029,0.004h-13.073c-0.016,0-0.032,0.004-0.05,0.004c-0.017,0-0.032-0.004-0.048-0.004h-2.049v-0.332h24.229
		V215.822z M341.757,265.685v2.113h-7.516v-6.367c0-0.434-0.352-0.786-0.786-0.786h-5.116v-43.249h11.629v2.418
		c0,0.434,0.353,0.785,0.786,0.785h1.003V265.685z M282.265,267.798v-47.199h1.002c0.435,0,0.788-0.352,0.788-0.785v-2.418h11.615
		v43.249h-4.92c-0.434,0-0.787,0.353-0.787,0.786v6.367H282.265z M277.579,267.798v-6.367v-40.832h3.113v47.199H277.579z
		 M351.188,273.716H244.779v-2.375h106.408V273.716z M241.419,320.016h-3.115v-42.199h3.115V320.016z M34.743,271.341h105.991v2.375
		H34.743V271.341z M105.23,267.798v-47.199h3.114v40.832v6.367H105.23z M95.96,267.798v-6.367c0-0.434-0.352-0.786-0.786-0.786
		h-4.92v-43.249h11.617v2.418c0,0.434,0.352,0.785,0.785,0.785h1.003v47.199H95.96z M44.168,267.798v-2.113v-45.086h1.002
		c0.434,0,0.786-0.352,0.786-0.785v-2.418h11.63v13.235c-0.012,0.052-0.018,0.106-0.018,0.161c0,0.056,0.006,0.109,0.018,0.162
		v1.484c-0.012,0.053-0.018,0.105-0.018,0.161s0.006,0.109,0.018,0.161v27.884h-5.118c-0.435,0-0.786,0.353-0.786,0.786v6.367
		H44.168z M36.908,215.822c-0.057,0-0.113,0.007-0.165,0.019c-0.054-0.012-0.108-0.019-0.166-0.019H36.19v-0.328H60.42v0.332h-2.049
		c-0.018,0-0.032,0.004-0.049,0.004c-0.018,0-0.033-0.004-0.049-0.004H45.202c-0.012-0.002-0.021-0.004-0.032-0.004H36.908z
		 M34.735,209.404h24.371c0.235,0,0.46-0.107,0.609-0.291c0.037-0.046,3.912-4.667,14.229-4.667c10.289,0,14.807,4.662,14.85,4.707
		c0.147,0.159,0.356,0.251,0.575,0.251h23.785v4.488H86.934c-0.958-1.273-4.085-4.086-13.04-4.086s-12.083,2.812-13.041,4.086
		H34.735V209.404z M40.688,204.446h5.519v3.386h-5.519V204.446z M102.851,204.159h5.521v2.328c-0.016,0.063-0.027,0.128-0.027,0.194
		c0,0.068,0.012,0.133,0.027,0.195v0.955h-5.521V204.159z M242.038,209.758v47.62h-13.413v-38.382h1.001
		c0.434,0,0.787-0.353,0.787-0.786v-3.207c0-0.434-0.354-0.785-0.787-0.785h-0.978v-9.346c0-19.807-16.116-35.921-35.924-35.921
		s-35.922,16.114-35.922,35.921v9.346h-0.454c-0.434,0-0.785,0.352-0.785,0.785v3.207c0,0.434,0.352,0.786,0.785,0.786h1.003v38.382
		h-13.938v-44.39c0.026-0.079,0.043-0.16,0.043-0.247c0-0.088-0.017-0.169-0.043-0.246v-2.737c0-27.19,22.121-49.312,49.312-49.312
		C219.916,160.447,242.038,182.568,242.038,209.758z M271.983,215.463h1.064v1.145c0,0.434,0.353,0.786,0.786,0.786h0.386v2.42
		c0,0.434,0.352,0.785,0.786,0.785h1.003v9.407h-32.399v-16.479h27.589v1.15C271.198,215.112,271.551,215.463,271.983,215.463z
		 M324.72,217.396h2.047v12.61h-29.524v-12.61h2.1c0.434,0,0.785-0.352,0.785-0.785v-1.479c0.057-0.086,0.096-0.184,0.112-0.288
		c0.647-0.863,3.303-3.465,11.792-3.465c9.141,0,11.519,3.018,11.901,3.622v1.61C323.933,217.044,324.285,217.396,324.72,217.396z
		 M308.306,260.645v-6.999h2.744v6.999H308.306z M315.366,236.629v2.539h-2.745v-2.539H315.366z M315.366,248.129h-2.745v-7.39
		h2.745V248.129z M311.05,248.129h-2.744v-7.39h2.744V248.129z M308.306,249.702h2.744v2.374h-2.744V249.702z M312.621,249.702
		h2.745v2.374h-2.745V249.702z M311.05,239.168h-2.744v-2.539h2.744V239.168z M312.621,253.646h2.745v6.999h-2.745V253.646z
		 M316.938,235.843c0-0.434-0.353-0.785-0.787-0.785h-8.633c-0.433,0-0.785,0.352-0.785,0.785v24.802h-9.491v-27.259h29.524v27.259
		h-9.828V235.843z M283.298,215.826c-0.01-0.002-0.021-0.004-0.031-0.004h-8.261h-0.386v-0.328h23.938v0.332h-2.003h-0.098H283.298z
		 M281.479,219.027h-4.687h-1.001v-1.633h6.689v1.633H281.479z M243.609,231.578h32.399v0.236h-32.399V231.578z M326.767,231.814
		h-29.524v-0.236h29.524V231.814z M243.609,233.386h32.399v27.259h-11.372v-24.802c0-0.434-0.351-0.785-0.785-0.785h-8.632
		c-0.434,0-0.785,0.352-0.785,0.785v24.802h-9.655v-2.481c0-0.434-0.353-0.785-0.787-0.785h-0.383V233.386z M256.004,260.645v-6.999
		h2.745v6.999H256.004z M263.065,236.629v2.539h-2.745v-2.539H263.065z M263.065,248.129h-2.745v-7.39h2.745V248.129z
		 M258.749,248.129h-2.745v-7.39h2.745V248.129z M256.004,249.702h2.745v2.374h-2.745V249.702z M260.32,249.702h2.745v2.374h-2.745
		V249.702z M258.749,239.168h-2.745v-2.539h2.745V239.168z M260.32,253.646h2.745v6.999h-2.745V253.646z M227.424,303.38h-16.746
		v-25.563h1.004c0.433,0,0.784-0.353,0.784-0.786v-2.439h13.169v2.439c0,0.434,0.353,0.786,0.785,0.786h1.004V303.38z
		 M204.421,285.093c-1.738-2.07-5.285-4.908-11.692-4.908c-6.108,0-9.456,2.61-11.155,4.686v-7.054h1.002
		c0.435,0,0.786-0.353,0.786-0.786v-2.439h19.271v2.439c0,0.434,0.352,0.786,0.785,0.786h1.003V285.093z M175.315,303.38h-16.923
		v-25.563h1.002c0.435,0,0.786-0.353,0.786-0.786v-2.439h13.348v2.439c0,0.434,0.352,0.786,0.784,0.786h1.003V303.38z
		 M152.134,318.791h-3.299v-40.974h1.003c0.269,0,0.506-0.136,0.647-0.343c0.141,0.207,0.379,0.343,0.648,0.343h1V318.791z
		 M122.858,260.645v-6.999h2.744v6.999H122.858z M129.919,236.629v2.539h-2.744v-2.539H129.919z M129.919,248.129h-2.744v-7.39
		h2.744V248.129z M125.603,248.129h-2.744v-7.39h2.744V248.129z M122.858,249.702h2.744v2.374h-2.744V249.702z M127.175,249.702
		h2.744v2.374h-2.744V249.702z M125.603,239.168h-2.744v-2.539h2.744V239.168z M127.175,253.646h2.744v6.999h-2.744V253.646z
		 M131.489,235.843c0-0.434-0.351-0.785-0.784-0.785h-8.633c-0.435,0-0.786,0.352-0.786,0.785v24.802h-11.369v-27.259h31.925v23.992
		h-0.32c-0.435,0-0.787,0.352-0.787,0.785v2.481h-9.245V235.843z M103.443,219.027v-1.633h6.69v1.633h-1.003h-4.687H103.443z
		 M70.558,260.645v-6.999h2.745v6.999H70.558z M77.619,236.629v2.539h-2.744v-2.539H77.619z M77.619,248.129h-2.744v-7.39h2.744
		V248.129z M73.303,248.129h-2.745v-7.39h2.745V248.129z M70.558,249.702h2.745v2.374h-2.745V249.702z M74.875,249.702h2.744v2.374
		h-2.744V249.702z M73.303,239.168h-2.745v-2.539h2.745V239.168z M74.875,253.646h2.744v6.999h-2.744V253.646z M79.19,235.843
		c0-0.434-0.353-0.785-0.786-0.785h-8.632c-0.434,0-0.786,0.352-0.786,0.785v24.802h-9.829v-27.259h29.525v27.259H79.19V235.843z
		 M61.991,216.611v-1.612c0.383-0.608,2.752-3.62,11.902-3.62c8.505,0,11.153,2.611,11.791,3.461
		c0.018,0.106,0.057,0.205,0.111,0.292v1.479c0,0.434,0.352,0.785,0.786,0.785h2.101v12.61H59.157v-12.61h2.048
		C61.64,217.396,61.991,217.044,61.991,216.611z M59.157,231.578h29.525v0.236H59.157V231.578z M89.469,215.826H89.37h-2.002v-0.332
		h23.938v0.328h-0.388h-8.262c-0.01,0-0.02,0.002-0.029,0.004H89.469z M110.918,220.599c0.435,0,0.787-0.352,0.787-0.785v-2.42
		h0.385c0.435,0,0.786-0.353,0.786-0.786v-1.145h1.064c0.433,0,0.785-0.352,0.785-0.786v-1.15h27.116v16.479h-31.925v-9.407H110.918
		z M227.053,257.378h-3.114v-38.382h3.114V257.378z M219.222,257.378v-38.382h1.003c0.225,0,0.427-0.097,0.57-0.249
		c0.142,0.152,0.345,0.249,0.57,0.249h1.001v38.382H219.222z M173.011,257.378v-25.023h39.953v25.023H173.011z M163.609,257.378
		v-38.382h1.001c0.225,0,0.428-0.097,0.57-0.248c0.144,0.151,0.344,0.248,0.57,0.248h1.002v38.382H163.609z M163.996,212.972
		l0.002-0.002c0-0.001-0.002-0.002-0.002-0.002v-6.598c0-16.026,13.156-29.566,28.728-29.566c15.573,0,28.73,13.54,28.73,29.566
		v7.848h-0.089c-0.226,0-0.429,0.096-0.57,0.248c-0.144-0.152-0.346-0.248-0.57-0.248h-1.226v-1.096
		c0.008-0.049,0.015-0.1,0.015-0.152s-0.007-0.104-0.015-0.152v-4.236c0-14.486-11.787-26.271-26.274-26.271
		c-14.486,0-26.272,11.785-26.272,26.271v5.637h-0.701c-0.227,0-0.427,0.096-0.57,0.248c-0.143-0.152-0.346-0.248-0.57-0.248h-0.614
		V212.972z M218.438,217.425h-4.688h-1.003v-1.635h6.69v1.635H218.438z M166.537,217.425v-1.635h6.689v1.635h-1.002h-4.687H166.537z
		 M214.61,214.218v-0.462h2.816v0.462H214.61z M211.176,215.003v0.055h-36.378v-0.055c0-0.062-0.008-0.123-0.021-0.182H211.2
		C211.186,214.88,211.176,214.941,211.176,215.003z M213.038,213.25h-40.626v-3.893c0-11.199,9.112-20.312,20.312-20.312
		c11.201,0,20.314,9.113,20.314,20.312V213.25z M217.427,212.185h-2.816v-2.828c0-12.066-9.819-21.883-21.887-21.883
		c-12.066,0-21.883,9.816-21.883,21.883v2.828h-2.816v-3.604c0-13.621,11.08-24.7,24.7-24.7s24.702,11.079,24.702,24.7V212.185z
		 M168.024,213.756h2.816v0.462h-2.816V213.756z M173.011,230.546h39.953v0.237h-39.953V230.546z M212.964,228.976h-39.953v-9.979
		h1.003c0.11,0,0.216-0.024,0.311-0.065v8.249c0,0.434,0.352,0.786,0.787,0.786h2.959c0.435,0,0.785-0.353,0.785-0.786v-0.529h1.387
		v0.529c0,0.434,0.354,0.786,0.788,0.786h2.958c0.435,0,0.786-0.353,0.786-0.786v-9.167c0-0.434-0.352-0.786-0.786-0.786h-2.958
		h-2.96h-2.959c-0.112,0-0.217,0.024-0.313,0.065v-0.662h36.378v0.635c-0.073-0.021-0.149-0.038-0.23-0.038h-2.96h-2.959h-2.959
		c-0.434,0-0.786,0.353-0.786,0.786v9.167c0,0.434,0.353,0.786,0.786,0.786h2.959c0.433,0,0.786-0.353,0.786-0.786v-0.529h1.388
		v0.529c0,0.434,0.351,0.786,0.785,0.786h2.96c0.434,0,0.786-0.353,0.786-0.786v-8.222c0.073,0.021,0.148,0.038,0.23,0.038h1.002
		V228.976z M181.814,225.865v-7.066h1.389v7.596h-1.389V225.865z M180.242,225.08h-1.387v-6.281h1.387V225.08z M177.283,225.865
		v0.529h-1.387v-7.596h1.387V225.865z M204.241,225.865v0.529h-1.388v-7.596h1.388V225.865z M205.812,218.798h1.388v6.281h-1.388
		V218.798z M208.771,225.865v-7.066h1.388v7.596h-1.388V225.865z M168.325,218.997h3.113v38.382h-3.113V218.997z M214.535,218.997
		h3.115v38.382h-3.115V218.997z M227.838,217.425h-4.687h-1v-1.635h6.689v1.635H227.838z M223.026,214.218v-0.462h4.051v0.462
		H223.026z M227.077,212.185h-4.051v-5.814c0-16.879-13.878-31.138-30.303-31.138c-16.424,0-30.299,14.259-30.299,31.138v5.814
		h-4.051v-7.312c0-18.94,15.409-34.35,34.351-34.35s34.353,15.409,34.353,34.35V212.185z M158.374,213.756h4.051v0.462h-4.051
		V213.756z M157.135,215.791h6.689v1.635h-1.002h-4.686h-1.002V215.791z M158.923,218.997h3.114v38.382h-3.114V218.997z
		 M158.137,258.95h4.686h4.716h4.687h41.525h4.688h4.714h4.687h15.368v2.481v7.152v4.437H142.307v-4.431c0-0.002,0-0.004,0-0.006
		s0-0.003,0-0.005v-7.143c0-0.001,0-0.003,0-0.005s0-0.004,0-0.006v-2.476H158.137z M109.917,231.578h31.925v0.236h-31.925V231.578z
		 M151.919,276.245v-1.634h6.69v1.634h-1.003h-4.687H151.919z M175.101,276.245v-1.634h6.688v1.634h-1.001h-4.688H175.101z
		 M204.203,276.245v-1.634h6.691v1.634h-1.003h-4.686H204.203z M227.206,276.245v-1.634h6.69v1.634h-1.002h-4.686H227.206z
		 M236.733,318.791h-3.054v-40.974h1.003c0.202,0,0.384-0.079,0.524-0.204c0.139,0.125,0.322,0.204,0.522,0.204h1.004V318.791z
		 M141.842,209.758v2.198h-27.116v-3.34c0-0.434-0.353-0.785-0.785-0.785h-3.998v-0.365h31.953
		C141.861,208.228,141.842,208.99,141.842,209.758z M101.279,207.832h-11.59c-1.13-1.051-5.993-4.957-15.744-4.957
		c-9.665,0-14.104,3.846-15.186,4.957H47.78v-4.171v-0.407h11.326c0.235,0,0.46-0.107,0.609-0.291
		c0.037-0.046,3.912-4.666,14.229-4.666c10.289,0,14.807,4.66,14.85,4.706c0.147,0.159,0.356,0.251,0.575,0.251h11.909V207.832z
		 M53.254,262.216h5.117h11.401h8.632h11.064h4.92v5.582H53.254V262.216z M109.917,262.216h12.155h8.633h10.029v5.582h-30.817
		V262.216z M142.362,274.611h6.689v1.634h-1.001h-4.687h-1.002V274.611z M144.149,277.817h3.114v42.199h-3.114V277.817z
		 M153.706,277.817h3.114v42.199h-3.114V277.817z M158.393,318.791v-13.839h16.923v13.839H158.393z M176.888,277.817h3.113v42.199
		h-3.113V277.817z M181.573,318.791v-30.994c0.357-0.838,2.773-5.719,10.4-6.023v37.018H181.573z M193.545,281.775
		c8.167,0.345,10.726,5.834,10.835,6.075c0.012,0.025,0.027,0.048,0.041,0.071v30.869h-10.876V281.775z M205.992,277.817h3.115
		v42.199h-3.115V277.817z M210.678,318.791v-13.839h16.746v13.839H210.678z M228.995,319.739c0.012-0.052,0.018-0.106,0.018-0.163
		c0-0.055-0.006-0.11-0.018-0.163v-41.596h3.112v42.199h-3.112V319.739z M242.204,276.245h-4.687h-1.001v-1.634h6.689v1.634H242.204
		z M244.779,262.216h10.44h8.632h12.157v5.582h-31.229V262.216z M291.535,262.216h4.922h11.062h8.633h11.402h5.116v5.582h-41.135
		V262.216z M345.235,207.832h-5.52v-3.386h5.52V207.832z M338.144,203.661v4.171h-10.979c-1.081-1.111-5.521-4.957-15.186-4.957
		c-9.752,0-14.615,3.906-15.746,4.957h-11.588v-4.578h11.909c0.217,0,0.426-0.092,0.574-0.249c0.044-0.048,4.562-4.708,14.851-4.708
		c10.247,0,14.191,4.623,14.229,4.666c0.148,0.184,0.373,0.291,0.609,0.291h11.325V203.661z M283.075,207.832h-5.522v-0.957
		c0.016-0.062,0.026-0.126,0.026-0.193c0-0.066-0.011-0.131-0.026-0.192v-2.33h5.522V207.832z M275.981,207.832h-3.998
		c-0.433,0-0.785,0.352-0.785,0.785v3.34h-27.589v-2.198c0-0.769-0.02-1.53-0.054-2.292h32.426V207.832z M192.725,158.875
		c-24.552,0-45.099,17.479-49.849,40.647l-33.388-0.007v-10.472h15.941h7.323h8.232c0.316,0,0.603-0.189,0.726-0.481
		c1.67-3.981,3.783-7.683,6.262-11.069c0.128-0.093,0.226-0.223,0.279-0.375c10.233-13.734,26.597-22.117,44.506-22.117h0.41
		c22.456,0,42.493,13.174,51.047,33.562c0.122,0.292,0.407,0.481,0.725,0.481h8.109h7.321h16.081v10.472l-33.876,0.007
		C237.825,176.355,217.278,158.875,192.725,158.875z M104.142,185.003h3.775v14.512h-3.775V185.003z M135.805,183.925v-14.188
		c0-2.148,1.556-3.938,3.599-4.309v18.496H135.805z M140.976,165.429c2.042,0.371,3.597,2.16,3.597,4.309v9.957
		c-0.864,1.367-1.675,2.777-2.425,4.23h-1.172V165.429z M148.3,149.655h1.518v23.034c-0.518,0.59-1.023,1.189-1.518,1.801V149.655z
		 M188.657,122.695c-1.652,3.045-5.463,11.598-5.327,25.388h-1.393c-0.434,0-0.785,0.353-0.785,0.786v2.667h-6.229
		c-0.234-3.847-0.805-22.231,9.051-28.3C185.521,122.996,187.081,122.814,188.657,122.695z M212.124,125.68
		c18.615,8.651,22.1,22.212,22.345,23.273v2.582h-4.875c-0.596-1.137-1.45-2.113-2.482-2.861
		c-3.173-12.996-10.778-19.966-16.696-23.548C210.989,125.301,211.558,125.488,212.124,125.68z M237.557,174.409
		c-0.493-0.61-0.999-1.208-1.517-1.794v-22.96h1.517V174.409z M171.53,153.108h9.622v1.493c-3.196,0.65-6.308,1.562-9.302,2.722
		v-1.96C171.851,154.58,171.733,153.825,171.53,153.108z M182.723,149.655h1.519v4.363c0,0.011,0.004,0.022,0.004,0.032
		c-0.511,0.076-1.016,0.164-1.522,0.252V149.655z M185.813,153.108h14.23v0.733c-2.261-0.269-4.555-0.413-6.876-0.413h-0.41
		c-2.345,0-4.662,0.148-6.944,0.421V153.108z M201.616,154.018v-4.363h1.518v4.636c-0.506-0.087-1.011-0.175-1.52-0.25
		C201.614,154.033,201.616,154.027,201.616,154.018z M204.705,153.108h9.623c-0.204,0.717-0.321,1.472-0.321,2.255v1.934
		c-2.995-1.156-6.104-2.062-9.302-2.708V153.108z M212.362,139.87c-0.925-6.601-2.99-11.754-6.052-15.183
		c1.628,0.74,3.605,1.807,5.676,3.308c4.503,3.265,10.336,9.291,13.229,19.653c-0.914-0.352-1.904-0.552-2.942-0.552
		c-3.176,0-5.938,1.804-7.32,4.439h-2.145C212.924,149.681,213.09,145.07,212.362,139.87z M215.578,155.363
		c0-3.691,3.004-6.695,6.695-6.695c3.692,0,6.694,3.004,6.694,6.695v10.517c-4.061-3.242-8.562-5.925-13.39-7.954V155.363z
		 M230.22,153.108h4.249v17.796c-1.251-1.305-2.562-2.547-3.929-3.722v-11.819C230.54,154.58,230.424,153.825,230.22,153.108z
		 M202.184,123.238c9.854,6.069,9.281,24.452,9.047,28.298h-6.525v-2.667c0-0.434-0.353-0.786-0.786-0.786h-1.059
		c0.137-13.784-3.672-22.337-5.323-25.383C199.099,122.818,200.648,122.998,202.184,123.238z M195.659,122.589
		c0.955,1.58,5.78,10.342,5.63,25.493h-0.459c-0.434,0-0.786,0.353-0.786,0.786v2.667h-14.23v-2.667
		c0-0.434-0.353-0.786-0.786-0.786h-0.126c-0.148-15.122,4.681-23.916,5.631-25.496c0.846-0.036,1.692-0.062,2.541-0.062
		C193.938,122.525,194.8,122.552,195.659,122.589z M173.792,139.87c-0.729,5.2-0.562,9.812-0.447,11.666h-2.44
		c-1.384-2.636-4.144-4.439-7.321-4.439c-0.97,0-1.898,0.177-2.765,0.485c3.952-14.199,13.535-20.432,19.047-22.916
		C176.792,128.093,174.719,133.255,173.792,139.87z M159.954,149.746c0.056-0.025,0.108-0.059,0.157-0.096
		c1.014-0.619,2.201-0.982,3.472-0.982c3.693,0,6.695,3.004,6.695,6.695v2.592c-4.827,2.037-9.33,4.727-13.391,7.979v-10.57
		C156.888,153.009,158.112,150.939,159.954,149.746z M155.316,155.363v11.876c-1.367,1.179-2.677,2.426-3.927,3.733v-17.864h4.249
		C155.434,153.825,155.316,154.58,155.316,155.363z M250.052,169.738v14.188h-3.598v-18.496
		C248.498,165.8,250.052,167.589,250.052,169.738z M244.883,183.925h-1.106c-0.768-1.49-1.602-2.934-2.491-4.333v-9.854
		c0-2.148,1.555-3.938,3.598-4.309V183.925z M278.021,185.003h3.775v14.512h-3.775V185.003z M283.737,178.5h-1.164
		c-0.434,0-0.785,0.352-0.785,0.785v4.147h-4.607c-0.434,0-0.786,0.352-0.786,0.786v3.256h-15.239v-18.24
		C273.222,169.471,280.931,175.744,283.737,178.5z M253.834,147.517h5.751v39.957h-5.751V147.517z M252.263,153.103v34.371h-6.804
		c-0.287-0.668-0.588-1.325-0.899-1.977h6.278c0.433,0,0.786-0.353,0.786-0.787v-14.973c0-3.283-2.673-5.956-5.957-5.956
		c-3.282,0-5.954,2.673-5.954,5.956v7.516c-0.193-0.273-0.387-0.549-0.585-0.818v-23.327h13.086
		C252.23,153.108,252.246,153.104,252.263,153.103z M243.847,151.536h-4.719v-2.667c0-0.434-0.352-0.786-0.785-0.786h-2.471
		c-0.584-2.185-3.088-9.542-11.527-16.604C232.264,136.421,239.001,143.249,243.847,151.536z M191.472,104.954
		c0-0.468,0.381-0.849,0.85-0.849h0.853c0.435,0,0.786-0.352,0.786-0.786c0-0.435-0.352-0.786-0.786-0.786
		c-0.473,0-0.856-0.386-0.856-0.858c0-0.474,0.384-0.858,0.856-0.858h0.177c0.385,0,0.712-0.278,0.775-0.657
		c0.063-0.379-0.158-0.749-0.523-0.873c-1.594-0.542-3.52-2.241-3.72-5.248c0.058,0.015,0.14,0.045,0.249,0.101
		c0.856,0.432,1.585,0.942,2.165,1.519c0.206,0.203,0.509,0.278,0.785,0.192c0.276-0.085,0.484-0.317,0.54-0.602
		c0.098-0.51,0.402-0.895,0.711-0.895s0.614,0.385,0.713,0.896c0.057,0.285,0.264,0.516,0.541,0.602
		c0.277,0.085,0.578,0.011,0.783-0.195c0.58-0.574,1.307-1.085,2.164-1.517c0.109-0.056,0.191-0.085,0.248-0.101
		c-0.201,3.007-2.126,4.706-3.721,5.248c-0.364,0.124-0.584,0.493-0.521,0.873c0.062,0.379,0.39,0.657,0.774,0.657h0.178
		c0.474,0,0.858,0.385,0.858,0.858c0,0.473-0.385,0.858-0.858,0.858c-0.434,0-0.786,0.351-0.786,0.786
		c0,0.434,0.353,0.786,0.786,0.786h0.854c0.467,0,0.848,0.381,0.848,0.849c0,0.467-0.378,0.846-0.843,0.849h-4.037
		C191.852,105.799,191.472,105.421,191.472,104.954z M186.575,107.375h5.739c0.003,0,0.006,0,0.007,0h4.025c0,0,0.004,0,0.005,0
		h5.236v14.184c-2.797-0.396-5.641-0.604-8.515-0.604c-2.186,0-4.354,0.122-6.498,0.353V107.375z M158.952,148.519
		c-1.127,0.766-2.053,1.804-2.688,3.017h-4.874v-2.42c0.011-0.032,0.029-0.061,0.036-0.097c0.029-0.142,2.952-14.003,21.648-23.003
		c0.811-0.29,1.624-0.569,2.448-0.825C169.607,128.771,162.103,135.685,158.952,148.519z M160.84,132.099
		c-7.857,6.868-10.234,13.861-10.803,15.983h-2.522c-0.435,0-0.786,0.353-0.786,0.786v2.667h-4.423
		C146.95,143.588,153.34,136.988,160.84,132.099z M133.644,153.108h13.085v23.417c-0.199,0.271-0.391,0.549-0.584,0.824v-7.611
		c0-3.283-2.672-5.956-5.956-5.956s-5.954,2.673-5.954,5.956v14.973c0,0.435,0.352,0.787,0.785,0.787h6.345
		c-0.311,0.651-0.611,1.309-0.897,1.977h-6.93v-34.378C133.572,153.101,133.607,153.108,133.644,153.108z M126.216,147.517h5.75
		v39.957h-5.75V147.517z M124.645,169.235v18.239h-15.116v-3.256c0-0.435-0.352-0.786-0.785-0.786h-4.608v-4.147
		c0-0.434-0.353-0.785-0.786-0.785h-1.134C104.988,175.75,112.611,169.491,124.645,169.235z M51.344,180.072h10.722
		c0.23,0,0.447-0.102,0.596-0.275c0.057-0.064,5.655-6.467,14.383-6.467c8.695,0,14.139,6.395,14.193,6.459
		c0.149,0.178,0.37,0.283,0.604,0.283h8.572h0.003c0.001,0,0.004,0,0.005,0h2.143v4.146c0,0.02,0.004,0.039,0.006,0.059v15.237
		l-10.612-0.002c-1.216-1.128-6.767-5.639-17.862-5.639c-11.062,0-16.071,4.436-17.227,5.639l-5.525,0.005v-15.292
		c0-0.001,0.001-0.005,0.001-0.007V180.072z M45.996,185.003h3.775v14.516l-3.775,0.004V185.003z M44.425,189.044v11.021
		c0,0.011,0.003,0.021,0.003,0.034c-0.018,0.067-0.03,0.136-0.03,0.209v0.294h-4.919v-11.559H44.425z M28.186,205.308h9.839
		c0.435,0,0.785-0.352,0.785-0.786v-2.349h6.373c0.434,0,0.786-0.351,0.786-0.785v-0.295l11.249-0.01
		c0.234,0,0.458-0.107,0.607-0.287c0.012-0.014,1.133-1.351,3.679-2.67c2.359-1.224,6.458-2.682,12.591-2.682
		c11.741,0,16.762,5.172,16.97,5.393c0.149,0.156,0.356,0.246,0.572,0.246l50.945,0.01c-0.272,1.578-0.473,3.18-0.596,4.803h-32.044
		v-2.523c0-0.434-0.351-0.785-0.783-0.785h-6.309v-0.121c0-0.434-0.352-0.785-0.785-0.785H89.689
		c-1.13-1.051-5.993-4.957-15.744-4.957c-9.665,0-14.104,3.846-15.186,4.957H46.994c-0.434,0-0.787,0.352-0.787,0.785v0.408h-6.304
		c-0.434,0-0.785,0.352-0.785,0.786v2.235h-9.906h-1.026V205.308z M29.997,211.957v-4.49h9.121v0.365h-5.167
		c-0.435,0-0.786,0.352-0.786,0.785v3.34H29.997z M37.694,217.394h6.691v1.633h-1.004h-4.685h-1.003V217.394z M39.482,220.599h3.114
		V264.9h-3.114V220.599z M37.699,266.471h0.998h3.899v1.327h-4.897V266.471z M36.913,269.37h6.469h9.086h42.706h13.957h31.604v0.4
		H34.743v-0.4H36.913z M34.743,275.289H140.79v1.019H36.23c-0.094-0.04-0.198-0.062-0.307-0.062c-0.109,0-0.212,0.022-0.307,0.062
		h-0.874V275.289z M135.531,317.552h-3.114v-36.41h3.114V317.552z M130.629,279.548v-1.635h6.689v1.635H130.629z M129.843,281.121
		h1.003v28.582h-14.458v-28.582h1c0.434,0,0.786-0.353,0.786-0.787v-2.455h10.883v2.455
		C129.057,280.768,129.408,281.121,129.843,281.121z M109.912,277.914h6.69v1.635h-6.69V277.914z M111.7,281.142h3.115v36.41H111.7
		V281.142z M108.341,277.878v2.455c0,0.435,0.352,0.787,0.785,0.787h1.003v28.582H87.243v-15.1c0-8.959-7.29-16.248-16.251-16.248
		c-8.96,0-16.25,7.289-16.25,16.248v15.1H36.71v-31.824H108.341z M82.093,318.791H59.892v-24.138c0-6.12,4.979-11.101,11.101-11.101
		c6.12,0,11.101,4.98,11.101,11.101V318.791z M70.992,281.981c-6.988,0-12.673,5.685-12.673,12.672v24.138h-2.004v-24.188
		c0-8.092,6.583-14.677,14.677-14.677s14.679,6.585,14.679,14.677v24.188h-2.007v-24.138
		C83.664,287.666,77.979,281.981,70.992,281.981z M36.71,311.275h18.032v7.516H36.71V311.275z M87.243,318.791v-7.516h22.886v6.277
		h-1.003c-0.434,0-0.785,0.352-0.785,0.785v0.453H87.243z M116.603,320.02h-6.69v-0.266c0.013-0.058,0.021-0.116,0.021-0.179
		c0-0.061-0.009-0.12-0.021-0.178v-0.275h1.002h4.687h1.002V320.02z M118.174,318.791v-0.453c0-0.434-0.353-0.785-0.786-0.785h-1
		v-6.277h14.458v6.277h-1.003c-0.435,0-0.786,0.352-0.786,0.785v0.453H118.174z M137.318,320.02h-6.689v-0.897h1.001h4.687h1.002
		V320.02z M138.104,317.552h-1.001v-36.432h1.001c0.435,0,0.785-0.353,0.785-0.787v-2.455h2.628c0.108,0,0.212-0.021,0.306-0.062
		h0.756v42.199h-0.656c0.086-0.126,0.135-0.277,0.135-0.44c0-0.434-0.352-0.785-0.786-0.785h-2.382v-0.453
		C138.89,317.904,138.539,317.552,138.104,317.552z M149.052,322.485h-6.689v-0.897h1.002h4.687h1.001V322.485z M158.609,322.485
		h-6.69v-0.897h1.001h4.687h1.003V322.485z M181.789,322.485h-6.688v-0.897h1h4.688h1.001V322.485z M210.895,322.485h-6.691v-0.897
		h1.003h4.686h1.003V322.485z M233.896,322.485h-6.69v-0.897h1.003h4.686h1.002V322.485z M243.206,322.485h-6.689v-0.897h1.001
		h4.687h1.002V322.485z M242.991,318.791v-40.974h0.694c0.096,0.04,0.198,0.062,0.307,0.062h0.962v2.365
		c0,0.435,0.352,0.786,0.785,0.786h1.003v36.522h-1.003c-0.434,0-0.785,0.352-0.785,0.785v0.453H242.991z M265.67,277.878v2.365
		c0,0.435,0.354,0.786,0.788,0.786h1v28.673h-14.459V281.03h1.004c0.434,0,0.786-0.352,0.786-0.786v-2.365H265.67z M273.933,277.878
		v1.58h-1.002h-4.686h-1.003v-1.58H273.933z M272.145,317.552h-3.114V281.03h3.114V317.552z M248.313,281.03h3.113v29.187
		c-0.029,0.086-0.05,0.177-0.05,0.271c0,0.097,0.021,0.188,0.05,0.272v6.792h-3.113V281.03z M253.217,277.878v1.58h-1.003h-4.688h-1
		v-1.58H253.217z M246.526,319.123h1h4.688h0.812c-0.09,0.129-0.145,0.285-0.145,0.453c0,0.165,0.051,0.318,0.138,0.444h-6.493
		V319.123z M254.789,318.791v-0.453c0-0.434-0.353-0.785-0.786-0.785h-1.004v-6.277h14.459v6.277h-1
		c-0.435,0-0.788,0.352-0.788,0.785v0.453H254.789z M273.933,320.02h-6.69v-0.897h1.003h4.686h1.002V320.02z M274.719,317.552
		h-1.003v-6.277h24.967v7.516h-23.178v-0.453C275.505,317.904,275.153,317.552,274.719,317.552z M329.609,318.791h-2.005v-24.138
		c0-6.987-5.686-12.672-12.673-12.672s-12.673,5.685-12.673,12.672v24.138h-2.005v-24.188c0-8.092,6.586-14.677,14.678-14.677
		c8.094,0,14.678,6.585,14.678,14.677V318.791z M326.033,318.791h-22.202v-24.138c0-6.12,4.98-11.101,11.101-11.101
		c6.121,0,11.102,4.98,11.102,11.101V318.791z M331.182,318.791v-7.516h18.033v7.516H331.182z M349.215,309.703h-18.033v-15.1
		c0-8.959-7.29-16.248-16.25-16.248c-8.959,0-16.249,7.289-16.249,16.248v15.1h-24.967V281.03h1.003
		c0.435,0,0.786-0.352,0.786-0.786v-2.365h73.71V309.703z M350.306,276.307c-0.093-0.04-0.196-0.062-0.305-0.062
		c-0.109,0-0.212,0.022-0.307,0.062h-74.692c-0.089-0.034-0.183-0.056-0.283-0.056h-8.261c-0.101,0-0.196,0.021-0.284,0.056h-11.888
		c-0.088-0.034-0.182-0.056-0.283-0.056h-8.264c-0.099,0-0.193,0.021-0.281,0.056h-0.679v-1.019h106.408v1.019H350.306z
		 M351.188,269.77H244.779v-0.4h32.014h13.957h42.705h9.088h6.468h2.177V269.77z M348.225,267.798h-4.897v-1.327h3.9h0.997V267.798z
		 M346.441,264.9h-3.114v-44.301h3.114V264.9z M348.23,219.027h-1.003h-4.685h-1.003v-1.633h6.69V219.027z M355.976,211.957h-3.216
		v-3.34c0-0.434-0.352-0.785-0.786-0.785h-5.166v-0.365h9.168V211.957z M357.785,205.896h-1.023h-9.954v-2.235
		c0-0.435-0.353-0.786-0.786-0.786h-6.306v-0.408c0-0.434-0.354-0.785-0.786-0.785h-11.765c-1.081-1.111-5.521-4.957-15.186-4.957
		c-9.752,0-14.615,3.906-15.746,4.957H283.86c-0.434,0-0.785,0.352-0.785,0.785v0.121h-6.308c-0.435,0-0.786,0.352-0.786,0.785
		v2.523h-32.516c-0.125-1.623-0.324-3.225-0.596-4.802l51.417-0.011c0.218,0,0.425-0.09,0.573-0.248
		c0.014-0.014,1.301-1.363,4.021-2.693c2.513-1.23,6.8-2.697,12.949-2.697c6.131,0,10.23,1.458,12.591,2.682
		c2.546,1.319,3.668,2.656,3.677,2.667c0.148,0.185,0.373,0.29,0.608,0.29l11.249,0.01v0.295c0,0.435,0.352,0.785,0.785,0.785h6.374
		v2.349c0,0.435,0.352,0.786,0.786,0.786h9.885V205.896z"/>
	<path fill="#FC8C54" d="M121.95,228.882h2.959c0.435,0,0.785-0.352,0.785-0.785v-0.53h1.388v0.53c0,0.434,0.353,0.785,0.787,0.785
		h2.958c0.435,0,0.785-0.352,0.785-0.785v-9.167c0-0.435-0.351-0.786-0.785-0.786h-2.958h-2.96h-2.959
		c-0.435,0-0.786,0.352-0.786,0.786v9.167C121.164,228.531,121.516,228.882,121.95,228.882z M130.042,227.31h-1.389v-0.529v-7.065
		h1.389V227.31z M127.082,225.996h-1.388v-6.28h1.388V225.996z M122.735,219.715h1.388v7.065v0.529h-1.388V219.715z"/>
	<path fill="#FC8C54" d="M69.649,228.882h2.959c0.434,0,0.786-0.352,0.786-0.785v-0.53h1.388v0.53c0,0.434,0.352,0.785,0.785,0.785
		h2.96c0.435,0,0.786-0.352,0.786-0.785v-9.167c0-0.435-0.352-0.786-0.786-0.786h-2.96h-2.959h-2.959
		c-0.435,0-0.786,0.352-0.786,0.786v9.167C68.863,228.531,69.215,228.882,69.649,228.882z M77.741,227.31h-1.387v-0.529v-7.065
		h1.387V227.31z M74.782,225.996h-1.388v-6.28h1.388V225.996z M70.436,219.715h1.388v7.065v0.529h-1.388V219.715z"/>
	<path fill="#FC8C54" d="M194.983,297.845c-0.435,0-0.785,0.353-0.785,0.786v3.613c0,0.435,0.351,0.786,0.785,0.786
		s0.787-0.352,0.787-0.786v-3.613C195.771,298.198,195.418,297.845,194.983,297.845z"/>
	<path fill="#FC8C54" d="M190.587,297.845c-0.435,0-0.786,0.353-0.786,0.786v3.613c0,0.435,0.352,0.786,0.786,0.786
		c0.434,0,0.784-0.352,0.784-0.786v-3.613C191.371,298.198,191.021,297.845,190.587,297.845z"/>
	<path fill="#FC8C54" d="M156.951,269.308c0.415,0,0.751-0.337,0.751-0.753v-3.712l3.051,4c0.208,0.267,0.426,0.445,0.792,0.445
		h0.05c0.426,0,0.764-0.337,0.764-0.764v-5.514c0-0.416-0.338-0.754-0.754-0.754s-0.752,0.338-0.752,0.754v3.574l-2.94-3.861
		c-0.21-0.268-0.428-0.446-0.792-0.446h-0.158c-0.428,0-0.764,0.337-0.764,0.763v5.515
		C156.198,268.971,156.534,269.308,156.951,269.308z"/>
	<path fill="#FC8C54" d="M167.392,269.368c2.139,0,3.693-1.614,3.693-3.584v-0.021c0-1.971-1.534-3.564-3.673-3.564
		s-3.694,1.615-3.694,3.585v0.019C163.718,267.774,165.253,269.368,167.392,269.368z M165.312,265.763
		c0-1.188,0.852-2.158,2.079-2.158s2.1,0.99,2.1,2.179v0.019c0,1.189-0.852,2.16-2.079,2.16c-1.229,0-2.1-0.99-2.1-2.179V265.763z"
		/>
	<path fill="#FC8C54" d="M173.209,269.25h1.94c2.179,0,3.684-1.516,3.684-3.466v-0.021c0-1.949-1.505-3.445-3.684-3.445h-1.94
		c-0.427,0-0.763,0.337-0.763,0.763v5.405C172.446,268.913,172.782,269.25,173.209,269.25z M173.972,263.694h1.178
		c1.248,0,2.089,0.862,2.089,2.09v0.019c0,1.229-0.841,2.07-2.089,2.07h-1.178V263.694z"/>
	<path fill="#FC8C54" d="M180.956,269.25h3.892c0.377,0,0.684-0.298,0.684-0.674c0-0.377-0.307-0.684-0.684-0.684h-3.14v-1.455
		h2.645c0.376,0,0.683-0.297,0.683-0.674c0-0.376-0.307-0.683-0.683-0.683h-2.645v-1.405h3.09c0.377,0,0.685-0.299,0.685-0.674
		c0-0.377-0.308-0.684-0.685-0.684h-3.842c-0.425,0-0.762,0.337-0.762,0.763v5.405C180.194,268.913,180.531,269.25,180.956,269.25z"
		/>
	<path fill="#FC8C54" d="M186.694,268.516c0.771,0.555,1.692,0.831,2.604,0.831c1.494,0,2.544-0.771,2.544-2.148v-0.02
		c0-1.207-0.792-1.713-2.198-2.079c-1.198-0.308-1.494-0.455-1.494-0.911v-0.02c0-0.337,0.307-0.604,0.892-0.604
		c0.475,0,0.95,0.167,1.455,0.465c0.117,0.069,0.237,0.109,0.385,0.109c0.396,0,0.715-0.308,0.715-0.703
		c0-0.297-0.169-0.505-0.337-0.604c-0.624-0.396-1.357-0.614-2.199-0.614c-1.415,0-2.426,0.832-2.426,2.09v0.02
		c0,1.376,0.902,1.763,2.298,2.119c1.157,0.297,1.396,0.494,1.396,0.881v0.021c0,0.405-0.376,0.653-1,0.653
		c-0.674,0-1.248-0.237-1.772-0.623c-0.1-0.07-0.237-0.14-0.437-0.14c-0.396,0-0.713,0.308-0.713,0.704
		C186.405,268.179,186.525,268.398,186.694,268.516z"/>
	<path fill="#FC8C54" d="M196.42,269.368c1.109,0,1.842-0.327,2.466-0.87c0.139-0.121,0.257-0.307,0.257-0.546
		c0-0.386-0.326-0.703-0.713-0.703c-0.178,0-0.337,0.069-0.454,0.169c-0.438,0.347-0.863,0.545-1.506,0.545
		c-1.188,0-2.012-0.99-2.012-2.179v-0.021c0-1.188,0.843-2.158,2.012-2.158c0.544,0,0.989,0.179,1.416,0.495
		c0.108,0.069,0.247,0.149,0.455,0.149c0.415,0,0.753-0.327,0.753-0.743c0-0.269-0.139-0.485-0.296-0.604
		c-0.575-0.426-1.279-0.703-2.319-0.703c-2.128,0-3.612,1.615-3.612,3.585v0.019C192.866,267.794,194.38,269.368,196.42,269.368z"/>
	<path fill="#FC8C54" d="M201.247,269.308c0.426,0,0.762-0.337,0.762-0.762v-2.08h2.812v2.08c0,0.425,0.337,0.762,0.763,0.762
		s0.762-0.337,0.762-0.762v-5.525c0-0.426-0.336-0.764-0.762-0.764s-0.763,0.338-0.763,0.764v2.039h-2.812v-2.039
		c0-0.426-0.336-0.764-0.762-0.764s-0.764,0.338-0.764,0.764v5.525C200.483,268.971,200.821,269.308,201.247,269.308z"/>
	<path fill="#FC8C54" d="M211.38,269.368c2.139,0,3.693-1.614,3.693-3.584v-0.021c0-1.971-1.534-3.564-3.674-3.564
		c-2.138,0-3.692,1.615-3.692,3.585v0.019C207.707,267.774,209.241,269.368,211.38,269.368z M209.3,265.763
		c0-1.188,0.852-2.158,2.08-2.158c1.228,0,2.101,0.99,2.101,2.179v0.019c0,1.189-0.853,2.16-2.081,2.16c-1.228,0-2.1-0.99-2.1-2.179
		V265.763z"/>
	<path fill="#FC8C54" d="M219.801,269.368c2.14,0,3.693-1.614,3.693-3.584v-0.021c0-1.971-1.535-3.564-3.673-3.564
		c-2.141,0-3.693,1.615-3.693,3.585v0.019C216.128,267.774,217.661,269.368,219.801,269.368z M217.722,265.763
		c0-1.188,0.852-2.158,2.079-2.158s2.101,0.99,2.101,2.179v0.019c0,1.189-0.853,2.16-2.08,2.16s-2.1-0.99-2.1-2.179V265.763z"/>
	<path fill="#FC8C54" d="M225.618,269.25h3.585c0.386,0,0.691-0.308,0.691-0.694c0-0.386-0.306-0.692-0.691-0.692h-2.822v-4.842
		c0-0.426-0.337-0.764-0.763-0.764s-0.764,0.338-0.764,0.764v5.465C224.854,268.913,225.192,269.25,225.618,269.25z"/>
</g>
<g>
	<path fill="#FC8C54" d="M267.194,360.264l-66.351,38.307l28.219-36c0.633-0.808,0.491-1.976-0.315-2.607
		c-0.81-0.631-1.976-0.491-2.607,0.315l-30.819,39.319v-38.432c0-1.025-0.832-1.857-1.857-1.857s-1.857,0.832-1.857,1.857v38.431
		l-30.819-39.318c-0.632-0.807-1.798-0.948-2.608-0.315c-0.806,0.632-0.947,1.8-0.314,2.607l28.218,36l-67.573-39.013
		c-0.887-0.513-2.023-0.209-2.537,0.68c-0.512,0.889-0.209,2.023,0.68,2.536l75.884,43.812c0.019,0.01,0.038,0.013,0.056,0.022
		c0.066,0.035,0.134,0.063,0.203,0.091c0.023,0.009,0.041,0.025,0.064,0.034c0.019,0.006,0.039,0.004,0.058,0.01
		c0.034,0.011,0.067,0.024,0.103,0.033c0.144,0.035,0.29,0.057,0.438,0.058l0.007,0.001h0.001c0,0,0.002-0.001,0.003-0.001
		c0.15,0,0.299-0.021,0.443-0.058c0.031-0.008,0.062-0.021,0.093-0.03c0.042-0.013,0.081-0.029,0.122-0.045
		c0.071-0.027,0.143-0.056,0.211-0.093c0.018-0.01,0.037-0.013,0.055-0.022l74.66-43.105c0.889-0.513,1.192-1.647,0.68-2.536
		C269.219,360.054,268.08,359.75,267.194,360.264z"/>
	<circle fill="#FC8C54" cx="274.739" cy="357.448" r="2.328"/>
	<circle fill="#FC8C54" cx="111.227" cy="357.448" r="2.328"/>
	<path fill="#FC8C54" d="M148.545,357.144c0.336,0.583,1.057,0.776,1.639,0.44c0.584-0.337,0.791-1.065,0.453-1.648l-2.785-4.824
		l3.484,1.777c0.414,0.205,0.812,0.253,1.199,0.029c0.389-0.224,0.547-0.593,0.576-1.054l0.207-3.963l2.793,4.838
		c0.336,0.582,1.088,0.795,1.67,0.459c0.596-0.344,0.795-1.088,0.451-1.684l-4.451-7.707c-0.344-0.596-1.088-0.796-1.684-0.451
		l-0.234,0.135c-0.43,0.248-0.631,0.605-0.645,1.094l-0.16,5.71l-5.002-2.711c-0.379-0.207-0.834-0.259-1.291,0.005l-0.236,0.137
		c-0.596,0.344-0.795,1.088-0.451,1.684L148.545,357.144z"/>
	<path fill="#FC8C54" d="M190.536,349.47h6.29c0.608,0,1.104-0.48,1.104-1.089s-0.496-1.104-1.104-1.104h-5.074v-2.354h4.274
		c0.607,0,1.104-0.479,1.104-1.088s-0.496-1.104-1.104-1.104h-4.274v-2.272h4.994c0.608,0,1.104-0.48,1.104-1.089
		s-0.496-1.104-1.104-1.104h-6.21c-0.688,0-1.232,0.545-1.232,1.232v8.74C189.304,348.925,189.848,349.47,190.536,349.47z"/>
	<path fill="#FC8C54" d="M229.15,353.967c0.471,0.271,0.869,0.224,1.375,0.018l3.936-1.629l0.553,4.293
		c0.062,0.499,0.223,0.831,0.68,1.096c0.609,0.352,1.318,0.15,1.662-0.445c0.176-0.305,0.184-0.671,0.137-0.975l-0.758-4.707
		l4.213-1.598c0.359-0.143,0.615-0.328,0.791-0.633c0.352-0.61,0.068-1.272-0.402-1.545c-0.471-0.271-0.869-0.224-1.375-0.019
		l-3.709,1.557l-0.488-4.053c-0.062-0.498-0.223-0.83-0.68-1.095c-0.609-0.352-1.316-0.151-1.662,0.446
		c-0.176,0.304-0.184,0.67-0.137,0.973l0.73,4.433l-4.477,1.704c-0.359,0.143-0.615,0.329-0.791,0.634
		C228.396,353.033,228.678,353.695,229.15,353.967z"/>
</g>
<path fill="#FC8C54" d="M118.643,83.983l66.351-38.307l-28.219,36c-0.633,0.808-0.491,1.976,0.315,2.607
	c0.81,0.631,1.976,0.491,2.607-0.315l30.819-39.319v38.432c0,1.025,0.832,1.857,1.857,1.857s1.857-0.832,1.857-1.857V44.65
	l30.819,39.318c0.632,0.807,1.798,0.948,2.608,0.315c0.806-0.632,0.947-1.8,0.314-2.607l-28.218-36l67.573,39.013
	c0.887,0.513,2.023,0.209,2.537-0.68c0.512-0.889,0.209-2.023-0.68-2.536l-75.884-43.812c-0.019-0.01-0.038-0.013-0.056-0.022
	c-0.066-0.035-0.134-0.063-0.203-0.091c-0.023-0.009-0.041-0.025-0.064-0.034c-0.019-0.006-0.039-0.004-0.058-0.01
	c-0.034-0.011-0.067-0.024-0.103-0.033c-0.144-0.035-0.29-0.057-0.438-0.058l-0.007-0.001h-0.001c0,0-0.002,0.001-0.003,0.001
	c-0.15,0-0.299,0.021-0.443,0.058c-0.031,0.008-0.062,0.021-0.093,0.03c-0.042,0.013-0.081,0.029-0.122,0.045
	c-0.071,0.027-0.143,0.056-0.211,0.093c-0.018,0.01-0.037,0.013-0.055,0.022l-74.66,43.105c-0.889,0.513-1.192,1.647-0.68,2.536
	C116.618,84.193,117.757,84.497,118.643,83.983z"/>
<g>
	<path fill="#FC8C54" d="M192.688,442.378c-1.209,0-2.417-0.312-3.5-0.938L3.939,334.486c-2.166-1.251-3.5-3.562-3.5-6.062V114.517
		c0-2.501,1.334-4.812,3.5-6.062L189.188,1.5c2.166-1.251,4.834-1.251,7,0l185.249,106.955c2.166,1.25,3.5,3.561,3.5,6.062v213.907
		c0,2.501-1.334,4.812-3.5,6.062L196.188,441.441C195.104,442.066,193.896,442.378,192.688,442.378z M14.439,324.382
		l178.248,102.913l178.249-102.913V118.558L192.688,15.645L14.439,118.558V324.382z"/>
</g>
</svg>
