<?xml version="1.0" encoding="UTF-8" standalone="no"?>
<!-- Created with Inkscape (http://www.inkscape.org/) -->

<svg
   xmlns:dc="http://purl.org/dc/elements/1.1/"
   xmlns:cc="http://creativecommons.org/ns#"
   xmlns:rdf="http://www.w3.org/1999/02/22-rdf-syntax-ns#"
   xmlns:svg="http://www.w3.org/2000/svg"
   xmlns="http://www.w3.org/2000/svg"
   version="1.1"
   width="100%"
   height="100%"
   viewBox="0 0 384.8 442.1"
   id="Layer_1"
   xml:space="preserve"><metadata
     id="metadata4464"><rdf:RDF><cc:Work
         rdf:about=""><dc:format>image/svg+xml</dc:format><dc:type
           rdf:resource="http://purl.org/dc/dcmitype/StillImage" /><dc:title></dc:title></cc:Work></rdf:RDF></metadata><defs
     id="defs4462" /><polygon
     points="704.9,15.4 890.4,122.6 890.4,336.9 704.9,444 519.3,336.9 519.3,122.6 "
     transform="translate(-512.60001,-9.5)"
     id="polygon3736"
     style="fill:#ffffff;fill-opacity:1" /><circle
     cx="706.5"
     cy="231.39999"
     r="0.5"
     transform="translate(-512.60001,-9.5)"
     id="circle4116"
     style="fill:none" /><g
     transform="translate(-512.60001,-9.5)"
     id="g4522"><g
       id="g4118"><path
         d="m 705,236.7 c 2.9,0 5.3,-2.4 5.3,-5.3 0,-2.9 -2.4,-5.3 -5.3,-5.3 -2.9,0 -5.3,2.4 -5.3,5.3 0,2.9 2.4,5.3 5.3,5.3 z m 0,-5.8 c 0.3,0 0.5,0.2 0.5,0.5 0,0.3 -0.2,0.5 -0.5,0.5 -0.3,0 -0.5,-0.2 -0.5,-0.5 0,-0.3 0.2,-0.5 0.5,-0.5 z"
         id="path4120"
         style="fill:#ff5555;fill-opacity:1" /><path
         d="m 801.5,156.4 c 0,-1.3 -1.1,-2.4 -2.4,-2.4 H 610.5 c -1.3,0 -2.4,1.1 -2.4,2.4 0,1.3 1.1,2.4 2.4,2.4 h 188.6 c 1.3,0 2.4,-1.1 2.4,-2.4 z"
         id="path4122"
         style="fill:#ff5555;fill-opacity:1" /><path
         d="M 781.8,87.3 705.9,43.5 c 0,0 0,0 0,0 -0.1,-0.1 -0.2,-0.1 -0.3,-0.1 0,0 0,0 0,0 0,0 0,0 0,0 0,0 -0.1,0 -0.1,0 0,0 -0.1,0 -0.1,0 -0.1,0 -0.2,0 -0.3,0 0,0 0,0 -0.1,0 0,0 -0.1,0 -0.1,0 -0.1,0 -0.3,0 -0.4,0 0,0 0,0 0,0 0,0 0,0 0,0 0,0 0,0 0,0 -0.1,0 -0.2,0.1 -0.3,0.1 0,0 0,0 0,0 l -74.7,43.1 c -0.9,0.5 -1.2,1.6 -0.7,2.5 0.5,0.9 1.7,1.2 2.5,0.7 l 66.4,-38.3 -28.2,36 c -0.6,0.8 -0.5,2 0.3,2.6 0.8,0.6 2,0.5 2.6,-0.3 l 30.8,-39.3 v 38.4 c 0,1 0.8,1.9 1.9,1.9 1.1,0 1.9,-0.8 1.9,-1.9 V 50.5 l 30.8,39.3 c 0.4,0.5 0.9,0.7 1.5,0.7 0.4,0 0.8,-0.1 1.1,-0.4 0.8,-0.6 0.9,-1.8 0.3,-2.6 l -28.2,-36 67.6,39 c 0.3,0.2 0.6,0.2 0.9,0.2 0.6,0 1.3,-0.3 1.6,-0.9 0.4,-0.8 0.1,-2 -0.8,-2.5 z"
         id="path4124"
         style="fill:#000000;fill-opacity:1" /><path
         d="m 781.3,370.2 c -0.5,-0.9 -1.7,-1.2 -2.5,-0.7 l -66.3,38.3 28.2,-36 c 0.6,-0.8 0.5,-2 -0.3,-2.6 -0.8,-0.6 -2,-0.5 -2.6,0.3 L 707,408.8 v -38.4 c 0,-1 -0.8,-1.9 -1.9,-1.9 -1.1,0 -1.9,0.8 -1.9,1.9 v 38.4 l -30.8,-39.3 c -0.6,-0.8 -1.8,-0.9 -2.6,-0.3 -0.8,0.6 -0.9,1.8 -0.3,2.6 l 28.2,36 -67.6,-39 c -0.9,-0.5 -2,-0.2 -2.5,0.7 -0.5,0.9 -0.2,2 0.7,2.5 l 75.9,43.8 c 0,0 0,0 0.1,0 0.1,0 0.1,0.1 0.2,0.1 0,0 0,0 0.1,0 0,0 0,0 0.1,0 0,0 0.1,0 0.1,0 0.1,0 0.3,0.1 0.4,0.1 l 0,0 0,0 0,0 c 0,0 0,0 0,0 0.2,0 0.3,0 0.4,-0.1 0,0 0.1,0 0.1,0 0,0 0.1,0 0.1,0 0.1,0 0.1,-0.1 0.2,-0.1 0,0 0,0 0.1,0 l 74.7,-43.1 c 0.7,-0.4 1,-1.6 0.5,-2.5 z"
         id="path4126"
         style="fill:#000000;fill-opacity:1" /><circle
         cx="786.29999"
         cy="366.70001"
         r="2.3"
         id="circle4128"
         style="fill:#000000;fill-opacity:1" /><circle
         cx="622.79999"
         cy="366.70001"
         r="2.3"
         id="circle4130"
         style="fill:#000000;fill-opacity:1" /><path
         d="M 894,117.5 708.4,10.4 c -2.1,-1.2 -4.7,-1.2 -6.8,0 L 516,117.5 c -2.1,1.2 -3.4,3.5 -3.4,5.9 v 214.3 c 0,2.4 1.3,4.7 3.4,5.9 l 185.6,107.1 c 1.1,0.6 2.2,0.9 3.4,0.9 1.2,0 2.4,-0.3 3.4,-0.9 L 894,343.6 c 2.1,-1.2 3.4,-3.5 3.4,-5.9 V 123.4 c 0,-2.4 -1.3,-4.7 -3.4,-5.9 z M 705,24.1 883.8,127.3 v 30.3 h -21.9 c -1.3,0 -2.4,1.1 -2.4,2.4 v 7.1 h -27.1 v -55.2 c 0,-1.3 -1.1,-2.4 -2.4,-2.4 H 577 c -1.3,0 -2.4,1.1 -2.4,2.4 v 55.2 H 547.5 V 160 c 0,-1.3 -1.1,-2.4 -2.4,-2.4 H 526 V 127.3 L 705,24.1 z m 160.3,257.8 h 16.1 v 11.8 h -16.1 v -11.8 z m 0,-4.8 v -11.8 h 16.1 v 11.8 h -16.1 z m 18.5,-53.8 -0.3,-0.5 h 0.3 v 0.5 z m -3,-5.3 -2.6,-4.5 h 5.6 v 4.5 h -3 z m -2.6,-9.2 3,-5.3 h 2.6 v 5.3 h -5.6 z M 883.8,189.7 872,210 c 0,0 0,0.1 0,0.1 -0.1,0.1 -0.1,0.3 -0.2,0.4 0,0 0,0.1 0,0.1 0,0.2 -0.1,0.4 -0.1,0.6 0,0.2 0,0.4 0.1,0.6 0,0 0,0.1 0,0.1 0,0.1 0.1,0.3 0.2,0.4 0,0 0,0.1 0,0.1 l 11.8,20.4 v 27.8 H 863 c -1.3,0 -2.4,1.1 -2.4,2.4 v 16.5 16.5 c 0,1.3 1.1,2.4 2.4,2.4 h 20.8 v 23.1 H 853.5 V 181.3 h 8.5 21.9 v 8.4 z m -355.3,13.9 3,5.3 h -5.3 v -5.3 h 2.3 z m 3.1,10 -2.6,4.4 h -2.7 v -4.5 h 5.3 z m -5.3,9.2 0,0 0,0 0,0 z M 542,277.1 H 528.3 V 265.3 H 542 v 11.8 z m 0,4.8 v 11.8 H 528.3 V 281.9 H 542 z m -15.7,16.5 h 18.1 c 1.3,0 2.4,-1.1 2.4,-2.4 V 279.5 263 c 0,-1.3 -1.1,-2.4 -2.4,-2.4 h -18.1 v -28.3 l 11.5,-19.9 c 0,0 0,-0.1 0,-0.1 0.1,-0.1 0.1,-0.3 0.2,-0.4 0,0 0,-0.1 0,-0.1 0,-0.2 0.1,-0.4 0.1,-0.6 0,-0.2 0,-0.4 -0.1,-0.6 0,0 0,-0.1 0,-0.1 0,-0.1 -0.1,-0.3 -0.2,-0.4 0,0 0,-0.1 0,-0.1 l -11.5,-19.9 v -8.9 h 19.1 8.5 v 140.3 h -27.6 v -23.1 z m 16.7,-129 v 7.1 H 526.3 V 162.3 H 543 v 7.1 z m 13.2,7.1 h -8.5 v -4.7 h 27.1 V 316 321.5 H 558.5 V 178.9 c 0,-1.3 -1,-2.4 -2.3,-2.4 z m 271.5,-7.1 v 144.2 h -3.2 v -12.2 c 0,-1.3 -1.1,-2.4 -2.4,-2.4 h -5.5 v -12.2 c 0,-1.3 -1.1,-2.4 -2.4,-2.4 h -5.5 v -12.2 c 0,-1.3 -1.1,-2.4 -2.4,-2.4 h -4.7 v -88.7 h 4.7 c 1.3,0 2.4,-1.1 2.4,-2.4 v -7.1 h 5.5 c 1.3,0 2.4,-1.1 2.4,-2.4 v -26 c 0,-1.3 -1.1,-2.4 -2.4,-2.4 H 596.9 c -1.3,0 -2.4,1.1 -2.4,2.4 v 26 c 0,1.3 1.1,2.4 2.4,2.4 h 5.5 v 7.1 c 0,1.3 1.1,2.4 2.4,2.4 h 4.7 v 88.7 h -4.7 c -1.3,0 -2.4,1.1 -2.4,2.4 v 12.2 h -5.5 c -1.3,0 -2.4,1.1 -2.4,2.4 V 299 h -9.2 c -1.3,0 -2.4,1.1 -2.4,2.4 v 12.2 h -3.4 V 169.4 114.2 h 248.2 v 55.2 z m -215.9,7.1 h -4.7 v -4.7 h 32.3 v 4.7 h -4.7 c -1.3,0 -2.4,1.1 -2.4,2.4 v 91 h -18.1 v -91 c 0,-1.3 -1.1,-2.4 -2.4,-2.4 z m -12.6,-9.4 V 145.8 H 812 v 21.3 h -5.5 -36.2 -128.5 -37 -5.6 z M 797,178.9 v 91 h -17.3 v -91 c 0,-1.3 -1.1,-2.4 -2.4,-2.4 h -4.7 v -4.7 h 31.5 v 4.7 h -4.7 c -1.3,0 -2.4,1.1 -2.4,2.4 z m -69.1,69.3 h 14.6 l -12.2,21.1 h -2.4 v -21.1 z m 17.4,-4.7 H 728 v -14 h 25.4 l -8.1,14 z m -17.4,-18.7 v -15.5 h 16.4 l 9,15.5 h -25.4 z m 0,-20.3 V 185 h 2.4 l 11.2,19.5 h -13.6 z m -4.7,22.7 v 42.1 H 688.5 V 245.9 227.2 206.9 185 h 34.7 v 42.2 z M 683.8,204.5 H 670.5 L 681.7,185 h 2.1 v 19.5 z m -16.1,4.7 h 16.1 v 15.5 h -25 l 8.9,-15.5 z m 16.1,20.3 v 14 h -17 l -8.1,-14 h 25.1 z m 0,18.7 v 21.1 h -2.1 l -12.2,-21.1 h 14.3 z m 75.7,-19.9 c 0,0 0,0 0,0 0.1,-0.2 0.2,-0.3 0.2,-0.5 0,0 0,-0.1 0,-0.1 0,-0.2 0.1,-0.4 0.1,-0.6 0,-0.2 0,-0.4 -0.1,-0.6 0,0 0,-0.1 0,-0.1 0,-0.1 -0.1,-0.3 -0.2,-0.4 0,0 0,-0.1 0,-0.1 l -25.7,-44.5 c -0.4,-0.7 -1.2,-1.2 -2,-1.2 h -6.2 -39.4 -5.8 c -0.8,0 -1.6,0.5 -2,1.2 L 652.6,226 c 0,0 0,0.1 0,0.1 -0.1,0.1 -0.1,0.3 -0.2,0.4 0,0 0,0.1 0,0.1 0,0.2 -0.1,0.4 -0.1,0.6 0,0.2 0,0.4 0.1,0.6 0,0 0,0.1 0,0.1 0,0.1 0.1,0.3 0.2,0.4 0,0 0,0.1 0,0.1 l 24,41.6 H 637 v -88.7 h 4.7 c 1.3,0 2.4,-1.1 2.4,-2.4 v -7.1 h 123.7 v 7.1 c 0,1.3 1.1,2.4 2.4,2.4 h 4.7 V 270 h -39.5 l 24.1,-41.7 z m 39.9,46.3 h 4.7 v 9.9 h -197 v -9.9 h 4.7 187.6 z m 7.1,14.6 h 5.5 v 9.9 H 599.2 v -9.9 h 5.5 201.8 z m 7.8,14.6 h 5.5 v 9.9 H 587.7 v -9.9 h 9.2 217.4 z m -234.8,20.1 v -5.5 h 5.8 236.9 5.5 v 5.5 4.3 H 579.5 v -4.3 z m 253,-7.9 V 171.8 h 27.1 v 4.7 h -8.5 c -1.3,0 -2.4,1.1 -2.4,2.4 V 321.5 H 832.4 V 316 z m 31.8,-139.5 v -7.1 -7.1 h 19.5 v 14.2 H 864.3 z M 705,437 526.3,333.8 v -7.5 h 29.9 0 18.6 v 4.3 c 0,1.3 1.1,2.4 2.4,2.4 h 253 c 1.3,0 2.4,-1.1 2.4,-2.4 v -4.3 h 18.6 0 32.7 v 7.5 L 705,437 z"
         id="path4138"
         style="fill:#ff5555;fill-opacity:1" /><path
         d="m 638.1,134.6 c 0.8,0 1.4,-0.6 1.4,-1.4 v -7.1 l 5.8,7.6 c 0.4,0.5 0.8,0.9 1.5,0.9 h 0.1 c 0.8,0 1.5,-0.6 1.5,-1.5 v -10.5 c 0,-0.8 -0.6,-1.4 -1.4,-1.4 -0.8,0 -1.4,0.6 -1.4,1.4 v 6.8 L 640,122 c -0.4,-0.5 -0.8,-0.9 -1.5,-0.9 h -0.3 c -0.8,0 -1.5,0.6 -1.5,1.5 v 10.5 c 0,0.9 0.6,1.5 1.4,1.5 z"
         id="path4140"
         style="fill:#000000;fill-opacity:1" /><path
         d="m 658,134.7 c 4.1,0 7.1,-3.1 7.1,-6.8 v 0 c 0,-3.8 -2.9,-6.8 -7,-6.8 -4.1,0 -7.1,3.1 -7.1,6.8 v 0 c 0,3.8 2.9,6.8 7,6.8 z m -3.9,-6.8 c 0,-2.3 1.6,-4.1 4,-4.1 2.3,0 4,1.9 4,4.2 v 0 c 0,2.3 -1.6,4.1 -4,4.1 -2.4,-0.1 -4,-1.9 -4,-4.2 l 0,0 z"
         id="path4142"
         style="fill:#000000;fill-opacity:1" /><path
         d="m 669.1,134.5 h 3.7 c 4.2,0 7,-2.9 7,-6.6 v 0 c 0,-3.7 -2.9,-6.6 -7,-6.6 h -3.7 c -0.8,0 -1.5,0.6 -1.5,1.5 V 133 c 0.1,0.9 0.7,1.5 1.5,1.5 z m 1.5,-10.6 h 2.2 c 2.4,0 4,1.6 4,4 v 0 c 0,2.3 -1.6,4 -4,4 h -2.2 v -8 z"
         id="path4144"
         style="fill:#000000;fill-opacity:1" /><path
         d="m 683.9,134.5 h 7.4 c 0.7,0 1.3,-0.6 1.3,-1.3 0,-0.7 -0.6,-1.3 -1.3,-1.3 h -6 v -2.8 h 5 c 0.7,0 1.3,-0.6 1.3,-1.3 0,-0.7 -0.6,-1.3 -1.3,-1.3 h -5 v -2.7 h 5.9 c 0.7,0 1.3,-0.6 1.3,-1.3 0,-0.7 -0.6,-1.3 -1.3,-1.3 h -7.3 c -0.8,0 -1.5,0.6 -1.5,1.5 V 133 c 0.1,0.9 0.7,1.5 1.5,1.5 z"
         id="path4146"
         style="fill:#000000;fill-opacity:1" /><path
         d="m 694.9,133.1 c 1.5,1.1 3.2,1.6 5,1.6 2.9,0 4.9,-1.5 4.9,-4.1 v 0 c 0,-2.3 -1.5,-3.3 -4.2,-4 -2.3,-0.6 -2.9,-0.9 -2.9,-1.7 v 0 c 0,-0.6 0.6,-1.2 1.7,-1.2 0.9,0 1.8,0.3 2.8,0.9 0.2,0.1 0.5,0.2 0.7,0.2 0.8,0 1.4,-0.6 1.4,-1.3 0,-0.6 -0.3,-1 -0.6,-1.2 -1.2,-0.8 -2.6,-1.2 -4.2,-1.2 -2.7,0 -4.6,1.6 -4.6,4 v 0 c 0,2.6 1.7,3.4 4.4,4 2.2,0.6 2.7,0.9 2.7,1.7 v 0 c 0,0.8 -0.7,1.2 -1.9,1.2 -1.3,0 -2.4,-0.5 -3.4,-1.2 -0.2,-0.1 -0.5,-0.3 -0.8,-0.3 -0.8,0 -1.4,0.6 -1.4,1.3 -0.2,0.7 0.1,1.1 0.4,1.3 z"
         id="path4148"
         style="fill:#000000;fill-opacity:1" /><path
         d="m 713.4,134.7 c 2.1,0 3.5,-0.6 4.7,-1.7 0.3,-0.2 0.5,-0.6 0.5,-1 0,-0.7 -0.6,-1.3 -1.4,-1.3 -0.3,0 -0.6,0.1 -0.9,0.3 -0.8,0.7 -1.6,1 -2.9,1 -2.3,0 -3.8,-1.9 -3.8,-4.2 v 0 c 0,-2.3 1.6,-4.1 3.8,-4.1 1,0 1.9,0.3 2.7,0.9 0.2,0.1 0.5,0.3 0.9,0.3 0.8,0 1.4,-0.6 1.4,-1.4 0,-0.5 -0.3,-0.9 -0.6,-1.2 -1.1,-0.8 -2.4,-1.3 -4.4,-1.3 -4.1,0 -6.9,3.1 -6.9,6.8 v 0 c 0.2,3.9 3.1,6.9 6.9,6.9 z"
         id="path4150"
         style="fill:#000000;fill-opacity:1" /><path
         d="m 722.7,134.6 c 0.8,0 1.5,-0.6 1.5,-1.5 v -4 h 5.4 v 4 c 0,0.8 0.6,1.5 1.5,1.5 0.8,0 1.5,-0.6 1.5,-1.5 v -10.5 c 0,-0.8 -0.6,-1.5 -1.5,-1.5 -0.8,0 -1.5,0.6 -1.5,1.5 v 3.9 h -5.4 v -3.9 c 0,-0.8 -0.6,-1.5 -1.5,-1.5 -0.8,0 -1.5,0.6 -1.5,1.5 v 10.5 c 0,0.9 0.6,1.5 1.5,1.5 z"
         id="path4152"
         style="fill:#000000;fill-opacity:1" /><path
         d="m 742,134.7 c 4.1,0 7,-3.1 7,-6.8 v 0 c 0,-3.8 -2.9,-6.8 -7,-6.8 -4.1,0 -7.1,3.1 -7.1,6.8 v 0 c 0.1,3.8 3,6.8 7.1,6.8 z m -4,-6.8 c 0,-2.3 1.6,-4.1 4,-4.1 2.3,0 4,1.9 4,4.2 v 0 c 0,2.3 -1.6,4.1 -4,4.1 -2.3,-0.1 -4,-1.9 -4,-4.2 l 0,0 z"
         id="path4154"
         style="fill:#000000;fill-opacity:1" /><path
         d="m 758.1,134.7 c 4.1,0 7.1,-3.1 7.1,-6.8 v 0 c 0,-3.8 -2.9,-6.8 -7,-6.8 -4.1,0 -7.1,3.1 -7.1,6.8 v 0 c 0,3.8 2.9,6.8 7,6.8 z m -4,-6.8 c 0,-2.3 1.6,-4.1 4,-4.1 2.3,0 4,1.9 4,4.2 v 0 c 0,2.3 -1.6,4.1 -4,4.1 -2.3,-0.1 -4,-1.9 -4,-4.2 l 0,0 z"
         id="path4156"
         style="fill:#000000;fill-opacity:1" /><path
         d="m 769.2,134.5 h 6.8 c 0.7,0 1.3,-0.6 1.3,-1.3 0,-0.7 -0.6,-1.3 -1.3,-1.3 h -5.4 v -9.2 c 0,-0.8 -0.6,-1.5 -1.5,-1.5 -0.8,0 -1.5,0.6 -1.5,1.5 V 133 c 0.1,0.9 0.8,1.5 1.6,1.5 z"
         id="path4158"
         style="fill:#000000;fill-opacity:1" /></g><path
       d="m 703.79788,349.77596 c 0,-0.7 0.5,-1.2 1.2,-1.2 0.7,0 1.2,0.5 1.2,1.2 v 8.9 c 0,0.7 -0.5,1.2 -1.2,1.2 -0.7,0 -1.2,-0.5 -1.2,-1.2 v -8.9 z"
       id="path3882-9"
       style="fill:#231f20" /><path
       d="m 746.04603,354.50416 c 0.3,-0.6 1.1,-0.8 1.7,-0.5 0.6,0.3 0.8,1.1 0.5,1.7 l -3.9,6.8 4,2.3 c 0.5,0.3 0.7,1 0.4,1.5 -0.3,0.5 -1,0.7 -1.5,0.4 l -5,-2.9 c -0.6,-0.3 -0.8,-1.1 -0.5,-1.7 l 4.3,-7.6 z"
       id="path4014-8"
       style="fill:#231f20" /><path
       d="m 661.49918,366.3766 c -0.3,0 -0.7,-0.2 -0.9,-0.6 -0.3,-0.6 -0.1,-1.2 0.4,-1.6 0.3,-0.2 0.5,-0.2 0.7,-0.2 1,0.1 2,0 3,-0.6 0.9,-0.5 1.2,-1.2 0.9,-1.7 l 0,0 c -0.3,-0.5 -0.8,-0.6 -2.7,-0.1 -2.2,0.6 -3.8,0.8 -4.9,-1.1 l 0,0 c -1,-1.8 -0.3,-3.7 1.7,-4.9 1.2,-0.7 2.4,-1 3.6,-0.9 0.3,0 0.7,0.2 1,0.6 0.3,0.6 0.1,1.2 -0.4,1.6 -0.2,0.1 -0.4,0.2 -0.6,0.2 -0.9,0 -1.7,0.1 -2.4,0.5 -0.8,0.5 -1,1.1 -0.8,1.6 l 0,0 c 0.4,0.6 0.9,0.6 2.8,0.1 2.3,-0.6 3.8,-0.6 4.8,1.1 l 0,0 c 1.1,1.9 0.3,3.9 -1.8,5.1 -1.4,0.7 -2.9,1.1 -4.4,0.9 z"
       id="path3774-3"
       style="fill:#231f20" /></g></svg>