<?xml version="1.0" encoding="utf-8"?>
<!-- Generator: Adobe Illustrator 18.1.1, SVG Export Plug-In . SVG Version: 6.00 Build 0)  -->
<svg version="1.1" id="Layer_1" xmlns="http://www.w3.org/2000/svg" xmlns:xlink="http://www.w3.org/1999/xlink" x="0px" y="0px"
	 viewBox="0 0 460.7 529.3" enable-background="new 0 0 460.7 529.3" xml:space="preserve">
<polygon fill="#A9D8F4" stroke="#5AB3E5" stroke-width="16.7442" stroke-linecap="round" stroke-linejoin="round" stroke-miterlimit="10" points="
	452.3,392.8 230.3,521 8.4,392.8 8.4,136.5 230.3,8.4 452.3,136.5 "/>
<g>
	
		<path fill="none" stroke="#5AB3E5" stroke-width="5.8085" stroke-linecap="round" stroke-linejoin="round" stroke-miterlimit="10" d="
		M162.6,296.7H74.4c-3.9,0-7,3.1-7,7v67.2h43.6"/>
	
		<path fill="none" stroke="#5AB3E5" stroke-width="5.8085" stroke-linecap="round" stroke-linejoin="round" stroke-miterlimit="10" d="
		M337.4,370.9h60v-67.2c0-3.9-3.1-7-7-7h-90.9"/>
	
		<line fill="none" stroke="#5AB3E5" stroke-width="5.8085" stroke-linecap="round" stroke-linejoin="round" stroke-miterlimit="10" x1="263.4" y1="370.9" x2="312.2" y2="370.9"/>
	
		<line fill="none" stroke="#5AB3E5" stroke-width="5.8085" stroke-linecap="round" stroke-linejoin="round" stroke-miterlimit="10" x1="136.1" y1="370.9" x2="198.8" y2="370.9"/>
	
		<circle fill="none" stroke="#5AB3E5" stroke-width="5.8085" stroke-linecap="round" stroke-linejoin="round" stroke-miterlimit="10" cx="123.6" cy="369.7" r="12.6"/>
	
		<circle fill="none" stroke="#5AB3E5" stroke-width="5.8085" stroke-linecap="round" stroke-linejoin="round" stroke-miterlimit="10" cx="324.9" cy="369.7" r="12.6"/>
	
		<rect x="77.5" y="313.9" fill="none" stroke="#5AB3E5" stroke-width="5.8085" stroke-linecap="round" stroke-linejoin="round" stroke-miterlimit="10" width="21.9" height="57"/>
	
		<polyline fill="none" stroke="#5AB3E5" stroke-width="5.8085" stroke-linecap="round" stroke-linejoin="round" stroke-miterlimit="10" points="
		178,331.5 178,370.9 195.6,370.9 	"/>
	
		<rect x="349.1" y="313.9" fill="none" stroke="#5AB3E5" stroke-width="5.8085" stroke-linecap="round" stroke-linejoin="round" stroke-miterlimit="10" width="21.9" height="57"/>
	
		<rect x="99.5" y="313.9" fill="none" stroke="#5AB3E5" stroke-width="5.8085" stroke-linecap="round" stroke-linejoin="round" stroke-miterlimit="10" width="39.3" height="30.7"/>
	
		<polyline fill="none" stroke="#5AB3E5" stroke-width="5.8085" stroke-linecap="round" stroke-linejoin="round" stroke-miterlimit="10" points="
		291.9,313.9 309.8,313.9 309.8,344.6 278.2,344.6 	"/>
	
		<rect x="309.8" y="313.9" fill="none" stroke="#5AB3E5" stroke-width="5.8085" stroke-linecap="round" stroke-linejoin="round" stroke-miterlimit="10" width="39.3" height="30.7"/>
	
		<polyline fill="none" stroke="#5AB3E5" stroke-width="5.8085" stroke-linecap="round" stroke-linejoin="round" stroke-miterlimit="10" points="
		178,333.8 178,344.6 138.7,344.6 138.7,313.9 170.2,313.9 	"/>
	
		<polygon fill="none" stroke="#5AB3E5" stroke-width="5.8085" stroke-linecap="round" stroke-linejoin="round" stroke-miterlimit="10" points="
		387.6,335 371.1,344.6 371.1,313.9 387.6,313.9 	"/>
</g>
<path fill="#5AB3E5" d="M172.5,418.9c-0.4-0.7-0.2-1.6,0.5-2l4.1-2.4c1.3-0.8,2.6-1,3.6-0.7c0.8,0.2,1.5,0.7,1.9,1.5l0,0
	c0.8,1.3,0.5,2.4-0.1,3.4c1.6-0.3,2.9,0,3.8,1.6l0,0c1.2,2.1,0.1,4.2-2.5,5.7l-4.2,2.5c-0.7,0.4-1.6,0.2-2-0.5L172.5,418.9z
	 M179.3,419.6c1.1-0.7,1.6-1.4,1.1-2.3l0,0c-0.4-0.8-1.3-0.8-2.4-0.2l-2.5,1.5l1.4,2.5L179.3,419.6z M182.7,423.8
	c1.1-0.7,1.6-1.4,1.1-2.3l0,0c-0.4-0.8-1.3-0.9-2.6-0.2l-3,1.7l1.5,2.6L182.7,423.8z"/>
<path fill="#5AB3E5" d="M224.5,414.1v-6.3c0-0.8,0.7-1.5,1.5-1.5c0.8,0,1.5,0.7,1.5,1.5v6.2c0,2.2,1.1,3.3,2.9,3.3
	c1.8,0,2.9-1.1,2.9-3.2v-6.3c0-0.8,0.7-1.5,1.5-1.5c0.8,0,1.5,0.7,1.5,1.5v6.2c0,4.1-2.3,6.1-5.9,6.1
	C226.7,420,224.5,418,224.5,414.1z"/>
<path fill="#5AB3E5" d="M274.3,423.1l5.2-9.1c0.4-0.7,1.3-1,2-0.5l6.4,3.7c0.6,0.4,0.8,1.2,0.5,1.8s-1.2,0.8-1.8,0.5l-5.2-3
	l-1.4,2.4l4.4,2.6c0.6,0.4,0.8,1.2,0.5,1.8c-0.4,0.6-1.2,0.8-1.8,0.5l-4.4-2.6l-1.4,2.4l5.3,3c0.6,0.4,0.8,1.2,0.5,1.8
	c-0.4,0.6-1.2,0.8-1.8,0.5l-6.5-3.8C274.1,424.7,273.8,423.8,274.3,423.1z"/>
<path fill="#5AB3E5" d="M322.2,94.3l-90.8-52.4c0,0,0,0,0,0c-0.1-0.1-0.2-0.1-0.3-0.1c0,0,0,0,0,0c0,0,0,0,0,0c0,0-0.1,0-0.1,0
	c0,0-0.1,0-0.1,0c-0.1,0-0.2,0-0.4,0c0,0-0.1,0-0.1,0c0,0-0.1,0-0.1,0c-0.2,0-0.3,0-0.5,0.1c0,0,0,0-0.1,0c0,0,0,0,0,0
	c0,0,0,0-0.1,0c-0.1,0-0.3,0.1-0.4,0.2c0,0,0,0-0.1,0l-89.3,51.6c-1.1,0.6-1.4,2-0.8,3c0.6,1.1,2,1.4,3,0.8l79.4-45.8l-33.8,43.1
	c-0.8,1-0.6,2.4,0.4,3.1c1,0.8,2.4,0.6,3.1-0.4l36.9-47v46c0,1.2,1,2.2,2.2,2.2c1.2,0,2.2-1,2.2-2.2v-46l36.9,47
	c0.4,0.6,1.1,0.9,1.7,0.9c0.5,0,1-0.2,1.4-0.5c1-0.8,1.1-2.2,0.4-3.1l-33.8-43.1L320,98.2c0.3,0.2,0.7,0.3,1.1,0.3
	c0.8,0,1.5-0.4,1.9-1.1C323.6,96.3,323.3,94.9,322.2,94.3z"/>
<path fill="#5AB3E5" d="M321.5,432.7c-0.6-1.1-2-1.4-3-0.8l-79.4,45.8l33.7-43.1c0.8-1,0.6-2.4-0.4-3.1c-1-0.8-2.4-0.6-3.1,0.4
	l-36.9,47v-46c0-1.2-1-2.2-2.2-2.2c-1.2,0-2.2,1-2.2,2.2v46l-36.9-47c-0.8-1-2.2-1.1-3.1-0.4c-1,0.8-1.1,2.2-0.4,3.1l33.7,43.1
	L140.7,431c-1.1-0.6-2.4-0.3-3,0.8c-0.6,1.1-0.3,2.4,0.8,3l90.8,52.4c0,0,0,0,0.1,0c0.1,0,0.2,0.1,0.2,0.1c0,0,0,0,0.1,0
	c0,0,0,0,0.1,0c0,0,0.1,0,0.1,0c0.2,0,0.3,0.1,0.5,0.1l0,0l0,0l0,0l0,0c0.2,0,0.4,0,0.5-0.1c0,0,0.1,0,0.1,0c0,0,0.1,0,0.1-0.1
	c0.1,0,0.2-0.1,0.3-0.1c0,0,0,0,0.1,0l89.3-51.6C321.8,435.1,322.2,433.8,321.5,432.7z"/>
<circle fill="#5AB3E5" cx="327.5" cy="428.5" r="2.8"/>
<circle fill="#5AB3E5" cx="132" cy="428.5" r="2.8"/>
<g>
	<g>
		<path fill="#5AB3E5" d="M148.6,133.5c0.9-0.2,1.6-1.1,1.4-2c-0.5-2.8-1.1-5.5-1.6-8.3c2.9,2.5,5.9,5.1,8.7,7.6
			c0.6,0.5,1.1,0.8,2,0.7c0,0,0.1,0,0.1,0c1-0.2,1.6-1.1,1.4-2c-0.7-4.1-1.4-8.3-2.1-12.4c-0.2-0.9-1.1-1.6-2.1-1.4
			c-1,0.2-1.6,1.1-1.5,2c0.5,2.7,1,5.4,1.4,8c-2.8-2.5-5.6-4.9-8.5-7.4c-0.6-0.5-1.2-0.8-2.1-0.6c-0.1,0-0.2,0.1-0.4,0.1
			c-1,0.2-1.6,1.1-1.4,2.1c0.9,4.1,1.7,8.2,2.6,12.3C146.7,133.1,147.7,133.7,148.6,133.5z"/>
		<path fill="#5AB3E5" d="M172.3,129.5c4.9-0.7,8-4.8,7.4-9.2c0,0,0,0,0,0c-0.5-4.5-4.6-7.6-9.7-6.9c-5.1,0.7-8.2,5-7.4,9.4
			c0,0,0,0,0,0C163.4,127.2,167.5,130.2,172.3,129.5z M166.3,122.1c-0.4-2.7,1.2-5.2,4.1-5.6c2.9-0.4,5.2,1.6,5.6,4.3c0,0,0,0,0,0
			c0.3,2.7-1.3,5.1-4.1,5.5C169.1,126.7,166.8,124.8,166.3,122.1C166.3,122.1,166.3,122.1,166.3,122.1z"/>
		<path fill="#5AB3E5" d="M185.6,127.6c1.5-0.2,3-0.3,4.4-0.5c5-0.5,8.1-4.2,7.8-8.6c0,0,0,0,0,0c-0.3-4.4-4.2-7.6-9.4-7.1
			c-1.5,0.2-3.1,0.3-4.6,0.5c-1,0.1-1.7,1-1.6,1.9c0.5,4.1,0.9,8.2,1.4,12.3C183.7,127,184.6,127.7,185.6,127.6z M186,114.8
			c0.9-0.1,1.9-0.2,2.8-0.3c2.9-0.3,5.1,1.5,5.3,4.3c0,0,0,0,0,0c0.2,2.8-1.5,4.9-4.4,5.2c-0.9,0.1-1.8,0.2-2.7,0.3
			C186.6,121.1,186.3,117.9,186,114.8z"/>
		<path fill="#5AB3E5" d="M203.3,126c3-0.2,5.9-0.4,8.9-0.5c0.9,0,1.5-0.7,1.5-1.6c0-0.9-0.8-1.5-1.6-1.5c-2.4,0.1-4.8,0.2-7.3,0.4
			c-0.1-1.1-0.1-2.2-0.2-3.3c2.1-0.1,4.1-0.2,6.2-0.3c0.9,0,1.6-0.8,1.5-1.6c0-0.9-0.8-1.5-1.7-1.5c-2.1,0.1-4.1,0.2-6.2,0.3
			c-0.1-1.1-0.1-2.1-0.2-3.2c2.4-0.2,4.9-0.3,7.3-0.4c0.9,0,1.6-0.7,1.6-1.6c0-0.9-0.8-1.5-1.7-1.5c-3.1,0.1-6.1,0.3-9.1,0.5
			c-1,0.1-1.8,0.9-1.7,1.9c0.3,4.1,0.6,8.2,0.9,12.3C201.5,125.4,202.3,126.1,203.3,126z"/>
		<path fill="#5AB3E5" d="M216.4,123.7c1.8,1.2,4,1.8,6,1.7c3.4-0.1,5.8-1.8,5.8-5c0,0,0,0,0,0c0-2.8-1.9-3.9-5.2-4.7
			c-2.8-0.6-3.5-1-3.6-2c0,0,0,0,0,0c0-0.8,0.7-1.4,2.1-1.4c1.1,0,2.3,0.3,3.5,1c0.3,0.2,0.6,0.2,0.9,0.2c0.9,0,1.7-0.7,1.7-1.6
			c0-0.7-0.4-1.1-0.8-1.4c-1.5-0.9-3.2-1.4-5.3-1.3c-3.4,0.1-5.7,2.1-5.6,4.9c0,0,0,0,0,0c0.1,3.1,2.3,3.9,5.5,4.7
			c2.7,0.6,3.3,1.1,3.3,2c0,0,0,0,0,0c0,0.9-0.8,1.5-2.3,1.5c-1.6,0-2.9-0.5-4.1-1.3c-0.2-0.2-0.6-0.3-1-0.3c-0.9,0-1.6,0.8-1.6,1.7
			C215.7,122.9,216,123.4,216.4,123.7z"/>
		<path fill="#5AB3E5" d="M238.8,125.4c2.5,0,4.2-0.6,5.7-1.8c0.3-0.3,0.6-0.7,0.6-1.2c0-0.9-0.7-1.6-1.6-1.7
			c-0.4,0-0.8,0.1-1.1,0.4c-1,0.8-2,1.2-3.5,1.2c-2.7-0.1-4.6-2.3-4.6-5c0,0,0,0,0,0c0-2.7,2-4.9,4.8-4.9c1.3,0,2.3,0.5,3.3,1.2
			c0.3,0.2,0.6,0.4,1.1,0.4c1,0,1.8-0.7,1.8-1.6c0-0.6-0.3-1.1-0.7-1.4c-1.3-1-3-1.7-5.5-1.7c-5.1-0.1-8.6,3.6-8.6,8.1c0,0,0,0,0,0
			C230.7,121.7,234.1,125.3,238.8,125.4z"/>
		<path fill="#5AB3E5" d="M249.9,125.6c1,0,1.8-0.7,1.8-1.7c0.1-1.6,0.2-3.2,0.2-4.7c2.2,0.1,4.4,0.2,6.5,0.4
			c-0.1,1.6-0.2,3.2-0.3,4.7c-0.1,1,0.7,1.8,1.6,1.9c1,0.1,1.8-0.6,1.9-1.6c0.3-4.2,0.6-8.4,0.9-12.6c0.1-1-0.7-1.8-1.7-1.9
			c-1-0.1-1.9,0.6-1.9,1.6c-0.1,1.5-0.2,3.1-0.3,4.6c-2.2-0.1-4.4-0.3-6.6-0.4c0.1-1.6,0.2-3.1,0.2-4.7c0-1-0.7-1.8-1.7-1.8
			c-1,0-1.8,0.7-1.9,1.7c-0.2,4.2-0.3,8.4-0.5,12.6C248.2,124.8,248.9,125.6,249.9,125.6z"/>
		<path fill="#5AB3E5" d="M273.1,127.5c4.9,0.5,8.9-2.7,9.4-7.2c0,0,0,0,0,0c0.6-4.5-2.6-8.5-7.7-9.1c-5.1-0.5-9.1,2.9-9.4,7.4
			c0,0,0,0,0,0C265,123.1,268.2,127,273.1,127.5z M269.1,118.8c0.2-2.7,2.4-4.7,5.4-4.4c2.9,0.3,4.7,2.8,4.4,5.5c0,0,0,0,0,0
			c-0.3,2.7-2.5,4.7-5.3,4.4C270.6,124,268.8,121.6,269.1,118.8C269.1,118.9,269.1,118.8,269.1,118.8z"/>
		<path fill="#5AB3E5" d="M292.3,129.9c4.9,0.7,9-2.3,9.8-6.7c0,0,0,0,0,0c0.8-4.4-2.2-8.7-7.3-9.4c-5.1-0.8-9.2,2.4-9.8,6.9
			c0,0,0,0,0,0C284.4,125.1,287.4,129.2,292.3,129.9z M288.7,121.1c0.4-2.7,2.7-4.6,5.6-4.2c2.9,0.4,4.6,3,4.1,5.7c0,0,0,0,0,0
			c-0.4,2.7-2.7,4.5-5.6,4.1C290,126.3,288.3,123.8,288.7,121.1C288.7,121.1,288.7,121.1,288.7,121.1z"/>
		<path fill="#5AB3E5" d="M305.6,131.8c2.7,0.5,5.4,1,8.1,1.6c0.9,0.2,1.7-0.4,1.9-1.2c0.2-0.9-0.4-1.7-1.3-1.9
			c-2.1-0.4-4.3-0.9-6.4-1.3c0.7-3.6,1.4-7.2,2-10.9c0.2-1-0.5-1.9-1.5-2c-1-0.2-1.9,0.4-2.1,1.4c-0.7,4.1-1.5,8.2-2.2,12.3
			C304,130.7,304.6,131.6,305.6,131.8z"/>
	</g>
</g>
<g>
	<circle fill="#5AB3E5" cx="232.1" cy="274.9" r="0.6"/>
	
		<path fill="none" stroke="#5AB3E5" stroke-width="5.8085" stroke-linecap="round" stroke-linejoin="round" stroke-miterlimit="10" d="
		M341,220.9c-71.4-23.2-148.4-23.2-219.8,0c-6.8-21.1-13.7-42.1-20.5-63.2c84.8-27.5,176.1-27.5,260.8,0
		C354.6,178.8,347.8,199.8,341,220.9z"/>
	<g>
		
			<line fill="none" stroke="#5AB3E5" stroke-width="5.8085" stroke-linejoin="round" stroke-miterlimit="10" x1="231" y1="135.4" x2="231" y2="394.1"/>
		
			<line fill="none" stroke="#5AB3E5" stroke-width="5.8085" stroke-linejoin="round" stroke-miterlimit="10" x1="212.2" y1="138.1" x2="226.7" y2="392.5"/>
		
			<line fill="none" stroke="#5AB3E5" stroke-width="5.8085" stroke-linejoin="round" stroke-miterlimit="10" x1="193.4" y1="140.8" x2="222.4" y2="390.8"/>
		
			<line fill="none" stroke="#5AB3E5" stroke-width="5.8085" stroke-linejoin="round" stroke-miterlimit="10" x1="174.5" y1="143.5" x2="218.1" y2="389.2"/>
		
			<line fill="none" stroke="#5AB3E5" stroke-width="5.8085" stroke-linejoin="round" stroke-miterlimit="10" x1="155.7" y1="146.1" x2="213.7" y2="387.5"/>
		
			<line fill="none" stroke="#5AB3E5" stroke-width="5.8085" stroke-linejoin="round" stroke-miterlimit="10" x1="136.8" y1="148.8" x2="209.4" y2="385.8"/>
		
			<line fill="none" stroke="#5AB3E5" stroke-width="5.8085" stroke-linejoin="round" stroke-miterlimit="10" x1="118" y1="151.5" x2="205.1" y2="384.2"/>
		
			<line fill="none" stroke="#5AB3E5" stroke-width="5.8085" stroke-linejoin="round" stroke-miterlimit="10" x1="99.1" y1="154.2" x2="200.7" y2="382.5"/>
	</g>
	<g>
		
			<line fill="none" stroke="#5AB3E5" stroke-width="5.8085" stroke-linejoin="round" stroke-miterlimit="10" x1="231" y1="135.4" x2="231" y2="394.1"/>
		
			<line fill="none" stroke="#5AB3E5" stroke-width="5.8085" stroke-linejoin="round" stroke-miterlimit="10" x1="249.9" y1="138.1" x2="235.4" y2="392.5"/>
		
			<line fill="none" stroke="#5AB3E5" stroke-width="5.8085" stroke-linejoin="round" stroke-miterlimit="10" x1="268.7" y1="140.8" x2="239.7" y2="390.8"/>
		
			<line fill="none" stroke="#5AB3E5" stroke-width="5.8085" stroke-linejoin="round" stroke-miterlimit="10" x1="287.6" y1="143.5" x2="244" y2="389.2"/>
		
			<line fill="none" stroke="#5AB3E5" stroke-width="5.8085" stroke-linejoin="round" stroke-miterlimit="10" x1="306.4" y1="146.1" x2="248.4" y2="387.5"/>
		
			<line fill="none" stroke="#5AB3E5" stroke-width="5.8085" stroke-linejoin="round" stroke-miterlimit="10" x1="325.3" y1="148.8" x2="252.7" y2="385.8"/>
		
			<line fill="none" stroke="#5AB3E5" stroke-width="5.8085" stroke-linejoin="round" stroke-miterlimit="10" x1="344.1" y1="151.5" x2="257" y2="384.2"/>
		
			<line fill="none" stroke="#5AB3E5" stroke-width="5.8085" stroke-linejoin="round" stroke-miterlimit="10" x1="363" y1="154.2" x2="261.3" y2="382.5"/>
	</g>
	<g>
		
			<polygon fill="#A9D8F4" stroke="#5AB3E5" stroke-width="5.8085" stroke-linecap="round" stroke-linejoin="round" stroke-miterlimit="10" points="
			231,163.2 213.5,180.9 200.7,382.5 231.1,394.1 261.4,382.5 248.6,180.9 		"/>
		
			<line fill="none" stroke="#5AB3E5" stroke-width="5.8085" stroke-linecap="round" stroke-linejoin="round" stroke-miterlimit="10" x1="231" y1="163.3" x2="231" y2="394.1"/>
	</g>
	<g>
		
			<path fill="#A9D8F4" stroke="#5AB3E5" stroke-width="5.8085" stroke-linecap="round" stroke-linejoin="round" stroke-miterlimit="10" d="
			M129.8,223.1l-32.3,14.4c-2.4-0.9-3.8-1.5-6.3-2.4l-29.8-67c0.9-2.4,1.5-3.8,2.4-6.3l32.3-14.4L129.8,223.1z"/>
		
			<path fill="none" stroke="#5AB3E5" stroke-width="5.8085" stroke-linecap="round" stroke-linejoin="round" stroke-miterlimit="10" d="
			M79.8,232.2l8.5-3.8l-23.9-53.7l-8.5,3.8c-0.7,1.9-1.1,3-1.9,4.9l20.9,46.9C76.8,231.1,77.9,231.5,79.8,232.2z"/>
		<path fill="none" stroke="#5AB3E5" stroke-width="5.8085" stroke-miterlimit="10" d="M69.8,218.8c-6.6,2.9-14.3,0-17.2-6.6
			c-2.9-6.6,0-14.3,6.6-17.2"/>
		<g>
			<circle fill="#5AB3E5" cx="78.3" cy="172.7" r="3.2"/>
			<circle fill="#5AB3E5" cx="90.2" cy="167.4" r="3.2"/>
			<circle fill="#5AB3E5" cx="83.5" cy="184.4" r="3.2"/>
			<circle fill="#5AB3E5" cx="95.4" cy="179.1" r="3.2"/>
			<circle fill="#5AB3E5" cx="88.7" cy="196.1" r="3.2"/>
			<circle fill="#5AB3E5" cx="100.6" cy="190.8" r="3.2"/>
			<circle fill="#5AB3E5" cx="93.9" cy="207.8" r="3.2"/>
			<circle fill="#5AB3E5" cx="105.9" cy="202.5" r="3.2"/>
			<circle fill="#5AB3E5" cx="99.1" cy="219.5" r="3.2"/>
			<circle fill="#5AB3E5" cx="111.1" cy="214.2" r="3.2"/>
		</g>
	</g>
	<g>
		
			<path fill="#A9D8F4" stroke="#5AB3E5" stroke-width="5.8085" stroke-linecap="round" stroke-linejoin="round" stroke-miterlimit="10" d="
			M332.7,222.1l32.3,14.4c2.4-0.9,3.8-1.5,6.3-2.4l29.8-67c-0.9-2.4-1.5-3.8-2.4-6.3l-32.3-14.4L332.7,222.1z"/>
		
			<path fill="none" stroke="#5AB3E5" stroke-width="5.8085" stroke-linecap="round" stroke-linejoin="round" stroke-miterlimit="10" d="
			M382.8,231.1l-8.5-3.8l23.9-53.7l8.5,3.8c0.7,1.9,1.1,3,1.9,4.9l-20.9,46.9C385.7,230,384.7,230.4,382.8,231.1z"/>
		<path fill="none" stroke="#5AB3E5" stroke-width="5.8085" stroke-miterlimit="10" d="M392.8,217.7c6.6,2.9,14.3,0,17.2-6.6
			c2.9-6.6,0-14.3-6.6-17.2"/>
		<g>
			<circle fill="#5AB3E5" cx="384.3" cy="171.6" r="3.2"/>
			<circle fill="#5AB3E5" cx="372.3" cy="166.3" r="3.2"/>
			<circle fill="#5AB3E5" cx="379.1" cy="183.3" r="3.2"/>
			<circle fill="#5AB3E5" cx="367.1" cy="178" r="3.2"/>
			<circle fill="#5AB3E5" cx="373.9" cy="195" r="3.2"/>
			<circle fill="#5AB3E5" cx="361.9" cy="189.7" r="3.2"/>
			<circle fill="#5AB3E5" cx="368.6" cy="206.7" r="3.2"/>
			<circle fill="#5AB3E5" cx="356.7" cy="201.4" r="3.2"/>
			<circle fill="#5AB3E5" cx="363.4" cy="218.4" r="3.2"/>
			<circle fill="#5AB3E5" cx="351.5" cy="213.1" r="3.2"/>
		</g>
	</g>
	
		<polygon fill="#FEEE0B" stroke="#5AB3E5" stroke-width="4.4051" stroke-linecap="round" stroke-linejoin="round" stroke-miterlimit="10" points="
		244.3,285.4 231.1,293.1 217.8,285.4 217.8,270.1 231.1,262.5 244.3,270.1 	"/>
	
		<line fill="none" stroke="#5AB3E5" stroke-width="5.8085" stroke-linecap="round" stroke-linejoin="round" stroke-miterlimit="10" x1="200.7" y1="382.5" x2="54" y2="382.5"/>
	
		<line fill="none" stroke="#5AB3E5" stroke-width="5.8085" stroke-linecap="round" stroke-linejoin="round" stroke-miterlimit="10" x1="411.1" y1="382.5" x2="261.3" y2="382.5"/>
</g>
<path fill="#A9D8F4" stroke="#5AB3E5" stroke-width="5.8085" stroke-linecap="round" stroke-linejoin="round" stroke-miterlimit="10" d="
	M101.2,272.2c4.1,4.1,10.8,4.1,14.9,0c4.1-4.1,4.1-10.8,0-14.9c-4.1-4.1-10.8-4.1-14.9,0l-14.7,14.9c-4.1,4.1-10.8,4.1-14.9,0
	c-4.1-4.1-4.1-10.8,0-14.9c4.1-4.1,10.8-4.1,14.9,0"/>
<path fill="#A9D8F4" stroke="#5AB3E5" stroke-width="5.8085" stroke-linecap="round" stroke-linejoin="round" stroke-miterlimit="10" d="
	M362.5,272.2c-4.1,4.1-10.8,4.1-14.9,0c-4.1-4.1-4.1-10.8,0-14.9c4.1-4.1,10.8-4.1,14.9,0l14.7,14.9c4.1,4.1,10.8,4.1,14.9,0
	c4.1-4.1,4.1-10.8,0-14.9c-4.1-4.1-10.8-4.1-14.9,0"/>
<line fill="none" stroke="#5AB3E5" stroke-width="5.8085" stroke-linecap="round" stroke-linejoin="round" stroke-miterlimit="10" x1="404.9" y1="264.7" x2="411.1" y2="264.7"/>
<line fill="none" stroke="#5AB3E5" stroke-width="5.8085" stroke-linecap="round" stroke-linejoin="round" stroke-miterlimit="10" x1="51.4" y1="264.7" x2="58" y2="264.7"/>
</svg>
