<?xml version="1.0" encoding="UTF-8" standalone="no"?>
<svg width="1542px" height="1781px" viewBox="0 0 1542 1781" version="1.1" xmlns="http://www.w3.org/2000/svg" xmlns:xlink="http://www.w3.org/1999/xlink" xmlns:sketch="http://www.bohemiancoding.com/sketch/ns">
    <!-- Generator: Sketch 3.2.2 (9983) - http://www.bohemiancoding.com/sketch -->
    <title>Group</title>
    <desc>Created with Sketch.</desc>
    <defs>
        <polygon id="path-1" points="771.762609 0.310298765 1542.52522 445.310299 1542.52522 1335.3103 771.762609 1780.3103 1 1335.3103 1 445.310299 "></polygon>
        <path d="M771.762609,1780.3103 L1,1335.3103 L1,445.310299 L771.762609,0.310298765 L1542.52522,445.310299 L1542.52522,1335.3103 L771.762609,1780.3103 Z M773.762609,1700.3103 L74.0140831,1296.3103 L74.0140831,488.310299 L773.762609,84.3102988 L1473.51114,488.310299 L1473.51114,1296.3103 L773.762609,1700.3103 Z" id="path-2"></path>
        <path d="M438.39541,814.947655 L403.494098,792.015862 L403.625115,792.015862 L395.392918,714.721172 C398.37718,708.096069 412.017443,694.453586 417.629311,689.512 L385.457508,671.380138 L386.83318,671.380138 L379.350689,594.085448 C382.058361,587.460345 395.116328,573.817862 400.196852,568.876276 L370.317836,550.749862 L370.033967,550.749862 L363.308459,473.444276 C365.739541,466.830069 378.186098,453.187586 382.771672,448.240552 L355.192721,430.10869 L355.913311,430.10869 L349.81377,365.819034 C352.03377,360.305379 363.978098,348.962069 368.119672,344.859517 L342.455016,329.773241 L342.556918,329.773241 L337.068787,265.478138 C339.055869,259.969931 345.76682,248.621172 349.508066,244.513172 L320.917377,229.426897 L306.942295,229.426897 L306.942295,219.069724 C306.840393,199.652069 312.954492,151.576483 312.954492,151.576483 C312.954492,151.576483 252.80341,126.449034 243.566754,107.478138 C243.566754,107.478138 237.525443,96.2165517 228.208721,91.9124138 C229.875541,89.1882759 230.88,85.8484828 230.88,82.2253793 C230.88,77.1530345 228.943869,72.620069 225.908656,69.5853793 C228.943869,67.7384138 230.88,64.9761379 230.88,61.876069 C230.88,59.1682759 229.395148,56.7111034 226.985902,54.9022759 C228.317902,53.4966207 229.096721,51.7967586 229.096721,49.9715862 C229.096721,47.7813793 227.93941,45.7927586 226.112459,44.2672414 C222.494951,36.4925517 216.919475,21.2755172 216.919475,1.39475862 C216.919475,21.2755172 211.322164,36.4925517 207.711934,44.2672414 C205.884984,45.7927586 204.734951,47.7813793 204.734951,49.9715862 C204.734951,51.7967586 205.506492,53.4966207 206.831213,54.9022759 C204.429246,56.7111034 202.951672,59.1682759 202.951672,61.876069 C202.951672,64.9761379 204.880525,67.7384138 207.915738,69.5853793 C204.880525,72.620069 202.951672,77.1530345 202.951672,82.2253793 C202.951672,86.2734483 204.189049,89.9782759 206.219803,92.844069 C197.91482,97.6385517 192.630492,107.478138 192.630492,107.478138 C183.401115,126.449034 123.242754,151.576483 123.242754,151.576483 C129.182164,166.134276 132.210098,215.092483 132.210098,215.092483 L132.210098,229.426897 L118.235016,229.426897 L89.6443279,244.513172 C93.3710164,248.621172 100.096525,259.969931 102.083607,265.47269 L96.580918,329.773241 L96.6828197,329.773241 L71.0181639,344.859517 C75.1670164,348.962069 87.118623,360.305379 89.3095082,365.819034 L83.2245246,430.10869 L83.9596721,430.10869 L56.3661639,448.240552 C60.944459,453.187586 73.3910164,466.824621 75.8148197,473.438828 L69.1038689,550.749862 L68.82,550.749862 L38.9482623,568.876276 C44.0142295,573.817862 57.0794754,587.454897 59.7871475,594.074552 L52.297377,671.380138 L53.6876066,671.380138 L21.5158033,689.512 C27.1058361,694.453586 40.7606557,708.090621 43.7376393,714.715724 L35.5054426,792.015862 L35.6437377,792.015862 L0.749704918,814.947655 C6.95114754,821.202276 21.312,838.462414 24.6238033,846.836414 L15.4890492,944.627517 L423.648787,944.627517 L414.514033,846.836414 C417.825836,838.462414 432.186689,821.202276 438.39541,814.947655 L438.39541,814.947655 Z M231.673377,407.057034 L231.673377,427.504414 L207.464459,427.504414 L207.464459,407.057034 C207.464459,399.652828 219.568918,399.652828 219.568918,399.652828 C229.904656,399.652828 231.673377,407.057034 231.673377,407.057034 L231.673377,407.057034 Z M219.568918,514.132 C230.967344,514.132 232.918033,523.034483 232.918033,523.034483 L232.918033,547.611655 L206.205246,547.611655 L206.205246,523.034483 C206.205246,514.132 219.568918,514.132 219.568918,514.132 L219.568918,514.132 Z M219.568918,634.773172 C232.233836,634.773172 234.410164,643.664759 234.410164,643.664759 L234.410164,668.247379 L204.720393,668.247379 L204.720393,643.664759 C204.720393,634.773172 219.568918,634.773172 219.568918,634.773172 L219.568918,634.773172 Z M219.568918,755.403448 C233.514885,755.403448 235.902295,764.300483 235.902295,764.300483 L235.902295,788.877655 L203.228262,788.877655 L203.228262,764.300483 C203.228262,755.403448 219.568918,755.403448 219.568918,755.403448 L219.568918,755.403448 Z M230.093902,222.687379 L209.043934,222.687379 L209.043934,202.24 C209.043934,194.84669 219.568918,194.84669 219.568918,194.84669 C228.55082,194.84669 230.093902,202.24 230.093902,202.24 L230.093902,222.687379 L230.093902,222.687379 Z M219.568918,299.322828 C228.892918,299.322828 230.49423,306.716138 230.49423,306.716138 L230.49423,327.168966 L208.658164,327.168966 L208.658164,306.716138 C208.658164,299.322828 219.568918,299.322828 219.568918,299.322828 L219.568918,299.322828 Z M237.685574,940.655724 L201.452262,940.655724 L201.452262,909.556966 C201.452262,898.311724 219.568918,898.311724 219.568918,898.311724 C235.036131,898.311724 237.685574,909.556966 237.685574,909.556966 L237.685574,940.655724 L237.685574,940.655724 Z" id="path-3"></path>
    </defs>
    <g id="Page-1" stroke="none" stroke-width="1" fill="none" fill-rule="evenodd" sketch:type="MSPage">
        <g id="Group" sketch:type="MSLayerGroup" transform="translate(-1.000000, 0.000000)">
            <g id="Polygon-12">
                <use fill="#E1CC9B" sketch:type="MSShapeGroup" xlink:href="#path-1"></use>
                <use fill-opacity="0.03" fill="none" xlink:href="#path-1"></use>
            </g>
            <g id="Polygon-11">
                <use fill="#53564E" sketch:type="MSShapeGroup" xlink:href="#path-2"></use>
                <use fill-opacity="0.5" fill="none" xlink:href="#path-2"></use>
            </g>
            <g id="Group-7" transform="translate(465.000000, 1382.000000)">
                <g id="Group-2" transform="translate(15.334918, 71.000000)" stroke="#4A4A4A" stroke-width="14.4" sketch:type="MSShapeGroup" stroke-linecap="square">
                    <path d="M290.775194,189.6 L156.20155,7.2" id="Line"></path>
                    <path d="M290.775194,189.6 L415.736434,12" id="Line"></path>
                    <path d="M290.775194,189.6 L290.775194,2.4" id="Line-3" transform="translate(290.775194, 96.000000) scale(-1, 1) translate(-290.775194, -96.000000) "></path>
                    <path d="M290.775194,189.6 L574.341085,7.2" id="Line-2"></path>
                    <path d="M285.968992,189.6 L2.40310078,7.2" id="Line-4"></path>
                </g>
                <text id="X" sketch:type="MSTextLayer" font-family="Lato" font-size="57.6" font-weight="bold" fill="#313131">
                    <tspan x="0.916313582" y="57.8">X</tspan>
                </text>
                <text id="I" sketch:type="MSTextLayer" font-family="Lato" font-size="57.6" font-weight="bold" fill="#313131">
                    <tspan x="156.908562" y="57">I</tspan>
                </text>
                <text id="A" sketch:type="MSTextLayer" font-family="Lato" font-size="57.6" font-weight="bold" fill="#313131">
                    <tspan x="414.249647" y="57">A</tspan>
                </text>
                <text id="N" sketch:type="MSTextLayer" font-family="Lato" font-size="57.6" font-weight="bold" fill="#313131">
                    <tspan x="572.854298" y="57">N</tspan>
                </text>
                <ellipse id="Oval-2" fill="#000000" sketch:type="MSShapeGroup" cx="306.110112" cy="35" rx="7.20930233" ry="7.2"></ellipse>
            </g>
            <g id="Imported-Layers-10" transform="translate(557.000000, 181.000000)">
                <g id="Fill-1">
                    <use fill="#53564E" fill-rule="evenodd" sketch:type="MSShapeGroup" xlink:href="#path-3"></use>
                    <use fill="none" xlink:href="#path-3"></use>
                </g>
                <path d="M219.568918,153.178276 L129.822689,153.178276 C131.176525,155.935103 132.25377,163.807862 132.25377,163.807862 C132.25377,163.807862 206.503672,153.276345 305.348262,163.807862 C305.348262,163.807862 307.961311,155.935103 309.315148,153.178276 L219.568918,153.178276" id="Fill-2" fill="#E1CC9B" sketch:type="MSShapeGroup"></path>
                <path d="M341.748984,244.513172 L97.3670164,244.513172 C97.4980328,244.785586 97.3815738,245.346759 97.3815738,245.346759 C98.7354098,248.109034 102.280131,254.162069 102.280131,254.162069 C102.280131,254.162069 220.173049,244.262552 337.316262,254.162069 C337.316262,254.162069 340.424262,248.109034 341.763541,245.346759 C341.763541,245.346759 341.617967,244.785586 341.748984,244.513172" id="Fill-3" fill="#E1CC9B" sketch:type="MSShapeGroup"></path>
                <path d="M219.568918,344.859517 L81.4994754,344.859517 C84.9932459,348.161172 91.6605246,354.726345 91.6605246,354.726345 C91.6605246,354.726345 230.792656,344.826828 347.935869,354.726345 C347.935869,354.726345 353.686033,347.420207 357.194361,344.859517 L219.568918,344.859517" id="Fill-4" fill="#E1CC9B" sketch:type="MSShapeGroup"></path>
                <path d="M219.568918,448.240552 L65.0714754,448.240552 C68.8563934,450.784897 74.6793443,459.267862 74.6793443,459.267862 C74.6793443,459.267862 246.259869,449.357448 363.403082,459.267862 C363.403082,459.267862 368.498164,451.542207 372.268525,448.240552 L219.568918,448.240552" id="Fill-5" fill="#E1CC9B" sketch:type="MSShapeGroup"></path>
                <path d="M219.663541,568.876276 L49.167541,568.876276 C53.3527869,571.426069 57.0940328,581.058621 57.0940328,581.058621 C57.0940328,581.058621 250.212197,571.153655 379.481705,581.058621 C379.481705,581.058621 384.023607,572.177931 388.187016,568.876276 L219.663541,568.876276" id="Fill-6" fill="#E1CC9B" sketch:type="MSShapeGroup"></path>
                <path d="M219.750885,689.512 L33.1908197,689.512 C37.7691148,692.061793 43.1407869,702.282759 43.1407869,702.282759 C43.1407869,702.282759 253.174623,692.377793 394.635934,702.282759 C394.635934,702.282759 399.585443,692.819103 404.156459,689.512 L219.750885,689.512" id="Fill-7" fill="#E1CC9B" sketch:type="MSShapeGroup"></path>
                <path d="M219.750885,814.947655 L14.7539016,814.947655 C19.3321967,817.502897 24.9440656,828.726345 24.9440656,828.726345 C24.9440656,828.726345 275.61482,818.826828 417.076131,828.726345 C417.076131,828.726345 422.913639,818.260207 427.484656,814.947655 L219.750885,814.947655" id="Fill-8" fill="#E1CC9B" sketch:type="MSShapeGroup"></path>
            </g>
            <g id="Imported-Layers-+-Imported-Layers-6" transform="translate(77.000000, 1289.000000)" stroke="#53564E" stroke-width="2" sketch:type="MSShapeGroup">
                <path d="M0,29.752 L25.0262069,29.752 L25.0262069,7.496 L8.424,7.496 L8.424,14.872 L17.6673103,14.872 L17.6673103,22.752 L1.06510345,22.752 L1.06510345,0 L55.6535172,0 L55.6535172,22.752 L39.0587586,22.752 L39.0587586,14.872 L48.2946207,14.872 L48.2946207,7.496 L31.6924138,7.496 L31.6924138,29.752 L88.992,29.752 L88.992,7.496 L72.3972414,7.496 L72.3972414,14.872 L81.6256552,14.872 L81.6256552,22.752 L65.0383448,22.752 L65.0383448,0 L119.626759,0 L119.626759,22.752 L103.024552,22.752 L103.024552,14.872 L112.267862,14.872 L112.267862,7.496 L95.6656552,7.496 L95.6656552,29.752 L153.665379,29.752 L153.665379,7.496 L137.070621,7.496 L137.070621,14.872 L146.306483,14.872 L146.306483,22.752 L129.704276,22.752 L129.704276,0 L184.300138,0 L184.300138,22.752 L167.705379,22.752 L167.705379,14.872 L176.933793,14.872 L176.933793,7.496 L160.346483,7.496 L160.346483,29.752 L217.638621,29.752 L217.638621,7.496 L201.043862,7.496 L201.043862,14.872 L210.272276,14.872 L210.272276,22.752 L193.670069,22.752 L193.670069,0 L248.265931,0 L248.265931,22.752 L231.671172,22.752 L231.671172,14.872 L240.907034,14.872 L240.907034,7.496 L224.312276,7.496 L224.312276,29.752 L281.567172,29.752 L281.567172,7.496 L264.972414,7.496 L264.972414,14.872 L274.208276,14.872 L274.208276,22.752 L257.613517,22.752 L257.613517,0 L312.201931,0 L312.201931,22.752 L295.607172,22.752 L295.607172,14.872 L304.843034,14.872 L304.843034,7.496 L288.248276,7.496 L288.248276,29.752 L345.547862,29.752 L345.547862,7.496 L328.945655,7.496 L328.945655,14.872 L338.181517,14.872 L338.181517,22.752 L321.571862,22.752 L321.571862,0 L376.167724,0 L376.167724,22.752 L359.572966,22.752 L359.572966,14.872 L368.808828,14.872 L368.808828,7.496 L352.214069,7.496 L352.214069,29.752 L410.213793,29.752 L410.213793,7.496 L393.611586,7.496 L393.611586,14.872 L402.847448,14.872 L402.847448,22.752 L386.25269,22.752 L386.25269,0 L440.848552,0 L440.848552,22.752 L424.246345,22.752 L424.246345,14.872 L433.489655,14.872 L433.489655,7.496 L416.887448,7.496 L416.887448,29.752 L474.187034,29.752 L474.187034,7.496 L457.592276,7.496 L457.592276,14.872 L466.82069,14.872 L466.82069,22.752 L450.233379,22.752 L450.233379,0 L504.814345,0 L504.814345,22.752 L488.219586,22.752 L488.219586,14.872 L497.455448,14.872 L497.455448,7.496 L480.86069,7.496 L480.86069,29.752 L538.31669,29.752 L538.31669,7.496 L521.714483,7.496 L521.714483,14.872 L530.957793,14.872 L530.957793,22.752 L514.355586,22.752 L514.355586,0 L568.951448,0 L568.951448,22.752 L552.35669,22.752 L552.35669,14.872 L561.585103,14.872 L561.585103,7.496 L544.990345,7.496 L544.990345,29.752 L602.289931,29.752 L602.289931,7.496 L585.695172,7.496 L585.695172,14.872 L594.923586,14.872 L594.923586,22.752 L578.328828,22.752 L578.328828,0 L632.917241,0 L632.917241,22.752 L616.322483,22.752 L616.322483,14.872 L625.558345,14.872 L625.558345,7.496 L608.956138,7.496 L608.956138,29.752 L666.955862,29.752 L666.955862,7.496 L650.361103,7.496 L650.361103,14.872 L659.596966,14.872 L659.596966,22.752 L643.002207,22.752 L643.002207,0 L697.598069,0 L697.598069,22.752 L680.995862,22.752 L680.995862,14.872 L690.231724,14.872 L690.231724,7.496 L673.636966,7.496 L673.636966,29.752 L699.586759,29.752" id="Imported-Layers"></path>
                <path d="M696.413793,29.752 L721.44,29.752 L721.44,7.496 L704.837793,7.496 L704.837793,14.872 L714.081103,14.872 L714.081103,22.752 L697.478897,22.752 L697.478897,0 L752.06731,0 L752.06731,22.752 L735.472552,22.752 L735.472552,14.872 L744.708414,14.872 L744.708414,7.496 L728.106207,7.496 L728.106207,29.752 L785.405793,29.752 L785.405793,7.496 L768.811034,7.496 L768.811034,14.872 L778.039448,14.872 L778.039448,22.752 L761.452138,22.752 L761.452138,0 L816.040552,0 L816.040552,22.752 L799.438345,22.752 L799.438345,14.872 L808.681655,14.872 L808.681655,7.496 L792.079448,7.496 L792.079448,29.752 L850.079172,29.752 L850.079172,7.496 L833.484414,7.496 L833.484414,14.872 L842.720276,14.872 L842.720276,22.752 L826.118069,22.752 L826.118069,0 L880.713931,0 L880.713931,22.752 L864.119172,22.752 L864.119172,14.872 L873.347586,14.872 L873.347586,7.496 L856.760276,7.496 L856.760276,29.752 L914.052414,29.752 L914.052414,7.496 L897.457655,7.496 L897.457655,14.872 L906.686069,14.872 L906.686069,22.752 L890.083862,22.752 L890.083862,0 L944.679724,0 L944.679724,22.752 L928.084966,22.752 L928.084966,14.872 L937.320828,14.872 L937.320828,7.496 L920.726069,7.496 L920.726069,29.752 L977.980966,29.752 L977.980966,7.496 L961.386207,7.496 L961.386207,14.872 L970.622069,14.872 L970.622069,22.752 L954.02731,22.752 L954.02731,0 L1008.61572,0 L1008.61572,22.752 L992.020966,22.752 L992.020966,14.872 L1001.25683,14.872 L1001.25683,7.496 L984.662069,7.496 L984.662069,29.752 L1041.96166,29.752 L1041.96166,7.496 L1025.35945,7.496 L1025.35945,14.872 L1034.59531,14.872 L1034.59531,22.752 L1017.98566,22.752 L1017.98566,0 L1072.58152,0 L1072.58152,22.752 L1055.98676,22.752 L1055.98676,14.872 L1065.22262,14.872 L1065.22262,7.496 L1048.62786,7.496 L1048.62786,29.752 L1106.62759,29.752 L1106.62759,7.496 L1090.02538,7.496 L1090.02538,14.872 L1099.26124,14.872 L1099.26124,22.752 L1082.66648,22.752 L1082.66648,0 L1137.26234,0 L1137.26234,22.752 L1120.66014,22.752 L1120.66014,14.872 L1129.90345,14.872 L1129.90345,7.496 L1113.30124,7.496 L1113.30124,29.752 L1170.60083,29.752 L1170.60083,7.496 L1154.00607,7.496 L1154.00607,14.872 L1163.23448,14.872 L1163.23448,22.752 L1146.64717,22.752 L1146.64717,0 L1201.22814,0 L1201.22814,22.752 L1184.63338,22.752 L1184.63338,14.872 L1193.86924,14.872 L1193.86924,7.496 L1177.27448,7.496 L1177.27448,29.752 L1234.73048,29.752 L1234.73048,7.496 L1218.12828,7.496 L1218.12828,14.872 L1227.37159,14.872 L1227.37159,22.752 L1210.76938,22.752 L1210.76938,0 L1265.36524,0 L1265.36524,22.752 L1248.77048,22.752 L1248.77048,14.872 L1257.9989,14.872 L1257.9989,7.496 L1241.40414,7.496 L1241.40414,29.752 L1298.70372,29.752 L1298.70372,7.496 L1282.10897,7.496 L1282.10897,14.872 L1291.33738,14.872 L1291.33738,22.752 L1274.74262,22.752 L1274.74262,0 L1329.33103,0 L1329.33103,22.752 L1312.73628,22.752 L1312.73628,14.872 L1321.97214,14.872 L1321.97214,7.496 L1305.36993,7.496 L1305.36993,29.752 L1363.36966,29.752 L1363.36966,7.496 L1346.7749,7.496 L1346.7749,14.872 L1356.01076,14.872 L1356.01076,22.752 L1339.416,22.752 L1339.416,0 L1394.01186,0 L1394.01186,22.752 L1377.40966,22.752 L1377.40966,14.872 L1386.64552,14.872 L1386.64552,7.496 L1370.05076,7.496 L1370.05076,29.752 L1396.00055,29.752" id="Imported-Layers-6"></path>
            </g>
            <g id="Group-5" transform="translate(77.000000, 997.000000)" sketch:type="MSShapeGroup">
                <g id="Imported-Layers" transform="translate(978.856086, 3.310299)">
                    <path d="M258.591273,217.733659 L231.859636,217.733659 L231.859636,210.386537 L223.481455,210.386537 L223.481455,154.452976 C268.893818,147.981756 279.039273,131.659902 279.039273,131.659902 C283.104,127.450341 282.802909,122.371415 282.802909,122.371415 C268.2,131.659902 222.984,118.070341 222.984,118.070341 L222.912,118.070341 L222.984,118.070341 L222.984,85.6227317 C252.418909,77.563122 259.376727,63.058439 259.376727,63.058439 C262.8,58.3847805 262.544727,52.8352195 262.544727,52.8352195 C254.304,59.6986341 222.231273,50.4493659 222.231273,50.4493659 C222.231273,50.4493659 198.857455,38.1148293 205.206545,3.50360976 C205.206545,3.50360976 191.448,15.0210732 143.908364,15.3675122 L143.037818,15.3675122 C95.5309091,15.0210732 81.7658182,3.50360976 81.7658182,3.50360976 C88.1083636,38.1148293 64.7214545,50.4493659 64.7214545,50.4493659 C64.7214545,50.4493659 32.6552727,59.6986341 24.4210909,52.8352195 C24.4210909,52.8352195 24.1658182,58.3847805 27.5825455,63.058439 C27.5825455,63.058439 34.5403636,77.563122 63.9621818,85.6227317 L63.9621818,118.070341 L64.0407273,118.070341 L63.9621818,118.070341 C63.9621818,118.070341 18.7723636,131.659902 4.16945455,122.371415 C4.16945455,122.371415 3.86181818,127.450341 7.92,131.659902 C7.92,131.659902 17.8756364,147.674537 62.2341818,154.283024 L62.2341818,210.386537 L53.064,210.386537 L53.064,217.733659 L26.3585455,217.733659 L26.3585455,232.440976 L2.72290909,232.440976 L2.72290909,263.790439 L282.233455,263.790439 L282.233455,232.440976 L258.591273,232.440976 L258.591273,217.733659" id="Fill-1" fill="#53564E"></path>
                    <path d="M77.7730909,70.4320976 C77.7730909,70.4320976 34.8021818,70.3209756 24.6763636,50.6000976 C24.6763636,50.6000976 27.3403636,79.1126829 88.3636364,79.1126829 L198.366545,79.1126829 C259.376727,79.1126829 262.034182,50.6000976 262.034182,50.6000976 C251.928,70.3209756 208.924364,70.4320976 208.924364,70.4320976 L77.7730909,70.4320976 Z" id="Fill-2" fill="#E1CC9B"></path>
                    <path d="M220.176,138.844 L66.5345455,138.844 C66.5345455,138.850537 16.1476364,138.732878 4.28727273,119.005463 C4.28727273,119.005463 7.40290909,147.531122 78.9185455,147.531122 L207.811636,147.531122 C279.307636,147.531122 282.423273,119.005463 282.423273,119.005463 C270.576,138.732878 220.176,138.844 220.176,138.844" id="Fill-3" fill="#E1CC9B"></path>
                    <path d="M115.579636,171.396195 L169.939636,171.396195 L169.939636,206.386537 L115.579636,206.386537 L115.579636,171.396195 Z" id="Fill-4" fill="#E1CC9B"></path>
                    <path d="M196.717091,89.8457561 L207.556364,89.8457561 L207.556364,104.683805 L196.717091,104.683805 L196.717091,89.8457561 Z" id="Fill-5" fill="#E1CC9B"></path>
                    <path d="M196.717091,174.056585 L207.556364,174.056585 L207.556364,188.914244 L196.717091,188.914244 L196.717091,174.056585 Z" id="Fill-6" fill="#E1CC9B"></path>
                    <path d="M80.9607273,174.056585 L91.8261818,174.056585 L91.8261818,188.914244 L80.9607273,188.914244 L80.9607273,174.056585 Z" id="Fill-7" fill="#E1CC9B"></path>
                    <path d="M167.904,89.8457561 L178.730182,89.8457561 L178.730182,104.683805 L167.904,104.683805 L167.904,89.8457561 Z" id="Fill-8" fill="#E1CC9B"></path>
                    <path d="M139.090909,89.8457561 L149.949818,89.8457561 L149.949818,104.683805 L139.090909,104.683805 L139.090909,89.8457561 Z" id="Fill-9" fill="#E1CC9B"></path>
                    <path d="M110.277818,89.8457561 L121.130182,89.8457561 L121.130182,104.683805 L110.277818,104.683805 L110.277818,89.8457561 Z" id="Fill-10" fill="#E1CC9B"></path>
                    <path d="M81.4581818,89.8457561 L92.2974545,89.8457561 L92.2974545,104.683805 L81.4581818,104.683805 L81.4581818,89.8457561 Z" id="Fill-11" fill="#E1CC9B"></path>
                </g>
                <g id="Imported-Layers-5" transform="translate(126.856086, 3.310299)">
                    <path d="M258.591273,217.733659 L231.859636,217.733659 L231.859636,210.386537 L223.481455,210.386537 L223.481455,154.452976 C268.893818,147.981756 279.039273,131.659902 279.039273,131.659902 C283.104,127.450341 282.802909,122.371415 282.802909,122.371415 C268.2,131.659902 222.984,118.070341 222.984,118.070341 L222.912,118.070341 L222.984,118.070341 L222.984,85.6227317 C252.418909,77.563122 259.376727,63.058439 259.376727,63.058439 C262.8,58.3847805 262.544727,52.8352195 262.544727,52.8352195 C254.304,59.6986341 222.231273,50.4493659 222.231273,50.4493659 C222.231273,50.4493659 198.857455,38.1148293 205.206545,3.50360976 C205.206545,3.50360976 191.448,15.0210732 143.908364,15.3675122 L143.037818,15.3675122 C95.5309091,15.0210732 81.7658182,3.50360976 81.7658182,3.50360976 C88.1083636,38.1148293 64.7214545,50.4493659 64.7214545,50.4493659 C64.7214545,50.4493659 32.6552727,59.6986341 24.4210909,52.8352195 C24.4210909,52.8352195 24.1658182,58.3847805 27.5825455,63.058439 C27.5825455,63.058439 34.5403636,77.563122 63.9621818,85.6227317 L63.9621818,118.070341 L64.0407273,118.070341 L63.9621818,118.070341 C63.9621818,118.070341 18.7723636,131.659902 4.16945455,122.371415 C4.16945455,122.371415 3.86181818,127.450341 7.92,131.659902 C7.92,131.659902 17.8756364,147.674537 62.2341818,154.283024 L62.2341818,210.386537 L53.064,210.386537 L53.064,217.733659 L26.3585455,217.733659 L26.3585455,232.440976 L2.72290909,232.440976 L2.72290909,263.790439 L282.233455,263.790439 L282.233455,232.440976 L258.591273,232.440976 L258.591273,217.733659" id="Fill-1" fill="#53564E"></path>
                    <path d="M77.7730909,70.4320976 C77.7730909,70.4320976 34.8021818,70.3209756 24.6763636,50.6000976 C24.6763636,50.6000976 27.3403636,79.1126829 88.3636364,79.1126829 L198.366545,79.1126829 C259.376727,79.1126829 262.034182,50.6000976 262.034182,50.6000976 C251.928,70.3209756 208.924364,70.4320976 208.924364,70.4320976 L77.7730909,70.4320976 Z" id="Fill-2" fill="#E1CC9B"></path>
                    <path d="M220.176,138.844 L66.5345455,138.844 C66.5345455,138.850537 16.1476364,138.732878 4.28727273,119.005463 C4.28727273,119.005463 7.40290909,147.531122 78.9185455,147.531122 L207.811636,147.531122 C279.307636,147.531122 282.423273,119.005463 282.423273,119.005463 C270.576,138.732878 220.176,138.844 220.176,138.844" id="Fill-3" fill="#E1CC9B"></path>
                    <path d="M115.579636,171.396195 L169.939636,171.396195 L169.939636,206.386537 L115.579636,206.386537 L115.579636,171.396195 Z" id="Fill-4" fill="#E1CC9B"></path>
                    <path d="M196.717091,89.8457561 L207.556364,89.8457561 L207.556364,104.683805 L196.717091,104.683805 L196.717091,89.8457561 Z" id="Fill-5" fill="#E1CC9B"></path>
                    <path d="M196.717091,174.056585 L207.556364,174.056585 L207.556364,188.914244 L196.717091,188.914244 L196.717091,174.056585 Z" id="Fill-6" fill="#E1CC9B"></path>
                    <path d="M80.9607273,174.056585 L91.8261818,174.056585 L91.8261818,188.914244 L80.9607273,188.914244 L80.9607273,174.056585 Z" id="Fill-7" fill="#E1CC9B"></path>
                    <path d="M167.904,89.8457561 L178.730182,89.8457561 L178.730182,104.683805 L167.904,104.683805 L167.904,89.8457561 Z" id="Fill-8" fill="#E1CC9B"></path>
                    <path d="M139.090909,89.8457561 L149.949818,89.8457561 L149.949818,104.683805 L139.090909,104.683805 L139.090909,89.8457561 Z" id="Fill-9" fill="#E1CC9B"></path>
                    <path d="M110.277818,89.8457561 L121.130182,89.8457561 L121.130182,104.683805 L110.277818,104.683805 L110.277818,89.8457561 Z" id="Fill-10" fill="#E1CC9B"></path>
                    <path d="M81.4581818,89.8457561 L92.2974545,89.8457561 L92.2974545,104.683805 L81.4581818,104.683805 L81.4581818,89.8457561 Z" id="Fill-11" fill="#E1CC9B"></path>
                </g>
                <g id="Imported-Layers" transform="translate(1230.856086, 115.310299)">
                    <path d="M105.408,77.6083633 L105.408,50.3569573 C110.328,49.6169031 124.1,46.6764741 132.964,36.1732456 C132.964,36.1732456 98.428,55.6006565 78.26,8.85456197 C79.224,7.97995251 79.86,6.57899438 79.86,4.96828827 C79.86,2.30884232 78.124,0.152 76,0.152 C73.876,0.152 72.156,2.30884232 72.156,4.96828827 C72.156,6.53546178 72.76,7.92058988 73.684,8.80311435 L73.624,8.80311435 C53.456,55.6204441 18.892,36.1732456 18.892,36.1732456 C28.132,47.1157576 42.712,49.8543537 47.024,50.4440225 L47.024,77.2403149 C24.588,91.5704545 2.024,78.8787236 2.024,78.8787236 C13.992,93.0584778 32.868,96.6004482 38.476,97.3602899 L38.476,152.152 L114.124,152.152 L114.124,97.2494797 C120.504,96.2917625 138.348,92.484639 149.836,78.8787236 C149.836,78.8787236 127.656,91.3527915 105.408,77.6083633 L105.408,77.6083633 Z M89.652,59.008 L98.876,59.008 L98.876,70.38 L89.652,70.38 L89.652,59.008 Z M89.652,71.84 L98.876,71.84 L98.876,74.512 L89.652,74.512 L89.652,71.84 Z M71.532,59.008 L80.9,59.008 L80.9,70.38 L71.532,70.38 L71.532,59.008 Z M71.532,71.84 L80.9,71.84 L80.9,74.512 L71.532,74.512 L71.532,71.84 Z M53.564,59.008 L62.784,59.008 L62.784,70.38 L53.564,70.38 L53.564,59.008 Z M53.564,71.84 L62.644,71.84 L62.644,74.512 L53.564,74.512 L53.564,71.84 Z M46.94,140.104 L58.788,140.104 L58.788,143.56 L46.94,143.56 L46.94,140.104 Z M46.94,111.976 L58.788,111.976 L58.788,138.22 L46.94,138.22 L46.94,111.976 Z M71.28,140.104 L81.328,140.104 L81.328,143.56 L71.28,143.56 L71.28,140.104 Z M71.424,111.976 L81.188,111.976 L81.188,138.22 L71.424,138.22 L71.424,111.976 Z M94.096,140.104 L105.668,140.104 L105.668,143.56 L94.096,143.56 L94.096,140.104 Z M93.96,111.976 L105.668,111.976 L105.668,138.22 L93.96,138.22 L93.96,111.976 Z" id="Fill-1" fill="#53564E"></path>
                    <path d="M99.484,47.796 L99.484,50.956 C99.484,50.956 120.776,50.096 132.964,36.56 C132.964,36.56 119.572,46.036 99.484,47.796" id="Fill-2" fill="#E1CC9B"></path>
                    <path d="M52.364,50.956 L52.364,47.796 C32.28,46.036 18.888,36.56 18.888,36.56 C31.076,50.096 52.364,50.956 52.364,50.956" id="Fill-3" fill="#E1CC9B"></path>
                    <path d="M52.364,50.956 L99.48,50.956 L99.48,47.796 L52.364,47.796 L52.364,50.956 Z" id="Fill-4" fill="#E1CC9B"></path>
                    <path d="M114.704,92.3 L114.704,95.46 C114.704,95.46 136.008,94.604 148.188,81.068 C148.188,81.068 134.788,90.544 114.704,92.3" id="Fill-5" fill="#E1CC9B"></path>
                    <path d="M37.076,95.46 L37.076,92.3 C16.992,90.544 3.592,81.068 3.592,81.068 C15.78,94.604 37.076,95.46 37.076,95.46" id="Fill-6" fill="#E1CC9B"></path>
                    <path d="M37.076,95.46 L114.704,95.46 L114.704,92.3 L37.076,92.3 L37.076,95.46 Z" id="Fill-7" fill="#E1CC9B"></path>
                </g>
                <g id="Imported-Layers-7" transform="translate(2.856086, 115.310299)">
                    <path d="M105.408,77.6083633 L105.408,50.3569573 C110.328,49.6169031 124.1,46.6764741 132.964,36.1732456 C132.964,36.1732456 98.428,55.6006565 78.26,8.85456197 C79.224,7.97995251 79.86,6.57899438 79.86,4.96828827 C79.86,2.30884232 78.124,0.152 76,0.152 C73.876,0.152 72.156,2.30884232 72.156,4.96828827 C72.156,6.53546178 72.76,7.92058988 73.684,8.80311435 L73.624,8.80311435 C53.456,55.6204441 18.892,36.1732456 18.892,36.1732456 C28.132,47.1157576 42.712,49.8543537 47.024,50.4440225 L47.024,77.2403149 C24.588,91.5704545 2.024,78.8787236 2.024,78.8787236 C13.992,93.0584778 32.868,96.6004482 38.476,97.3602899 L38.476,152.152 L114.124,152.152 L114.124,97.2494797 C120.504,96.2917625 138.348,92.484639 149.836,78.8787236 C149.836,78.8787236 127.656,91.3527915 105.408,77.6083633 L105.408,77.6083633 Z M89.652,59.008 L98.876,59.008 L98.876,70.38 L89.652,70.38 L89.652,59.008 Z M89.652,71.84 L98.876,71.84 L98.876,74.512 L89.652,74.512 L89.652,71.84 Z M71.532,59.008 L80.9,59.008 L80.9,70.38 L71.532,70.38 L71.532,59.008 Z M71.532,71.84 L80.9,71.84 L80.9,74.512 L71.532,74.512 L71.532,71.84 Z M53.564,59.008 L62.784,59.008 L62.784,70.38 L53.564,70.38 L53.564,59.008 Z M53.564,71.84 L62.644,71.84 L62.644,74.512 L53.564,74.512 L53.564,71.84 Z M46.94,140.104 L58.788,140.104 L58.788,143.56 L46.94,143.56 L46.94,140.104 Z M46.94,111.976 L58.788,111.976 L58.788,138.22 L46.94,138.22 L46.94,111.976 Z M71.28,140.104 L81.328,140.104 L81.328,143.56 L71.28,143.56 L71.28,140.104 Z M71.424,111.976 L81.188,111.976 L81.188,138.22 L71.424,138.22 L71.424,111.976 Z M94.096,140.104 L105.668,140.104 L105.668,143.56 L94.096,143.56 L94.096,140.104 Z M93.96,111.976 L105.668,111.976 L105.668,138.22 L93.96,138.22 L93.96,111.976 Z" id="Fill-1" fill="#53564E"></path>
                    <path d="M99.484,47.796 L99.484,50.956 C99.484,50.956 120.776,50.096 132.964,36.56 C132.964,36.56 119.572,46.036 99.484,47.796" id="Fill-2" fill="#E1CC9B"></path>
                    <path d="M52.364,50.956 L52.364,47.796 C32.28,46.036 18.888,36.56 18.888,36.56 C31.076,50.096 52.364,50.956 52.364,50.956" id="Fill-3" fill="#E1CC9B"></path>
                    <path d="M52.364,50.956 L99.48,50.956 L99.48,47.796 L52.364,47.796 L52.364,50.956 Z" id="Fill-4" fill="#E1CC9B"></path>
                    <path d="M114.704,92.3 L114.704,95.46 C114.704,95.46 136.008,94.604 148.188,81.068 C148.188,81.068 134.788,90.544 114.704,92.3" id="Fill-5" fill="#E1CC9B"></path>
                    <path d="M37.076,95.46 L37.076,92.3 C16.992,90.544 3.592,81.068 3.592,81.068 C15.78,94.604 37.076,95.46 37.076,95.46" id="Fill-6" fill="#E1CC9B"></path>
                    <path d="M37.076,95.46 L114.704,95.46 L114.704,92.3 L37.076,92.3 L37.076,95.46 Z" id="Fill-7" fill="#E1CC9B"></path>
                </g>
            </g>
            <g transform="translate(73.000000, 893.000000)" sketch:type="MSShapeGroup">
                <path d="M424.906184,106.005327 L502.081702,106.005327 L502.081702,261.915104 L424.906184,261.915104 L424.906184,106.005327 Z" id="Fill-3" fill="#52564E"></path>
                <path d="M578.746414,253.212216 L560.817116,253.212216 L544.069971,261.878721 L504.475194,261.878721 L504.475194,161.730011 L578.746414,161.730011 L578.746414,253.212216" id="Fill-10" fill="#52564E"></path>
                <path d="M504.475194,93.0237604 L578.746414,93.0237604 L578.746414,157.553206 L504.475194,157.553206 L504.475194,93.0237604 Z" id="Fill-11" fill="#52564E"></path>
                <path d="M835.915438,253.212216 L852.662584,253.212216 L868.315145,261.878721 L905.297513,261.878721 L905.297513,161.730011 L835.915438,161.730011 L835.915438,253.212216" id="Fill-12" fill="#52564E"></path>
                <path d="M835.915438,93.0237604 L905.297513,93.0237604 L905.297513,157.553206 L835.915438,157.553206 L835.915438,93.0237604 Z" id="Fill-13" fill="#52564E"></path>
                <path d="M932.348349,161.730011 L918.279287,161.730011 L918.279287,170.869499 C921.475475,170.483836 927.327854,168.766544 932.348349,161.730011" id="Fill-14" fill="#52564E"></path>
                <path d="M977.437941,271.578513 L977.437941,175.672097 C973.263925,175.29371 964.456167,173.052498 957.852173,161.730011 L937.69722,161.730011 C931.195387,172.914241 922.533573,175.22822 918.279287,175.657543 L918.279287,271.578513 L977.437941,271.578513" id="Fill-15" fill="#52564E"></path>
                <path d="M909.39126,104.608208 L909.39126,273.950705 L913.514195,273.950705 L913.514195,156.963797 L982.210331,156.963797 L982.210331,273.950705 L986.180024,273.950705 L986.180024,104.608208 L909.39126,104.608208" id="Fill-16" fill="#52564E"></path>
                <path d="M977.437941,170.898606 L977.437941,161.730011 L963.193746,161.730011 C968.309105,168.875694 974.27824,170.542049 977.437941,170.898606" id="Fill-17" fill="#52564E"></path>
                <path d="M0,369.854173 L1400,369.854173 L1400,398.407798 L0,398.407798 L0,369.854173 Z" id="Fill-18" fill="#52564E"></path>
                <path d="M357.326525,345.334767 L366.871304,345.334767 L366.871304,398.061466 L357.326525,398.061466 L357.326525,345.334767 Z" id="Fill-20" fill="#52564E"></path>
                <path d="M442.412242,345.334767 L451.978912,345.334767 L451.978912,398.061466 L442.412242,398.061466 L442.412242,345.334767 Z" id="Fill-21" fill="#52564E"></path>
                <path d="M527.541742,345.334767 L537.093818,345.334767 L537.093818,398.061466 L527.541742,398.061466 L527.541742,345.334767 Z" id="Fill-22" fill="#52564E"></path>
                <path d="M612.642053,345.334767 L622.179534,345.334767 L622.179534,398.061466 L612.642053,398.061466 L612.642053,345.334767 Z" id="Fill-23" fill="#52564E"></path>
                <path d="M702.120703,347.062378 L711.658184,347.062378 L711.658184,398.061466 L702.120703,398.061466 L702.120703,347.062378 Z" id="Fill-24" fill="#52564E"></path>
                <path d="M791.60665,345.334767 L801.144131,345.334767 L801.144131,398.061466 L791.60665,398.061466 L791.60665,345.334767 Z" id="Fill-25" fill="#52564E"></path>
                <path d="M876.706961,345.334767 L886.244442,345.334767 L886.244442,398.061466 L876.706961,398.061466 L876.706961,345.334767 Z" id="Fill-26" fill="#52564E"></path>
                <path d="M961.792678,345.334767 L971.344753,345.334767 L971.344753,398.061466 L961.792678,398.061466 L961.792678,345.334767 Z" id="Fill-27" fill="#52564E"></path>
                <path d="M1046.90758,345.334767 L1056.45966,345.334767 L1056.45966,398.061466 L1046.90758,398.061466 L1046.90758,345.334767 Z" id="Fill-28" fill="#52564E"></path>
                <path d="M1132.02249,345.334767 L1141.55997,345.334767 L1141.55997,398.061466 L1132.02249,398.061466 L1132.02249,345.334767 Z" id="Fill-29" fill="#52564E"></path>
                <path d="M272.218917,365.178226 L1139.99107,365.178226 L1139.99107,372.309356 L272.218917,372.309356 L272.218917,365.178226 Z" id="Fill-30" fill="#52564E"></path>
                <path d="M557.19769,264.156316 L852.465559,264.156316 L852.465559,288.816927 L557.19769,288.816927 L557.19769,264.156316 Z" id="Fill-31" fill="#52564E"></path>
                <path d="M557.19769,236.090228 L565.450858,236.090228 L565.450858,288.816927 L557.19769,288.816927 L557.19769,236.090228 Z" id="Fill-32" fill="#52564E"></path>
                <path d="M348.277958,247.077989 L352.889809,247.077989 L352.889809,295.948056 L348.277958,295.948056 L348.277958,247.077989 Z" id="Fill-34" fill="#52564E"></path>
                <path d="M391.528648,247.077989 L396.133201,247.077989 L396.133201,295.948056 L391.528648,295.948056 L391.528648,247.077989 Z" id="Fill-35" fill="#52564E"></path>
                <path d="M434.786635,247.077989 L439.391188,247.077989 L439.391188,295.948056 L434.786635,295.948056 L434.786635,247.077989 Z" id="Fill-36" fill="#52564E"></path>
                <path d="M478.02273,247.077989 L482.641878,247.077989 L482.641878,295.948056 L478.02273,295.948056 L478.02273,247.077989 Z" id="Fill-37" fill="#52564E"></path>
                <path d="M369.089662,337.206734 L377.350128,337.206734 L377.350128,389.947987 L369.089662,389.947987 L369.089662,337.206734 Z" id="Fill-38" fill="#52564E"></path>
                <path d="M425.300235,297.949139 L433.546106,297.949139 L433.546106,350.697667 L425.300235,350.697667 L425.300235,297.949139 Z" id="Fill-39" fill="#52564E"></path>
                <path d="M484.524564,267.016045 L492.785029,267.016045 L492.785029,319.75002 L484.524564,319.75002 L484.524564,267.016045 Z" id="Fill-40" fill="#52564E"></path>
                <path d="M630.688106,236.090228 L638.941274,236.090228 L638.941274,288.816927 L630.688106,288.816927 L630.688106,236.090228 Z" id="Fill-41" fill="#52564E"></path>
                <path d="M693.349431,236.090228 L694.655635,236.090228 L694.655635,288.816927 L693.349431,288.816927 L693.349431,236.090228 Z" id="Fill-42" fill="#52564E"></path>
                <path d="M719.137846,236.090228 L720.429456,236.090228 L720.429456,288.816927 L719.137846,288.816927 L719.137846,236.090228 Z" id="Fill-43" fill="#52564E"></path>
                <path d="M774.830315,236.090228 L783.076186,236.090228 L783.076186,288.816927 L774.830315,288.816927 L774.830315,236.090228 Z" id="Fill-44" fill="#52564E"></path>
                <path d="M848.342623,236.090228 L856.566603,236.090228 L856.566603,288.816927 L848.342623,288.816927 L848.342623,236.090228 Z" id="Fill-45" fill="#52564E"></path>
                <path d="M557.19769,253.212216 L851.845294,253.212216 L851.845294,259.382826 L557.19769,259.382826 L557.19769,253.212216 Z" id="Fill-46" fill="#52564E"></path>
                <path d="M1036.43606,337.206734 L1044.68922,337.206734 L1044.68922,389.947987 L1036.43606,389.947987 L1036.43606,337.206734 Z" id="Fill-47" fill="#52564E"></path>
                <path d="M980.240078,297.949139 L988.500544,297.949139 L988.500544,350.697667 L980.240078,350.697667 L980.240078,297.949139 Z" id="Fill-48" fill="#52564E"></path>
                <path d="M920.98656,267.016045 L929.247026,267.016045 L929.247026,319.75002 L920.98656,319.75002 L920.98656,267.016045 Z" id="Fill-49" fill="#52564E"></path>
                <path d="M557.19769,288.816927 L557.19769,264.156316 L377.342831,365.178226 L377.342831,389.947987 L557.19769,288.816927" id="Fill-50" fill="#52564E"></path>
                <path d="M557.19769,259.382826 L377.342831,358.927573 L377.342831,352.967986 L557.19769,253.212216 L557.19769,259.382826" id="Fill-51" fill="#52564E"></path>
                <path d="M856.566603,288.816927 L856.566603,264.156316 L1036.43606,365.178226 L1036.43606,389.947987 L856.566603,288.816927" id="Fill-52" fill="#52564E"></path>
                <path d="M856.566603,259.382826 L1036.43606,358.927573 L1036.43606,352.967986 L856.566603,253.212216 L856.566603,259.382826" id="Fill-53" fill="#52564E"></path>
                <path d="M305.019971,261.878721 L544.536993,261.878721 L544.536993,266.441189 L305.019971,266.441189 L305.019971,261.878721 Z" id="Fill-54" fill="#52564E"></path>
                <path d="M488.654796,295.948056 L307.333194,295.948056 L307.333194,269.395514 L535.247618,269.395514 L488.654796,295.948056" id="Fill-55" fill="#52564E"></path>
                <path d="M1101.32304,247.077989 L1105.92759,247.077989 L1105.92759,295.948056 L1101.32304,295.948056 L1101.32304,247.077989 Z" id="Fill-56" fill="#52564E"></path>
                <path d="M1058.07964,247.077989 L1062.69879,247.077989 L1062.69879,295.948056 L1058.07964,295.948056 L1058.07964,247.077989 Z" id="Fill-57" fill="#52564E"></path>
                <path d="M1014.83625,247.077989 L1019.4481,247.077989 L1019.4481,295.948056 L1014.83625,295.948056 L1014.83625,247.077989 Z" id="Fill-58" fill="#52564E"></path>
                <path d="M971.570967,247.077989 L976.190115,247.077989 L976.190115,295.948056 L971.570967,295.948056 L971.570967,247.077989 Z" id="Fill-59" fill="#52564E"></path>
                <path d="M928.327575,247.077989 L932.946722,247.077989 L932.946722,295.948056 L928.327575,295.948056 L928.327575,247.077989 Z" id="Fill-60" fill="#52564E"></path>
                <path d="M866.432459,261.878721 L1105.92759,261.878721 L1105.92759,266.441189 L866.432459,266.441189 L866.432459,261.878721 Z" id="Fill-61" fill="#52564E"></path>
                <path d="M922.300062,295.948056 L1103.63626,295.948056 L1103.63626,269.395514 L885.755528,269.395514 L922.300062,295.948056" id="Fill-62" fill="#52564E"></path>
                <path d="M581.1545,77.6627252 L592.282778,77.6627252 L592.282778,266.441189 L581.1545,266.441189 L581.1545,77.6627252 Z" id="Fill-63" fill="#52564E"></path>
                <path d="M665.058065,77.6627252 L676.19364,77.6627252 L676.19364,266.441189 L665.058065,266.441189 L665.058065,77.6627252 Z" id="Fill-64" fill="#52564E"></path>
                <path d="M736.651201,77.6627252 L747.779479,77.6627252 L747.779479,266.441189 L736.651201,266.441189 L736.651201,77.6627252 Z" id="Fill-65" fill="#52564E"></path>
                <path d="M820.554766,77.6627252 L831.690341,77.6627252 L831.690341,266.441189 L820.554766,266.441189 L820.554766,77.6627252 Z" id="Fill-66" fill="#52564E"></path>
                <path d="M595.267345,149.432451 L660.482701,149.432451 L660.482701,264.156316 L595.267345,264.156316 L595.267345,149.432451 Z" id="Fill-67" fill="#52564E"></path>
                <path d="M752.354843,149.432451 L817.577496,149.432451 L817.577496,264.156316 L752.354843,264.156316 L752.354843,149.432451 Z" id="Fill-68" fill="#52564E"></path>
                <path d="M679.798472,149.432451 L731.667192,149.432451 L731.667192,264.156316 L679.798472,264.156316 L679.798472,149.432451 Z" id="Fill-69" fill="#52564E"></path>
                <path d="M595.267345,77.6627252 L660.482701,77.6627252 L660.482701,125.288483 L595.267345,125.288483 L595.267345,77.6627252 Z" id="Fill-70" fill="#52564E"></path>
                <path d="M752.354843,77.6627252 L817.577496,77.6627252 L817.577496,125.288483 L752.354843,125.288483 L752.354843,77.6627252 Z" id="Fill-71" fill="#52564E"></path>
                <path d="M679.798472,77.6627252 L731.667192,77.6627252 L731.667192,125.288483 L679.798472,125.288483 L679.798472,77.6627252 Z" id="Fill-72" fill="#52564E"></path>
                <path d="M595.267345,129.610821 L660.482701,129.610821 L660.482701,144.629853 L595.267345,144.629853 L595.267345,129.610821 Z" id="Fill-73" fill="#52564E"></path>
                <path d="M752.354843,129.610821 L817.577496,129.610821 L817.577496,144.629853 L752.354843,144.629853 L752.354843,129.610821 Z" id="Fill-74" fill="#52564E"></path>
                <path d="M679.798472,129.610821 L731.667192,129.610821 L731.667192,144.629853 L679.798472,144.629853 L679.798472,129.610821 Z" id="Fill-75" fill="#52564E"></path>
                <path d="M709.469015,1.919942 L638.941274,1.919942 C638.941274,1.919942 585.211761,83.6077587 506.562202,23.327884 C506.562202,23.327884 516.238331,64.7612021 595.267345,65.3506117 L709.469015,65.3506117 L709.469015,1.919942" id="Fill-76" stroke="#E1CC9B" stroke-width="4" fill="#52564E"></path>
                <path d="M506.562202,32.3072859 C506.562202,32.3072859 511.49513,56.2911665 536.56112,69.6947794 C536.56112,69.6947794 551.184771,78.5286481 592.290075,77.5754053 L709.469015,77.5754053 L709.469015,72.7364245 L586.71499,73.4131541 C586.71499,73.4131541 520.485319,78.6159681 506.562202,32.3072859" id="Fill-77" fill="#52564E"></path>
                <path d="M704.827976,1.919942 L775.37031,1.919942 C775.37031,1.919942 829.099824,83.6077587 907.742086,23.327884 C907.742086,23.327884 898.05866,64.7612021 819.051537,65.3506117 L704.827976,65.3506117 L704.827976,1.919942" id="Fill-79" stroke="#E1CC9B" stroke-width="4" fill="#52564E"></path>
                <path d="M907.742086,32.3072859 C907.742086,32.3072859 902.809157,56.2911665 877.750465,69.6947794 C877.750465,69.6947794 863.134111,78.5286481 822.036104,77.5754053 L704.827976,77.5754053 L704.827976,72.7364245 L827.596594,73.4131541 C827.596594,73.4131541 893.826265,78.6159681 907.742086,32.3072859" id="Fill-80" fill="#52564E"></path>
                <path d="M518.412906,54.9813672 L477.125171,54.9813672 C477.125171,54.9813672 440.441989,58.590592 429.999651,24.3975534 C429.999651,24.3975534 427.912643,65.8381482 479.810552,80.3114305 C479.810552,80.3114305 508.050837,90.8262083 560.751441,90.0184987 L575.951574,90.0184987 L575.951574,76.1419027 C575.951574,76.1419027 553.636641,81.1919067 518.412906,54.9813672" id="Fill-81" fill="#52564E"></path>
                <path d="M440.186586,66.2019813 L399.548305,66.2019813 C399.548305,66.2019813 363.434308,69.7748227 353.174401,36.1057039 C353.174401,36.1057039 356.385182,82.1378729 407.473099,96.3855786 C407.473099,96.3855786 435.268252,106.74027 487.115081,105.961667 L502.067107,105.961667 L502.067107,92.3033708 C502.067107,92.3033708 464.355016,93.9624499 440.186586,66.2019813" id="Fill-82" fill="#52564E"></path>
                <path d="M561.94089,93.0237604 C561.94089,93.0237604 487.713454,92.0559643 473.461961,86.4529339 C473.461961,86.4529339 444.791139,78.3176249 429.985057,49.5820834 C429.985057,49.5820834 433.283406,76.7094824 475.242485,93.78781 C475.242485,93.78781 486.786705,99.550927 522.17098,98.9542406 L561.145492,98.9542406 L561.94089,93.0237604" id="Fill-83" fill="#52564E"></path>
                <path d="M485.122936,106.769376 C485.122936,106.769376 410.902797,105.80158 396.63671,100.205827 C396.63671,100.205827 367.965888,92.0777943 353.174401,63.3131462 C353.174401,63.3131462 356.458155,90.4550985 398.409937,107.533426 C398.409937,107.533426 409.968752,113.289266 445.345729,112.699857 L484.327538,112.699857 L485.122936,106.769376" id="Fill-85" fill="#52564E"></path>
                <path d="M851.385568,93.0237604 C851.385568,93.0237604 925.59841,92.0559643 939.871795,86.4529339 C939.871795,86.4529339 968.528022,78.3176249 983.326807,49.5820834 C983.326807,49.5820834 980.028458,76.7094824 938.076676,93.78781 C938.076676,93.78781 926.532456,99.550927 891.148182,98.9542406 L852.173669,98.9542406 L851.385568,93.0237604" id="Fill-86" fill="#52564E"></path>
                <path d="M928.210819,106.769376 C928.210819,106.769376 1002.43096,105.80158 1016.68245,100.205827 C1016.68245,100.205827 1045.34598,92.0777943 1060.15206,63.3131462 C1060.15206,63.3131462 1056.86101,90.4550985 1014.90193,107.533426 C1014.90193,107.533426 1003.365,113.289266 967.966135,112.699857 L928.99892,112.699857 L928.210819,106.769376" id="Fill-87" fill="#52564E"></path>
                <path d="M983.312213,24.3975534 C972.869875,58.590592 936.186693,54.9813672 936.186693,54.9813672 L894.898958,54.9813672 C859.689818,81.1919067 837.367587,76.1419027 837.367587,76.1419027 L835.915438,76.1419027 L835.915438,90.0694353 L837.367587,90.0694353 L837.367587,90.0184987 L852.575017,90.0184987 C905.268324,90.8262083 933.508609,80.3114305 933.508609,80.3114305 C985.399221,65.8381482 983.312213,24.3975534 983.312213,24.3975534" id="Fill-88" fill="#52564E"></path>
                <path d="M1013.77086,66.2019813 L973.132575,66.2019813 C948.956848,93.9624499 911.244757,92.3033708 911.244757,92.3033708 L911.244757,97.3679281 L909.39126,97.3679281 L909.39126,104.608208 L911.244757,104.608208 L911.244757,105.961667 L926.196783,105.961667 C978.058206,106.74027 1005.84606,96.3855786 1005.84606,96.3855786 C1056.93398,82.1378729 1060.15206,36.1057039 1060.15206,36.1057039 C1049.89215,69.7748227 1013.77086,66.2019813 1013.77086,66.2019813" id="Fill-89" fill="#52564E"></path>
                <path d="M429.408576,156.963797 L498.104711,156.963797 L498.104711,161.730011 L429.408576,161.730011 L429.408576,156.963797 Z" id="Fill-200" fill="#FFFFFF"></path>
                <path d="M429.408576,157.407673 L434.180965,157.407673 L434.180965,261.907828 L429.408576,261.907828 L429.408576,157.407673 Z" id="Fill-201" fill="#FFFFFF"></path>
                <path d="M493.332322,157.407673 L498.104711,157.407673 L498.104711,261.907828 L493.332322,261.907828 L493.332322,157.407673 Z" id="Fill-202" fill="#FFFFFF"></path>
                <path d="M434.188262,170.869499 C434.188262,170.869499 442.149542,170.418346 448.250027,161.730011 L453.598897,161.730011 C453.598897,161.730011 446.812472,174.333191 434.173668,175.635713 L434.188262,170.869499" id="Fill-203" fill="#FFFFFF"></path>
                <path d="M493.332322,170.869499 C493.332322,170.869499 485.312664,170.418346 479.197585,161.730011 L473.812228,161.730011 C473.812228,161.730011 480.620545,174.333191 493.332322,175.635713 L493.332322,170.869499" id="Fill-204" fill="#FFFFFF"></path>
                <path d="M429.408576,109.694595 L535.247618,109.694595 L535.247618,261.907828 L429.408576,261.907828 L429.408576,109.694595 Z" id="Fill-224" fill="#52564E"></path>
                <path d="M876.706961,109.694595 L983.560318,109.694595 L983.560318,261.907828 L876.706961,261.907828 L876.706961,109.694595 Z" id="Fill-225" fill="#52564E"></path>
                <path d="M823.276634,96.9094984 L930.129991,96.9094984 L930.129991,251.822373 L823.276634,251.822373 L823.276634,96.9094984 Z" id="Fill-226" fill="#52564E"></path>
                <path d="M498.104711,98.2411277 L842.694566,98.2411277 L842.694566,253.212216 L498.104711,253.212216 L498.104711,98.2411277 Z" id="Fill-227" fill="#52564E"></path>
                <path d="M575.951574,76.1419027 L835.915438,76.1419027 L835.915438,104.608208 L575.951574,104.608208 L575.951574,76.1419027 Z" id="Fill-228" fill="#52564E"></path>
                <path d="M592.873853,77.6627252 L597.646243,77.6627252 L597.646243,253.212216 L592.873853,253.212216 L592.873853,77.6627252 Z" id="Fill-229" fill="#E1CC9B"></path>
                <path d="M658.096507,77.6627252 L662.876193,77.6627252 L662.876193,253.212216 L658.096507,253.212216 L658.096507,77.6627252 Z" id="Fill-230" fill="#E1CC9B"></path>
                <path d="M677.412278,77.6627252 L682.17737,77.6627252 L682.17737,253.212216 L677.412278,253.212216 L677.412278,77.6627252 Z" id="Fill-231" fill="#E1CC9B"></path>
                <path d="M728.821272,77.6627252 L733.593661,77.6627252 L733.593661,253.212216 L728.821272,253.212216 L728.821272,77.6627252 Z" id="Fill-232" fill="#E1CC9B"></path>
                <path d="M748.137043,77.6627252 L752.909432,77.6627252 L752.909432,253.212216 L748.137043,253.212216 L748.137043,77.6627252 Z" id="Fill-233" fill="#E1CC9B"></path>
                <path d="M576.046438,77.6627252 L580.81153,77.6627252 L580.81153,253.212216 L576.046438,253.212216 L576.046438,77.6627252 Z" id="Fill-234" fill="#E1CC9B"></path>
                <path d="M832.164661,77.6627252 L836.922456,77.6627252 L836.922456,253.212216 L832.164661,253.212216 L832.164661,77.6627252 Z" id="Fill-235" fill="#E1CC9B"></path>
                <path d="M815.315354,77.6627252 L820.080446,77.6627252 L820.080446,253.212216 L815.315354,253.212216 L815.315354,77.6627252 Z" id="Fill-236" fill="#E1CC9B"></path>
                <path d="M504.475194,96.4074086 L509.240286,96.4074086 L509.240286,261.878721 L504.475194,261.878721 L504.475194,96.4074086 Z" id="Fill-237" fill="#E1CC9B"></path>
                <path d="M506.868686,156.963797 L578.418038,156.963797 L578.418038,161.730011 L506.868686,161.730011 L506.868686,156.963797 Z" id="Fill-238" fill="#E1CC9B"></path>
                <path d="M905.100488,96.4074086 L909.872877,96.4074086 L909.872877,261.878721 L905.100488,261.878721 L905.100488,96.4074086 Z" id="Fill-239" fill="#E1CC9B"></path>
                <path d="M835.915438,156.963797 L907.486682,156.963797 L907.486682,161.730011 L835.915438,161.730011 L835.915438,156.963797 Z" id="Fill-240" fill="#E1CC9B"></path>
                <path d="M595.347615,122.916291 L660.489998,122.916291 L660.489998,127.667952 L595.347615,127.667952 L595.347615,122.916291 Z" id="Fill-241" fill="#E1CC9B"></path>
                <path d="M595.347615,144.498873 L660.489998,144.498873 L660.489998,149.265087 L595.347615,149.265087 L595.347615,144.498873 Z" id="Fill-242" fill="#E1CC9B"></path>
                <path d="M750.515941,122.916291 L815.636432,122.916291 L815.636432,127.667952 L750.515941,127.667952 L750.515941,122.916291 Z" id="Fill-243" fill="#E1CC9B"></path>
                <path d="M750.515941,144.498873 L815.636432,144.498873 L815.636432,149.265087 L750.515941,149.265087 L750.515941,144.498873 Z" id="Fill-244" fill="#E1CC9B"></path>
                <path d="M679.871445,122.916291 L730.17126,122.916291 L730.17126,127.667952 L679.871445,127.667952 L679.871445,122.916291 Z" id="Fill-245" fill="#E1CC9B"></path>
                <path d="M679.871445,144.498873 L730.17126,144.498873 L730.17126,149.265087 L679.871445,149.265087 L679.871445,144.498873 Z" id="Fill-246" fill="#E1CC9B"></path>
                <path d="M495.703922,261.907828 L490.93883,261.907828 L490.93883,161.730011 L436.56716,161.730011 L436.56716,261.907828 L431.787473,261.907828 L431.787473,156.963797 L495.703922,156.963797 L495.703922,261.907828" id="Fill-247" fill="#E1CC9B"></path>
                <path d="M434.253937,177.222026 L434.144479,172.455812 C446.199505,172.193852 451.314864,158.666536 451.365945,158.521002 L455.846445,160.165528 C455.605636,160.849535 449.548934,176.880023 434.253937,177.222026" id="Fill-248" fill="#E1CC9B"></path>
                <path d="M493.244755,177.222026 C477.964353,176.880023 471.893056,160.849535 471.637653,160.165528 L476.12545,158.521002 C476.169234,158.666536 481.328376,172.193852 493.354213,172.455812 L493.244755,177.222026" id="Fill-249" fill="#E1CC9B"></path>
                <path d="M979.743866,261.907828 L974.978774,261.907828 L974.978774,161.730011 L920.59251,161.730011 L920.59251,261.907828 L915.812823,261.907828 L915.812823,156.963797 L979.743866,156.963797 L979.743866,261.907828" id="Fill-250" fill="#E1CC9B"></path>
                <path d="M918.279287,177.222026 L918.184423,172.455812 C930.254044,172.193852 935.354809,158.666536 935.405889,158.521002 L939.886389,160.165528 C939.630986,160.849535 933.588879,176.880023 918.279287,177.222026" id="Fill-251" fill="#E1CC9B"></path>
                <path d="M977.2847,177.222026 C961.997,176.880023 955.940298,160.849535 955.677598,160.165528 L960.165395,158.521002 C960.209178,158.666536 965.375618,172.193852 977.386861,172.455812 L977.2847,177.222026" id="Fill-252" fill="#E1CC9B"></path>
                <path d="M0,373.495452 L357.326525,373.495452 L357.326525,378.247113 L0,378.247113 L0,373.495452 Z" id="Fill-339" fill="#E1CC9B"></path>
                <path d="M366.871304,373.495452 L442.412242,373.495452 L442.412242,378.247113 L366.871304,378.247113 L366.871304,373.495452 Z" id="Fill-340" fill="#E1CC9B"></path>
                <path d="M451.986209,373.495452 L527.541742,373.495452 L527.541742,378.247113 L451.986209,378.247113 L451.986209,373.495452 Z" id="Fill-341" fill="#E1CC9B"></path>
                <path d="M425.161587,338.385554 L377.342831,365.178226 L377.342831,358.025267 L425.161587,331.254424 L425.161587,338.385554" id="Fill-342" fill="#E1CC9B"></path>
                <path d="M484.458888,306.812114 L433.546106,334.834542 L433.546106,327.696136 L484.458888,299.680984 L484.458888,306.812114" id="Fill-343" fill="#E1CC9B"></path>
                <path d="M557.19769,266.033695 L492.785029,301.594747 L492.785029,294.45634 L557.19769,258.873459 L557.19769,266.033695" id="Fill-344" fill="#E1CC9B"></path>
                <path d="M988.602705,338.385554 L1036.43606,365.178226 L1036.43606,358.025267 L988.602705,331.254424 L988.602705,338.385554" id="Fill-345" fill="#E1CC9B"></path>
                <path d="M929.319998,306.812114 L980.240078,334.834542 L980.240078,327.696136 L929.319998,299.680984 L929.319998,306.812114" id="Fill-346" fill="#E1CC9B"></path>
                <path d="M856.566603,266.033695 L920.98656,301.594747 L920.98656,294.45634 L856.566603,258.873459 L856.566603,266.033695" id="Fill-347" fill="#E1CC9B"></path>
                <path d="M537.08652,373.495452 L612.642053,373.495452 L612.642053,378.247113 L537.08652,378.247113 L537.08652,373.495452 Z" id="Fill-348" fill="#E1CC9B"></path>
                <path d="M622.172237,373.495452 L702.120703,373.495452 L702.120703,378.247113 L622.172237,378.247113 L622.172237,373.495452 Z" id="Fill-349" fill="#E1CC9B"></path>
                <path d="M712.023046,373.495452 L791.60665,373.495452 L791.60665,378.247113 L712.023046,378.247113 L712.023046,373.495452 Z" id="Fill-350" fill="#E1CC9B"></path>
                <path d="M801.144131,373.495452 L876.714258,373.495452 L876.714258,378.247113 L801.144131,378.247113 L801.144131,373.495452 Z" id="Fill-351" fill="#E1CC9B"></path>
                <path d="M886.244442,373.495452 L961.799975,373.495452 L961.799975,378.247113 L886.244442,378.247113 L886.244442,373.495452 Z" id="Fill-352" fill="#E1CC9B"></path>
                <path d="M971.344753,373.495452 L1046.90758,373.495452 L1046.90758,378.247113 L971.344753,378.247113 L971.344753,373.495452 Z" id="Fill-353" fill="#E1CC9B"></path>
                <path d="M1056.45966,373.495452 L1132.02249,373.495452 L1132.02249,378.247113 L1056.45966,378.247113 L1056.45966,373.495452 Z" id="Fill-354" fill="#E1CC9B"></path>
                <path d="M309.639119,266.448465 L348.277958,266.448465 L348.277958,271.207403 L309.639119,271.207403 L309.639119,266.448465 Z" id="Fill-355" fill="#E1CC9B"></path>
                <path d="M352.889809,266.448465 L391.528648,266.448465 L391.528648,271.207403 L352.889809,271.207403 L352.889809,266.448465 Z" id="Fill-356" fill="#E1CC9B"></path>
                <path d="M396.133201,266.448465 L434.786635,266.448465 L434.786635,271.207403 L396.133201,271.207403 L396.133201,266.448465 Z" id="Fill-357" fill="#E1CC9B"></path>
                <path d="M439.391188,266.448465 L478.030028,266.448465 L478.030028,271.207403 L439.391188,271.207403 L439.391188,266.448465 Z" id="Fill-358" fill="#E1CC9B"></path>
                <path d="M524.739605,271.207403 L482.641878,271.207403 L482.641878,266.448465 L533.335743,266.448465 L524.739605,271.207403" id="Fill-359" fill="#E1CC9B"></path>
                <path d="M565.450858,259.310059 L630.688106,259.310059 L630.688106,264.06172 L565.450858,264.06172 L565.450858,259.310059 Z" id="Fill-360" fill="#E1CC9B"></path>
                <path d="M638.941274,259.310059 L694.641041,259.310059 L694.641041,264.06172 L638.941274,264.06172 L638.941274,259.310059 Z" id="Fill-361" fill="#E1CC9B"></path>
                <path d="M719.137846,259.310059 L774.830315,259.310059 L774.830315,264.06172 L719.137846,264.06172 L719.137846,259.310059 Z" id="Fill-362" fill="#E1CC9B"></path>
                <path d="M783.076186,259.310059 L848.328029,259.310059 L848.328029,264.06172 L783.076186,264.06172 L783.076186,259.310059 Z" id="Fill-363" fill="#E1CC9B"></path>
                <path d="M928.327575,271.207403 L889.024687,271.207403 L880.74233,266.448465 L928.327575,266.448465 L928.327575,271.207403" id="Fill-364" fill="#E1CC9B"></path>
                <path d="M932.946722,266.448465 L971.570967,266.448465 L971.570967,271.207403 L932.946722,271.207403 L932.946722,266.448465 Z" id="Fill-365" fill="#E1CC9B"></path>
                <path d="M976.190115,266.448465 L1014.83625,266.448465 L1014.83625,271.207403 L976.190115,271.207403 L976.190115,266.448465 Z" id="Fill-366" fill="#E1CC9B"></path>
                <path d="M1019.4481,266.448465 L1058.07964,266.448465 L1058.07964,271.207403 L1019.4481,271.207403 L1019.4481,266.448465 Z" id="Fill-367" fill="#E1CC9B"></path>
                <path d="M1062.69149,266.448465 L1101.32304,266.448465 L1101.32304,271.207403 L1062.69149,271.207403 L1062.69149,266.448465 Z" id="Fill-368" fill="#E1CC9B"></path>
                <path d="M693.349431,259.310059 L720.429456,259.310059 L720.429456,264.06172 L693.349431,264.06172 L693.349431,259.310059 Z" id="Fill-369" fill="#E1CC9B"></path>
                <path d="M588.707134,60.6731924 L704.667436,60.6731924 L704.667436,68.6265848 L588.707134,68.6265848 L588.707134,60.6731924 Z" id="Fill-370" fill="#E1CC9B"></path>
                <rect id="Rectangle-7" fill="#53564E" x="684" y="68" width="36" height="8"></rect>
                <rect id="Rectangle-8" fill="#53564E" x="688" y="4" width="36" height="56"></rect>
                <path d="M506.562202,18.6504646 C506.562202,18.6504646 503.044936,36.5510552 523.053945,52.0940069 C523.053945,52.0940069 543.500787,71.1952468 588.699837,68.6265848 L588.699837,60.6731924 C588.699837,60.6731924 522.09071,60.4621692 506.562202,18.6504646 Z" id="Fill-371" fill="#E1CC9B"></path>
                <path d="M503.708985,86.1036541 L575.980763,86.1036541 L575.980763,93.0237604 L503.708985,93.0237604 L503.708985,86.1036541 Z" id="Fill-372" fill="#E1CC9B"></path>
                <path d="M704.667436,60.6731924 L826.122554,60.6731924 L826.122554,68.6265848 L704.667436,68.6265848 L704.667436,60.6731924 Z" id="Fill-373" fill="#E1CC9B"></path>
                <path d="M826.122554,60.6731924 C826.122554,60.6731924 892.731681,60.4621692 908.260189,18.6504646 C908.260189,18.6504646 911.784752,36.5510552 891.790338,52.0940069 C891.790338,52.0940069 871.328901,71.1952468 826.122554,68.6265848 L826.122554,60.6731924" id="Fill-374" fill="#E1CC9B"></path>
                <path d="M503.708985,86.1036541 C503.708985,86.1036541 430.780455,76.1419027 429.999651,24.3975534 C429.999651,24.3975534 422.724312,51.2484392 440.186586,66.2019813 C440.186586,66.2019813 463.486646,90.3823318 503.708985,93.0237604 L503.708985,86.1036541" id="Fill-375" fill="#E1CC9B"></path>
                <path d="M428.386963,101.682989 L500.644147,101.682989 L500.644147,108.603096 L428.386963,108.603096 L428.386963,101.682989 Z" id="Fill-376" fill="#E1CC9B"></path>
                <path d="M428.386963,101.682989 C428.386963,101.682989 358.749485,96.4074086 353.174401,36.1057039 C353.174401,36.1057039 343.841242,67.7591871 368.812367,86.4165506 C368.812367,86.4165506 392.127021,108.603096 428.386963,108.603096" id="Fill-377" fill="#E1CC9B"></path>
                <path d="M837.681368,86.1036541 L909.938552,86.1036541 L909.938552,93.0237604 L837.681368,93.0237604 L837.681368,86.1036541 Z" id="Fill-378" fill="#E1CC9B"></path>
                <path d="M909.945849,86.1036541 C909.945849,86.1036541 982.874379,76.1419027 983.655182,24.3975534 C983.655182,24.3975534 990.930522,51.2484392 973.482842,66.2019813 C973.482842,66.2019813 950.153594,90.3823318 909.945849,93.0237604 L909.945849,86.1036541" id="Fill-379" fill="#E1CC9B"></path>
                <path d="M913.010686,101.682989 L985.267871,101.682989 L985.267871,108.603096 L913.010686,108.603096 L913.010686,101.682989 Z" id="Fill-381" fill="#E1CC9B"></path>
                <path d="M985.267871,101.682989 C985.267871,101.682989 1054.90535,96.4074086 1060.48043,36.1057039 C1060.48043,36.1057039 1069.81359,67.7591871 1044.84247,86.4165506 C1044.84247,86.4165506 1021.52781,108.603096 985.267871,108.603096" id="Fill-382" fill="#E1CC9B"></path>
            </g>
            <text id="nodeschool-6" sketch:type="MSTextLayer" font-family="Lato" font-size="56" font-weight="bold" fill="#53564E">
                <tspan x="637" y="1232">nodeschool</tspan>
            </text>
        </g>
    </g>
</svg>