<svg xmlns="http://www.w3.org/2000/svg" viewBox="0 0 384.8 442.1"><path fill="#fff" d="M192.3 5.9l185.5 107.2v214.3L192.3 434.5 6.7 327.4V113.1z"/><circle cx="706.5" cy="231.4" r=".5" transform="translate(-512.6 -9.5)" fill="none"/><g><g transform="translate(-512.6 -9.5)"><path d="M705 236.7c2.9 0 5.3-2.4 5.3-5.3s-2.4-5.3-5.3-5.3-5.3 2.4-5.3 5.3 2.4 5.3 5.3 5.3zm0-5.8c.3 0 .5.2.5.5s-.2.5-.5.5-.5-.2-.5-.5.2-.5.5-.5z" fill="#f55"/><path d="M801.5 156.4c0-1.3-1.1-2.4-2.4-2.4H610.5c-1.3 0-2.4 1.1-2.4 2.4 0 1.3 1.1 2.4 2.4 2.4h188.6c1.3 0 2.4-1.1 2.4-2.4z" fill="#f55"/><path d="M781.8 87.3l-75.9-43.8c-.1-.1-.2-.1-.3-.1h-1.1c-.1 0-.2.1-.3.1l-74.7 43.1c-.9.5-1.2 1.6-.7 2.5.5.9 1.7 1.2 2.5.7l66.4-38.3-28.2 36c-.6.8-.5 2 .3 2.6.8.6 2 .5 2.6-.3l30.8-39.3v38.4c0 1 .8 1.9 1.9 1.9 1.1 0 1.9-.8 1.9-1.9V50.5l30.8 39.3c.4.5.9.7 1.5.7.4 0 .8-.1 1.1-.4.8-.6.9-1.8.3-2.6l-28.2-36 67.6 39c.3.2.6.2.9.2.6 0 1.3-.3 1.6-.9.4-.8.1-2-.8-2.5z"/><path d="M781.3 370.2c-.5-.9-1.7-1.2-2.5-.7l-66.3 38.3 28.2-36c.6-.8.5-2-.3-2.6-.8-.6-2-.5-2.6.3L707 408.8v-38.4c0-1-.8-1.9-1.9-1.9-1.1 0-1.9.8-1.9 1.9v38.4l-30.8-39.3c-.6-.8-1.8-.9-2.6-.3-.8.6-.9 1.8-.3 2.6l28.2 36-67.6-39c-.9-.5-2-.2-2.5.7-.5.9-.2 2 .7 2.5l75.9 43.8h.1c.1 0 .1.1.2.1H704.8c.1 0 .3.1.4.1.2 0 .3 0 .4-.1h.2c.1 0 .1-.1.2-.1h.1l74.7-43.1c.7-.4 1-1.6.5-2.5z"/><circle cx="786.3" cy="366.7" r="2.3"/><circle cx="622.8" cy="366.7" r="2.3"/><path d="M894 117.5L708.4 10.4c-2.1-1.2-4.7-1.2-6.8 0L516 117.5c-2.1 1.2-3.4 3.5-3.4 5.9v214.3c0 2.4 1.3 4.7 3.4 5.9l185.6 107.1c1.1.6 2.2.9 3.4.9 1.2 0 2.4-.3 3.4-.9L894 343.6c2.1-1.2 3.4-3.5 3.4-5.9V123.4c0-2.4-1.3-4.7-3.4-5.9zM705 24.1l178.8 103.2v30.3h-21.9c-1.3 0-2.4 1.1-2.4 2.4v7.1h-27.1v-55.2c0-1.3-1.1-2.4-2.4-2.4H577c-1.3 0-2.4 1.1-2.4 2.4v55.2h-27.1V160c0-1.3-1.1-2.4-2.4-2.4H526v-30.3L705 24.1zm160.3 257.8h16.1v11.8h-16.1v-11.8zm0-4.8v-11.8h16.1v11.8h-16.1zm18.5-53.8l-.3-.5h.3v.5zm-3-5.3l-2.6-4.5h5.6v4.5h-3zm-2.6-9.2l3-5.3h2.6v5.3h-5.6zm5.6-19.1L872 210v.1c-.1.1-.1.3-.2.4v.1c0 .2-.1.4-.1.6 0 .2 0 .4.1.6v.1c0 .1.1.3.2.4v.1l11.8 20.4v27.8H863c-1.3 0-2.4 1.1-2.4 2.4v33c0 1.3 1.1 2.4 2.4 2.4h20.8v23.1h-30.3V181.3h30.4v8.4zm-355.3 13.9l3 5.3h-5.3v-5.3h2.3zm3.1 10L529 218h-2.7v-4.5h5.3zm-5.3 9.2zm15.7 54.3h-13.7v-11.8H542v11.8zm0 4.8v11.8h-13.7v-11.8H542zm-15.7 16.5h18.1c1.3 0 2.4-1.1 2.4-2.4v-33c0-1.3-1.1-2.4-2.4-2.4h-18.1v-28.3l11.5-19.9v-.1c.1-.1.1-.3.2-.4v-.1c0-.2.1-.4.1-.6 0-.2 0-.4-.1-.6v-.1c0-.1-.1-.3-.2-.4v-.1l-11.5-19.9v-8.9h27.6v140.3h-27.6v-23.1zm16.7-129v7.1h-16.7v-14.2H543v7.1zm13.2 7.1h-8.5v-4.7h27.1v149.7h-16.3V178.9c0-1.3-1-2.4-2.3-2.4zm271.5-7.1v144.2h-3.2v-12.2c0-1.3-1.1-2.4-2.4-2.4h-5.5v-12.2c0-1.3-1.1-2.4-2.4-2.4h-5.5v-12.2c0-1.3-1.1-2.4-2.4-2.4h-4.7v-88.7h4.7c1.3 0 2.4-1.1 2.4-2.4v-7.1h5.5c1.3 0 2.4-1.1 2.4-2.4v-26c0-1.3-1.1-2.4-2.4-2.4H596.9c-1.3 0-2.4 1.1-2.4 2.4v26c0 1.3 1.1 2.4 2.4 2.4h5.5v7.1c0 1.3 1.1 2.4 2.4 2.4h4.7v88.7h-4.7c-1.3 0-2.4 1.1-2.4 2.4v12.2h-5.5c-1.3 0-2.4 1.1-2.4 2.4V299h-9.2c-1.3 0-2.4 1.1-2.4 2.4v12.2h-3.4V114.2h248.2v55.2zm-215.9 7.1h-4.7v-4.7h32.3v4.7h-4.7c-1.3 0-2.4 1.1-2.4 2.4v91h-18.1v-91c0-1.3-1.1-2.4-2.4-2.4zm-12.6-9.4v-21.3H812v21.3H599.2zM797 178.9v91h-17.3v-91c0-1.3-1.1-2.4-2.4-2.4h-4.7v-4.7h31.5v4.7h-4.7c-1.3 0-2.4 1.1-2.4 2.4zm-69.1 69.3h14.6l-12.2 21.1h-2.4v-21.1zm17.4-4.7H728v-14h25.4l-8.1 14zm-17.4-18.7v-15.5h16.4l9 15.5h-25.4zm0-20.3V185h2.4l11.2 19.5h-13.6zm-4.7 22.7v42.1h-34.7V185h34.7v42.2zm-39.4-22.7h-13.3l11.2-19.5h2.1v19.5zm-16.1 4.7h16.1v15.5h-25l8.9-15.5zm16.1 20.3v14h-17l-8.1-14h25.1zm0 18.7v21.1h-2.1l-12.2-21.1h14.3zm75.7-19.9c.1-.2.2-.3.2-.5v-.1c0-.2.1-.4.1-.6 0-.2 0-.4-.1-.6v-.1c0-.1-.1-.3-.2-.4v-.1l-25.7-44.5c-.4-.7-1.2-1.2-2-1.2h-51.4c-.8 0-1.6.5-2 1.2L652.6 226v.1c-.1.1-.1.3-.2.4v.1c0 .2-.1.4-.1.6 0 .2 0 .4.1.6v.1c0 .1.1.3.2.4v.1l24 41.6H637v-88.7h4.7c1.3 0 2.4-1.1 2.4-2.4v-7.1h123.7v7.1c0 1.3 1.1 2.4 2.4 2.4h4.7V270h-39.5l24.1-41.7zm39.9 46.3h4.7v9.9h-197v-9.9H799.4zm7.1 14.6h5.5v9.9H599.2v-9.9h207.3zm7.8 14.6h5.5v9.9H587.7v-9.9h226.6zm-234.8 20.1v-5.5H827.7v9.8H579.5v-4.3zm253-7.9V171.8h27.1v4.7h-8.5c-1.3 0-2.4 1.1-2.4 2.4v142.6h-16.3V316zm31.8-139.5v-14.2h19.5v14.2h-19.5zM705 437L526.3 333.8v-7.5h48.5v4.3c0 1.3 1.1 2.4 2.4 2.4h253c1.3 0 2.4-1.1 2.4-2.4v-4.3H883.9v7.5L705 437z" fill="#f55"/><path d="M638.1 134.6c.8 0 1.4-.6 1.4-1.4v-7.1l5.8 7.6c.4.5.8.9 1.5.9h.1c.8 0 1.5-.6 1.5-1.5v-10.5c0-.8-.6-1.4-1.4-1.4-.8 0-1.4.6-1.4 1.4v6.8L640 122c-.4-.5-.8-.9-1.5-.9h-.3c-.8 0-1.5.6-1.5 1.5v10.5c0 .9.6 1.5 1.4 1.5z"/><path d="M658 134.7c4.1 0 7.1-3.1 7.1-6.8 0-3.8-2.9-6.8-7-6.8s-7.1 3.1-7.1 6.8c0 3.8 2.9 6.8 7 6.8zm-3.9-6.8c0-2.3 1.6-4.1 4-4.1 2.3 0 4 1.9 4 4.2 0 2.3-1.6 4.1-4 4.1-2.4-.1-4-1.9-4-4.2z"/><path d="M669.1 134.5h3.7c4.2 0 7-2.9 7-6.6 0-3.7-2.9-6.6-7-6.6h-3.7c-.8 0-1.5.6-1.5 1.5V133c.1.9.7 1.5 1.5 1.5zm1.5-10.6h2.2c2.4 0 4 1.6 4 4 0 2.3-1.6 4-4 4h-2.2v-8z"/><path d="M683.9 134.5h7.4c.7 0 1.3-.6 1.3-1.3 0-.7-.6-1.3-1.3-1.3h-6v-2.8h5c.7 0 1.3-.6 1.3-1.3 0-.7-.6-1.3-1.3-1.3h-5v-2.7h5.9c.7 0 1.3-.6 1.3-1.3 0-.7-.6-1.3-1.3-1.3h-7.3c-.8 0-1.5.6-1.5 1.5V133c.1.9.7 1.5 1.5 1.5z"/><path d="M694.9 133.1c1.5 1.1 3.2 1.6 5 1.6 2.9 0 4.9-1.5 4.9-4.1 0-2.3-1.5-3.3-4.2-4-2.3-.6-2.9-.9-2.9-1.7 0-.6.6-1.2 1.7-1.2.9 0 1.8.3 2.8.9.2.1.5.2.7.2.8 0 1.4-.6 1.4-1.3 0-.6-.3-1-.6-1.2-1.2-.8-2.6-1.2-4.2-1.2-2.7 0-4.6 1.6-4.6 4 0 2.6 1.7 3.4 4.4 4 2.2.6 2.7.9 2.7 1.7 0 .8-.7 1.2-1.9 1.2-1.3 0-2.4-.5-3.4-1.2-.2-.1-.5-.3-.8-.3-.8 0-1.4.6-1.4 1.3-.2.7.1 1.1.4 1.3z"/><path d="M713.4 134.7c2.1 0 3.5-.6 4.7-1.7.3-.2.5-.6.5-1 0-.7-.6-1.3-1.4-1.3-.3 0-.6.1-.9.3-.8.7-1.6 1-2.9 1-2.3 0-3.8-1.9-3.8-4.2 0-2.3 1.6-4.1 3.8-4.1 1 0 1.9.3 2.7.9.2.1.5.3.9.3.8 0 1.4-.6 1.4-1.4 0-.5-.3-.9-.6-1.2-1.1-.8-2.4-1.3-4.4-1.3-4.1 0-6.9 3.1-6.9 6.8.2 3.9 3.1 6.9 6.9 6.9z"/><path d="M722.7 134.6c.8 0 1.5-.6 1.5-1.5v-4h5.4v4c0 .8.6 1.5 1.5 1.5.8 0 1.5-.6 1.5-1.5v-10.5c0-.8-.6-1.5-1.5-1.5-.8 0-1.5.6-1.5 1.5v3.9h-5.4v-3.9c0-.8-.6-1.5-1.5-1.5-.8 0-1.5.6-1.5 1.5v10.5c0 .9.6 1.5 1.5 1.5z"/><path d="M742 134.7c4.1 0 7-3.1 7-6.8 0-3.8-2.9-6.8-7-6.8s-7.1 3.1-7.1 6.8c.1 3.8 3 6.8 7.1 6.8zm-4-6.8c0-2.3 1.6-4.1 4-4.1 2.3 0 4 1.9 4 4.2 0 2.3-1.6 4.1-4 4.1-2.3-.1-4-1.9-4-4.2z"/><path d="M758.1 134.7c4.1 0 7.1-3.1 7.1-6.8 0-3.8-2.9-6.8-7-6.8s-7.1 3.1-7.1 6.8c0 3.8 2.9 6.8 7 6.8zm-4-6.8c0-2.3 1.6-4.1 4-4.1 2.3 0 4 1.9 4 4.2 0 2.3-1.6 4.1-4 4.1-2.3-.1-4-1.9-4-4.2z"/><path d="M769.2 134.5h6.8c.7 0 1.3-.6 1.3-1.3 0-.7-.6-1.3-1.3-1.3h-5.4v-9.2c0-.8-.6-1.5-1.5-1.5-.8 0-1.5.6-1.5 1.5V133c.1.9.8 1.5 1.6 1.5z"/></g><path d="M191.198 340.276c0-.7.5-1.2 1.2-1.2s1.2.5 1.2 1.2v8.9c0 .7-.5 1.2-1.2 1.2s-1.2-.5-1.2-1.2v-8.9z" fill="#231f20"/><path d="M233.446 345.004c.3-.6 1.1-.8 1.7-.5.6.3.8 1.1.5 1.7l-3.9 6.8 4 2.3c.5.3.7 1 .4 1.5-.3.5-1 .7-1.5.4l-5-2.9c-.6-.3-.8-1.1-.5-1.7l4.3-7.6z" fill="#231f20"/><path d="M148.9 356.877c-.3 0-.7-.2-.9-.6-.3-.6-.1-1.2.4-1.6.3-.2.5-.2.7-.2 1 .1 2 0 3-.6.9-.5 1.2-1.2.9-1.7-.3-.5-.8-.6-2.7-.1-2.2.6-3.8.8-4.9-1.1-1-1.8-.3-3.7 1.7-4.9 1.2-.7 2.4-1 3.6-.9.3 0 .7.2 1 .6.3.6.1 1.2-.4 1.6-.2.1-.4.2-.6.2-.9 0-1.7.1-2.4.5-.8.5-1 1.1-.8 1.6.4.6.9.6 2.8.1 2.3-.6 3.8-.6 4.8 1.1 1.1 1.9.3 3.9-1.8 5.1-1.4.7-2.9 1.1-4.4.9z" fill="#231f20"/></g></svg>