<?xml version="1.0" encoding="utf-8"?>
<!-- Generator: Adobe Illustrator 22.1.0, SVG Export Plug-In . SVG Version: 6.00 Build 0)  -->
<svg version="1.1" id="Opc2" xmlns="http://www.w3.org/2000/svg" xmlns:xlink="http://www.w3.org/1999/xlink" x="0px" y="0px"
	 viewBox="0 0 884 1024" style="enable-background:new 0 0 884 1024;" xml:space="preserve">
<style type="text/css">
	.st0{fill:#FBDE34;}
	.st1{fill:#393939;}
	.st2{display:none;fill:#0055FF;}
</style>
<g>
	<polygon class="st0" points="442,1.5 -0.1,256.8 -0.1,767.3 442,1022.5 884.1,767.3 884.1,256.8 	"/>
	<path class="st1" d="M618.7,130.1L444.1,29.4l0,0c-0.2-0.2-0.5-0.2-0.7-0.2l0,0l0,0h-0.2h-0.2c-0.2,0-0.5,0-0.7,0c0,0,0,0-0.2,0
		h-0.2c-0.2,0-0.7,0-0.9,0l0,0l0,0l0,0c-0.2,0-0.5,0.2-0.7,0.2l0,0l-171.8,99.1c-2.1,1.2-2.8,3.7-1.6,5.8s3.9,2.8,5.8,1.6
		l152.7-88.1l-64.9,82.8c-1.4,1.8-1.2,4.6,0.7,6c1.8,1.4,4.6,1.2,6-0.7l70.9-90.4v88.3c0,2.3,1.8,4.4,4.4,4.4c2.5,0,4.4-1.8,4.4-4.4
		V45.5l70.9,90.4c0.9,1.2,2.1,1.6,3.5,1.6c0.9,0,1.8-0.2,2.5-0.9c1.8-1.4,2.1-4.1,0.7-6l-64.9-82.8l155.5,89.7
		c0.7,0.5,1.4,0.5,2.1,0.5c1.4,0,3-0.7,3.7-2.1C621.4,134,620.7,131.3,618.7,130.1z"/>
	<path class="st1" d="M617.5,889.6c-1.2-2.1-3.9-2.8-5.8-1.6l-152.5,88.1l64.9-82.8c1.4-1.8,1.2-4.6-0.7-6c-1.8-1.4-4.6-1.2-6,0.7
		l-70.9,90.4V890c0-2.3-1.8-4.4-4.4-4.4c-2.5,0-4.4,1.8-4.4,4.4v88.3L367,888c-1.4-1.8-4.1-2.1-6-0.7c-1.8,1.4-2.1,4.1-0.7,6
		l64.9,82.8l-155.5-89.7c-2.1-1.2-4.6-0.5-5.8,1.6c-1.2,2.1-0.5,4.6,1.6,5.8l174.6,100.8c0,0,0,0,0.2,0c0.2,0,0.2,0.2,0.5,0.2
		c0,0,0,0,0.2,0c0,0,0,0,0.2,0h0.2c0.2,0,0.7,0.2,0.9,0.2l0,0l0,0l0,0l0,0c0.5,0,0.7,0,0.9-0.2h0.2h0.2c0.2,0,0.2-0.2,0.5-0.2
		c0,0,0,0,0.2,0l171.8-99.1C618,894.4,618.7,891.6,617.5,889.6z"/>
	<circle class="st1" cx="629" cy="881.5" r="5.3"/>
	<circle class="st1" cx="252.9" cy="881.5" r="5.3"/>
	<path class="st2" d="M333.7,877.9L333.7,877.9c-3.5-6-1.6-13.3,4.8-17s13.8-1.6,17,4.4l0,0c3.5,6,1.6,13.3-4.8,17
		C344.2,886,336.9,883.9,333.7,877.9z M350.9,868L350.9,868c-2.1-3.7-6.4-5.1-10.1-3c-3.7,2.1-4.6,6.4-2.5,10.1l0,0
		c2.1,3.5,6.4,5.1,10.1,3C352.1,875.9,353,871.5,350.9,868z"/>
	<path class="st2" d="M430.5,864.8l8.3-18.9c0.7-1.4,1.6-2.1,3-2.1h0.2c1.4,0,2.5,0.7,3,2.1l8.3,18.9c0.2,0.5,0.2,0.7,0.2,1.2
		c0,1.4-1.2,2.5-2.5,2.5c-1.2,0-2.1-0.7-2.5-1.8l-1.6-3.7h-10.6l-1.6,3.9c-0.5,0.9-1.4,1.6-2.5,1.6c-1.4,0-2.5-1.2-2.5-2.5
		C430.3,865.5,430.3,865.1,430.5,864.8z M445.2,858.2l-3.2-7.8l-3.2,7.8H445.2z"/>
	<path class="st2" d="M537.5,857.9c0.9-1.2,2.5-1.6,3.7-0.7c1.2,0.9,1.6,2.5,0.7,3.7l-4.6,6.7l13.6-2.3c0.9-0.2,1.6,0,2.3,0.5
		c1.2,0.9,1.4,2.3,0.7,3.5c-0.5,0.7-1.2,0.9-1.8,1.2l-9.2,1.4l0.7,11.7c0,0.7,0,1.4-0.5,1.8c-0.9,1.2-2.3,1.4-3.7,0.7
		c-0.9-0.7-1.2-1.4-1.2-2.3l-0.5-11.3l-4.1,0.7l-2.8,3.9c-0.9,1.2-2.5,1.6-3.7,0.7c-1.2-0.9-1.6-2.5-0.7-3.7L537.5,857.9z"/>
	<path class="st2" d="M876.8,253.4L449.8,7.1c-4.8-2.8-10.8-2.8-15.6,0L7.2,253.4c-4.8,2.8-7.8,8.1-7.8,13.6v493
		c0,5.5,3,10.8,7.8,13.6l427,246.4c2.5,1.4,5.1,2.1,7.8,2.1s5.5-0.7,7.8-2.1l427-246.4c4.8-2.8,7.8-8.1,7.8-13.6V267
		C884.6,261.5,881.6,256.2,876.8,253.4z M442,38.6L853.3,276v69.7h-50.4c-3,0-5.5,2.5-5.5,5.5v16.3h-62.3v-127c0-3-2.5-5.5-5.5-5.5
		h-582c-3,0-5.5,2.5-5.5,5.5v127H79.7v-16.3c0-3-2.5-5.5-5.5-5.5H30.2V276L442,38.6z M810.8,631.6h37v27.1h-37V631.6z M810.8,620.6
		v-27.1h37v27.1H810.8z M853.3,496.8l-0.7-1.2h0.7V496.8z M846.4,484.6l-6-10.4h12.9v10.4H846.4z M840.4,463.5l6.9-12.2h6v12.2
		H840.4z M853.3,419.5l-27.1,46.7v0.2c-0.2,0.2-0.2,0.7-0.5,0.9v0.2c0,0.5-0.2,0.9-0.2,1.4s0,0.9,0.2,1.4v0.2c0,0.2,0.2,0.7,0.5,0.9
		v0.2l27.1,46.9v64h-47.8c-3,0-5.5,2.5-5.5,5.5v38v38c0,3,2.5,5.5,5.5,5.5h47.8v53.1h-69.7V400.2h19.6h50.4v19.3H853.3z M36,451.5
		l6.9,12.2H30.7v-12.2H36z M43.1,474.5l-6,10.1h-6.2v-10.4h12.2V474.5z M30.9,495.7L30.9,495.7L30.9,495.7L30.9,495.7z M67,620.6
		H35.5v-27.1H67V620.6z M67,631.6v27.1H35.5v-27.1H67z M30.9,669.6h41.6c3,0,5.5-2.5,5.5-5.5v-38v-38c0-3-2.5-5.5-5.5-5.5H30.9
		v-65.1l26.5-45.8v-0.2c0.2-0.2,0.2-0.7,0.5-0.9v-0.2c0-0.5,0.2-0.9,0.2-1.4s0-0.9-0.2-1.4v-0.2c0-0.2-0.2-0.7-0.5-0.9v-0.2
		l-26.5-45.8V400h43.9h19.6v322.7H30.9V669.6z M69.3,372.8v16.3H30.9v-32.7h38.4V372.8z M99.7,389.2H80.1v-10.8h62.3v331.7v12.7H105
		v-328C105,391.7,102.7,389.2,99.7,389.2z M724.3,372.8v331.7h-7.4v-28.1c0-3-2.5-5.5-5.5-5.5h-12.7v-28.1c0-3-2.5-5.5-5.5-5.5
		h-12.7v-28.1c0-3-2.5-5.5-5.5-5.5h-10.8v-204H675c3,0,5.5-2.5,5.5-5.5v-16.3h12.7c3,0,5.5-2.5,5.5-5.5v-59.8c0-3-2.5-5.5-5.5-5.5
		H193.3c-3,0-5.5,2.5-5.5,5.5v59.8c0,3,2.5,5.5,5.5,5.5H206v16.3c0,3,2.5,5.5,5.5,5.5h10.8v204h-10.8c-3,0-5.5,2.5-5.5,5.5v28.1
		h-12.7c-3,0-5.5,2.5-5.5,5.5V671h-21.2c-3,0-5.5,2.5-5.5,5.5v28.1h-7.8V372.8v-127h571L724.3,372.8L724.3,372.8z M227.6,389.2
		h-10.8v-10.8h74.3v10.8h-10.8c-3,0-5.5,2.5-5.5,5.5V604h-41.6V394.7C233.1,391.7,230.6,389.2,227.6,389.2z M198.6,367.5v-49h489.5
		v49h-12.7h-83.3H296.6h-85.1H198.6z M653.6,394.7V604h-39.8V394.7c0-3-2.5-5.5-5.5-5.5h-10.8v-10.8H670v10.8h-10.8
		C656.2,389.2,653.6,391.7,653.6,394.7z M494.7,554.1h33.6l-28.1,48.5h-5.5L494.7,554.1L494.7,554.1z M534.7,543.3h-39.8v-32.2h58.4
		L534.7,543.3z M494.7,500.3v-35.7h37.7l20.7,35.7H494.7z M494.7,453.6v-44.9h5.5l25.8,44.9H494.7z M483.9,505.8v96.8H404v-53.8v-43
		v-46.7v-50.4h79.8V505.8z M393.2,453.6h-30.6l25.8-44.9h4.8V453.6z M356.2,464.4h37V500h-57.5L356.2,464.4z M393.2,511.1v32.2
		h-39.1l-18.6-32.2H393.2z M393.2,554.1v48.5h-4.8l-28.1-48.5H393.2L393.2,554.1z M567.4,508.3L567.4,508.3c0.2-0.5,0.5-0.7,0.5-1.2
		v-0.2c0-0.5,0.2-0.9,0.2-1.4c0-0.5,0-0.9-0.2-1.4V504c0-0.2-0.2-0.7-0.5-0.9v-0.2l-59.1-102.4c-0.9-1.6-2.8-2.8-4.6-2.8h-14.3
		h-90.6h-13.3c-1.8,0-3.7,1.2-4.6,2.8L321.5,503v0.2c-0.2,0.2-0.2,0.7-0.5,0.9v0.2c0,0.5-0.2,0.9-0.2,1.4s0,0.9,0.2,1.4v0.2
		c0,0.2,0.2,0.7,0.5,0.9v0.2l55.2,95.7h-91.1v-204h10.8c3,0,5.5-2.5,5.5-5.5v-16.3h284.6v16.3c0,3,2.5,5.5,5.5,5.5h10.8v204h-90.9
		L567.4,508.3z M659.2,614.8H670v22.8H216.8v-22.8h10.8H659.2z M675.5,648.4h12.7v22.8H198.6v-22.8h12.7H675.5z M693.4,682h12.7
		v22.8H172.2V682h21.2H693.4z M153.3,728.2v-12.7h13.3h545h12.7v12.7v9.9h-571V728.2z M735.3,710.1V378.4h62.3v10.8h-19.6
		c-3,0-5.5,2.5-5.5,5.5v328h-37.5v-12.7H735.3z M808.5,389.2v-16.3v-16.3h44.9v32.7L808.5,389.2L808.5,389.2z M442,988.4L30.9,751
		v-17.3h68.8l0,0h42.8v9.9c0,3,2.5,5.5,5.5,5.5h582c3,0,5.5-2.5,5.5-5.5v-9.9h42.8l0,0h75.2V751L442,988.4z"/>
</g>
<path class="st1" d="M536.7,852.3c0.7-1.5,2.7-2,4.2-1.2l8.5,4.7c3,1.7,5,4,5.7,6.5c0.5,2.2,0.2,4.5-1,6.7l0,0c-2.2,3.7-5.5,5-9,4.5
	l1,6.7c0.2,1,0.2,1.7-0.2,2.5c-0.7,1.5-2.7,1.7-4,1s-1.7-1.7-1.7-3l-1.5-9.5l-4.2-2.5l-3,5.2c-0.7,1.5-2.7,2-4.2,1.2
	c-1.5-0.7-2-2.7-1.2-4.2L536.7,852.3z M542.2,867.5c2.5,1.5,5,1,6-1l0,0c1.2-2.2,0.5-4.5-2.2-6l-5.2-3l-4,7L542.2,867.5z"/>
<path class="st1" d="M330.3,863.1c-0.7-1.5-0.2-3.2,1.2-4.2l7.2-4.2c5.7-3.2,11.2-2,14.2,3l0,0c3.2,5.5,0.5,11-5,14.2l-4,2.2
	l2.7,4.7c0.7,1.5,0.2,3.2-1.2,4.2s-3.2,0.2-4.2-1.2L330.3,863.1z M345.5,867.1c2.7-1.5,3.2-4,2-6l0,0c-1.5-2.5-3.7-2.7-6.5-1.2
	l-4.2,2.5l4.2,7.5L345.5,867.1z"/>
<path class="st1" d="M432,860.9v-21.7c0-1.7,1.2-3,3-3h15.5c1.5,0,2.7,1.2,2.7,2.7s-1.2,2.7-2.7,2.7H438v5.7h10.7
	c1.5,0,2.7,1.2,2.7,2.7s-1.2,2.7-2.7,2.7H438v6h12.7c1.5,0,2.7,1.2,2.7,2.7s-1.2,2.7-2.7,2.7H435C433.5,863.9,432,862.7,432,860.9z"
	/>
<g>
	<path class="st1" d="M295.5,247.7c1.8,0,3.2-1.4,3.2-3.2v-16.3l13.3,17.5c0.9,1.2,1.8,2.1,3.5,2.1h0.2c1.8,0,3.5-1.4,3.5-3.5v-24.2
		c0-1.8-1.4-3.2-3.2-3.2c-1.8,0-3.2,1.4-3.2,3.2v15.6l-12.9-17c-0.9-1.2-1.8-2.1-3.5-2.1h-0.7c-1.8,0-3.5,1.4-3.5,3.5v24.2
		C292.2,246.4,293.6,247.7,295.5,247.7z"/>
	<path class="st1" d="M341.2,248c9.4,0,16.3-7.1,16.3-15.6l0,0c0-8.7-6.7-15.6-16.1-15.6s-16.3,7.1-16.3,15.6l0,0
		C325.1,241.1,331.8,248,341.2,248z M332.3,232.3c0-5.3,3.7-9.4,9.2-9.4c5.3,0,9.2,4.4,9.2,9.7l0,0c0,5.3-3.7,9.4-9.2,9.4
		C336,241.8,332.3,237.6,332.3,232.3L332.3,232.3z"/>
	<path class="st1" d="M366.8,247.5h8.5c9.7,0,16.1-6.7,16.1-15.2l0,0c0-8.5-6.7-15.2-16.1-15.2h-8.5c-1.8,0-3.5,1.4-3.5,3.5v23.5
		C363.6,246.1,364.9,247.5,366.8,247.5z M370.2,223.1h5.1c5.5,0,9.2,3.7,9.2,9.2l0,0c0,5.3-3.7,9.2-9.2,9.2h-5.1V223.1z"/>
	<path class="st1" d="M400.8,247.5h17c1.6,0,3-1.4,3-3c0-1.6-1.4-3-3-3H404v-6.4h11.5c1.6,0,3-1.4,3-3c0-1.6-1.4-3-3-3H404v-6.2
		h13.6c1.6,0,3-1.4,3-3c0-1.6-1.4-3-3-3h-16.8c-1.8,0-3.5,1.4-3.5,3.5v23.7C397.6,246.1,399,247.5,400.8,247.5z"/>
	<path class="st1" d="M426.1,244.3c3.5,2.5,7.4,3.7,11.5,3.7c6.7,0,11.3-3.5,11.3-9.4l0,0c0-5.3-3.5-7.6-9.7-9.2
		c-5.3-1.4-6.7-2.1-6.7-3.9l0,0c0-1.4,1.4-2.8,3.9-2.8c2.1,0,4.1,0.7,6.4,2.1c0.5,0.2,1.2,0.5,1.6,0.5c1.8,0,3.2-1.4,3.2-3
		c0-1.4-0.7-2.3-1.4-2.8c-2.8-1.8-6-2.8-9.7-2.8c-6.2,0-10.6,3.7-10.6,9.2l0,0c0,6,3.9,7.8,10.1,9.2c5.1,1.4,6.2,2.1,6.2,3.9l0,0
		c0,1.8-1.6,2.8-4.4,2.8c-3,0-5.5-1.2-7.8-2.8c-0.5-0.2-1.2-0.7-1.8-0.7c-1.8,0-3.2,1.4-3.2,3C424.7,242.9,425.4,243.8,426.1,244.3z
		"/>
	<path class="st1" d="M468.7,248c4.8,0,8.1-1.4,10.8-3.9c0.7-0.5,1.2-1.4,1.2-2.3c0-1.6-1.4-3-3.2-3c-0.7,0-1.4,0.2-2.1,0.7
		c-1.8,1.6-3.7,2.3-6.7,2.3c-5.3,0-8.7-4.4-8.7-9.7l0,0c0-5.3,3.7-9.4,8.7-9.4c2.3,0,4.4,0.7,6.2,2.1c0.5,0.2,1.2,0.7,2.1,0.7
		c1.8,0,3.2-1.4,3.2-3.2c0-1.2-0.7-2.1-1.4-2.8c-2.5-1.8-5.5-3-10.1-3c-9.4,0-15.9,7.1-15.9,15.6l0,0
		C453.3,241.1,459.9,248,468.7,248z"/>
	<path class="st1" d="M490.1,247.7c1.8,0,3.5-1.4,3.5-3.5v-9.2H506v9.2c0,1.8,1.4,3.5,3.5,3.5c1.8,0,3.5-1.4,3.5-3.5v-24.2
		c0-1.8-1.4-3.5-3.5-3.5c-1.8,0-3.5,1.4-3.5,3.5v9h-12.4v-9c0-1.8-1.4-3.5-3.5-3.5c-1.8,0-3.5,1.4-3.5,3.5v24.2
		C486.6,246.4,488,247.7,490.1,247.7z"/>
	<path class="st1" d="M534.5,248c9.4,0,16.1-7.1,16.1-15.6l0,0c0-8.7-6.7-15.6-16.1-15.6s-16.3,7.1-16.3,15.6l0,0
		C518.4,241.1,525,248,534.5,248z M525.3,232.3c0-5.3,3.7-9.4,9.2-9.4c5.3,0,9.2,4.4,9.2,9.7l0,0c0,5.3-3.7,9.4-9.2,9.4
		C529.2,241.8,525.3,237.6,525.3,232.3L525.3,232.3z"/>
	<path class="st1" d="M571.5,248c9.4,0,16.3-7.1,16.3-15.6l0,0c0-8.7-6.7-15.6-16.1-15.6s-16.3,7.1-16.3,15.6l0,0
		C555.4,241.1,562.1,248,571.5,248z M562.3,232.3c0-5.3,3.7-9.4,9.2-9.4c5.3,0,9.2,4.4,9.2,9.7l0,0c0,5.3-3.7,9.4-9.2,9.4
		C566.2,241.8,562.3,237.6,562.3,232.3L562.3,232.3z"/>
	<path class="st1" d="M597.1,247.5h15.6c1.6,0,3-1.4,3-3c0-1.6-1.4-3-3-3h-12.4v-21.2c0-1.8-1.4-3.5-3.5-3.5c-1.8,0-3.5,1.4-3.5,3.5
		v23.7C593.6,246.1,595.2,247.5,597.1,247.5z"/>
</g>
<g>
	<path class="st1" d="M826.1,523.4H718.6c-1.5,0-2.7-1.2-2.7-2.7V354.5c0-1.5,1.2-2.7,2.7-2.7h107.5c1.5,0,2.7,1.2,2.7,2.7v166.3
		C828.8,522.3,827.6,523.4,826.1,523.4z M721.3,518h102.1V357.2H721.3V518z"/>
	<path class="st1" d="M813.7,357.2c-1.5,0-2.7-1.2-2.7-2.7v-19h-77.2v19c0,1.5-1.2,2.7-2.7,2.7c-1.5,0-2.7-1.2-2.7-2.7v-21.7
		c0-1.5,1.2-2.7,2.7-2.7h82.7c1.5,0,2.7,1.2,2.7,2.7v21.7C816.4,356,815.2,357.2,813.7,357.2z"/>
	<path class="st1" d="M785.6,419.3h-29c-1,0-1.9-0.5-2.4-1.3l-14.5-25.1c-0.5-0.9-0.5-1.9,0-2.7l14.5-25.1c0.5-0.9,1.4-1.3,2.4-1.3
		h29c1,0,1.9,0.5,2.4,1.3l14.5,25.1c0.5,0.9,0.5,1.9,0,2.7L787.9,418C787.5,418.8,786.6,419.3,785.6,419.3z M758.2,413.9H784
		l12.9-22.4L784,369.1h-25.8l-12.9,22.4L758.2,413.9z"/>
	<path class="st1" d="M771.1,419.3c-1.5,0-2.7-1.2-2.7-2.7v-50.2c0-1.5,1.2-2.7,2.7-2.7s2.7,1.2,2.7,2.7v50.2
		C773.8,418.1,772.6,419.3,771.1,419.3z"/>
	<path class="st1" d="M800.1,394.3h-58c-1.5,0-2.7-1.2-2.7-2.7s1.2-2.7,2.7-2.7h58c1.5,0,2.7,1.2,2.7,2.7S801.6,394.3,800.1,394.3z"
		/>
	<path class="st1" d="M793.5,382.8h-44.8c-1.5,0-2.7-1.2-2.7-2.7s1.2-2.7,2.7-2.7h44.8c1.5,0,2.7,1.2,2.7,2.7
		C796.2,381.6,795,382.8,793.5,382.8z"/>
	<path class="st1" d="M793.5,404.8h-44.8c-1.5,0-2.7-1.2-2.7-2.7s1.2-2.7,2.7-2.7h44.8c1.5,0,2.7,1.2,2.7,2.7S795,404.8,793.5,404.8
		z"/>
	<path class="st1" d="M813.8,491.5h-81.6c-1.5,0-2.7-1.2-2.7-2.7v-38c0-1.5,1.2-2.7,2.7-2.7h81.6c1.5,0,2.7,1.2,2.7,2.7v38
		C816.5,490.3,815.3,491.5,813.8,491.5z M734.9,486.1h76.2v-32.5h-76.2V486.1z"/>
	<path class="st1" d="M813.8,472.6h-81.6c-1.5,0-2.7-1.2-2.7-2.7s1.2-2.7,2.7-2.7h81.6c1.5,0,2.7,1.2,2.7,2.7
		C816.5,471.3,815.3,472.6,813.8,472.6z"/>
	<path class="st1" d="M792.7,491.5c-1.5,0-2.7-1.2-2.7-2.7v-38c0-1.5,1.2-2.7,2.7-2.7s2.7,1.2,2.7,2.7v38
		C795.4,490.3,794.2,491.5,792.7,491.5z"/>
	<path class="st1" d="M753.3,491.5c-1.5,0-2.7-1.2-2.7-2.7v-38c0-1.5,1.2-2.7,2.7-2.7c1.5,0,2.7,1.2,2.7,2.7v38
		C756,490.3,754.8,491.5,753.3,491.5z"/>
	<path class="st1" d="M773,491.5c-1.5,0-2.7-1.2-2.7-2.7v-38c0-1.5,1.2-2.7,2.7-2.7c1.5,0,2.7,1.2,2.7,2.7v38
		C775.7,490.3,774.5,491.5,773,491.5z"/>
	<path class="st1" d="M718.6,351.7H611.1c-1.5,0-2.7,1.2-2.7,2.7v123c0.6-0.3,1.2-0.4,1.8-0.4c0.9,0,1.9,0.3,2.8,0.8
		c0.3,0.1,0.6,0.2,0.8,0.3V357.2h102.1V518H613.8v-7.3c-0.3,0-0.6-0.1-1-0.2c-1.4-0.5-2.9-0.9-4.4-1.1c0,0,0,0,0,0v11.3
		c0,1.5,1.2,2.7,2.7,2.7h107.5c1.5,0,2.7-1.2,2.7-2.7V354.5C721.3,353,720.1,351.7,718.6,351.7z"/>
	<path class="st1" d="M706.2,357.2c-1.5,0-2.7-1.2-2.7-2.7v-19h-77.2v19c0,1.5-1.2,2.7-2.7,2.7c-1.5,0-2.7-1.2-2.7-2.7v-21.7
		c0-1.5,1.2-2.7,2.7-2.7h82.7c1.5,0,2.7,1.2,2.7,2.7v21.7C708.9,356,707.7,357.2,706.2,357.2z"/>
	<path class="st1" d="M678.1,419.3h-29c-1,0-1.9-0.5-2.4-1.3l-14.5-25.1c-0.5-0.9-0.5-1.9,0-2.7l14.5-25.1c0.5-0.9,1.4-1.3,2.4-1.3
		h29c1,0,1.9,0.5,2.4,1.3l14.5,25.1c0.5,0.9,0.5,1.9,0,2.7L680.4,418C679.9,418.8,679,419.3,678.1,419.3z M650.6,413.9h25.8
		l12.9-22.4l-12.9-22.4h-25.8l-12.9,22.4L650.6,413.9z"/>
	<path class="st1" d="M663.6,419.3c-1.5,0-2.7-1.2-2.7-2.7v-50.2c0-1.5,1.2-2.7,2.7-2.7s2.7,1.2,2.7,2.7v50.2
		C666.3,418.1,665.1,419.3,663.6,419.3z"/>
	<path class="st1" d="M692.6,394.3h-58c-1.5,0-2.7-1.2-2.7-2.7s1.2-2.7,2.7-2.7h58c1.5,0,2.7,1.2,2.7,2.7S694.1,394.3,692.6,394.3z"
		/>
	<path class="st1" d="M686,382.8h-44.8c-1.5,0-2.7-1.2-2.7-2.7s1.2-2.7,2.7-2.7H686c1.5,0,2.7,1.2,2.7,2.7
		C688.7,381.6,687.5,382.8,686,382.8z"/>
	<path class="st1" d="M686,404.8h-44.8c-1.5,0-2.7-1.2-2.7-2.7s1.2-2.7,2.7-2.7H686c1.5,0,2.7,1.2,2.7,2.7S687.5,404.8,686,404.8z"
		/>
	<path class="st1" d="M706.3,491.5h-81.6c-1.5,0-2.7-1.2-2.7-2.7v-38c0-1.5,1.2-2.7,2.7-2.7h81.6c1.5,0,2.7,1.2,2.7,2.7v38
		C709,490.3,707.8,491.5,706.3,491.5z M627.4,486.1h76.2v-32.5h-76.2V486.1z"/>
	<path class="st1" d="M706.3,472.6h-81.6c-1.5,0-2.7-1.2-2.7-2.7s1.2-2.7,2.7-2.7h81.6c1.5,0,2.7,1.2,2.7,2.7
		S707.8,472.6,706.3,472.6z"/>
	<path class="st1" d="M685.2,491.5c-1.5,0-2.7-1.2-2.7-2.7v-38c0-1.5,1.2-2.7,2.7-2.7s2.7,1.2,2.7,2.7v38
		C687.9,490.3,686.7,491.5,685.2,491.5z"/>
	<path class="st1" d="M645.8,491.5c-1.5,0-2.7-1.2-2.7-2.7v-38c0-1.5,1.2-2.7,2.7-2.7c1.5,0,2.7,1.2,2.7,2.7v38
		C648.4,490.3,647.3,491.5,645.8,491.5z"/>
	<path class="st1" d="M665.5,491.5c-1.5,0-2.7-1.2-2.7-2.7v-38c0-1.5,1.2-2.7,2.7-2.7c1.5,0,2.7,1.2,2.7,2.7v38
		C668.2,490.3,667,491.5,665.5,491.5z"/>
	<path class="st1" d="M297.4,521.2c-0.3,0-0.7-0.1-1-0.3c-0.4-0.2-0.8-0.4-1.2-0.6c-0.2-0.1-0.3-0.1-0.5-0.2c-0.1,0-0.2-0.1-0.4-0.2
		v0.8c0,1.5,1.2,2.7,2.7,2.7c1,0,1.8-0.5,2.3-1.3c-0.4-0.1-0.8-0.3-1.2-0.5C297.8,521.5,297.6,521.3,297.4,521.2z"/>
	<path class="st1" d="M584.3,446.2c1.1-0.2,2.2,0.1,3.2,0.6c1.1,0.6,2,1.8,2.3,3c0,0,0,0.1,0,0.1V277.6c0-1.5-1.2-2.7-2.7-2.7H297
		c-1.5,0-2.7,1.2-2.7,2.7v76c0.8-0.5,1.8-0.8,2.7-0.8c0.9,0,1.9,0.3,2.7,0.8v-73.3h284.6V446.2z"/>
	<path class="st1" d="M588.9,466.3c0.4,0.2,0.7,0.5,0.9,0.8v-11.8c-0.3,0.5-0.6,1-1,1.4c-0.1,0.1-0.2,0.2-0.3,0.2
		c-0.1,0.1-0.3,0.2-0.4,0.3c-0.1,0.4-0.3,0.9-0.5,1.3c0.4,0.8,0.6,1.6,0.7,2.5c0,0.9-0.3,1.8-0.7,2.6c-0.1,0.6-0.3,1.1-0.6,1.6
		c0,0.1-0.1,0.2-0.1,0.2C587.5,465.7,588.3,466,588.9,466.3z"/>
	<path class="st1" d="M586.9,503.2c0,0.2,0,0.3,0.1,0.5c0,0.7-0.1,1.4-0.4,2c0.1,0,0.2,0,0.3,0.1c1.1,0.3,2.1,0.9,3,1.6v-4.2
		C588.8,503.5,587.8,503.5,586.9,503.2z"/>
	<path class="st1" d="M569,346.3H319.5c-1.5,0-2.7-1.2-2.7-2.7v-29.8c0-1.5,1.2-2.7,2.7-2.7h249.4c1.5,0,2.7,1.2,2.7,2.7v29.8
		C571.6,345.1,570.5,346.3,569,346.3z M322.3,340.9h244v-24.4h-244V340.9L322.3,340.9z"/>
	<path class="st1" d="M334,357.2v6.4c0.7,0.1,1.3,0.3,1.8,0.7c0,0,0.1,0,0.1,0.1c0.8,0.3,1.5,0.7,2,1.3c0.2,0,0.3,0,0.5-0.1
		c0.3,0,0.7,0,1,0.1v-11.3c0-1.5-1.2-2.7-2.7-2.7h-5.4v-8.1c0-1.5-1.2-2.7-2.7-2.7c-1.5,0-2.7,1.2-2.7,2.7v10.9
		c0,1.5,1.2,2.7,2.7,2.7H334z"/>
	<path class="st1" d="M550.6,456.8c-0.2-0.6-0.5-1.1-0.6-1.7c-0.4-0.3-0.7-0.6-1-1v4.7h-1.4c0.9,1.7,1.1,3.5,1,5.5h3.1
		c0.2,0,0.4,0,0.6-0.1c-0.8-2.3-1.4-4.7-1.6-7.1C550.7,457,550.7,456.9,550.6,456.8z"/>
	<path class="st1" d="M559.9,340.9c-1.5,0-2.7,1.2-2.7,2.7v8.1h-5.4c-1.5,0-2.7,1.2-2.7,2.7v71.3c1-0.6,2.2-0.9,3.4-0.9
		c0.7,0,1.4,0.2,2.1,0.5v-68.2h5.4c1.5,0,2.7-1.2,2.7-2.7v-10.9C562.6,342.1,561.4,340.9,559.9,340.9z"/>
	<path class="st1" d="M518.4,357.2c-1.5,0-2.7-1.2-2.7-2.7v-10.9c0-1.5,1.2-2.7,2.7-2.7c1.5,0,2.7,1.2,2.7,2.7v10.9
		C521,356,519.9,357.2,518.4,357.2z"/>
	<path class="st1" d="M526.5,357.2h-8.1c-1.5,0-2.7-1.2-2.7-2.7s1.2-2.7,2.7-2.7h8.1c1.5,0,2.7,1.2,2.7,2.7
		C529.2,356,528,357.2,526.5,357.2z"/>
	<path class="st1" d="M527.2,427.5c0.7,0,1.4,0.1,2,0.4v-73.5c0-1.5-1.2-2.7-2.7-2.7c-1.5,0-2.7,1.2-2.7,2.7v74.4
		C524.7,428,525.9,427.6,527.2,427.5z"/>
	<path class="st1" d="M371,357.2c-1.5,0-2.7-1.2-2.7-2.7v-10.9c0-1.5,1.2-2.7,2.7-2.7c1.5,0,2.7,1.2,2.7,2.7v10.9
		C373.8,356,372.5,357.2,371,357.2z"/>
	<path class="st1" d="M371,357.2h-8.1c-1.5,0-2.7-1.2-2.7-2.7s1.2-2.7,2.7-2.7h8.1c1.5,0,2.7,1.2,2.7,2.7S372.5,357.2,371,357.2z"/>
	<path class="st1" d="M362.7,381.3c0.1,0.1,0.1,0.1,0.2,0.2c0.7,0.4,1.3,0.8,2,1.2c0.3,0.1,0.5,0.3,0.7,0.5v-28.7
		c0-1.5-1.2-2.7-2.7-2.7c-1.5,0-2.7,1.2-2.7,2.7v24.9C361.1,380,361.9,380.6,362.7,381.3z"/>
	<path class="st1" d="M557.2,474.6v1h-7.7c-0.3,0.9-0.7,1.7-1,2.6c0.1,0.7,0.1,1.4-0.1,2c-0.1,0.3-0.2,0.6-0.3,0.9h11.8
		c0.2,0,0.5,0,0.7-0.1c-0.5-0.8-1-1.6-1.5-2.4C558.3,477.2,557.6,475.9,557.2,474.6z"/>
	<path class="st1" d="M548.7,464.3h3.8c-0.6-1.8-1.1-3.6-1.5-5.5h-3.4C548.5,460.4,548.7,462.3,548.7,464.3z"/>
	<path class="st1" d="M557.5,475.5h-8c-0.3,0.9-0.7,1.7-1,2.6c0.1,0.7,0.1,1.4-0.1,2c-0.1,0.3-0.2,0.6-0.3,0.9h12.6
		c-0.6-0.9-1.1-1.7-1.7-2.6C558.4,477.4,557.9,476.5,557.5,475.5z"/>
	<path class="st1" d="M566.2,489.1v3.1H547c0,0.1,0.1,0.2,0.1,0.4c0.1,0.1,0.1,0.1,0.2,0.2c0.2,0.2,0.3,0.4,0.5,0.6c0,0,0,0,0.1,0.1
		c0.4,0,0.7,0.1,1.1,0.2c0.3,0.1,0.5,0.2,0.8,0.3c0,0,0.1,0,0.1,0c0.5,0.1,0.9,0.3,1.3,0.5c0.3,0,0.7,0,1,0.1c2.9,0.6,5.6,1,8.5,0.8
		c0.9-0.1,1.7,0.2,2.4,0.6c0.1-0.1,0.2-0.2,0.3-0.2c0.3-0.2,0.5-0.3,0.8-0.4c0,0,0.1-0.1,0.1-0.1c0.4-0.4,0.9-0.7,1.4-1
		c0.1-0.2,0.2-0.4,0.3-0.6c0.4-0.7,0.9-1.2,1.4-1.7c-0.4-0.7-0.6-1.6-0.6-2.4C566.7,489.4,566.4,489.3,566.2,489.1z"/>
	<path class="st1" d="M563.4,495.8c0.3-0.2,0.5-0.3,0.8-0.4c0,0,0.1-0.1,0.1-0.1c0.4-0.4,0.9-0.7,1.4-1c0.1-0.2,0.2-0.4,0.3-0.6
		c0.4-0.6,0.8-1.1,1.2-1.5H547c0,0.1,0.1,0.3,0.1,0.4c0.1,0.1,0.1,0.1,0.2,0.2c0.2,0.2,0.3,0.4,0.5,0.6c0,0,0,0,0.1,0.1
		c0.4,0,0.7,0.1,1.1,0.2c0.3,0.1,0.5,0.2,0.8,0.3c0,0,0.1,0,0.1,0c0.5,0.1,0.9,0.3,1.3,0.5c0.3,0,0.7,0,1,0.1c2.9,0.6,5.6,1,8.5,0.8
		c0.9-0.1,1.7,0.2,2.4,0.6C563.2,495.9,563.3,495.9,563.4,495.8z"/>
	<path class="st1" d="M350.7,529.5c0-0.2-0.1-0.3-0.1-0.5c-0.1,0-0.1,0-0.2,0c-0.1,0-0.2-0.1-0.3-0.1c-0.2,0-0.4,0-0.6-0.1
		c-0.6-0.1-1.1-0.5-1.7-0.8c-1-0.1-2-0.2-3-0.4c-0.8-0.1-1.5-0.3-2.2-0.7c-0.2-0.1-0.3-0.2-0.4-0.3c-0.2,0-0.4,0.1-0.5,0.1
		c-0.8-0.1-1.5-0.4-1.9-1h-21.1c-0.1,0.1-0.2,0.2-0.3,0.3c-0.8,0.9-2.3,1.5-3.5,1.5c-1.1,0-2.3-0.4-3.2-1.2c-0.1,0-0.1,0-0.2,0
		c-0.5-0.1-0.9-0.3-1.3-0.6h-10.6v-3.4c-0.6-0.1-1.1-0.3-1.6-0.6c-0.2-0.2-0.5-0.3-0.7-0.5c-0.3,0-0.7-0.1-1-0.3
		c-0.4-0.2-0.8-0.4-1.2-0.6c-0.2-0.1-0.3-0.1-0.5-0.2c-0.1,0-0.2-0.1-0.4-0.2v8.4c0,1.5,1.2,2.7,2.7,2.7h54.5
		C351.1,530.6,350.9,530.1,350.7,529.5z"/>
	<path class="st1" d="M566.3,525.7C566.3,525.7,566.3,525.7,566.3,525.7l-12.1,0c-0.9,0.2-1.8,0.2-2.7,0h-1.5
		c-0.7,0.8-1.6,1.4-2.6,1.9c-2.3,0.9-4.4,2.1-6.2,3.6h33.8C572.9,528.6,569.3,527.2,566.3,525.7z"/>
	<path class="st1" d="M566.2,489.1v4.4c0.4-0.6,0.8-1,1.3-1.5c-0.4-0.7-0.6-1.6-0.6-2.4C566.7,489.4,566.4,489.3,566.2,489.1z"/>
	<path class="st1" d="M586.9,503.2c0,0.2,0.1,0.3,0.1,0.5c0,0.7-0.1,1.4-0.4,2c0.1,0,0.2,0,0.3,0.1c1,0.3,2.1,0.8,2.9,1.6v-4
		C588.7,503.5,587.8,503.5,586.9,503.2z"/>
	<path class="st1" d="M611,518.1h-13.5c2.1,1.3,3.6,3.2,4.9,5.3h8.6c1.5,0,2.7-1.2,2.7-2.6C613.7,519.3,612.5,518.1,611,518.1z"/>
	<path class="st1" d="M588.9,466.3c0.3,0.2,0.6,0.4,0.8,0.7v-11.4c-0.2,0.4-0.5,0.9-0.9,1.2c-0.1,0.1-0.2,0.2-0.3,0.2
		c-0.1,0.1-0.3,0.2-0.4,0.3c-0.1,0.4-0.3,0.9-0.5,1.3c0.4,0.8,0.6,1.6,0.7,2.5c0,0.9-0.3,1.8-0.7,2.6c-0.1,0.6-0.3,1.1-0.6,1.6
		c0,0.1-0.1,0.2-0.1,0.2C587.5,465.7,588.3,466,588.9,466.3z"/>
	<path class="st1" d="M623.5,340.9H587c-1.5,0-2.7,1.2-2.7,2.7v102.6c1.1-0.2,2.2,0.1,3.2,0.6c1,0.5,1.8,1.6,2.2,2.7V346.4h31.1v8.1
		c0,1.5,1.2,2.7,2.7,2.7s2.7-1.2,2.7-2.7v-10.9C626.2,342.2,625,340.9,623.5,340.9z"/>
	<path class="st1" d="M163.5,420.9c-0.2,0-0.4,0-0.6-0.1c-0.1,0-0.1,0-0.2,0V518H60.5V357.2h102.1v52.1c0.2-0.3,0.4-0.6,0.7-0.8
		c0.1-0.1,0.3-0.3,0.5-0.4c0.9-1.5,2.5-2.5,4.3-2.6v-51c0-1.5-1.2-2.7-2.7-2.7H57.9c-1.5,0-2.7,1.2-2.7,2.7v166.2
		c0,1.5,1.2,2.7,2.7,2.7h107.5c1.5,0,2.7-1.2,2.7-2.7V419.5C166.7,420.3,165.2,420.8,163.5,420.9z"/>
	<path class="st1" d="M147.8,334.3c-0.2-0.1-0.4-0.2-0.6-0.3c-0.2-0.2-0.5-0.3-0.7-0.5c-2.8-0.4-5.6-1.4-7.6-3.4H70.3
		c-1.5,0-2.7,1.2-2.7,2.7v21.7c0,1.5,1.2,2.7,2.7,2.7c1.5,0,2.7-1.2,2.7-2.7v-19h76.9C149.1,335.2,148.4,334.8,147.8,334.3z"/>
	<path class="st1" d="M151.3,335.7c-0.3,0-0.7,0-1-0.1v18.9c0,1.5,1.2,2.7,2.7,2.7c1.5,0,2.7-1.2,2.7-2.7v-17
		c-1.5-0.4-2.9-1-4.3-1.7C151.4,335.7,151.3,335.7,151.3,335.7z"/>
	<path class="st1" d="M127.3,419.3h-29c-1,0-1.9-0.5-2.4-1.3l-14.5-25.1c-0.5-0.9-0.5-1.9,0-2.7L96,365.1c0.5-0.9,1.4-1.3,2.4-1.3
		h29c1,0,1.9,0.5,2.4,1.3l14.5,25.1c0.5,0.9,0.5,1.9,0,2.7L129.7,418C129.2,418.8,128.3,419.3,127.3,419.3z M99.9,413.9h25.8
		l12.9-22.4l-12.9-22.4H99.9L87,391.5L99.9,413.9z"/>
	<path class="st1" d="M112.9,419.3c-1.5,0-2.7-1.2-2.7-2.7v-50.2c0-1.5,1.2-2.7,2.7-2.7c1.5,0,2.7,1.2,2.7,2.7v50.2
		C115.6,418.1,114.3,419.3,112.9,419.3z"/>
	<path class="st1" d="M141.8,394.3h-58c-1.5,0-2.7-1.2-2.7-2.7s1.2-2.7,2.7-2.7h58c1.5,0,2.7,1.2,2.7,2.7S143.3,394.3,141.8,394.3z"
		/>
	<path class="st1" d="M135.3,382.8H90.5c-1.5,0-2.7-1.2-2.7-2.7s1.2-2.7,2.7-2.7h44.8c1.5,0,2.7,1.2,2.7,2.7
		C137.9,381.6,136.8,382.8,135.3,382.8z"/>
	<path class="st1" d="M135.3,404.8H90.5c-1.5,0-2.7-1.2-2.7-2.7s1.2-2.7,2.7-2.7h44.8c1.5,0,2.7,1.2,2.7,2.7
		S136.8,404.8,135.3,404.8z"/>
	<path class="st1" d="M151.8,491.5H70.2c-1.5,0-2.7-1.2-2.7-2.7v-38c0-1.5,1.2-2.7,2.7-2.7h81.6c1.5,0,2.7,1.2,2.7,2.7v38
		C154.5,490.3,153.3,491.5,151.8,491.5z M72.8,486.1h76.2v-32.5H72.8V486.1z"/>
	<path class="st1" d="M151.8,472.6H70.2c-1.5,0-2.7-1.2-2.7-2.7s1.2-2.7,2.7-2.7h81.6c1.5,0,2.7,1.2,2.7,2.7
		C154.5,471.3,153.3,472.6,151.8,472.6z"/>
	<path class="st1" d="M91.2,491.5c-1.5,0-2.7-1.2-2.7-2.7v-38c0-1.5,1.2-2.7,2.7-2.7c1.5,0,2.7,1.2,2.7,2.7v38
		C94,490.3,92.7,491.5,91.2,491.5z"/>
	<path class="st1" d="M130.7,491.5c-1.5,0-2.7-1.2-2.7-2.7v-38c0-1.5,1.2-2.7,2.7-2.7c1.5,0,2.7,1.2,2.7,2.7v38
		C133.4,490.3,132.2,491.5,130.7,491.5z"/>
	<path class="st1" d="M111,491.5c-1.5,0-2.7-1.2-2.7-2.7v-38c0-1.5,1.2-2.7,2.7-2.7s2.7,1.2,2.7,2.7v38
		C113.7,490.3,112.5,491.5,111,491.5z"/>
	<path class="st1" d="M204.7,356.2c-0.4-0.4-0.7-0.9-1-1.4c-0.5,0-0.9,0-1.3-0.2c-0.6-0.2-1.3-0.5-1.9-1c0,0-0.1,0-0.1,0
		c-0.7,0-1.4-0.2-2-0.4c-0.8,0.5-1.7,0.8-2.7,0.9c-1.1,0.1-2.4-0.5-3.3-1.3c-0.9-0.1-1.8-0.6-2.5-1.2h-24.5c-1.5,0-2.7,1.2-2.7,2.7
		v54.9c0.2-0.3,0.4-0.6,0.7-0.8c0.1-0.1,0.3-0.3,0.5-0.4c0.9-1.5,2.5-2.5,4.3-2.6v-48.3h38.1C205.6,356.9,205.1,356.6,204.7,356.2z"
		/>
	<path class="st1" d="M237.1,357.2h0.9c-0.5-1.6-0.2-3.8,1.2-4.9c0.1-0.1,0.3-0.3,0.5-0.4c0,0,0.1-0.1,0.1-0.1h-13.5
		C229.9,353.6,233.6,355.3,237.1,357.2z"/>
	<path class="st1" d="M274.3,469.1c0.5,0.2,0.9,0.4,1.3,0.7v-30.2c-0.9-0.4-1.7-1.1-2.4-2c-1.1-1.4-2.1-2.8-3-4.3v34.5
		C271.6,468.2,272.9,468.6,274.3,469.1z"/>
	<path class="st1" d="M272.8,522.3c0.4,0.3,0.9,0.5,1.4,0.8c0.9-0.4,1.5-1.3,1.5-2.4v-12.9c-0.1-0.2-0.3-0.3-0.4-0.5
		c-0.3-0.1-0.6-0.3-0.2-0.2c-0.9-0.3-1.3-1-1.5-1.7c-0.3-0.1-0.6-0.3-0.8-0.5c-0.8-0.7-1.7-1.4-2.4-2.2v14.8
		C271.8,518.6,272.7,520.5,272.8,522.3z"/>
	<path class="st1" d="M252.9,520c-0.3-0.5-0.5-1-0.7-1.6c0,0,0,0,0,0.1c0-0.2-0.1-0.3-0.1-0.5h-84v-98.5c-1.4,0.8-2.9,1.3-4.6,1.4
		c-0.2,0-0.4,0-0.6-0.1c-0.1,0-0.1,0-0.2,0v99.8c0,1.5,1.2,2.7,2.7,2.7H254C253.5,522.3,253.2,521.2,252.9,520z"/>
	<path class="st1" d="M239.3,335.3c0-1.5,0.1-3,0.7-4.4c0-0.3,0-0.6,0-0.9h-56.9c0.7,1.7,1.1,3.5,1.1,5.3c0,0,0.1,0.1,0.1,0.1h54.9
		C239.3,335.4,239.3,335.4,239.3,335.3z"/>
	<path class="st1" d="M178.1,348.4c-0.1-0.1-0.3-0.3-0.4-0.5c-0.2,0-0.4-0.1-0.7-0.2c-0.7-0.3-1.3-0.6-2-0.9v7.6
		c0,1.5,1.2,2.7,2.7,2.7c1.5,0,2.7-1.2,2.7-2.7v-4.6C179.6,349.6,178.8,349.1,178.1,348.4z"/>
	<path class="st1" d="M221,365.7c-1.1-0.4-2-1.1-2.7-1.9h-12.5c-1,0-1.9,0.5-2.4,1.3L189,390.2c-0.5,0.9-0.5,1.9,0,2.7l2.2,3.8
		c0.2-0.1,0.3-0.3,0.5-0.4c0.1-0.2,0.3-0.4,0.5-0.6c0.4-0.4,0.9-0.8,1.4-1c0.4-0.4,0.9-0.6,1.6-0.6c0.2,0,0.4,0,0.6,0.1
		c0.1,0,0.1-0.1,0.2-0.1l-1.5-2.6l12.9-22.4h20.7C225.8,367.9,223.5,366.7,221,365.7z"/>
	<path class="st1" d="M232.3,415.3c-0.1,0-0.1,0-0.1-0.1c-0.7,1-1.7,1.8-2.8,2.1c0,0-0.1,0-0.1,0c-0.1,0.2-0.2,0.3-0.4,0.5
		c-0.5,0.5-1,1-1.5,1.5h7.6c1,0,1.9-0.5,2.4-1.3l1.1-1.9C236.3,416.1,234.3,415.8,232.3,415.3z"/>
	<path class="st1" d="M221,365.7c-0.9-0.4-1.7-0.9-2.3-1.5c-0.7,0.5-1.1,1.3-1.1,2.2v17.9c1.8-1.3,3.6-2.6,5.5-3.7v-13.9
		C222.4,366.3,221.7,366,221,365.7z"/>
	<path class="st1" d="M203.3,391.8c0.4-0.1,0.8-0.2,1.1-0.4c0.5-0.3,1.1-0.6,1.6-0.8c1-0.6,2-1.2,3.1-1.8h-17.7
		c-1.5,0-2.7,1.2-2.7,2.7s1.2,2.7,2.7,2.7h3.1c0.2-0.1,0.5-0.1,0.8-0.1c0.2,0,0.4,0,0.6,0.1c1.7-0.8,3.4-1.5,5-2.5
		C201.7,391.1,202.6,391.2,203.3,391.8z"/>
	<path class="st1" d="M227.6,378.4c0.5-0.3,1.1-0.7,1.6-1H198c-1.5,0-2.7,1.2-2.7,2.7c0,1.5,1.2,2.7,2.7,2.7h21.6
		C222.1,381,224.7,379.4,227.6,378.4z"/>
	<path class="st1" d="M259.3,448.1h-81.6c-1.5,0-2.7,1.2-2.7,2.7v38c0,1.5,1.2,2.7,2.7,2.7h59.2c0.1-0.5,0.2-0.9,0.5-1.3
		c0.2-0.3,0.4-0.6,0.6-0.9c0.1-0.2,0.2-0.3,0.3-0.4c0-0.9,0.4-1.9,1.2-2.8h-59v-32.5h76.2v9.9c0.1,0,0.1,0,0,0v0
		c0.8,0.2,1.5,0.7,2,1.3c1.2-0.1,2.4,0.3,3.4,1v-15C262,449.3,260.8,448.1,259.3,448.1z"/>
	<path class="st1" d="M234.9,472.4C234.9,472.4,234.9,472.4,234.9,472.4c0.1-1.9,0.9-3.8,2.4-5.3h-59.6c-1.5,0-2.7,1.2-2.7,2.7
		c0,1.5,1.2,2.7,2.7,2.7h57.2C234.9,472.5,234.9,472.5,234.9,472.4z"/>
	<path class="st1" d="M198.8,491.5c-1.5,0-2.7-1.2-2.7-2.7v-38c0-1.5,1.2-2.7,2.7-2.7c1.5,0,2.7,1.2,2.7,2.7v38
		C201.5,490.3,200.3,491.5,198.8,491.5z"/>
	<path class="st1" d="M239.8,464.8c0.1-0.1,0.2-0.2,0.3-0.3c0,0,0.1-0.1,0.1-0.1c0.2-0.2,0.4-0.3,0.7-0.5v-13.1
		c0-1.5-1.2-2.7-2.7-2.7c-1.5,0-2.7,1.2-2.7,2.7v19c0.4-1,1-1.9,1.9-2.8c0.3-0.3,0.7-0.6,1-0.9c0.3-0.4,0.7-0.7,1.1-0.9
		C239.6,465,239.7,464.9,239.8,464.8z"/>
	<path class="st1" d="M237.4,490.2c0.2-0.3,0.4-0.6,0.6-0.9c0.1-0.2,0.2-0.3,0.3-0.4c0-1.1,0.5-2.2,1.5-3.2c0.4-0.4,0.8-0.6,1.2-0.9
		v-0.9c-1.2-0.8-2.4-1.8-3-3c-0.1-0.1-0.1-0.2-0.2-0.3c-0.1,0-0.1-0.1-0.2-0.1c-0.1-0.1-0.2-0.2-0.3-0.3c-0.2-0.1-0.4-0.2-0.6-0.3
		c-0.6-0.4-0.9-1-1-1.6c0,0-0.1-0.1-0.1-0.1v10.5c0,1,0.6,2,1.5,2.4C237.1,490.9,237.2,490.5,237.4,490.2z"/>
	<path class="st1" d="M218.5,491.5c-1.5,0-2.7-1.2-2.7-2.7v-38c0-1.5,1.2-2.7,2.7-2.7c1.5,0,2.7,1.2,2.7,2.7v38
		C221.2,490.3,220,491.5,218.5,491.5z"/>
	<path class="st1" d="M294.2,346.3v7.4c0.8-0.5,1.8-0.8,2.7-0.8c0.9,0,1.9,0.3,2.7,0.8v-10.1c0-1.5-1.2-2.7-2.7-2.7h-20.2
		c0.8,1.7,1.4,3.5,1.2,5.5H294.2z"/>
	<path class="st1" d="M298,521.7c-0.2-0.2-0.5-0.3-0.7-0.5c-0.3,0-0.7-0.1-1-0.3c-0.4-0.2-0.8-0.4-1.2-0.6c-0.2-0.1-0.3-0.1-0.5-0.2
		c-0.4-0.1-0.7-0.3-1-0.6c-0.1-0.1-0.2-0.1-0.4-0.2c0,0,0,0,0,0c0,0,0,0,0,0c-0.4-0.2-0.8-0.4-1.1-0.7c-0.3-0.2-0.6-0.3-0.9-0.5
		c-0.1,0-0.1-0.1-0.2-0.1h-18.1c-0.6,0-1.1,0.2-1.6,0.5c0.9,1,1.4,2.4,1.5,3.8c0.6,0.4,1.3,0.8,1.9,1.1H297v0c1,0,1.8-0.5,2.3-1.2
		C298.8,522.1,298.4,521.9,298,521.7z"/>
	<path class="st1" d="M506.1,408.4l-29.5-51c-0.5-0.8-1.4-1.3-2.4-1.3h-58.9c-1,0-1.9,0.5-2.4,1.3l-23.4,40.4c1.6,0,2.8,0.7,3.8,1.6
		c0.1,0.1,0.2,0.1,0.4,0.2c0.3,0.1,0.6,0.2,0.9,0.3l22.2-38.4h55.8l27.9,48.3l-13.3,23.1c2-0.1,4.1,0,6,0.4l12.8-22.2
		C506.5,410.3,506.5,409.3,506.1,408.4z"/>
	<path class="st1" d="M421.4,427.9c1.2,4.1,1.9,8.5,2.5,12.6c0.3,0.1,0.6,0.2,0.8,0.4c0,0,0,0,0,0v-82.1c0-1.5-1.2-2.7-2.7-2.7
		c-1.5,0-2.7,1.2-2.7,2.7v62.9c0.2,0.4,0.4,0.8,0.6,1.3C420.6,424.5,421,426.2,421.4,427.9z"/>
	<path class="st1" d="M466.1,434.6c0.6-0.3,1.3-0.5,2.1-0.5c0.3,0,0.5,0,0.7,0c0.3-0.2,0.6-0.4,1-0.6v-74.7c0-1.5-1.2-2.7-2.7-2.7
		c-1.5,0-2.7,1.2-2.7,2.7v75.6C464.9,434.4,465.5,434.4,466.1,434.6z"/>
	<path class="st1" d="M422,407.1h-13.5c0.2,0.1,0.3,0.2,0.5,0.4c0.6,0.5,0.9,1.2,1.1,1.9c0.1,0.1,0.2,0.3,0.2,0.4
		c0.8,0.6,1.5,1.2,2.2,1.8c0.3,0.3,0.5,0.6,0.8,1h8.7c1.5,0,2.7-1.2,2.7-2.7C424.7,408.3,423.5,407.1,422,407.1z"/>
	<path class="st1" d="M503.6,412.5h-36.5c-1.5,0-2.7-1.2-2.7-2.7c0-1.5,1.2-2.7,2.7-2.7h36.5c1.5,0,2.7,1.2,2.7,2.7
		C506.4,411.3,505.1,412.5,503.6,412.5z"/>
	<path class="st1" d="M422,389.3h-22.7c-1.5,0-2.7-1.2-2.7-2.7c0-1.5,1.2-2.7,2.7-2.7H422c1.5,0,2.7,1.2,2.7,2.7
		C424.7,388,423.5,389.3,422,389.3z"/>
	<path class="st1" d="M490.2,389.3h-21.9c-1.5,0-2.7-1.2-2.7-2.7c0-1.5,1.2-2.7,2.7-2.7h21.9c1.5,0,2.7,1.2,2.7,2.7
		C492.9,388,491.7,389.3,490.2,389.3z"/>
	<path class="st1" d="M422.8,433.8c1.1-0.3,1.9-1.4,1.9-2.6c0-1.5-1.2-2.7-2.7-2.7h-0.4C422,430.2,422.4,432,422.8,433.8z"/>
	<path class="st1" d="M484.5,433.2c2.4-0.3,5.1-0.4,7.6-0.1c0.5-0.5,0.8-1.2,0.8-1.9c0-1.5-1.2-2.7-2.7-2.7h-23.1
		c-1.5,0-2.7,1.2-2.7,2.7s1.2,2.7,2.7,2.7h2c0.7-0.5,1.7-0.8,2.8-0.8C476.1,433.1,480.3,433,484.5,433.2z"/>
	<path class="st1" d="M445.3,420.7c-3.3,0-6-2.7-6-6s2.7-6,6-6c3.3,0,6,2.7,6,6S448.6,420.7,445.3,420.7z M445.3,414.1
		c-0.3,0-0.6,0.3-0.6,0.6c0,0.3,0.3,0.6,0.6,0.6s0.6-0.3,0.6-0.6C445.9,414.4,445.6,414.1,445.3,414.1z"/>
	<path class="st1" d="M551.5,331.4H335.2c-1.5,0-2.7-1.2-2.7-2.7c0-1.5,1.2-2.7,2.7-2.7h216.3c1.5,0,2.7,1.2,2.7,2.7
		C554.2,330.2,553,331.4,551.5,331.4z"/>
	<path class="st1" d="M171.5,344.8c-1-0.2-2-0.6-2.8-1.3c0.3,0.2,0.5,0.4,0.6,0.5c0.1,0,0.2,0.1,0.3,0.1c-0.1,0-0.2-0.1-0.3-0.1
		c0,0,0,0,0.1,0.1c0.3,0.2,0.5,0.4,0,0c0,0-0.1-0.1-0.2-0.1c0,0-0.1,0-0.1,0c-1.5-0.6-3.1-1.1-4.4-1.9c-0.5-0.3-0.9-0.7-1.3-1.1H153
		c-1.5,0-2.7,1.2-2.7,2.7c0,1.5,1.2,2.7,2.7,2.7h21C173.2,345.8,172.3,345.3,171.5,344.8z"/>
	<path class="st1" d="M731,346.3h-24.7c-1.5,0-2.7-1.2-2.7-2.7s1.2-2.7,2.7-2.7H731c1.5,0,2.7,1.2,2.7,2.7S732.5,346.3,731,346.3z"
		/>
</g>
<g>
	<g>
		<path class="st1" d="M420.4,801.2c-67.8,0-135.5,0-203.3,0c-19.3,0-38.5,0-57.8,0c-3.9,0-3.9,6,0,6c67.8,0,135.5,0,203.3,0
			c19.3,0,38.5,0,57.8,0C424.2,807.2,424.3,801.2,420.4,801.2L420.4,801.2z"/>
	</g>
</g>
<g>
	<g>
		<path class="st1" d="M514.1,807.1c78.6,0,157.2,0,235.8,0c3.9,0,3.9-6,0-6c-78.6,0-157.2,0-235.8,0
			C510.2,801.1,510.2,807.1,514.1,807.1L514.1,807.1z"/>
	</g>
</g>
<g>
	<g>
		<path class="st1" d="M186.2,334.3c6.6,1.9,12.3,5.2,17.2,10.1c2.3,2.3,5.8-1.3,3.5-3.5c-5.4-5.4-12-9.3-19.4-11.4
			C184.4,328.6,183.1,333.5,186.2,334.3L186.2,334.3z"/>
	</g>
</g>
<g>
	<g>
		<path class="st1" d="M204.6,345.9c11.2,0.9,21.6,4.7,30.8,11.1c2.6,1.8,5.2-2.5,2.5-4.3c-10-6.9-21.3-10.8-33.3-11.8
			C201.4,340.6,201.4,345.6,204.6,345.9L204.6,345.9z"/>
	</g>
</g>
<g>
	<g>
		<path class="st1" d="M187.7,334c0.6-2.8,0.5-5.5-0.2-8.3c-0.8-3.1-5.6-1.8-4.8,1.3c0.5,1.9,0.6,3.7,0.2,5.6
			C182.2,335.8,187,337.1,187.7,334L187.7,334z"/>
	</g>
</g>
<g>
	<g>
		<path class="st1" d="M181.2,323.3c-1.8,2.7,1.7,5.4,4.2,3.9c1.1-0.6,2.1-1.6,3-2.4c1-0.8,2-1.7,3-2.5c1-0.9,0.9-2.6,0-3.5
			c-1-1-2.5-0.9-3.5,0c-1,0.8-1.9,1.6-2.9,2.3c-0.8,0.6-1.6,1.5-2.5,2c0.4-0.1,0.8-0.2,1.3-0.3c-0.1,0-0.2,0-0.3,0
			c0.4,0.1,0.8,0.2,1.3,0.3c-0.1,0-0.1-0.1-0.2-0.1c0.3,0.3,0.6,0.6,0.9,0.9c0,0.1,0.1,0.1,0.1,0.2c-0.1,0.6-0.2,1.3-0.3,1.9
			c0-0.1,0.1-0.1,0.1-0.2C187.3,323.1,183,320.6,181.2,323.3L181.2,323.3z"/>
	</g>
</g>
<g>
	<g>
		<path class="st1" d="M188.2,324.9c2.3,0.2,4.4-0.3,6.4-1.2c1.2-0.6,1.5-2.3,0.9-3.4c-0.7-1.3-2.2-1.5-3.4-0.9
			c-1.2,0.6-2.6,0.7-3.9,0.5c-1.3-0.1-2.5,1.2-2.5,2.5C185.7,323.9,186.8,324.8,188.2,324.9L188.2,324.9z"/>
	</g>
</g>
<g>
	<g>
		<path class="st1" d="M196.5,321.1c-0.3-7.5-4.3-14.1-10.9-17.8c-2.8-1.6-5.3,2.8-2.5,4.3c5,2.8,8.2,7.7,8.4,13.5
			C191.6,324.4,196.6,324.4,196.5,321.1L196.5,321.1z"/>
	</g>
</g>
<g>
	<g>
		<path class="st1" d="M189.7,309.4c2.1-3.7,5.7-6.3,7.9-10.1c2.1-3.7,3.5-7.7,4.8-11.7c1-3.1-3.8-4.4-4.8-1.3
			c-1.3,4-2.7,8.2-5,11.7c-2.1,3.2-5.3,5.5-7.2,8.9C183.9,309.7,188.2,312.2,189.7,309.4L189.7,309.4z"/>
	</g>
</g>
<g>
	<g>
		<path class="st1" d="M201.7,292.2c2.8-4.3,7.2-6.9,12.3-7.7c3.2-0.5,1.8-5.3-1.3-4.8c-6.3,1-11.7,4.6-15.2,10
			C195.6,292.4,199.9,294.9,201.7,292.2L201.7,292.2z"/>
	</g>
</g>
<g>
	<g>
		<path class="st1" d="M78.5,295.9c7.7,6.1,15.1,12.5,22.2,19.3c2.3,2.2,5.9-1.3,3.5-3.5c-7.1-6.7-14.5-13.2-22.2-19.3
			C79.5,290.4,75.9,293.9,78.5,295.9L78.5,295.9z"/>
	</g>
</g>
<g>
	<g>
		<path class="st1" d="M81.6,294.3c-0.2-3.5,0.3-6.8,1.4-10.1c1-3.1-3.8-4.4-4.8-1.3c-1.2,3.7-1.7,7.5-1.5,11.4
			C76.8,297.5,81.8,297.5,81.6,294.3L81.6,294.3z"/>
	</g>
</g>
<g>
	<g>
		<path class="st1" d="M89.3,282.2c5.2-0.7,10.4-1.4,15.6-2.1c3.2-0.4,1.8-5.3-1.3-4.8c-5.2,0.7-10.4,1.4-15.6,2.1
			C84.8,277.8,86.1,282.6,89.3,282.2L89.3,282.2z"/>
	</g>
</g>
<g>
	<g>
		<path class="st1" d="M104.1,280c8.4-4.9,16.1-19.3,27.4-15.8c3.1,1,4.4-3.9,1.3-4.8c-13.8-4.3-21.1,10.4-31.2,16.3
			C98.8,277.3,101.3,281.6,104.1,280L104.1,280z"/>
	</g>
</g>
<g>
	<g>
		<path class="st1" d="M131.9,265.8c2.5-1.5,5.3-1.7,8-0.8c3.1,1,4.4-3.8,1.3-4.8c-4-1.3-8.2-0.8-11.9,1.3
			C126.6,263.1,129.1,267.4,131.9,265.8L131.9,265.8z"/>
	</g>
</g>
<g>
	<g>
		<path class="st1" d="M140.6,266.2c3.6-0.4,7.1-0.2,10.6,0.7c3.1,0.8,4.5-4,1.3-4.8c-3.9-1-7.9-1.3-11.9-0.9
			C137.4,261.5,137.4,266.5,140.6,266.2L140.6,266.2z"/>
	</g>
</g>
<g>
	<g>
		<path class="st1" d="M152.7,267.3c2.7,0.2,5.3,0.2,8-0.2c2.4-0.3,7.9-2.9,9.6-0.8c2,2.5,5.5-1,3.5-3.5c-2-2.5-4.9-2.8-7.9-2.1
			c-4.6,1-8.5,2-13.2,1.6C149.5,262,149.5,267,152.7,267.3L152.7,267.3z"/>
	</g>
</g>
<g>
	<g>
		<path class="st1" d="M172.1,267.9c1.1-0.6,2.3-0.8,3.5-0.7c1.3,0.1,2.5-1.2,2.5-2.5c0-1.4-1.1-2.4-2.5-2.5
			c-2.1-0.2-4.2,0.4-6.1,1.4C166.8,265.1,169.3,269.5,172.1,267.9L172.1,267.9z"/>
	</g>
</g>
<g>
	<g>
		<path class="st1" d="M176.1,268.3c0.9,0,11.4-0.1,11.3,0.6c-0.7,3.1,4.1,4.5,4.8,1.3c1.8-8.5-11.2-7.1-16.1-6.9
			C172.8,263.4,172.8,268.4,176.1,268.3L176.1,268.3z"/>
	</g>
</g>
<g>
	<g>
		<path class="st1" d="M187.5,267.7c-3.8,3.4-9.6,2.5-13.8,5.4c-3.4,2.4-6,5.7-8.5,9c-1.9,2.6,2.4,5.1,4.3,2.5
			c2.7-3.6,6-8.1,10.6-9.2c2.2-0.5,4.4-0.2,6.5-1.1c1.7-0.7,3.1-2,4.5-3.2C193.4,269.1,189.9,265.5,187.5,267.7L187.5,267.7z"/>
	</g>
</g>
<g>
	<g>
		<path class="st1" d="M169.1,278.8c-0.4,0-0.9,0.1-1.3,0.1c-1.5,0.1-2.9,1.5-2.4,3.2c0.3,1,1.2,2.8-0.1,3.3
			c-1.2,0.5-1.5,2.4-0.9,3.4c0.8,1.3,2.2,1.4,3.4,0.9c3.6-1.5,3.3-5.9,2.4-9c-0.8,1.1-1.6,2.1-2.4,3.2c0.4,0,0.9-0.1,1.3-0.1
			c1.3-0.1,2.5-1.1,2.5-2.5C171.6,280,170.5,278.7,169.1,278.8L169.1,278.8z"/>
	</g>
</g>
<g>
	<g>
		<path class="st1" d="M82.4,285.3c1.4-2.1,3.8-3.1,6.3-2.9c3.2,0.2,3.2-4.8,0-5c-4.3-0.3-8.2,1.8-10.6,5.4
			C76.3,285.5,80.6,288,82.4,285.3L82.4,285.3z"/>
	</g>
</g>
<g>
	<g>
		<path class="st1" d="M101.6,311.8c-2.9,0.2-5.1,2.9-4.2,5.8c0.8,2.7,4.3,3.9,6.6,2.4c1.1-0.7,1.6-2.3,0.9-3.4
			c-0.7-1.1-2.2-1.6-3.4-0.9c-0.2,0.1-0.2,0.1,0.1,0c-0.3,0.1-0.2,0.1,0.2,0c-0.5,0,0.4,0.2,0,0c0.7,0.3,0,0,0,0
			c0.2,0.1,0.3,0.2,0.4,0.4c-0.1-0.2-0.1-0.2,0,0c0.1,0.2,0.1,0.2,0,0c0.1,0.2,0.1,0.4,0,0.6c0.1-0.5-0.2,0.4,0-0.1
			c-0.2,0.3-0.2,0.3-0.1,0.1c-0.1,0.1-0.2,0.1-0.2,0.2c0.2-0.1,0.2-0.1-0.1,0c0.3-0.1,0.2-0.1-0.1,0c1.3-0.1,2.6-1.1,2.5-2.5
			C104.1,313,103,311.7,101.6,311.8L101.6,311.8z"/>
	</g>
</g>
<g>
	<g>
		<path class="st1" d="M101.3,319.2c0.8,3.2,4.8,4.8,7.6,3c1.1-0.7,1.6-2.3,0.9-3.4c-0.7-1.1-2.2-1.7-3.4-0.9c-0.5,0.3,0.3-0.1,0,0
			c-0.4,0.1-0.2,0,0,0c-0.1,0-0.5-0.1-0.2,0c0.3,0.1-0.1-0.1-0.2-0.1c0.2,0,0.4,0.2,0.1,0c-0.5-0.3,0.3,0.1,0,0
			c-0.3-0.1-0.2-0.3,0,0c-0.2-0.5,0.1,0.5,0-0.1c-0.3-1.3-1.8-2.2-3.1-1.7C101.7,316.6,100.9,317.9,101.3,319.2L101.3,319.2z"/>
	</g>
</g>
<g>
	<g>
		<path class="st1" d="M104.6,322c1.4,2.6,4.3,3.7,7.2,3.2c1.3-0.2,2.1-1.9,1.7-3.1c-0.4-1.4-1.7-2-3.1-1.7c0.6-0.1-0.7-0.1-0.1,0
			c-0.1,0-0.9-0.3-0.6-0.1c-0.1-0.1-0.3-0.2-0.4-0.3c0.2,0.1,0.2,0.1-0.1-0.1c-0.2-0.2-0.2-0.2-0.1-0.1c-0.1-0.1-0.2-0.3-0.3-0.4
			c-0.7-1.2-2.3-1.6-3.4-0.9C104.4,319.3,104,320.8,104.6,322L104.6,322z"/>
	</g>
</g>
<g>
	<g>
		<path class="st1" d="M108.1,322c-0.8,1.7-0.5,3.8,0.9,5.1c1.3,1.2,3,1.4,4.7,1.3c1.3-0.1,2.6-1.1,2.5-2.5
			c-0.1-1.3-1.1-2.6-2.5-2.5c-0.3,0-0.7,0-1,0c-0.1,0-0.5-0.1-0.2,0c0.3,0.1-0.3-0.1-0.3-0.1c0.2,0.1,0.2,0.1,0,0
			c0.1,0.1,0.2,0.2,0.3,0.3c-0.2-0.3,0,0,0,0.2c0,0.3-0.1,0.5-0.2,0.7c0.6-1.2,0.4-2.8-0.9-3.4C110.4,320.5,108.7,320.8,108.1,322
			L108.1,322z"/>
	</g>
</g>
<g>
	<g>
		<path class="st1" d="M111.3,326.3c-0.2,3.4,4,5.8,6.8,3.9c1.1-0.7,1.7-2.2,0.9-3.4c-0.7-1.1-2.3-1.7-3.4-0.9
			c-0.2,0.1-0.5,0.2,0.1,0c-0.4,0.2,0.6,0,0.1,0c0.2,0,0.6,0.2,0.2,0c-0.2-0.1,0.6,0.3,0.1,0c-0.4-0.2,0.1,0,0.1,0.1
			c-0.1,0-0.1-0.1-0.1-0.2c-0.1-0.1-0.1-0.1,0.2,0.2c-0.2-0.4,0.1,0.6,0,0.1c0.1,0.3,0,0.5,0.1,0.1c0.1-1.3-1.2-2.6-2.5-2.5
			C112.3,323.9,111.4,324.9,111.3,326.3L111.3,326.3z"/>
	</g>
</g>
<g>
	<g>
		<path class="st1" d="M114.9,330.3c1.7,2.8,5.5,3.2,7.9,1.2c1-0.8,0.9-2.7,0-3.5c-1.1-1-2.5-0.9-3.5,0c0.1-0.1,0.3-0.2,0-0.1
			c0.2-0.1,0.4-0.1,0.1-0.1c0.1,0,0.2,0,0.3,0c-0.1,0-0.1,0-0.2,0c-0.1,0-0.1,0-0.2,0c0.3,0.1,0.4,0.1,0.2,0c-0.1,0-0.5-0.1-0.2,0
			c0.3,0.1-0.1,0-0.1-0.1c-0.1-0.2,0.2,0.2,0.1,0c-0.2-0.2,0.3,0.5,0,0c-0.7-1.1-2.3-1.6-3.4-0.9
			C114.6,327.6,114.2,329.1,114.9,330.3L114.9,330.3z"/>
	</g>
</g>
<g>
	<g>
		<path class="st1" d="M118,332.2c4.2,2.4,9.5,2.3,13.5-0.6c2.6-1.9,0.1-6.2-2.5-4.3c-2.6,1.9-5.7,2.2-8.5,0.6
			C117.7,326.2,115.2,330.5,118,332.2L118,332.2z"/>
	</g>
</g>
<g>
	<g>
		<path class="st1" d="M130.8,331.5c12.1,5.5,24.2,10.9,36.4,16.4c10.4,4.7,20.9,9.7,32.6,9.7c3.2,0,3.2-5,0-5
			c-12.1,0.1-23-5.8-33.7-10.6c-10.9-4.9-21.8-9.8-32.7-14.7C130.5,325.9,127.9,330.2,130.8,331.5L130.8,331.5z"/>
	</g>
</g>
<g>
	<g>
		<path class="st1" d="M168.3,290.5c6.3-0.7,12-2.8,18-4.6c7.1-2.1,14.4-3.6,21.8-4.4c3.2-0.3,3.2-5.3,0-5
			c-6.6,0.7-13.2,1.8-19.6,3.6c-6.7,1.8-13.2,4.7-20.2,5.4C165.1,285.8,165.1,290.8,168.3,290.5L168.3,290.5z"/>
	</g>
</g>
<g>
	<g>
		<path class="st1" d="M215.3,280.7c-1.4-3.5-4.6-5.3-8.3-4.7c-1.3,0.2-2.1,1.9-1.7,3.1c0.4,1.4,1.7,1.9,3.1,1.7
			c-0.3,0,0.7,0.1,0.4,0c0.5,0.1,0.5,0.1,0.9,0.3c0.4,0.2,0.8,0.6,0.9,0.9c0.5,1.2,1.7,2.1,3.1,1.7
			C214.7,283.4,215.8,281.9,215.3,280.7L215.3,280.7z"/>
	</g>
</g>
<g>
	<g>
		<path class="st1" d="M201.3,281.7c2.3-0.9,3.6-2.5,4.8-4.6c0.5-1,1-2,1.9-2.7c0.5-0.5,3.3-1.8,3.3-1.7c-0.2-0.6-0.5-1.2-0.7-1.8
			c0.4-0.6,0.3-0.6-0.3-0.1c-0.3,0.2-0.6,0.5-0.8,0.8c-0.4,0.5-0.5,1-0.6,1.6c-0.1,0.6,0,1.1,0.3,1.7c0.1,0.3,0.3,0.7,0.6,0.9
			c-0.2-0.5-0.1-0.7,0.5-0.6c-3.1-0.5-4.5,4.4-1.3,4.8c3.2,0.5,6.2-1.9,5.7-5.3c-0.1-0.4-0.5-2.1-1-2.1c0.5,0-0.7,2.8,1,1
			c1.1-1.2,1.2-2.9,0.4-4.3c-2-3.2-6.4-1.3-8.9,0.2c-1.4,0.8-2.5,1.9-3.4,3.3c-0.7,1.1-1.4,3.4-2.7,3.9
			C196.9,277.9,198.2,282.8,201.3,281.7L201.3,281.7z"/>
	</g>
</g>
<g>
	<g>
		<path class="st1" d="M276.2,344.4c3.2,3.9,7.4,6.8,12.2,8.3c5.8,1.8,11.9,0.3,17.7,1.5c3.1,0.7,4.5-4.1,1.3-4.8
			c-4.7-1-9.2-0.2-13.9-0.7c-5.6-0.6-10.3-3.6-13.8-7.8C277.6,338.3,274.1,341.9,276.2,344.4L276.2,344.4z"/>
	</g>
</g>
<g>
	<g>
		<path class="st1" d="M304.6,353.8c27.6,4.6,50.6,21.4,72.5,37.7c2.6,1.9,5.1-2.4,2.5-4.3c-22.3-16.6-45.7-33.6-73.7-38.2
			C302.8,348.4,301.4,353.3,304.6,353.8L304.6,353.8z"/>
	</g>
</g>
<g>
	<g>
		<path class="st1" d="M375.6,388.2c0,0.1,0,0.3,0,0.4c0,1.3,1.1,2.6,2.5,2.5c1.4-0.1,2.5-1.1,2.5-2.5c0-0.1,0-0.3,0-0.4
			c0-1.3-1.1-2.6-2.5-2.5C376.8,385.8,375.6,386.8,375.6,388.2L375.6,388.2z"/>
	</g>
</g>
<g>
	<g>
		<path class="st1" d="M376.2,390.1c3.2,3.7,7.5,5.5,12,7c5.8,2,11.4,4.2,16.6,7.7c11,7.3,18.5,19.3,17.5,32.8c-0.2,3.2,4.8,3.2,5,0
			c1-12.6-4.9-24.7-14.4-32.9c-4.6-4-9.9-7.1-15.5-9.5c-6-2.6-13.2-3.5-17.6-8.6C377.6,384.1,374.1,387.6,376.2,390.1L376.2,390.1z"
			/>
	</g>
</g>
<g>
	<g>
		<path class="st1" d="M159.1,410c-4.9,3.3-9.3,9.7-2.6,13.8c2.5,1.6,5.6,1.7,8.5,1.2c4.3-0.7,11.8-5.4,15.1-0.5
			c1.8,2.6,6.2,0.1,4.3-2.5c-2.5-3.6-6.3-5-10.7-4.5c-2.7,0.3-5.2,1.5-7.9,2.2c-1.7,0.4-4,1.1-5.6,0.3c-3.6-1.8-0.6-4.3,1.4-5.7
			C164.3,412.5,161.8,408.2,159.1,410L159.1,410z"/>
	</g>
</g>
<g>
	<g>
		<path class="st1" d="M180.8,420.6c-3.6,2-7.1,4.2-10.4,6.7c-2.5,1.9-5,4.6-2.3,7.6c2.3,2.6,6.4,1.6,9.2,0.6
			c3.6-1.3,6.8-3.5,9.4-6.3c2.1-2.4-1.4-5.9-3.5-3.5c-2.6,2.9-7,6-10.8,6.2c-0.3,0.6,0,0.5,0.7-0.4c0.5-0.4,1.1-0.8,1.6-1.2
			c0.9-0.6,1.7-1.2,2.6-1.8c1.9-1.3,3.9-2.5,5.9-3.6C186.2,423.4,183.6,419.1,180.8,420.6L180.8,420.6z"/>
	</g>
</g>
<g>
	<g>
		<path class="st1" d="M184.1,429.5c10-2.6,20.8,0.4,31-0.9c8.3-1,15-6.1,21.4-11.1c2.5-2-1-5.5-3.5-3.5c-7.6,5.9-14.4,10-24.3,9.9
			c-8.5-0.1-17.6-1.4-25.9,0.8C179.7,425.5,181,430.3,184.1,429.5L184.1,429.5z"/>
	</g>
</g>
<g>
	<g>
		<path class="st1" d="M233.6,418.6c24.4,4.2,41.6,23.3,50.1,45.6c1.1,3,6,1.7,4.8-1.3c-9.1-23.8-27.5-44.7-53.6-49.1
			C231.8,413.2,230.5,418,233.6,418.6L233.6,418.6z"/>
	</g>
</g>
<g>
	<g>
		<path class="st1" d="M162.4,411.8c-0.9-4.8,5.1-5.8,8.5-6.4c3.2-0.5,1.8-5.4-1.3-4.8c-3.2,0.5-6.5,1.3-9,3.5
			c-2.7,2.3-3.6,5.7-3,9.1C158.2,416.2,163,414.9,162.4,411.8L162.4,411.8z"/>
	</g>
</g>
<g>
	<g>
		<path class="st1" d="M171.4,400.6c-2.3-0.4-4.1,0.8-4.1,3.2c0,2,2.1,3,3.8,2.2c13.3-6.8,26.8-12.9,40.7-18.3c3-1.2,1.7-6-1.3-4.8
			c-14.3,5.6-28.2,11.9-41.9,18.9c1.3,0.7,2.5,1.4,3.8,2.2c-0.1,0.3-0.2,0.6-0.3,0.9c-0.8,0.2-1.6,0.4-2.4,0.6
			c0.2,0,0.3,0.1,0.5,0.1C173.2,405.9,174.6,401.1,171.4,400.6L171.4,400.6z"/>
	</g>
</g>
<g>
	<g>
		<path class="st1" d="M210.9,388.1c4.9-3.6,10.1-6.7,15.7-9c2.9-1.2,1.6-6.1-1.3-4.8c-6,2.5-11.6,5.6-16.9,9.5
			C205.8,385.7,208.3,390,210.9,388.1L210.9,388.1z"/>
	</g>
</g>
<g>
	<g>
		<path class="st1" d="M225.8,379.1c2.7-1.3,5.5-2.6,8.2-3.9c2.9-1.4,0.4-5.7-2.5-4.3c-2.7,1.3-5.5,2.6-8.2,3.9
			C220.3,376.2,222.9,380.5,225.8,379.1L225.8,379.1z"/>
	</g>
</g>
<g>
	<g>
		<path class="st1" d="M199.4,357.5c6.2,3.9,12.4,7.8,18.6,11.7c4.9,3,9.7,5.6,15.6,5.6c3.2,0,3.2-5,0-5c-6.2,0-11.4-3.8-16.4-7
			c-5.1-3.2-10.2-6.4-15.2-9.6C199.2,351.5,196.7,355.8,199.4,357.5L199.4,357.5z"/>
	</g>
</g>
<g>
	<g>
		<path class="st1" d="M234.6,471.1c2.3-4,5.2-7.5,8.9-10.2c2.5-1.9,0.1-6.3-2.5-4.3c-4.4,3.3-8,7.2-10.7,12
			C228.7,471.4,233,473.9,234.6,471.1L234.6,471.1z"/>
	</g>
</g>
<g>
	<g>
		<path class="st1" d="M231.1,468.9c-2.1,5.7-0.5,12,3.9,16.2c2.3,2.2,5.9-1.3,3.5-3.5c-3.2-3-4.1-7.2-2.6-11.3
			C237,467.2,232.2,465.8,231.1,468.9L231.1,468.9z"/>
	</g>
</g>
<g>
	<g>
		<path class="st1" d="M236.3,481.3c-6.1,7.3-1.6,15.3,2.8,22.2c6.3,9.8,10.5,20.6,12.9,32c0.7,3.1,5.5,1.8,4.8-1.3
			c-1.7-8.3-4.4-16.3-8.2-23.9c-1.8-3.7-4-7.2-6.2-10.7c-2.6-4.2-6.5-10-2.6-14.6C241.9,482.4,238.4,478.9,236.3,481.3L236.3,481.3z
			"/>
	</g>
</g>
<g>
	<g>
		<path class="st1" d="M257.5,498.3c3.4,7.8,7.3,15.8,15,20.1c2.8,1.6,5.3-2.7,2.5-4.3c-6.9-3.9-10.2-11.3-13.2-18.3
			C260.5,492.8,256.2,495.4,257.5,498.3L257.5,498.3z"/>
	</g>
</g>
<g>
	<g>
		<path class="st1" d="M271.7,515.1c-0.9,1.6-1.2,3.5-0.6,5.2c0.4,1.2,1.7,2.2,3.1,1.7c1.2-0.4,2.2-1.8,1.7-3.1
			c-0.1-0.2-0.1-0.4-0.2-0.6c0.1,0.6,0-0.1,0-0.3c0-0.2,0-0.1,0,0.1c0-0.1,0-0.2,0.1-0.3c0.1-0.2,0-0.1-0.1,0.1
			c0.1-0.1,0.1-0.3,0.2-0.4c0.7-1.1,0.3-2.8-0.9-3.4C273.9,513.5,272.5,513.9,271.7,515.1L271.7,515.1z"/>
	</g>
</g>
<g>
	<g>
		<path class="st1" d="M278.2,523.2c1.3-0.1,3.2-0.3,4.4,0.2c2.1,0.9,1.7,2.2,3.2,3.2c1.5,0.9,3.2,0.6,4.4,1.4
			c1.6,1.1,2.7,3.1,4.3,4.3c2.7,1.9,8.2,4,7,8.3c-0.9,3.1,3.9,4.4,4.8,1.3c2.6-8.7-7.7-11.8-12-17.1c-1.9-2.4-4.6-2.3-6.8-4.1
			c-2.8-2.4-5.7-2.7-9.3-2.5C275,518.3,275,523.3,278.2,523.2L278.2,523.2z"/>
	</g>
</g>
<g>
	<g>
		<path class="st1" d="M253.8,535.6c8.1,2.4,16.2,5.1,24.6,6.6c8.6,1.6,17.2,1.2,25.8,2.3c3.2,0.4,3.2-4.6,0-5
			c-8.8-1.1-17.6-0.7-26.3-2.5c-7.7-1.6-15.2-4.1-22.8-6.3C252,529.8,250.7,534.7,253.8,535.6L253.8,535.6z"/>
	</g>
</g>
<g>
	<g>
		<path class="st1" d="M242.5,461.6c5.1-2.8,7.9-3,12.7,0.4c2.4,1.7,4.8,3,7.6,4c7.3,2.5,14.9,4.2,22.4,6.3c3.1,0.9,4.4-4,1.3-4.8
			c-4.8-1.3-9.6-2.7-14.4-4c-4.4-1.2-9-2.1-12.9-4.7c-3-2-5.4-4.5-9.3-4.7c-3.6-0.2-6.9,1.5-10,3.2
			C237.2,458.8,239.7,463.1,242.5,461.6L242.5,461.6z"/>
	</g>
</g>
<g>
	<g>
		<path class="st1" d="M288.4,469.6c0.2-2.4-0.1-4.8-0.5-7.1c-0.3-1.3-1.8-2.1-3.1-1.7c-1.4,0.4-2,1.7-1.7,3.1
			c0.4,1.9,0.5,3.9,0.4,5.8C283.2,472.8,288.2,472.8,288.4,469.6L288.4,469.6z"/>
	</g>
</g>
<g>
	<g>
		<path class="st1" d="M258.8,498.9c10.5,9.3,21.3,18.6,34,24.8c7.6,3.8,26.7,12.9,31.6,1.2c1.2-2.9-3.1-5.5-4.3-2.5
			c-3.9,9.2-26.6-3.7-32-7c-9.3-5.7-17.6-12.8-25.8-20C259.9,493.2,256.4,496.7,258.8,498.9L258.8,498.9z"/>
	</g>
</g>
<g>
	<g>
		<path class="st1" d="M322.5,525c8.7,2.4,17.3,4.9,25.9,7.7c3.1,1,4.4-3.8,1.3-4.8c-8.6-2.8-17.2-5.3-25.9-7.7
			C320.8,519.3,319.4,524.2,322.5,525L322.5,525z"/>
	</g>
</g>
<g>
	<g>
		<path class="st1" d="M347.3,528c-3,3.5-5.7,7.4-3.8,12.1c2.1,5.3,7.3,10.3,11.2,14.2c2.3,2.3,5.8-1.3,3.5-3.5
			c-2.8-2.8-5.4-5.7-7.7-8.8c-3-4.1-3.2-6.5,0.3-10.5C352.9,529.1,349.4,525.5,347.3,528L347.3,528z"/>
	</g>
</g>
<g>
	<g>
		<path class="st1" d="M267,568c-1.9-1.5-1.7-4.7,1.3-4.6c2.5,0.1,5.2,1.9,7.3,3.1c2.8,1.5,5.4-2.8,2.5-4.3
			c-4.3-2.3-10.1-5.7-14.7-2.2c-3.8,2.9-3.7,8.6,0,11.6C266,573.5,269.5,570,267,568L267,568z"/>
	</g>
</g>
<g>
	<g>
		<path class="st1" d="M277.1,566.3c18.1,4.8,36.9,4.7,54.9-0.1c3.1-0.8,1.8-5.7-1.3-4.8c-17.2,4.6-35,4.7-52.3,0.1
			C275.3,560.6,274,565.5,277.1,566.3L277.1,566.3z"/>
	</g>
</g>
<g>
	<g>
		<path class="st1" d="M329.9,566.9c4.5-0.7,8.5-3.2,12.7-5c5.4-2.4,11-4.4,16.7-6.2c3-1,1.7-5.8-1.3-4.8
			c-5.3,1.7-10.5,3.6-15.6,5.8c-4.5,1.9-8.9,4.7-13.8,5.5C325.4,562.6,326.7,567.4,329.9,566.9L329.9,566.9z"/>
	</g>
</g>
<g>
	<g>
		<path class="st1" d="M426,439.8c26.4-5.4,53.3-7.7,80.2-6.8c3.2,0.1,3.2-4.9,0-5c-27.4-0.9-54.7,1.4-81.5,6.9
			C421.5,435.6,422.8,440.4,426,439.8L426,439.8z"/>
	</g>
</g>
<g>
	<g>
		<path class="st1" d="M507.2,433.3c2.4-0.4,4.8,0.1,7.2-0.2c2.4-0.4,4-1.6,6.1-2.7c5.3-2.8,11.4-2.9,17.2-3c3.2,0,3.2-5,0-5
			c-5.4,0.1-11,0.2-16.2,2c-2.6,0.9-4.8,2.6-7.4,3.3c-2.7,0.7-5.6,0.2-8.4,0.7C502.7,429,504,433.8,507.2,433.3L507.2,433.3z"/>
	</g>
</g>
<g>
	<g>
		<path class="st1" d="M538.2,427.4c4.2-0.3,8.2-1.9,12.3-2.2c4.3-0.3,7,2.4,10.9,3.2c6.4,1.3,11.5,4.8,18.5,4.7
			c-0.6-1.4-1.2-2.8-1.8-4.3c-0.7,0.7-1.4,1.4-2,2.2c-2.2,2.3,1.3,5.9,3.5,3.5c0.7-0.7,1.4-1.4,2-2.2c1.5-1.5,0.5-4.3-1.8-4.3
			c-4.8,0-8.4-1.3-12.6-3.4c-2.7-1.3-5.4-1.3-8.1-2.6c-7.5-3.5-13.2-0.3-21.1,0.3C535,422.7,535,427.7,538.2,427.4L538.2,427.4z"/>
	</g>
</g>
<g>
	<g>
		<path class="st1" d="M575.8,435c1.4,1.3,2.9,1.9,4.8,2.1c-0.4-1.6-0.8-3.1-1.3-4.7c-1.9,1.3-3.4,3-4.4,5.1
			c-0.6,1.2-0.3,2.7,0.9,3.4c1.1,0.6,2.8,0.3,3.4-0.9c0.6-1.3,1.4-2.4,2.6-3.3c2.1-1.5,1.2-4.3-1.3-4.7c-0.5-0.1-0.9-0.4-1.3-0.7
			C576.9,429.3,573.4,432.8,575.8,435L575.8,435z"/>
	</g>
</g>
<g>
	<g>
		<path class="st1" d="M578.1,440.3c1.2,0.4,2.3,0.8,3.5,1.2c0.5,0.2,1.1,0.4,1.6,0.5c0.3,0.1,0.5,0.2,0.8,0.3
			c0.7,0.3,0.7,0.2,0-0.2c-0.1-0.4-0.2-0.8-0.3-1.3c0-0.3,0.3-0.6,0-0.1c-0.2,0.3-0.3,0.5-0.4,0.8c-0.3,0.7-0.5,1.3-0.5,2.1
			c-0.2,3.2,4.8,3.2,5,0c0,0.7,0.3-0.4,0.5-0.7c0.3-0.6,0.5-1.2,0.5-1.9c0-1.2-0.6-2.3-1.6-3c-1-0.6-2.3-0.9-3.4-1.3
			c-1.4-0.5-2.9-1-4.3-1.4C576.4,434.4,575.1,439.2,578.1,440.3L578.1,440.3z"/>
	</g>
</g>
<g>
	<g>
		<path class="st1" d="M583.6,444.9c3.3,2.6,7.6,3.1,11.3,1c-1.1-1.1-2.3-2.3-3.4-3.4c-1.5,2.1-2.6,4.4-3.4,6.9
			c-1,3.1,3.8,4.4,4.8,1.3c0.7-2.1,1.6-3.9,2.9-5.7c1.5-2.1-1.4-4.6-3.4-3.4c-1.6,0.9-3.7,1-5.2-0.2c-1.1-0.8-2.5-1-3.5,0
			C582.7,442.3,582.5,444.1,583.6,444.9L583.6,444.9z"/>
	</g>
</g>
<g>
	<g>
		<path class="st1" d="M590.5,448.5c2.7,2,5.6,3.5,8.8,4.5c-0.5-1.2-1-2.4-1.5-3.7c-2.3,3.2-5.9,5.4-9.9,5.8c-3.2,0.3-3.2,5.4,0,5
			c5.9-0.6,10.8-3.5,14.2-8.3c1-1.4-0.1-3.2-1.5-3.7c-2.8-0.9-5.3-2.3-7.6-4C590.4,442.3,587.9,446.6,590.5,448.5L590.5,448.5z"/>
	</g>
</g>
<g>
	<g>
		<path class="st1" d="M587.9,458.8c1,1,2.2,1.7,3.6,2.2c-0.4-1.4-0.7-2.8-1.1-4.2c-1.7,1.5-3.2,3.3-4.4,5.2
			c-1.8,2.7,2.5,5.2,4.3,2.5c1-1.6,2.3-2.9,3.6-4.2c1.5-1.4,0.5-3.6-1.1-4.2c-0.5-0.2-1-0.5-1.4-0.9
			C589.1,453,585.6,456.5,587.9,458.8L587.9,458.8z"/>
	</g>
</g>
<g>
	<g>
		<path class="st1" d="M589.4,466.3c3.8-1.4,8.7-0.5,11.8-3.6c1-1,1.8-2.4,2.4-3.8c0.6-1.4,0.3-1.2,1.3,0.2
			c2.1,2.9,4.6,12.6-1.4,12.3c-3.2-0.2-3.2,4.8,0,5c10,0.5,9.7-11.8,6.6-18.3c-1.4-2.9-4.7-7-8.4-4.8c-1.9,1.1-2.2,3.3-3.4,4.9
			c-2.2,2.9-7,2-10.3,3.2C585.1,462.6,586.4,467.4,589.4,466.3L589.4,466.3z"/>
	</g>
</g>
<g>
	<g>
		<path class="st1" d="M603.3,477.4c5.4,0.3,12.7-0.5,17.7,1.9c3.7,1.8,6,4.7,10.3,5.2c-0.4-1.6-0.8-3.1-1.3-4.7
			c-2.9,1.8-5.8,3.5-8.7,5.3c-2.7,1.7-0.2,6,2.5,4.3c2.9-1.8,5.8-3.5,8.7-5.3c2.3-1.4,1.1-4.4-1.3-4.7c-2.5-0.3-4.3-2.3-6.2-3.6
			c-1.9-1.3-3.8-2-6-2.4c-5.1-0.9-10.6-0.8-15.7-1.1C600.1,472.2,600.1,477.3,603.3,477.4L603.3,477.4z"/>
	</g>
</g>
<g>
	<g>
		<path class="st1" d="M621.2,489c4,1.5,8.4,1,11.9,3.7c2.2,1.7,4.3,2.6,7.1,2c-1-1-2.1-2.1-3.1-3.1c-0.6,3.2-7.1,3-9.4,3.3
			c-3.3,0.5-6.7,1-10,1.5c-3.2,0.5-1.8,5.3,1.3,4.8c5.4-0.8,11.1-1.2,16.4-2.5c3.2-0.7,5.9-2.4,6.6-5.9c0.3-1.9-1.1-3.5-3.1-3.1
			c-1.7,0.4-5.4-3.3-7.2-3.9c-3-0.9-6.1-0.7-9.1-1.8C619.5,483.1,618.1,487.9,621.2,489L621.2,489z"/>
	</g>
</g>
<g>
	<g>
		<path class="st1" d="M616.8,499.9c1.9,0.9,3.9,1.3,6,1.5c1.4,0.2,4.8,0.5,5,2.5c0.4,3.2,5.4,3.2,5,0c-0.3-2.8-1.8-4.8-4.3-6.1
			c-2.9-1.4-6.2-0.9-9.1-2.2C616.4,494.2,613.9,498.5,616.8,499.9L616.8,499.9z"/>
	</g>
</g>
<g>
	<g>
		<path class="st1" d="M628.8,505.7c5.6,3.1,11.9,5.1,16.6,9.6c2.3,2.3,5.8-1.3,3.5-3.5c-5-4.9-11.6-7.1-17.6-10.4
			C628.5,499.9,625.9,504.2,628.8,505.7L628.8,505.7z"/>
	</g>
</g>
<g>
	<g>
		<path class="st1" d="M548.6,491.7c3.5-10,5.7-20.9,3.1-31.3c-2-8.1-6.8-18-15.3-20.8c-3.1-1-4.4,3.8-1.3,4.8
			c7.5,2.4,11.4,13.4,12.5,20.4c1.3,8.6-0.9,17.4-3.7,25.5C542.7,493.5,547.5,494.8,548.6,491.7L548.6,491.7z"/>
	</g>
</g>
<g>
	<g>
		<path class="st1" d="M554.1,479.6c2.1,5,4.3,9.7,8.8,13c2.6,1.9,5.1-2.4,2.5-4.3c-3.6-2.7-5.3-7.2-7-11.2
			C557.2,474.1,552.9,476.7,554.1,479.6L554.1,479.6z"/>
	</g>
</g>
<g>
	<g>
		<path class="st1" d="M547.8,469.8c2.8,2.4,4.4,5.6,5.9,8.9c1.3,2.9,5.6,0.4,4.3-2.5c-1.6-3.7-3.6-7.3-6.7-9.9
			C548.9,464.2,545.4,467.7,547.8,469.8L547.8,469.8z"/>
	</g>
</g>
<g>
	<g>
		<path class="st1" d="M545.4,491.8c5.9,3.7,13.9,7,19.6,1c2.2-2.3-1.3-5.9-3.5-3.5c-3.9,4.1-9.7,0.6-13.5-1.8
			C545.2,485.7,542.7,490.1,545.4,491.8L545.4,491.8z"/>
	</g>
</g>
<g>
	<g>
		<path class="st1" d="M585.9,505.5c4.9,2.7,7.5,9.7,11.2,13.9c1.9,2.1,3.9,4,6.3,5.5c1.1,0.7,2.3,1.3,3.5,1.8c2.3,1,4.8,0.4,4,3.8
			c-0.8,3.1,4,4.5,4.8,1.3c0.6-2.5,1.3-6.4-1.4-8.1c-1.5-1-4-1-5.7-1.8c-2.1-1-4-2.3-5.7-3.8c-5.5-5.1-7.8-13.4-14.5-17
			C585.6,499.6,583,503.9,585.9,505.5L585.9,505.5z"/>
	</g>
</g>
<g>
	<g>
		<path class="st1" d="M612.1,532.9c1.8,2.3,4.8,2.6,6.9,0.5c0.9-0.9,1.3-2.2,2.1-3.2c0.9-1.2,2.1-1.8,3.5-2.1
			c3.2-0.6,1.8-5.4-1.3-4.8c-1.9,0.4-3.8,1.3-5.2,2.7c-0.6,0.6-1.2,1.4-1.6,2.1c-0.2,0.4-0.4,0.8-0.6,1.2c-0.6,1.1-0.3,0,0.6,1.1
			c-0.8-1.1-2.1-1.6-3.4-0.9C611.9,530.1,611.3,531.9,612.1,532.9L612.1,532.9z"/>
	</g>
</g>
<g>
	<g>
		<path class="st1" d="M590.1,507.1c8,5.2,18.1,6.1,27.3,7.8c10.3,2,20.7,3.8,31.2,3.1c3.2-0.2,3.2-5.2,0-5c-10.1,0.7-20-1-29.9-3
			c-8.7-1.7-18.5-2.5-26.1-7.3C589.9,501.1,587.4,505.4,590.1,507.1L590.1,507.1z"/>
	</g>
</g>
<g>
	<g>
		<path class="st1" d="M644.2,515.4c0.3,0.6,0.6,1.2,0.9,1.7c0.6,1.2,2.3,1.6,3.4,0.9c1.2-0.8,1.5-2.2,0.9-3.4
			c-0.3-0.6-0.6-1.2-0.9-1.7c-0.6-1.2-2.3-1.6-3.4-0.9C643.9,512.7,643.6,514.1,644.2,515.4L644.2,515.4z"/>
	</g>
</g>
<g>
	<g>
		<path class="st1" d="M645.1,515.9c0.4,0.3,0.9,0.6,1.3,0.9c1.1,0.7,2.8,0.2,3.4-0.9c0.7-1.3,0.3-2.6-0.9-3.4
			c-0.4-0.3-0.9-0.6-1.3-0.9c-1.1-0.7-2.8-0.2-3.4,0.9C643.5,513.7,643.9,515.1,645.1,515.9L645.1,515.9z"/>
	</g>
</g>
<g>
	<g>
		<path class="st1" d="M621.7,528.1c8.9,0.5,17.1,3.9,23.8,9.8c2.4,2.1,6-1.4,3.5-3.5c-7.7-6.8-17.1-10.7-27.4-11.3
			C618.5,522.9,618.5,527.9,621.7,528.1L621.7,528.1z"/>
	</g>
</g>
<g>
	<g>
		<path class="st1" d="M615.5,554.7c-0.1,0-0.1-0.1-0.2-0.1c-1.6-0.7-3.1-0.1-3.7,1.5c0,0.1-0.1,0.2-0.1,0.3
			c-0.5,1.2,0.5,2.8,1.7,3.1c3.1,0.8,7.2-2.2,9.9-3.4c5-2.2,10-4.4,15-6.6c2.9-1.3,0.4-5.6-2.5-4.3c-3.7,1.6-7.4,3.3-11.1,4.9
			c-1.6,0.7-3.2,1.4-4.8,2.1c-0.7,0.3-4.8,2.7-5.2,2.6c0.6,1,1.2,2.1,1.7,3.1c0-0.1,0.1-0.2,0.1-0.3c-1.2,0.5-2.4,1-3.7,1.5
			c0.1,0,0.1,0.1,0.2,0.1C615.9,560.4,618.4,556.1,615.5,554.7L615.5,554.7z"/>
	</g>
</g>
<g>
	<g>
		<path class="st1" d="M630.3,544.4c1.4,1.1,2.5,2.5,3.1,4.2c0.5,1.3,1.7,2.1,3.1,1.7c1.2-0.3,2.2-1.8,1.7-3.1
			c-0.9-2.5-2.4-4.7-4.4-6.4c-1-0.9-2.5-1-3.5,0C629.5,541.8,629.3,543.6,630.3,544.4L630.3,544.4z"/>
	</g>
</g>
<g>
	<g>
		<path class="st1" d="M634.1,544.7c5.3-1.2,10.3-3.4,14.8-6.5c2.7-1.8,0.2-6.1-2.5-4.3c-4.2,2.8-8.7,4.8-13.6,6
			C629.6,540.7,630.9,545.5,634.1,544.7L634.1,544.7z"/>
	</g>
</g>
<g>
	<g>
		<path class="st1" d="M534.8,538.4c16.1,6.4,33.4,7.8,50.3,4.3c3.2-0.6,1.8-5.5-1.3-4.8c-16.1,3.3-32.4,1.7-47.6-4.3
			C533.2,532.4,531.9,537.2,534.8,538.4L534.8,538.4z"/>
	</g>
</g>
<g>
	<g>
		<path class="st1" d="M538.3,537.6c4.5-4,9.6-7.1,15.2-9.1c3-1.1,1.7-5.9-1.3-4.8c-6.5,2.4-12.3,5.8-17.4,10.4
			C532.4,536.2,535.9,539.8,538.3,537.6L538.3,537.6z"/>
	</g>
</g>
<g>
	<g>
		<path class="st1" d="M553,528.1c5,0.1,10.3,0.5,14.6,3.3c4.4,2.8,7.1,8.1,10.1,12.2c1.8,2.6,6.2,0.1,4.3-2.5
			c-3.4-4.9-6.7-10.7-11.9-14c-5.1-3.2-11.2-3.9-17.1-4C549.7,523,549.7,528,553,528.1L553,528.1z"/>
	</g>
</g>
<g>
	<g>
		<path class="st1" d="M613.9,559c16.3,10.4,35.7,12.6,54.6,13.1c3.2,0.1,3.2-4.9,0-5c-18.1-0.5-36.5-2.5-52.1-12.5
			C613.7,552.9,611.2,557.3,613.9,559L613.9,559z"/>
	</g>
</g>
<g>
	<g>
		<path class="st1" d="M666.7,572.2c6.5,0.8,12.9,1.6,19.4,2.4c5.6,0.7,11.8,1.1,15.5,5.8c2,2.5,5.5-1,3.5-3.5
			c-3.6-4.6-9.1-5.9-14.6-6.7c-7.9-1.2-15.9-2-23.9-3C663.6,566.8,663.6,571.8,666.7,572.2L666.7,572.2z"/>
	</g>
</g>
<g>
	<g>
		<path class="st1" d="M281.2,343.2c-0.1-1.8-0.1-3.7,0.2-5.5c0.2-1.3-0.3-2.7-1.7-3.1c-1.2-0.3-2.9,0.4-3.1,1.7
			c-0.4,2.3-0.5,4.5-0.4,6.8c0.1,1.3,1.1,2.5,2.5,2.5C280,345.7,281.3,344.5,281.2,343.2L281.2,343.2z"/>
	</g>
</g>
<g>
	<g>
		<path class="st1" d="M281.1,337.2c0-0.7,0-1,0.1-1.4c0.2-0.7,0.3-0.9,0.5-1.4c0.7-1.2,0.3-2.7-0.9-3.4c-1.1-0.7-2.8-0.3-3.4,0.9
			c-0.9,1.6-1.4,3.5-1.3,5.3c0.1,1.3,1.1,2.6,2.5,2.5C279.9,339.6,281.1,338.6,281.1,337.2L281.1,337.2z"/>
	</g>
</g>
<g>
	<g>
		<path class="st1" d="M281.9,333.9c0.6-2,0.6-4.2-0.1-6.2c-0.4-1.3-1.7-2.1-3.1-1.7c-1.2,0.3-2.2,1.8-1.7,3.1
			c0.4,1.2,0.5,2.3,0.1,3.5C276.2,335.7,281,337,281.9,333.9L281.9,333.9z"/>
	</g>
</g>
<g>
	<g>
		<path class="st1" d="M281.3,329.2c2.1-3.8,2.4-8.2-1.2-11.2c-2.4-2.1-6,1.4-3.5,3.5c1.8,1.6,1.4,3.2,0.4,5.2
			C275.4,329.5,279.7,332,281.3,329.2L281.3,329.2z"/>
	</g>
</g>
<g>
	<g>
		<path class="st1" d="M279.9,318.8c-1.6-4.7-6.1-8-11.1-7.5c-3.2,0.3-3.2,5.3,0,5c2.7-0.3,5.4,1.1,6.3,3.8
			C276.1,323.1,280.9,321.8,279.9,318.8L279.9,318.8z"/>
	</g>
</g>
<g>
	<g>
		<path class="st1" d="M270.6,313.1c-0.2-2.3-1.4-4.4-3.6-5.3c-1.1-0.5-2.3-0.6-3.5-0.3c-0.6,0.1-1.1,0.3-1.6,0.6
			c-0.2,0.1-0.5,0.3-0.7,0.4c-0.4,0.3-0.5,0.3-0.2,0.1c-1.3-0.1-2.5,1.2-2.5,2.5c0,1.4,1.1,2.4,2.5,2.5c0.7,0.1,1.4-0.1,2-0.4
			c0.5-0.2,1-0.7,1.5-0.8c0.5-0.1,1,0.2,1.1,0.7C265.9,316.3,270.9,316.3,270.6,313.1L270.6,313.1z"/>
	</g>
</g>
<g>
	<g>
		<path class="st1" d="M263.4,309.6c0.2,0.7-0.7,0.2,0,0.5c0.2,0.1,1,0.1,1.3,0.2c1.2,0.2,2.4,0.2,3.5-0.5c2.1-1.4,2.5-3.8,2.3-6.1
			c-0.2-1.3-1-2.5-2.5-2.5c-1.2,0-2.7,1.1-2.5,2.5c0,0.3-0.1,1.7,0.1,1.9c0,0.1,0,0.1-0.1,0.1c0.5-0.2,0.5-0.3,0.1-0.3
			c-0.3-0.2-1.3-0.2-1.6-0.2c-0.7,0-1.4,0-2.1,0.2c-2.4,0.7-4.1,3.2-3.2,5.6C259.6,313.9,264.5,312.6,263.4,309.6L263.4,309.6z"/>
	</g>
</g>
<g>
	<g>
		<path class="st1" d="M239.7,353.8c-0.2-0.7,0.3-1.4,0.4-2c0.2-0.9,0.1-1.8-0.4-2.6c-0.2-0.3-0.4-0.5-0.6-0.6c-0.6-0.4,0,0.2,0,0
			c0-0.8,0.1-1.5,0-2.3c-0.2-1.3-1-2.5-2.5-2.5c-1.2,0-2.7,1.2-2.5,2.5c0.1,1.2-0.2,2.5,0.1,3.7c0.3,1.1,1.3,2,1.7,2.5
			c-0.2-0.6-0.5-1.2-0.7-1.8c0,0.6-0.4,1.4-0.5,2c-0.1,0.9-0.1,1.6,0.1,2.4C235.6,358.2,240.4,356.9,239.7,353.8L239.7,353.8z"/>
	</g>
</g>
<g>
	<g>
		<path class="st1" d="M232.4,347.8c1.2,0.2,2.4,0.4,3.6,0.3c1.3-0.1,2.6-1.1,2.5-2.5c-0.1-1.3-1.1-2.6-2.5-2.5c-0.5,0-0.9,0-1.4,0
			c-0.1,0-0.8-0.1-0.3,0c-0.2,0-0.5-0.1-0.7-0.1c-1.3-0.3-2.8,0.4-3.1,1.7C230.4,346,231,347.5,232.4,347.8L232.4,347.8z"/>
	</g>
</g>
<g>
	<g>
		<path class="st1" d="M234.7,345.7c1.4-3.6,3.2-7,5.1-10.4c1.6-2.8-2.7-5.3-4.3-2.5c-2.2,3.7-4,7.6-5.6,11.6
			C228.7,347.3,233.5,348.6,234.7,345.7L234.7,345.7z"/>
	</g>
</g>
<g>
	<g>
		<path class="st1" d="M236.2,331.3c-0.2,0.2-0.3,0.3-0.5,0.5c1.4,0.6,2.8,1.2,4.3,1.8c-0.2-6.9,1-17.3,9.8-18.3
			c3.2-0.4,3.2-5.4,0-5c-11.8,1.3-15.1,13.1-14.8,23.3c0.1,2.1,2.7,3.4,4.3,1.8c0.2-0.2,0.3-0.3,0.5-0.5
			C241.9,332.5,238.4,329,236.2,331.3L236.2,331.3z"/>
	</g>
</g>
<g>
	<g>
		<path class="st1" d="M251.7,313.5c1.2-3.2,2.2-7.1,4.1-9.9c1.5-2.2,3.8-2.9,4-5.8c0.3-3.2-4.7-3.2-5,0c0,0-2.1,1.7-2.5,2.1
			c-0.9,1.1-1.5,2.2-2.1,3.5c-1.3,2.9-2.3,5.8-3.4,8.8C245.7,315.2,250.6,316.5,251.7,313.5L251.7,313.5z"/>
	</g>
</g>
<g>
	<g>
		<path class="st1" d="M254.7,300.5c-0.1,0.9,0,1.8,0.3,2.7c0.3,1.3,1.8,2.2,3.1,1.7c1.3-0.4,2.1-1.7,1.7-3.1c0-0.2-0.1-0.3-0.1-0.5
			c-0.1-0.3,0,0.6,0,0c0-0.3,0-0.6,0-0.9c0.1-1.3-1.2-2.6-2.5-2.5C255.7,298.1,254.8,299.1,254.7,300.5L254.7,300.5z"/>
	</g>
</g>
<g>
	<g>
		<path class="st1" d="M254.1,300c0,0.7,0,1.5,0,2.2c0,1.3,1.1,2.6,2.5,2.5c1.4-0.1,2.5-1.1,2.5-2.5c0-0.7,0-1.5,0-2.2
			c0-1.3-1.1-2.6-2.5-2.5C255.3,297.5,254.1,298.6,254.1,300L254.1,300z"/>
	</g>
</g>
<g>
	<g>
		<path class="st1" d="M258.9,304.5c1-1.5,2.3-2.6,3.9-3.3c-0.4,0.1-0.8,0.2-1.3,0.3c-0.2,0-0.8-0.5-0.3-0.1c0.3,0.3,0.7,0.5,1,0.7
			c0.7,0.3,1.4,0.3,2.1,0.1c3.1-1,1.8-5.8-1.3-4.8c-0.1,0-0.2,0.1-0.2,0.1c0.4,0,0.9,0,1.3,0c0.5,0.3,0.5,0.3,0.1,0
			c-0.2-0.2-0.5-0.4-0.8-0.6c-0.5-0.3-1-0.4-1.5-0.4c-1.1,0-2.1,0.5-3,1.1c-1.8,1.2-3.2,2.6-4.4,4.4
			C252.8,304.7,257.1,307.2,258.9,304.5L258.9,304.5z"/>
	</g>
</g>
<g>
	<g>
		<path class="st1" d="M260.2,301c0.7,1.5,2.3,2.3,3.9,2.4c0.7,0,1.5-0.1,2.2-0.4c0.8-0.3,1.6-0.9,2.4-1c-0.6-0.2-1.2-0.5-1.8-0.7
			c1.3,1.2,3,1.5,4.5,0.5c-1-1.3-2-2.6-3-3.9c-2,1.6-3,3.9-3,6.4c-0.1,3.2,4.9,3.2,5,0c0-1.2,0.6-2.1,1.6-2.8c2.2-1.8-0.7-5.4-3-3.9
			c0.2-0.1,0.5-0.1,0.7-0.2c0.4,0.2,0.7,0.4,1.1,0.6c-1.3-1.2-2.8-1.1-4.4-0.4c-0.4,0.2-1.4,0.4-1.7,0.7c-0.2,0.2-0.2,0-0.3,0
			c0.1,0,0.6,1,0.3,0.1c-0.5-1.2-2.4-1.5-3.4-0.9C259.8,298.3,259.7,299.8,260.2,301L260.2,301z"/>
	</g>
</g>
<g>
	<g>
		<path class="st1" d="M360.4,554.7c29.8-12.8,61.9-8.5,92.5-1.1c14.9,3.6,29.6,7.7,44.6,10.9c14.9,3.2,28.7,4.2,43.5-0.3
			c3.1-0.9,1.8-5.8-1.3-4.8c-16.7,5.1-32.2,2.4-48.8-1.5c-15.2-3.6-30.2-7.8-45.4-11.1c-29.3-6.4-59.3-8.4-87.5,3.7
			C355,551.7,357.5,556,360.4,554.7L360.4,554.7z"/>
	</g>
</g>
<g>
	<g>
		<path class="st1" d="M541.4,578.2c14,3,27.9,5.9,42.1,7.9c12.7,1.8,27,4,39.7,1.6c3.2-0.6,1.8-5.4-1.3-4.8
			c-6.6,1.2-13.7,0.5-20.4,0.1c-6.9-0.5-13.7-1.3-20.5-2.3c-12.8-1.9-25.5-4.6-38.2-7.3C539.6,572.7,538.3,577.5,541.4,578.2
			L541.4,578.2z"/>
	</g>
</g>
<g>
	<g>
		<path class="st1" d="M349.2,531.4c34.2,3.7,64.4-20.5,98.6-16.6c3.2,0.4,3.2-4.6,0-5c-34.2-3.9-64.4,20.3-98.6,16.6
			C346,526.1,346,531.1,349.2,531.4L349.2,531.4z"/>
	</g>
</g>
<g>
	<g>
		<path class="st1" d="M446.4,513.9c6.7,7.1,18.6,5.5,22.8-3.4c1.4-2.9-2.9-5.4-4.3-2.5c-2.9,6-10.4,7.3-15,2.4
			C447.7,508,444.2,511.6,446.4,513.9L446.4,513.9z"/>
	</g>
</g>
<g>
	<g>
		<path class="st1" d="M534.4,532c-13.6,4.5-28.3,1.2-38-9.5c-3.7-4.1-7-8.6-11.5-11.8c-5-3.5-10.8-5.2-16.8-5.8
			c-3.2-0.3-3.2,4.7,0,5c8,0.8,14.3,4.3,19.7,10.2c3.9,4.3,7.4,9,12.3,12.3c10.3,6.9,24.1,8.1,35.7,4.3
			C538.8,535.8,537.5,531,534.4,532L534.4,532z"/>
	</g>
</g>
<g>
	<g>
		<path class="st1" d="M584.3,543.6c11.7-0.7,18.7,12.5,28.9,16.4c3,1.1,4.3-3.7,1.3-4.8c-11.1-4.2-17-17.3-30.2-16.6
			C581.1,538.8,581.1,543.8,584.3,543.6L584.3,543.6z"/>
	</g>
</g>
<g>
	<g>
		<path class="st1" d="M571.2,511.9c5.9,11,10.6,22,21.8,28.6c3.9,2.3,9.5,7.1,14.2,7.1c3.4,0,5.6-2.7,4.8-6
			c-0.7-3.1-5.5-1.8-4.8,1.3c-0.3-1.4-8.7-5-10.2-5.9c-3.5-2-6.9-3.9-9.5-7c-5.1-5.9-8.3-13.8-12-20.6
			C574,506.6,569.7,509.1,571.2,511.9L571.2,511.9z"/>
	</g>
</g>
<g>
	<g>
		<path class="st1" d="M574.8,511.6c10.1,10.5,19.4,22,32.1,29.5c2.8,1.6,5.3-2.7,2.5-4.3c-12.4-7.2-21.4-18.5-31.1-28.7
			C576.1,505.8,572.6,509.3,574.8,511.6L574.8,511.6z"/>
	</g>
</g>
<g>
	<g>
		<path class="st1" d="M262.4,570c15.2,23.6,30.5,47.1,45.7,70.7c1.7,2.7,6.1,0.2,4.3-2.5c-15.2-23.6-30.5-47.1-45.7-70.7
			C264.9,564.8,260.6,567.3,262.4,570L262.4,570z"/>
	</g>
</g>
<g>
	<g>
		<path class="st1" d="M702.6,582.7c3.4,9,1.3,18-1.6,26.8c-1,3.1,3.8,4.4,4.8,1.3c3.1-9.6,5.3-19.7,1.6-29.5
			C706.3,578.3,701.5,579.6,702.6,582.7L702.6,582.7z"/>
	</g>
</g>
<g>
	<g>
		<path class="st1" d="M701,609.4c-13.9,21.1-35.7,43.2-61.9,46.7c-3.1,0.4-3.2,5.4,0,5c28.2-3.7,51.2-26.3,66.2-49.2
			C707,609.3,702.7,606.7,701,609.4L701,609.4z"/>
	</g>
</g>
<g>
	<g>
		<path class="st1" d="M640.2,655.7c-5.5,1.1-11.1,1.5-16.7,1.1c-3.2-0.2-3.2,4.8,0,5c6.1,0.4,12.1,0,18-1.3
			C644.7,659.9,643.3,655,640.2,655.7L640.2,655.7z"/>
	</g>
</g>
<g>
	<g>
		<path class="st1" d="M398.5,775c6.7,10.6,13.3,21.1,20,31.7c1.7,2.7,6,0.2,4.3-2.5c-6.7-10.6-13.3-21.1-20-31.7
			C401.1,769.7,396.7,772.2,398.5,775L398.5,775z"/>
	</g>
</g>
<g>
	<g>
		<path class="st1" d="M420.3,806.8c30.4,0,60.7,0,91.1,0c3.2,0,3.2-5,0-5c-30.4,0-60.7,0-91.1,0
			C417.1,801.8,417.1,806.8,420.3,806.8L420.3,806.8z"/>
	</g>
</g>
<g>
	<g>
		<path class="st1" d="M512.4,801.2c-1.1,0.1-2.2,0.2-3.3,0.2c-1.3,0-2.6,1.2-2.5,2.5c0.1,1.4,1.1,2.5,2.5,2.5
			c1.1,0,2.2-0.1,3.3-0.2c1.3-0.1,2.6-1.1,2.5-2.5C514.9,802.5,513.8,801.1,512.4,801.2L512.4,801.2z"/>
	</g>
</g>
<g>
	<g>
		<path class="st1" d="M307.8,640.4c2.1,3.4,4.2,6.8,6.4,10.2c1.7,2.7,6,0.2,4.3-2.5c-2.1-3.4-4.2-6.8-6.4-10.2
			C310.4,635.2,306.1,637.7,307.8,640.4L307.8,640.4z"/>
	</g>
</g>
<g>
	<g>
		<path class="st1" d="M402.8,773.7c-5.5-9.4-11.5-18.5-18-27.1c-1.9-2.5-6.3,0-4.3,2.5c6.6,8.7,12.6,17.7,18,27.1
			C400.1,779,404.5,776.5,402.8,773.7L402.8,773.7z"/>
	</g>
</g>
<g>
	<g>
		<path class="st1" d="M313.9,650.4c14.2,21.3,28.4,42.5,42.6,63.8c1.8,2.7,6.1,0.2,4.3-2.5c-14.2-21.3-28.4-42.5-42.6-63.8
			C316.5,645.2,312.1,647.7,313.9,650.4L313.9,650.4z"/>
	</g>
</g>
<g>
	<g>
		<path class="st1" d="M356.8,714.1c8,10.8,15.4,21.9,22.3,33.4c1.6,2.8,6,0.2,4.3-2.5c-6.9-11.5-14.3-22.7-22.3-33.4
			C359.3,709,354.9,711.5,356.8,714.1L356.8,714.1z"/>
	</g>
</g>
<g>
	<g>
		<path class="st1" d="M383.9,746.6c0-0.1,0-0.3,0-0.4c0-1.3-1.1-2.6-2.5-2.5c-1.4,0.1-2.5,1.1-2.5,2.5c0,0.1,0,0.3,0,0.4
			c0,1.3,1.1,2.6,2.5,2.5C382.7,749.1,383.9,748,383.9,746.6L383.9,746.6z"/>
	</g>
</g>
<g>
	<g>
		<path class="st1" d="M338.4,563.7c34.3-5.8,67.7,12.1,97.1,27.6c30.5,16,60.3,33.8,89.5,52c2.7,1.7,5.3-2.6,2.5-4.3
			c-30.9-19.3-62.3-38-94.7-54.7c-29.4-15.2-61.8-31.2-95.9-25.4C333.9,559.4,335.3,564.2,338.4,563.7L338.4,563.7z"/>
	</g>
</g>
<g>
	<g>
		<path class="st1" d="M516.8,634.6c2.5-12.7,5.1-25.7,11.9-36.9c6.4-10.6,12.5-19.7,14.3-32.3c0.4-3.1-4.4-4.5-4.8-1.3
			c-0.9,6.5-2.7,12.8-5.9,18.7c-2.9,5.4-6.8,10.1-9.6,15.5c-5.8,10.9-8.3,23.1-10.7,35.1C511.3,636.4,516.1,637.8,516.8,634.6
			L516.8,634.6z"/>
	</g>
</g>
<g>
	<g>
		<path class="st1" d="M633.2,655.4c-3.4-1.3-7.5-2.8-10.3-5.3c-2.8-2.5-3.8-6.6-4.9-10.1c-1.3-4.2-1.7-7.8-0.6-12.1
			c0.9-3.2,2.3-6.2,2.8-9.5c0.5-3.1-4.3-4.5-4.8-1.3c-0.7,4.6-3.1,8.8-3.6,13.4c-0.5,4.9,0.9,9.6,2.5,14.2c1.2,3.5,2.6,7,5.6,9.4
			c3.5,2.8,7.8,4.6,12,6.1C634.9,661.4,636.2,656.6,633.2,655.4L633.2,655.4z"/>
	</g>
</g>
<g>
	<g>
		<path class="st1" d="M619.7,621.7c1.8-6.8,3.2-13.7,4.2-20.7c0.5-3.1-4.4-4.5-4.8-1.3c-1,7-2.4,13.8-4.2,20.7
			C614,623.4,618.9,624.8,619.7,621.7L619.7,621.7z"/>
	</g>
</g>
<g>
	<g>
		<path class="st1" d="M622.1,599.1c-0.1,0-0.2,0-0.2,0c-1.3-0.3-2.7,0.4-3.1,1.7c0,0.1-0.1,0.2-0.1,0.4c-0.3,0.9,0,1.8,0.6,2.4
			c0.1,0.1,0.2,0.2,0.2,0.2c0.7,0.7,2.1,1,3,0.4c2.4-1.7,2.2-4.7,2.5-7.4c0.5-4.2,1-8.4,1.3-12.6c0.3-3.2-4.7-3.2-5,0
			c-0.3,2.8-0.5,5.6-0.8,8.4c-0.2,1.4-0.3,2.8-0.5,4.2c-0.1,0.9-1.4,4-0.1,3.1c1,0.1,2,0.3,3,0.4c-0.1-0.1-0.2-0.2-0.2-0.2
			c0.2,0.8,0.4,1.6,0.6,2.4c0-0.1,0.1-0.2,0.1-0.4c-1,0.6-2.1,1.2-3.1,1.7c0.1,0,0.2,0,0.2,0C624,604.5,625.3,599.6,622.1,599.1
			L622.1,599.1z"/>
	</g>
</g>
<g>
	<g>
		<path class="st1" d="M525.2,643c12.2,7.2,23.3,15.8,33,26.1c8.2,8.8,15.6,18.4,23.5,27.4c7.6,8.6,15.8,16.8,25.6,22.9
			c8.1,5.1,19,10.3,27.6,3.5c2.5-2-1-5.5-3.5-3.5c-8.7,7-24.1-5.5-30.6-11c-8.3-7-15.5-15.3-22.5-23.6c-6.9-8.2-13.7-16.6-21.3-24.2
			c-8.7-8.6-18.7-15.8-29.2-22C524.9,637,522.4,641.3,525.2,643L525.2,643z"/>
	</g>
</g>
<g>
	<g>
		<path class="st1" d="M575.3,686c14.7-0.2,27.9,7.3,42.2,9.3c14.3,2,29.8,0.1,43.5-4.1c3.1-0.9,1.8-5.8-1.3-4.8
			c-14.4,4.4-31.2,6.5-46,3.1c-12.9-2.9-25-8.7-38.4-8.5C572,681,572,686,575.3,686L575.3,686z"/>
	</g>
</g>
<g>
	<g>
		<path class="st1" d="M405,777.1c19.4-8.2,39.2-15.4,59.4-21.6c10-3,20-6.1,30.3-7.9c11.4-2.1,22.4-1.6,33.9,0.1
			c35.6,5.1,73.8,5.4,104-16.8c14.3-10.5,25.4-24.6,31.5-41.4c1.1-3-3.7-4.3-4.8-1.3c-11.2,31.2-41.6,52-73.8,56.2
			c-20.1,2.6-39.9,0.6-59.9-2.1c-20.2-2.7-38.7,1.4-58,7.1c-21.7,6.4-43,14.1-63.9,22.9C400.8,773.5,402,778.4,405,777.1L405,777.1z
			"/>
	</g>
</g>
<g>
	<g>
		<path class="st1" d="M483.4,747.5c11.5,19.6,23,39.1,34.5,58.7c1.6,2.8,6,0.3,4.3-2.5c-11.5-19.6-23-39.1-34.5-58.7
			C486.1,742.2,481.7,744.7,483.4,747.5L483.4,747.5z"/>
	</g>
</g>
<g>
	<g>
		<path class="st1" d="M358.6,660c24.7,14.6,52.4,25.1,79.2,35.4c26.8,10.3,54.4,18.7,83.2,20.8c3.2,0.2,3.2-4.8,0-5
			c-28.3-2.1-55.5-10.5-81.9-20.7c-26.4-10.2-53.6-20.5-78-34.9C358.4,654,355.9,658.4,358.6,660L358.6,660z"/>
	</g>
</g>
<g>
	<g>
		<path class="st1" d="M343.9,661.7c22.8,38.4,54.3,70.8,76.3,109.7c1.6,2.8,5.9,0.3,4.3-2.5c-22-38.9-53.5-71.3-76.3-109.7
			C346.6,656.4,342.3,658.9,343.9,661.7L343.9,661.7z"/>
	</g>
</g>
<g>
	<g>
		<path class="st1" d="M420.2,769.5c7,11.9,14,23.8,21,35.7c1.6,2.8,6,0.3,4.3-2.5c-7-11.9-14-23.8-21-35.7
			C422.9,764.2,418.6,766.7,420.2,769.5L420.2,769.5z"/>
	</g>
</g>
<g>
	<g>
		<path class="st1" d="M627.2,656.9c-24.5,0.7-49,0.4-73.5-1c-3.2-0.2-3.2,4.8,0,5c24.5,1.4,49,1.7,73.5,1
			C630.4,661.8,630.4,656.8,627.2,656.9L627.2,656.9z"/>
	</g>
</g>
<g>
</g>
<g>
</g>
<g>
</g>
<g>
</g>
<g>
</g>
<g>
</g>
<g>
</g>
<g>
</g>
<g>
</g>
<g>
</g>
<g>
</g>
<g>
</g>
<g>
</g>
<g>
</g>
<g>
</g>
</svg>
