<?xml version="1.0" encoding="UTF-8" standalone="no"?>
<!-- Generator: Adobe Illustrator 17.1.0, SVG Export Plug-In . SVG Version: 6.00 Build 0)  -->

<svg
   xmlns:dc="http://purl.org/dc/elements/1.1/"
   xmlns:cc="http://creativecommons.org/ns#"
   xmlns:rdf="http://www.w3.org/1999/02/22-rdf-syntax-ns#"
   xmlns:svg="http://www.w3.org/2000/svg"
   xmlns="http://www.w3.org/2000/svg"
   xmlns:sodipodi="http://sodipodi.sourceforge.net/DTD/sodipodi-0.dtd"
   xmlns:inkscape="http://www.inkscape.org/namespaces/inkscape"
   version="1.1"
   id="Layer_1"
   x="0px"
   y="0px"
   viewBox="0 0 384.8 442.1"
   enable-background="new 0 0 1471.4 460.5"
   xml:space="preserve"
   inkscape:version="0.48.5 r10040"
   width="100%"
   height="100%"
   sodipodi:docname="nodeschool-dallas-sticker.svg"><metadata
     id="metadata4483"><rdf:RDF><cc:Work
         rdf:about=""><dc:format>image/svg+xml</dc:format><dc:type
           rdf:resource="http://purl.org/dc/dcmitype/StillImage" /><dc:title></dc:title></cc:Work></rdf:RDF></metadata><defs
     id="defs4481" /><sodipodi:namedview
     pagecolor="#ffffff"
     bordercolor="#666666"
     borderopacity="1"
     objecttolerance="10"
     gridtolerance="10"
     guidetolerance="10"
     inkscape:pageopacity="0"
     inkscape:pageshadow="2"
     inkscape:window-width="1440"
     inkscape:window-height="791"
     id="namedview4479"
     showgrid="false"
     showguides="true"
     fit-margin-top="0"
     fit-margin-left="0"
     fit-margin-right="0"
     fit-margin-bottom="0"
     inkscape:zoom="0.92172815"
     inkscape:cx="-20.850035"
     inkscape:cy="161.3291"
     inkscape:window-x="0"
     inkscape:window-y="0"
     inkscape:window-maximized="1"
     inkscape:current-layer="g4137" /><polygon
     points="519.3,122.6 704.9,15.4 890.4,122.6 890.4,336.9 704.9,444 519.3,336.9 "
     id="polygon3755"
     style="fill:#ecf0f1;fill-opacity:1"
     transform="translate(-512.60001,-9.5)" /><path
     style="fill:#068ab2;fill-opacity:1"
     inkscape:connector-curvature="0"
     id="path3891"
     d="m 144.94708,347.32397 c -0.35,-0.60622 -0.16699,-1.28923 0.43923,-1.63923 l 2.68468,-1.55 c 3.03109,-1.75 6.39615,-0.92154 7.99615,1.84974 v 0 c 1.6,2.77128 0.72154,6.04974 -2.39615,7.84974 l -2.68468,1.55 c -0.60622,0.35 -1.28923,0.16699 -1.63923,-0.43923 l -4.4,-7.62102 z m 7.66051,4.46839 c 1.73205,-1 2.24449,-2.91243 1.29449,-4.55788 v 0 c -1,-1.73205 -2.91244,-2.24449 -4.64449,-1.24449 l -1.64545,0.95 3.4,5.88898 1.64545,-0.95 z" /><path
     style="fill:#068ab2;fill-opacity:1"
     inkscape:connector-curvature="0"
     id="path3907"
     d="m 232.77489,342.81576 c 0.35,-0.60622 1.03301,-0.78923 1.63923,-0.43923 0.60622,0.35 0.78923,1.03301 0.43923,1.63923 l -3.9,6.755 3.98371,2.3 c 0.51962,0.3 0.70263,0.98301 0.40263,1.50262 -0.3,0.51962 -0.98301,0.70263 -1.50263,0.40263 l -5.02294,-2.9 c -0.60622,-0.35 -0.78923,-1.03301 -0.43923,-1.63923 l 4.4,-7.62102 z" /><circle
     cx="706.5"
     cy="231.39999"
     r="0.5"
     id="circle4135"
     sodipodi:cx="706.5"
     sodipodi:cy="231.39999"
     sodipodi:rx="0.5"
     sodipodi:ry="0.5"
     style="fill:none"
     transform="translate(-512.60001,-9.5)" /><g
     id="g4137"
     transform="translate(-512.60001,-9.5)"><path
       d="m 705,236.7 c 2.9,0 5.3,-2.4 5.3,-5.3 0,-2.9 -2.4,-5.3 -5.3,-5.3 -2.9,0 -5.3,2.4 -5.3,5.3 0,2.9 2.4,5.3 5.3,5.3 z m 0,-5.8 c 0.3,0 0.5,0.2 0.5,0.5 0,0.3 -0.2,0.5 -0.5,0.5 -0.3,0 -0.5,-0.2 -0.5,-0.5 0,-0.3 0.2,-0.5 0.5,-0.5 z"
       id="path4139"
       style="fill:#068ab2;fill-opacity:1"
       inkscape:connector-curvature="0" /><path
       d="m 801.5,156.4 c 0,-1.3 -1.1,-2.4 -2.4,-2.4 H 610.5 c -1.3,0 -2.4,1.1 -2.4,2.4 0,1.3 1.1,2.4 2.4,2.4 h 188.6 c 1.3,0 2.4,-1.1 2.4,-2.4 z"
       id="path4141"
       style="fill:#068ab2;fill-opacity:1"
       inkscape:connector-curvature="0" /><path
       d="M 781.8,87.3 705.9,43.5 c 0,0 0,0 0,0 -0.1,-0.1 -0.2,-0.1 -0.3,-0.1 0,0 0,0 0,0 0,0 0,0 0,0 0,0 -0.1,0 -0.1,0 0,0 -0.1,0 -0.1,0 -0.1,0 -0.2,0 -0.3,0 0,0 0,0 -0.1,0 0,0 -0.1,0 -0.1,0 -0.1,0 -0.3,0 -0.4,0 0,0 0,0 0,0 0,0 0,0 0,0 0,0 0,0 0,0 -0.1,0 -0.2,0.1 -0.3,0.1 0,0 0,0 0,0 l -74.7,43.1 c -0.9,0.5 -1.2,1.6 -0.7,2.5 0.5,0.9 1.7,1.2 2.5,0.7 l 66.4,-38.3 -28.2,36 c -0.6,0.8 -0.5,2 0.3,2.6 0.8,0.6 2,0.5 2.6,-0.3 l 30.8,-39.3 v 38.4 c 0,1 0.8,1.9 1.9,1.9 1.1,0 1.9,-0.8 1.9,-1.9 V 50.5 l 30.8,39.3 c 0.4,0.5 0.9,0.7 1.5,0.7 0.4,0 0.8,-0.1 1.1,-0.4 0.8,-0.6 0.9,-1.8 0.3,-2.6 l -28.2,-36 67.6,39 c 0.3,0.2 0.6,0.2 0.9,0.2 0.6,0 1.3,-0.3 1.6,-0.9 0.4,-0.8 0.1,-2 -0.8,-2.5 z"
       id="path4143"
       style="fill:#068ab2;fill-opacity:1"
       inkscape:connector-curvature="0" /><path
       d="m 781.3,370.2 c -0.5,-0.9 -1.7,-1.2 -2.5,-0.7 l -66.3,38.3 28.2,-36 c 0.6,-0.8 0.5,-2 -0.3,-2.6 -0.8,-0.6 -2,-0.5 -2.6,0.3 L 707,408.8 v -38.4 c 0,-1 -0.8,-1.9 -1.9,-1.9 -1.1,0 -1.9,0.8 -1.9,1.9 v 38.4 l -30.8,-39.3 c -0.6,-0.8 -1.8,-0.9 -2.6,-0.3 -0.8,0.6 -0.9,1.8 -0.3,2.6 l 28.2,36 -67.6,-39 c -0.9,-0.5 -2,-0.2 -2.5,0.7 -0.5,0.9 -0.2,2 0.7,2.5 l 75.9,43.8 c 0,0 0,0 0.1,0 0.1,0 0.1,0.1 0.2,0.1 0,0 0,0 0.1,0 0,0 0,0 0.1,0 0,0 0.1,0 0.1,0 0.1,0 0.3,0.1 0.4,0.1 l 0,0 0,0 0,0 c 0,0 0,0 0,0 0.2,0 0.3,0 0.4,-0.1 0,0 0.1,0 0.1,0 0,0 0.1,0 0.1,0 0.1,0 0.1,-0.1 0.2,-0.1 0,0 0,0 0.1,0 l 74.7,-43.1 c 0.7,-0.4 1,-1.6 0.5,-2.5 z"
       id="path4145"
       style="fill:#068ab2;fill-opacity:1"
       inkscape:connector-curvature="0" /><circle
       cx="786.29999"
       cy="366.70001"
       r="2.3"
       id="circle4147"
       style="fill:#068ab2;fill-opacity:1"
       sodipodi:cx="786.29999"
       sodipodi:cy="366.70001"
       sodipodi:rx="2.3"
       sodipodi:ry="2.3"
       d="m 788.59999,366.70001 c 0,1.27026 -1.02975,2.3 -2.3,2.3 -1.27026,0 -2.3,-1.02974 -2.3,-2.3 0,-1.27025 1.02974,-2.3 2.3,-2.3 1.27025,0 2.3,1.02975 2.3,2.3 z" /><circle
       cx="622.79999"
       cy="366.70001"
       r="2.3"
       id="circle4149"
       style="fill:#068ab2;fill-opacity:1"
       sodipodi:cx="622.79999"
       sodipodi:cy="366.70001"
       sodipodi:rx="2.3"
       sodipodi:ry="2.3"
       d="m 625.09999,366.70001 c 0,1.27026 -1.02975,2.3 -2.3,2.3 -1.27026,0 -2.3,-1.02974 -2.3,-2.3 0,-1.27025 1.02974,-2.3 2.3,-2.3 1.27025,0 2.3,1.02975 2.3,2.3 z" /><path
       d="m 700,357.7 3.6,-8.2 c 0.3,-0.6 0.7,-0.9 1.3,-0.9 h 0.1 c 0.6,0 1.1,0.3 1.3,0.9 l 3.6,8.2 c 0.1,0.2 0.1,0.3 0.1,0.5 0,0.6 -0.5,1.1 -1.1,1.1 -0.5,0 -0.9,-0.3 -1.1,-0.8 l -0.7,-1.6 h -4.6 l -0.7,1.7 c -0.2,0.4 -0.6,0.7 -1.1,0.7 -0.6,0 -1.1,-0.5 -1.1,-1.1 0.3,-0.2 0.3,-0.4 0.4,-0.5 z m 6.4,-2.9 -1.4,-3.4 -1.4,3.4 h 2.8 z"
       id="path4153"
       style="fill:#068ab2;fill-opacity:1"
       inkscape:connector-curvature="0" /><path
       d="M 894,117.5 708.4,10.4 c -2.1,-1.2 -4.7,-1.2 -6.8,0 L 516,117.5 c -2.1,1.2 -3.4,3.5 -3.4,5.9 v 214.3 c 0,2.4 1.3,4.7 3.4,5.9 l 185.6,107.1 c 1.1,0.6 2.2,0.9 3.4,0.9 1.2,0 2.4,-0.3 3.4,-0.9 L 894,343.6 c 2.1,-1.2 3.4,-3.5 3.4,-5.9 V 123.4 c 0,-2.4 -1.3,-4.7 -3.4,-5.9 z M 705,24.1 883.8,127.3 v 30.3 h -21.9 c -1.3,0 -2.4,1.1 -2.4,2.4 v 7.1 h -27.1 v -55.2 c 0,-1.3 -1.1,-2.4 -2.4,-2.4 H 577 c -1.3,0 -2.4,1.1 -2.4,2.4 v 55.2 H 547.5 V 160 c 0,-1.3 -1.1,-2.4 -2.4,-2.4 H 526 V 127.3 L 705,24.1 z m 160.3,257.8 h 16.1 v 11.8 h -16.1 v -11.8 z m 0,-4.8 v -11.8 h 16.1 v 11.8 h -16.1 z m 18.5,-53.8 -0.3,-0.5 h 0.3 v 0.5 z m -3,-5.3 -2.6,-4.5 h 5.6 v 4.5 h -3 z m -2.6,-9.2 3,-5.3 h 2.6 v 5.3 h -5.6 z M 883.8,189.7 872,210 c 0,0 0,0.1 0,0.1 -0.1,0.1 -0.1,0.3 -0.2,0.4 0,0 0,0.1 0,0.1 0,0.2 -0.1,0.4 -0.1,0.6 0,0.2 0,0.4 0.1,0.6 0,0 0,0.1 0,0.1 0,0.1 0.1,0.3 0.2,0.4 0,0 0,0.1 0,0.1 l 11.8,20.4 v 27.8 H 863 c -1.3,0 -2.4,1.1 -2.4,2.4 v 16.5 16.5 c 0,1.3 1.1,2.4 2.4,2.4 h 20.8 v 23.1 H 853.5 V 181.3 h 8.5 21.9 v 8.4 z m -355.3,13.9 3,5.3 h -5.3 v -5.3 h 2.3 z m 3.1,10 -2.6,4.4 h -2.7 v -4.5 h 5.3 z m -5.3,9.2 0,0 0,0 0,0 z M 542,277.1 H 528.3 V 265.3 H 542 v 11.8 z m 0,4.8 v 11.8 H 528.3 V 281.9 H 542 z m -15.7,16.5 h 18.1 c 1.3,0 2.4,-1.1 2.4,-2.4 V 279.5 263 c 0,-1.3 -1.1,-2.4 -2.4,-2.4 h -18.1 v -28.3 l 11.5,-19.9 c 0,0 0,-0.1 0,-0.1 0.1,-0.1 0.1,-0.3 0.2,-0.4 0,0 0,-0.1 0,-0.1 0,-0.2 0.1,-0.4 0.1,-0.6 0,-0.2 0,-0.4 -0.1,-0.6 0,0 0,-0.1 0,-0.1 0,-0.1 -0.1,-0.3 -0.2,-0.4 0,0 0,-0.1 0,-0.1 l -11.5,-19.9 v -8.9 h 19.1 8.5 v 140.3 h -27.6 v -23.1 z m 16.7,-129 v 7.1 H 526.3 V 162.3 H 543 v 7.1 z m 13.2,7.1 h -8.5 v -4.7 h 27.1 V 316 321.5 H 558.5 V 178.9 c 0,-1.3 -1,-2.4 -2.3,-2.4 z m 271.5,-7.1 v 144.2 h -3.2 v -12.2 c 0,-1.3 -1.1,-2.4 -2.4,-2.4 h -5.5 v -12.2 c 0,-1.3 -1.1,-2.4 -2.4,-2.4 h -5.5 v -12.2 c 0,-1.3 -1.1,-2.4 -2.4,-2.4 h -4.7 v -88.7 h 4.7 c 1.3,0 2.4,-1.1 2.4,-2.4 v -7.1 h 5.5 c 1.3,0 2.4,-1.1 2.4,-2.4 v -26 c 0,-1.3 -1.1,-2.4 -2.4,-2.4 H 596.9 c -1.3,0 -2.4,1.1 -2.4,2.4 v 26 c 0,1.3 1.1,2.4 2.4,2.4 h 5.5 v 7.1 c 0,1.3 1.1,2.4 2.4,2.4 h 4.7 v 88.7 h -4.7 c -1.3,0 -2.4,1.1 -2.4,2.4 v 12.2 h -5.5 c -1.3,0 -2.4,1.1 -2.4,2.4 V 299 h -9.2 c -1.3,0 -2.4,1.1 -2.4,2.4 v 12.2 h -3.4 V 169.4 114.2 h 248.2 v 55.2 z m -215.9,7.1 h -4.7 v -4.7 h 32.3 v 4.7 h -4.7 c -1.3,0 -2.4,1.1 -2.4,2.4 v 91 h -18.1 v -91 c 0,-1.3 -1.1,-2.4 -2.4,-2.4 z m -12.6,-9.4 V 145.8 H 812 v 21.3 h -5.5 -36.2 -128.5 -37 -5.6 z M 797,178.9 v 91 h -17.3 v -91 c 0,-1.3 -1.1,-2.4 -2.4,-2.4 h -4.7 v -4.7 h 31.5 v 4.7 h -4.7 c -1.3,0 -2.4,1.1 -2.4,2.4 z m -69.1,69.3 h 14.6 l -12.2,21.1 h -2.4 v -21.1 z m 17.4,-4.7 H 728 v -14 h 25.4 l -8.1,14 z m -17.4,-18.7 v -15.5 h 16.4 l 9,15.5 h -25.4 z m 0,-20.3 V 185 h 2.4 l 11.2,19.5 h -13.6 z m -4.7,22.7 v 42.1 H 688.5 V 245.9 227.2 206.9 185 h 34.7 v 42.2 z M 683.8,204.5 H 670.5 L 681.7,185 h 2.1 v 19.5 z m -16.1,4.7 h 16.1 v 15.5 h -25 l 8.9,-15.5 z m 16.1,20.3 v 14 h -17 l -8.1,-14 h 25.1 z m 0,18.7 v 21.1 h -2.1 l -12.2,-21.1 h 14.3 z m 75.7,-19.9 c 0,0 0,0 0,0 0.1,-0.2 0.2,-0.3 0.2,-0.5 0,0 0,-0.1 0,-0.1 0,-0.2 0.1,-0.4 0.1,-0.6 0,-0.2 0,-0.4 -0.1,-0.6 0,0 0,-0.1 0,-0.1 0,-0.1 -0.1,-0.3 -0.2,-0.4 0,0 0,-0.1 0,-0.1 l -25.7,-44.5 c -0.4,-0.7 -1.2,-1.2 -2,-1.2 h -6.2 -39.4 -5.8 c -0.8,0 -1.6,0.5 -2,1.2 L 652.6,226 c 0,0 0,0.1 0,0.1 -0.1,0.1 -0.1,0.3 -0.2,0.4 0,0 0,0.1 0,0.1 0,0.2 -0.1,0.4 -0.1,0.6 0,0.2 0,0.4 0.1,0.6 0,0 0,0.1 0,0.1 0,0.1 0.1,0.3 0.2,0.4 0,0 0,0.1 0,0.1 l 24,41.6 H 637 v -88.7 h 4.7 c 1.3,0 2.4,-1.1 2.4,-2.4 v -7.1 h 123.7 v 7.1 c 0,1.3 1.1,2.4 2.4,2.4 h 4.7 V 270 h -39.5 l 24.1,-41.7 z m 39.9,46.3 h 4.7 v 9.9 h -197 v -9.9 h 4.7 187.6 z m 7.1,14.6 h 5.5 v 9.9 H 599.2 v -9.9 h 5.5 201.8 z m 7.8,14.6 h 5.5 v 9.9 H 587.7 v -9.9 h 9.2 217.4 z m -234.8,20.1 v -5.5 h 5.8 236.9 5.5 v 5.5 4.3 H 579.5 v -4.3 z m 253,-7.9 V 171.8 h 27.1 v 4.7 h -8.5 c -1.3,0 -2.4,1.1 -2.4,2.4 V 321.5 H 832.4 V 316 z m 31.8,-139.5 v -7.1 -7.1 h 19.5 v 14.2 H 864.3 z M 705,437 526.3,333.8 v -7.5 h 29.9 0 18.6 v 4.3 c 0,1.3 1.1,2.4 2.4,2.4 h 253 c 1.3,0 2.4,-1.1 2.4,-2.4 v -4.3 h 18.6 0 32.7 v 7.5 L 705,437 z"
       id="path4157"
       style="fill:#9b59b6;fill-opacity:1"
       inkscape:connector-curvature="0" /><path
       d="m 638.1,134.6 c 0.8,0 1.4,-0.6 1.4,-1.4 v -7.1 l 5.8,7.6 c 0.4,0.5 0.8,0.9 1.5,0.9 h 0.1 c 0.8,0 1.5,-0.6 1.5,-1.5 v -10.5 c 0,-0.8 -0.6,-1.4 -1.4,-1.4 -0.8,0 -1.4,0.6 -1.4,1.4 v 6.8 L 640,122 c -0.4,-0.5 -0.8,-0.9 -1.5,-0.9 h -0.3 c -0.8,0 -1.5,0.6 -1.5,1.5 v 10.5 c 0,0.9 0.6,1.5 1.4,1.5 z"
       id="path4159"
       style="fill:#068ab2;fill-opacity:1"
       inkscape:connector-curvature="0" /><path
       d="m 658,134.7 c 4.1,0 7.1,-3.1 7.1,-6.8 v 0 c 0,-3.8 -2.9,-6.8 -7,-6.8 -4.1,0 -7.1,3.1 -7.1,6.8 v 0 c 0,3.8 2.9,6.8 7,6.8 z m -3.9,-6.8 c 0,-2.3 1.6,-4.1 4,-4.1 2.3,0 4,1.9 4,4.2 v 0 c 0,2.3 -1.6,4.1 -4,4.1 -2.4,-0.1 -4,-1.9 -4,-4.2 l 0,0 z"
       id="path4161"
       style="fill:#068ab2;fill-opacity:1"
       inkscape:connector-curvature="0" /><path
       d="m 669.1,134.5 h 3.7 c 4.2,0 7,-2.9 7,-6.6 v 0 c 0,-3.7 -2.9,-6.6 -7,-6.6 h -3.7 c -0.8,0 -1.5,0.6 -1.5,1.5 V 133 c 0.1,0.9 0.7,1.5 1.5,1.5 z m 1.5,-10.6 h 2.2 c 2.4,0 4,1.6 4,4 v 0 c 0,2.3 -1.6,4 -4,4 h -2.2 v -8 z"
       id="path4163"
       style="fill:#068ab2;fill-opacity:1"
       inkscape:connector-curvature="0" /><path
       d="m 683.9,134.5 h 7.4 c 0.7,0 1.3,-0.6 1.3,-1.3 0,-0.7 -0.6,-1.3 -1.3,-1.3 h -6 v -2.8 h 5 c 0.7,0 1.3,-0.6 1.3,-1.3 0,-0.7 -0.6,-1.3 -1.3,-1.3 h -5 v -2.7 h 5.9 c 0.7,0 1.3,-0.6 1.3,-1.3 0,-0.7 -0.6,-1.3 -1.3,-1.3 h -7.3 c -0.8,0 -1.5,0.6 -1.5,1.5 V 133 c 0.1,0.9 0.7,1.5 1.5,1.5 z"
       id="path4165"
       style="fill:#068ab2;fill-opacity:1"
       inkscape:connector-curvature="0" /><path
       d="m 694.9,133.1 c 1.5,1.1 3.2,1.6 5,1.6 2.9,0 4.9,-1.5 4.9,-4.1 v 0 c 0,-2.3 -1.5,-3.3 -4.2,-4 -2.3,-0.6 -2.9,-0.9 -2.9,-1.7 v 0 c 0,-0.6 0.6,-1.2 1.7,-1.2 0.9,0 1.8,0.3 2.8,0.9 0.2,0.1 0.5,0.2 0.7,0.2 0.8,0 1.4,-0.6 1.4,-1.3 0,-0.6 -0.3,-1 -0.6,-1.2 -1.2,-0.8 -2.6,-1.2 -4.2,-1.2 -2.7,0 -4.6,1.6 -4.6,4 v 0 c 0,2.6 1.7,3.4 4.4,4 2.2,0.6 2.7,0.9 2.7,1.7 v 0 c 0,0.8 -0.7,1.2 -1.9,1.2 -1.3,0 -2.4,-0.5 -3.4,-1.2 -0.2,-0.1 -0.5,-0.3 -0.8,-0.3 -0.8,0 -1.4,0.6 -1.4,1.3 -0.2,0.7 0.1,1.1 0.4,1.3 z"
       id="path4167"
       style="fill:#068ab2;fill-opacity:1"
       inkscape:connector-curvature="0" /><path
       d="m 713.4,134.7 c 2.1,0 3.5,-0.6 4.7,-1.7 0.3,-0.2 0.5,-0.6 0.5,-1 0,-0.7 -0.6,-1.3 -1.4,-1.3 -0.3,0 -0.6,0.1 -0.9,0.3 -0.8,0.7 -1.6,1 -2.9,1 -2.3,0 -3.8,-1.9 -3.8,-4.2 v 0 c 0,-2.3 1.6,-4.1 3.8,-4.1 1,0 1.9,0.3 2.7,0.9 0.2,0.1 0.5,0.3 0.9,0.3 0.8,0 1.4,-0.6 1.4,-1.4 0,-0.5 -0.3,-0.9 -0.6,-1.2 -1.1,-0.8 -2.4,-1.3 -4.4,-1.3 -4.1,0 -6.9,3.1 -6.9,6.8 v 0 c 0.2,3.9 3.1,6.9 6.9,6.9 z"
       id="path4169"
       style="fill:#068ab2;fill-opacity:1"
       inkscape:connector-curvature="0" /><path
       d="m 722.7,134.6 c 0.8,0 1.5,-0.6 1.5,-1.5 v -4 h 5.4 v 4 c 0,0.8 0.6,1.5 1.5,1.5 0.8,0 1.5,-0.6 1.5,-1.5 v -10.5 c 0,-0.8 -0.6,-1.5 -1.5,-1.5 -0.8,0 -1.5,0.6 -1.5,1.5 v 3.9 h -5.4 v -3.9 c 0,-0.8 -0.6,-1.5 -1.5,-1.5 -0.8,0 -1.5,0.6 -1.5,1.5 v 10.5 c 0,0.9 0.6,1.5 1.5,1.5 z"
       id="path4171"
       style="fill:#068ab2;fill-opacity:1"
       inkscape:connector-curvature="0" /><path
       d="m 742,134.7 c 4.1,0 7,-3.1 7,-6.8 v 0 c 0,-3.8 -2.9,-6.8 -7,-6.8 -4.1,0 -7.1,3.1 -7.1,6.8 v 0 c 0.1,3.8 3,6.8 7.1,6.8 z m -4,-6.8 c 0,-2.3 1.6,-4.1 4,-4.1 2.3,0 4,1.9 4,4.2 v 0 c 0,2.3 -1.6,4.1 -4,4.1 -2.3,-0.1 -4,-1.9 -4,-4.2 l 0,0 z"
       id="path4173"
       style="fill:#068ab2;fill-opacity:1"
       inkscape:connector-curvature="0" /><path
       d="m 758.1,134.7 c 4.1,0 7.1,-3.1 7.1,-6.8 v 0 c 0,-3.8 -2.9,-6.8 -7,-6.8 -4.1,0 -7.1,3.1 -7.1,6.8 v 0 c 0,3.8 2.9,6.8 7,6.8 z m -4,-6.8 c 0,-2.3 1.6,-4.1 4,-4.1 2.3,0 4,1.9 4,4.2 v 0 c 0,2.3 -1.6,4.1 -4,4.1 -2.3,-0.1 -4,-1.9 -4,-4.2 l 0,0 z"
       id="path4175"
       style="fill:#068ab2;fill-opacity:1"
       inkscape:connector-curvature="0" /><path
       d="m 769.2,134.5 h 6.8 c 0.7,0 1.3,-0.6 1.3,-1.3 0,-0.7 -0.6,-1.3 -1.3,-1.3 h -5.4 v -9.2 c 0,-0.8 -0.6,-1.5 -1.5,-1.5 -0.8,0 -1.5,0.6 -1.5,1.5 V 133 c 0.1,0.9 0.8,1.5 1.6,1.5 z"
       id="path4177"
       style="fill:#068ab2;fill-opacity:1"
       inkscape:connector-curvature="0" /></g></svg>