<?xml version="1.0" encoding="UTF-8" standalone="no"?>
<svg width="210px" height="242px" viewBox="0 0 210 242" version="1.1" xmlns="http://www.w3.org/2000/svg" xmlns:xlink="http://www.w3.org/1999/xlink" xmlns:sketch="http://www.bohemiancoding.com/sketch/ns">
    <!-- Generator: Sketch 3.3.2 (12043) - http://www.bohemiancoding.com/sketch -->
    <title>Group</title>
    <desc>Created with Sketch.</desc>
    <defs></defs>
    <g id="Page-1" stroke="none" stroke-width="1" fill="none" fill-rule="evenodd" sketch:type="MSPage">
        <g id="template_toronto_COLOR" sketch:type="MSLayerGroup" transform="translate(-252.000000, 0.000000)">
            <g id="Group" transform="translate(252.000000, 0.000000)" sketch:type="MSShapeGroup">
                <path d="M202.4,65 L105.3,8.9 L8,65 L8,177.3 L8.1,177.3 L105.3,233.4 L202.6,177.3 L202.6,65 L202.4,65 Z" id="Shape" fill="#E5E1CF"></path>
                <path d="M208.1,59.7 L107.2,1.5 C106.1,0.8 104.6,0.8 103.5,1.5 L2.6,59.7 C1.5,60.4 0.8,61.6 0.8,62.9 L0.8,179.4 C0.8,180.7 1.5,182 2.6,182.6 L103.5,240.8 C104.1,241.1 104.7,241.3 105.3,241.3 C105.9,241.3 106.6,241.1 107.1,240.8 L208,182.6 C209.1,181.9 209.8,180.7 209.8,179.4 L209.8,62.9 C209.9,61.6 209.2,60.4 208.1,59.7 L208.1,59.7 Z M202.6,177.3 L105.3,233.4 L8.1,177.3 L8,177.3 L8,65 L105.3,8.9 L202.4,65 L202.6,65.1 L202.6,177.3 L202.6,177.3 Z" id="Shape" fill="#C0493D"></path>
                <g transform="translate(16.000000, 19.000000)" fill="#C0493D">
                    <g transform="translate(0.000000, 54.000000)" id="Shape">
                        <path d="M107.2,63.8 C111.1,66.7 114.2,70.5 116,74.8 L118.1,74.8 C116,69.3 112.2,64.6 107.2,61.3 L107.2,63.8 L107.2,63.8 Z"></path>
                        <path d="M107.2,56.8 C114.5,60.8 120.1,67.2 122.6,74.8 L124.7,74.8 C122.1,66.1 115.7,58.8 107.2,54.5 L107.2,56.8 L107.2,56.8 Z"></path>
                        <path d="M51.7,89 L51.7,91 L51.7,97.2 L75.7,97.2 L75.7,91 L75.7,89 L75.7,82.8 L51.7,82.8 L51.7,89 L51.7,89 Z M73.7,95.2 L53.7,95.2 L53.7,91 L73.7,91 L73.7,95.2 L73.7,95.2 Z M53.7,84.8 L73.7,84.8 L73.7,89 L53.7,89 L53.7,84.8 L53.7,84.8 Z"></path>
                        <path d="M102.3,82.8 L102.3,89 L102.3,91 L102.3,97.2 L126.3,97.2 L126.3,91 L126.3,89 L126.3,82.8 L102.3,82.8 L102.3,82.8 Z M124.4,95.2 L104.4,95.2 L104.4,91 L124.4,91 L124.4,95.2 L124.4,95.2 Z M104.3,89 L104.3,84.8 L124.3,84.8 L124.3,89 L104.3,89 L104.3,89 Z"></path>
                        <path d="M177,99.7 L177,99.7 L176.9,92.5 L177,92.5 C177.6,92.5 178,92.1 178,91.5 C178,90.9 177.6,90.5 177,90.5 L132.1,90.5 L132.1,80.3 C132.1,78.7 130.8,77.4 129.2,77.4 L97.3,77.4 L95.6,52.1 C98,52.3 100.4,52.7 102.6,53.4 L102.6,74.7 L104.6,74.7 L104.6,45.4 C101.5,44.5 98.3,44 95,43.9 L94.5,36.5 L95.7,36.5 L102.4,31.3 L102.4,26.6 L100,26.6 L95.8,21.5 L91.2,21.5 L90.5,1.9 C90.5,1.3 90,0.7 89.3,0.7 C88.6,0.7 88.1,1.2 88.1,1.9 L88.1,1.9 L87.4,21.5 L82.8,21.5 L78.6,26.6 L76.2,26.6 L76.2,31.3 L82.9,36.5 L84.1,36.5 L83.5,44.8 C67.8,48.2 55.6,60.1 53,74.8 L55,74.8 C57.5,61.2 68.8,50.3 83.3,46.9 L83,51.4 C71.2,54.7 62.2,63.7 59.8,74.8 L61.8,74.8 C64.1,64.8 72.2,56.7 82.8,53.5 L81.2,77.5 L49.3,77.5 C47.7,77.5 46.4,78.8 46.4,80.4 L46.4,90.6 L1.5,90.6 C0.9,90.6 0.5,91 0.5,91.6 C0.5,92.2 0.9,92.6 1.5,92.6 L1.6,92.6 L1.6,99.8 L1.5,99.8 C0.9,99.8 0.5,100.2 0.5,100.8 C0.5,101.4 0.9,101.8 1.5,101.8 L49.2,101.8 L49.3,101.8 L79.5,101.8 L79.1,108 L99.2,108 L98.8,101.8 L129,101.8 L129.1,101.8 L177,101.8 C177.6,101.8 178,101.4 178,100.8 C178,100.2 177.5,99.7 177,99.7 L177,99.7 Z M7.3,99.7 L3.7,99.7 L3.7,92.5 L7.3,92.5 L7.3,99.7 L7.3,99.7 Z M12.8,99.7 L9.2,99.7 L9.2,92.5 L12.8,92.5 L12.8,99.7 L12.8,99.7 Z M18.4,99.7 L14.8,99.7 L14.8,92.5 L18.4,92.5 L18.4,99.7 L18.4,99.7 Z M23.9,99.7 L20.3,99.7 L20.3,92.5 L23.9,92.5 L23.9,99.7 L23.9,99.7 Z M29.5,99.7 L25.9,99.7 L25.9,92.5 L29.5,92.5 L29.5,99.7 L29.5,99.7 Z M35.1,99.7 L31.5,99.7 L31.5,92.5 L35.1,92.5 L35.1,99.7 L35.1,99.7 Z M40.6,99.7 L37,99.7 L37,92.5 L40.6,92.5 L40.6,99.7 L40.6,99.7 Z M42.6,99.7 L42.6,92.5 L46.5,92.5 L46.5,98.8 C46.5,99.1 46.6,99.4 46.7,99.7 L42.6,99.7 L42.6,99.7 Z M102.6,47 L102.6,51.4 C100.3,50.8 97.9,50.3 95.4,50.2 L95.1,45.9 C97.7,46 100.2,46.4 102.6,47 L102.6,47 Z M83.7,23.4 L94.8,23.4 L96.9,26 L81.5,26 L83.7,23.4 L83.7,23.4 Z M83.6,34.5 L78.2,30.3 L78.2,28.6 L100.4,28.6 L100.4,30.3 L95,34.5 L83.6,34.5 L83.6,34.5 Z M49.4,99.7 C48.9,99.7 48.5,99.3 48.5,98.8 L48.5,80.4 C48.5,79.9 48.9,79.5 49.4,79.5 L81.2,79.5 L79.8,99.8 L49.4,99.8 L49.4,99.7 Z M88.3,105.9 L81.4,105.9 L86.1,36.5 L88.3,36.5 L88.3,105.9 L88.3,105.9 Z M90.3,105.9 L90.3,36.5 L92.5,36.5 L97.2,105.9 L90.3,105.9 L90.3,105.9 Z M130.1,98.8 C130.1,99.3 129.7,99.7 129.2,99.7 L98.8,99.7 L97.4,79.4 L129.2,79.4 C129.7,79.4 130.1,79.8 130.1,80.3 L130.1,98.8 L130.1,98.8 Z M136,99.7 L132,99.7 C132.1,99.4 132.2,99.1 132.2,98.8 L132.2,92.5 L136.1,92.5 L136.1,99.7 L136,99.7 Z M141.6,99.7 L138,99.7 L138,92.5 L141.6,92.5 L141.6,99.7 L141.6,99.7 Z M147.1,99.7 L143.5,99.7 L143.5,92.5 L147.1,92.5 L147.1,99.7 L147.1,99.7 Z M152.7,99.7 L149.1,99.7 L149.1,92.5 L152.7,92.5 L152.7,99.7 L152.7,99.7 Z M158.2,99.7 L154.6,99.7 L154.6,92.5 L158.2,92.5 L158.2,99.7 L158.2,99.7 Z M163.8,99.7 L160.2,99.7 L160.2,92.5 L163.8,92.5 L163.8,99.7 L163.8,99.7 Z M169.3,99.7 L165.7,99.7 L165.7,92.5 L169.3,92.5 L169.3,99.7 L169.3,99.7 Z M174.9,99.7 L171.3,99.7 L171.3,92.5 L174.9,92.5 L174.9,99.7 L174.9,99.7 Z"></path>
                    </g>
                    <g transform="translate(21.000000, 161.000000)" id="Shape">
                        <path d="M135.5,0.5 C135,0.3 134.4,0.5 134.2,1 C133.5,2.6 131.4,3.7 128.8,3.7 C126.3,3.7 124.2,2.7 123.5,1.1 C123.4,0.8 123.2,0.6 123,0.5 C122.9,0.4 122.7,0.4 122.6,0.4 C122.5,0.4 122.3,0.4 122.2,0.5 C121.9,0.6 121.7,0.8 121.7,1.1 C121,2.7 118.9,3.7 116.4,3.7 C113.8,3.7 111.7,2.7 111,1 C110.8,0.5 110.2,0.3 109.7,0.5 C109.2,0.7 109,1.3 109.2,1.8 C110.2,4.2 113,5.7 116.4,5.7 C119,5.7 121.3,4.8 122.7,3.3 C124.1,4.8 126.3,5.7 129,5.7 C132.4,5.7 135.2,4.2 136.2,1.8 C136.2,1.3 136,0.7 135.5,0.5 L135.5,0.5 Z"></path>
                        <path d="M27.1,0.5 C26.6,0.3 26,0.5 25.8,1 C25.1,2.6 23,3.7 20.4,3.7 C17.9,3.7 15.8,2.7 15.1,1.1 C15,0.8 14.8,0.6 14.6,0.5 C14.5,0.4 14.3,0.4 14.2,0.4 C14.1,0.4 13.9,0.4 13.8,0.5 C13.5,0.6 13.3,0.8 13.3,1.1 C12.6,2.7 10.5,3.7 8,3.7 C5.4,3.7 3.3,2.7 2.6,1 C2.4,0.5 1.8,0.3 1.3,0.5 C0.8,0.7 0.6,1.3 0.8,1.8 C1.8,4.2 4.6,5.7 8,5.7 C10.6,5.7 12.9,4.8 14.3,3.3 C15.7,4.8 17.9,5.7 20.6,5.7 C24,5.7 26.8,4.2 27.8,1.8 C27.8,1.3 27.6,0.7 27.1,0.5 L27.1,0.5 Z"></path>
                    </g>
                    <g transform="translate(5.000000, 55.000000)" id="Shape">
                        <path d="M144.2,77.6 C143.7,77.6 143.3,77.2 143.2,76.7 C143.2,76.2 143.6,75.7 144.1,75.6 L167,73.5 C167.5,73.5 168,73.9 168.1,74.4 C168.2,74.9 167.7,75.4 167.2,75.5 L144.2,77.6 L144.2,77.6 L144.2,77.6 Z"></path>
                        <path d="M143.8,72.2 C143.3,72.2 142.9,71.9 142.8,71.4 C142.7,70.9 143.1,70.3 143.6,70.3 L166.3,66.6 C166.8,66.5 167.4,66.9 167.4,67.4 C167.4,67.9 167.1,68.5 166.6,68.5 L143.9,72.2 L143.8,72.2 L143.8,72.2 Z"></path>
                        <path d="M142.6,67.2 C142.2,67.2 141.8,66.9 141.6,66.5 C141.5,66 141.8,65.4 142.3,65.3 L164.5,59.5 C165,59.4 165.6,59.7 165.7,60.2 C165.8,60.7 165.5,61.3 165,61.4 L142.8,67.2 L142.6,67.2 L142.6,67.2 Z"></path>
                        <path d="M140.9,61.7 C140.5,61.7 140.1,61.5 140,61.1 C139.8,60.6 140.1,60 140.6,59.8 L162.1,51.7 C162.6,51.5 163.2,51.8 163.4,52.3 C163.6,52.8 163.3,53.4 162.8,53.6 L141.3,61.7 L140.9,61.7 L140.9,61.7 Z"></path>
                        <path d="M138.5,56.5 C138.1,56.5 137.8,56.3 137.6,56 C137.3,55.5 137.5,54.9 138,54.7 L158.5,44.3 C159,44 159.6,44.2 159.8,44.7 C160,45.2 159.9,45.8 159.4,46 L139,56.4 C138.8,56.5 138.7,56.5 138.5,56.5 L138.5,56.5 Z"></path>
                        <path d="M135.5,51.4 C135.2,51.4 134.9,51.2 134.7,50.9 C134.4,50.4 134.5,49.8 135,49.5 L154.3,37 C154.8,36.7 155.4,36.8 155.7,37.3 C156,37.8 155.9,38.4 155.4,38.7 L136.1,51.2 C135.9,51.4 135.7,51.4 135.5,51.4 L135.5,51.4 Z"></path>
                        <path d="M132.2,46.8 C131.9,46.8 131.6,46.7 131.4,46.4 C131.1,46 131.1,45.3 131.5,45 L149.4,30.5 C149.8,30.2 150.5,30.2 150.8,30.6 C151.1,31 151.1,31.7 150.7,32 L132.8,46.5 C132.6,46.7 132.4,46.8 132.2,46.8 L132.2,46.8 Z"></path>
                        <path d="M128.3,42.3 C128,42.3 127.8,42.2 127.6,42 C127.2,41.6 127.2,41 127.6,40.6 L144,24.4 C144.4,24 145,24 145.4,24.4 C145.8,24.8 145.8,25.4 145.4,25.8 L129,42 C128.8,42.2 128.6,42.3 128.3,42.3 L128.3,42.3 Z"></path>
                        <path d="M124,38.5 C123.8,38.5 123.6,38.4 123.4,38.3 C123,37.9 122.9,37.3 123.3,36.9 L137.9,19.2 C138.3,18.8 138.9,18.7 139.3,19.1 C139.7,19.5 139.8,20.1 139.4,20.5 L124.8,38.2 C124.6,38.3 124.3,38.5 124,38.5 L124,38.5 Z"></path>
                        <path d="M119.3,35 C119.1,35 118.9,34.9 118.7,34.8 C118.2,34.5 118.1,33.9 118.4,33.4 L131.1,14.3 C131.4,13.8 132,13.7 132.5,14 C133,14.3 133.1,14.9 132.8,15.4 L120.1,34.5 C119.9,34.8 119.6,35 119.3,35 L119.3,35 Z"></path>
                        <path d="M114.3,32 C114.1,32 114,32 113.8,31.9 C113.3,31.6 113.1,31 113.4,30.5 L124.1,10.1 C124.4,9.6 125,9.4 125.4,9.7 C125.9,10 126.1,10.6 125.8,11.1 L115.1,31.5 C115,31.8 114.7,32 114.3,32 L114.3,32 Z"></path>
                        <path d="M109,29.6 C108.9,29.6 108.7,29.6 108.6,29.5 C108.1,29.3 107.8,28.7 108,28.2 L116.6,6.9 C116.8,6.4 117.4,6.1 117.9,6.3 C118.4,6.5 118.7,7.1 118.5,7.6 L109.9,28.9 C109.8,29.3 109.4,29.6 109,29.6 L109,29.6 Z"></path>
                        <path d="M106.3,17.6 L106,17.6 C105.5,17.4 105.2,16.9 105.3,16.4 L108.9,4.3 C109.1,3.8 109.6,3.5 110.1,3.6 C110.6,3.8 110.9,4.3 110.8,4.8 L107.2,16.9 C107.2,17.4 106.8,17.6 106.3,17.6 L106.3,17.6 Z"></path>
                        <path d="M99.7,15.4 L99.5,15.4 C99,15.3 98.6,14.8 98.7,14.2 L101,2.4 C101.1,1.9 101.6,1.5 102.2,1.6 C102.7,1.7 103.1,2.2 103,2.8 L100.7,14.6 C100.6,15 100.2,15.4 99.7,15.4 L99.7,15.4 Z"></path>
                        <path d="M92.7,14.4 L92.7,14.4 C92.1,14.3 91.7,13.9 91.7,13.3 L92.8,1.3 C92.9,0.8 93.3,0.3 93.9,0.4 C94.4,0.5 94.9,0.9 94.8,1.5 L93.7,13.5 C93.7,14 93.3,14.4 92.7,14.4 L92.7,14.4 Z"></path>
                        <path d="M167.6,82.8 L144.6,82.8 C144,82.8 143.6,82.4 143.6,81.8 C143.6,81.2 144,80.8 144.6,80.8 L167.6,80.8 C168.2,80.8 168.6,81.2 168.6,81.8 C168.6,82.4 168.1,82.8 167.6,82.8 L167.6,82.8 Z"></path>
                        <path d="M144.2,77.6 C143.7,77.6 143.3,77.2 143.2,76.7 C143.2,76.2 143.6,75.7 144.1,75.6 L167,73.5 C167.5,73.5 168,73.9 168.1,74.4 C168.2,74.9 167.7,75.4 167.2,75.5 L144.2,77.6 L144.2,77.6 L144.2,77.6 Z"></path>
                        <path d="M143.8,72.2 C143.3,72.2 142.9,71.9 142.8,71.4 C142.7,70.9 143.1,70.3 143.6,70.3 L166.3,66.6 C166.8,66.5 167.4,66.9 167.4,67.4 C167.4,67.9 167.1,68.5 166.6,68.5 L143.9,72.2 L143.8,72.2 L143.8,72.2 Z"></path>
                        <path d="M142.6,67.2 C142.2,67.2 141.8,66.9 141.6,66.5 C141.5,66 141.8,65.4 142.3,65.3 L164.5,59.5 C165,59.4 165.6,59.7 165.7,60.2 C165.8,60.7 165.5,61.3 165,61.4 L142.8,67.2 L142.6,67.2 L142.6,67.2 Z"></path>
                        <path d="M140.9,61.7 C140.5,61.7 140.1,61.5 140,61.1 C139.8,60.6 140.1,60 140.6,59.8 L162.1,51.7 C162.6,51.5 163.2,51.8 163.4,52.3 C163.6,52.8 163.3,53.4 162.8,53.6 L141.3,61.7 L140.9,61.7 L140.9,61.7 Z"></path>
                        <path d="M138.5,56.5 C138.1,56.5 137.8,56.3 137.6,56 C137.3,55.5 137.5,54.9 138,54.7 L158.5,44.3 C159,44 159.6,44.2 159.8,44.7 C160,45.2 159.9,45.8 159.4,46 L139,56.4 C138.8,56.5 138.7,56.5 138.5,56.5 L138.5,56.5 Z"></path>
                        <path d="M135.5,51.4 C135.2,51.4 134.9,51.2 134.7,50.9 C134.4,50.4 134.5,49.8 135,49.5 L154.3,37 C154.8,36.7 155.4,36.8 155.7,37.3 C156,37.8 155.9,38.4 155.4,38.7 L136.1,51.2 C135.9,51.4 135.7,51.4 135.5,51.4 L135.5,51.4 Z"></path>
                        <path d="M132.2,46.8 C131.9,46.8 131.6,46.7 131.4,46.4 C131.1,46 131.1,45.3 131.5,45 L149.4,30.5 C149.8,30.2 150.5,30.2 150.8,30.6 C151.1,31 151.1,31.7 150.7,32 L132.8,46.5 C132.6,46.7 132.4,46.8 132.2,46.8 L132.2,46.8 Z"></path>
                        <path d="M128.3,42.3 C128,42.3 127.8,42.2 127.6,42 C127.2,41.6 127.2,41 127.6,40.6 L144,24.4 C144.4,24 145,24 145.4,24.4 C145.8,24.8 145.8,25.4 145.4,25.8 L129,42 C128.8,42.2 128.6,42.3 128.3,42.3 L128.3,42.3 Z"></path>
                        <path d="M124,38.5 C123.8,38.5 123.6,38.4 123.4,38.3 C123,37.9 122.9,37.3 123.3,36.9 L137.9,19.2 C138.3,18.8 138.9,18.7 139.3,19.1 C139.7,19.5 139.8,20.1 139.4,20.5 L124.8,38.2 C124.6,38.3 124.3,38.5 124,38.5 L124,38.5 Z"></path>
                        <path d="M119.3,35 C119.1,35 118.9,34.9 118.7,34.8 C118.2,34.5 118.1,33.9 118.4,33.4 L131.1,14.3 C131.4,13.8 132,13.7 132.5,14 C133,14.3 133.1,14.9 132.8,15.4 L120.1,34.5 C119.9,34.8 119.6,35 119.3,35 L119.3,35 Z"></path>
                        <path d="M114.3,32 C114.1,32 114,32 113.8,31.9 C113.3,31.6 113.1,31 113.4,30.5 L124.1,10.1 C124.4,9.6 125,9.4 125.4,9.7 C125.9,10 126.1,10.6 125.8,11.1 L115.1,31.5 C115,31.8 114.7,32 114.3,32 L114.3,32 Z"></path>
                        <path d="M109,29.6 C108.9,29.6 108.7,29.6 108.6,29.5 C108.1,29.3 107.8,28.7 108,28.2 L116.6,6.9 C116.8,6.4 117.4,6.1 117.9,6.3 C118.4,6.5 118.7,7.1 118.5,7.6 L109.9,28.9 C109.8,29.3 109.4,29.6 109,29.6 L109,29.6 Z"></path>
                        <path d="M106.3,17.6 L106,17.6 C105.5,17.4 105.2,16.9 105.3,16.4 L108.9,4.3 C109.1,3.8 109.6,3.5 110.1,3.6 C110.6,3.8 110.9,4.3 110.8,4.8 L107.2,16.9 C107.2,17.4 106.8,17.6 106.3,17.6 L106.3,17.6 Z"></path>
                        <path d="M99.7,15.4 L99.5,15.4 C99,15.3 98.6,14.8 98.7,14.2 L101,2.4 C101.1,1.9 101.6,1.5 102.2,1.6 C102.7,1.7 103.1,2.2 103,2.8 L100.7,14.6 C100.6,15 100.2,15.4 99.7,15.4 L99.7,15.4 Z"></path>
                        <path d="M92.7,14.4 L92.7,14.4 C92.1,14.3 91.7,13.9 91.7,13.3 L92.8,1.3 C92.9,0.8 93.3,0.3 93.9,0.4 C94.4,0.5 94.9,0.9 94.8,1.5 L93.7,13.5 C93.7,14 93.3,14.4 92.7,14.4 L92.7,14.4 Z"></path>
                        <path d="M167.6,82.8 L144.6,82.8 C144,82.8 143.6,82.4 143.6,81.8 C143.6,81.2 144,80.8 144.6,80.8 L167.6,80.8 C168.2,80.8 168.6,81.2 168.6,81.8 C168.6,82.4 168.1,82.8 167.6,82.8 L167.6,82.8 Z"></path>
                        <path d="M24.4,77.6 C24.4,77.6 24.3,77.6 24.4,77.6 L1.4,75.5 C0.9,75.5 0.4,75 0.5,74.4 C0.6,73.9 1,73.4 1.6,73.5 L24.5,75.6 C25,75.6 25.5,76.1 25.4,76.7 C25.3,77.2 24.9,77.6 24.4,77.6 L24.4,77.6 Z"></path>
                        <path d="M24.8,72.2 L24.6,72.2 L1.9,68.5 C1.4,68.4 1,67.9 1.1,67.4 C1.2,66.9 1.7,66.5 2.2,66.6 L24.9,70.3 C25.4,70.4 25.8,70.9 25.7,71.4 C25.7,71.9 25.3,72.2 24.8,72.2 L24.8,72.2 Z"></path>
                        <path d="M26,67.2 L25.7,67.2 L3.5,61.4 C3,61.3 2.6,60.7 2.8,60.2 C2.9,59.7 3.5,59.4 4,59.5 L26.2,65.3 C26.7,65.4 27.1,66 26.9,66.5 C26.9,66.9 26.4,67.2 26,67.2 L26,67.2 Z"></path>
                        <path d="M27.7,61.7 C27.6,61.7 27.5,61.7 27.3,61.6 L5.8,53.5 C5.3,53.3 5,52.7 5.2,52.2 C5.4,51.7 6,51.4 6.5,51.6 L28,59.7 C28.5,59.9 28.8,60.5 28.6,61 C28.5,61.5 28.1,61.7 27.7,61.7 L27.7,61.7 Z"></path>
                        <path d="M30.1,56.5 C29.9,56.5 29.8,56.5 29.6,56.4 L9.2,46 C8.7,45.7 8.5,45.1 8.8,44.7 C9.1,44.3 9.7,44 10.1,44.3 L30.6,54.7 C31.1,55 31.3,55.6 31,56 C30.8,56.3 30.5,56.5 30.1,56.5 L30.1,56.5 Z"></path>
                        <path d="M33.1,51.4 C32.9,51.4 32.7,51.3 32.6,51.2 L13.3,38.7 C12.8,38.4 12.7,37.8 13,37.3 C13.3,36.8 13.9,36.7 14.4,37 L33.7,49.5 C34.2,49.8 34.3,50.4 34,50.9 C33.7,51.3 33.4,51.4 33.1,51.4 L33.1,51.4 Z"></path>
                        <path d="M36.4,46.8 C36.2,46.8 36,46.7 35.8,46.6 L17.9,32.1 C17.5,31.8 17.4,31.1 17.8,30.7 C18.1,30.3 18.8,30.2 19.2,30.6 L37.1,45.1 C37.5,45.4 37.6,46.1 37.2,46.5 C37,46.6 36.7,46.8 36.4,46.8 L36.4,46.8 Z"></path>
                        <path d="M40.3,42.3 C40,42.3 39.8,42.2 39.6,42 L23.2,25.8 C22.8,25.4 22.8,24.8 23.2,24.4 C23.6,24 24.2,24 24.6,24.4 L41,40.6 C41.4,41 41.4,41.6 41,42 C40.8,42.2 40.5,42.3 40.3,42.3 L40.3,42.3 Z"></path>
                        <path d="M44.6,38.5 C44.3,38.5 44,38.4 43.8,38.1 L29.2,20.4 C28.8,20 28.9,19.3 29.3,19 C29.7,18.6 30.4,18.7 30.7,19.1 L45.3,36.8 C45.7,37.2 45.6,37.9 45.2,38.2 C45.1,38.4 44.8,38.5 44.6,38.5 L44.6,38.5 Z"></path>
                        <path d="M49.3,35 C49,35 48.7,34.8 48.5,34.6 L35.8,15.5 C35.5,15 35.6,14.4 36.1,14.1 C36.6,13.8 37.2,13.9 37.5,14.4 L50.2,33.5 C50.5,34 50.4,34.6 49.9,34.9 C49.7,34.9 49.5,35 49.3,35 L49.3,35 Z"></path>
                        <path d="M54.3,32 C53.9,32 53.6,31.8 53.4,31.5 L42.7,11.1 C42.4,10.6 42.6,10 43.1,9.7 C43.6,9.4 44.2,9.6 44.5,10.1 L55.2,30.5 C55.5,31 55.3,31.6 54.8,31.9 C54.6,32 54.5,32 54.3,32 L54.3,32 Z"></path>
                        <path d="M59.6,29.6 C59.2,29.6 58.8,29.4 58.7,29 L50.1,7.7 C49.9,7.2 50.1,6.6 50.7,6.4 C51.2,6.2 51.8,6.4 52,7 L60.6,28.3 C60.8,28.8 60.6,29.4 60,29.6 C59.9,29.5 59.7,29.6 59.6,29.6 L59.6,29.6 Z"></path>
                        <path d="M62.3,17.6 C61.9,17.6 61.5,17.3 61.3,16.9 L57.7,4.8 C57.5,4.3 57.8,3.7 58.4,3.6 C58.9,3.4 59.5,3.7 59.6,4.3 L63.2,16.4 C63.4,16.9 63.1,17.5 62.5,17.6 L62.3,17.6 L62.3,17.6 Z"></path>
                        <path d="M68.9,15.4 C68.4,15.4 68,15.1 67.9,14.6 L65.6,2.8 C65.5,2.3 65.9,1.7 66.4,1.6 C66.9,1.5 67.5,1.9 67.6,2.4 L69.9,14.2 C70,14.7 69.6,15.3 69.1,15.4 L68.9,15.4 L68.9,15.4 Z"></path>
                        <path d="M75.9,14.4 C75.4,14.4 75,14 74.9,13.5 L73.8,1.5 C73.7,1 74.2,0.5 74.7,0.4 C75.3,0.3 75.7,0.8 75.8,1.3 L76.9,13.3 C76.9,13.8 76.5,14.3 75.9,14.4 L75.9,14.4 L75.9,14.4 Z"></path>
                        <path d="M24,82.8 L1,82.8 C0.4,82.8 0,82.4 0,81.8 C0,81.2 0.4,80.8 1,80.8 L24,80.8 C24.6,80.8 25,81.2 25,81.8 C25,82.4 24.6,82.8 24,82.8 L24,82.8 Z"></path>
                    </g>
                    <path d="M131.1,24.3 L89.8,0.5 C89.7,0.4 89.7,0.4 89.6,0.4 L89.6,0.4 L89.5,0.4 L89.4,0.4 L89.2,0.4 C89.2,0.4 89.2,0.4 89.1,0.4 L89,0.4 L88.8,0.4 L88.8,0.4 C88.7,0.4 88.7,0.5 88.6,0.5 L88.6,0.5 L48,23.9 C47.5,24.2 47.3,24.8 47.6,25.3 C47.9,25.8 48.5,26 49,25.7 L85.1,4.9 L70,24.4 C69.7,24.8 69.7,25.5 70.2,25.8 C70.6,26.1 71.3,26.1 71.6,25.6 L88.3,4.2 L88.3,25.1 C88.3,25.6 88.7,26.1 89.3,26.1 C89.9,26.1 90.3,25.7 90.3,25.1 L90.3,4.2 L107,25.6 C107.2,25.9 107.5,26 107.8,26 C108,26 108.2,25.9 108.4,25.8 C108.8,25.5 108.9,24.8 108.6,24.4 L93.3,4.8 L130.1,26 C130.3,26.1 130.4,26.1 130.6,26.1 C130.9,26.1 131.3,25.9 131.5,25.6 C131.7,25.2 131.6,24.5 131.1,24.3 L131.1,24.3 Z" id="Shape"></path>
                    <g transform="translate(38.000000, 31.000000)" id="Shape">
                        <path d="M102.1,18.3 L0.7,18.3 L0.7,0.1 L102.1,0.1 L102.1,18.3 L102.1,18.3 Z M2.7,16.3 L100.1,16.3 L100.1,2.1 L2.7,2.1 L2.7,16.3 L2.7,16.3 Z"></path>
                        <g transform="translate(16.000000, 5.000000)">
                            <path d="M1.6,8 C2,8 2.3,7.7 2.3,7.2 L2.3,3.3 L5.2,7.4 C5.4,7.7 5.6,7.9 5.9,7.9 L5.9,7.9 C6.3,7.9 6.6,7.6 6.6,7.1 L6.6,1.4 C6.6,1 6.3,0.6 5.9,0.6 C5.5,0.6 5.2,0.9 5.2,1.4 L5.2,5.1 L2.4,1.1 C2.2,0.8 2,0.6 1.7,0.6 L1.6,0.6 C1.2,0.6 0.9,0.9 0.9,1.4 L0.9,7.1 C0.9,7.7 1.2,8 1.6,8 L1.6,8 Z"></path>
                            <path d="M11.5,8.1 C13.5,8.1 15,6.4 15,4.4 L15,4.4 C15,2.3 13.6,0.7 11.5,0.7 C9.5,0.7 8,2.4 8,4.4 L8,4.4 C8,6.4 9.5,8.1 11.5,8.1 L11.5,8.1 Z M9.6,4.4 C9.6,3.1 10.4,2.2 11.6,2.2 C12.7,2.2 13.6,3.2 13.6,4.5 L13.6,4.5 C13.6,5.8 12.8,6.7 11.6,6.7 C10.4,6.6 9.6,5.6 9.6,4.4 L9.6,4.4 L9.6,4.4 Z"></path>
                            <path d="M17.1,8 L18.9,8 C21,8 22.4,6.4 22.4,4.4 L22.4,4.4 C22.4,2.4 21,0.8 18.9,0.8 L17.1,0.8 C16.7,0.8 16.4,1.1 16.4,1.6 L16.4,7.1 C16.4,7.6 16.7,8 17.1,8 L17.1,8 Z M17.8,2.2 L18.9,2.2 C20.1,2.2 20.9,3.1 20.9,4.4 L20.9,4.4 C20.9,5.7 20.1,6.6 18.9,6.6 L17.8,6.6 L17.8,2.2 L17.8,2.2 Z"></path>
                            <path d="M24.4,8 L28.1,8 C28.4,8 28.7,7.7 28.7,7.3 C28.7,6.9 28.4,6.6 28.1,6.6 L25.1,6.6 L25.1,5 L27.6,5 C27.9,5 28.2,4.7 28.2,4.3 C28.2,3.9 27.9,3.6 27.6,3.6 L25.1,3.6 L25.1,2.1 L28,2.1 C28.3,2.1 28.6,1.8 28.6,1.4 C28.6,1 28.3,0.7 28,0.7 L24.4,0.7 C24,0.7 23.7,1 23.7,1.5 L23.7,7.1 C23.7,7.6 24,8 24.4,8 L24.4,8 Z"></path>
                            <path d="M29.9,7.2 C30.6,7.8 31.5,8.1 32.4,8.1 C33.8,8.1 34.8,7.3 34.8,5.9 L34.8,5.9 C34.8,4.6 34.1,4.1 32.7,3.7 C31.6,3.4 31.3,3.2 31.3,2.8 L31.3,2.8 C31.3,2.5 31.6,2.1 32.1,2.1 C32.5,2.1 33,2.3 33.5,2.6 C33.6,2.7 33.7,2.7 33.8,2.7 C34.2,2.7 34.5,2.4 34.5,2 C34.5,1.7 34.4,1.5 34.2,1.3 C33.6,0.9 32.9,0.6 32.1,0.6 C30.8,0.6 29.8,1.5 29.8,2.8 L29.8,2.8 C29.8,4.2 30.6,4.6 32,5 C33.1,5.3 33.3,5.5 33.3,5.9 L33.3,5.9 C33.3,6.3 33,6.6 32.4,6.6 C31.8,6.6 31.2,6.3 30.7,5.9 C30.6,5.8 30.5,5.7 30.3,5.7 C29.9,5.7 29.6,6 29.6,6.4 C29.6,6.9 29.8,7.1 29.9,7.2 L29.9,7.2 Z"></path>
                            <path d="M39.1,8.1 C40.1,8.1 40.8,7.8 41.4,7.2 C41.5,7.1 41.6,6.9 41.6,6.7 C41.6,6.3 41.3,6 40.9,6 C40.8,6 40.6,6.1 40.5,6.2 C40.1,6.6 39.7,6.7 39.1,6.7 C38,6.7 37.2,5.7 37.2,4.4 L37.2,4.4 C37.2,3.1 38,2.2 39.1,2.2 C39.6,2.2 40,2.4 40.4,2.7 C40.5,2.8 40.6,2.9 40.8,2.9 C41.2,2.9 41.5,2.6 41.5,2.1 C41.5,1.8 41.4,1.6 41.2,1.4 C40.7,1 40,0.7 39,0.7 C37,0.7 35.6,2.4 35.6,4.4 L35.6,4.4 C35.8,6.4 37.3,8.1 39.1,8.1 L39.1,8.1 Z"></path>
                            <path d="M43.8,8 C44.2,8 44.5,7.7 44.5,7.2 L44.5,5 L47.2,5 L47.2,7.2 C47.2,7.6 47.5,8 47.9,8 C48.3,8 48.6,7.7 48.6,7.2 L48.6,1.5 C48.6,1.1 48.3,0.7 47.9,0.7 C47.5,0.7 47.2,1 47.2,1.5 L47.2,3.6 L44.5,3.6 L44.5,1.5 C44.5,1.1 44.2,0.7 43.8,0.7 C43.4,0.7 43.1,1 43.1,1.5 L43.1,7.2 C43,7.7 43.3,8 43.8,8 L43.8,8 Z"></path>
                            <path d="M53.4,8.1 C55.4,8.1 56.9,6.4 56.9,4.4 L56.9,4.4 C56.9,2.3 55.5,0.7 53.4,0.7 C51.4,0.7 49.9,2.4 49.9,4.4 L49.9,4.4 C49.9,6.4 51.4,8.1 53.4,8.1 L53.4,8.1 Z M51.4,4.4 C51.4,3.1 52.2,2.2 53.4,2.2 C54.5,2.2 55.4,3.2 55.4,4.5 L55.4,4.5 C55.4,5.8 54.6,6.7 53.4,6.7 C52.3,6.6 51.4,5.6 51.4,4.4 L51.4,4.4 L51.4,4.4 Z"></path>
                            <path d="M61.4,8.1 C63.4,8.1 64.9,6.4 64.9,4.4 L64.9,4.4 C64.9,2.3 63.5,0.7 61.4,0.7 C59.4,0.7 57.9,2.4 57.9,4.4 L57.9,4.4 C57.9,6.4 59.4,8.1 61.4,8.1 L61.4,8.1 Z M59.4,4.4 C59.4,3.1 60.2,2.2 61.4,2.2 C62.5,2.2 63.4,3.2 63.4,4.5 L63.4,4.5 C63.4,5.8 62.6,6.7 61.4,6.7 C60.3,6.6 59.4,5.6 59.4,4.4 L59.4,4.4 L59.4,4.4 Z"></path>
                            <path d="M67,8 L70.4,8 C70.7,8 71,7.7 71,7.3 C71,6.9 70.7,6.6 70.4,6.6 L67.7,6.6 L67.7,1.6 C67.7,1.2 67.4,0.8 67,0.8 C66.6,0.8 66.3,1.1 66.3,1.6 L66.3,7.2 C66.2,7.6 66.6,8 67,8 L67,8 Z"></path>
                        </g>
                    </g>
                    <g transform="translate(43.000000, 166.000000)">
                        <path d="M87.8,12.1 C87.5,11.6 86.9,11.4 86.4,11.7 L50.4,32.5 L65.7,12.9 C66,12.5 66,11.8 65.5,11.5 C65.1,11.2 64.4,11.2 64.1,11.7 L47.4,33.1 L47.4,12.2 C47.4,11.7 47,11.2 46.4,11.2 C45.8,11.2 45.4,11.6 45.4,12.2 L45.4,33.1 L28.7,11.7 C28.4,11.3 27.7,11.2 27.3,11.5 C26.9,11.8 26.8,12.5 27.1,12.9 L42.4,32.5 L5.6,11.3 C5.1,11 4.5,11.2 4.2,11.7 C3.9,12.2 4.1,12.8 4.6,13.1 L45.9,36.9 L46,36.9 C46.1,36.9 46.1,37 46.1,37 L46.2,37 L46.3,37 L46.4,37 C46.5,37 46.6,37.1 46.6,37.1 L46.6,37.1 C46.7,37.1 46.8,37.1 46.8,37 L46.9,37 L47,37 C47.1,37 47.1,36.9 47.1,36.9 L47.2,36.9 L87.8,13.5 C87.9,13.2 88.1,12.6 87.8,12.1 L87.8,12.1 Z" id="Shape"></path>
                        <circle id="Oval" cx="90.5" cy="10.2" r="1.3"></circle>
                        <circle id="Oval" cx="1.6" cy="10.2" r="1.3"></circle>
                        <g transform="translate(19.000000, 0.000000)" id="Shape">
                            <path d="M24.1,3.4 L24.1,3.4 C24.1,1.7 25.5,0.2 27.4,0.2 C29.3,0.2 30.6,1.6 30.6,3.4 L30.6,3.4 C30.6,5.1 29.2,6.6 27.3,6.6 C25.5,6.5 24.1,5.1 24.1,3.4 L24.1,3.4 Z M29.1,3.4 L29.1,3.4 C29.1,2.3 28.3,1.4 27.3,1.4 C26.3,1.4 25.5,2.3 25.5,3.3 L25.5,3.3 C25.5,4.3 26.3,5.2 27.3,5.2 C28.4,5.3 29.1,4.4 29.1,3.4 L29.1,3.4 Z"></path>
                            <path d="M50,3.5 C50.2,3.2 50.6,3.1 50.9,3.3 L52.6,4.5 C53.2,4.9 53.6,5.5 53.7,6 C53.8,6.5 53.7,7 53.3,7.5 L53.3,7.5 C52.7,8.3 52,8.5 51.3,8.3 L51.4,9.8 C51.4,10 51.4,10.2 51.3,10.3 C51.1,10.6 50.7,10.6 50.4,10.4 C50.1,10.2 50.1,10 50.1,9.8 L50,7.7 L49.1,7.1 L48.4,8.2 C48.2,8.5 47.8,8.6 47.5,8.4 C47.2,8.2 47.1,7.8 47.3,7.5 L50,3.5 L50,3.5 Z M50.9,6.9 C51.4,7.3 51.9,7.2 52.2,6.8 L52.2,6.8 C52.5,6.3 52.4,5.9 51.9,5.5 L50.8,4.8 L49.8,6.2 L50.9,6.9 L50.9,6.9 Z"></path>
                            <path d="M2.7,6 L1.7,6.8 C1.5,7 1.1,7 0.9,6.7 C0.7,6.5 0.7,6.1 1,5.9 L4,3.4 C4.2,3.2 4.6,3.2 4.8,3.5 C5,3.8 5,4.1 4.7,4.3 L3.7,5.1 L6.4,8.3 C6.6,8.6 6.6,9 6.3,9.2 C6,9.4 5.6,9.4 5.4,9.1 L2.7,6 L2.7,6 Z"></path>
                        </g>
                    </g>
                </g>
            </g>
        </g>
    </g>
</svg>