<?xml version="1.0" encoding="UTF-8" standalone="no"?>
<svg
   xmlns:sketch="http://www.bohemiancoding.com/sketch/ns"
   xmlns:dc="http://purl.org/dc/elements/1.1/"
   xmlns:cc="http://creativecommons.org/ns#"
   xmlns:rdf="http://www.w3.org/1999/02/22-rdf-syntax-ns#"
   xmlns:svg="http://www.w3.org/2000/svg"
   xmlns="http://www.w3.org/2000/svg"
   xmlns:sodipodi="http://sodipodi.sourceforge.net/DTD/sodipodi-0.dtd"
   xmlns:inkscape="http://www.inkscape.org/namespaces/inkscape"
   width="393"
   height="448"
   viewBox="0 0 393 448"
   id="svg2"
   version="1.1"
   inkscape:version="0.91 r13725"
   sodipodi:docname="nodeschool_spb.svg">
  <metadata
     id="metadata58">
    <rdf:RDF>
      <cc:Work
         rdf:about="">
        <dc:format>image/svg+xml</dc:format>
        <dc:type
           rdf:resource="http://purl.org/dc/dcmitype/StillImage" />
        <dc:title>nodeschool spb</dc:title>
      </cc:Work>
    </rdf:RDF>
  </metadata>
  <sodipodi:namedview
     pagecolor="#ffffff"
     bordercolor="#666666"
     borderopacity="1"
     objecttolerance="10"
     gridtolerance="10"
     guidetolerance="10"
     inkscape:pageopacity="0"
     inkscape:pageshadow="2"
     inkscape:window-width="1317"
     inkscape:window-height="744"
     id="namedview56"
     showgrid="false"
     inkscape:zoom="1.0535714"
     inkscape:cx="122.80877"
     inkscape:cy="175.58141"
     inkscape:window-x="49"
     inkscape:window-y="24"
     inkscape:window-maximized="1"
     inkscape:current-layer="svg2" />
  <title
     id="title4">nodeschool spb</title>
  <desc
     id="desc6">Created with Sketch.</desc>
  <defs
     id="defs8">
    <linearGradient
       x1="202.54237"
       y1="-6.5497232"
       x2="202.54237"
       y2="412.38576"
       id="a"
       gradientTransform="matrix(0.93511297,0,0,1.0693895,7,7)"
       gradientUnits="userSpaceOnUse">
      <stop
         stop-color="#96EEFF"
         offset="0%"
         id="stop11"
         style="stop-color:#4bc2ff;stop-opacity:1" />
      <stop
         stop-color="#FFBE8B"
         offset="100%"
         id="stop13"
         style="stop-color:#ffbfad;stop-opacity:1" />
    </linearGradient>
  </defs>
  <path
     inkscape:connector-curvature="0"
     style="fill:url(#a);stroke:#143269;stroke-width:14;stroke-opacity:1"
     id="path17"
     sketch:type="MSShapeGroup"
     d="M 381.937,113.021 199.737,7.883 c -2.062,-1.178 -4.614,-1.178 -6.675,0 l -182.2,105.138 c -2.062,1.178 -3.338,3.436 -3.338,5.792 l 0,210.374 c 0,2.356 1.276,4.614 3.338,5.792 l 182.2,105.138 c 1.08,0.589 2.16,0.884 3.338,0.884 1.178,0 2.356,-0.295 3.338,-0.884 l 182.2,-105.138 c 2.062,-1.178 3.338,-3.436 3.338,-5.792 l 0,-210.374 c 0,-2.356 -1.276,-4.614 -3.338,-5.792 z" />
  <path
     style="fill:#143269;fill-opacity:1"
     inkscape:connector-curvature="0"
     id="path19"
     sketch:type="MSShapeGroup"
     d="m 220.727,87.537 c 0,0 0.857,4.569 -5.997,9.209 -6.139,4.14 -9.352,8.995 -10.423,15.705 -0.357,2.499 -0.785,3.07 -2.356,3.427 -0.999,0.214 -2.284,0.5 -2.713,0.642 -1.214,0.428 -0.357,-5.997 0.928,-7.567 0.571,-0.571 0.999,-1.999 0.999,-3.07 0,-1.642 0.214,-1.856 1.428,-1.499 2.499,0.785 1.927,-3.926 -0.928,-7.638 -2.784,-3.712 -6.925,-9.78 -6.925,-10.28 0,-0.143 0.642,-0.286 1.428,-0.286 2.284,0 0.5,-2.641 -2.713,-3.998 -1.428,-0.571 -4.212,-2.142 -6.211,-3.498 -2.927,-2.07 -4.497,-2.57 -8.781,-2.927 l -5.14,-0.5 -2.213,-3.569 c -2.427,-3.926 -2.927,-3.784 -3.855,1.285 -0.571,3.141 -1.285,3.926 -3.784,3.926 -0.857,0 -5.211,2.07 -9.637,4.569 -4.426,2.57 -10.78,5.782 -14.135,7.21 l -6.211,2.57 -0.428,3.141 c -0.286,1.713 -0.286,4.283 -0.071,5.64 0.428,2.213 1.071,2.784 5.069,4.854 l 4.569,2.356 4.283,-2.356 c 5.069,-2.784 7.71,-2.856 14.849,-0.428 0.999,0.286 0.428,1.428 -6.568,13.492 -1.785,3.141 -3.784,7.139 -4.426,8.923 -0.642,1.785 -2.998,7.067 -5.354,11.779 -2.284,4.712 -4.497,10.28 -4.997,12.421 l -0.785,3.784 -7.995,-0.5 c -7.353,-0.428 -8.067,-0.357 -9.851,0.999 -1.142,0.928 -2.927,1.499 -4.497,1.499 -3.498,0 -4.926,0.857 -10.351,6.139 -2.57,2.499 -6.853,6.068 -9.637,7.924 -4.64,3.212 -4.997,3.641 -5.497,6.639 -0.214,1.785 -0.5,4.997 -0.5,7.21 -0.071,3.498 0.214,4.355 2.499,7.282 3.569,4.569 4.14,4.569 5.997,0.357 1.785,-4.069 1.571,-6.639 -0.714,-9.851 -1.428,-1.999 -1.428,-2.07 0,-2.499 0.785,-0.214 3.427,-2.713 5.854,-5.497 4.14,-4.64 7.139,-6.782 11.136,-7.995 1.356,-0.428 1.571,-0.286 1.571,1.285 0,0.999 -0.928,4.426 -2.142,7.71 -1.142,3.212 -2.142,6.925 -2.142,8.138 0,2.856 2.998,11.279 4.64,13.064 1.499,1.785 9.28,5.854 9.923,5.283 0.214,-0.214 0.428,-2.07 0.428,-4.069 0,-4.569 -1.999,-7.995 -5.354,-9.423 -2.356,-0.999 -2.427,-1.142 -1.499,-2.641 0.571,-0.857 1.214,-4.14 1.499,-7.282 0.357,-4.997 1.499,-10.351 2.07,-10.351 0.642,0 15.919,5.925 17.633,6.853 1.142,0.571 3.212,1.785 4.569,2.784 1.428,0.928 4.283,2.07 6.425,2.499 3.712,0.785 3.855,0.857 3.212,2.57 -2.213,5.854 -7.353,9.138 -15.206,9.923 -4.426,0.5 -4.854,0.642 -4.64,1.999 0.286,1.927 2.998,3.355 6.639,3.355 1.571,0 4.712,0.5 6.996,1.071 l 4.14,0.928 1.142,-2.57 c 0.571,-1.428 1.499,-3.641 1.999,-4.854 0.571,-1.285 1.999,-3.427 3.212,-4.854 3.498,-3.998 5.425,-3.569 11.636,2.284 6.996,6.639 9.851,8.138 21.916,11.565 5.711,1.642 10.637,3.141 10.922,3.355 0.357,0.214 0,1.071 -0.785,1.927 -2.07,2.284 -2.284,3.498 -1.214,8.495 1.285,6.211 6.853,16.99 10.994,21.488 4.283,4.569 5.283,6.425 4.712,8.923 -0.5,2.213 -3.498,5.354 -5.711,6.068 -0.785,0.214 -4.283,-0.428 -7.853,-1.428 -8.352,-2.284 -24.771,-2.998 -73.029,-3.212 l -35.194,-0.143 -1.642,1.571 c -1.785,1.642 -3.284,6.282 -3.284,9.851 0,1.071 0.642,4.497 1.428,7.638 0.714,3.07 1.571,8.067 1.856,11.208 l 0.5,5.568 3.998,1.142 c 5.497,1.571 13.421,6.425 15.134,9.138 1.571,2.57 1.713,5.925 0.5,8.852 -1.428,3.355 0,10.205 -19.632,17.892 C 76.808,327.849 20.186,332.3 20.186,332.3 l 354.285,-1 c 0,0 -35.564,-5.466 -47.092,-13.897 -11.528,-8.431 -6.782,-10.066 -12.207,-13.921 -3.212,-2.356 -7.424,-5.854 -9.423,-7.781 l -9.209,-12.564 9.637,8.638 c 2.427,-0.214 4.64,-0.857 5.425,-1.642 0.785,-0.642 2.356,-1.214 3.569,-1.214 1.713,0 2.356,-0.428 3.07,-2.142 0.928,-2.213 4.653,-4.961 4.796,-5.461 0.214,-0.5 -8.086,-4.937 -13.154,-10.149 -5.14,-5.283 -6.283,-10.569 -7.876,-13.891 -1.594,-3.322 -4.987,-8.775 -7.622,-23.195 -2.635,-14.42 -4.506,-22.152 -8.197,-30.328 -3.691,-8.176 -6.996,-9.637 -11.85,-12.778 -2.284,-1.428 -3.998,-3.855 -8.352,-11.351 -6.639,-11.636 -9.423,-14.991 -14.492,-17.49 -2.213,-0.999 -4.712,-2.784 -5.64,-3.926 -2.213,-2.57 -4.497,-8.709 -5.925,-15.42 -0.999,-5.069 -0.999,-5.283 0.571,-8.495 1.428,-2.998 1.499,-3.998 1.142,-10.637 -0.571,-9.209 -2.356,-21.131 -3.784,-25.414 -0.571,-1.785 -1.856,-4.069 -2.784,-4.926 -1.927,-1.785 -2.356,-2.998 -0.857,-2.499 2.356,0.928 3.998,-3.212 4.069,-10.208 0,-4.854 -1.642,-8.352 -4.926,-10.494 -4.069,-2.713 -5.854,-2.784 -8.067,-0.428 -3.855,4.069 -4.569,17.847 -4.569,17.847 z m 60.037,148.415 c 2.356,13.635 3.855,18.775 9.423,32.838 2.499,6.425 4.426,11.85 4.212,12.136 -0.214,0.214 -2.213,-0.857 -4.355,-2.427 -8.352,-5.925 -15.277,-8.709 -37.978,-15.277 -2.856,-0.785 -5.211,-1.713 -5.211,-1.999 0,-1.142 4.497,-7.567 7.781,-11.136 9.28,-10.066 10.208,-11.993 6.71,-14.92 -5.211,-4.212 -8.352,-8.424 -9.78,-13.135 -0.428,-1.356 -0.071,-1.642 3.641,-2.713 5.497,-1.571 8.995,-3.926 12.064,-8.21 1.428,-1.999 2.784,-3.569 3.07,-3.569 0.214,0 3.941,-3.83 7.336,5.425 3.395,9.255 1.159,11.779 3.086,22.987 z m -46.116,-6.353 c 0.428,0.714 2.856,2.427 5.497,3.712 5.711,2.856 7.424,4.854 7.424,8.638 0,3.498 -1.856,7.139 -6.353,12.564 l -3.569,4.283 -3.712,-0.714 c -2.07,-0.357 -4.783,-1.071 -5.997,-1.571 l -2.142,-0.928 4.426,-2.213 c 2.427,-1.285 4.783,-2.927 5.211,-3.784 0.857,-1.499 0.928,-1.285 -4.355,-11.351 -0.714,-1.356 -1.571,-4.212 -1.927,-6.282 l -0.642,-3.712 2.713,0 c 1.927,0 2.927,0.357 3.427,1.356 z" />
  <path
     style="fill:#143269;fill-opacity:1"
     inkscape:connector-curvature="0"
     id="path21"
     sketch:type="MSShapeGroup"
     d="M 14.344239,331.33865 380.32691,330.3 196.72322,438.52691 14.344239,331.33865 Z" />
  <circle
     style="fill:#ffffff"
     id="circle23"
     r="2.3"
     cy="364.20001"
     cx="277.70001"
     sketch:type="MSShapeGroup" />
  <circle
     style="fill:#ffffff"
     id="circle25"
     r="2.3"
     cy="364.20001"
     cx="114.2"
     sketch:type="MSShapeGroup" />
  <path
     style="fill:#ffffff"
     inkscape:connector-curvature="0"
     id="path27"
     sketch:type="MSShapeGroup"
     d="m 272.7,367.7 c -0.5,-0.9 -1.7,-1.2 -2.5,-0.7 l -66.3,38.3 28.2,-36 c 0.6,-0.8 0.5,-2 -0.3,-2.6 -0.8,-0.6 -2,-0.5 -2.6,0.3 l -30.8,39.3 0,-38.4 c 0,-1 -0.8,-1.9 -1.9,-1.9 -1.1,0 -1.9,0.8 -1.9,1.9 l 0,38.4 -30.8,-39.3 c -0.6,-0.8 -1.8,-0.9 -2.6,-0.3 -0.8,0.6 -0.9,1.8 -0.3,2.6 l 28.2,36 -67.6,-39 c -0.9,-0.5 -2,-0.2 -2.5,0.7 -0.5,0.9 -0.2,2 0.7,2.5 l 75.9,43.8 0.1,0 0.2,0.1 0.3,0 0.4,0.1 c 0.2,0 0.3,0 0.4,-0.1 l 0.2,0 0.2,-0.1 0.1,0 74.7,-43.1 c 0.7,-0.4 1,-1.6 0.5,-2.5 z" />
  <g
     style="fill:#ffffff"
     id="g29"
     sketch:type="MSShapeGroup"
     transform="translate(-7,-13)">
    <path
       inkscape:connector-curvature="0"
       id="path31"
       d="m 264.6,301 6.8,0 c 0.7,0 1.3,-0.6 1.3,-1.3 0,-0.7 -0.6,-1.3 -1.3,-1.3 l -5.4,0 0,-9.2 c 0,-0.8 -0.6,-1.5 -1.5,-1.5 -0.8,0 -1.5,0.6 -1.5,1.5 l 0,10.3 c 0.1,0.9 0.8,1.5 1.6,1.5 z" />
    <path
       inkscape:connector-curvature="0"
       id="o"
       d="m 253.5,301.2 c 4.1,0 7.1,-3.1 7.1,-6.8 0,-3.8 -2.9,-6.8 -7,-6.8 -4.1,0 -7.1,3.1 -7.1,6.8 0,3.8 2.9,6.8 7,6.8 z m -4,-6.8 c 0,-2.3 1.6,-4.1 4,-4.1 2.3,0 4,1.9 4,4.2 0,2.3 -1.6,4.1 -4,4.1 -2.3,-0.1 -4,-1.9 -4,-4.2 z m -12.1,6.8 c 4.1,0 7,-3.1 7,-6.8 0,-3.8 -2.9,-6.8 -7,-6.8 -4.1,0 -7.1,3.1 -7.1,6.8 0.1,3.8 3,6.8 7.1,6.8 z m -4,-6.8 c 0,-2.3 1.6,-4.1 4,-4.1 2.3,0 4,1.9 4,4.2 0,2.3 -1.6,4.1 -4,4.1 -2.3,-0.1 -4,-1.9 -4,-4.2 z" />
    <path
       inkscape:connector-curvature="0"
       id="path34"
       d="m 218.1,301.1 c 0.8,0 1.5,-0.6 1.5,-1.5 l 0,-4 5.4,0 0,4 c 0,0.8 0.6,1.5 1.5,1.5 0.8,0 1.5,-0.6 1.5,-1.5 l 0,-10.5 c 0,-0.8 -0.6,-1.5 -1.5,-1.5 -0.8,0 -1.5,0.6 -1.5,1.5 l 0,3.9 -5.4,0 0,-3.9 c 0,-0.8 -0.6,-1.5 -1.5,-1.5 -0.8,0 -1.5,0.6 -1.5,1.5 l 0,10.5 c 0,0.9 0.6,1.5 1.5,1.5 z" />
    <path
       inkscape:connector-curvature="0"
       id="path36"
       d="m 208.8,301.2 c 2.1,0 3.5,-0.6 4.7,-1.7 0.3,-0.2 0.5,-0.6 0.5,-1 0,-0.7 -0.6,-1.3 -1.4,-1.3 -0.3,0 -0.6,0.1 -0.9,0.3 -0.8,0.7 -1.6,1 -2.9,1 -2.3,0 -3.8,-1.9 -3.8,-4.2 0,-2.3 1.6,-4.1 3.8,-4.1 1,0 1.9,0.3 2.7,0.9 0.2,0.1 0.5,0.3 0.9,0.3 0.8,0 1.4,-0.6 1.4,-1.4 0,-0.5 -0.3,-0.9 -0.6,-1.2 -1.1,-0.8 -2.4,-1.3 -4.4,-1.3 -4.1,0 -6.9,3.1 -6.9,6.8 0.2,3.9 3.1,6.9 6.9,6.9 z" />
    <path
       inkscape:connector-curvature="0"
       id="path38"
       d="m 190.3,299.6 c 1.5,1.1 3.2,1.6 5,1.6 2.9,0 4.9,-1.5 4.9,-4.1 0,-2.3 -1.5,-3.3 -4.2,-4 -2.3,-0.6 -2.9,-0.9 -2.9,-1.7 0,-0.6 0.6,-1.2 1.7,-1.2 0.9,0 1.8,0.3 2.8,0.9 0.2,0.1 0.5,0.2 0.7,0.2 0.8,0 1.4,-0.6 1.4,-1.3 0,-0.6 -0.3,-1 -0.6,-1.2 -1.2,-0.8 -2.6,-1.2 -4.2,-1.2 -2.7,0 -4.6,1.6 -4.6,4 0,2.6 1.7,3.4 4.4,4 2.2,0.6 2.7,0.9 2.7,1.7 0,0.8 -0.7,1.2 -1.9,1.2 -1.3,0 -2.4,-0.5 -3.4,-1.2 -0.2,-0.1 -0.5,-0.3 -0.8,-0.3 -0.8,0 -1.4,0.6 -1.4,1.3 -0.2,0.7 0.1,1.1 0.4,1.3 z" />
    <path
       inkscape:connector-curvature="0"
       id="path40"
       d="m 179.3,301 7.4,0 c 0.7,0 1.3,-0.6 1.3,-1.3 0,-0.7 -0.6,-1.3 -1.3,-1.3 l -6,0 0,-2.8 5,0 c 0.7,0 1.3,-0.6 1.3,-1.3 0,-0.7 -0.6,-1.3 -1.3,-1.3 l -5,0 0,-2.7 5.9,0 c 0.7,0 1.3,-0.6 1.3,-1.3 0,-0.7 -0.6,-1.3 -1.3,-1.3 l -7.3,0 c -0.8,0 -1.5,0.6 -1.5,1.5 l 0,10.3 c 0.1,0.9 0.7,1.5 1.5,1.5 z" />
    <path
       inkscape:connector-curvature="0"
       id="path42"
       d="m 164.5,301 3.7,0 c 4.2,0 7,-2.9 7,-6.6 0,-3.7 -2.9,-6.6 -7,-6.6 l -3.7,0 c -0.8,0 -1.5,0.6 -1.5,1.5 l 0,10.2 c 0.1,0.9 0.7,1.5 1.5,1.5 z m 1.5,-10.6 2.2,0 c 2.4,0 4,1.6 4,4 0,2.3 -1.6,4 -4,4 l -2.2,0 0,-8 z" />
    <path
       inkscape:connector-curvature="0"
       id="path44"
       d="m 153.4,301.2 c 4.1,0 7.1,-3.1 7.1,-6.8 0,-3.8 -2.9,-6.8 -7,-6.8 -4.1,0 -7.1,3.1 -7.1,6.8 0,3.8 2.9,6.8 7,6.8 z m -3.9,-6.8 c 0,-2.3 1.6,-4.1 4,-4.1 2.3,0 4,1.9 4,4.2 0,2.3 -1.6,4.1 -4,4.1 -2.4,-0.1 -4,-1.9 -4,-4.2 z" />
    <path
       inkscape:connector-curvature="0"
       id="path46"
       d="m 133.5,301.1 c 0.8,0 1.4,-0.6 1.4,-1.4 l 0,-7.1 5.8,7.6 c 0.4,0.5 0.8,0.9 1.5,0.9 l 0.1,0 c 0.8,0 1.5,-0.6 1.5,-1.5 l 0,-10.5 c 0,-0.8 -0.6,-1.4 -1.4,-1.4 -0.8,0 -1.4,0.6 -1.4,1.4 l 0,6.8 -5.6,-7.4 c -0.4,-0.5 -0.8,-0.9 -1.5,-0.9 l -0.3,0 c -0.8,0 -1.5,0.6 -1.5,1.5 l 0,10.5 c 0,0.9 0.6,1.5 1.4,1.5 z" />
  </g>
  <g
     style="fill:#ffffff"
     id="g48"
     sketch:type="MSShapeGroup"
     transform="translate(7,7)">
    <path
       inkscape:connector-curvature="0"
       id="path50"
       d="m 186,340.8 c 0,-0.7 0.5,-1.2 1.2,-1.2 l 3.3,0 c 2.7,0 4.3,1.6 4.3,3.9 0,2.6 -2,3.9 -4.5,3.9 l -1.9,0 0,2.2 c 0,0.7 -0.5,1.2 -1.2,1.2 -0.7,0 -1.2,-0.5 -1.2,-1.2 l 0,-8.8 z m 4.4,4.4 c 1.2,0 2,-0.7 2,-1.7 0,-1.1 -0.8,-1.7 -2,-1.7 l -1.9,0 0,3.4 1.9,0 z" />
    <path
       inkscape:connector-curvature="0"
       id="path52"
       d="m 230.525,345.533 c 0.3,-0.6 1.1,-0.8 1.7,-0.5 l 3.4,2 c 1.1,0.6 1.8,1.4 2,2.3 0.2,0.7 0.1,1.4 -0.3,2 -0.6,1.1 -1.6,1.4 -2.5,1.4 0.9,1.1 1.2,2.1 0.4,3.4 -1,1.8 -3,1.8 -5.2,0.6 l -3.5,-2 c -0.6,-0.3 -0.8,-1.1 -0.5,-1.7 l 4.5,-7.5 z m 2.4,5.2 c 0.9,0.5 1.7,0.6 2.1,-0.1 0.4,-0.6 0.1,-1.3 -0.8,-1.8 l -2.1,-1.2 -1.2,2.1 2,1 z m -1.7,4.2 c 0.9,0.5 1.7,0.5 2.1,-0.2 0.4,-0.7 0.1,-1.3 -1,-2 l -2.5,-1.4 -1.2,2.1 2.6,1.5 z" />
    <path
       inkscape:connector-curvature="0"
       id="path54"
       d="m 146.508,357.545 c -0.3,0 -0.7,-0.2 -0.9,-0.6 -0.3,-0.6 -0.1,-1.2 0.4,-1.6 0.3,-0.2 0.5,-0.2 0.7,-0.2 1,0.1 2,0 3,-0.6 0.9,-0.5 1.2,-1.2 0.9,-1.7 -0.3,-0.5 -0.8,-0.6 -2.7,-0.1 -2.2,0.6 -3.8,0.8 -4.9,-1.1 -1,-1.8 -0.3,-3.7 1.7,-4.9 1.2,-0.7 2.4,-1 3.6,-0.9 0.3,0 0.7,0.2 1,0.6 0.3,0.6 0.1,1.2 -0.4,1.6 -0.2,0.1 -0.4,0.2 -0.6,0.2 -0.9,0 -1.7,0.1 -2.4,0.5 -0.8,0.5 -1,1.1 -0.8,1.6 0.4,0.6 0.9,0.6 2.8,0.1 2.3,-0.6 3.8,-0.6 4.8,1.1 1.1,1.9 0.3,3.9 -1.8,5.1 -1.4,0.7 -2.9,1.1 -4.4,0.9 z" />
  </g>
</svg>
