<?xml version="1.0" encoding="UTF-8" standalone="no"?>
<svg width="126px" height="144px" viewBox="0 0 126 144" version="1.1" xmlns="http://www.w3.org/2000/svg" xmlns:xlink="http://www.w3.org/1999/xlink">
    <g id="Page-1" stroke="none" stroke-width="1" fill="none" fill-rule="evenodd">
        <g id="nodeschool-rvk">
            <g id="Layer_1">
                <path d="M0.7,36 L63,0 L125.2,36 L125.2,107.9 L63,143.9 L0.7,107.9 L0.7,36 Z" id="Shape" fill="#2B3990"></path>
                <g id="Group" transform="translate(3.000000, 3.000000)">
                    <path d="M1.3,102.9 L1.3,35 L60,1.1 L118.6,35 L118.6,102.9 L60,136.8 L1.3,102.9 Z" id="Shape" fill="#2B3990"></path>
                    <path d="M60,1.9 L118,35.4 L118,102.4 L60,136 L2,102.5 L2,35.5 L60,1.9 L60,1.9 Z M60,0.3 L0.6,34.6 L0.6,103.3 L60,137.6 L119.4,103.3 L119.4,34.6 L60,0.3 L60,0.3 L60,0.3 Z" id="Shape" fill="#FFFFFF"></path>
                </g>
            </g>
            <g id="Halgrimskirkya_-_illustration" transform="translate(30.000000, 36.000000)" fill="#FFFFFF">
                <g id="Group">
                    <path d="M38.1,73 L27.8,73 L27.8,25 L38.1,25 L38.1,73 L38.1,73 Z M28.4,72.3 L37.4,72.3 L37.4,25.6 L28.4,25.6 L28.4,72.3 L28.4,72.3 Z" id="Shape"></path>
                    <path d="M28.1,73 L26.2,73 C26,73 25.9,72.9 25.9,72.7 L25.9,15.6 C25.9,15.4 26,15.3 26.2,15.3 L28.1,15.3 C28.3,15.3 28.4,15.4 28.4,15.6 L28.4,72.7 C28.4,72.8 28.2,73 28.1,73 L28.1,73 Z M26.4,72.3 L27.7,72.3 L27.7,15.9 L26.4,15.9 L26.4,72.3 L26.4,72.3 Z" id="Shape"></path>
                    <path d="M26.1,73 L24.2,73 C24,73 23.9,72.9 23.9,72.7 L23.9,26.4 C23.9,26.2 24,26.1 24.2,26.1 L26.1,26.1 C26.3,26.1 26.4,26.2 26.4,26.4 L26.4,72.6 C26.4,72.8 26.3,73 26.1,73 L26.1,73 Z M24.5,72.3 L25.8,72.3 L25.8,26.8 L24.5,26.8 L24.5,72.3 L24.5,72.3 Z" id="Shape"></path>
                    <path d="M24.2,73 L22.3,73 C22.1,73 22,72.9 22,72.7 L22,33.7 C22,33.5 22.1,33.4 22.3,33.4 L24.2,33.4 C24.4,33.4 24.5,33.5 24.5,33.7 L24.5,72.7 C24.5,72.8 24.3,73 24.2,73 L24.2,73 Z M22.5,72.3 L23.8,72.3 L23.8,34 L22.5,34 L22.5,72.3 L22.5,72.3 Z" id="Shape"></path>
                    <path d="M22.2,73 L20.3,73 C20.1,73 20,72.9 20,72.7 L20,37.7 C20,37.5 20.1,37.4 20.3,37.4 L22.2,37.4 C22.4,37.4 22.5,37.5 22.5,37.7 L22.5,72.6 C22.5,72.8 22.4,73 22.2,73 L22.2,73 Z M20.6,72.3 L21.9,72.3 L21.9,38.1 L20.6,38.1 L20.6,72.3 L20.6,72.3 Z" id="Shape"></path>
                    <path d="M20.3,73 L18.4,73 C18.2,73 18.1,72.9 18.1,72.7 L18.1,45.7 C18.1,45.5 18.2,45.4 18.4,45.4 L20.3,45.4 C20.5,45.4 20.6,45.5 20.6,45.7 L20.6,72.6 C20.6,72.8 20.4,73 20.3,73 L20.3,73 Z M18.6,72.3 L19.9,72.3 L19.9,46.1 L18.6,46.1 L18.6,72.3 L18.6,72.3 Z" id="Shape"></path>
                    <path d="M18.3,73 L16.4,73 C16.2,73 16.1,72.9 16.1,72.7 L16.1,50.1 C16.1,49.9 16.2,49.8 16.4,49.8 L18.3,49.8 C18.5,49.8 18.6,49.9 18.6,50.1 L18.6,72.6 C18.6,72.8 18.5,73 18.3,73 L18.3,73 Z M16.7,72.3 L18,72.3 L18,50.5 L16.7,50.5 L16.7,72.3 L16.7,72.3 Z" id="Shape"></path>
                    <path d="M16.4,73 L14.5,73 C14.3,73 14.2,72.9 14.2,72.7 L14.2,56.8 C14.2,56.6 14.3,56.5 14.5,56.5 L16.4,56.5 C16.6,56.5 16.7,56.6 16.7,56.8 L16.7,72.7 C16.7,72.8 16.5,73 16.4,73 L16.4,73 Z M14.7,72.3 L16,72.3 L16,57.1 L14.7,57.1 L14.7,72.3 L14.7,72.3 Z" id="Shape"></path>
                    <path d="M14.4,73 L12.5,73 C12.3,73 12.2,72.9 12.2,72.7 L12.2,60.8 C12.2,60.6 12.3,60.5 12.5,60.5 L14.4,60.5 C14.6,60.5 14.7,60.6 14.7,60.8 L14.7,72.7 C14.7,72.8 14.6,73 14.4,73 L14.4,73 Z M12.8,72.3 L14.1,72.3 L14.1,61.1 L12.8,61.1 L12.8,72.3 L12.8,72.3 Z" id="Shape"></path>
                    <path d="M12.5,73 L10.6,73 C10.4,73 10.3,72.9 10.3,72.7 L10.3,63.5 C10.3,63.3 10.4,63.2 10.6,63.2 L12.5,63.2 C12.7,63.2 12.8,63.3 12.8,63.5 L12.8,72.7 C12.8,72.8 12.7,73 12.5,73 L12.5,73 Z M10.9,72.3 L12.2,72.3 L12.2,63.7 L10.9,63.7 L10.9,72.3 L10.9,72.3 Z" id="Shape"></path>
                    <path d="M10.5,73 L8.6,73 C8.4,73 8.3,72.9 8.3,72.7 L8.3,66.5 C8.3,66.3 8.4,66.2 8.6,66.2 L10.5,66.2 C10.7,66.2 10.8,66.3 10.8,66.5 L10.8,72.7 C10.9,72.8 10.7,73 10.5,73 L10.5,73 Z M8.9,72.3 L10.2,72.3 L10.2,66.8 L8.9,66.8 L8.9,72.3 L8.9,72.3 Z" id="Shape"></path>
                    <path d="M8.6,73 L6.7,73 C6.5,73 6.4,72.9 6.4,72.7 L6.4,66.5 C6.4,66.3 6.5,66.2 6.7,66.2 L8.6,66.2 C8.8,66.2 8.9,66.3 8.9,66.5 L8.9,72.7 C8.9,72.8 8.8,73 8.6,73 L8.6,73 Z M7,72.3 L8.3,72.3 L8.3,66.8 L7,66.8 L7,72.3 L7,72.3 Z" id="Shape"></path>
                    <path d="M6.6,73 L4.7,73 C4.5,73 4.4,72.9 4.4,72.7 L4.4,66.5 C4.4,66.3 4.5,66.2 4.7,66.2 L6.6,66.2 C6.8,66.2 6.9,66.3 6.9,66.5 L6.9,72.7 C7,72.8 6.8,73 6.6,73 L6.6,73 Z M5,72.3 L6.3,72.3 L6.3,66.8 L5,66.8 L5,72.3 L5,72.3 Z" id="Shape"></path>
                    <path d="M4.7,73 L2.8,73 C2.6,73 2.5,72.9 2.5,72.7 L2.5,66.5 C2.5,66.3 2.6,66.2 2.8,66.2 L4.7,66.2 C4.9,66.2 5,66.3 5,66.5 L5,72.7 C5,72.8 4.9,73 4.7,73 L4.7,73 Z M3.1,72.3 L4.4,72.3 L4.4,66.8 L3.1,66.8 L3.1,72.3 L3.1,72.3 Z" id="Shape"></path>
                    <path d="M2.8,73 L0.9,73 C0.7,73 0.6,72.9 0.6,72.7 L0.6,66.5 C0.6,66.3 0.7,66.2 0.9,66.2 L2.8,66.2 C3,66.2 3.1,66.3 3.1,66.5 L3.1,72.7 C3.1,72.8 3,73 2.8,73 L2.8,73 Z M1.2,72.3 L2.5,72.3 L2.5,66.8 L1.2,66.8 L1.2,72.3 L1.2,72.3 Z" id="Shape"></path>
                    <path d="M39.7,73 L37.8,73 C37.6,73 37.5,72.9 37.5,72.7 L37.5,15.6 C37.5,15.4 37.6,15.3 37.8,15.3 L39.7,15.3 C39.9,15.3 40,15.4 40,15.6 L40,72.7 C40.1,72.8 39.9,73 39.7,73 L39.7,73 Z M38.1,72.3 L39.4,72.3 L39.4,15.9 L38.1,15.9 L38.1,72.3 L38.1,72.3 Z" id="Shape"></path>
                    <path d="M37.8,16.9 L35.9,16.9 C35.7,16.9 35.6,16.8 35.6,16.6 L35.6,10.9 C35.6,10.7 35.7,10.6 35.9,10.6 L37.8,10.6 C38,10.6 38.1,10.7 38.1,10.9 L38.1,16.6 C38.1,16.7 38,16.9 37.8,16.9 L37.8,16.9 Z M36.2,16.2 L37.5,16.2 L37.5,11.1 L36.2,11.1 L36.2,16.2 L36.2,16.2 Z" id="Shape"></path>
                    <path d="M35.8,16.9 L33.9,16.9 C33.7,16.9 33.6,16.8 33.6,16.6 L33.6,7.5 C33.6,7.3 33.7,7.2 33.9,7.2 L35.8,7.2 C36,7.2 36.1,7.3 36.1,7.5 L36.1,16.6 C36.2,16.7 36,16.9 35.8,16.9 L35.8,16.9 Z M34.2,16.2 L35.5,16.2 L35.5,7.7 L34.2,7.7 L34.2,16.2 L34.2,16.2 Z" id="Shape"></path>
                    <path d="M33.9,16.9 L32,16.9 C31.8,16.9 31.7,16.8 31.7,16.6 L31.7,5.6 C31.7,5.4 31.8,5.3 32,5.3 L33.9,5.3 C34.1,5.3 34.2,5.4 34.2,5.6 L34.2,16.5 C34.2,16.7 34.1,16.9 33.9,16.9 L33.9,16.9 Z M32.3,16.2 L33.6,16.2 L33.6,5.9 L32.3,5.9 L32.3,16.2 L32.3,16.2 Z" id="Shape"></path>
                    <path d="M32,16.9 L30,16.9 C29.8,16.9 29.7,16.8 29.7,16.6 L29.7,7.5 C29.7,7.3 29.8,7.2 30,7.2 L32,7.2 C32.2,7.2 32.3,7.3 32.3,7.5 L32.3,16.6 C32.3,16.7 32.1,16.9 32,16.9 L32,16.9 Z M30.3,16.2 L31.6,16.2 L31.6,7.7 L30.3,7.7 L30.3,16.2 L30.3,16.2 Z" id="Shape"></path>
                    <path d="M30,16.9 L28.1,16.9 C27.9,16.9 27.8,16.8 27.8,16.6 L27.8,10.9 C27.8,10.7 27.9,10.6 28.1,10.6 L30,10.6 C30.2,10.6 30.3,10.7 30.3,10.9 L30.3,16.6 C30.3,16.7 30.2,16.9 30,16.9 L30,16.9 Z M28.4,16.2 L29.7,16.2 L29.7,11.1 L28.4,11.1 L28.4,16.2 L28.4,16.2 Z" id="Shape"></path>
                    <path d="M41.7,73 L39.8,73 C39.6,73 39.5,72.9 39.5,72.7 L39.5,26.4 C39.5,26.2 39.6,26.1 39.8,26.1 L41.7,26.1 C41.9,26.1 42,26.2 42,26.4 L42,72.6 C42,72.8 41.9,73 41.7,73 L41.7,73 Z M40.1,72.3 L41.4,72.3 L41.4,26.8 L40.1,26.8 L40.1,72.3 L40.1,72.3 Z" id="Shape"></path>
                    <path d="M43.6,73 L41.7,73 C41.5,73 41.4,72.9 41.4,72.7 L41.4,33.7 C41.4,33.5 41.5,33.4 41.7,33.4 L43.6,33.4 C43.8,33.4 43.9,33.5 43.9,33.7 L43.9,72.7 C44,72.8 43.8,73 43.6,73 L43.6,73 Z M42,72.3 L43.3,72.3 L43.3,34 L42,34 L42,72.3 L42,72.3 Z" id="Shape"></path>
                    <path d="M45.6,73 L43.7,73 C43.5,73 43.4,72.9 43.4,72.7 L43.4,37.7 C43.4,37.5 43.5,37.4 43.7,37.4 L45.6,37.4 C45.8,37.4 45.9,37.5 45.9,37.7 L45.9,72.6 C45.9,72.8 45.8,73 45.6,73 L45.6,73 Z M44,72.3 L45.3,72.3 L45.3,38.1 L44,38.1 L44,72.3 L44,72.3 Z" id="Shape"></path>
                    <path d="M47.5,73 L45.6,73 C45.4,73 45.3,72.9 45.3,72.7 L45.3,45.7 C45.3,45.5 45.4,45.4 45.6,45.4 L47.5,45.4 C47.7,45.4 47.8,45.5 47.8,45.7 L47.8,72.6 C47.9,72.8 47.7,73 47.5,73 L47.5,73 Z M45.9,72.3 L47.2,72.3 L47.2,46.1 L45.9,46.1 L45.9,72.3 L45.9,72.3 Z" id="Shape"></path>
                    <path d="M49.5,73 L47.6,73 C47.4,73 47.3,72.9 47.3,72.7 L47.3,50.1 C47.3,49.9 47.4,49.8 47.6,49.8 L49.5,49.8 C49.7,49.8 49.8,49.9 49.8,50.1 L49.8,72.6 C49.8,72.8 49.7,73 49.5,73 L49.5,73 Z M47.9,72.3 L49.2,72.3 L49.2,50.5 L47.9,50.5 L47.9,72.3 L47.9,72.3 Z" id="Shape"></path>
                    <path d="M51.4,73 L49.5,73 C49.3,73 49.2,72.9 49.2,72.7 L49.2,56.8 C49.2,56.6 49.3,56.5 49.5,56.5 L51.4,56.5 C51.6,56.5 51.7,56.6 51.7,56.8 L51.7,72.7 C51.8,72.8 51.6,73 51.4,73 L51.4,73 Z M49.8,72.3 L51.1,72.3 L51.1,57.1 L49.8,57.1 L49.8,72.3 L49.8,72.3 Z" id="Shape"></path>
                    <path d="M53.4,73 L51.5,73 C51.3,73 51.2,72.9 51.2,72.7 L51.2,60.8 C51.2,60.6 51.3,60.5 51.5,60.5 L53.4,60.5 C53.6,60.5 53.7,60.6 53.7,60.8 L53.7,72.7 C53.7,72.8 53.6,73 53.4,73 L53.4,73 Z M51.8,72.3 L53.1,72.3 L53.1,61.1 L51.8,61.1 L51.8,72.3 L51.8,72.3 Z" id="Shape"></path>
                    <path d="M55.3,73 L53.4,73 C53.2,73 53.1,72.9 53.1,72.7 L53.1,63.5 C53.1,63.3 53.2,63.2 53.4,63.2 L55.3,63.2 C55.5,63.2 55.6,63.3 55.6,63.5 L55.6,72.7 C55.6,72.8 55.5,73 55.3,73 L55.3,73 Z M53.7,72.3 L55,72.3 L55,63.7 L53.7,63.7 L53.7,72.3 L53.7,72.3 Z" id="Shape"></path>
                    <path d="M57.3,73 L55.4,73 C55.2,73 55.1,72.9 55.1,72.7 L55.1,66.5 C55.1,66.3 55.2,66.2 55.4,66.2 L57.3,66.2 C57.5,66.2 57.6,66.3 57.6,66.5 L57.6,72.7 C57.6,72.8 57.4,73 57.3,73 L57.3,73 Z M55.6,72.3 L56.9,72.3 L56.9,66.8 L55.6,66.8 L55.6,72.3 L55.6,72.3 Z" id="Shape"></path>
                    <path d="M59.2,73 L57.3,73 C57.1,73 57,72.9 57,72.7 L57,66.5 C57,66.3 57.1,66.2 57.3,66.2 L59.2,66.2 C59.4,66.2 59.5,66.3 59.5,66.5 L59.5,72.7 C59.5,72.8 59.4,73 59.2,73 L59.2,73 Z M57.6,72.3 L58.9,72.3 L58.9,66.8 L57.6,66.8 L57.6,72.3 L57.6,72.3 Z" id="Shape"></path>
                    <path d="M61.2,73 L59.3,73 C59.1,73 59,72.9 59,72.7 L59,66.5 C59,66.3 59.1,66.2 59.3,66.2 L61.2,66.2 C61.4,66.2 61.5,66.3 61.5,66.5 L61.5,72.7 C61.5,72.8 61.3,73 61.2,73 L61.2,73 Z M59.5,72.3 L60.8,72.3 L60.8,66.8 L59.5,66.8 L59.5,72.3 L59.5,72.3 Z" id="Shape"></path>
                    <path d="M63.1,73 L61.2,73 C61,73 60.9,72.9 60.9,72.7 L60.9,66.5 C60.9,66.3 61,66.2 61.2,66.2 L63.1,66.2 C63.3,66.2 63.4,66.3 63.4,66.5 L63.4,72.7 C63.4,72.8 63.3,73 63.1,73 L63.1,73 Z M61.5,72.3 L62.8,72.3 L62.8,66.8 L61.5,66.8 L61.5,72.3 L61.5,72.3 Z" id="Shape"></path>
                    <path d="M65.1,73 L63.2,73 C63,73 62.9,72.9 62.9,72.7 L62.9,66.5 C62.9,66.3 63,66.2 63.2,66.2 L65.1,66.2 C65.3,66.2 65.4,66.3 65.4,66.5 L65.4,72.7 C65.4,72.8 65.2,73 65.1,73 L65.1,73 Z M63.4,72.3 L64.7,72.3 L64.7,66.8 L63.4,66.8 L63.4,72.3 L63.4,72.3 Z" id="Shape"></path>
                    <path d="M36.5,24.1 L35.2,24.1 C35,24.1 34.9,24 34.9,23.8 L34.9,20.4 C34.9,19.5 35.6,19 35.7,19 C35.8,18.9 36,18.9 36.1,19 C36.1,19 36.9,19.5 36.9,20.4 L36.9,23.8 C36.8,23.9 36.7,24.1 36.5,24.1 L36.5,24.1 Z M35.5,23.4 L36.1,23.4 L36.1,20.3 C36.1,20 35.9,19.7 35.8,19.6 C35.7,19.8 35.5,20 35.5,20.3 L35.5,23.4 L35.5,23.4 Z" id="Shape"></path>
                    <path d="M30.6,24.1 L29.3,24.1 C29.1,24.1 29,24 29,23.8 L29,20.4 C29,19.5 29.7,19 29.8,19 C29.9,18.9 30.1,18.9 30.2,19 C30.2,19 31,19.5 31,20.4 L31,23.8 C31,23.9 30.8,24.1 30.6,24.1 L30.6,24.1 Z M29.7,23.4 L30.3,23.4 L30.3,20.3 C30.3,20 30.1,19.7 30,19.6 C29.9,19.8 29.7,20 29.7,20.3 L29.7,23.4 L29.7,23.4 Z" id="Shape"></path>
                    <path d="M33.6,24.1 L32.3,24.1 C32.1,24.1 32,24 32,23.8 L32,19.8 C32,18.8 32.7,18.2 32.7,18.2 C32.8,18.1 33,18.1 33.1,18.2 C33.1,18.2 33.8,18.8 33.8,19.8 L33.8,23.8 C33.9,23.9 33.7,24.1 33.6,24.1 L33.6,24.1 Z M32.6,23.4 L33.2,23.4 L33.2,19.7 C33.2,19.3 33,19 32.9,18.8 C32.8,19 32.6,19.3 32.6,19.7 L32.6,23.4 L32.6,23.4 Z" id="Shape"></path>
                    <path d="M34,68 L32,68 C31.8,68 31.7,67.9 31.7,67.7 L31.7,60.9 C31.7,59.4 32.8,58.5 32.8,58.5 C32.9,58.4 33.1,58.4 33.2,58.5 C33.2,58.5 34.3,59.5 34.3,60.9 L34.3,67.7 C34.3,67.8 34.1,68 34,68 L34,68 Z M32.3,67.3 L33.7,67.3 L33.7,60.8 C33.7,60 33.3,59.4 33,59.1 C32.7,59.4 32.3,60 32.3,60.8 L32.3,67.3 L32.3,67.3 Z" id="Shape"></path>
                    <path d="M35.4,73 L30.4,73 C30.2,73 30.1,72.9 30.1,72.7 L30.1,61.8 C30.1,58.3 32.6,56.2 32.7,56.1 C32.8,56 33,56 33.1,56.1 C33.2,56.2 35.7,58.3 35.7,61.8 L35.7,72.7 C35.8,72.8 35.6,73 35.4,73 L35.4,73 Z M30.8,72.3 L35.1,72.3 L35.1,61.7 C35.1,59.1 33.5,57.3 32.9,56.7 C32.3,57.3 30.7,59.1 30.7,61.7 L30.7,72.3 L30.8,72.3 Z" id="Shape"></path>
                    <path d="M34,72.6 L31.8,72.6 C31.6,72.6 31.5,72.5 31.5,72.3 L31.5,69 C31.5,68.8 31.6,68.7 31.8,68.7 L34,68.7 C34.2,68.7 34.3,68.8 34.3,69 L34.3,72.3 C34.4,72.4 34.2,72.6 34,72.6 L34,72.6 Z M32.2,71.9 L33.7,71.9 L33.7,69.2 L32.2,69.2 L32.2,71.9 L32.2,71.9 Z" id="Shape"></path>
                    <path d="M33.7,54.2 L32.1,54.2 C31.9,54.2 31.8,54.1 31.8,53.9 L31.8,51 C31.8,50.8 31.9,50.7 32.1,50.7 L33.7,50.7 C33.9,50.7 34,50.8 34,51 L34,53.9 C34.1,54.1 33.9,54.2 33.7,54.2 L33.7,54.2 Z M32.5,53.6 L33.4,53.6 L33.4,51.3 L32.5,51.3 L32.5,53.6 L32.5,53.6 Z" id="Shape"></path>
                    <path d="M33.7,43.1 L32.1,43.1 C31.9,43.1 31.8,43 31.8,42.8 L31.8,39.9 C31.8,39.7 31.9,39.6 32.1,39.6 L33.7,39.6 C33.9,39.6 34,39.7 34,39.9 L34,42.8 C34.1,43 33.9,43.1 33.7,43.1 L33.7,43.1 Z M32.5,42.5 L33.4,42.5 L33.4,40.2 L32.5,40.2 L32.5,42.5 L32.5,42.5 Z" id="Shape"></path>
                    <path d="M33.7,48.7 L32.1,48.7 C31.9,48.7 31.8,48.6 31.8,48.4 L31.8,45.5 C31.8,45.3 31.9,45.2 32.1,45.2 L33.7,45.2 C33.9,45.2 34,45.3 34,45.5 L34,48.4 C34.1,48.5 33.9,48.7 33.7,48.7 L33.7,48.7 Z M32.5,48 L33.4,48 L33.4,45.7 L32.5,45.7 L32.5,48 L32.5,48 Z" id="Shape"></path>
                    <path d="M33.7,37.6 L32.1,37.6 C31.9,37.6 31.8,37.5 31.8,37.3 L31.8,34.4 C31.8,34.2 31.9,34.1 32.1,34.1 L33.7,34.1 C33.9,34.1 34,34.2 34,34.4 L34,37.3 C34.1,37.4 33.9,37.6 33.7,37.6 L33.7,37.6 Z M32.5,36.9 L33.4,36.9 L33.4,34.6 L32.5,34.6 L32.5,36.9 L32.5,36.9 Z" id="Shape"></path>
                    <path d="M32.9,31.5 C31.7,31.5 30.7,30.5 30.7,29.3 C30.7,28.1 31.7,27.1 32.9,27.1 C34.1,27.1 35.1,28.1 35.1,29.3 C35.1,30.5 34.1,31.5 32.9,31.5 L32.9,31.5 Z M32.9,27.7 C32,27.7 31.3,28.4 31.3,29.3 C31.3,30.2 32,30.9 32.9,30.9 C33.8,30.9 34.5,30.2 34.5,29.3 C34.5,28.4 33.8,27.7 32.9,27.7 L32.9,27.7 Z" id="Shape"></path>
                    <path d="M32.9,29.6 C32.7,29.6 32.6,29.5 32.6,29.3 L32.6,28.3 C32.6,28.1 32.7,28 32.9,28 C33.1,28 33.2,28.1 33.2,28.3 L33.2,29.3 C33.3,29.4 33.1,29.6 32.9,29.6 L32.9,29.6 Z" id="Shape"></path>
                    <path d="M32.9,5.9 C32.7,5.9 32.6,5.8 32.6,5.6 L32.6,0.8 C32.6,0.6 32.7,0.5 32.9,0.5 C33.1,0.5 33.2,0.6 33.2,0.8 L33.2,5.6 C33.2,5.8 33.1,5.9 32.9,5.9 L32.9,5.9 Z" id="Shape"></path>
                    <path d="M34.6,2.8 L31.3,2.8 C31.1,2.8 31,2.7 31,2.5 C31,2.3 31.1,2.2 31.3,2.2 L34.6,2.2 C34.8,2.2 34.9,2.3 34.9,2.5 C34.9,2.7 34.8,2.8 34.6,2.8 L34.6,2.8 Z" id="Shape"></path>
                    <path d="M32.9,29.6 L32.1,29.6 C31.9,29.6 31.8,29.5 31.8,29.3 C31.8,29.1 31.9,29 32.1,29 L32.9,29 C33.1,29 33.2,29.1 33.2,29.3 C33.3,29.4 33.1,29.6 32.9,29.6 L32.9,29.6 Z" id="Shape"></path>
                </g>
            </g>
            <g id="Nodeschool_-_logo" transform="translate(36.000000, 9.000000)">
                <g id="Group" transform="translate(9.000000, 0.000000)" stroke="#FFFFFF" stroke-width="0.8504">
                    <path d="M35.4,10.5 L17.9,0.4 L0.5,10.5" id="Shape"></path>
                    <path d="M9.2,10.5 L17.9,0.4 L17.9,10.5" id="Shape"></path>
                    <path d="M26.7,10.5 L18,0.4" id="Shape"></path>
                </g>
                <g id="Group" transform="translate(5.000000, 106.000000)">
                    <g transform="translate(4.000000, 9.000000)" id="Shape" stroke="#FFFFFF" stroke-width="0.8504">
                        <path d="M35.2,0.5 L17.8,10.6 L0.4,0.5"></path>
                        <path d="M9.1,0.5 L17.8,10.6 L17.8,0.5"></path>
                        <path d="M26.5,0.5 L17.8,10.6"></path>
                    </g>
                    <path d="M10.7,5.8 C10.8,6 10.9,6.1 10.9,6.2 C10.9,6.3 10.8,6.5 10.6,6.6 C10.4,6.8 10.3,6.8 10.1,6.7 C10,6.7 9.9,6.6 9.8,6.4 L7.7,3.7 C7.5,3.5 7.4,3.3 7.6,2.9 C7.7,2.7 7.9,2.5 8.2,2.3 C8.5,2.1 8.9,1.8 9.3,1.7 C9.8,1.6 10.3,1.7 10.6,2.2 C11,2.7 11,3.2 10.8,3.7 L12.5,4.2 C12.8,4.3 12.9,4.6 12.5,4.9 C12.2,5.2 11.9,5.1 11.6,5 L10.6,4.7 C10.4,4.6 10.1,4.5 10.1,4.5 L9.8,4.8 L10.7,5.8 L10.7,5.8 Z M9.4,4.2 C9.4,4.2 9.5,4.1 9.6,4.1 C10.1,3.7 10.1,3.4 9.9,3.1 C9.6,2.8 9.3,2.9 9,3.1 L8.8,3.3 L9.4,4.2 L9.4,4.2 Z" id="Shape" fill="#FFFFFF"></path>
                    <path d="M22.8,0.9 C22.9,0.6 23,0.3 23.5,0.3 C23.9,0.3 24,0.4 24,0.7 C24,0.8 24,0.9 23.9,1 L22.4,4.5 C22.2,4.9 22.1,5.1 21.7,5.1 C21.2,5.1 21.1,4.9 21,4.5 L19.6,1 C19.5,0.9 19.5,0.8 19.5,0.7 C19.5,0.4 19.7,0.3 20.1,0.3 C20.6,0.3 20.7,0.5 20.8,0.9 L21.8,3.6 L22.8,0.9 L22.8,0.9 Z" id="Shape" fill="#FFFFFF"></path>
                    <path d="M33.5,4 L35.5,3.7 C35.9,3.6 36.1,3.6 36.5,3.9 C36.8,4.1 36.8,4.3 36.7,4.4 C36.6,4.5 36.5,4.5 36.3,4.6 L34.3,4.8 L34.3,7.2 C34.3,7.4 34.3,7.5 34.2,7.6 C34.1,7.7 33.9,7.7 33.6,7.5 C33.3,7.2 33.3,7 33.3,6.6 L33.4,4.3 L32.3,5.6 C32.2,5.8 32.1,5.9 31.9,5.9 C31.8,5.9 31.6,5.9 31.4,5.7 C31.2,5.5 31.1,5.4 31.1,5.3 C31.1,5.2 31.2,5.1 31.3,4.9 L33.6,2.3 C33.7,2.1 33.8,2 34,2 C34.1,2 34.3,2 34.5,2.2 C34.7,2.4 34.8,2.5 34.8,2.6 C34.8,2.7 34.7,2.8 34.6,3 L33.5,4 L33.5,4 Z" id="Shape" fill="#FFFFFF"></path>
                    <circle id="Oval" fill="#FFFFFF" cx="1.4" cy="7.5" r="0.7"></circle>
                    <circle id="Oval" fill="#FFFFFF" cx="42.5" cy="7.5" r="0.7"></circle>
                </g>
                <g id="Group" transform="translate(0.000000, 17.000000)" fill="#FFFFFF">
                    <path d="M1,5.7 C1.3,5.7 1.5,5.5 1.5,5.1 L1.5,2.2 L3.7,5.3 C3.9,5.5 4,5.7 4.2,5.7 L4.2,5.7 C4.5,5.7 4.7,5.5 4.7,5.1 L4.7,0.8 C4.7,0.5 4.5,0.2 4.2,0.2 C3.9,0.2 3.7,0.4 3.7,0.8 L3.7,3.6 L1.6,0.6 C1.4,0.4 1.3,0.2 1.1,0.2 L1,0.2 C0.7,0.2 0.5,0.4 0.5,0.8 L0.5,5.1 C0.5,5.5 0.7,5.7 1,5.7 L1,5.7 L1,5.7 Z" id="Shape"></path>
                    <path d="M8.5,5.8 C10,5.8 11.1,4.5 11.1,3 L11.1,3 C11.1,1.4 10,0.2 8.5,0.2 C7,0.2 5.9,1.5 5.9,3 L5.9,3 C5.8,4.5 7,5.8 8.5,5.8 L8.5,5.8 L8.5,5.8 Z M7,3 C7,2 7.6,1.3 8.5,1.3 C9.3,1.3 10,2.1 10,3 L10,3 C10,4 9.4,4.7 8.5,4.7 C7.6,4.7 7,3.9 7,3 L7,3 L7,3 L7,3 Z" id="Shape"></path>
                    <path d="M12.7,5.7 L14.1,5.7 C15.7,5.7 16.7,4.5 16.7,3 L16.7,3 C16.7,1.5 15.6,0.3 14.1,0.3 L12.7,0.3 C12.4,0.3 12.2,0.5 12.2,0.9 L12.2,5.1 C12.2,5.4 12.4,5.7 12.7,5.7 L12.7,5.7 L12.7,5.7 Z M13.2,1.4 L14,1.4 C14.9,1.4 15.5,2.1 15.5,3.1 L15.5,3.1 C15.5,4.1 14.9,4.8 14,4.8 L13.2,4.8 L13.2,1.4 L13.2,1.4 L13.2,1.4 Z" id="Shape"></path>
                    <path d="M18.2,5.7 L21,5.7 C21.2,5.7 21.5,5.5 21.5,5.2 C21.5,4.9 21.3,4.7 21,4.7 L18.7,4.7 L18.7,3.5 L20.6,3.5 C20.8,3.5 21.1,3.3 21.1,3 C21.1,2.7 20.9,2.5 20.6,2.5 L18.7,2.5 L18.7,1.4 L20.9,1.4 C21.1,1.4 21.4,1.2 21.4,0.9 C21.4,0.6 21.2,0.4 20.9,0.4 L18.2,0.4 C17.9,0.4 17.7,0.6 17.7,1 L17.7,5.2 C17.7,5.4 17.9,5.7 18.2,5.7 L18.2,5.7 L18.2,5.7 Z" id="Shape"></path>
                    <path d="M22.4,5.1 C22.9,5.6 23.6,5.8 24.3,5.8 C25.4,5.8 26.1,5.2 26.1,4.1 L26.1,4.1 C26.1,3.1 25.6,2.7 24.5,2.4 C23.7,2.2 23.4,2 23.4,1.7 L23.4,1.7 C23.4,1.5 23.6,1.2 24,1.2 C24.3,1.2 24.7,1.4 25.1,1.6 C25.2,1.7 25.3,1.7 25.3,1.7 C25.6,1.7 25.8,1.5 25.8,1.2 C25.8,1 25.7,0.8 25.6,0.7 C25.1,0.4 24.6,0.2 24,0.2 C23,0.2 22.3,0.9 22.3,1.9 L22.3,1.9 C22.3,3 22.9,3.3 24,3.6 C24.8,3.8 25,4 25,4.3 L25,4.3 C25,4.6 24.8,4.8 24.3,4.8 C23.8,4.8 23.4,4.6 23,4.3 C22.9,4.2 22.8,4.1 22.7,4.1 C22.4,4.1 22.2,4.3 22.2,4.6 C22.2,4.9 22.3,5.1 22.4,5.1 L22.4,5.1 L22.4,5.1 Z" id="Shape"></path>
                    <path d="M29.3,5.8 C30.1,5.8 30.6,5.6 31,5.1 C31.1,5 31.2,4.9 31.2,4.7 C31.2,4.4 31,4.2 30.7,4.2 C30.6,4.2 30.5,4.3 30.4,4.4 C30.1,4.7 29.8,4.8 29.3,4.8 C28.5,4.8 27.9,4 27.9,3.1 L27.9,3.1 C27.9,2.1 28.5,1.4 29.3,1.4 C29.7,1.4 30,1.6 30.3,1.8 C30.4,1.9 30.5,2 30.6,2 C30.9,2 31.1,1.8 31.1,1.4 C31.1,1.2 31,1 30.9,0.9 C30.5,0.6 30,0.4 29.2,0.4 C27.7,0.4 26.6,1.7 26.6,3.2 L26.6,3.2 C26.8,4.5 28,5.8 29.3,5.8 L29.3,5.8 L29.3,5.8 Z" id="Shape"></path>
                    <path d="M32.9,5.7 C33.2,5.7 33.4,5.5 33.4,5.1 L33.4,3.4 L35.4,3.4 L35.4,5.1 C35.4,5.4 35.6,5.7 35.9,5.7 C36.2,5.7 36.4,5.5 36.4,5.1 L36.4,0.8 C36.4,0.5 36.2,0.2 35.9,0.2 C35.6,0.2 35.4,0.4 35.4,0.8 L35.4,2.4 L33.4,2.4 L33.4,0.8 C33.4,0.5 33.2,0.2 32.9,0.2 C32.6,0.2 32.4,0.4 32.4,0.8 L32.4,5.1 C32.3,5.5 32.5,5.7 32.9,5.7 L32.9,5.7 L32.9,5.7 Z" id="Shape"></path>
                    <path d="M40.1,5.8 C41.6,5.8 42.7,4.5 42.7,3 L42.7,3 C42.7,1.4 41.6,0.2 40.1,0.2 C38.6,0.2 37.5,1.5 37.5,3 L37.5,3 C37.5,4.5 38.6,5.8 40.1,5.8 L40.1,5.8 L40.1,5.8 Z M38.6,3 C38.6,2 39.2,1.3 40.1,1.3 C40.9,1.3 41.6,2.1 41.6,3 L41.6,3 C41.6,4 41,4.7 40.1,4.7 C39.3,4.7 38.6,3.9 38.6,3 L38.6,3 L38.6,3 L38.6,3 Z" id="Shape"></path>
                    <path d="M46.2,5.8 C47.7,5.8 48.8,4.5 48.8,3 L48.8,3 C48.8,1.4 47.7,0.2 46.2,0.2 C44.7,0.2 43.6,1.5 43.6,3 L43.6,3 C43.5,4.5 44.7,5.8 46.2,5.8 L46.2,5.8 L46.2,5.8 Z M44.7,3 C44.7,2 45.3,1.3 46.2,1.3 C47,1.3 47.7,2.1 47.7,3 L47.7,3 C47.7,4 47.1,4.7 46.2,4.7 C45.4,4.7 44.7,3.9 44.7,3 L44.7,3 L44.7,3 L44.7,3 Z" id="Shape"></path>
                    <path d="M50.4,5.7 L53,5.7 C53.2,5.7 53.5,5.5 53.5,5.2 C53.5,4.9 53.3,4.7 53,4.7 L51,4.7 L51,0.9 C51,0.6 50.8,0.3 50.5,0.3 C50.2,0.3 50,0.5 50,0.9 L50,5.1 C49.8,5.4 50.1,5.7 50.4,5.7 L50.4,5.7 L50.4,5.7 Z" id="Shape"></path>
                </g>
            </g>
        </g>
    </g>
</svg>