<svg xmlns="http://www.w3.org/2000/svg" height="442.1000061035156" width="384.79998779296875" version="1.1"><rect id="backgroundrect" width="100%" height="100%" x="0" y="0" fill="none" stroke="none"/>
  <defs>
    
  </defs>


  
<g class="currentLayer"><title>Layer 1</title><rect fill="#0bd50b" stroke-dashoffset="" fill-rule="nonzero" id="svg_13" x="92.4339599609375" y="163.55345153808594" width="32.59748458862305" height="6.232704162597656" class=""/><rect fill="#d50b0b" stroke-dashoffset="" fill-rule="nonzero" x="257.13983154296875" y="163.55345153808594" width="32.59748458862305" height="6.232704162597656" class="" id="svg_11" fill-opacity="1"/><rect fill="#0bd50b" stroke-dashoffset="" fill-rule="nonzero" id="svg_10" x="98.9473648071289" y="163.65789794921875" width="19.105262756347656" height="98.36842346191406" class=""/><rect fill="#eb1a1a" stroke-dashoffset="" fill-rule="nonzero" x="264.82971954345703" y="164.67260469247867" width="19.105262756347656" height="99.11842246386732" class="" id="svg_12" fill-opacity="1"/><rect fill="#ffffff" stroke-dashoffset="" fill-rule="nonzero" id="svg_14" x="172" y="174" width="39" height="89" class=""/><g id="foreground" class="">
    <path id="doorknob" d="m190.42627918720245,228.51578640937805 c2.9000000953674316,0 5.300000190734863,-2.4000000953674316 5.300000190734863,-5.300000190734863 c0,-2.9000000953674316 -2.4000000953674316,-5.300000190734863 -5.300000190734863,-5.300000190734863 c-2.9000000953674316,0 -5.300000190734863,2.4000000953674316 -5.300000190734863,5.300000190734863 c0,2.9000000953674316 2.4000000953674316,5.300000190734863 5.300000190734863,5.300000190734863 zm0,-5.800000190734863 c0.30000001192092896,0 0.5,0.20000000298023224 0.5,0.5 c0,0.30000001192092896 -0.20000000298023224,0.5 -0.5,0.5 c-0.30000001192092896,0 -0.5,-0.20000000298023224 -0.5,-0.5 c0,-0.30000001192092896 0.20000000298023224,-0.5 0.5,-0.5 z"/>
     
    <path d="m286.92627918720245,148.21578335762024 c0,-1.2999999523162842 -1.100000023841858,-2.4000000953674316 -2.4000000953674316,-2.4000000953674316 H95.92627918720245 c-1.2999999523162842,0 -2.4000000953674316,1.100000023841858 -2.4000000953674316,2.4000000953674316 c0,1.2999999523162842 1.100000023841858,2.4000000953674316 2.4000000953674316,2.4000000953674316 h188.60000610351562 c1.2999999523162842,0 2.4000000953674316,-1.100000023841858 2.4000000953674316,-2.4000000953674316 z" id="path4156"/>
     
    <path id="top-stripes" d="M267.2262669801712,79.11579251289368 L191.32630360126495,35.315789461135864 c0,0 0,0 0,0 c-0.10000000149011612,-0.10000000149011612 -0.20000000298023224,-0.10000000149011612 -0.30000001192092896,-0.10000000149011612 c0,0 0,0 0,0 c0,0 0,0 0,0 c0,0 -0.10000000149011612,0 -0.10000000149011612,0 c0,0 -0.10000000149011612,0 -0.10000000149011612,0 c-0.10000000149011612,0 -0.20000000298023224,0 -0.30000001192092896,0 c0,0 0,0 -0.10000000149011612,0 c0,0 -0.10000000149011612,0 -0.10000000149011612,0 c-0.10000000149011612,0 -0.30000001192092896,0 -0.4000000059604645,0 c0,0 0,0 0,0 c0,0 0,0 0,0 c0,0 0,0 0,0 c-0.10000000149011612,0 -0.20000000298023224,0.10000000149011612 -0.30000001192092896,0.10000000149011612 c0,0 0,0 0,0 l-74.69999694824219,43.099998474121094 c-0.9000000953674316,0.5 -1.2000000476837158,1.600000023841858 -0.699999988079071,2.5 c0.5,0.9000000953674316 1.7000000476837158,1.2000000476837158 2.5,0.699999988079071 l66.4000015258789,-38.29999923706055 l-28.200000762939453,36 c-0.6000000238418579,0.800000011920929 -0.5,2 0.30000001192092896,2.5999999046325684 c0.800000011920929,0.6000000238418579 2,0.5 2.5999999046325684,-0.30000001192092896 l30.799999237060547,-39.29999923706055 v38.400001525878906 c0,1 0.800000011920929,1.9000000953674316 1.9000000953674316,1.9000000953674316 c1.100000023841858,0 1.9000000953674316,-0.800000011920929 1.9000000953674316,-1.9000000953674316 V42.315789461135864 l30.799999237060547,39.29999923706055 c0.4000000059604645,0.5 0.9000000953674316,0.699999988079071 1.5,0.699999988079071 c0.4000000059604645,0 0.800000011920929,-0.10000000149011612 1.100000023841858,-0.4000000059604645 c0.800000011920929,-0.6000000238418579 0.9000000953674316,-1.7999999523162842 0.30000001192092896,-2.5999999046325684 l-28.200000762939453,-36 l67.5999984741211,39 c0.30000001192092896,0.20000000298023224 0.6000000238418579,0.20000000298023224 0.9000000953674316,0.20000000298023224 c0.6000000238418579,0 1.2999999523162842,-0.30000001192092896 1.600000023841858,-0.9000000953674316 c0.4000000059604645,-0.800000011920929 0.10000000149011612,-2 -0.800000011920929,-2.5 z"/>
     
    <path d="m266.7262669801712,362.0158016681671 c-0.5,-0.9000000953674316 -1.7000000476837158,-1.2000000476837158 -2.5,-0.699999988079071 l-66.30000305175781,38.29999923706055 l28.200000762939453,-36 c0.6000000238418579,-0.800000011920929 0.5,-2 -0.30000001192092896,-2.5999999046325684 c-0.800000011920929,-0.6000000238418579 -2,-0.5 -2.5999999046325684,0.30000001192092896 L192.42627918720245,400.6157772541046 v-38.400001525878906 c0,-1 -0.800000011920929,-1.9000000953674316 -1.9000000953674316,-1.9000000953674316 c-1.100000023841858,0 -1.9000000953674316,0.800000011920929 -1.9000000953674316,1.9000000953674316 v38.400001525878906 l-30.799999237060547,-39.29999923706055 c-0.6000000238418579,-0.800000011920929 -1.7999999523162842,-0.9000000953674316 -2.5999999046325684,-0.30000001192092896 c-0.800000011920929,0.6000000238418579 -0.9000000953674316,1.7999999523162842 -0.30000001192092896,2.5999999046325684 l28.200000762939453,36 l-67.5999984741211,-39 c-0.9000000953674316,-0.5 -2,-0.20000000298023224 -2.5,0.699999988079071 c-0.5,0.9000000953674316 -0.20000000298023224,2 0.699999988079071,2.5 l75.9000015258789,43.79999923706055 c0,0 0,0 0.10000000149011612,0 c0.10000000149011612,0 0.10000000149011612,0.10000000149011612 0.20000000298023224,0.10000000149011612 c0,0 0,0 0.10000000149011612,0 c0,0 0,0 0.10000000149011612,0 c0,0 0.10000000149011612,0 0.10000000149011612,0 c0.10000000149011612,0 0.30000001192092896,0.10000000149011612 0.4000000059604645,0.10000000149011612 l0,0 l0,0 l0,0 c0,0 0,0 0,0 c0.20000000298023224,0 0.30000001192092896,0 0.4000000059604645,-0.10000000149011612 c0,0 0.10000000149011612,0 0.10000000149011612,0 c0,0 0.10000000149011612,0 0.10000000149011612,0 c0.10000000149011612,0 0.10000000149011612,-0.10000000149011612 0.20000000298023224,-0.10000000149011612 c0,0 0,0 0.10000000149011612,0 l74.69999694824219,-43.099998474121094 c0.699999988079071,-0.4000000059604645 1,-1.600000023841858 0.5,-2.5 z" id="bottom-stripes"/>
     
    <circle cx="271.72625732421875" cy="358.51580810546875" r="2.299999952316284" id="bottom-dot-right" d="m 788.59999,366.70001 c 0,1.27026 -1.02975,2.3 -2.3,2.3 -1.27026,0 -2.3,-1.02974 -2.3,-2.3 0,-1.27025 1.02974,-2.3 2.3,-2.3 1.27025,0 2.3,1.02975 2.3,2.3 z"/>
    <circle id="bottom-dot-left" cx="108.22626495361328" cy="358.51580810546875" r="2.299999952316284" d="m 625.09999,366.70001 c 0,1.27026 -1.02975,2.3 -2.3,2.3 -1.27026,0 -2.3,-1.02974 -2.3,-2.3 0,-1.27025 1.02974,-2.3 2.3,-2.3 1.27025,0 2.3,1.02975 2.3,2.3 z"/>
  
  
    
    <!-- letters -->
    
    
  <!-- left 657.9,363.4 -->
  <text id="letter-left" x="144.42627918720245" y="360.81578946113586" font-size="16" transform="rotate(-35 143.32630920410188,355.215789794922) ">I</text>
  <!-- <path
  d="m 657.9,363.4 0,0 c -1.5,-2.6 -0.7,-5.8 2.1,-7.4 2.8,-1.6 6,-0.7 7.4,1.9 l 0,0 c 1.5,2.6 0.7,5.8 -2.1,7.4 -2.8,1.6 -6,0.7 -7.4,-1.9 z m 7.5,-4.3 0,0 c -0.9,-1.6 -2.8,-2.2 -4.4,-1.3 -1.6,0.9 -2,2.8 -1.1,4.4 l 0,0 c 0.9,1.5 2.8,2.2 4.4,1.3 1.6,-1 2,-2.9 1.1,-4.4 z"
  id="path4166"
  /> -->

  <!-- middle -->
  <text id="letter-middle" x="184.42627918720245" y="351.81578946113586" font-size="16">T</text>
  <!-- <path
   d="m 700,357.7 3.6,-8.2 c 0.3,-0.6 0.7,-0.9 1.3,-0.9 h 0.1 c 0.6,0 1.1,0.3 1.3,0.9 l 3.6,8.2 c 0.1,0.2 0.1,0.3 0.1,0.5 0,0.6 -0.5,1.1 -1.1,1.1 -0.5,0 -0.9,-0.3 -1.1,-0.8 l -0.7,-1.6 h -4.6 l -0.7,1.7 c -0.2,0.4 -0.6,0.7 -1.1,0.7 -0.6,0 -1.1,-0.5 -1.1,-1.1 0.3,-0.2 0.3,-0.4 0.4,-0.5 z m 6.4,-2.9 -1.4,-3.4 -1.4,3.4 h 2.8 z"
   id="path4168" />   -->
   
   <!-- right -->
   <text id="letter-right" x="229.92627918720245" y="356.81578946113586" font-size="16" transform="rotate(35 231.92628479003906,346.51580810546875) ">A</text>
     <!-- 
  <path
   d="m 746.5,354.7 c 0.4,-0.5 1.1,-0.7 1.6,-0.3 0.5,0.4 0.7,1.1 0.3,1.6 l -2,2.9 5.9,-1 c 0.4,-0.1 0.7,0 1,0.2 0.5,0.4 0.6,1 0.3,1.5 -0.2,0.3 -0.5,0.4 -0.8,0.5 l -4,0.6 0.3,5.1 c 0,0.3 0,0.6 -0.2,0.8 -0.4,0.5 -1,0.6 -1.6,0.3 -0.4,-0.3 -0.5,-0.6 -0.5,-1 l -0.2,-4.9 -1.8,0.3 -1.2,1.7 c -0.4,0.5 -1.1,0.7 -1.6,0.3 -0.5,-0.4 -0.7,-1.1 -0.3,-1.6 l 4.8,-7 z"
   id="path4170"/>
      -->
    <path d="M379.42627918720245,109.31578946113586 L193.82630360126495,2.215789020061493 c-2.0999999046325684,-1.2000000476837158 -4.699999809265137,-1.2000000476837158 -6.800000190734863,0 L1.4262791872024536,109.31578946113586 c-2.0999999046325684,1.2000000476837158 -3.4000000953674316,3.5 -3.4000000953674316,5.900000095367432 v214.3000030517578 c0,2.4000000953674316 1.2999999523162842,4.699999809265137 3.4000000953674316,5.900000095367432 l185.60000610351562,107.0999984741211 c1.100000023841858,0.6000000238418579 2.200000047683716,0.9000000953674316 3.4000000953674316,0.9000000953674316 c1.2000000476837158,0 2.4000000953674316,-0.30000001192092896 3.4000000953674316,-0.9000000953674316 L379.42627918720245,335.4157955646515 c2.0999999046325684,-1.2000000476837158 3.4000000953674316,-3.5 3.4000000953674316,-5.900000095367432 V115.21579098701477 c0,-2.4000000953674316 -1.2999999523162842,-4.699999809265137 -3.4000000953674316,-5.900000095367432 zM190.42627918720245,15.91578984260559 L369.2262669801712,119.11579251289368 v30.299999237060547 h-21.899999618530273 c-1.2999999523162842,0 -2.4000000953674316,1.100000023841858 -2.4000000953674316,2.4000000953674316 v7.099999904632568 h-27.100000381469727 v-55.20000076293945 c0,-1.2999999523162842 -1.100000023841858,-2.4000000953674316 -2.4000000953674316,-2.4000000953674316 H62.426279187202454 c-1.2999999523162842,0 -2.4000000953674316,1.100000023841858 -2.4000000953674316,2.4000000953674316 v55.20000076293945 H32.926279187202454 V151.81578946113586 c0,-1.2999999523162842 -1.100000023841858,-2.4000000953674316 -2.4000000953674316,-2.4000000953674316 H11.426279187202454 V119.11579251289368 L190.42627918720245,15.91578984260559 zm160.3000030517578,257.79998779296875 h16.100000381469727 v11.800000190734863 h-16.100000381469727 v-11.800000190734863 zm0,-4.800000190734863 v-11.800000190734863 h16.100000381469727 v11.800000190734863 h-16.100000381469727 zm18.5,-53.79999923706055 l-0.30000001192092896,-0.5 h0.30000001192092896 v0.5 zm-3,-5.300000190734863 l-2.5999999046325684,-4.5 h5.599999904632568 v4.5 h-3 zm-2.5999999046325684,-9.199999809265137 l3,-5.300000190734863 h2.5999999046325684 v5.300000190734863 h-5.599999904632568 zM369.2262669801712,181.51578640937805 L357.42627918720245,201.81578946113586 c0,0 0,0.10000000149011612 0,0.10000000149011612 c-0.10000000149011612,0.10000000149011612 -0.10000000149011612,0.30000001192092896 -0.20000000298023224,0.4000000059604645 c0,0 0,0.10000000149011612 0,0.10000000149011612 c0,0.20000000298023224 -0.10000000149011612,0.4000000059604645 -0.10000000149011612,0.6000000238418579 c0,0.20000000298023224 0,0.4000000059604645 0.10000000149011612,0.6000000238418579 c0,0 0,0.10000000149011612 0,0.10000000149011612 c0,0.10000000149011612 0.10000000149011612,0.30000001192092896 0.20000000298023224,0.4000000059604645 c0,0 0,0.10000000149011612 0,0.10000000149011612 l11.800000190734863,20.399999618530273 v27.799999237060547 H348.42627918720245 c-1.2999999523162842,0 -2.4000000953674316,1.100000023841858 -2.4000000953674316,2.4000000953674316 v16.5 v16.5 c0,1.2999999523162842 1.100000023841858,2.4000000953674316 2.4000000953674316,2.4000000953674316 h20.799999237060547 v23.100000381469727 H338.92627918720245 V173.11579251289368 h8.5 h21.899999618530273 v8.399999618530273 zm-355.29998779296875,13.899999618530273 l3,5.300000190734863 h-5.300000190734863 v-5.300000190734863 h2.299999952316284 zm3.0999999046325684,10 l-2.5999999046325684,4.400000095367432 h-2.700000047683716 v-4.5 h5.300000190734863 zm-5.300000190734863,9.199999809265137 l0,0 l0,0 l0,0 zM27.426279187202454,268.9157955646515 H13.726266980171204 V257.1157772541046 H27.426279187202454 v11.800000190734863 zm0,4.800000190734863 v11.800000190734863 H13.726266980171204 V273.71578335762024 H27.426279187202454 zm-15.699999809265137,16.5 h18.100000381469727 c1.2999999523162842,0 2.4000000953674316,-1.100000023841858 2.4000000953674316,-2.4000000953674316 V271.31578946113586 V254.81578946113586 c0,-1.2999999523162842 -1.100000023841858,-2.4000000953674316 -2.4000000953674316,-2.4000000953674316 h-18.100000381469727 v-28.299999237060547 l11.5,-19.899999618530273 c0,0 0,-0.10000000149011612 0,-0.10000000149011612 c0.10000000149011612,-0.10000000149011612 0.10000000149011612,-0.30000001192092896 0.20000000298023224,-0.4000000059604645 c0,0 0,-0.10000000149011612 0,-0.10000000149011612 c0,-0.20000000298023224 0.10000000149011612,-0.4000000059604645 0.10000000149011612,-0.6000000238418579 c0,-0.20000000298023224 0,-0.4000000059604645 -0.10000000149011612,-0.6000000238418579 c0,0 0,-0.10000000149011612 0,-0.10000000149011612 c0,-0.10000000149011612 -0.10000000149011612,-0.30000001192092896 -0.20000000298023224,-0.4000000059604645 c0,0 0,-0.10000000149011612 0,-0.10000000149011612 l-11.5,-19.899999618530273 v-8.899999618530273 h19.100000381469727 h8.5 v140.3000030517578 h-27.600000381469727 v-23.100000381469727 zm16.700000762939453,-129 v7.099999904632568 H11.726266980171204 V154.11579251289368 H28.426279187202454 v7.099999904632568 zm13.199999809265137,7.099999904632568 h-8.5 v-4.699999809265137 h27.100000381469727 V307.81578946113586 V313.31578946113586 H43.926279187202454 V170.71578335762024 c0,-1.2999999523162842 -1,-2.4000000953674316 -2.299999952316284,-2.4000000953674316 zm271.5,-7.099999904632568 v144.1999969482422 h-3.200000047683716 v-12.199999809265137 c0,-1.2999999523162842 -1.100000023841858,-2.4000000953674316 -2.4000000953674316,-2.4000000953674316 h-5.5 v-12.199999809265137 c0,-1.2999999523162842 -1.100000023841858,-2.4000000953674316 -2.4000000953674316,-2.4000000953674316 h-5.5 v-12.199999809265137 c0,-1.2999999523162842 -1.100000023841858,-2.4000000953674316 -2.4000000953674316,-2.4000000953674316 h-4.699999809265137 v-88.69999694824219 h4.699999809265137 c1.2999999523162842,0 2.4000000953674316,-1.100000023841858 2.4000000953674316,-2.4000000953674316 v-7.099999904632568 h5.5 c1.2999999523162842,0 2.4000000953674316,-1.100000023841858 2.4000000953674316,-2.4000000953674316 v-26 c0,-1.2999999523162842 -1.100000023841858,-2.4000000953674316 -2.4000000953674316,-2.4000000953674316 H82.32630360126495 c-1.2999999523162842,0 -2.4000000953674316,1.100000023841858 -2.4000000953674316,2.4000000953674316 v26 c0,1.2999999523162842 1.100000023841858,2.4000000953674316 2.4000000953674316,2.4000000953674316 h5.5 v7.099999904632568 c0,1.2999999523162842 1.100000023841858,2.4000000953674316 2.4000000953674316,2.4000000953674316 h4.699999809265137 v88.69999694824219 h-4.699999809265137 c-1.2999999523162842,0 -2.4000000953674316,1.100000023841858 -2.4000000953674316,2.4000000953674316 v12.199999809265137 h-5.5 c-1.2999999523162842,0 -2.4000000953674316,1.100000023841858 -2.4000000953674316,2.4000000953674316 V290.81578946113586 h-9.199999809265137 c-1.2999999523162842,0 -2.4000000953674316,1.100000023841858 -2.4000000953674316,2.4000000953674316 v12.199999809265137 h-3.4000000953674316 V161.21578335762024 V106.01578640937805 h248.1999969482422 v55.20000076293945 zm-215.89999389648438,7.099999904632568 h-4.699999809265137 v-4.699999809265137 h32.29999923706055 v4.699999809265137 h-4.699999809265137 c-1.2999999523162842,0 -2.4000000953674316,1.100000023841858 -2.4000000953674316,2.4000000953674316 v91 h-18.100000381469727 v-91 c0,-1.2999999523162842 -1.100000023841858,-2.4000000953674316 -2.4000000953674316,-2.4000000953674316 zm-12.600000381469727,-9.399999618530273 V137.61579251289368 H297.42627918720245 v21.299999237060547 h-5.5 h-36.20000076293945 h-128.5 h-37 h-5.599999904632568 zM282.42627918720245,170.71578335762024 v91 h-17.299999237060547 v-91 c0,-1.2999999523162842 -1.100000023841858,-2.4000000953674316 -2.4000000953674316,-2.4000000953674316 h-4.699999809265137 v-4.699999809265137 h31.5 v4.699999809265137 h-4.699999809265137 c-1.2999999523162842,0 -2.4000000953674316,1.100000023841858 -2.4000000953674316,2.4000000953674316 zm-69.0999984741211,69.30000305175781 h14.600000381469727 l-12.199999809265137,21.100000381469727 h-2.4000000953674316 v-21.100000381469727 zm17.399999618530273,-4.699999809265137 H213.42627918720245 v-14 h25.399999618530273 l-8.100000381469727,14 zm-17.399999618530273,-18.700000762939453 v-15.5 h16.399999618530273 l9,15.5 h-25.399999618530273 zm0,-20.299999237060547 V176.81578946113586 h2.4000000953674316 l11.199999809265137,19.5 h-13.600000381469727 zm-4.699999809265137,22.700000762939453 v42.099998474121094 H173.92627918720245 V237.71578335762024 V219.01578640937805 V198.71578335762024 V176.81578946113586 h34.70000076293945 v42.20000076293945 zM169.2262669801712,196.31578946113586 H155.92627918720245 L167.1262913942337,176.81578946113586 h2.0999999046325684 v19.5 zm-16.100000381469727,4.699999809265137 h16.100000381469727 v15.5 h-25 l8.899999618530273,-15.5 zm16.100000381469727,20.299999237060547 v14 h-17 l-8.100000381469727,-14 h25.100000381469727 zm0,18.700000762939453 v21.100000381469727 h-2.0999999046325684 l-12.199999809265137,-21.100000381469727 h14.300000190734863 zm75.69999694824219,-19.899999618530273 c0,0 0,0 0,0 c0.10000000149011612,-0.20000000298023224 0.20000000298023224,-0.30000001192092896 0.20000000298023224,-0.5 c0,0 0,-0.10000000149011612 0,-0.10000000149011612 c0,-0.20000000298023224 0.10000000149011612,-0.4000000059604645 0.10000000149011612,-0.6000000238418579 c0,-0.20000000298023224 0,-0.4000000059604645 -0.10000000149011612,-0.6000000238418579 c0,0 0,-0.10000000149011612 0,-0.10000000149011612 c0,-0.10000000149011612 -0.10000000149011612,-0.30000001192092896 -0.20000000298023224,-0.4000000059604645 c0,0 0,-0.10000000149011612 0,-0.10000000149011612 l-25.700000762939453,-44.5 c-0.4000000059604645,-0.699999988079071 -1.2000000476837158,-1.2000000476837158 -2,-1.2000000476837158 h-6.199999809265137 h-39.400001525878906 h-5.800000190734863 c-0.800000011920929,0 -1.600000023841858,0.5 -2,1.2000000476837158 L138.02625477313995,217.81578946113586 c0,0 0,0.10000000149011612 0,0.10000000149011612 c-0.10000000149011612,0.10000000149011612 -0.10000000149011612,0.30000001192092896 -0.20000000298023224,0.4000000059604645 c0,0 0,0.10000000149011612 0,0.10000000149011612 c0,0.20000000298023224 -0.10000000149011612,0.4000000059604645 -0.10000000149011612,0.6000000238418579 c0,0.20000000298023224 0,0.4000000059604645 0.10000000149011612,0.6000000238418579 c0,0 0,0.10000000149011612 0,0.10000000149011612 c0,0.10000000149011612 0.10000000149011612,0.30000001192092896 0.20000000298023224,0.4000000059604645 c0,0 0,0.10000000149011612 0,0.10000000149011612 l24,41.599998474121094 H122.42627918720245 v-88.69999694824219 h4.699999809265137 c1.2999999523162842,0 2.4000000953674316,-1.100000023841858 2.4000000953674316,-2.4000000953674316 v-7.099999904632568 h123.69999694824219 v7.099999904632568 c0,1.2999999523162842 1.100000023841858,2.4000000953674316 2.4000000953674316,2.4000000953674316 h4.699999809265137 V261.81578946113586 h-39.5 l24.100000381469727,-41.70000076293945 zm39.900001525878906,46.29999923706055 h4.699999809265137 v9.899999618530273 h-197 v-9.899999618530273 h4.699999809265137 h187.60000610351562 zm7.099999904632568,14.600000381469727 h5.5 v9.899999618530273 H84.6262913942337 v-9.899999618530273 h5.5 h201.8000030517578 zm7.800000190734863,14.600000381469727 h5.5 v9.899999618530273 H73.1262913942337 v-9.899999618530273 h9.199999809265137 h217.39999389648438 zm-234.8000030517578,20.100000381469727 v-5.5 h5.800000190734863 h236.89999389648438 h5.5 v5.5 v4.300000190734863 H64.92627918720245 v-4.300000190734863 zm253,-7.900000095367432 V163.61579251289368 h27.100000381469727 v4.699999809265137 h-8.5 c-1.2999999523162842,0 -2.4000000953674316,1.100000023841858 -2.4000000953674316,2.4000000953674316 V313.31578946113586 H317.82630360126495 V307.81578946113586 zm31.799999237060547,-139.5 v-7.099999904632568 v-7.099999904632568 h19.5 v14.199999809265137 H349.7262669801712 zM190.42627918720245,428.81578946113586 L11.726266980171204,325.6157772541046 v-7.5 h29.899999618530273 h0 h18.600000381469727 v4.300000190734863 c0,1.2999999523162842 1.100000023841858,2.4000000953674316 2.4000000953674316,2.4000000953674316 h253 c1.2999999523162842,0 2.4000000953674316,-1.100000023841858 2.4000000953674316,-2.4000000953674316 v-4.300000190734863 h18.600000381469727 h0 h32.70000076293945 v7.5 L190.42627918720245,428.81578946113586 z" id="rest-of-the-fucking-owl"/>
     
    <g id="nodeschool-banner">
      <path id="a" d="m123.52625477313995,126.41579556465149 c0.800000011920929,0 1.399999976158142,-0.6000000238418579 1.399999976158142,-1.399999976158142 v-7.099999904632568 l5.800000190734863,7.599999904632568 c0.4000000059604645,0.5 0.800000011920929,0.9000000953674316 1.5,0.9000000953674316 h0.10000000149011612 c0.800000011920929,0 1.5,-0.6000000238418579 1.5,-1.5 v-10.5 c0,-0.800000011920929 -0.6000000238418579,-1.399999976158142 -1.399999976158142,-1.399999976158142 c-0.800000011920929,0 -1.399999976158142,0.6000000238418579 -1.399999976158142,1.399999976158142 v6.800000190734863 L125.42627918720245,113.81578946113586 c-0.4000000059604645,-0.5 -0.800000011920929,-0.9000000953674316 -1.5,-0.9000000953674316 h-0.30000001192092896 c-0.800000011920929,0 -1.5,0.6000000238418579 -1.5,1.5 v10.5 c0,0.9000000953674316 0.6000000238418579,1.5 1.399999976158142,1.5 z"/>
      <path d="m143.42627918720245,126.51578640937805 c4.099999904632568,0 7.099999904632568,-3.0999999046325684 7.099999904632568,-6.800000190734863 v0 c0,-3.799999952316284 -2.9000000953674316,-6.800000190734863 -7,-6.800000190734863 c-4.099999904632568,0 -7.099999904632568,3.0999999046325684 -7.099999904632568,6.800000190734863 v0 c0,3.799999952316284 2.9000000953674316,6.800000190734863 7,6.800000190734863 zm-3.9000000953674316,-6.800000190734863 c0,-2.299999952316284 1.600000023841858,-4.099999904632568 4,-4.099999904632568 c2.299999952316284,0 4,1.9000000953674316 4,4.199999809265137 v0 c0,2.299999952316284 -1.600000023841858,4.099999904632568 -4,4.099999904632568 c-2.4000000953674316,-0.10000000149011612 -4,-1.9000000953674316 -4,-4.199999809265137 l0,0 z" id="svg_1"/>
      <path d="m154.52625477313995,126.31578946113586 h3.700000047683716 c4.199999809265137,0 7,-2.9000000953674316 7,-6.599999904632568 v0 c0,-3.700000047683716 -2.9000000953674316,-6.599999904632568 -7,-6.599999904632568 h-3.700000047683716 c-0.800000011920929,0 -1.5,0.6000000238418579 -1.5,1.5 V124.81578946113586 c0.10000000149011612,0.9000000953674316 0.699999988079071,1.5 1.5,1.5 zm1.5,-10.600000381469727 h2.200000047683716 c2.4000000953674316,0 4,1.600000023841858 4,4 v0 c0,2.299999952316284 -1.600000023841858,4 -4,4 h-2.200000047683716 v-8 z" id="svg_2"/>
      <path d="m169.32630360126495,126.31578946113586 h7.400000095367432 c0.699999988079071,0 1.2999999523162842,-0.6000000238418579 1.2999999523162842,-1.2999999523162842 c0,-0.699999988079071 -0.6000000238418579,-1.2999999523162842 -1.2999999523162842,-1.2999999523162842 h-6 v-2.799999952316284 h5 c0.699999988079071,0 1.2999999523162842,-0.6000000238418579 1.2999999523162842,-1.2999999523162842 c0,-0.699999988079071 -0.6000000238418579,-1.2999999523162842 -1.2999999523162842,-1.2999999523162842 h-5 v-2.700000047683716 h5.900000095367432 c0.699999988079071,0 1.2999999523162842,-0.6000000238418579 1.2999999523162842,-1.2999999523162842 c0,-0.699999988079071 -0.6000000238418579,-1.2999999523162842 -1.2999999523162842,-1.2999999523162842 h-7.300000190734863 c-0.800000011920929,0 -1.5,0.6000000238418579 -1.5,1.5 V124.81578946113586 c0.10000000149011612,0.9000000953674316 0.699999988079071,1.5 1.5,1.5 z" id="svg_3"/>
      <path d="m180.32630360126495,124.91579556465149 c1.5,1.100000023841858 3.200000047683716,1.600000023841858 5,1.600000023841858 c2.9000000953674316,0 4.900000095367432,-1.5 4.900000095367432,-4.099999904632568 v0 c0,-2.299999952316284 -1.5,-3.299999952316284 -4.199999809265137,-4 c-2.299999952316284,-0.6000000238418579 -2.9000000953674316,-0.9000000953674316 -2.9000000953674316,-1.7000000476837158 v0 c0,-0.6000000238418579 0.6000000238418579,-1.2000000476837158 1.7000000476837158,-1.2000000476837158 c0.9000000953674316,0 1.7999999523162842,0.30000001192092896 2.799999952316284,0.9000000953674316 c0.20000000298023224,0.10000000149011612 0.5,0.20000000298023224 0.699999988079071,0.20000000298023224 c0.800000011920929,0 1.399999976158142,-0.6000000238418579 1.399999976158142,-1.2999999523162842 c0,-0.6000000238418579 -0.30000001192092896,-1 -0.6000000238418579,-1.2000000476837158 c-1.2000000476837158,-0.800000011920929 -2.5999999046325684,-1.2000000476837158 -4.199999809265137,-1.2000000476837158 c-2.700000047683716,0 -4.599999904632568,1.600000023841858 -4.599999904632568,4 v0 c0,2.5999999046325684 1.7000000476837158,3.4000000953674316 4.400000095367432,4 c2.200000047683716,0.6000000238418579 2.700000047683716,0.9000000953674316 2.700000047683716,1.7000000476837158 v0 c0,0.800000011920929 -0.699999988079071,1.2000000476837158 -1.9000000953674316,1.2000000476837158 c-1.2999999523162842,0 -2.4000000953674316,-0.5 -3.4000000953674316,-1.2000000476837158 c-0.20000000298023224,-0.10000000149011612 -0.5,-0.30000001192092896 -0.800000011920929,-0.30000001192092896 c-0.800000011920929,0 -1.399999976158142,0.6000000238418579 -1.399999976158142,1.2999999523162842 c-0.20000000298023224,0.699999988079071 0.10000000149011612,1.100000023841858 0.4000000059604645,1.2999999523162842 z" id="svg_4"/>
      <path d="m198.82630360126495,126.51578640937805 c2.0999999046325684,0 3.5,-0.6000000238418579 4.699999809265137,-1.7000000476837158 c0.30000001192092896,-0.20000000298023224 0.5,-0.6000000238418579 0.5,-1 c0,-0.699999988079071 -0.6000000238418579,-1.2999999523162842 -1.399999976158142,-1.2999999523162842 c-0.30000001192092896,0 -0.6000000238418579,0.10000000149011612 -0.9000000953674316,0.30000001192092896 c-0.800000011920929,0.699999988079071 -1.600000023841858,1 -2.9000000953674316,1 c-2.299999952316284,0 -3.799999952316284,-1.9000000953674316 -3.799999952316284,-4.199999809265137 v0 c0,-2.299999952316284 1.600000023841858,-4.099999904632568 3.799999952316284,-4.099999904632568 c1,0 1.9000000953674316,0.30000001192092896 2.700000047683716,0.9000000953674316 c0.20000000298023224,0.10000000149011612 0.5,0.30000001192092896 0.9000000953674316,0.30000001192092896 c0.800000011920929,0 1.399999976158142,-0.6000000238418579 1.399999976158142,-1.399999976158142 c0,-0.5 -0.30000001192092896,-0.9000000953674316 -0.6000000238418579,-1.2000000476837158 c-1.100000023841858,-0.800000011920929 -2.4000000953674316,-1.2999999523162842 -4.400000095367432,-1.2999999523162842 c-4.099999904632568,0 -6.900000095367432,3.0999999046325684 -6.900000095367432,6.800000190734863 v0 c0.20000000298023224,3.9000000953674316 3.0999999046325684,6.900000095367432 6.900000095367432,6.900000095367432 z" id="svg_5"/>
      <path d="m208.1262913942337,126.41579556465149 c0.800000011920929,0 1.5,-0.6000000238418579 1.5,-1.5 v-4 h5.400000095367432 v4 c0,0.800000011920929 0.6000000238418579,1.5 1.5,1.5 c0.800000011920929,0 1.5,-0.6000000238418579 1.5,-1.5 v-10.5 c0,-0.800000011920929 -0.6000000238418579,-1.5 -1.5,-1.5 c-0.800000011920929,0 -1.5,0.6000000238418579 -1.5,1.5 v3.9000000953674316 h-5.400000095367432 v-3.9000000953674316 c0,-0.800000011920929 -0.6000000238418579,-1.5 -1.5,-1.5 c-0.800000011920929,0 -1.5,0.6000000238418579 -1.5,1.5 v10.5 c0,0.9000000953674316 0.6000000238418579,1.5 1.5,1.5 z" id="svg_6"/>
      <path d="m227.42627918720245,126.51578640937805 c4.099999904632568,0 7,-3.0999999046325684 7,-6.800000190734863 v0 c0,-3.799999952316284 -2.9000000953674316,-6.800000190734863 -7,-6.800000190734863 c-4.099999904632568,0 -7.099999904632568,3.0999999046325684 -7.099999904632568,6.800000190734863 v0 c0.10000000149011612,3.799999952316284 3,6.800000190734863 7.099999904632568,6.800000190734863 zm-4,-6.800000190734863 c0,-2.299999952316284 1.600000023841858,-4.099999904632568 4,-4.099999904632568 c2.299999952316284,0 4,1.9000000953674316 4,4.199999809265137 v0 c0,2.299999952316284 -1.600000023841858,4.099999904632568 -4,4.099999904632568 c-2.299999952316284,-0.10000000149011612 -4,-1.9000000953674316 -4,-4.199999809265137 l0,0 z" id="svg_7"/>
      <path d="m243.52625477313995,126.51578640937805 c4.099999904632568,0 7.099999904632568,-3.0999999046325684 7.099999904632568,-6.800000190734863 v0 c0,-3.799999952316284 -2.9000000953674316,-6.800000190734863 -7,-6.800000190734863 c-4.099999904632568,0 -7.099999904632568,3.0999999046325684 -7.099999904632568,6.800000190734863 v0 c0,3.799999952316284 2.9000000953674316,6.800000190734863 7,6.800000190734863 zm-4,-6.800000190734863 c0,-2.299999952316284 1.600000023841858,-4.099999904632568 4,-4.099999904632568 c2.299999952316284,0 4,1.9000000953674316 4,4.199999809265137 v0 c0,2.299999952316284 -1.600000023841858,4.099999904632568 -4,4.099999904632568 c-2.299999952316284,-0.10000000149011612 -4,-1.9000000953674316 -4,-4.199999809265137 l0,0 z" id="svg_8"/>
      <path d="m254.6262913942337,126.31578946113586 h6.800000190734863 c0.699999988079071,0 1.2999999523162842,-0.6000000238418579 1.2999999523162842,-1.2999999523162842 c0,-0.699999988079071 -0.6000000238418579,-1.2999999523162842 -1.2999999523162842,-1.2999999523162842 h-5.400000095367432 v-9.199999809265137 c0,-0.800000011920929 -0.6000000238418579,-1.5 -1.5,-1.5 c-0.800000011920929,0 -1.5,0.6000000238418579 -1.5,1.5 V124.81578946113586 c0.10000000149011612,0.9000000953674316 0.800000011920929,1.5 1.600000023841858,1.5 z" id="svg_9"/>
   </g>
  </g></g></svg>