<svg xmlns="http://www.w3.org/2000/svg" viewBox="0 0 408.5 471.7" enable-background="new 0 0 408.5 471.7"><polygon fill="#FCF4DA" points="408.5,353.8 204.3,471.7 0,353.8 0,117.9 204.3,0 408.5,117.9"/><polygon fill="#EF3D30" points="386.4,332.1 386.4,345 204,450.3 22.1,346.8 22.1,332.1 203.8,436.2"/><path fill="#EF3D30" d="M368 322.7l16.3 9.4-180.1 104-180.1-104 16.3-9.4 163 94.1.5.3.5-.3 163.6-94.1m-327.5-1.2l-18.3 10.6 182.1 105.1 182.1-105.1-18.4-10.6-164 94.4-163.5-94.4z"/><path fill="#EF3D30" d="M318 280.7l48 28.5-161.8 93.4-161.8-93.4 48-28.5 22.3 12.9.2.1h.3l181.6-.4h.3l.2-.1 22.7-12.5m.1-1.2l-23.3 12.8-181.6.4-22.8-13.2-50 29.7 163.8 94.6 163.8-94.6-49.9-29.7z"/><polygon fill="#EF3D30" points="368,309.2 368,321.5 204.2,416.1 40.5,321.5 40.5,309.2 204.2,403.2"/><polygon fill="#F26C66" points="76,96.8 203.8,22.8 332.5,96.8 306.2,110 102.5,110"/><polygon fill="#EF3D30" points="76,288.6 76,96.8 102.5,110 306,110 332.5,96.8 332.5,288.8 306,301.9 102.5,301.9"/><rect x="163.1" y="203.1" fill="#FCF4DA" width="79" height="102.5"/><path d="M112 164.9v-22.9h3.3l5 11.9v-11.9h3.8v22.8h-3.2l-5-12.7v12.7h-3.9zm15.9-7.5v-7.7c0-5.4 2.2-8.1 6.7-8.1s6.7 2.7 6.7 8.1v7.6c0 .9-.1 1.8-.2 2.5-.1.8-.4 1.5-.7 2.2s-.7 1.3-1.2 1.8-1.1.9-1.9 1.1c-.8.3-1.6.4-2.6.4s-1.9-.1-2.6-.4c-.8-.3-1.4-.6-1.9-1.1-.5-.5-.9-1-1.2-1.7-.3-.7-.6-1.4-.7-2.2-.4-.8-.4-1.6-.4-2.5zm8.7 1v-9.9c0-2.2-.7-3.4-2.1-3.4-.4 0-.8.1-1.1.3s-.5.5-.6.8l-.3 1.1s-.1.7-.1 1.1v9.9c0 2.2.7 3.4 2.1 3.4 1.4.1 2.1-1.1 2.1-3.3zm8.3 6.5v-22.9h4.8c1.5 0 2.8.1 3.8.4 1 .3 1.8.7 2.3 1.4.6.6 1 1.4 1.2 2.3.2.9.3 2 .3 3.4v7.5c0 .8 0 1.5-.1 2.1s-.1 1.2-.3 1.8c-.1.6-.3 1.1-.6 1.5-.2.4-.6.8-.9 1.1s-.8.6-1.4.8c-.5.2-1.2.4-1.9.5-.7.1-1.6.2-2.5.2h-4.7zm4.8-3.3h1c.3 0 .5 0 .8-.1.3-.1.4-.1.6-.2.1-.1.2-.2.3-.4.1-.2.2-.4.2-.6v-13.2c0-.8-.2-1.3-.7-1.5-.4-.2-1.2-.4-2.3-.4v16.4zm11.3 3.3v-22.9h9.5v3.2h-4.9v6.2h3.5v3.2h-3.5v7h4.9v3.2h-9.5zm11.7-6.6l4.7-.9v1.2c0 .4.1.7.1 1.2s.2.8.3 1c.1.3.3.5.5.7s.5.3.8.3c.9 0 1.4-.6 1.4-1.8 0-1.6-.9-3.2-2.7-4.8l-1.4-1.2c-.5-.4-.8-.7-1.1-1l-1-1c-.4-.4-.7-.8-.9-1.2s-.4-.9-.5-1.5-.2-1.2-.2-1.8c0-1.9.6-3.3 1.8-4.4 1.2-1.1 2.7-1.6 4.7-1.6 1.6 0 3 .6 4.1 1.7s1.7 2.5 1.7 4.2v.6l-4.8.7v-.9c0-.3 0-.6-.1-.9 0-.3-.1-.6-.2-.8-.1-.3-.2-.5-.5-.7-.2-.2-.4-.2-.7-.2-.5 0-.9.2-1.1.6-.3.4-.4.9-.4 1.4 0 .5.1.9.2 1.3s.4.8.7 1.2c.3.4.6.7.8.9.3.2.6.5 1 .9.4.3.7.6.9.8.7.6 1.2 1.1 1.6 1.6.4.5.9 1.1 1.3 1.7.4.6.7 1.3.9 2.1.2.7.3 1.5.3 2.4 0 1.6-.6 2.9-1.7 3.9s-2.5 1.5-4.2 1.5c-1.1 0-2-.2-2.8-.6-.8-.4-1.5-.9-2-1.6-.5-.7-.9-1.4-1.2-2.2-.1-1-.3-1.8-.3-2.8zm15.1-1.1v-7.6c0-5.4 2.2-8.1 6.6-8.1.9 0 1.8.1 2.5.4.7.2 1.3.6 1.8 1s.9 1 1.2 1.6c.3.6.5 1.3.7 2.1.1.8.2 1.6.2 2.5v2h-4.5v-3.2c0-.3-.1-.6-.1-1-.1-.4-.2-.7-.3-.9-.1-.2-.3-.4-.5-.6-.2-.2-.5-.3-.9-.3-1.3 0-2 1.1-2 3.4v9.9c0 2.2.7 3.4 2 3.4.4 0 .7-.1 1-.3.3-.2.5-.6.6-1 .1-.4.2-.8.2-1.2 0-.4.1-.9.1-1.4v-2.3h4.5v1.9c0 .9-.1 1.7-.2 2.4s-.3 1.5-.6 2.1-.7 1.3-1.2 1.8-1.1.9-1.8 1.2-1.6.4-2.6.4-1.9-.1-2.6-.4c-.8-.3-1.4-.7-1.9-1.1-.5-.5-.9-1.1-1.2-1.8-.3-.7-.5-1.4-.7-2.2-.2-.9-.3-1.7-.3-2.7zm16.5 7.7v-22.9h4.6v9.4h3.3v-9.4h4.6v22.8h-4.6v-10.2h-3.3v10.2h-4.6zm16.3-7.5v-7.7c0-5.4 2.2-8.1 6.7-8.1s6.7 2.7 6.7 8.1v7.6c0 .9-.1 1.8-.2 2.5-.1.8-.4 1.5-.7 2.2-.3.7-.7 1.3-1.2 1.8s-1.1.9-1.9 1.1c-.8.3-1.6.4-2.6.4s-1.9-.1-2.6-.4c-.8-.3-1.4-.6-1.9-1.1s-.9-1-1.2-1.7c-.3-.7-.6-1.4-.7-2.2-.3-.8-.4-1.6-.4-2.5zm8.7 1v-9.9c0-2.2-.7-3.4-2.1-3.4-.4 0-.8.1-1.1.3-.3.2-.5.5-.6.8l-.3 1.1c-.1.4-.1.7-.1 1.1v9.9c0 2.2.7 3.4 2.1 3.4 1.4.1 2.1-1.1 2.1-3.3zm8.1-1v-7.7c0-5.4 2.2-8.1 6.7-8.1s6.7 2.7 6.7 8.1v7.6c0 .9-.1 1.8-.2 2.5-.1.8-.4 1.5-.7 2.2-.3.7-.7 1.3-1.2 1.8s-1.1.9-1.9 1.1c-.8.3-1.6.4-2.6.4s-1.9-.1-2.6-.4c-.8-.3-1.4-.6-1.9-1.1s-.9-1-1.2-1.7c-.3-.7-.6-1.4-.7-2.2-.4-.8-.4-1.6-.4-2.5zm8.7 1v-9.9c0-2.2-.7-3.4-2.1-3.4-.4 0-.8.1-1.1.3-.3.2-.5.5-.6.8l-.3 1.1c-.1.4-.1.7-.1 1.1v9.9c0 2.2.7 3.4 2.1 3.4 1.4.1 2.1-1.1 2.1-3.3zm8.4 6.5v-22.9h4.6v19.7h4.5v3.2h-9.1zm11.8 0v-4h4.1v4h-4.1zm8 0v-22.9h4.6v22.8h-4.6zm8.3-7.5v-7.7c0-5.4 2.2-8.1 6.7-8.1s6.7 2.7 6.7 8.1v7.6c0 .9-.1 1.8-.2 2.5-.1.8-.4 1.5-.7 2.2-.3.7-.7 1.3-1.2 1.8s-1.1.9-1.9 1.1c-.8.3-1.6.4-2.6.4s-1.9-.1-2.6-.4c-.8-.3-1.4-.6-1.9-1.1s-.9-1-1.2-1.7c-.3-.7-.6-1.4-.7-2.2-.3-.8-.4-1.6-.4-2.5zm8.8 1v-9.9c0-2.2-.7-3.4-2.1-3.4-.4 0-.8.1-1.1.3-.3.2-.5.5-.6.8l-.3 1.1c-.1.4-.1.7-.1 1.1v9.9c0 2.2.7 3.4 2.1 3.4 1.4.1 2.1-1.1 2.1-3.3z" fill="#FCF4DA"/><rect x="118.5" y="186.1" fill="#FCF4DA" width="27.1" height="5.4"/><rect x="259.9" y="186.1" fill="#FCF4DA" width="27.1" height="5.4"/><rect x="201.6" y="202" fill="#D52827" width="2" height="99.9"/><path fill="#D52827" d="M241.1 203.3v96.7h-77v-96.7h77m2-2h-81v100.7h81v-100.7z"/><polygon fill="#FCF4DA" points="76,170.7 76,159.2 102.5,172.5 306,172.5 332.5,159.2 332.5,171 306,184 102.5,184"/><polygon fill="#D52827" points="75.9,173.3 75.9,169.8 102.4,183 305.9,183 332.4,169.8 332.4,173.6 305.9,186.6 102.4,186.6"/><polygon fill="#D52827" points="75.9,288.5 75.9,287 102.4,300.2 305.9,300.2 332.4,287 332.4,288.7 305.9,301.8 102.4,301.8"/><polygon fill="#FCF4DA" points="76,119.2 76,107.7 102.5,121 306,121 332.5,107.7 332.5,119.5 306,132.5 102.5,132.5"/><rect x="267.1" y="191.5" fill="#FCF4DA" width="12.6" height="111.5"/><polygon fill="#D52827" points="75.9,121.8 75.9,118.3 102.4,131.5 305.9,131.5 332.4,118.3 332.4,122.1 305.9,135.1 102.4,135.1"/><rect x="124.9" y="191.5" fill="#FCF4DA" width="12.6" height="111.5"/><line stroke="#EF3D30" stroke-miterlimit="10" x1="270.8" y1="191.6" x2="270.8" y2="301.8" fill="none"/><line stroke="#EF3D30" stroke-miterlimit="10" x1="276.1" y1="191.6" x2="276.1" y2="301.8" fill="none"/><polyline stroke="#D52827" stroke-width="2" stroke-miterlimit="10" points="145.2,186.1 145.2,192.5 138,192.5 138,301.8" fill="none"/><polyline stroke="#D52827" stroke-width="2" stroke-miterlimit="10" points="287,186.1 287,192.5 280.7,192.5 280.7,301.8" fill="none"/><polygon fill="#D52827" points="75.9,100.3 75.9,96.8 102.4,110 305.9,110 332.4,96.8 332.4,100.5 305.9,113.6 102.4,113.6"/><polyline stroke="#D52827" stroke-width="2" stroke-miterlimit="10" points="266.2,301.8 266.2,192.6 259.9,192.6 259.9,184.8" fill="none"/><polyline stroke="#D52827" stroke-width="2" stroke-miterlimit="10" points="124.3,301.8 124.3,192.6 117.9,192.6 117.9,184.8" fill="none"/><line stroke="#EF3D30" stroke-miterlimit="10" x1="128.5" y1="191.4" x2="128.5" y2="301.8" fill="none"/><line stroke="#EF3D30" stroke-miterlimit="10" x1="133.9" y1="191.4" x2="133.9" y2="301.8" fill="none"/></svg>