<?xml version="1.0" standalone="no"?><!DOCTYPE svg PUBLIC "-//W3C//DTD SVG 1.1//EN" "http://www.w3.org/Graphics/SVG/1.1/DTD/svg11.dtd"><svg width="100%" height="100%" viewBox="0 0 126 144" version="1.1" xmlns="http://www.w3.org/2000/svg" xmlns:xlink="http://www.w3.org/1999/xlink" xml:space="preserve" style="fill-rule:evenodd;clip-rule:evenodd;stroke-miterlimit:1.41421;"><g><path d="M2.069,38.948l0.941,69.275l59.739,34.637l60.681,-34.163l0.47,-69.749l-60.681,-37.009l-61.15,37.009Z" style="fill:#f9d729;fill-rule:nonzero;"/><path d="M87.683,25.34l-24.722,-14.266c-0.033,-0.033 -0.065,-0.033 -0.098,-0.033l-0.032,0l-0.033,0c-0.033,0 -0.065,0 -0.098,0l-0.032,0l-0.033,0c-0.032,0 -0.097,0 -0.13,0c-0.033,0 -0.065,0.033 -0.098,0.033l-24.331,14.038c-0.293,0.163 -0.391,0.521 -0.228,0.815c0.163,0.293 0.554,0.39 0.814,0.228l21.628,-12.475l-9.185,11.725c-0.196,0.261 -0.163,0.652 0.097,0.847c0.261,0.196 0.652,0.163 0.847,-0.097l10.032,-12.801l0,12.507c0,0.326 0.261,0.619 0.619,0.619c0.359,0 0.619,-0.26 0.619,-0.619l0,-12.507l10.032,12.801c0.131,0.162 0.293,0.228 0.489,0.228c0.13,0 0.26,-0.033 0.358,-0.131c0.261,-0.195 0.293,-0.586 0.098,-0.847l-9.185,-11.725l22.018,12.703c0.098,0.065 0.196,0.065 0.293,0.065c0.196,0 0.424,-0.098 0.521,-0.293c0.131,-0.261 0.033,-0.652 -0.26,-0.815Z" style="fill:#1b4ba0;fill-rule:nonzero;"/><path d="M87.52,117.487c-0.163,-0.294 -0.554,-0.391 -0.814,-0.228l-21.595,12.475l9.185,-11.726c0.195,-0.261 0.163,-0.652 -0.098,-0.847c-0.26,-0.196 -0.651,-0.163 -0.847,0.098l-10.032,12.801l0,-13.722c0,-0.326 -0.26,-0.619 -0.619,-0.619c-0.358,0 -0.619,0.26 -0.619,0.619l0,13.722l-10.032,-12.801c-0.195,-0.261 -0.586,-0.294 -0.847,-0.098c-0.26,0.195 -0.293,0.586 -0.097,0.847l9.185,11.726l-22.019,-12.703c-0.293,-0.163 -0.651,-0.066 -0.814,0.228c-0.163,0.293 -0.065,0.651 0.228,0.814l24.722,14.266l0.033,0c0.032,0 0.032,0.033 0.065,0.033l0.098,0c0.032,0 0.097,0.032 0.13,0.032c0.065,0 0.098,0 0.13,-0.032l0.065,0c0.033,0 0.033,-0.033 0.065,-0.033l0.033,0l24.331,-14.038c0.228,-0.13 0.326,-0.521 0.163,-0.814Z" style="fill:#1b4ba0;fill-rule:nonzero;"/><path d="M89.149,115.597c0.413,0 0.749,0.336 0.749,0.75c0,0.413 -0.336,0.749 -0.749,0.749c-0.414,0 -0.75,-0.336 -0.75,-0.749c0,-0.414 0.336,-0.75 0.75,-0.75Z" style="fill:#1b4ba0;fill-rule:nonzero;"/><path d="M35.894,115.597c0.413,0 0.749,0.336 0.749,0.75c0,0.413 -0.336,0.749 -0.749,0.749c-0.414,0 -0.749,-0.336 -0.749,-0.749c0,-0.414 0.335,-0.75 0.749,-0.75Z" style="fill:#1b4ba0;fill-rule:nonzero;"/><path d="M120.94,105.63l-58.272,33.615l-58.206,-33.615l-0.098,-67.261l58.304,-33.614l58.24,33.614l-0.072,31.107l0.072,0l0,0.163l-0.072,-0.119l0.104,36.11ZM124.23,35.177l-60.455,-34.884c-0.684,-0.391 -1.531,-0.391 -2.215,0l-60.453,34.884c-0.684,0.391 -1.107,1.14 -1.107,1.922l0,69.802c0,0.781 0.423,1.531 1.107,1.921l60.453,34.885c0.359,0.195 0.717,0.293 1.108,0.293c0.391,0 0.781,-0.098 1.107,-0.293l60.455,-34.885c0.684,-0.39 1.107,-1.14 1.107,-1.921l0,-69.802c0,-0.782 -0.423,-1.531 -1.107,-1.922Z" style="fill:#1b4ba0;fill-rule:nonzero;"/><path d="M84.295,66.943c0,1.007 -0.865,1.823 -1.933,1.823c-1.068,0 -1.935,-0.816 -1.935,-1.823c0,-1.008 0.867,-1.824 1.935,-1.824c1.068,0 1.933,0.816 1.933,1.824Z" style="fill:#1b4ba0;fill-rule:nonzero;"/><path d="M34.269,86.622l6.398,-0.033l-0.021,3.505l-6.398,0.033l0.021,-3.505Z" style="fill:none;stroke-width:1.4px;stroke:#1b4ba0;"/><rect x="55.625" y="74.242" width="2.089" height="2.388" style="fill:#1b4ba0;fill-rule:nonzero;"/><rect x="59.598" y="74.242" width="2.089" height="2.388" style="fill:#1b4ba0;fill-rule:nonzero;"/><rect x="63.571" y="74.242" width="2.089" height="2.388" style="fill:#1b4ba0;fill-rule:nonzero;"/><rect x="59.576" y="69.157" width="2.09" height="2.122" style="fill:#1b4ba0;fill-rule:nonzero;"/><rect x="63.549" y="69.157" width="2.09" height="2.122" style="fill:#1b4ba0;fill-rule:nonzero;"/><rect x="67.543" y="74.242" width="2.09" height="2.388" style="fill:#1b4ba0;fill-rule:nonzero;"/><rect x="55.625" y="79.198" width="2.089" height="2.389" style="fill:#1b4ba0;fill-rule:nonzero;"/><rect x="59.598" y="79.198" width="2.089" height="2.389" style="fill:#1b4ba0;fill-rule:nonzero;"/><rect x="63.571" y="79.198" width="2.089" height="2.389" style="fill:#1b4ba0;fill-rule:nonzero;"/><rect x="67.543" y="79.198" width="2.09" height="2.389" style="fill:#1b4ba0;fill-rule:nonzero;"/><rect x="55.625" y="84.155" width="2.089" height="2.388" style="fill:#1b4ba0;fill-rule:nonzero;"/><rect x="80.022" y="84.544" width="2.09" height="2.388" style="fill:#1b4ba0;fill-rule:nonzero;"/><rect x="80.022" y="89.501" width="2.09" height="2.388" style="fill:#1b4ba0;fill-rule:nonzero;"/><rect x="80.022" y="94.457" width="2.09" height="2.388" style="fill:#1b4ba0;fill-rule:nonzero;"/><rect x="59.598" y="84.155" width="2.089" height="2.388" style="fill:#1b4ba0;fill-rule:nonzero;"/><rect x="63.571" y="84.155" width="2.089" height="2.388" style="fill:#1b4ba0;fill-rule:nonzero;"/><path d="M120.908,69.639l0,-0.163l-0.072,0l0,0.044l0.072,0.119Z" style="fill:none;stroke-width:0.31px;stroke:#1b4ba0;"/><path d="M11.648,104.756c1.242,0 2.303,-0.779 2.72,-1.875" style="fill:none;stroke-width:1.25px;stroke:#1b4ba0;"/><path d="M14.368,102.881c0.418,1.096 1.478,1.875 2.721,1.875c1.225,0 2.273,-0.758 2.703,-1.83" style="fill:none;stroke-width:1.4px;stroke:#1b4ba0;"/><path d="M19.792,102.926c0.429,1.072 1.477,1.83 2.702,1.83" style="fill:none;stroke-width:1.4px;stroke:#1b4ba0;"/><path d="M33.499,70.128c-0.876,-1.991 -2.762,-1.281 -2.856,-1.272c0.016,-0.118 0.025,-0.239 0.025,-0.362c0,-1.431 -1.16,-2.592 -2.592,-2.592c-0.765,0 -1.453,0.332 -1.928,0.86c-0.66,-1.356 -2.05,-2.29 -3.659,-2.29c-2.246,0 -4.067,1.821 -4.067,4.067c0,0.356 0.046,0.702 0.132,1.032c-1.516,0.071 -2.724,1.322 -2.724,2.857c0,1.58 1.281,2.86 2.86,2.86c0.166,0 9.876,-0.027 11.714,-0.033" style="fill:none;stroke-width:1.4px;stroke:#1b4ba0;"/><path d="M62.663,49.573l0,-4.837" style="fill:none;stroke-width:1.4px;stroke:#1b4ba0;"/><path d="M52.93,91.588l0.021,-20.024l19.389,0l0.018,23.078" style="fill:none;stroke-width:1.4px;stroke:#1b4ba0;"/><path d="M69.947,66.967l-14.602,0l0,4.263" style="fill:none;stroke-width:1.4px;stroke:#1b4ba0;"/><path d="M67.313,61.941l-9.335,0l0,2.701" style="fill:none;stroke-width:1.4px;stroke:#1b4ba0;"/><path d="M65.408,59.495l0,-4.735l-5.744,0l0,4.735" style="fill:none;stroke-width:1.4px;stroke:#1b4ba0;"/><path d="M65.365,52.423c0,-1.519 -1.23,-2.749 -2.748,-2.749c-1.518,0 -2.749,1.23 -2.749,2.749" style="fill:none;stroke-width:1.4px;stroke:#1b4ba0;"/><path d="M65.305,91.46c0,-1.468 -1.19,-2.658 -2.659,-2.658c-1.469,0 -2.66,1.19 -2.66,2.658" style="fill:none;stroke-width:1.4px;stroke:#1b4ba0;"/><path d="M62.08,59.437l0,-1.675c0,-0.261 0.212,-0.473 0.473,-0.473c0.262,0 0.474,0.212 0.474,0.473l0,1.675" style="fill:none;stroke-width:1.4px;stroke:#1b4ba0;"/><path d="M81.96,75.837l0,-1.257c0,-0.196 0.159,-0.354 0.355,-0.354c0.196,0 0.355,0.158 0.355,0.354l0,1.257" style="fill:none;stroke-width:1.4px;stroke:#1b4ba0;"/><path d="M51.344,99.625l0,-1.675c0,-0.262 0.212,-0.473 0.474,-0.473c0.261,0 0.473,0.211 0.473,0.473l0,1.675" style="fill:none;stroke-width:1.4px;stroke:#1b4ba0;"/><path d="M55.472,99.625l0,-1.675c0,-0.262 0.211,-0.473 0.473,-0.473c0.261,0 0.473,0.211 0.473,0.473l0,1.675" style="fill:none;stroke-width:1.4px;stroke:#1b4ba0;"/><path d="M68.809,99.625l0,-1.675c0,-0.262 0.212,-0.473 0.473,-0.473c0.262,0 0.473,0.211 0.473,0.473l0,1.675" style="fill:none;stroke-width:1.4px;stroke:#1b4ba0;"/><path d="M47.766,104.709l0,-10.762l25.049,-0.008" style="fill:none;stroke-width:1.4px;stroke:#1b4ba0;"/><path d="M77.663,75.878l0,-4.256l9.403,0l0,4.066" style="fill:none;stroke-width:1.4px;stroke:#1b4ba0;"/><path d="M77.663,105.404l0,-23.419" style="fill:none;stroke-width:1.4px;stroke:#1b4ba0;"/><path d="M76.994,69.138l2.937,-11.166l5.245,0l2.751,11.125" style="fill:none;stroke-width:1.4px;stroke:#1b4ba0;"/><path d="M85.879,81.966l-9.593,0l0,-3.54l12.44,0l0,0.721" style="fill:none;stroke-width:1.4px;stroke:#1b4ba0;"/><path d="M82.468,57.307l0,-6.457" style="fill:none;stroke-width:1.4px;stroke:#1b4ba0;"/><rect x="82.474" y="50.511" width="3.877" height="2.745" style="fill:none;stroke-width:1.4px;stroke:#1b4ba0;"/><path d="M99.64,104.969l0,-12.326" style="fill:none;stroke-width:1.4px;stroke:#1b4ba0;"/><path d="M14.834,80.008l11.635,0l1.407,10.402l18.1,0" style="fill:none;stroke-width:1.4px;stroke:#1b4ba0;"/><path d="M27.904,90.41l1.97,14.672" style="fill:none;stroke-width:1.4px;stroke:#1b4ba0;"/><path d="M41.921,90.41l0,14.357" style="fill:none;stroke-width:1.4px;stroke:#1b4ba0;"/><path d="M44.537,59.223l6.785,6.818" style="fill:none;stroke-width:1.4px;stroke:#1b4ba0;"/><path d="M46.345,56.809l4.345,4.38" style="fill:none;stroke-width:1.4px;stroke:#1b4ba0;"/><path d="M41.911,60.767l5.283,5.594" style="fill:none;stroke-width:1.4px;stroke:#1b4ba0;"/><path d="M60.022,96.274l0,8.573" style="fill:none;stroke-width:1.4px;stroke:#1b4ba0;"/><path d="M65.286,96.274l0,8.573" style="fill:none;stroke-width:1.4px;stroke:#1b4ba0;"/><path d="M26.774,82.383l-7.96,0" style="fill:none;stroke-width:1.4px;stroke:#1b4ba0;"/><path d="M42.297,94.617l-13.533,0" style="fill:none;stroke-width:1.4px;stroke:#1b4ba0;"/><path d="M101.368,59.426c-1.569,0 -2.91,0.97 -3.46,2.342c-0.55,-1.372 -1.891,-2.342 -3.46,-2.342" style="fill:none;stroke-width:1.4px;stroke-linejoin:round;stroke:#1b4ba0;"/><path d="M98.382,70.173c-1.568,0 -2.909,0.97 -3.46,2.342c-0.55,-1.372 -1.891,-2.342 -3.46,-2.342" style="fill:none;stroke-width:1.4px;stroke-linejoin:round;stroke:#1b4ba0;"/><path d="M88.641,100.509c-1.568,0 -2.91,0.97 -3.46,2.342c-0.549,-1.372 -1.89,-2.342 -3.459,-2.342" style="fill:none;stroke-width:1.4px;stroke-linejoin:round;stroke:#1b4ba0;"/><path d="M25.421,104.801l84.693,0" style="fill:none;stroke-width:1.21px;stroke:#1b4ba0;"/><path d="M48.38,76.946c0,-1.812 -1.469,-3.281 -3.281,-3.281c-0.099,0 -0.196,0.005 -0.293,0.013c0.017,-0.12 0.027,-0.244 0.027,-0.369c0,-1.463 -1.186,-2.649 -2.65,-2.649c-0.782,0 -1.485,0.339 -1.97,0.879c-0.674,-1.386 -2.095,-2.34 -3.739,-2.34c-2.296,0 -4.157,1.86 -4.157,4.156c0,0.364 0.047,0.717 0.136,1.054c-1.55,0.073 -2.785,1.352 -2.785,2.92c0,1.614 1.309,2.923 2.924,2.923c0.187,0 12.662,-0.029 12.739,-0.034l0.05,-0.004c1.68,-0.143 2.999,-1.551 2.999,-3.268Z" style="fill:none;stroke-width:1.4px;stroke:#1b4ba0;"/><path d="M39.147,47.138c-3.324,-0.147 -6.138,2.429 -6.285,5.754c-0.147,3.325 2.428,6.139 5.753,6.286c3.324,0.147 6.138,-2.429 6.285,-5.753c0.147,-3.325 -2.428,-6.139 -5.753,-6.287Z" style="fill:none;stroke-width:1.25px;stroke:#1b4ba0;"/><path d="M33.331,53.775c1.503,-0.104 2.914,0.359 3.88,1.414c0.824,0.9 1.19,2.398 1.133,3.651" style="fill:none;stroke-width:1.25px;stroke:#1b4ba0;"/><path d="M44.325,52.636c-1.503,0.104 -2.914,-0.359 -3.88,-1.414c-0.824,-0.9 -1.19,-2.398 -1.133,-3.652" style="fill:none;stroke-width:1.25px;stroke:#1b4ba0;"/><path d="M34.568,49.022l8.369,8.369" style="fill:none;stroke-width:1.25px;stroke:#1b4ba0;"/><path d="M34.568,57.832l8.59,-8.589" style="fill:none;stroke-width:1.25px;stroke:#1b4ba0;"/><path d="M99.732,104.488l0.312,-11.845" style="fill:none;stroke-width:1.4px;stroke:#1b4ba0;"/><g><clipPath id="_clip1"><path d="M83.952,94.158c0,-8.656 6.921,-15.673 15.459,-15.673c8.538,0 15.46,7.017 15.46,15.673c0,8.655 -6.922,15.672 -15.46,15.672c-8.538,0 -15.459,-7.017 -15.459,-15.672Z"/></clipPath><g clip-path="url(#_clip1)"><path d="M99.876,104.152c0,-4.748 0.062,-10.423 0.062,-10.423c0,0 -1.207,-7.591 -7.635,-5.032c-4.376,1.741 -5.237,0.903 -8.008,-0.871" style="fill:none;stroke-width:1.4px;stroke:#1b4ba0;"/><path d="M99.976,95.229c0,-3.811 -5.006,-4.249 -6.831,-3.312c-1.826,0.937 -3.887,1.514 -4.825,1.163c-0.937,-0.35 -2.499,-1.164 -4.873,-0.351" style="fill:none;stroke-width:1.4px;stroke:#1b4ba0;"/><path d="M100.005,94.666c0.452,-1.65 1.671,-2.499 2.928,-3.936c1.258,-1.437 2.767,-3.936 1.138,-6.81c-1.629,-2.874 -2.004,-3.061 -2.004,-5.435" style="fill:none;stroke-width:1.4px;stroke:#1b4ba0;"/><path d="M102.224,91.497c1.342,-0.642 3.217,-1.982 6.465,0c3.249,1.982 2.765,2.379 6.493,2.754" style="fill:none;stroke-width:1.4px;stroke:#1b4ba0;"/><path d="M93.145,91.917c-1.326,-1.749 -1.763,-2.22 -2.201,-3.984c-0.437,-1.764 -0.519,-4.325 -1.853,-6.074" style="fill:none;stroke-width:1.4px;stroke:#1b4ba0;"/><path d="M100.005,94.666c0,0 0.125,-4.873 0,-6.122c-0.125,-1.25 -0.623,-1.839 -3.124,-2.062c-1.837,-0.164 -2.188,-0.812 -3.063,-1.125c-0.874,-0.312 -0.97,-1.45 -3.811,0.5c-3.442,2.364 -4.594,0 -4.594,0" style="fill:none;stroke-width:1.4px;stroke:#1b4ba0;"/><path d="M96.222,88.288c0,0 -1.034,-2.244 0,-4.18c1.034,-1.937 4.519,-4.092 3.839,-6.451" style="fill:none;stroke-width:1.4px;stroke:#1b4ba0;"/><path d="M89.091,89.832c-0.146,1.336 -0.896,4.709 -5.144,4.834" style="fill:none;stroke-width:1.4px;stroke:#1b4ba0;"/><path d="M83.447,89.832c1,0.586 2.724,0.863 2.589,2.307" style="fill:none;stroke-width:1.4px;stroke:#1b4ba0;"/><path d="M86.134,82.922c0.937,0.938 1.754,2.904 4.375,2.732" style="fill:none;stroke-width:1.4px;stroke:#1b4ba0;"/><path d="M93.145,79.697c0.423,1.537 0.236,2.266 0.236,3.276c0,1.01 0.746,2.516 0.746,2.516" style="fill:none;stroke-width:1.4px;stroke:#1b4ba0;"/><path d="M90.85,80.547c0.406,1.188 1.422,2.343 2.539,2.046" style="fill:none;stroke-width:1.4px;stroke:#1b4ba0;"/><path d="M95.068,79.174c0.563,1.685 2.562,3.138 2.562,3.138c0,0 1.823,0.847 1.731,4.808" style="fill:none;stroke-width:1.4px;stroke:#1b4ba0;"/><path d="M100.061,89.168c1.006,-2.061 2.332,-3.373 4.486,-4.17c1.698,-0.628 2.809,-0.266 4.663,-4.139" style="fill:none;stroke-width:1.4px;stroke:#1b4ba0;"/><path d="M104.446,88.288c0,0 1.94,-1.566 5.18,-0.682c2.5,0.682 3.937,0.17 3.937,0.17" style="fill:none;stroke-width:1.4px;stroke:#1b4ba0;"/><path d="M107.19,80.234c-1.125,0.875 -2.7,1.97 -2.643,4.764" style="fill:none;stroke-width:1.4px;stroke:#1b4ba0;"/><path d="M105.066,79.174c0,0 -1.437,1.605 -3.249,2.582c-1.812,0.977 -2.104,1.068 -2.801,2.085" style="fill:none;stroke-width:1.4px;stroke:#1b4ba0;"/><path d="M113.059,84.607c-2.62,0.75 -4.307,0.849 -5.869,-1.062" style="fill:none;stroke-width:1.4px;stroke:#1b4ba0;"/><path d="M97.63,77.922c0.25,1.25 -1.197,3.322 -1.197,3.322" style="fill:none;stroke-width:1.4px;stroke:#1b4ba0;"/><path d="M114.645,88.288c-1.957,1.318 -2.826,2.456 -3.806,3.209c-0.98,0.754 -1.482,0.42 -1.482,0.42" style="fill:none;stroke-width:1.4px;stroke:#1b4ba0;"/><path d="M115.198,92.311c-3.972,-1.133 -7.835,-4.01 -4.671,-9.392" style="fill:none;stroke-width:1.4px;stroke:#1b4ba0;"/></g></g><text x="39.759px" y="40.154px" style="font-family:'GothamRounded-Bold';font-size:6.069px;fill:#1b4ba0;">NODESCHOOL</text><g transform="matrix(0.798691,-0.601742,0.601742,0.798691,-47.9294,-22.1183)"><text x="-7.357px" y="169.113px" style="font-family:'GothamRounded-Bold';font-size:6.069px;fill:#1b4ba0;">O</text></g><text x="60.344px" y="114.201px" style="font-family:'GothamRounded-Bold';font-size:6.069px;fill:#1b4ba0;">A</text><g transform="matrix(0.786897,0.617084,-0.617084,0.786897,10.0604,-55.8571)"><text x="155.166px" y="95.072px" style="font-family:'GothamRounded-Bold';font-size:6.069px;fill:#1b4ba0;">K</text></g></g></svg>