<svg width="386" height="443" viewBox="0 0 386 443" xmlns="http://www.w3.org/2000/svg" xmlns:xlink="http://www.w3.org/1999/xlink"><defs><path d="M370.6 321.79L186.1 428.31c-.31.18-.69.18-1 .002L.5 321.79c-.31-.18-.5-.51-.5-.868V107.777c0-.357.19-.687.5-.866L185.1.29c.31-.18.69-.18 1 0l184.5 106.62c.31.18.5.51.5.867v213.146c0 .357-.19.687-.5.866z" id="a"/></defs><g transform="translate(7 7)" fill="none" fill-rule="evenodd"><mask id="b" fill="#fff"><use xlink:href="#a"/></mask><use stroke="#4A90E2" stroke-width="14" fill="#F9FCFF" fill-rule="nonzero" xlink:href="#a"/><g mask="url(#b)"><path d="M22.745 317.145H70.64c3.264 0 8.156-14.042 7.868-16.09-1.026-7.274-6.03-13.396-12.906-14.878-6.567-1.415-13.146 1.734-16.76 8.023-.617 1.073-1.832 1.633-3.03 1.393-1.092-.218-2.188-.336-3.257-.35h-.227c-10.674 0-19.437 9.574-19.582 21.458-.002.15-.002.297 0 .445zM70.64 323H20.05c-1.458 0-2.685-1.114-2.853-2.592-.144-1.276-.21-2.548-.195-3.78.185-15.087 11.517-27.24 25.325-27.24h.3c.77.012 1.552.06 2.333.152 5.025-7.247 13.564-10.873 21.83-9.09 6.8 1.464 12.25 6.24 15.21 12.483-3.395 4.435-10.652 24.78-11.36 30.067z" fill="#4A90E2"/><path d="M1.822 323c-.454 0-.822-1.304-.822-2.91 0-1.61.368-2.913.822-2.914L372.178 317c.455 0 .822 1.304.822 2.91 0 1.61-.367 2.913-.822 2.914L1.822 323M112 167.537c0 1.565-1.406 2.833-3.14 2.833-1.736 0-3.142-1.268-3.142-2.833 0-1.565 1.406-2.833 3.14-2.833 1.736 0 3.142 1.268 3.142 2.833M92.187 171c-1.575 0-2.852-1.278-2.852-2.854 0-4.653-3.782-8.438-8.43-8.438-4.65 0-8.432 3.785-8.432 8.438 0 1.576-1.277 2.854-2.852 2.854-1.574 0-2.85-1.278-2.85-2.854 0-7.8 6.34-14.146 14.134-14.146 7.793 0 14.134 6.346 14.134 14.146 0 1.576-1.276 2.854-2.85 2.854" fill="#4A90E2"/><path d="M100.925 170.37h-8.632c-1.606 0-2.908-1.268-2.908-2.833 0-1.565 1.302-2.833 2.908-2.833h8.632c1.607 0 2.908 1.268 2.908 2.833 0 1.565-1.3 2.833-2.908 2.833M69 170.37h-3.204c-1.544 0-2.796-1.268-2.796-2.833 0-1.565 1.252-2.833 2.796-2.833H69c1.543 0 2.795 1.268 2.795 2.833 0 1.565-1.252 2.833-2.796 2.833M302 199.167c0 1.565 1.396 2.833 3.117 2.833 1.72 0 3.117-1.268 3.117-2.833 0-1.565-1.396-2.834-3.117-2.834-1.72 0-3.117 1.27-3.117 2.834M343.43 202c-1.56 0-2.83-1.278-2.83-2.854 0-4.653-3.753-8.438-8.364-8.438-4.615 0-8.368 3.785-8.368 8.438 0 1.576-1.265 2.854-2.83 2.854-1.565 0-2.83-1.278-2.83-2.854 0-7.8 6.292-14.146 14.028-14.146 7.73 0 14.024 6.346 14.024 14.146 0 1.576-1.265 2.854-2.83 2.854" fill="#4A90E2"/><path d="M321.555 202h-8.564c-1.596 0-2.886-1.27-2.886-2.833 0-1.565 1.29-2.834 2.887-2.834h8.565c1.596 0 2.887 1.27 2.887 2.834s-1.29 2.833-2.887 2.833M347.226 202h-3.18c-1.528 0-2.773-1.27-2.773-2.833 0-1.565 1.245-2.834 2.774-2.834h3.18c1.533 0 2.773 1.27 2.773 2.834S348.76 202 347.226 202M237 194l-118 76 118-76M111.738 270.33l5.588-3.602 116.41-74.098c.62-.393 3.527 4.54 2.82 4.99-25.81 16.43-64.526 41.073-116.147 73.93-.478.305-1.012.45-1.54.45-.63 0-3.008-.556-7.132-1.67z" fill="#4A90E2"/><path d="M78.97 317.29h158.853c2.777-10.672 4.755-18.137 5.935-22.393-15.01-17.337-44.967-29.187-79.396-29.187-47.848 0-82.938 22.887-85.392 51.58zM240.046 323H71.863c-1.58 0-2.863-1.278-2.863-2.854 0-16.327 10.102-31.575 28.445-42.936 17.918-11.098 41.683-17.21 66.917-17.21s49 6.112 66.917 17.21c3.51 2.175 8.085 5.736 13.72 10.684L240.046 323z" fill="#4A90E2"/><path d="M252.97 177s6.542 56.8 44.337 94.667C335.102 309.533 354 319 354 319H237.707s18.898-51.475 6.542-82.902C231.892 204.672 205 177 205 177h47.97"/><path d="M241.666 317.238H344.12c-9.1-6.3-25.326-18.96-48.816-42.494-19.95-19.99-31.184-45.16-37.094-62.755-4.892-14.563-7.023-26.267-7.785-31.228H211.42c8.287 9.387 25.932 31.066 35.445 55.26 10.78 27.416-1.016 68.435-5.2 81.216zM354.124 323H237.638c-.94 0-1.82-.46-2.36-1.232-.536-.772-.664-1.76-.34-2.643.186-.505 18.404-50.908 6.576-80.99-12.025-30.587-38.433-57.97-38.7-58.244-.805-.83-1.037-2.062-.588-3.13.45-1.066 1.494-1.76 2.65-1.76h48.05c1.46 0 2.688 1.097 2.857 2.55.065.56 6.907 56.37 43.587 93.12 37.1 37.17 55.855 46.78 56.04 46.872 1.193.598 1.82 1.94 1.513 3.24-.307 1.3-1.465 2.218-2.8 2.218zM323 311h-12 12" fill="#4A90E2"/><path d="M324.053 314h-13.106c-1.628 0-2.947-1.343-2.947-3s1.32-3 2.947-3h13.106c1.628 0 2.947 1.343 2.947 3s-1.32 3-2.947 3M307 294h-7 7M306.16 297h-6.32c-1.568 0-2.84-1.343-2.84-3s1.272-3 2.84-3h6.32c1.568 0 2.84 1.343 2.84 3s-1.272 3-2.84 3" fill="#4A90E2"/><path d="M236.21 199H247l-7.21-12H229l7.21 12"/><path d="M237.81 197.2h4.21l-3.83-6.4h-4.21l3.83 6.4zm9.31 5.8h-10.934c-1.01 0-1.944-.532-2.465-1.402l-7.306-12.2c-.536-.895-.553-2.013-.042-2.924.51-.91 1.47-1.474 2.507-1.474h10.934c1.01 0 1.945.532 2.466 1.402l7.306 12.2c.537.895.552 2.012.042 2.923-.51.91-1.47 1.475-2.507 1.475zM263 244h-5 5M263.146 247h-5.292c-1.576 0-2.854-1.343-2.854-3s1.278-3 2.854-3h5.292c1.576 0 2.854 1.343 2.854 3s-1.278 3-2.854 3M258 231h-5 5M258.146 234h-5.292c-1.576 0-2.854-1.343-2.854-3s1.278-3 2.854-3h5.292c1.576 0 2.854 1.343 2.854 3s-1.278 3-2.854 3M252 218h-5 5M252.146 222h-5.292c-1.576 0-2.854-1.343-2.854-3s1.278-3 2.854-3h5.292c1.576 0 2.854 1.343 2.854 3s-1.278 3-2.854 3M270 256h-5 5M270.146 259h-5.292c-1.576 0-2.854-1.343-2.854-3s1.278-3 2.854-3h5.292c1.576 0 2.854 1.343 2.854 3s-1.278 3-2.854 3M279 267h-5 5M280.146 271h-5.292c-1.576 0-2.854-1.343-2.854-3s1.278-3 2.854-3h5.292c1.576 0 2.854 1.343 2.854 3s-1.278 3-2.854 3M291 280h-5 5M291.146 284h-5.292c-1.576 0-2.854-1.343-2.854-3s1.278-3 2.854-3h5.292c1.576 0 2.854 1.343 2.854 3s-1.278 3-2.854 3M182.25 322.986c-1.594-.154-2.76-1.56-2.605-3.14.872-8.852.71-17.8-.477-26.6-1.37-10.143-4.102-20.08-8.118-29.538-.62-1.464 4.727-3.694 5.35-2.23 4.213 9.926 7.08 20.358 8.52 31.005 1.247 9.236 1.415 18.63.5 27.92-.146 1.486-1.41 2.597-2.884 2.597-.094 0-.19-.005-.285-.014zM195.8 320.538c.85-8.858.693-17.814-.466-26.62-1.68-12.75-3.243-17.994-6.112-24.924-.606-1.465.07-3.15 1.512-3.768 1.44-.617 3.1.072 3.707 1.536 3.01 7.27 4.75 13.074 6.505 26.392 1.218 9.244 1.382 18.645.49 27.944-.143 1.486-5.787 1.022-5.635-.56zM211 269c3.562 7.433 3.897 10.247 5.81 22.787 1.624 10.656 1.357 19.96.55 27.213L211 269" fill="#4A90E2"/><path d="M216.256 322.986c-1.593-.155-2.758-1.565-2.603-3.15.87-8.877.71-17.853-.477-26.677l-.182-1.355c-1.515-11.284-1.875-13.965-4.767-20.803-.62-1.468 4.72-3.704 5.342-2.236 3.19 7.548 3.61 10.667 5.168 22.274l.182 1.354c1.246 9.263 1.415 18.684.5 28.002-.145 1.49-1.406 2.604-2.88 2.604-.094 0-.188-.005-.284-.014zM233.144 321.986c-1.64-.153-2.84-1.552-2.68-3.124.898-8.807.732-17.71-.49-26.462-1.452-10.395-3.95-12.812-3.974-12.836.126.117.205.152.205.152 4.047-1.66 6.644-.654 7.79 3.02.707 2.272 1.373 5.18 1.893 8.905 1.283 9.188 1.457 18.534.516 27.777-.15 1.478-1.45 2.583-2.966 2.583-.097 0-.195-.005-.294-.014zM144.576 321.09c-.91-9.36-.74-18.827.498-28.135 1.43-10.73 4.275-21.243 8.46-31.245.172-.41.435-.776.77-1.067l76.93-66.937c1.077-.938 2.675-.942 3.758-.01 1.083.932 1.326 2.52.57 3.736l-42.788 68.873c-.843 1.357-2.62 1.77-3.97.922-1.35-.847-1.76-2.634-.917-3.99l32.658-52.57-61.958 53.91c-3.846 9.344-6.47 19.147-7.802 29.147-1.18 8.866-1.34 17.885-.474 26.804.155 1.593-5.59 2.06-5.734.563zM127.565 321.097c-.892-9.298-.727-18.7.49-27.943 1.754-13.318 3.495-19.122 6.504-26.392.606-1.464 2.265-2.152 3.706-1.536 1.44.616 2.118 2.303 1.512 3.768-2.87 6.93-4.432 12.174-6.112 24.924-1.16 8.805-1.316 17.762-.466 26.62.152 1.582-5.492 2.046-5.635.56zM113.46 323c-1.474 0-2.735-1.114-2.88-2.604-.915-9.317-.746-18.74.5-28.002l.18-1.35c1.56-11.61 1.98-14.73 5.17-22.278.622-1.468 2.32-2.157 3.795-1.54 1.475.618 2.168 2.308 1.547 3.776-2.89 6.84-3.25 9.52-4.767 20.806l-.18 1.35c-1.188 8.825-1.35 17.8-.478 26.678.155 1.585-1.01 2.995-2.603 3.15-.095.01-.19.014-.284.014M101 278s-3.763 2.124-5.757 14.388c-1.696 10.42-1.418 19.52-.576 26.612L101 278" fill="#4A90E2"/><path d="M92.596 319.43c-.94-9.198-.767-18.497.517-27.64.557-3.97 1.28-7.012 2.045-9.336.83-2.523 5.71-5.21 6.263-4.44l1.375 1.91s.08-.036.205-.152c-.025.023-2.522 2.43-3.974 12.773-1.222 8.71-1.388 17.57-.49 26.332.16 1.565-1.04 2.957-2.68 3.11-.1.008-.197.013-.294.013-1.517 0-2.815-1.1-2.966-2.57zM213.07 272.895c-1.504-.425-2.384-2.006-1.966-3.533L231.45 195.1c.253-.92.92-1.61 1.738-1.92.54-.204 3.48 4.285 3.368 4.7L216.55 270.9c-.35 1.268-1.484 2.1-2.722 2.1-.25 0-.505-.034-.758-.105zM164.5 323c-1.933 0-3.5-1.277-3.5-2.852v-57.295c0-1.576 1.567-2.853 3.5-2.853s3.5 1.277 3.5 2.853v57.295c0 1.575-1.567 2.852-3.5 2.852" fill="#4A90E2"/></g><g transform="translate(-7 -6)" mask="url(#b)" fill-rule="nonzero" fill="#4A90E2"><path d="M269.8 78.3l-75.9-43.8c-.1-.1-.2-.1-.3-.1h-.1-.4-.1-.5c-.1 0-.2.1-.3.1l-74.7 43.1c-.9.5-1.2 1.6-.7 2.5.5.9 1.7 1.2 2.5.7l66.4-38.3-28.2 36c-.6.8-.5 2 .3 2.6.8.6 2 .5 2.6-.3l30.8-39.3v38.4c0 1 .8 1.9 1.9 1.9 1.1 0 1.9-.8 1.9-1.9V41.5l30.8 39.3c.4.5.9.7 1.5.7.4 0 .8-.1 1.1-.4.8-.6.9-1.8.3-2.6l-28.2-36 67.6 39c.3.2.6.2.9.2.6 0 1.3-.3 1.6-.9.4-.8.1-2-.8-2.5zM269.3 361.2c-.5-.9-1.7-1.2-2.5-.7l-66.3 38.3 28.2-36c.6-.8.5-2-.3-2.6-.8-.6-2-.5-2.6.3L195 399.8v-38.4c0-1-.8-1.9-1.9-1.9-1.1 0-1.9.8-1.9 1.9v38.4l-30.8-39.3c-.6-.8-1.8-.9-2.6-.3-.8.6-.9 1.8-.3 2.6l28.2 36-67.6-39c-.9-.5-2-.2-2.5.7-.5.9-.2 2 .7 2.5l75.9 43.8h.1c.1 0 .1.1.2.1H192.8c.1 0 .3.1.4.1.2 0 .3 0 .4-.1h.2c.1 0 .1-.1.2-.1h.1l74.7-43.1c.7-.4 1-1.6.5-2.5z"/><circle cx="274.3" cy="357.7" r="2.3"/><circle cx="110.8" cy="357.7" r="2.3"/><path d="M126.1 134.6c.8 0 1.4-.6 1.4-1.4v-7.1l5.8 7.6c.4.5.8.9 1.5.9h.1c.8 0 1.5-.6 1.5-1.5v-10.5c0-.8-.6-1.4-1.4-1.4-.8 0-1.4.6-1.4 1.4v6.8L128 122c-.4-.5-.8-.9-1.5-.9h-.3c-.8 0-1.5.6-1.5 1.5v10.5c0 .9.6 1.5 1.4 1.5zM146 134.7c4.1 0 7.1-3.1 7.1-6.8 0-3.8-2.9-6.8-7-6.8s-7.1 3.1-7.1 6.8c0 3.8 2.9 6.8 7 6.8zm-3.9-6.8c0-2.3 1.6-4.1 4-4.1 2.3 0 4 1.9 4 4.2 0 2.3-1.6 4.1-4 4.1-2.4-.1-4-1.9-4-4.2zM157.1 134.5h3.7c4.2 0 7-2.9 7-6.6 0-3.7-2.9-6.6-7-6.6h-3.7c-.8 0-1.5.6-1.5 1.5V133c.1.9.7 1.5 1.5 1.5zm1.5-10.6h2.2c2.4 0 4 1.6 4 4 0 2.3-1.6 4-4 4h-2.2v-8zM171.9 134.5h7.4c.7 0 1.3-.6 1.3-1.3 0-.7-.6-1.3-1.3-1.3h-6v-2.8h5c.7 0 1.3-.6 1.3-1.3 0-.7-.6-1.3-1.3-1.3h-5v-2.7h5.9c.7 0 1.3-.6 1.3-1.3 0-.7-.6-1.3-1.3-1.3h-7.3c-.8 0-1.5.6-1.5 1.5V133c.1.9.7 1.5 1.5 1.5zM182.9 133.1c1.5 1.1 3.2 1.6 5 1.6 2.9 0 4.9-1.5 4.9-4.1 0-2.3-1.5-3.3-4.2-4-2.3-.6-2.9-.9-2.9-1.7 0-.6.6-1.2 1.7-1.2.9 0 1.8.3 2.8.9.2.1.5.2.7.2.8 0 1.4-.6 1.4-1.3 0-.6-.3-1-.6-1.2-1.2-.8-2.6-1.2-4.2-1.2-2.7 0-4.6 1.6-4.6 4 0 2.6 1.7 3.4 4.4 4 2.2.6 2.7.9 2.7 1.7 0 .8-.7 1.2-1.9 1.2-1.3 0-2.4-.5-3.4-1.2-.2-.1-.5-.3-.8-.3-.8 0-1.4.6-1.4 1.3-.2.7.1 1.1.4 1.3zM201.4 134.7c2.1 0 3.5-.6 4.7-1.7.3-.2.5-.6.5-1 0-.7-.6-1.3-1.4-1.3-.3 0-.6.1-.9.3-.8.7-1.6 1-2.9 1-2.3 0-3.8-1.9-3.8-4.2 0-2.3 1.6-4.1 3.8-4.1 1 0 1.9.3 2.7.9.2.1.5.3.9.3.8 0 1.4-.6 1.4-1.4 0-.5-.3-.9-.6-1.2-1.1-.8-2.4-1.3-4.4-1.3-4.1 0-6.9 3.1-6.9 6.8.2 3.9 3.1 6.9 6.9 6.9zM210.7 134.6c.8 0 1.5-.6 1.5-1.5v-4h5.4v4c0 .8.6 1.5 1.5 1.5.8 0 1.5-.6 1.5-1.5v-10.5c0-.8-.6-1.5-1.5-1.5-.8 0-1.5.6-1.5 1.5v3.9h-5.4v-3.9c0-.8-.6-1.5-1.5-1.5-.8 0-1.5.6-1.5 1.5v10.5c0 .9.6 1.5 1.5 1.5zM230 134.7c4.1 0 7-3.1 7-6.8 0-3.8-2.9-6.8-7-6.8s-7.1 3.1-7.1 6.8c.1 3.8 3 6.8 7.1 6.8zm-4-6.8c0-2.3 1.6-4.1 4-4.1 2.3 0 4 1.9 4 4.2 0 2.3-1.6 4.1-4 4.1-2.3-.1-4-1.9-4-4.2zM246.1 134.7c4.1 0 7.1-3.1 7.1-6.8 0-3.8-2.9-6.8-7-6.8s-7.1 3.1-7.1 6.8c0 3.8 2.9 6.8 7 6.8zm-4-6.8c0-2.3 1.6-4.1 4-4.1 2.3 0 4 1.9 4 4.2 0 2.3-1.6 4.1-4 4.1-2.3-.1-4-1.9-4-4.2zM257.2 134.5h6.8c.7 0 1.3-.6 1.3-1.3 0-.7-.6-1.3-1.3-1.3h-5.4v-9.2c0-.8-.6-1.5-1.5-1.5-.8 0-1.5.6-1.5 1.5V133c.1.9.8 1.5 1.6 1.5zM143.138 350.138c-.3-.6-.1-1.3.5-1.7l.2-.1c.5-.3.9-.2 1.3 0l5 2.7.2-5.7c0-.5.2-.8.6-1.1l.2-.1c.6-.3 1.3-.1 1.7.5l4.5 7.7c.3.6.1 1.3-.5 1.7-.6.3-1.3.1-1.7-.5l-2.8-4.8-.2 4c0 .5-.2.8-.6 1.1-.4.3-.8.2-1.2 0l-3.5-1.8 2.8 4.8c.3.6.1 1.3-.5 1.6-.6.3-1.3.1-1.6-.4l-4.4-7.9zM191.5 342.2h-2.4c-.6 0-1.1-.5-1.1-1.1 0-.6.5-1.1 1.1-1.1h7.2c.6 0 1.1.5 1.1 1.1 0 .6-.5 1.1-1.1 1.1h-2.4v7.8c0 .7-.5 1.2-1.2 1.2s-1.2-.5-1.2-1.2v-7.8zM234.438 345.638c.3-.6 1.1-.8 1.7-.5.6.3.8 1.1.5 1.7l-3.9 6.8 4 2.3c.5.3.7 1 .4 1.5-.3.5-1 .7-1.5.4l-5-2.9c-.6-.3-.8-1.1-.5-1.7l4.3-7.6z"/></g></g></svg>