<?xml version="1.0" encoding="utf-8"?>
<!-- Generator: Adobe Illustrator 18.0.0, SVG Export Plug-In . SVG Version: 6.00 Build 0)  -->
<!DOCTYPE svg PUBLIC "-//W3C//DTD SVG 1.1//EN" "http://www.w3.org/Graphics/SVG/1.1/DTD/svg11.dtd">
<svg version="1.1" id="Layer_1" xmlns="http://www.w3.org/2000/svg" xmlns:xlink="http://www.w3.org/1999/xlink" x="0px" y="0px"
	 viewBox="0 0 1474 506" enable-background="new 0 0 1474 506" xml:space="preserve">
<g>
	<g>
		<path fill="#0E1131" d="M1453.5,478h-201c-2.8,0-5.1-2.3-5.1-5.1V162.1c0-2.8,2.3-5.1,5.1-5.1h201c2.8,0,5.1,2.3,5.1,5.1V473
			C1458.5,475.8,1456.3,478,1453.5,478z M1257.5,467.9h190.9V167.2h-190.9V467.9z"/>
	</g>
	<g>
		<path fill="#0E1131" d="M1430.3,167.2c-2.8,0-5.1-2.3-5.1-5.1v-35.5h-144.4v35.5c0,2.8-2.3,5.1-5.1,5.1s-5.1-2.3-5.1-5.1v-40.5
			c0-2.8,2.3-5.1,5.1-5.1h154.6c2.8,0,5.1,2.3,5.1,5.1v40.5C1435.3,164.9,1433.1,167.2,1430.3,167.2z"/>
	</g>
	<g>
		<path fill="#0E1131" d="M1377.7,283.4h-54.2c-1.8,0-3.5-1-4.4-2.5l-27.1-46.9c-0.9-1.6-0.9-3.5,0-5.1l27.1-46.9
			c0.9-1.6,2.6-2.5,4.4-2.5h54.2c1.8,0,3.5,1,4.4,2.5l27.1,46.9c0.9,1.6,0.9,3.5,0,5.1l-27.1,46.9
			C1381.2,282.4,1379.5,283.4,1377.7,283.4z M1326.5,273.3h48.3l24.2-41.9l-24.2-41.9h-48.3l-24.2,41.9L1326.5,273.3z"/>
	</g>
	<g>
		<path fill="#0E1131" d="M1350.6,283.4c-2.8,0-5.1-2.3-5.1-5.1v-93.9c0-2.8,2.3-5.1,5.1-5.1s5.1,2.3,5.1,5.1v93.9
			C1355.7,281.1,1353.4,283.4,1350.6,283.4z"/>
	</g>
	<g>
		<path fill="#0E1131" d="M1404.8,236.5h-108.4c-2.8,0-5.1-2.3-5.1-5.1c0-2.8,2.3-5.1,5.1-5.1h108.4c2.8,0,5.1,2.3,5.1,5.1
			C1409.9,234.2,1407.6,236.5,1404.8,236.5z"/>
	</g>
	<g>
		<path fill="#0E1131" d="M1392.5,215.1h-83.7c-2.8,0-5.1-2.3-5.1-5.1c0-2.8,2.3-5.1,5.1-5.1h83.7c2.8,0,5.1,2.3,5.1,5.1
			C1397.5,212.8,1395.3,215.1,1392.5,215.1z"/>
	</g>
	<g>
		<path fill="#0E1131" d="M1392.5,256.2h-83.7c-2.8,0-5.1-2.3-5.1-5.1s2.3-5.1,5.1-5.1h83.7c2.8,0,5.1,2.3,5.1,5.1
			S1395.3,256.2,1392.5,256.2z"/>
	</g>
	<g>
		<path fill="#0E1131" d="M1430.5,418.3h-152.6c-2.8,0-5.1-2.3-5.1-5.1v-71c0-2.8,2.3-5.1,5.1-5.1h152.6c2.8,0,5.1,2.3,5.1,5.1v71
			C1435.5,416.1,1433.3,418.3,1430.5,418.3z M1282.9,408.2h142.5v-60.8h-142.5V408.2z"/>
	</g>
	<g>
		<path fill="#0E1131" d="M1430.5,382.9h-152.6c-2.8,0-5.1-2.3-5.1-5.1c0-2.8,2.3-5.1,5.1-5.1h152.6c2.8,0,5.1,2.3,5.1,5.1
			C1435.5,380.6,1433.3,382.9,1430.5,382.9z"/>
	</g>
	<g>
		<path fill="#0E1131" d="M1391,418.3c-2.8,0-5.1-2.3-5.1-5.1v-71c0-2.8,2.3-5.1,5.1-5.1s5.1,2.3,5.1,5.1v71
			C1396.1,416.1,1393.8,418.3,1391,418.3z"/>
	</g>
	<g>
		<path fill="#0E1131" d="M1317.3,418.3c-2.8,0-5.1-2.3-5.1-5.1v-71c0-2.8,2.3-5.1,5.1-5.1s5.1,2.3,5.1,5.1v71
			C1322.3,416.1,1320.1,418.3,1317.3,418.3z"/>
	</g>
	<g>
		<path fill="#0E1131" d="M1354.2,418.3c-2.8,0-5.1-2.3-5.1-5.1v-71c0-2.8,2.3-5.1,5.1-5.1s5.1,2.3,5.1,5.1v71
			C1359.2,416.1,1357,418.3,1354.2,418.3z"/>
	</g>
	<g>
		<path fill="#0E1131" d="M1252.5,478h-201c-2.8,0-5.1-2.3-5.1-5.1V162.1c0-2.8,2.3-5.1,5.1-5.1h201c2.8,0,5.1,2.3,5.1,5.1V473
			C1257.5,475.8,1255.3,478,1252.5,478z M1056.5,467.9h190.9V167.2h-190.9V467.9z"/>
	</g>
	<g>
		<path fill="#0E1131" d="M1229.2,167.2c-2.8,0-5.1-2.3-5.1-5.1v-35.5h-144.4v35.5c0,2.8-2.3,5.1-5.1,5.1c-2.8,0-5.1-2.3-5.1-5.1
			v-40.5c0-2.8,2.3-5.1,5.1-5.1h154.6c2.8,0,5.1,2.3,5.1,5.1v40.5C1234.3,164.9,1232,167.2,1229.2,167.2z"/>
	</g>
	<g>
		<path fill="#0E1131" d="M1176.7,283.4h-54.2c-1.8,0-3.5-1-4.4-2.5l-27.1-46.9c-0.9-1.6-0.9-3.5,0-5.1l27.1-46.9
			c0.9-1.6,2.6-2.5,4.4-2.5h54.2c1.8,0,3.5,1,4.4,2.5l27.1,46.9c0.9,1.6,0.9,3.5,0,5.1l-27.1,46.9
			C1180.2,282.4,1178.5,283.4,1176.7,283.4z M1125.4,273.3h48.3l24.2-41.9l-24.2-41.9h-48.3l-24.2,41.9L1125.4,273.3z"/>
	</g>
	<g>
		<path fill="#0E1131" d="M1149.6,283.4c-2.8,0-5.1-2.3-5.1-5.1v-93.9c0-2.8,2.3-5.1,5.1-5.1c2.8,0,5.1,2.3,5.1,5.1v93.9
			C1154.7,281.1,1152.4,283.4,1149.6,283.4z"/>
	</g>
	<g>
		<path fill="#0E1131" d="M1203.8,236.5h-108.4c-2.8,0-5.1-2.3-5.1-5.1c0-2.8,2.3-5.1,5.1-5.1h108.4c2.8,0,5.1,2.3,5.1,5.1
			C1208.9,234.2,1206.6,236.5,1203.8,236.5z"/>
	</g>
	<g>
		<path fill="#0E1131" d="M1191.5,215.1h-83.7c-2.8,0-5.1-2.3-5.1-5.1c0-2.8,2.3-5.1,5.1-5.1h83.7c2.8,0,5.1,2.3,5.1,5.1
			C1196.5,212.8,1194.3,215.1,1191.5,215.1z"/>
	</g>
	<g>
		<path fill="#0E1131" d="M1191.5,256.2h-83.7c-2.8,0-5.1-2.3-5.1-5.1s2.3-5.1,5.1-5.1h83.7c2.8,0,5.1,2.3,5.1,5.1
			S1194.3,256.2,1191.5,256.2z"/>
	</g>
	<g>
		<path fill="#0E1131" d="M1229.4,418.3h-152.6c-2.8,0-5.1-2.3-5.1-5.1v-71c0-2.8,2.3-5.1,5.1-5.1h152.6c2.8,0,5.1,2.3,5.1,5.1v71
			C1234.5,416.1,1232.2,418.3,1229.4,418.3z M1081.9,408.2h142.5v-60.8h-142.5V408.2z"/>
	</g>
	<g>
		<path fill="#0E1131" d="M1229.4,382.9h-152.6c-2.8,0-5.1-2.3-5.1-5.1c0-2.8,2.3-5.1,5.1-5.1h152.6c2.8,0,5.1,2.3,5.1,5.1
			C1234.5,380.6,1232.2,382.9,1229.4,382.9z"/>
	</g>
	<g>
		<path fill="#0E1131" d="M1190,418.3c-2.8,0-5.1-2.3-5.1-5.1v-71c0-2.8,2.3-5.1,5.1-5.1c2.8,0,5.1,2.3,5.1,5.1v71
			C1195.1,416.1,1192.8,418.3,1190,418.3z"/>
	</g>
	<g>
		<path fill="#0E1131" d="M1116.3,418.3c-2.8,0-5.1-2.3-5.1-5.1v-71c0-2.8,2.3-5.1,5.1-5.1s5.1,2.3,5.1,5.1v71
			C1121.3,416.1,1119.1,418.3,1116.3,418.3z"/>
	</g>
	<g>
		<path fill="#0E1131" d="M1153.1,418.3c-2.8,0-5.1-2.3-5.1-5.1v-71c0-2.8,2.3-5.1,5.1-5.1c2.8,0,5.1,2.3,5.1,5.1v71
			C1158.2,416.1,1155.9,418.3,1153.1,418.3z"/>
	</g>
	<g>
		<path fill="#0E1131" d="M1006.4,478c-2.8,0-5.1-2.3-5.1-5.1V23.6H469.3V473c0,2.8-2.3,5.1-5.1,5.1c-2.8,0-5.1-2.3-5.1-5.1V18.5
			c0-2.8,2.3-5.1,5.1-5.1h542.3c2.8,0,5.1,2.3,5.1,5.1V473C1011.5,475.8,1009.2,478,1006.4,478z"/>
	</g>
	<g>
		<path fill="#0E1131" d="M972.7,146.9H506.4c-2.8,0-5.1-2.3-5.1-5.1V86.1c0-2.8,2.3-5.1,5.1-5.1h466.2c2.8,0,5.1,2.3,5.1,5.1v55.7
			C977.7,144.6,975.5,146.9,972.7,146.9z M511.5,136.8h456.1V91.2H511.5V136.8z"/>
	</g>
	<g>
		<path fill="#0E1131" d="M940.6,367.4H538.5c-2.8,0-5.1-2.3-5.1-5.1V167.2h-10.1c-2.8,0-5.1-2.3-5.1-5.1v-20.3
			c0-2.8,2.3-5.1,5.1-5.1c2.8,0,5.1,2.3,5.1,5.1v15.2h10.1c2.8,0,5.1,2.3,5.1,5.1v195.1h391.9V162.1c0-2.8,2.3-5.1,5.1-5.1h10.1
			v-15.2c0-2.8,2.3-5.1,5.1-5.1c2.8,0,5.1,2.3,5.1,5.1v20.3c0,2.8-2.3,5.1-5.1,5.1h-10.1v195.1C945.6,365.1,943.4,367.4,940.6,367.4
			z"/>
	</g>
	<g>
		<path fill="#0E1131" d="M878.1,167.2c-2.8,0-5.1-2.3-5.1-5.1v-20.3c0-2.8,2.3-5.1,5.1-5.1s5.1,2.3,5.1,5.1v20.3
			C883.1,164.9,880.9,167.2,878.1,167.2z"/>
	</g>
	<g>
		<path fill="#0E1131" d="M893.3,167.2h-15.2c-2.8,0-5.1-2.3-5.1-5.1c0-2.8,2.3-5.1,5.1-5.1h15.2c2.8,0,5.1,2.3,5.1,5.1
			C898.3,164.9,896.1,167.2,893.3,167.2z"/>
	</g>
	<g>
		<path fill="#0E1131" d="M893.3,367.4c-2.8,0-5.1-2.3-5.1-5.1V162.1c0-2.8,2.3-5.1,5.1-5.1c2.8,0,5.1,2.3,5.1,5.1v200.2
			C898.3,365.1,896.1,367.4,893.3,367.4z"/>
	</g>
	<g>
		<path fill="#0E1131" d="M602.7,167.2c-2.8,0-5.1-2.3-5.1-5.1v-20.3c0-2.8,2.3-5.1,5.1-5.1c2.8,0,5.1,2.3,5.1,5.1v20.3
			C607.8,164.9,605.5,167.2,602.7,167.2z"/>
	</g>
	<g>
		<path fill="#0E1131" d="M602.7,167.2h-15.2c-2.8,0-5.1-2.3-5.1-5.1c0-2.8,2.3-5.1,5.1-5.1h15.2c2.8,0,5.1,2.3,5.1,5.1
			C607.8,164.9,605.5,167.2,602.7,167.2z"/>
	</g>
	<g>
		<path fill="#0E1131" d="M587.5,367.4c-2.8,0-5.1-2.3-5.1-5.1V162.1c0-2.8,2.3-5.1,5.1-5.1s5.1,2.3,5.1,5.1v200.2
			C592.6,365.1,590.3,367.4,587.5,367.4z"/>
	</g>
	<g>
		<path fill="#0E1131" d="M955.8,398.6H523.3c-2.8,0-5.1-2.3-5.1-5.1v-31.3c0-2.8,2.3-5.1,5.1-5.1h432.5c2.8,0,5.1,2.3,5.1,5.1v31.3
			C960.8,396.4,958.6,398.6,955.8,398.6z M528.4,388.5h422.3v-21.1H528.4V388.5z"/>
	</g>
	<g>
		<path fill="#0E1131" d="M972.7,429.9H506.4c-2.8,0-5.1-2.3-5.1-5.1v-31.3c0-2.8,2.3-5.1,5.1-5.1h466.2c2.8,0,5.1,2.3,5.1,5.1v31.3
			C977.7,427.6,975.5,429.9,972.7,429.9z M511.5,419.7h456.1v-21.1H511.5V419.7z"/>
	</g>
	<g>
		<path fill="#0E1131" d="M989.6,461.1H481.6c-2.8,0-5.1-2.3-5.1-5.1v-31.3c0-2.8,2.3-5.1,5.1-5.1h507.9c2.8,0,5.1,2.3,5.1,5.1v31.3
			C994.6,458.9,992.4,461.1,989.6,461.1z M486.7,451h497.8v-21.1H486.7V451z"/>
	</g>
	<g>
		<path fill="#0E1131" d="M1006.4,492.4H464.2c-2.8,0-5.1-2.3-5.1-5.1v-31.3c0-2.8,2.3-5.1,5.1-5.1h542.3c2.8,0,5.1,2.3,5.1,5.1
			v31.3C1011.5,490.1,1009.2,492.4,1006.4,492.4z M469.3,482.2h532.1v-21.1H469.3V482.2z"/>
	</g>
	<g>
		<path fill="#0E1131" d="M972.7,429.9c-2.8,0-5.1-2.3-5.1-5.1v-31.3c0-2.8,2.3-5.1,5.1-5.1c2.8,0,5.1,2.3,5.1,5.1v31.3
			C977.7,427.6,975.5,429.9,972.7,429.9z"/>
	</g>
	<g>
		<path fill="#0E1131" d="M1051.4,478h-45c-2.8,0-5.1-2.3-5.1-5.1V141.9c0-2.8,2.3-5.1,5.1-5.1h68.2c2.8,0,5.1,2.3,5.1,5.1v20.3
			c0,2.8-2.3,5.1-5.1,5.1c-2.8,0-5.1-2.3-5.1-5.1v-15.2h-58.1v321h39.9c2.8,0,5.1,2.3,5.1,5.1C1056.5,475.8,1054.2,478,1051.4,478z"
			/>
	</g>
	<g>
		<g>
			<path fill="#0E1131" d="M218.2,478h-201c-2.8,0-5.1-2.3-5.1-5.1V162.1c0-2.8,2.3-5.1,5.1-5.1h201c2.8,0,5.1,2.3,5.1,5.1V473
				C223.3,475.8,221,478,218.2,478z M22.2,467.9h190.9V167.2H22.2V467.9z"/>
		</g>
		<g>
			<path fill="#0E1131" d="M195,167.2c-2.8,0-5.1-2.3-5.1-5.1v-35.5H45.5v35.5c0,2.8-2.3,5.1-5.1,5.1s-5.1-2.3-5.1-5.1v-40.5
				c0-2.8,2.3-5.1,5.1-5.1H195c2.8,0,5.1,2.3,5.1,5.1v40.5C200,164.9,197.8,167.2,195,167.2z"/>
		</g>
		<g>
			<path fill="#0E1131" d="M147.1,283.4H92.9c-1.8,0-3.5-1-4.4-2.5l-27.1-46.9c-0.9-1.6-0.9-3.5,0-5.1l27.1-46.9
				c0.9-1.6,2.6-2.5,4.4-2.5h54.2c1.8,0,3.5,1,4.4,2.5l27.1,46.9c0.9,1.6,0.9,3.5,0,5.1l-27.1,46.9
				C150.6,282.4,148.9,283.4,147.1,283.4z M95.8,273.3h48.3l24.2-41.9l-24.2-41.9H95.8l-24.2,41.9L95.8,273.3z"/>
		</g>
		<g>
			<path fill="#0E1131" d="M120,283.4c-2.8,0-5.1-2.3-5.1-5.1v-93.9c0-2.8,2.3-5.1,5.1-5.1s5.1,2.3,5.1,5.1v93.9
				C125.1,281.1,122.8,283.4,120,283.4z"/>
		</g>
		<g>
			<path fill="#0E1131" d="M174.2,236.5H65.8c-2.8,0-5.1-2.3-5.1-5.1c0-2.8,2.3-5.1,5.1-5.1h108.4c2.8,0,5.1,2.3,5.1,5.1
				C179.3,234.2,177,236.5,174.2,236.5z"/>
		</g>
		<g>
			<path fill="#0E1131" d="M161.9,215.1H78.2c-2.8,0-5.1-2.3-5.1-5.1c0-2.8,2.3-5.1,5.1-5.1h83.7c2.8,0,5.1,2.3,5.1,5.1
				C166.9,212.8,164.7,215.1,161.9,215.1z"/>
		</g>
		<g>
			<path fill="#0E1131" d="M161.9,256.2H78.2c-2.8,0-5.1-2.3-5.1-5.1s2.3-5.1,5.1-5.1h83.7c2.8,0,5.1,2.3,5.1,5.1
				S164.7,256.2,161.9,256.2z"/>
		</g>
		<g>
			<path fill="#0E1131" d="M192.8,418.3H40.2c-2.8,0-5.1-2.3-5.1-5.1v-71c0-2.8,2.3-5.1,5.1-5.1h152.6c2.8,0,5.1,2.3,5.1,5.1v71
				C197.8,416.1,195.6,418.3,192.8,418.3z M45.2,408.2h142.5v-60.8H45.2V408.2z"/>
		</g>
		<g>
			<path fill="#0E1131" d="M192.8,382.9H40.2c-2.8,0-5.1-2.3-5.1-5.1c0-2.8,2.3-5.1,5.1-5.1h152.6c2.8,0,5.1,2.3,5.1,5.1
				C197.8,380.6,195.6,382.9,192.8,382.9z"/>
		</g>
		<g>
			<path fill="#0E1131" d="M79.6,418.3c-2.8,0-5.1-2.3-5.1-5.1v-71c0-2.8,2.3-5.1,5.1-5.1c2.8,0,5.1,2.3,5.1,5.1v71
				C84.7,416.1,82.4,418.3,79.6,418.3z"/>
		</g>
		<g>
			<path fill="#0E1131" d="M153.4,418.3c-2.8,0-5.1-2.3-5.1-5.1v-71c0-2.8,2.3-5.1,5.1-5.1s5.1,2.3,5.1,5.1v71
				C158.4,416.1,156.2,418.3,153.4,418.3z"/>
		</g>
		<g>
			<path fill="#0E1131" d="M116.5,418.3c-2.8,0-5.1-2.3-5.1-5.1v-71c0-2.8,2.3-5.1,5.1-5.1c2.8,0,5.1,2.3,5.1,5.1v71
				C121.5,416.1,119.3,418.3,116.5,418.3z"/>
		</g>
		<g>
			<path fill="#0E1131" d="M419.2,478h-201c-2.8,0-5.1-2.3-5.1-5.1V162.1c0-2.8,2.3-5.1,5.1-5.1h201c2.8,0,5.1,2.3,5.1,5.1V473
				C424.3,475.8,422,478,419.2,478z M223.3,467.9h190.9V167.2H223.3V467.9z"/>
		</g>
		<g>
			<path fill="#0E1131" d="M396,167.2c-2.8,0-5.1-2.3-5.1-5.1v-35.5H246.5v35.5c0,2.8-2.3,5.1-5.1,5.1s-5.1-2.3-5.1-5.1v-40.5
				c0-2.8,2.3-5.1,5.1-5.1H396c2.8,0,5.1,2.3,5.1,5.1v40.5C401,164.9,398.8,167.2,396,167.2z"/>
		</g>
		<g>
			<path fill="#0E1131" d="M348.1,283.4h-54.2c-1.8,0-3.5-1-4.4-2.5l-27.1-46.9c-0.9-1.6-0.9-3.5,0-5.1l27.1-46.9
				c0.9-1.6,2.6-2.5,4.4-2.5h54.2c1.8,0,3.5,1,4.4,2.5l27.1,46.9c0.9,1.6,0.9,3.5,0,5.1l-27.1,46.9
				C351.6,282.4,349.9,283.4,348.1,283.4z M296.9,273.3h48.3l24.2-41.9l-24.2-41.9h-48.3l-24.2,41.9L296.9,273.3z"/>
		</g>
		<g>
			<path fill="#0E1131" d="M321,283.4c-2.8,0-5.1-2.3-5.1-5.1v-93.9c0-2.8,2.3-5.1,5.1-5.1c2.8,0,5.1,2.3,5.1,5.1v93.9
				C326.1,281.1,323.8,283.4,321,283.4z"/>
		</g>
		<g>
			<path fill="#0E1131" d="M375.2,236.5H266.8c-2.8,0-5.1-2.3-5.1-5.1c0-2.8,2.3-5.1,5.1-5.1h108.4c2.8,0,5.1,2.3,5.1,5.1
				C380.3,234.2,378,236.5,375.2,236.5z"/>
		</g>
		<g>
			<path fill="#0E1131" d="M362.9,215.1h-83.7c-2.8,0-5.1-2.3-5.1-5.1c0-2.8,2.3-5.1,5.1-5.1h83.7c2.8,0,5.1,2.3,5.1,5.1
				C367.9,212.8,365.7,215.1,362.9,215.1z"/>
		</g>
		<g>
			<path fill="#0E1131" d="M362.9,256.2h-83.7c-2.8,0-5.1-2.3-5.1-5.1s2.3-5.1,5.1-5.1h83.7c2.8,0,5.1,2.3,5.1,5.1
				S365.7,256.2,362.9,256.2z"/>
		</g>
		<g>
			<path fill="#0E1131" d="M393.8,418.3H241.2c-2.8,0-5.1-2.3-5.1-5.1v-71c0-2.8,2.3-5.1,5.1-5.1h152.6c2.8,0,5.1,2.3,5.1,5.1v71
				C398.9,416.1,396.6,418.3,393.8,418.3z M246.3,408.2h142.5v-60.8H246.3V408.2z"/>
		</g>
		<g>
			<path fill="#0E1131" d="M393.8,382.9H241.2c-2.8,0-5.1-2.3-5.1-5.1c0-2.8,2.3-5.1,5.1-5.1h152.6c2.8,0,5.1,2.3,5.1,5.1
				C398.9,380.6,396.6,382.9,393.8,382.9z"/>
		</g>
		<g>
			<path fill="#0E1131" d="M280.6,418.3c-2.8,0-5.1-2.3-5.1-5.1v-71c0-2.8,2.3-5.1,5.1-5.1c2.8,0,5.1,2.3,5.1,5.1v71
				C285.7,416.1,283.4,418.3,280.6,418.3z"/>
		</g>
		<g>
			<path fill="#0E1131" d="M354.4,418.3c-2.8,0-5.1-2.3-5.1-5.1v-71c0-2.8,2.3-5.1,5.1-5.1c2.8,0,5.1,2.3,5.1,5.1v71
				C359.5,416.1,357.2,418.3,354.4,418.3z"/>
		</g>
		<g>
			<path fill="#0E1131" d="M317.5,418.3c-2.8,0-5.1-2.3-5.1-5.1v-71c0-2.8,2.3-5.1,5.1-5.1s5.1,2.3,5.1,5.1v71
				C322.6,416.1,320.3,418.3,317.5,418.3z"/>
		</g>
		<g>
			<path fill="#0E1131" d="M464.2,478h-45c-2.8,0-5.1-2.3-5.1-5.1c0-2.8,2.3-5.1,5.1-5.1h39.9v-321H401v15.2c0,2.8-2.3,5.1-5.1,5.1
				c-2.8,0-5.1-2.3-5.1-5.1v-20.3c0-2.8,2.3-5.1,5.1-5.1h68.2c2.8,0,5.1,2.3,5.1,5.1V473C469.3,475.8,467,478,464.2,478z"/>
		</g>
	</g>
	<g>
		<path fill="#0E1131" d="M795.6,366H685.4c-1.8,0-3.5-1-4.4-2.5L626,268.1c-0.9-1.6-0.9-3.5,0-5.1l55.1-95.4
			c0.9-1.6,2.6-2.5,4.4-2.5h110.1c1.8,0,3.5,1,4.4,2.5l55.1,95.4c0.9,1.6,0.9,3.5,0,5.1l-55.1,95.4C799,365.1,797.4,366,795.6,366z
			 M688.4,355.9h104.3l52.1-90.3l-52.1-90.3H688.4l-52.1,90.3L688.4,355.9z"/>
	</g>
	<g>
		<path fill="#0E1131" d="M697.9,366c-2.8,0-5.1-2.3-5.1-5.1V170.2c0-2.8,2.3-5.1,5.1-5.1s5.1,2.3,5.1,5.1V361
			C702.9,363.8,700.7,366,697.9,366z"/>
	</g>
	<g>
		<path fill="#0E1131" d="M782.3,366c-2.8,0-5.1-2.3-5.1-5.1V170.2c0-2.8,2.3-5.1,5.1-5.1c2.8,0,5.1,2.3,5.1,5.1V361
			C787.4,363.8,785.1,366,782.3,366z"/>
	</g>
	<g>
		<path fill="#0E1131" d="M697.9,270.7h-67.5c-2.8,0-5.1-2.3-5.1-5.1c0-2.8,2.3-5.1,5.1-5.1h67.5c2.8,0,5.1,2.3,5.1,5.1
			C702.9,268.4,700.7,270.7,697.9,270.7z"/>
	</g>
	<g>
		<path fill="#0E1131" d="M850.6,270.7h-68.3c-2.8,0-5.1-2.3-5.1-5.1c0-2.8,2.3-5.1,5.1-5.1h68.3c2.8,0,5.1,2.3,5.1,5.1
			C855.7,268.4,853.4,270.7,850.6,270.7z"/>
	</g>
	<g>
		<path fill="#0E1131" d="M697.9,227.2h-42.4c-2.8,0-5.1-2.3-5.1-5.1s2.3-5.1,5.1-5.1h42.4c2.8,0,5.1,2.3,5.1,5.1
			S700.7,227.2,697.9,227.2z"/>
	</g>
	<g>
		<path fill="#0E1131" d="M825.5,227.2h-40.9c-2.8,0-5.1-2.3-5.1-5.1s2.3-5.1,5.1-5.1h40.9c2.8,0,5.1,2.3,5.1,5.1
			S828.3,227.2,825.5,227.2z"/>
	</g>
	<g>
		<path fill="#0E1131" d="M697.9,310.7h-42.4c-2.8,0-5.1-2.3-5.1-5.1c0-2.8,2.3-5.1,5.1-5.1h42.4c2.8,0,5.1,2.3,5.1,5.1
			C702.9,308.4,700.7,310.7,697.9,310.7z"/>
	</g>
	<g>
		<path fill="#0E1131" d="M825.5,310.7h-43.2c-2.8,0-5.1-2.3-5.1-5.1c0-2.8,2.3-5.1,5.1-5.1h43.2c2.8,0,5.1,2.3,5.1,5.1
			C830.6,308.4,828.3,310.7,825.5,310.7z"/>
	</g>
	<g>
		<path fill="#0E1131" d="M741.5,286c-6.2,0-11.3-5.1-11.3-11.3s5.1-11.3,11.3-11.3s11.3,5.1,11.3,11.3S747.7,286,741.5,286z
			 M741.5,273.6c-0.6,0-1.1,0.5-1.1,1.1c0,0.6,0.5,1.1,1.1,1.1c0.6,0,1.1-0.5,1.1-1.1C742.6,274.1,742.1,273.6,741.5,273.6z"/>
	</g>
	<g>
		<path fill="#0E1131" d="M591.8,41.6c0-1.7,1.4-3.1,3.1-3.1h0.6c1.5,0,2.4,0.7,3.2,1.8l12,15.8V41.4c0-1.7,1.4-3.1,3.1-3.1
			c1.7,0,3.1,1.4,3.1,3.1V64c0,1.7-1.4,3.1-3.1,3.1h-0.2c-1.5,0-2.4-0.7-3.2-1.8l-12.5-16.4v15.2c0,1.7-1.4,3.1-3.1,3.1
			c-1.7,0-3.1-1.4-3.1-3.1V41.6z"/>
		<path fill="#0E1131" d="M622.5,52.9L622.5,52.9c0-8.1,6.4-14.7,15.1-14.7c8.8,0,15,6.5,15,14.6v0.1c0,8.1-6.4,14.7-15.1,14.7
			C628.8,67.4,622.5,60.9,622.5,52.9z M646.2,52.9L646.2,52.9c0-4.9-3.6-9-8.6-9c-5,0-8.5,4-8.5,8.8v0.1c0,4.9,3.6,8.9,8.6,8.9
			C642.7,61.7,646.2,57.7,646.2,52.9z"/>
		<path fill="#0E1131" d="M658.2,41.7c0-1.7,1.4-3.1,3.1-3.1h7.9c8.9,0,15.1,6.1,15.1,14.1v0.1c0,8-6.2,14.2-15.1,14.2h-7.9
			c-1.7,0-3.1-1.4-3.1-3.1V41.7z M669.3,61.3c5.1,0,8.5-3.4,8.5-8.5v-0.1c0-5-3.4-8.6-8.5-8.6h-4.8v17.1H669.3z"/>
		<path fill="#0E1131" d="M689.9,63.8V41.7c0-1.7,1.4-3.1,3.1-3.1h15.7c1.5,0,2.8,1.3,2.8,2.8c0,1.5-1.3,2.8-2.8,2.8h-12.6v5.8H707
			c1.5,0,2.8,1.3,2.8,2.8s-1.3,2.8-2.8,2.8h-10.8v6H709c1.5,0,2.8,1.3,2.8,2.8c0,1.5-1.3,2.8-2.8,2.8h-15.9
			C691.3,67,689.9,65.6,689.9,63.8z"/>
		<path fill="#0E1131" d="M716.5,64c-0.7-0.5-1.2-1.4-1.2-2.3c0-1.6,1.3-2.9,2.9-2.9c0.8,0,1.4,0.3,1.8,0.6c2.1,1.6,4.5,2.6,7.3,2.6
			c2.6,0,4.1-1,4.1-2.7v-0.1c0-1.6-1-2.4-5.7-3.6c-5.7-1.5-9.4-3-9.4-8.7v-0.1c0-5.1,4.1-8.6,9.9-8.6c3.4,0,6.4,0.9,9,2.5
			c0.7,0.4,1.4,1.3,1.4,2.5c0,1.6-1.3,2.9-2.9,2.9c-0.6,0-1.1-0.2-1.6-0.4c-2.1-1.2-4-1.9-6-1.9c-2.4,0-3.6,1.1-3.6,2.5v0.1
			c0,1.9,1.2,2.5,6.1,3.7c5.8,1.5,9,3.6,9,8.5v0.1c0,5.6-4.3,8.8-10.4,8.8C723.5,67.4,719.7,66.2,716.5,64z"/>
		<path fill="#0E1131" d="M741.8,52.9L741.8,52.9c0-8.1,6.1-14.7,14.8-14.7c4.3,0,7.1,1.1,9.5,2.9c0.6,0.5,1.2,1.4,1.2,2.5
			c0,1.7-1.4,3-3.1,3c-0.9,0-1.4-0.3-1.9-0.6c-1.7-1.3-3.6-2-5.8-2c-4.8,0-8.2,4-8.2,8.8v0.1c0,4.9,3.4,8.9,8.2,8.9
			c2.6,0,4.4-0.8,6.2-2.2c0.5-0.4,1.1-0.7,1.9-0.7c1.6,0,2.9,1.3,2.9,2.9c0,1-0.5,1.7-1.1,2.2c-2.6,2.2-5.6,3.6-10.1,3.6
			C748,67.4,741.8,61,741.8,52.9z"/>
		<path fill="#0E1131" d="M773,41.5c0-1.7,1.4-3.1,3.1-3.1c1.7,0,3.1,1.4,3.1,3.1v8.3h11.5v-8.3c0-1.7,1.4-3.1,3.1-3.1
			s3.1,1.4,3.1,3.1v22.6c0,1.7-1.4,3.1-3.1,3.1s-3.1-1.4-3.1-3.1v-8.5h-11.5v8.5c0,1.7-1.4,3.1-3.1,3.1c-1.7,0-3.1-1.4-3.1-3.1V41.5
			z"/>
		<path fill="#0E1131" d="M802.5,52.9L802.5,52.9c0-8.1,6.4-14.7,15.1-14.7c8.8,0,15,6.5,15,14.6v0.1c0,8.1-6.4,14.7-15.1,14.7
			C808.8,67.4,802.5,60.9,802.5,52.9z M826.2,52.9L826.2,52.9c0-4.9-3.6-9-8.6-9c-5,0-8.5,4-8.5,8.8v0.1c0,4.9,3.6,8.9,8.6,8.9
			C822.7,61.7,826.2,57.7,826.2,52.9z"/>
		<path fill="#0E1131" d="M837,52.9L837,52.9c0-8.1,6.4-14.7,15.1-14.7c8.8,0,15,6.5,15,14.6v0.1c0,8.1-6.4,14.7-15.1,14.7
			C843.3,67.4,837,60.9,837,52.9z M860.6,52.9L860.6,52.9c0-4.9-3.6-9-8.6-9c-5,0-8.5,4-8.5,8.8v0.1c0,4.9,3.6,8.9,8.6,8.9
			C857.1,61.7,860.6,57.7,860.6,52.9z"/>
		<path fill="#0E1131" d="M872.7,41.5c0-1.7,1.4-3.1,3.1-3.1c1.7,0,3.1,1.4,3.1,3.1v19.8h11.5c1.6,0,2.8,1.3,2.8,2.8
			s-1.3,2.8-2.8,2.8h-14.7c-1.7,0-3.1-1.4-3.1-3.1V41.5z"/>
	</g>
	<g>
		<path fill="#0E1131" d="M940,119H535.7c-2.8,0-5.1-2.3-5.1-5.1s2.3-5.1,5.1-5.1H940c2.8,0,5.1,2.3,5.1,5.1S942.8,119,940,119z"/>
	</g>
	<g>
		<path fill="#0E1131" d="M241.2,146.9H195c-2.8,0-5.1-2.3-5.1-5.1s2.3-5.1,5.1-5.1h46.2c2.8,0,5.1,2.3,5.1,5.1
			S244,146.9,241.2,146.9z"/>
	</g>
	<g>
		<path fill="#0E1131" d="M1275.6,146.9h-46.2c-2.8,0-5.1-2.3-5.1-5.1s2.3-5.1,5.1-5.1h46.2c2.8,0,5.1,2.3,5.1,5.1
			S1278.4,146.9,1275.6,146.9z"/>
	</g>
</g>
</svg>
